<svg width="112" height="112" viewBox="0 0 112 112" fill="none" xmlns="http://www.w3.org/2000/svg">
<path d="M83.5231 49.1422C84.0057 49.3799 84.5342 49.5097 85.0719 49.5224C85.1021 49.5189 85.1313 49.5095 85.1579 49.4946C85.1844 49.4798 85.2077 49.4598 85.2264 49.4359C85.2451 49.412 85.2589 49.3845 85.267 49.3552C85.275 49.3259 85.2771 49.2953 85.2732 49.2652C85.2285 48.9129 84.8315 49.2148 83.73 48.706L83.7859 48.2923C83.8139 48.1749 83.6741 47.9848 83.5231 48.0407C83.3722 48.0966 83.333 48.2755 83.2883 48.5998C83.2436 48.9241 83.2212 48.9912 83.5231 49.1422ZM25.1609 50.7301C25.8338 50.5472 26.4656 50.2379 27.0229 49.8187C27.2409 49.651 27.1682 49.2596 27.1067 49.0359C27.0892 48.9779 27.0509 48.9284 26.9991 48.8969C26.9474 48.8654 26.8858 48.8541 26.8262 48.8651C26.7666 48.8762 26.7132 48.9089 26.6763 48.9569C26.6393 49.005 26.6213 49.0649 26.6259 49.1254C26.6365 49.2466 26.659 49.3664 26.693 49.4832C25.3678 50.4505 24.8534 50.2101 24.9317 50.6015C24.9491 50.6462 24.9815 50.6834 25.0233 50.7069C25.0651 50.7303 25.1138 50.7385 25.1609 50.7301ZM23.6401 49.6957C24.7584 49.6957 24.3782 49.0359 24.0762 49.1366L23.6457 49.2037C23.2767 47.4536 23.573 47.0846 23.2543 47.0734C23.2062 47.0703 23.1589 47.0861 23.1223 47.1174C23.0857 47.1487 23.0629 47.1931 23.0586 47.2411C23.0191 47.9325 23.0699 48.626 23.2096 49.3043C23.2711 49.6062 23.3829 49.6957 23.6401 49.6957ZM56.1089 48.734C56.4276 48.734 58.105 48.3706 58.3902 48.3258C58.8095 48.2531 59.3071 48.1245 59.3407 47.6716C59.3407 47.3921 59.1394 47.0678 58.9102 47.2355C58.8625 47.269 58.8272 47.3174 58.81 47.373C58.7928 47.4287 58.7946 47.4885 58.8151 47.543C58.899 47.7611 58.72 47.7443 56.0194 48.3314C55.9698 48.3468 55.9277 48.3802 55.9016 48.4252C55.8755 48.4701 55.8673 48.5232 55.8786 48.5739C55.8899 48.6247 55.9198 48.6693 55.9625 48.6989C56.0052 48.7286 56.0574 48.7411 56.1089 48.734ZM19.3348 35.0464C19.4578 35.1862 19.7597 35.0464 19.6703 34.834C19.1111 33.4697 18.0823 31.9488 17.4337 30.4504C17.3331 30.2099 17.1318 29.8018 16.9361 29.7794C16.9116 29.776 16.8866 29.7794 16.8639 29.7892C16.8412 29.7991 16.8217 29.8151 16.8075 29.8353C16.6845 30.0031 16.8634 30.4671 16.9473 30.6628C17.2045 31.2164 18.4514 34.0344 19.3348 35.0464ZM37.4618 32.6869C37.4723 32.7306 37.494 32.7707 37.5249 32.8034C37.5557 32.836 37.5945 32.86 37.6374 32.873C37.6804 32.8861 37.726 32.8876 37.7698 32.8775C37.8135 32.8674 37.8539 32.846 37.8868 32.8155C38.3484 32.3952 38.7679 31.9307 39.1392 31.4289C40.8166 36.7965 40.8166 36.9866 41.0794 36.9866C41.1171 36.9856 41.1541 36.9764 41.1879 36.9598C41.2218 36.9432 41.2516 36.9195 41.2755 36.8903C41.2994 36.8612 41.3167 36.8272 41.3263 36.7908C41.3358 36.7543 41.3375 36.7162 41.331 36.6791C40.7048 34.6998 40.045 32.7652 39.4747 30.7914C39.4619 30.7424 39.4349 30.6982 39.3971 30.6644C39.3593 30.6307 39.3124 30.6088 39.2622 30.6017C39.212 30.5945 39.1608 30.6023 39.1151 30.6242C39.0693 30.646 39.0311 30.6808 39.0051 30.7244C38.684 31.2294 38.309 31.6981 37.8868 32.1222C37.5513 30.5902 36.7685 27.09 36.7685 27.09C36.7544 27.0336 36.7185 26.9852 36.6687 26.9553C36.6189 26.9254 36.5593 26.9166 36.5029 26.9306C36.4466 26.9447 36.3981 26.9806 36.3683 27.0304C36.3384 27.0802 36.3295 27.1399 36.3436 27.1962C36.5337 28.0629 37.3444 32.3011 37.4618 32.6869ZM8.33666 61.773C6.53625 60.9119 4.93155 60.0285 3.08641 59.0556C2.72857 58.8655 2.48255 59.5197 3.04168 59.6706C4.65263 60.6761 6.3704 61.4994 8.16333 62.1252C8.38698 62.1867 8.54354 61.896 8.33666 61.773ZM9.76804 48.8626C9.80647 48.8966 9.85439 48.918 9.90536 48.924C9.95633 48.93 10.0079 48.9203 10.0532 48.8961C10.4222 48.7172 9.94696 48.2755 10.1259 45.6196C14.6604 51.0935 14.4088 50.9537 14.5989 50.9537C14.6383 50.9562 14.6775 50.9474 14.712 50.9282C14.7466 50.9091 14.7749 50.8806 14.7937 50.8459C14.8125 50.8112 14.821 50.7719 14.8182 50.7326C14.8154 50.6932 14.8014 50.6555 14.7779 50.6239C14.0678 49.7292 10.959 45.8656 10.1315 44.8145C10.1004 44.775 10.0586 44.7454 10.0111 44.7289C9.96365 44.7125 9.91246 44.71 9.86363 44.7218C9.8148 44.7336 9.77036 44.7591 9.73558 44.7953C9.7008 44.8316 9.67714 44.877 9.66739 44.9263C9.55373 45.9474 9.53501 46.9769 9.61148 48.0015C7.93408 46.4975 6.32938 44.9039 4.63521 43.439C4.58392 43.3979 4.51976 43.3761 4.45401 43.3776C4.38827 43.379 4.32514 43.4036 4.27573 43.447C4.22632 43.4904 4.1938 43.5498 4.18387 43.6148C4.17394 43.6799 4.18725 43.7463 4.22145 43.8024C4.88122 44.8257 8.60504 47.8058 9.76804 48.8626ZM53.8724 28.1244C53.8724 28.1793 53.8942 28.2319 53.933 28.2707C53.9718 28.3095 54.0244 28.3313 54.0793 28.3313C54.1341 28.3313 54.1867 28.3095 54.2255 28.2707C54.2643 28.2319 54.2861 28.1793 54.2861 28.1244C54.382 26.0707 54.2959 24.0125 54.0289 21.9739C54.0232 21.9201 54.0019 21.8692 53.9678 21.8272C53.9337 21.7853 53.8881 21.7541 53.8366 21.7375C53.7851 21.721 53.7299 21.7197 53.6777 21.7339C53.6255 21.748 53.5785 21.777 53.5425 21.8174C53.2909 22.1417 53.8947 23.1649 53.8724 28.1244ZM69.0025 37.8365C73.2575 30.6573 73.0282 31.0151 72.9947 30.8865C72.8996 30.5622 72.6313 30.7188 70.4786 31.3674C71.0377 29.3824 71.7366 27.2633 72.2007 25.256C72.2104 25.1911 72.1954 25.125 72.1587 25.0706C72.122 25.0161 72.0663 24.9774 72.0025 24.962C71.9388 24.9466 71.8715 24.9556 71.814 24.9872C71.7565 25.0189 71.713 25.0709 71.6919 25.133C71.0601 27.3696 70.4339 29.5558 69.83 31.7028C69.8202 31.7472 69.8219 31.7933 69.8349 31.8369C69.8478 31.8805 69.8716 31.92 69.904 31.9519C69.9364 31.9837 69.9764 32.0068 70.0202 32.019C70.0639 32.0312 70.1101 32.0321 70.1543 32.0215C70.1543 32.0215 71.636 31.563 72.2343 31.3674L68.6614 37.6464C68.6403 37.6913 68.637 37.7425 68.6522 37.7897C68.6674 37.8369 68.6999 37.8765 68.7432 37.9007C68.7865 37.9248 68.8374 37.9316 68.8855 37.9197C68.9336 37.9078 68.9754 37.8781 69.0025 37.8365ZM108.98 54.2359C108.69 54.0961 103.311 57.4397 103.255 57.4788C103.059 57.6186 103.255 57.9653 103.456 57.859C103.78 57.7137 108.919 54.8565 109.092 54.549C109.106 54.5211 109.113 54.4908 109.115 54.46C109.116 54.4291 109.112 54.3983 109.101 54.3692C109.091 54.3401 109.075 54.3134 109.054 54.2905C109.033 54.2676 109.008 54.249 108.98 54.2359ZM94.7449 47.845C94.7449 47.845 100.135 43.7354 101.141 42.9526C101.359 42.7792 101.141 42.3934 100.884 42.4214C99.8696 42.4456 98.8593 42.5597 97.8649 42.7625C99.3081 41.2228 100.586 39.5362 101.678 37.7303C101.863 37.4283 101.415 37.1152 101.236 37.4228C100.005 39.4322 98.5387 41.2884 96.8696 42.9526C96.6907 43.1259 96.8025 43.5508 97.0933 43.5117C98.0802 43.2604 99.0864 43.0921 100.101 43.0085C100.101 43.0085 95.8296 46.4471 94.5101 47.5374C94.4879 47.5731 94.4771 47.6147 94.4791 47.6566C94.4811 47.6986 94.4958 47.7389 94.5213 47.7723C94.5468 47.8057 94.5819 47.8305 94.6218 47.8435C94.6617 47.8565 94.7047 47.857 94.7449 47.845ZM87.0345 31.6581C90.4676 25.7425 91.0658 24.8814 90.4899 24.736C90.2439 24.6745 90.2551 24.6969 86.6487 31.4456C86.6318 31.4954 86.6329 31.5495 86.6519 31.5985C86.6709 31.6475 86.7065 31.6882 86.7525 31.7136C86.7986 31.7389 86.852 31.7473 86.9036 31.7371C86.9552 31.727 87.0015 31.699 87.0345 31.6581Z" fill="black"/>
<path d="M102.88 68.1527C100.599 60.9567 94.8344 55.4213 87.0513 52.9723C87.0461 52.8298 87.0311 52.6878 87.0065 52.5473C89.1312 51.6192 89.6065 48.4265 89.1368 45.6476C89.545 44.9823 90.6297 41.5604 89.8302 42.0301L88.3708 42.8911C88.1639 42.332 87.9235 41.812 87.6663 41.2976C87.7222 40.403 86.9059 38.8039 85.4689 37.7583C84.1494 36.7966 81.8793 35.9355 78.5692 37.311C75.986 38.3845 73.073 40.7552 72.6312 44.1995C72.0721 48.6726 73.5538 50.842 70.7861 54.9963C67.7279 53.6116 64.4681 52.7245 61.1299 52.3684C61.13 52.1178 61.1132 51.8675 61.0796 51.6192C62.5054 50.8979 62.8073 48.5495 62.8688 47.7835C64.5462 46.3298 64.7419 43.4335 63.4279 43.3664C63.7656 41.2915 63.8949 39.188 63.8137 37.0873C63.741 35.7846 63.1819 35.4938 62.9247 35.4379C62.7432 35.4036 62.5557 35.421 62.3837 35.4883C62.2116 35.5555 62.062 35.6698 61.9518 35.8181C61.5325 34.9626 60.7273 35.0689 60.2744 35.7175C60.23 35.4873 60.1143 35.2769 59.9437 35.116C59.7731 34.9551 59.5563 34.852 59.3239 34.8211C59.0915 34.7902 58.8552 34.8331 58.6485 34.9438C58.4418 35.0545 58.2752 35.2273 58.1721 35.4379C58.0637 35.2071 57.8891 35.0137 57.6706 34.8823C57.452 34.7509 57.1993 34.6875 56.9446 34.7001C56.6899 34.7127 56.4447 34.8007 56.2401 34.953C56.0356 35.1053 55.8809 35.3149 55.7958 35.5553C55.2367 34.342 53.8109 34.6216 53.4922 35.8517C53.0728 34.9067 51.9266 34.9123 51.5296 36.0082C50.484 35.2366 49.6621 36.0082 49.4944 37.2774C49.3928 39.4357 49.4826 41.5986 49.7627 43.741C47.8673 43.3161 49.3434 47.7556 50.4728 47.8618C50.6685 49.5392 51.3619 51.3843 52.7094 51.8316C52.7094 52.0553 52.6758 52.2845 52.6758 52.5082C49.0606 53.0855 45.5815 54.3191 42.4102 56.1481C40.6657 54.9181 36.7853 53.2463 33.0559 53.5538C32.3801 52.1261 31.8717 50.6251 31.5406 49.0807C31.2946 47.7332 31.9264 47.202 31.9208 46.039C32.6448 44.5801 32.8252 42.911 32.4297 41.3311C30.6684 35.7398 20.0281 37.8645 20.33 44.0038C20.3692 44.7027 20.4307 45.4016 20.4922 45.944C19.1782 46.341 19.3739 46.436 19.7374 48.0351C19.9331 48.9074 20.1567 49.6287 21.0737 49.4386C21.493 51.2557 22.5498 54.1576 25.0435 54.1576C25.1945 54.1576 25.0435 54.0626 25.1833 55.0019C18.9266 57.7249 11.0708 62.8298 9.03557 71.7759C8.54353 73.9341 8.24719 76.9982 9.65621 79.313C11.205 81.8906 13.9447 82.0527 15.9129 81.9241C15.4522 84.4554 15.3039 87.0336 15.4712 89.601C15.4722 89.6369 15.4831 89.6718 15.5026 89.7019C15.5221 89.732 15.5495 89.7562 15.5818 89.7718C15.6141 89.7873 15.6501 89.7937 15.6858 89.7903C15.7215 89.7868 15.7556 89.7735 15.7843 89.752C16.0862 89.5731 15.4935 89.383 16.4385 81.885C21.7055 81.3986 26.7265 79.1341 31.3673 76.7522C32.1333 77.3113 32.8937 77.8704 33.6821 78.3736C34.3303 79.6843 35.3236 80.7933 36.5551 81.5815C37.7866 82.3696 39.2097 82.8071 40.6713 82.8467C40.5315 85.2004 40.5315 87.5604 40.6713 89.9141C40.6733 89.9426 40.6811 89.9703 40.6942 89.9957C40.7072 90.0211 40.7252 90.0436 40.7471 90.0618C40.7691 90.0801 40.7944 90.0938 40.8217 90.102C40.849 90.1102 40.8777 90.1129 40.9061 90.1098C41.387 90.0651 40.7663 89.8247 41.1465 82.8411C45.7985 82.8411 49.6174 79.805 53.4474 77.4846C57.954 79.5478 69.0025 83.3891 74.8454 82.282C75.1138 84.6639 75.0747 86.9228 75.3039 89.2264C75.3113 89.2677 75.333 89.3052 75.3652 89.3321C75.3974 89.3591 75.438 89.3738 75.48 89.3738C75.522 89.3738 75.5627 89.3591 75.5949 89.3321C75.6271 89.3052 75.6488 89.2677 75.6562 89.2264C75.8029 86.8726 75.7074 84.51 75.371 82.1757C79.4247 81.214 81.9128 78.3569 82.5726 73.9174C82.841 73.7384 83.1318 73.5372 83.4337 73.3079C86.8947 74.689 94.0572 78.0494 97.5574 78.1724C97.3952 80.7723 97.166 83.5177 97.1268 86.2127C97.1346 86.2582 97.1582 86.2995 97.1935 86.3293C97.2288 86.3591 97.2735 86.3754 97.3197 86.3754C97.3659 86.3754 97.4106 86.3591 97.4459 86.3293C97.4812 86.2995 97.5048 86.2582 97.5126 86.2127C97.5909 85.469 98.0997 79.1229 98.0718 78.1556C103.674 78.027 104.558 73.4421 102.88 68.1527ZM62.9806 44.2554C63.1316 44.0541 63.2155 43.8193 63.4335 43.8864C64.2163 44.1156 63.5901 46.0614 62.9359 46.9281C62.9918 46.039 63.0086 45.1388 62.9806 44.2554ZM49.6341 44.2554C49.8131 44.2554 49.7907 44.3337 50.1933 44.412L50.4169 47.1741C49.5894 46.4081 48.9911 44.2666 49.6341 44.2666V44.2554ZM88.4826 43.6963C88.5064 43.6177 88.5603 43.5517 88.6327 43.5129C88.7051 43.4741 88.7899 43.4657 88.8684 43.4894C88.947 43.5131 89.013 43.5671 89.0518 43.6395C89.0906 43.7118 89.0991 43.7966 89.0753 43.8752C88.8796 44.5685 88.7287 45.0717 88.6001 45.5526C88.567 45.6124 88.5205 45.6638 88.4642 45.7026C88.408 45.7414 88.3434 45.7666 88.2758 45.7762C87.7837 45.793 88.3093 44.1995 88.4826 43.6851V43.6963ZM79.0724 45.9328C79.3912 45.6924 79.777 45.9999 79.8385 46.0055C80.364 46.341 80.9567 45.8545 80.8058 45.7147L80.6939 45.6253C80.2802 45.301 79.4303 44.63 79.6092 44.1715C79.7434 43.8249 80.2914 43.8752 80.6492 43.8584C80.6619 43.858 80.6744 43.8548 80.6856 43.8489C80.6969 43.843 80.7066 43.8346 80.7142 43.8243C80.7217 43.8141 80.7268 43.8023 80.7291 43.7898C80.7314 43.7773 80.7309 43.7644 80.7275 43.7522C80.6716 43.5733 80.6045 43.3943 80.5374 43.1931C82.6504 42.1451 84.9673 41.5725 87.3252 41.5157C87.5657 42.0748 87.7725 42.606 87.9571 43.1316C87.2581 43.5285 86.4642 43.9647 86.2797 44.7586C86.1135 44.738 85.9449 44.7549 85.7862 44.8081C85.6275 44.8614 85.4828 44.9495 85.3627 45.0661C84.4848 44.0094 80.8505 44.0989 80.118 44.1268C79.1731 44.1659 81.6668 46.0726 82.3546 46.6094C84.6638 48.4042 86.1734 47.1685 85.5975 45.5302C85.6782 45.4312 85.7844 45.356 85.9045 45.3127C86.0247 45.2694 86.1543 45.2595 86.2797 45.2842C86.3005 45.3904 86.3343 45.4937 86.3803 45.5917C86.3525 45.5779 86.3219 45.5708 86.2908 45.5708C86.2598 45.5708 86.2292 45.5779 86.2014 45.5917C85.9721 45.7371 86.2014 45.9328 86.727 46.8666C86.6621 46.9325 86.593 46.9941 86.5201 47.0511C86.3076 47.2076 86.4921 47.8898 87.2022 47.0511C87.3085 46.9225 87.1072 46.5479 86.8835 46.218C87.1534 46.4019 87.4769 46.4908 87.8029 46.4705C88.1289 46.4503 88.4389 46.3221 88.6839 46.1061C88.9283 47.6073 88.7899 49.1458 88.2814 50.5792C87.7222 51.9491 86.3188 52.0273 86.604 52.5473C86.6777 54.3908 86.5275 56.2364 86.1567 58.0436C84.7197 57.7305 81.8905 54.2247 80.761 52.5977C80.878 51.2381 80.7026 49.8692 80.2466 48.5831C79.872 47.9345 79.1284 47.6382 78.9327 46.9057C78.8563 46.7424 78.8289 46.5604 78.8537 46.3818C78.8785 46.2032 78.9545 46.0356 79.0724 45.8993V45.9328ZM87.5489 44.9991C87.4874 45.1836 87.4482 45.4408 87.247 45.4408C87.0457 45.4408 86.945 45.2059 86.9674 45.0046C86.9898 44.8034 87.0457 44.3393 87.2581 44.2163C87.299 44.1961 87.344 44.1855 87.3895 44.1855C87.4351 44.1855 87.4801 44.1961 87.5209 44.2163C87.7837 44.289 87.644 44.6803 87.5489 44.9655V44.9991ZM84.5352 46.2851C84.4737 46.436 84.4122 46.71 84.2332 46.7939C84.2019 46.8092 84.1675 46.8171 84.1326 46.8171C84.0977 46.8171 84.0633 46.8092 84.032 46.7939C83.6965 46.6709 84.0655 45.424 84.3674 45.1836C84.3938 45.1567 84.4265 45.137 84.4625 45.1261C84.4985 45.1153 84.5366 45.1137 84.5734 45.1215C84.6102 45.1293 84.6444 45.1462 84.6729 45.1708C84.7014 45.1953 84.7233 45.2266 84.7365 45.2618C84.8539 45.519 84.5687 46.1676 84.5352 46.2515V46.2851ZM83.3107 45.7427C83.238 45.8881 83.2044 46.0223 83.0143 46.0223C82.9696 46.0254 82.9248 46.0174 82.8839 45.9992C82.8429 45.981 82.8071 45.9529 82.7795 45.9176C82.7519 45.8823 82.7334 45.8407 82.7256 45.7966C82.7178 45.7524 82.7209 45.7071 82.7348 45.6644C82.7963 45.4799 82.8634 45.0606 83.087 44.9487C83.1225 44.9324 83.1609 44.9234 83.1999 44.9225C83.2389 44.9216 83.2777 44.9287 83.3139 44.9434C83.35 44.958 83.3828 44.98 83.4101 45.0078C83.4375 45.0357 83.4588 45.0689 83.4728 45.1053C83.5511 45.2898 83.4225 45.5414 83.3107 45.7427ZM80.515 52.9108C82.103 55.6505 86.2853 59.6204 86.6096 58.2896C86.9753 56.7099 87.1443 55.0911 87.1128 53.4699C94.7729 56.1761 99.9728 61.1356 102.237 67.8284C100.598 67.0461 98.7971 66.6629 96.9815 66.7102C96.9032 64.8706 94.3815 61.3145 93.4142 60.2466C93.2185 60.0285 92.8551 60.3081 93.0675 60.5262C94.5178 62.1684 95.6277 64.0822 96.3329 66.1566C93.5931 64.0934 88.0745 61.2139 80.5094 63.5846C78.5468 60.2346 75.681 57.5045 72.2399 55.7064C74.7161 54.087 77.564 53.1249 80.515 52.9108ZM51.3563 40.2968C54.7186 39.379 58.2515 39.2774 61.6611 40.0004C61.6037 40.9479 61.6336 41.8988 61.7505 42.8408H61.6499C61.1858 40.7049 58.2112 40.0451 57.2104 42.2817C56.6991 42.1083 56.1449 42.1083 55.6336 42.2817C54.6663 40.2688 51.8651 40.9174 51.3507 42.9079H51.2444C51.362 42.0428 51.3994 41.1687 51.3563 40.2968ZM58.9605 44.8984C59.0611 44.6133 59.9669 42.4997 60.554 42.4382C60.6029 42.4376 60.6512 42.4486 60.6949 42.4704C60.7386 42.4922 60.7766 42.5241 60.8055 42.5634C60.8345 42.6028 60.8537 42.6485 60.8615 42.6967C60.8693 42.7449 60.8654 42.7943 60.8503 42.8408C60.3512 43.5518 59.9064 44.2995 59.5196 45.0773C59.3798 45.424 58.8319 45.2898 58.9605 44.8984ZM58.1497 44.1156C58.0826 44.2834 57.7807 44.384 57.6745 44.1883C57.5682 43.9926 57.8254 43.249 58.5523 42.1587C58.7368 41.8847 58.9101 41.7505 59.0611 41.7729C59.1102 41.7869 59.1552 41.8127 59.192 41.8481C59.2289 41.8835 59.2565 41.9274 59.2725 41.9759C59.2885 42.0245 59.2924 42.0762 59.2838 42.1265C59.2752 42.1769 59.2544 42.2244 59.2233 42.2649C58.7977 42.84 58.4377 43.4607 58.1497 44.1156ZM53.2853 45.0438C53.5257 44.5182 53.7941 43.987 54.0513 43.467C54.0787 43.4169 54.1192 43.375 54.1684 43.3459C54.2176 43.3167 54.2737 43.3013 54.3309 43.3013C54.388 43.3013 54.4442 43.3167 54.4933 43.3459C54.5425 43.375 54.583 43.4169 54.6104 43.467C54.6455 43.5201 54.6642 43.5823 54.6642 43.646C54.6642 43.7096 54.6455 43.7718 54.6104 43.8249C54.3644 44.3113 54.1128 44.8201 53.8444 45.3122C53.6319 45.5917 53.1175 45.3793 53.2853 45.0438ZM52.6087 44.3393L52.5752 44.3784C52.4019 44.63 51.9657 44.4679 52.0831 44.1492C52.406 43.2901 52.8183 42.4674 53.3132 41.6946C53.5537 41.4038 54.0401 41.6554 53.8724 41.9965C53.4754 42.7905 52.9889 43.5341 52.6087 44.3393ZM50.6126 44.3896C50.9705 44.2386 51.0711 43.8305 51.1718 43.4782L51.2892 43.4447C51.2599 43.8326 51.3075 44.2224 51.4294 44.5919C51.5513 44.9613 51.7449 45.303 51.9993 45.5973C52.3008 45.8935 52.6788 46.1 53.0909 46.1939C53.503 46.2878 53.9331 46.2654 54.3332 46.1291C54.7333 45.9929 55.0876 45.7481 55.3568 45.4222C55.6259 45.0963 55.7992 44.702 55.8573 44.2834C55.7995 44.8218 55.7752 45.3634 55.7846 45.9048C55.7846 46.2403 55.7063 46.6597 56.1201 46.6876H56.6792C56.97 46.6876 57.0482 46.1844 56.7128 46.1788H56.299C56.2664 45.1826 56.3207 44.1854 56.4612 43.1986C56.5003 42.9247 56.1033 42.8855 56.0474 43.1427C55.8014 44.3449 56.0474 43.6571 55.8293 42.7681C56.2197 42.6281 56.6466 42.6281 57.0371 42.7681C56.9139 43.2164 56.8897 43.686 56.966 44.1446C57.0422 44.6032 57.2172 45.0397 57.4788 45.424C57.678 45.6821 57.9304 45.8944 58.2189 46.0465C58.5073 46.1985 58.8251 46.2868 59.1506 46.3054C59.4762 46.324 59.8019 46.2723 60.1058 46.154C60.4097 46.0357 60.6845 45.8535 60.9118 45.6197C61.4611 45.0067 61.7535 44.2059 61.7282 43.3832H61.8344C61.9015 43.8696 62.0021 44.5406 62.5165 44.5014C62.4606 46.4137 62.6284 49.6902 61.1131 50.8867C60.9174 51.0433 60.6938 51.2222 60.6658 51.4011C60.5959 51.9936 60.5959 52.5923 60.6658 53.1847C60.828 54.7335 58.1162 57.7976 56.7128 59.106C54.0066 55.4269 53.2294 55.0634 53.235 51.8372C53.235 51.5129 53.1958 51.4626 52.9722 51.3508C50.7077 50.2549 50.9146 47.0958 50.6126 44.3896ZM52.7038 53.0002C52.7653 54.7168 54.1128 57.0372 56.4891 59.5365C56.97 60.1627 61.2194 54.946 61.1355 53.8166V52.8716C72.5809 54.2191 80.7834 60.8057 82.0918 69.6847C77.3391 68.751 71.3341 69.8469 70.3164 70.0426C69.88 67.2618 69.0576 64.5556 67.873 62.0023C67.853 61.9526 67.8141 61.9129 67.7648 61.8919C67.7155 61.8709 67.6599 61.8704 67.6102 61.8904C67.5606 61.9105 67.5209 61.9494 67.4999 61.9987C67.4789 62.048 67.4784 62.1036 67.4984 62.1532C68.5265 64.6734 69.2764 67.2982 69.7349 69.9811C66.7939 66.8835 62.3209 65.508 56.0865 65.7876C52.334 65.9616 48.6065 66.4914 44.9542 67.3699C45.2464 65.6649 45.9423 64.0544 46.9839 62.6732C47.0067 62.6316 47.0136 62.5831 47.0033 62.5367C46.993 62.4903 46.9662 62.4493 46.9279 62.4212C46.8895 62.3932 46.8423 62.38 46.795 62.3842C46.7477 62.3884 46.7036 62.4096 46.6707 62.444C45.4959 63.8956 44.7245 65.6313 44.4342 67.4762C40.3804 68.4486 36.4436 69.8565 32.6924 71.6752C33.2068 60.7218 43.3327 54.851 52.7038 53.0002ZM28.4542 42.6451C28.4485 43.176 28.4803 43.7066 28.5493 44.233C26.5364 44.2834 23.3382 45.0661 20.9563 45.8042C20.8948 45.3122 20.755 44.4176 20.7494 43.8864C23.1461 42.7441 25.8201 42.3133 28.4542 42.6451ZM26.6762 45.6476C25.5579 47.5487 25.7983 47.8842 25.4237 47.8842C25.3817 47.8867 25.3397 47.8792 25.3012 47.8621C25.2627 47.845 25.2288 47.8189 25.2025 47.786C25.1762 47.7532 25.1582 47.7144 25.15 47.6731C25.1418 47.6318 25.1436 47.5891 25.1553 47.5487C25.6642 45.6253 26.1506 45.2674 26.3966 45.2227C26.4503 45.2118 26.5059 45.2172 26.5565 45.2382C26.607 45.2592 26.6501 45.2949 26.6802 45.3406C26.7103 45.3863 26.726 45.44 26.7252 45.4947C26.7245 45.5495 26.7074 45.6027 26.6762 45.6476ZM24.9485 46.067C24.7416 46.4081 24.6913 46.8833 24.3893 46.8106C24.0874 46.738 24.3055 46.0558 24.4844 45.6924C24.6633 45.3289 24.8199 45.3234 24.9261 45.3513C24.986 45.3676 25.0392 45.4022 25.0783 45.4504C25.1175 45.4985 25.1405 45.5578 25.1442 45.6197C25.1222 45.7842 25.0544 45.9392 24.9485 46.067ZM20.7885 47.1853C20.727 47.3306 20.7214 47.7779 20.4195 47.7779C20.3607 47.7802 20.3029 47.7627 20.2553 47.7283C20.2076 47.6938 20.1729 47.6444 20.1567 47.5878C20.1271 47.1967 20.2515 46.8095 20.5034 46.5087C20.5553 46.4623 20.6206 46.4335 20.6899 46.4265C20.7592 46.4194 20.829 46.4345 20.8892 46.4696C21.0234 46.559 20.9954 46.7939 20.7885 47.1685V47.1853ZM20.9954 48.488C21.5042 46.6597 21.795 46.3913 21.9683 46.3522C22.0039 46.3439 22.0411 46.3459 22.0757 46.3577C22.1103 46.3696 22.1409 46.3909 22.164 46.4192C22.24 46.5073 22.2782 46.6219 22.2702 46.738L21.5322 48.6446C21.5092 48.7158 21.4589 48.7749 21.3923 48.809C21.3257 48.8431 21.2483 48.8493 21.1771 48.8263C21.1059 48.8033 21.0468 48.753 21.0127 48.6864C20.9787 48.6198 20.9724 48.5424 20.9954 48.4713V48.488ZM21.5545 49.3323C22.6281 49.0192 22.9747 49.1087 22.8573 47.476C22.8182 47.0119 22.7287 45.9552 23.1984 45.9719C23.5786 45.9719 23.5898 47.7388 24.1545 48.2868C24.7192 48.8347 25.4517 48.4489 26.0667 48.2868C27.7441 47.8283 27.3751 47.1126 27.2521 44.8928L28.6611 44.781C29.2929 48.0575 30.1428 45.6029 30.7131 45.2339C31.0766 45.0046 31.3897 45.5079 31.4568 45.8937C31.5854 46.7212 30.8976 47.627 31.043 48.8403C31.3725 50.5964 31.9367 52.3003 32.7204 53.906C31.4959 56.232 27.979 58.3791 26.4134 59.229C25.7536 56.8359 25.6977 53.6936 25.2951 53.7047C23.4388 53.7159 22.2199 52.3125 21.5322 49.3156L21.5545 49.3323ZM25.2336 55.5387C25.3343 56.383 25.748 60.0118 26.3519 59.7098C27.8727 58.9941 32.5023 55.9525 33.1621 53.9955C34.1406 54.2191 37.1935 53.6265 41.9349 56.4836C38.436 58.5735 35.6284 61.6456 33.861 65.3179C29.3377 64.7588 23.7407 64.0599 19.0384 66.5424C20.4754 63.1541 21.3365 62.8186 20.9283 62.5502C20.9072 62.5358 20.8833 62.5257 20.8582 62.5207C20.8331 62.5157 20.8073 62.5158 20.7822 62.521C20.7571 62.5262 20.7334 62.5365 20.7124 62.5511C20.6914 62.5657 20.6735 62.5844 20.6599 62.6061C20.5146 62.8242 18.4737 66.1958 18.4234 66.8835C17.635 67.3643 15.952 68.5944 15.4488 69.5617C13.3933 69.6018 11.3902 70.2178 9.66739 71.3398C11.3672 64.7588 16.7404 59.2961 25.2113 55.5219L25.2336 55.5387ZM10.7353 79.956C8.59945 77.7195 9.05794 73.9789 9.49965 71.9269C14.9568 68.3428 22.1696 69.8748 30.948 76.4894C27.9957 77.753 15.0966 84.4794 10.7353 79.956ZM16.0135 69.5505C20.453 64.6358 26.8719 64.9489 33.6318 65.782C31.8985 69.7798 31.7475 74.0012 33.1957 77.4455C28.1635 73.6769 22.2199 69.5338 16.0135 69.5338V69.5505ZM41.1074 82.4106C35.5999 82.4106 32.6421 77.5741 32.7204 72.2064C40.5483 68.6895 47.3864 66.8891 54.8788 66.3691C61.7226 65.8938 66.3298 67.1407 69.3491 70.283C54.5992 73.5875 48.5103 82.3938 41.1074 82.3938V82.4106ZM74.9237 81.7955C69.4498 83.0312 60.3863 79.7994 53.9451 77.2218C64.2107 71.1608 73.4476 68.874 82.1645 70.2327C82.8522 76.4782 80.2802 80.5822 74.9237 81.7955ZM82.6789 73.3303C82.9691 70.0972 82.2856 66.8511 80.7163 64.0095C86.7214 62.4552 91.7927 63.361 96.1987 66.7717C90.4117 67.2022 84.5799 71.72 82.6733 73.3303H82.6789ZM97.8873 77.6747C94.4654 77.6747 87.2637 74.3199 83.9481 72.9668C87.493 70.283 91.6921 67.437 96.7466 67.2357C98.7212 67.1138 100.691 67.5456 102.433 68.4826C103.931 73.5372 103.182 77.6412 97.8817 77.6747H97.8873Z" fill="black"/>
</svg>
