<svg width="105" height="108" viewBox="0 0 105 108" fill="none" xmlns="http://www.w3.org/2000/svg">
<path d="M59.55 82.6526C59.507 82.6644 59.4704 82.6929 59.4484 82.7317C59.4264 82.7705 59.4207 82.8164 59.4326 82.8594C59.4444 82.9025 59.4729 82.939 59.5117 82.961C59.5505 82.983 59.5964 82.9887 59.6394 82.9769C61.0524 82.6674 62.3771 82.0424 63.5142 81.1485C67.8363 77.9559 67.6127 73.4269 70.0728 69.2837C72.041 66.1246 73.7687 66.4881 73.6345 66.0799C73.6295 66.0638 73.6213 66.0488 73.6102 66.036C73.5992 66.0232 73.5857 66.0128 73.5705 66.0055C73.5553 65.9981 73.5387 65.994 73.5218 65.9933C73.5049 65.9927 73.4881 65.9955 73.4724 66.0016C65.734 68.8476 70.1064 78.9958 59.55 82.6526ZM90.867 72.7112C91.085 72.4819 91.3031 72.2415 91.5156 72.0011C93.1594 70.005 94.3112 66.913 94.1994 64.6373C94.1966 64.6128 94.187 64.5895 94.1718 64.5701C94.1566 64.5506 94.1363 64.5357 94.1132 64.527C94.0901 64.5184 94.065 64.5162 94.0407 64.5209C94.0165 64.5256 93.994 64.5368 93.9757 64.5535C93.808 64.7156 94.2777 65.6102 93.0979 68.4282C91.9796 71.1009 91.0012 71.783 89.8997 73.0299C88.9129 74.1692 88.1628 75.4937 87.6934 76.926C87.224 78.3583 87.0445 79.8697 87.1655 81.3722C87.1719 81.4038 87.1891 81.4322 87.214 81.4526C87.239 81.473 87.2703 81.4841 87.3025 81.4841C87.3347 81.4841 87.366 81.473 87.391 81.4526C87.4159 81.4322 87.4331 81.4038 87.4395 81.3722C87.4012 79.7725 87.6848 78.1814 88.2736 76.6936C88.8624 75.2057 89.7444 73.8514 90.867 72.7112ZM41.7752 48.5679C42.3343 48.1821 42.2952 47.0023 41.7752 46.5662C41.6281 46.4475 41.4567 46.3627 41.2732 46.3178C41.0896 46.2728 40.8984 46.2689 40.7132 46.3063C40.5279 46.3437 40.3532 46.4214 40.2014 46.534C40.0496 46.6465 39.9245 46.7912 39.835 46.9576C39.7312 47.2177 39.7125 47.504 39.7816 47.7754C39.8507 48.0469 40.004 48.2894 40.2195 48.4683C40.435 48.6471 40.7016 48.7531 40.9811 48.771C41.2606 48.7889 41.5386 48.7178 41.7752 48.5679ZM40.2376 47.2875C40.4053 46.6501 41.5068 46.5606 41.6745 47.198C41.7864 47.6341 41.736 47.9416 41.5124 48.1094C41.378 48.193 41.2251 48.2423 41.0672 48.253C40.9092 48.2637 40.7511 48.2355 40.6066 48.1709C40.4553 48.086 40.3368 47.9528 40.2699 47.7927C40.203 47.6327 40.1916 47.4548 40.2376 47.2875ZM60.8807 38.2239C60.8592 38.2224 60.8377 38.2253 60.8174 38.2325C60.7971 38.2397 60.7785 38.2509 60.7627 38.2656C60.747 38.2803 60.7344 38.2981 60.7259 38.3179C60.7173 38.3376 60.7129 38.359 60.713 38.3805C60.713 38.9396 59.768 39.4988 59.5947 39.5547C59.5613 39.5628 59.5326 39.5839 59.5148 39.6133C59.4969 39.6426 59.4915 39.6779 59.4997 39.7112C59.5078 39.7446 59.5289 39.7733 59.5583 39.7912C59.5876 39.809 59.6229 39.8144 59.6562 39.8063C61.1267 39.5043 61.3504 38.2128 60.8807 38.2239ZM58.9182 37.3685C58.8511 37.3293 58.5547 37.1113 58.4485 37.0274C58.4485 36.9547 58.7113 36.021 58.7616 35.842C58.8119 35.6631 58.5827 35.6184 58.5212 35.7638C58.2873 36.217 58.0999 36.6929 57.962 37.1839C58.0068 37.3461 58.784 37.5586 58.8399 37.5586C58.8632 37.5617 58.8869 37.5571 58.9072 37.5454C58.9276 37.5336 58.9435 37.5155 58.9525 37.4938C58.9614 37.472 58.9629 37.4479 58.9567 37.4253C58.9505 37.4026 58.9369 37.3826 58.9182 37.3685ZM57.073 34.3715C57.065 34.3232 57.0401 34.2793 57.0027 34.2476C56.9653 34.2159 56.9179 34.1985 56.8689 34.1985C56.82 34.1985 56.7726 34.2159 56.7352 34.2476C56.6978 34.2793 56.6729 34.3232 56.6649 34.3715C56.6436 34.757 56.6436 35.1434 56.6649 35.5289C56.6999 35.5862 56.753 35.6302 56.8159 35.6539C56.8787 35.6777 56.9477 35.6797 57.0119 35.6598C57.076 35.6399 57.1317 35.5992 57.1702 35.5441C57.2086 35.489 57.2275 35.4227 57.224 35.3556C57.1465 35.0323 57.0961 34.7031 57.073 34.3715ZM60.9814 35.35C60.9097 35.0294 60.8592 34.7044 60.8304 34.3771C60.8304 34.3222 60.8086 34.2696 60.7698 34.2308C60.731 34.192 60.6784 34.1702 60.6235 34.1702C60.5686 34.1702 60.516 34.192 60.4772 34.2308C60.4384 34.2696 60.4166 34.3222 60.4166 34.3771C60.3963 34.7496 60.3963 35.1229 60.4166 35.4954C60.4198 35.5387 60.4324 35.5807 60.4536 35.6186C60.4747 35.6565 60.504 35.6893 60.5392 35.7146C60.5745 35.7399 60.6148 35.7572 60.6575 35.7652C60.7002 35.7732 60.7441 35.7718 60.7861 35.761C60.8281 35.7501 60.8673 35.7302 60.9007 35.7026C60.9342 35.675 60.9612 35.6404 60.9799 35.6012C60.9985 35.562 61.0083 35.5191 61.0085 35.4757C61.0088 35.4323 60.9995 35.3894 60.9814 35.35Z" fill="black"/>
<path d="M104.739 27.7347C104.7 24.2513 103.531 22.8758 99.9249 22.982C98.8961 22.982 80.5509 23.1665 79.237 23.2113C78.356 23.2115 77.4845 23.3923 76.6761 23.7425C76.2121 23.927 73.7854 25.1403 73.5171 25.7833C73.2263 26.2418 73.5674 39.3031 73.5171 41.9981C73.1286 41.7769 72.7292 41.5753 72.3205 41.3943C72.2467 41.027 72.0899 40.6814 71.8622 40.3839C71.6345 40.0865 71.3418 39.8449 71.0065 39.6777C70.4921 39.4764 69.8324 39.7169 69.4522 39.3534C69.072 38.99 69.7541 38.7943 69.8268 38.2352C69.8245 37.8475 69.7795 37.4612 69.6926 37.0833C69.3556 35.0565 68.8849 33.0542 68.2836 31.0894C67.7804 29.4736 67.2548 28.1037 65.8066 27.2258C65.8066 24.5085 65.5326 8.58438 65.3817 7.74009C65.2328 6.90684 64.7884 6.15523 64.1301 5.62321C63.4717 5.09118 62.6436 4.81445 61.7976 4.84379C61.7417 4.84379 23.2623 4.84379 23.2175 4.88852C21.6799 5.8055 21.2662 7.85192 21.1655 9.36158C21.132 10.1164 21.7917 25.3583 22.0545 30.2004C19.3316 30.2563 5.57692 30.6254 4.78854 31.0447C3.00491 31.4808 1.03117 32.7221 0.645374 34.7406C0.404947 36.0378 0.891392 60.9583 1.05354 62.1381C1.16966 63.4123 1.73905 64.6027 2.65825 65.4928C3.6591 66.3707 5.02338 66.5328 6.22551 66.5776L31.7387 66.0967C29.245 71.7439 26.371 79.7507 24.47 84.7326C24.4611 84.7468 24.4563 84.7633 24.4563 84.7801C24.4563 84.7969 24.4611 84.8134 24.47 84.8276C24.9845 85.333 25.5462 85.788 26.1474 86.1863C25.236 89.3007 25.3366 89.474 25.1354 89.7256C23.4076 91.8447 21.3221 93.0804 19.2645 93.2817C18.3084 93.3879 17.3634 93.5557 17.0279 94.4838C16.754 95.3281 17.4808 95.8928 18.3307 96.1277C18.8899 96.2786 22.7031 97.1229 23.2679 97.19C23.7683 97.2739 24.2817 97.1596 24.6992 96.8713C25.1018 96.575 26.427 95.0094 26.9358 94.5397C26.0132 99.0128 25.3702 97.587 27.5676 98.5431C27.5983 98.5595 27.6322 98.5689 27.6669 98.5705C27.7017 98.5722 27.7363 98.5661 27.7684 98.5527C27.8005 98.5393 27.8293 98.519 27.8525 98.4932C27.8758 98.4673 27.8931 98.4367 27.9031 98.4034C28.2945 97.2851 30.9447 90.8942 32.0239 89.2336C32.2867 95.9879 32.2419 95.6357 32.337 95.6636C32.7116 95.7587 33.1198 95.8481 33.5391 95.932C33.5391 96.8713 33.5671 97.833 33.6453 98.8842C33.6453 98.9177 33.6006 98.9737 33.5559 99.0631C32.1692 102.105 30.6149 103.346 28.9263 104.095C28.177 104.431 27.1426 104.889 27.1706 105.924C27.1706 106.818 28.0876 107.103 28.9766 107.07C30.3129 107.025 32.0406 106.846 32.8234 106.807C35.0599 106.673 35.1159 106.248 36.0664 104.33C36.2845 103.888 36.5416 103.363 36.687 103.106C36.9498 106.248 36.6032 106.712 37.0337 106.69C38.2023 106.628 38.7111 106.947 38.7111 106.528C38.7558 105.376 39.2702 100.847 39.5386 99.7341C39.5386 99.6055 39.4491 99.5328 39.3149 99.5048C39.4827 98.4649 39.8741 96.4184 39.9244 96.0438C40.204 96.0047 40.4835 95.9599 40.7016 95.9096C40.7631 95.9096 40.7016 96.206 41.6465 92.3088C48.4344 94.9871 55.6752 95.6301 62.1723 94.1036C62.4015 94.9926 64.0621 101.054 64.9679 103.71C65.2766 104.577 65.6877 105.405 66.1924 106.175C66.321 106.298 66.5391 106.516 66.7516 106.516C66.964 106.516 67.1989 106.22 67.2548 105.918C67.3107 105.616 66.4328 96.7986 66.1365 93.6172C67.465 93.2881 68.7531 92.8137 69.9777 92.2026L71.7893 98.2188C71.8424 98.3085 71.9222 98.3792 72.0175 98.4211C72.1129 98.463 72.219 98.4739 72.3209 98.4523C72.4228 98.4306 72.5153 98.3776 72.5855 98.3006C72.6556 98.2236 72.6998 98.1266 72.7119 98.0231L72.5386 90.8159C73.3851 90.2642 74.1956 89.6591 74.9652 89.0043C75.3147 89.3421 75.7077 89.6317 76.1338 89.8654C76.1776 89.8896 76.2292 89.8955 76.2773 89.8819C76.3255 89.8683 76.3663 89.8362 76.391 89.7927C76.856 89.0896 77.3777 88.4258 77.951 87.8078C77.8391 88.5291 77.6211 90.0052 77.5931 90.4637C77.5924 90.4933 77.5976 90.5227 77.6086 90.5502C77.6196 90.5777 77.636 90.6026 77.6569 90.6235C77.6778 90.6445 77.7028 90.6609 77.7303 90.6719C77.7578 90.6828 77.7872 90.6881 77.8168 90.6873C78.4105 90.6688 79.0034 90.7462 79.5725 90.9166C77.7497 91.7944 76.9166 92.5381 77.0284 93.1531C77.2468 94.2514 77.5535 95.3303 77.9454 96.3793C78.2473 97.2515 78.5604 98.1573 79.4998 98.5375C83.8051 100.36 90.2016 99.0296 94.5236 97.2124C98.1915 95.7754 98.7283 93.4494 98.404 90.1617C98.3369 89.5355 97.6101 89.4628 96.0836 89.502L99.8018 84.7997C100.92 83.4633 99.9472 83.5081 99.595 80.8857C99.9318 81.3848 100.336 81.8345 100.797 82.2221C100.824 82.2435 100.856 82.2591 100.89 82.2677C100.923 82.2764 100.958 82.278 100.993 82.2724C101.144 82.2444 101.026 82.3227 102.413 79.829C102.439 79.7835 102.449 79.7304 102.441 79.6785C102.433 79.6266 102.407 79.579 102.368 79.5438C101.759 79.0406 100.288 77.8664 100.288 77.8664C101.046 77.687 101.793 77.463 102.525 77.1955C102.699 77.1505 102.857 77.0566 102.98 76.9249C103.103 76.7931 103.185 76.629 103.218 76.4518C103.291 76.0157 103.296 67.2317 103.308 66.0352C103.308 65.8395 102.994 65.7836 102.961 65.9961C102.307 70.43 99.3042 74.1203 95.4686 75.2217C95.5916 74.7241 95.9047 73.645 95.7314 73.3486C95.0989 72.9506 94.4261 72.6207 93.7241 72.3646C94.423 71.9676 96.0389 70.9332 96.1563 70.6145C96.229 70.43 95.8712 61.8026 95.8544 60.8576C95.8516 60.8187 95.8366 60.7816 95.8114 60.7518C95.7863 60.7219 95.7523 60.7008 95.7144 60.6915C95.6765 60.6822 95.6366 60.6851 95.6004 60.6999C95.5643 60.7147 95.5338 60.7405 95.5133 60.7738C94.4307 62.9114 92.8293 64.7434 90.8557 66.1023C90.6265 66.2589 88.9771 67.1367 88.8485 67.2541C88.4347 67.6511 88.9491 68.1375 89.1672 68.4451C89.3237 68.6575 89.8605 69.3788 89.9667 69.5298C87.9986 69.7702 87.4786 69.0937 87.3779 69.5298C87.1845 70.0994 86.9236 70.6437 86.6007 71.1513C86.716 71.6413 86.8636 72.1232 87.0425 72.5938C86.7148 72.6478 86.3805 72.6478 86.0528 72.5938C85.9944 72.5813 85.9334 72.5909 85.8817 72.6209C85.83 72.6509 85.7914 72.699 85.7732 72.756C85.6167 73.2648 85.4937 73.6897 85.3818 74.0867C84.7041 72.9373 83.9572 71.83 83.1453 70.771C82.7483 67.7406 81.3169 64.2012 78.292 63.7316C80.5677 62.7811 82.0606 60.3376 82.4184 57.8607C83.492 57.8607 99.0023 57.816 99.6285 57.8607C103.022 57.9557 104.538 56.6586 104.856 53.1975C104.985 51.8165 104.739 27.9863 104.739 27.7347ZM27.5284 94.3049C27.5425 94.2457 27.5336 94.1833 27.5036 94.1304C27.4735 94.0775 27.4244 94.0379 27.3663 94.0198C26.9134 93.852 26.5667 94.249 26.3151 94.5342C25.6782 95.3095 24.9788 96.0313 24.224 96.6924C23.8046 96.8937 18.9234 95.8817 18.3139 95.6916C17.9859 95.6172 17.7005 95.4163 17.52 95.1324C17.4494 94.9261 17.4571 94.701 17.5416 94.5C17.6261 94.2989 17.7816 94.136 17.9785 94.0421C18.409 93.7793 18.7277 93.8017 19.9354 93.578C21.1432 93.3544 22.3397 93.1363 24.442 91.157C24.7349 90.8765 25.0077 90.5756 25.2584 90.2568C25.6075 91.0329 26.1951 91.6773 26.9358 92.0963C27.928 92.537 29.0362 92.6448 30.0949 92.4039C29.5357 93.5221 27.9925 97.0167 27.6067 98.0846C27.2992 97.9616 26.9861 97.8498 26.6786 97.7603C27.0249 96.625 27.3086 95.4714 27.5284 94.3049ZM76.6314 63.6868C75.845 63.7205 75.0639 63.8329 74.2998 64.0223C71.7955 64.3054 69.2775 64.451 66.7571 64.4585C66.3881 62.2219 66.4999 62.6357 66.4049 62.015C66.3658 61.7467 66.3098 61.3776 66.5055 61.2602C69.1838 60.0637 71.9683 58.979 74.6353 57.8104C75.1945 58.2185 75.2392 58.1682 75.2895 58.1347C75.3135 58.1088 75.3268 58.0749 75.3268 58.0396C75.3268 58.0044 75.3135 57.9704 75.2895 57.9446C75.0713 57.724 74.8417 57.515 74.6018 57.3183C72.4553 55.3988 70.9602 52.8581 70.3244 50.0496C70.317 50.0163 70.2966 49.9872 70.2678 49.9688C70.239 49.9505 70.204 49.9444 70.1706 49.9518C70.1373 49.9592 70.1082 49.9795 70.0899 50.0084C70.0715 50.0372 70.0654 50.0722 70.0728 50.1055C70.5465 53.0262 72.0572 55.6783 74.3278 57.5755L66.6174 60.7626C66.3945 60.828 66.1985 60.9632 66.0582 61.1484C65.6723 61.0435 65.3236 60.8323 65.0518 60.5389C63.598 59.3703 63.0166 60.1699 61.1379 61.6572C60.9563 61.7942 60.7844 61.9437 60.6235 62.1045C59.6304 61.2212 58.6407 60.334 57.6545 59.443C57.4029 59.074 55.1104 51.1679 54.1711 47.992C54.8972 46.2314 56.0687 44.69 57.5706 43.519C57.7442 44.0493 57.9631 44.5637 58.2248 45.0566C58.6441 45.4591 59.1865 45.2634 59.7121 45.1348C59.5672 45.4353 59.4838 45.7617 59.4665 46.0948C59.4492 46.4279 59.4985 46.7612 59.6114 47.075C60.0073 47.9626 60.6255 48.7329 61.4063 49.3116C63.3185 50.989 63.2234 50.9442 63.3353 50.9442C63.3869 50.9417 63.4358 50.9204 63.4728 50.8844C63.5099 50.8483 63.5325 50.8 63.5365 50.7485C63.7267 48.7972 64.3529 48.2604 66.1197 47.6398C67.086 47.3243 67.9036 46.6664 68.4186 45.79C68.9335 44.9136 69.1102 43.8792 68.9154 42.8815C70.084 42.8904 71.2484 42.7399 72.3764 42.4342C72.4297 42.4222 72.4761 42.3896 72.5054 42.3435C72.5348 42.2974 72.5447 42.2416 72.533 42.1882C72.533 42.0932 72.4938 41.9813 72.4659 41.8639C80.6236 45.8282 85.5943 58.1794 79.0133 62.7699C78.2976 63.2492 77.4838 63.5625 76.6314 63.6868ZM78.5101 64.3243C79.9471 64.6318 81.1492 65.8395 81.932 67.9642C85.667 78.0565 76.9613 90.2848 66.1533 93.1251C66.0862 92.4486 65.7172 88.5235 65.6445 88.2327C65.5909 87.9761 65.4433 87.7488 65.2307 87.5953C64.543 87.2151 63.3632 87.6345 62.737 88.0035C62.14 88.3998 61.6065 88.8843 61.1546 89.4405C61.1546 89.6194 61.9374 92.991 62.1052 93.6787C55.3094 95.0999 48.2458 94.4933 41.7919 91.9342C42.7872 87.7966 44.1067 82.1326 44.4757 80.3769C48.3226 81.5735 53.7294 81.4616 53.7853 81.4561C53.8032 81.4513 53.819 81.4408 53.8303 81.4261C53.8416 81.4115 53.8477 81.3935 53.8477 81.375C53.8477 81.3565 53.8416 81.3385 53.8303 81.3238C53.819 81.3092 53.8032 81.2987 53.7853 81.2939C50.6821 80.2595 48.0039 77.5925 46.2482 73.7792C43.5476 68.0816 37.9451 68.1487 35.7645 70.9835C32.611 75.0764 32.1021 86.9859 32.0518 88.4228C31.8561 88.7807 30.7323 90.9781 30.3073 91.8727C26.9525 92.6722 25.9964 90.7544 25.5883 89.9325C25.5212 89.7927 25.5547 90.1617 26.5947 86.4882C27.1538 86.7622 31.1293 88.1656 31.1348 87.7519C31.1796 82.9993 32.3314 71.6936 35.4513 69.0937C37.6879 67.2597 42.5244 67.5784 44.6658 69.1663C46.0273 70.409 47.1409 71.8983 47.9479 73.5555C49.7428 77.408 52.8348 80.2651 56.2678 80.9808C60.6682 80.595 65.7731 73.5835 67.2324 69.0993C69.9274 65.683 74.3725 63.726 78.5101 64.3243ZM87.2605 87.0641C87.2679 87.0975 87.2883 87.1266 87.3171 87.1449C87.346 87.1633 87.3809 87.1694 87.4143 87.162C87.4476 87.1546 87.4767 87.1342 87.495 87.1054C87.5134 87.0765 87.5195 87.0416 87.5121 87.0082C87.1599 85.2078 86.1646 83.6535 85.5384 81.9761C84.4537 79.1077 85.2421 76.0269 86.159 73.1138C86.568 73.1902 86.9907 73.1354 87.3667 72.9573C87.6743 72.7168 87.4283 72.3087 87.0816 71.2799C87.3667 70.8488 87.5906 70.3802 87.747 69.8876C88.6209 70.0944 89.5296 70.1059 90.4084 69.9212C90.4426 69.9125 90.4741 69.8958 90.5006 69.8726C90.5271 69.8494 90.5477 69.8202 90.5608 69.7875C90.5738 69.7548 90.579 69.7195 90.5759 69.6844C90.5727 69.6494 90.5613 69.6155 90.5426 69.5857C90.168 69.0937 89.1783 67.7461 89.128 67.6455C89.0777 67.5449 89.128 67.556 89.2902 67.4834C91.9627 66.2671 94.1542 64.1956 95.5189 61.5957C95.586 63.4241 95.8041 70.2287 95.7426 70.5027C94.8738 71.1314 93.9578 71.6922 93.0028 72.1801C92.9611 72.2031 92.9272 72.238 92.9053 72.2803C92.8835 72.3226 92.8747 72.3704 92.8801 72.4178C92.8855 72.4651 92.9048 72.5097 92.9356 72.5461C92.9664 72.5824 93.0073 72.6087 93.0531 72.6218C93.8442 72.8923 94.611 73.2289 95.3456 73.6282C95.4462 73.7904 95.094 75.0708 95.0325 75.4007L94.4733 75.5125C94.4177 75.5271 94.3698 75.5625 94.3396 75.6114C94.3094 75.6603 94.2992 75.719 94.3112 75.7753C94.4566 76.7649 94.7864 79.2028 94.7864 79.2028C93.1817 77.7099 93.1929 76.8824 92.8462 76.8488C92.8119 76.8445 92.7769 76.8489 92.7447 76.8616C92.7125 76.8743 92.6839 76.8949 92.6617 76.9215C90.0326 79.9721 88.5566 83.8482 88.4906 87.8749C88.4969 87.9051 88.5134 87.9322 88.5373 87.9517C88.5612 87.9712 88.5911 87.9818 88.622 87.9818C88.6529 87.9818 88.6828 87.9712 88.7067 87.9517C88.7306 87.9322 88.7471 87.9051 88.7534 87.8749C88.964 84.0649 90.3773 80.4198 92.7903 77.4639C93.3464 78.4219 94.0764 79.2676 94.943 79.9576C94.9799 79.9904 95.0262 80.0107 95.0754 80.0157C95.1245 80.0206 95.174 80.0099 95.2167 79.9852C95.2594 79.9604 95.2933 79.9228 95.3134 79.8777C95.3335 79.8326 95.3389 79.7823 95.3288 79.7339C95.3288 79.7339 94.9262 77.011 94.7697 75.9039C98.5773 75.2273 101.848 71.99 102.95 67.8636C102.95 70.1616 102.871 75.8592 102.871 75.9151C102.871 76.2785 102.871 76.6252 102.547 76.7873C101.63 77.1094 100.697 77.3838 99.7515 77.6092C99.7128 77.6195 99.6775 77.6399 99.6494 77.6684C99.6213 77.6969 99.6013 77.7324 99.5916 77.7712C99.5819 77.8101 99.5828 77.8508 99.5942 77.8892C99.6056 77.9276 99.6271 77.9622 99.6565 77.9894C99.9193 78.2019 101.429 79.4376 101.927 79.8346C101.927 79.8346 101.244 81.1374 100.898 81.7804C100.331 81.2558 99.8613 80.6348 99.5111 79.9464C99.4884 79.9073 99.4535 79.8767 99.4118 79.8593C99.37 79.8419 99.3237 79.8386 99.2799 79.85C99.2362 79.8615 99.1973 79.8869 99.1694 79.9225C99.1415 79.9581 99.126 80.0018 99.1253 80.0471C99.2819 83.7821 100.478 83.2956 99.4887 84.5201C96.078 88.8086 95.4798 90.1953 91.8063 91.28C92.5443 87.9252 95.0716 86.5665 96.0836 84.1455C96.6428 82.8203 96.5197 81.3498 96.9615 80.0191C97.269 79.0955 97.7717 78.249 98.4355 77.537C99.0993 76.8249 99.9085 76.2642 100.808 75.8927C100.841 75.8816 100.868 75.858 100.883 75.827C100.898 75.7961 100.9 75.7604 100.889 75.7278C100.878 75.6951 100.855 75.6683 100.824 75.6531C100.793 75.6379 100.757 75.6356 100.724 75.6467C99.5527 76.0601 98.5187 76.7908 97.7378 77.7573C96.9569 78.7238 96.4597 79.8881 96.3017 81.1206C96.0613 82.8371 96.1116 83.6814 95.038 85.1855C93.8527 86.8349 91.9125 88.2942 91.2863 91.4198C90.3139 91.6619 89.3187 91.8006 88.3173 91.8336C88.1999 90.8327 87.5848 90.2456 87.1487 90.2233C86.7461 89.5187 82.5023 83.0608 80.9367 81.6462C82.668 78.5306 83.464 74.9818 83.2292 71.4252C83.9001 72.4149 85.0464 74.2712 85.2476 74.6347C83.2963 82.1606 86.4833 83.29 87.2605 87.0641ZM78.443 87.3102C78.4428 87.2707 78.4314 87.2322 78.41 87.199C78.3887 87.1659 78.3583 87.1395 78.3224 87.1231C78.2866 87.1066 78.2468 87.1007 78.2077 87.1061C78.1687 87.1116 78.132 87.128 78.1019 87.1536C77.387 87.8633 76.7376 88.6362 76.1617 89.4628C75.8325 89.2707 75.5234 89.0459 75.2392 88.7919C76.5905 87.6176 77.816 86.3059 78.8959 84.878C84.8339 92.0013 84.5487 91.7944 84.7165 91.6602C84.7296 91.6513 84.7408 91.6398 84.7494 91.6264C84.758 91.613 84.7638 91.598 84.7664 91.5823C84.769 91.5667 84.7684 91.5506 84.7646 91.5352C84.7609 91.5197 84.754 91.5052 84.7444 91.4925C84.353 90.8998 80.3664 85.9012 79.1531 84.4977C79.7293 83.7015 80.2558 82.8706 80.7299 82.0096C82.9664 84.1958 86.4386 89.9493 86.7629 90.4916C86.4542 90.9357 86.3098 91.4735 86.3547 92.0125C85.6484 92.2098 84.9062 92.2423 84.1853 92.1075C83.3298 91.9398 80.1316 90.3686 78.0348 90.3071C78.169 89.6977 78.3815 87.8358 78.4598 87.3102H78.443ZM63.8049 88.0203H63.9C64.3361 87.9196 65.0182 87.7687 65.1804 88.2104C65.2643 88.5123 66.9528 105.191 66.9528 105.706C66.9618 105.787 66.953 105.869 66.9269 105.946C66.9008 106.023 66.8581 106.094 66.8019 106.153C65.3481 105.594 61.7697 90.76 61.6299 89.502C62.1934 88.8049 62.95 88.2895 63.8049 88.0203ZM4.26855 61.6181C4.26855 60.3376 3.41867 34.953 3.50254 34.0361C3.64791 32.3084 4.26855 31.5312 5.63842 31.3522C7.08658 31.0727 20.6064 30.6869 22.0825 30.6477C22.116 31.2069 22.144 31.5983 22.1552 31.6709C22.2172 32.1108 22.427 32.5166 22.7501 32.8214C23.0732 33.1262 23.4905 33.3121 23.9332 33.3483C23.9332 33.2924 23.5642 33.3483 35.1159 33.3875C35.1159 35.132 35.2221 43.3288 35.2277 43.7147C31.94 43.8377 28.5517 43.9719 27.9031 44.0334C27.8136 44.0334 27.7353 44.1955 27.7689 44.2738C28.7418 46.6781 33.075 56.4405 34.2883 58.9454C34.4015 59.23 34.596 59.4751 34.8475 59.6499C35.004 59.8848 35.1885 60.1475 35.4066 60.4103C33.6342 61.8249 32.9968 63.3905 31.9679 65.6829C27.2321 65.7836 8.0371 66.1806 7.60657 66.1638C6.41003 66.1135 5.56574 65.7668 5.04015 65.107C4.24059 64.1565 4.27414 62.8593 4.26855 61.6181ZM68.9545 39.2863C69.072 39.7113 69.5137 39.9405 70.1958 39.9573C71.37 39.907 71.8732 40.919 72.0857 42.082C70.9427 42.3054 69.7832 42.4344 68.619 42.4678C68.5854 42.4681 68.5522 42.4763 68.5222 42.4916C68.4922 42.507 68.4661 42.529 68.4461 42.5561C68.4261 42.5832 68.4126 42.6146 68.4067 42.6478C68.4008 42.6809 68.4027 42.715 68.4122 42.7474C68.5907 43.3856 68.5924 44.0604 68.4171 44.6996C68.2418 45.3387 67.8961 45.9182 67.4169 46.3761C65.9129 47.8243 63.503 47.0247 63.1507 50.3627C62.6475 49.9266 60.7856 48.3443 60.4054 47.8802C59.7512 47.1254 59.4884 45.8729 60.1594 45.0845C61.5961 44.8497 63.0482 44.7208 64.5038 44.6987C64.5365 44.6987 64.5678 44.6858 64.5908 44.6627C64.6139 44.6396 64.6269 44.6083 64.6269 44.5757C64.6269 44.5431 64.6139 44.5118 64.5908 44.4887C64.5678 44.4657 64.5365 44.4527 64.5038 44.4527C62.8291 44.334 61.146 44.4545 59.5052 44.8106C58.879 44.9839 58.5715 45.1069 58.2919 44.5198C58.1521 44.2235 57.319 41.685 57.1736 41.2153C56.9164 40.6059 57.073 40.7904 57.5426 40.4996C58.0028 40.8885 58.5194 41.2053 59.0747 41.439C59.0747 41.5061 59.3654 42.3951 59.4102 42.5573C59.4291 42.6916 59.4963 42.8145 59.5992 42.9029C59.7021 42.9914 59.8336 43.0394 59.9693 43.0381C61.2732 43.1579 62.5868 42.967 63.8027 42.481C65.0185 41.9951 66.1019 41.2279 66.964 40.2424C66.9811 40.219 66.989 40.19 66.986 40.1612C66.983 40.1323 66.9694 40.1055 66.9479 40.0861C66.9263 40.0666 66.8984 40.0558 66.8693 40.0558C66.8403 40.0558 66.8123 40.0665 66.7907 40.0859C65.9247 40.9612 64.8843 41.6445 63.737 42.0914C62.5898 42.5384 61.3613 42.739 60.1314 42.6803C59.74 42.6523 59.7904 42.7362 59.4605 41.562C60.9701 41.9869 61.3503 41.411 60.8136 41.9422C60.7961 41.9631 60.7864 41.9894 60.7862 42.0167C60.786 42.044 60.7953 42.0704 60.8125 42.0916C60.8297 42.1128 60.8537 42.1273 60.8804 42.1327C60.9071 42.1381 60.9349 42.134 60.9589 42.1211C62.9928 40.6005 64.4765 38.4593 65.186 36.021C65.1911 36.0052 65.193 35.9886 65.1916 35.972C65.1901 35.9555 65.1853 35.9394 65.1775 35.9248C65.1696 35.9102 65.1589 35.8973 65.146 35.8869C65.133 35.8766 65.1181 35.8689 65.1021 35.8644C64.8114 35.7638 65.0071 36.3397 63.6428 38.5706C63.0836 36.3341 63.4583 33.969 62.8544 31.7213C62.8462 31.6894 62.8258 31.662 62.7974 31.6453C62.7691 31.6285 62.7353 31.6237 62.7034 31.6318C62.6716 31.64 62.6442 31.6604 62.6274 31.6888C62.6107 31.7171 62.6058 31.7509 62.614 31.7828C62.7119 32.2584 62.7754 32.7405 62.8041 33.2253C61.6131 32.0456 59.097 30.1613 57.1121 30.5918C56.6845 30.605 56.2793 30.786 55.9841 31.0958C55.689 31.4056 55.5278 31.8191 55.5354 32.2469C55.0545 31.5983 55.39 30.6086 55.8261 30.0606C56.9779 28.5566 59.0243 27.8241 61.0652 27.265C62.8712 26.7841 65.2866 26.8512 66.6565 28.4839C67.2508 29.2987 67.68 30.2218 67.9201 31.2013C68.6343 33.4085 69.1324 35.68 69.4074 37.9835C69.4287 38.0764 69.4244 38.1734 69.3948 38.264C69.3653 38.3546 69.3117 38.4355 69.2397 38.4979C69.1281 38.5935 69.0431 38.7164 68.9931 38.8545C68.9432 38.9927 68.9299 39.1415 68.9545 39.2863ZM34.6965 58.8112C34.1709 57.693 28.9766 46.1748 28.1491 44.2738C29.9998 44.2738 50.8834 43.5078 51.2468 43.4966C51.9569 45.7779 56.0945 59.5549 56.0945 59.6723C56.0945 59.6723 51.1518 59.7953 48.4847 59.9015C43.9837 57.6314 39.8182 57.8775 36.7877 59.4822C35.0767 59.4095 34.9984 59.443 34.6965 58.8112ZM55.9435 35.6184C55.8653 33.941 55.9435 32.7724 56.2063 32.655C57.168 32.2189 58.9628 32.0959 60.9589 32.7277C61.2106 32.8116 62.0157 33.2309 62.8264 33.572C62.9159 35.3612 62.8264 37.2567 63.3856 38.99C62.8913 39.8567 62.2565 40.6351 61.5069 41.2936C58.1241 41.7409 56.0945 39.0347 55.9324 35.6184H55.9435ZM61.0764 69.0545C60.9422 69.3117 63.2178 71.0227 63.4639 71.2072C64.269 71.9676 63.2849 72.3814 62.4686 71.6489C57.9955 67.6287 54.1823 63.0215 49.2116 60.2706C52.1079 60.1755 55.6919 60.0693 56.307 60.0637C56.9276 60.6619 64.1348 67.4107 65.9967 69.0098C60.7968 69.0489 61.1267 68.9651 61.0652 69.0545H61.0764ZM66.567 68.9762C66.5111 68.9259 57.0618 60.388 56.6984 59.963C56.4859 59.6052 52.5664 46.3034 51.6662 43.6252C52.2185 44.0018 52.6281 44.5532 52.8292 45.1908C53.1646 46.1469 56.9723 58.8951 56.9891 58.9566C57.0348 59.2662 57.1732 59.5547 57.3861 59.7841C58.8566 61.1987 65.0965 66.8571 67.1262 68.5345C67.0088 68.6799 66.8913 68.8253 66.7795 68.9762H66.567ZM66.1589 63.603C65.186 63.5247 64.8785 63.4129 64.638 63.7092C64.5598 63.8322 64.3361 64.1062 64.0509 64.0447C64.0015 64.0332 63.955 64.0116 63.9142 63.9812C63.8735 63.9509 63.8395 63.9125 63.8143 63.8684C63.7891 63.8243 63.7733 63.7755 63.7678 63.725C63.7624 63.6745 63.7674 63.6235 63.7826 63.575C64.0565 63.3178 64.3417 63.0942 64.5989 62.8202C64.6126 62.8009 64.6195 62.7775 64.6185 62.7538C64.6174 62.7301 64.6084 62.7075 64.593 62.6895C64.5776 62.6714 64.5566 62.6591 64.5333 62.6544C64.5101 62.6498 64.4859 62.653 64.4647 62.6636C64.1795 62.8482 63.9056 63.1445 63.5813 63.3402C63.5545 63.3406 63.5281 63.3468 63.504 63.3583C63.4799 63.3699 63.4585 63.3866 63.4415 63.4073C63.3745 63.4345 63.3022 63.4458 63.2301 63.4404C63.158 63.4351 63.0881 63.4131 63.0259 63.3763C62.9637 63.3396 62.9108 63.2889 62.8713 63.2283C62.8319 63.1677 62.807 63.0989 62.7985 63.0271C62.7985 62.5798 63.2793 62.2834 63.5589 61.9535C63.6707 61.8417 63.503 61.674 63.3856 61.7802C63.086 62.0331 62.8074 62.3099 62.5525 62.6077C62.2303 62.7102 61.9015 62.7905 61.5684 62.8482C61.4174 62.8482 61.5684 62.9432 60.9086 62.3785C61.5965 61.7332 62.3455 61.1565 63.1452 60.6563C64.5038 59.7617 64.7555 61.3105 65.9799 61.4895C65.9788 62.1978 66.0387 62.9049 66.1589 63.603ZM67.4169 68.2102L61.7865 63.178C61.9906 63.1377 62.1923 63.0855 62.3903 63.0215C62.3858 63.1429 62.4096 63.2637 62.4598 63.3743C62.5101 63.4849 62.5853 63.5823 62.6797 63.6588C62.7741 63.7353 62.885 63.7888 63.0037 63.815C63.1223 63.8412 63.2454 63.8394 63.3632 63.8099C63.3856 63.9284 63.4357 64.0401 63.5094 64.1356C63.583 64.2312 63.6783 64.308 63.7873 64.3598C63.8963 64.4116 64.016 64.4369 64.1366 64.4336C64.2573 64.4303 64.3754 64.3986 64.4815 64.341C65.2531 63.9888 64.4815 63.8546 65.7283 63.9664C65.8905 63.9664 66.0638 64 66.2316 64.0056C66.2819 64.2683 66.3322 64.5088 66.3881 64.738C66.4016 64.7837 66.4296 64.8238 66.468 64.8521C66.5064 64.8804 66.5529 64.8953 66.6006 64.8946C76.5979 64.6821 71.6887 63.301 67.4057 68.2102H67.4169ZM53.9978 47.3881C53.3659 45.269 53.036 43.5581 51.7612 43.122C51.7612 43.1891 52.2365 43.0493 35.6862 43.6811C35.6862 40.9581 35.5688 34.3716 35.552 33.3707H55.5969C55.4403 35.7917 55.5969 38.4029 57.2743 40.2033C57.073 40.2816 56.7151 40.4493 56.6313 40.5891C56.8375 41.4928 57.1142 42.3789 57.4588 43.2394C55.9586 44.2981 54.7585 45.7274 53.9754 47.3881H53.9978ZM51.6997 30.1054C51.6997 29.3226 51.5208 25.1123 51.4817 24.3407H52.9074C52.9074 25.1347 53.0137 29.3282 53.0472 30.0998C52.5999 30.0886 52.147 30.0942 51.6997 30.1054ZM43.5084 30.2731C43.514 28.7523 43.3183 15.8922 43.2904 14.2148H44.7162C44.7162 18.4642 44.8392 29.0933 44.8615 30.2507L43.5084 30.2731ZM34.6853 16.3731H36.1167C36.1167 20.0466 36.2341 29.3226 36.2621 30.4241H34.909C34.9146 29.0486 34.7189 17.9051 34.6853 16.3731ZM22.5466 31.4249C22.4683 30.9497 21.8197 16.06 21.5569 10.3568C21.4954 8.60116 21.9595 6.44291 23.1393 5.44206C23.1393 9.35599 23.6425 30.9553 23.7543 32.9122C23.4252 32.8173 23.1331 32.6238 22.9172 32.358C22.7013 32.0921 22.572 31.7665 22.5466 31.4249ZM73.8469 26.7785C73.8009 26.4136 73.8883 26.0442 74.093 25.7386C74.5306 25.3939 75.0006 25.0925 75.4964 24.8384C74.9372 25.8448 75.0826 25.5652 75.379 43.2338C74.9178 42.8823 74.4381 42.5556 73.942 42.2553C73.8861 39.4373 73.8581 29.194 73.8637 26.7785H73.8469ZM78.7338 32.9905C78.9936 32.6217 79.3388 32.3213 79.74 32.1149C80.1411 31.9085 80.5863 31.8022 81.0374 31.8051C83.313 31.8051 84.1406 34.5113 84.5879 36.7143C84.9793 38.442 85.0072 40.4773 86.2653 41.8863C92.1138 47.1869 92.5555 39.7895 96.1116 40.0747C97.2298 40.2033 97.9735 41.2265 98.773 41.9646C99.1148 42.3485 99.5943 42.582 100.107 42.6145C100.62 42.6469 101.125 42.4757 101.513 42.1379V50.0832C100.137 50.0832 82.67 49.9546 80.7522 49.9769C80.2853 48.9997 79.7354 48.0644 79.1084 47.1813C79.1755 46.5047 78.7617 33.5944 78.7505 32.9905H78.7338ZM80.9703 50.3571C83.5423 50.3963 99.8633 50.441 101.558 50.441C101.56 50.654 101.573 50.8667 101.597 51.0784C101.601 51.1234 101.621 51.1654 101.654 51.1963C101.687 51.2272 101.73 51.245 101.776 51.2462C102.105 51.2462 101.955 51.755 101.899 36.5913C101.899 36.5542 101.884 36.5187 101.858 36.4925C101.831 36.4663 101.796 36.4515 101.759 36.4515C101.722 36.4515 101.686 36.4663 101.66 36.4925C101.634 36.5187 101.619 36.5542 101.619 36.5913C101.619 37.5866 101.558 40.8743 101.552 41.5229C101.424 41.725 101.249 41.8938 101.043 42.0155C100.837 42.1372 100.605 42.2084 100.366 42.2231C100.127 42.2378 99.888 42.1957 99.6684 42.1002C99.4489 42.0048 99.2551 41.8586 99.1029 41.6738C97.487 39.9964 95.8879 38.5986 93.5508 40.7568C91.6385 42.7306 90.5874 44.3968 87.9594 42.6914C86.8954 42.1245 86.0934 41.1661 85.7229 40.0188C84.8395 36.8485 85.0855 31.9561 81.3505 31.3075C80.8511 31.2565 80.3469 31.3287 79.8819 31.5178C79.4169 31.7069 79.0054 32.0071 78.6834 32.3922C78.6834 31.5423 78.6219 30.7148 78.5884 29.8538C78.5884 29.8182 78.5742 29.784 78.5491 29.7589C78.5239 29.7337 78.4898 29.7196 78.4542 29.7196C78.4186 29.7196 78.3845 29.7337 78.3593 29.7589C78.3341 29.784 78.32 29.8182 78.32 29.8538C78.32 30.7819 78.6107 43.7426 78.7002 46.5886C77.8386 45.461 76.8477 44.4382 75.748 43.5413C75.748 41.411 75.5579 27.5781 75.5355 26.7226C75.502 25.1682 76.1226 24.268 77.554 23.8934C78.7282 23.5691 99.841 23.2448 101.848 23.5188C103.179 23.6865 103.939 24.9893 104.13 26.1188C104.364 27.5222 104.431 50.7206 104.437 51.0281C104.482 53.7678 104.157 56.8934 101.306 57.2792C100.663 57.3687 84.7556 57.4078 82.4464 57.3854C82.5178 54.96 82.0159 52.552 80.9815 50.3571H80.9703ZM64.5989 6.8343C65.2699 8.00848 64.8896 7.68418 65.3649 26.9966C63.0501 25.951 59.7736 26.9127 57.5371 28.1149V11.5478C57.5371 11.4192 57.8278 11.4583 55.8597 11.4583C55.7367 11.4583 55.7478 10.3065 56.1616 29.043C55.8261 29.3459 55.5344 29.694 55.2949 30.0774H53.4163C53.4163 29.3505 53.2038 24.1954 53.1814 24.1506C53.175 24.1215 53.1586 24.0956 53.1351 24.0773C53.1117 24.0589 53.0826 24.0493 53.0528 24.05C52.4487 24.0297 51.8439 24.0428 51.2412 24.0891C51.2234 24.1013 51.2092 24.1182 51.2003 24.1379C51.1914 24.1577 51.1882 24.1795 51.1909 24.2009C51.1909 24.7601 51.2916 29.3002 51.3307 30.1054L49.2228 30.1501C49.329 20.6001 49.3681 21.1033 49.2228 21.0922C47.7075 21.1537 47.674 21.1257 47.674 21.2375V30.1837L45.2138 30.234C45.2138 28.9871 45.0237 14.897 44.9845 14.0807C44.9862 14.0439 44.9738 14.0079 44.95 13.9798C44.9261 13.9518 44.8925 13.9339 44.8559 13.9297C44.8559 13.9297 43.1059 13.9297 43.0499 13.9856C42.8878 14.1142 43.1394 29.6413 43.1394 30.2787L40.4835 30.329V21.9812C40.4638 21.9734 40.4418 21.9734 40.422 21.9812C38.8788 21.9812 38.8956 21.9812 38.8956 22.1042V30.3626L36.6255 30.4297C36.469 15.9929 36.3404 16.2557 36.3963 16.2557C36.3965 16.2199 36.3835 16.1852 36.3598 16.1584C36.3361 16.1316 36.3033 16.1144 36.2677 16.1103C36.2677 16.1103 34.5288 16.1103 34.4729 16.155C34.2828 16.2724 34.5511 29.4791 34.5511 30.4744L31.4759 30.5303C31.4927 8.74094 31.5542 9.74179 31.4088 9.74179L30.0389 9.79211C29.9439 9.79211 29.9774 8.45578 29.9774 30.5527C27.6738 30.5974 27.7409 30.5527 27.7074 30.6421C27.6966 30.6596 27.6906 30.6795 27.69 30.7C27.6893 30.7205 27.694 30.7407 27.7036 30.7588C27.7132 30.7769 27.7274 30.7922 27.7447 30.8031C27.7621 30.814 27.782 30.8202 27.8024 30.8211C31.1963 30.8211 51.75 30.6142 55.0992 30.5135C54.7638 31.369 54.8253 32.3139 55.6025 32.8116V32.9346C52.3707 33.0296 24.716 32.9346 24.2184 32.9346C24.2184 32.2021 23.5922 6.62183 23.5866 5.19045C27.4613 5.19045 61.6075 5.24077 62.4966 5.38615C62.9324 5.45674 63.3471 5.62327 63.7106 5.87372C64.0742 6.12417 64.3776 6.45226 64.5989 6.8343ZM3.6535 31.9393C3.0105 32.8675 2.97695 34.0752 2.97695 35.2438C2.97695 35.501 3.75974 63.0215 3.87716 63.6924C3.94403 64.1794 4.11435 64.6464 4.37666 65.062C4.63898 65.4777 4.98723 65.8324 5.398 66.1023C4.74078 66.0692 4.09827 65.8957 3.51372 65.5935C2.27245 64.9113 1.80278 63.5079 1.63504 62.7307C1.3387 61.3329 0.947305 37.3238 1.0144 36.0825C0.975261 34.0249 1.67418 32.9122 3.64232 31.9393H3.6535ZM87.5233 95.1716C89.7613 95.0155 91.9537 94.4627 93.9981 93.5389C95.4518 92.8679 97.2634 91.8056 98.0126 90.9613C98.13 93.6004 97.5933 95.3058 94.8815 96.5526C91.2919 98.23 82.7763 100.288 79.0972 97.833C78.7673 97.5143 77.9789 95.0933 77.6658 93.975C79.2705 95.043 83.9449 95.4567 87.5121 95.1716H87.5233ZM36.9554 102.496C36.4857 102.457 36.2621 102.927 36.1055 103.268C34.7972 106.063 34.8139 106.242 33.4832 106.332C33.0638 106.36 29.1164 106.684 28.8256 106.684C27.808 106.757 27.2433 106.058 27.9646 105.202C28.3757 104.892 28.8321 104.647 29.3177 104.476C30.8721 103.754 33.3322 101.848 33.8746 99.4881C34.4358 100.147 35.2014 100.6 36.0496 100.774C37.0997 100.887 38.1588 100.67 39.0801 100.153C38.8676 101.361 38.3756 105.124 38.3141 106.304C37.9872 106.27 37.6586 106.255 37.33 106.259C37.3244 105.94 37.2182 102.519 36.9442 102.496H36.9554ZM39.013 99.6167C38.2864 100.131 37.4147 100.399 36.5249 100.383C36.0542 100.347 35.5958 100.215 35.1783 99.995C34.7608 99.7747 34.3932 99.4708 34.0982 99.1023C34.0982 98.9289 34.0367 97.0558 34.0535 96.0494C35.8651 96.1923 37.6836 96.2277 39.4995 96.1556C39.41 96.6477 39.1248 98.6438 39.0018 99.6167H39.013Z" fill="black"/>
<path d="M94.6747 27.4439C94.7063 27.4375 94.7347 27.4204 94.7551 27.3954C94.7755 27.3704 94.7866 27.3392 94.7866 27.3069C94.7866 27.2747 94.7755 27.2434 94.7551 27.2185C94.7347 27.1935 94.7063 27.1764 94.6747 27.1699H93.7353C86.707 27.388 86.9363 27.3824 86.9419 27.5781C86.9474 27.7738 86.7294 27.8185 94.6747 27.4439ZM94.9095 28.7523C93.657 28.7523 88.759 28.8194 87.501 28.92C87.4569 28.9277 87.4169 28.9507 87.388 28.9849C87.3592 29.0192 87.3434 29.0626 87.3434 29.1073C87.3434 29.1521 87.3592 29.1955 87.388 29.2297C87.4169 29.264 87.4569 29.287 87.501 29.2947C88.7814 29.2947 93.6514 29.043 94.9151 28.9927C94.9424 28.9862 94.9667 28.9704 94.9838 28.9481C95.001 28.9258 95.01 28.8984 95.0093 28.8702C95.0087 28.8421 94.9984 28.8151 94.9803 28.7936C94.9621 28.7722 94.9371 28.7576 94.9095 28.7523ZM93.6794 30.8099C92.8072 30.8434 90.0059 30.8099 87.3332 30.8099C87.2739 30.8099 87.217 30.8335 87.1751 30.8754C87.1332 30.9173 87.1096 30.9742 87.1096 31.0336C87.1096 31.0929 87.1332 31.1498 87.1751 31.1917C87.217 31.2336 87.2739 31.2572 87.3332 31.2572C87.8924 31.2963 93.137 31.0783 93.685 31.0559C93.7176 31.0552 93.7486 31.0415 93.7712 31.0179C93.7937 30.9943 93.806 30.9627 93.8052 30.9301C93.8045 30.8975 93.7908 30.8665 93.7672 30.844C93.7436 30.8214 93.712 30.8092 93.6794 30.8099ZM75.6642 2.87007C75.009 3.03097 74.4097 3.3666 73.9302 3.8412C73.4506 4.31579 73.1089 4.91158 72.9412 5.56508C72.3206 7.9414 74.4732 10.5302 76.9502 10.1164C77.4915 10.0021 78.0037 9.77853 78.4556 9.45933C78.9075 9.14014 79.2894 8.73207 79.5781 8.2601C79.8601 7.73921 80.0203 7.16109 80.0464 6.56931C80.0726 5.97754 79.9641 5.38755 79.7291 4.8438C79.3936 3.8821 78.3983 2.34448 75.6642 2.87007ZM77.0173 7.58355C75.9381 8.3272 74.6745 6.9741 75.1721 6.14099C76.0667 4.6537 77.6547 5.77755 77.6938 6.33669C77.6932 6.58494 77.6305 6.82908 77.5113 7.04687C77.3922 7.26466 77.2204 7.44916 77.0117 7.58355H77.0173ZM76.9502 5.0395C76.5728 4.92076 76.1667 4.93044 75.7955 5.06701C75.4242 5.20359 75.1086 5.45936 74.8982 5.79433C74.7261 6.0959 74.6613 6.44681 74.714 6.78995C74.7668 7.13309 74.9342 7.44827 75.1889 7.6842C75.3918 7.87896 75.6413 8.01841 75.9135 8.08919C76.1857 8.15998 76.4715 8.15973 76.7436 8.08848C77.0157 8.01724 77.265 7.87737 77.4676 7.68226C77.6701 7.48714 77.8193 7.24332 77.9007 6.9741C78.3778 7.28705 78.9116 7.50359 79.4719 7.61151C79.2739 8.0945 78.9703 8.52702 78.5832 8.87728C78.1962 9.22753 77.7356 9.48664 77.2353 9.63557C74.9988 10.2842 73.0083 8.25451 73.2599 6.06271C73.3336 5.55225 73.5223 5.06519 73.8117 4.6383C74.1012 4.21142 74.4838 3.85586 74.9307 3.59847C75.3777 3.34107 75.8772 3.18857 76.3917 3.15247C76.9062 3.11636 77.4222 3.19761 77.9007 3.39006C77.4579 3.85795 77.1305 4.42276 76.9446 5.0395H76.9502Z" fill="black"/>
<path d="M70.632 12.4704C71.9962 12.3977 96.9783 12.2076 98.801 11.6652C100.204 11.408 100.685 10.7594 100.613 9.34481C100.613 8.87514 100.691 3.4907 100.546 2.53458C100.417 1.35481 99.7851 0.795682 98.4544 0.722995C97.3361 0.61676 71.4203 1.01933 70.1958 1.28213C69.2006 1.47782 68.5184 1.84126 68.3842 2.95952C68.3227 3.30059 68.5911 9.6132 68.6247 10.2282C68.703 11.559 69.3683 12.3474 70.632 12.4704ZM72.8126 12.0902C72.4833 12.0505 72.1671 11.9381 71.8866 11.7611C71.6062 11.5841 71.3686 11.347 71.1911 11.0669C70.7969 10.3882 70.5941 9.61527 70.604 8.83041C70.5425 7.87989 70.3636 4.35735 70.3412 3.50747C70.3412 3.16081 70.3412 2.009 71.1911 1.59524C72.505 1.46105 96.9838 1.09761 98.0294 1.13116C98.5886 1.13116 99.3434 1.17589 99.7683 1.60642C100.395 2.23824 100.193 3.28382 100.232 9.29449C100.355 10.8265 99.7739 11.162 98.3425 11.3689C97.0565 11.5646 73.0362 12.0902 72.8238 12.0902H72.8126ZM69.961 2.79737C69.8883 3.30059 70.1846 8.10913 70.2126 8.74654C70.2797 10.3289 70.7326 11.4527 71.6272 12.1013H71.0681C69.7038 12.1013 69.0832 11.4471 69.0217 10.0549C68.9881 9.26094 68.7309 3.34532 68.7868 3.00985C68.9042 1.99222 69.592 1.76857 70.5034 1.65675C70.2208 1.97829 70.0364 2.37417 69.9722 2.79737H69.961Z" fill="black"/>
<path d="M83.1566 4.24549C83.3634 4.24549 89.7823 4.08334 89.7264 4.08334C89.7552 4.07723 89.7811 4.0614 89.7996 4.0385C89.8182 4.0156 89.8283 3.98702 89.8283 3.95754C89.8283 3.92806 89.8182 3.89948 89.7996 3.87658C89.7811 3.85368 89.7552 3.83785 89.7264 3.83174C89.2511 3.83174 83.7101 3.73668 83.1454 3.83174C83.1023 3.84734 83.0652 3.87611 83.0394 3.91397C83.0136 3.95183 83.0004 3.99685 83.0017 4.04265C83.0029 4.08844 83.0185 4.13269 83.0463 4.1691C83.0741 4.20551 83.1127 4.23224 83.1566 4.24549ZM91.6945 6.00117C90.8894 6.07945 82.8043 5.80547 82.7484 6.21364C82.7484 6.29192 82.8211 6.35342 82.877 6.3646C83.5815 6.44847 91.6665 6.27514 91.7225 6.26955C91.7401 6.26772 91.7572 6.26243 91.7728 6.25399C91.7883 6.24555 91.8021 6.23412 91.8133 6.22036C91.8244 6.2066 91.8328 6.19078 91.8378 6.1738C91.8429 6.15681 91.8445 6.139 91.8427 6.12138C91.8408 6.10376 91.8356 6.08667 91.8271 6.07109C91.8187 6.05551 91.8073 6.04175 91.7935 6.03059C91.7797 6.01942 91.7639 6.01108 91.7469 6.00603C91.7299 6.00099 91.7121 5.99933 91.6945 6.00117ZM91.5324 8.14823C90.1513 8.14823 83.1901 8.11469 82.8267 8.17619C82.7909 8.18567 82.7593 8.20671 82.7367 8.23604C82.7141 8.26536 82.7019 8.30133 82.7019 8.33834C82.7019 8.37535 82.7141 8.41132 82.7367 8.44064C82.7593 8.46997 82.7909 8.49101 82.8267 8.50049C83.2125 8.56199 90.9676 8.38307 91.5379 8.3663C91.5625 8.36006 91.5843 8.34565 91.5996 8.32544C91.6149 8.30522 91.6229 8.28039 91.6223 8.25503C91.6216 8.22967 91.6124 8.20529 91.596 8.18588C91.5797 8.16647 91.5572 8.1532 91.5324 8.14823ZM12.4823 43.9662C16.2676 43.6587 18.2749 38.7831 15.3339 36.0769C15.2276 35.9818 15.4289 35.7694 12.3313 40.248C8.58513 36.6975 8.78642 36.8317 8.70255 36.8932C5.73915 39.8175 8.67459 44.2794 12.4823 43.9662Z" fill="black"/>
<path d="M12.0684 38.4141C12.1747 38.5315 12.1243 38.5483 14.6572 34.2765C14.6633 34.267 14.6674 34.2564 14.6693 34.2453C14.6711 34.2342 14.6708 34.2228 14.6682 34.2119C14.6655 34.2009 14.6608 34.1906 14.6541 34.1815C14.6474 34.1724 14.6389 34.1648 14.6292 34.1591C13.736 33.689 12.7127 33.5268 11.7179 33.6977C10.7232 33.8685 9.81256 34.3629 9.12739 35.104C9.06029 35.1879 8.95965 35.0257 12.0684 38.4141ZM6.22549 59.1299C6.3689 59.129 6.50883 59.0857 6.62767 59.0054C6.7465 58.9251 6.83893 58.8115 6.89333 58.6788C6.94772 58.5461 6.96165 58.4002 6.93335 58.2596C6.90505 58.1191 6.8358 57.99 6.7343 57.8887C7.01387 57.4358 8.82546 54.4556 9.35663 53.6504C9.49429 53.7141 9.64793 53.7348 9.79753 53.7099C9.94714 53.6849 10.0858 53.6155 10.1953 53.5106L12.7785 55.5012C12.7364 55.6258 12.7289 55.7595 12.7568 55.8881C12.7847 56.0166 12.8469 56.1352 12.9369 56.2311C13.0269 56.3271 13.1413 56.3968 13.2678 56.4329C13.3943 56.469 13.5282 56.4701 13.6552 56.436C13.7823 56.402 13.8978 56.3341 13.9893 56.2396C14.0808 56.1451 14.1449 56.0275 14.1749 55.8994C14.2049 55.7713 14.1995 55.6375 14.1594 55.5122C14.1193 55.387 14.0459 55.2749 13.9471 55.188L14.8641 53.9803C15.0282 54.0554 15.2143 54.0673 15.3866 54.0136C15.5589 53.96 15.7054 53.8446 15.7978 53.6896L18.4705 54.5954C18.456 54.7156 18.4719 54.8376 18.5166 54.9502C18.5613 55.0628 18.6334 55.1624 18.7264 55.24C18.8193 55.3177 18.9303 55.3708 19.049 55.3947C19.1678 55.4185 19.2906 55.4123 19.4064 55.3766C19.5221 55.3409 19.6271 55.2769 19.7118 55.1903C19.7965 55.1037 19.8582 54.9973 19.8913 54.8808C19.9245 54.7643 19.9279 54.6413 19.9015 54.5231C19.875 54.4049 19.8194 54.2952 19.7397 54.204C19.9634 53.4044 21.898 47.4944 22.0937 46.9353C22.2814 46.9189 22.4556 46.8308 22.5801 46.6892C23.1113 47.1086 24.7048 48.2995 25.2192 48.6462C25.1898 48.7619 25.1894 48.8831 25.218 48.9991C25.2465 49.115 25.3032 49.2221 25.383 49.3109C25.4628 49.3998 25.5633 49.4675 25.6755 49.5083C25.7878 49.5491 25.9083 49.5616 26.0265 49.5447C26.1447 49.5278 26.2569 49.4821 26.3533 49.4115C26.4496 49.3409 26.5271 49.2477 26.5788 49.1401C26.6305 49.0325 26.655 48.9138 26.6499 48.7945C26.6449 48.6752 26.6106 48.559 26.5499 48.4561C28.0372 46.0854 28.1043 46.1245 27.9478 46.0183C27.9183 46 27.8832 45.9933 27.8491 45.9995C27.815 46.0057 27.7844 46.0244 27.7633 46.0518C27.5005 46.432 26.2592 48.1765 26.2592 48.1765C26.1269 48.1114 25.9784 48.0868 25.8322 48.1057C25.686 48.1246 25.5486 48.1862 25.4373 48.2828C24.9173 47.9193 23.2678 46.7396 22.7423 46.3314C22.7647 46.2024 22.7519 46.0697 22.7051 45.9473C22.6584 45.825 22.5795 45.7175 22.4767 45.6364C22.3739 45.5552 22.2511 45.5033 22.1212 45.4861C21.9914 45.469 21.8593 45.4873 21.739 45.539C21.6187 45.5907 21.5146 45.674 21.4377 45.7801C21.3608 45.8861 21.314 46.0109 21.3022 46.1414C21.2904 46.2718 21.3141 46.403 21.3708 46.5211C21.4274 46.6392 21.5149 46.7398 21.624 46.8123C21.1431 48.1206 19.7453 52.6496 19.3875 53.9691C19.2531 53.9345 19.1117 53.9381 18.9793 53.9796C18.8469 54.0211 18.7288 54.0988 18.6382 54.204C18.0791 54.0139 16.4017 53.5051 15.8929 53.3429C15.8929 53.1516 15.8169 52.9682 15.6816 52.8329C15.5464 52.6976 15.3629 52.6216 15.1716 52.6216C14.9803 52.6216 14.7968 52.6976 14.6616 52.8329C14.5263 52.9682 14.4503 53.1516 14.4503 53.3429C14.4515 53.5026 14.5045 53.6576 14.6013 53.7846L13.6004 55.0315C13.5046 55.0105 13.4054 55.0096 13.3092 55.0288C13.2129 55.0481 13.1217 55.087 13.0413 55.1433L10.3743 53.1248C10.4034 52.9518 10.3684 52.774 10.2758 52.6249C10.1833 52.4758 10.0395 52.3655 9.87151 52.3148C9.7035 52.264 9.52275 52.2763 9.36312 52.3492C9.2035 52.4222 9.07595 52.5508 9.00438 52.7111C8.94876 52.8263 8.92611 52.9547 8.93894 53.082C8.95177 53.2093 8.99958 53.3306 9.07707 53.4324C8.55148 54.2207 6.64484 57.268 6.37087 57.7097C6.27051 57.6845 6.16591 57.6812 6.06416 57.7C5.96241 57.7188 5.86589 57.7593 5.78116 57.8187C5.69643 57.878 5.62547 57.955 5.5731 58.0442C5.52073 58.1334 5.48817 58.2329 5.47763 58.3358C5.4671 58.4388 5.47883 58.5428 5.51204 58.6408C5.54524 58.7388 5.59915 58.8285 5.67009 58.9038C5.74103 58.9791 5.82734 59.0383 5.92317 59.0773C6.01901 59.1163 6.12211 59.1343 6.22549 59.1299ZM15.9544 61.1093C15.9129 61.1093 15.873 61.1257 15.8437 61.1551C15.8143 61.1845 15.7978 61.2243 15.7978 61.2658C15.7978 61.3073 15.8143 61.3472 15.8437 61.3765C15.873 61.4059 15.9129 61.4224 15.9544 61.4224C16.9329 61.4224 28.4174 60.9751 28.8144 60.9695C28.8405 60.9637 28.8638 60.9492 28.8805 60.9283C28.8973 60.9075 28.9064 60.8816 28.9064 60.8548C28.9064 60.8281 28.8973 60.8022 28.8805 60.7814C28.8638 60.7605 28.8405 60.746 28.8144 60.7402C27.2544 60.7458 16.9552 60.9974 15.9544 61.1093ZM20.8692 57.1115C20.9048 57.1115 20.9389 57.0973 20.964 57.0722C20.9892 57.047 21.0034 57.0129 21.0034 56.9773C21.0034 56.9417 20.9892 56.9075 20.964 56.8824C20.9389 56.8572 20.9048 56.8431 20.8692 56.8431C20.4274 56.8431 18.8283 56.748 18.4537 56.7648C18.3885 56.7648 18.3259 56.7907 18.2797 56.8369C18.2336 56.883 18.2077 56.9456 18.2077 57.0108C18.2077 57.0761 18.2336 57.1386 18.2797 57.1848C18.3259 57.2309 18.3885 57.2568 18.4537 57.2568C18.8227 57.3016 20.4051 57.1506 20.8692 57.1115ZM14.892 57.8271H12.4822C12.4301 57.8296 12.3796 57.846 12.336 57.8747C12.2924 57.9034 12.2573 57.9432 12.2345 57.9901C12.2116 58.037 12.2018 58.0892 12.206 58.1412C12.2102 58.1932 12.2284 58.2431 12.2585 58.2856C12.4095 58.5093 12.5269 58.336 14.9032 58.1347C14.9327 58.1206 14.9574 58.0982 14.9744 58.0702C14.9913 58.0422 14.9997 58.0099 14.9985 57.9772C14.9973 57.9446 14.9866 57.913 14.9677 57.8863C14.9488 57.8596 14.9225 57.8391 14.892 57.8271ZM5.35884 60.8129C5.47625 60.8129 7.17602 60.6284 7.55063 60.6116C7.59216 60.6116 7.63198 60.5951 7.66134 60.5658C7.6907 60.5364 7.70719 60.4966 7.70719 60.4551C7.70719 60.4135 7.6907 60.3737 7.66134 60.3444C7.63198 60.315 7.59216 60.2985 7.55063 60.2985C7.33257 60.2985 5.44271 60.3768 5.31411 60.4383C5.27997 60.4588 5.25249 60.4888 5.23498 60.5246C5.21747 60.5604 5.21066 60.6005 5.21539 60.6401C5.22011 60.6796 5.23616 60.717 5.26161 60.7477C5.28706 60.7783 5.32082 60.801 5.35884 60.8129Z" fill="black"/>
<path d="M25.0907 51.1175H25.1801C27.5564 50.905 27.4726 51.0672 27.5732 50.9554C27.5918 50.9334 27.604 50.9068 27.6084 50.8784C27.6129 50.85 27.6094 50.821 27.5985 50.7944C27.5875 50.7678 27.5694 50.7448 27.5462 50.7278C27.523 50.7109 27.4956 50.7006 27.467 50.6982C26.6339 50.6982 25.8511 50.6255 25.1018 50.659C24.7831 50.6646 24.8111 51.1175 25.0907 51.1175ZM12.5885 46.2363C12.5277 46.2363 12.4694 46.2604 12.4264 46.3034C12.3834 46.3464 12.3592 46.4047 12.3592 46.4655C12.3592 46.5263 12.3834 46.5846 12.4264 46.6276C12.4694 46.6706 12.5277 46.6948 12.5885 46.6948C13.388 46.6948 16.5024 46.4096 17.2572 46.3313C17.293 46.3245 17.3252 46.3054 17.3484 46.2773C17.3716 46.2493 17.3843 46.214 17.3843 46.1776C17.3843 46.1412 17.3716 46.1059 17.3484 46.0778C17.3252 46.0498 17.293 46.0307 17.2572 46.0238C16.48 46.0853 13.3601 46.1692 12.5885 46.2363ZM12.2083 47.5447C12.1633 47.5558 12.1239 47.583 12.0976 47.6211C12.0713 47.6593 12.0598 47.7057 12.0652 47.7517C12.0707 47.7977 12.0929 47.8402 12.1274 47.871C12.162 47.9019 12.2066 47.919 12.253 47.9193C13.1364 47.9193 16.603 47.6062 17.4753 47.6006C17.5138 47.6006 17.5508 47.5853 17.5781 47.558C17.6053 47.5307 17.6207 47.4938 17.6207 47.4552C17.6207 47.4166 17.6053 47.3797 17.5781 47.3524C17.5508 47.3251 17.5138 47.3098 17.4753 47.3098C15.7163 47.2711 13.9568 47.3496 12.2083 47.5447ZM17.028 48.4393C15.5647 48.4182 14.1014 48.476 12.6444 48.6126C12.376 48.6462 12.3648 49.0543 12.6444 49.0543C13.142 49.0543 15.8594 48.7748 17.0336 48.73C17.0527 48.7297 17.0715 48.7255 17.089 48.7179C17.1065 48.7102 17.1223 48.6992 17.1355 48.6855C17.1488 48.6717 17.1592 48.6555 17.1661 48.6377C17.1731 48.6199 17.1765 48.6009 17.1761 48.5819C17.1758 48.5628 17.1716 48.5439 17.164 48.5264C17.1564 48.5089 17.1453 48.4931 17.1316 48.4799C17.1178 48.4666 17.1016 48.4562 17.0838 48.4493C17.066 48.4423 17.0471 48.4389 17.028 48.4393ZM18.8675 36.3956C19.1415 36.3956 21.9316 36.1048 22.4795 36.0657C22.5181 36.0657 22.555 36.0504 22.5823 36.0231C22.6096 35.9958 22.6249 35.9589 22.6249 35.9203C22.6249 35.8818 22.6096 35.8448 22.5823 35.8175C22.555 35.7903 22.5181 35.7749 22.4795 35.7749C22.2055 35.7749 19.2142 35.8644 18.8843 35.8868C18.5544 35.9091 18.5544 36.3956 18.8675 36.3956ZM19.4434 37.525C20.3213 37.525 23.7431 37.2007 24.6098 37.1448C24.6414 37.1384 24.6698 37.1212 24.6902 37.0963C24.7106 37.0713 24.7218 37.0401 24.7218 37.0078C24.7218 36.9756 24.7106 36.9443 24.6902 36.9194C24.6698 36.8944 24.6414 36.8772 24.6098 36.8708C23.7376 36.91 20.2933 36.9267 19.4378 37.0162C19.3769 37.0259 19.3215 37.0572 19.2818 37.1043C19.242 37.1515 19.2205 37.2113 19.2212 37.273C19.2218 37.3347 19.2446 37.3941 19.2854 37.4403C19.3262 37.4866 19.3823 37.5166 19.4434 37.525Z" fill="black"/>
</svg>
