<svg width="113" height="113" viewBox="0 0 113 113" fill="none" xmlns="http://www.w3.org/2000/svg">
<path d="M19.2047 73.631C17.0017 74.2293 10.7451 76.203 9.80013 76.5273C9.80013 69.896 10.8625 21.0167 10.9687 16.141C10.9646 16.1272 10.9561 16.115 10.9445 16.1064C10.9329 16.0978 10.9189 16.0931 10.9044 16.0931C10.89 16.0931 10.8759 16.0978 10.8643 16.1064C10.8527 16.115 10.8442 16.1272 10.8401 16.141C10.5494 20.4687 9.52056 73.7316 9.54293 76.6056C8.65391 76.9075 4.62257 78.283 3.48753 78.6632C3.42043 78.6632 3.44839 78.7918 3.48753 78.7694C5.46126 78.16 9.47024 76.8236 9.51497 76.8125C9.51497 78.7582 9.53734 80.7059 9.58207 82.6554C9.58207 82.6791 9.59149 82.7019 9.60827 82.7186C9.62505 82.7354 9.6478 82.7448 9.67153 82.7448C9.69525 82.7448 9.71801 82.7354 9.73479 82.7186C9.75156 82.7019 9.76099 82.6791 9.76099 82.6554V76.723C11.6117 76.108 17.9299 74.2069 19.2383 73.8602C19.2607 73.8483 19.2789 73.8298 19.2903 73.8072C19.3018 73.7845 19.306 73.7589 19.3023 73.7338C19.2986 73.7087 19.2873 73.6853 19.2698 73.6669C19.2523 73.6485 19.2296 73.636 19.2047 73.631ZM62.9289 62.4819C62.9289 62.4819 61.5981 68.2298 58.1315 66.3958C54.6649 64.5619 56.907 60.8548 56.9629 57.2317C57.0188 53.6085 54.1673 51.1371 54.1673 51.1371C54.1673 51.1371 55.0227 57.9809 50.8684 58.909C46.714 59.8372 43.3033 55.9568 44.4999 50.4662C45.6964 44.9755 46.5016 41.917 46.468 39.9992C46.4345 38.0814 45.7244 37.444 45.7244 37.444C45.7244 37.444 46.3394 41.7661 41.57 44.1536C36.9236 46.4795 30.5942 50.4382 30.488 58.0648C30.3818 65.8367 32.1095 68.1795 30.4377 68.4982C27.9216 68.979 29.476 64.9812 28.7323 62.2638C28.4873 61.4475 28.0836 60.6875 27.5444 60.0274C27.0052 59.3673 26.341 58.8201 25.59 58.417C25.59 58.417 27.9831 62.2806 25.4279 66.1722C22.8726 70.0637 17.2254 74.8331 24.6283 81.3414C24.6283 81.3414 23.9909 78.9204 25.3775 77.3772C26.7642 75.834 27.3736 75.5376 28.0502 73.9665C28.3277 73.4205 28.4877 72.8224 28.5199 72.2108C28.5199 72.2108 32.0368 76.9522 34.8548 74.2349C37.6729 71.5175 36.1017 67.7322 37.5554 65.8479C39.0092 63.9636 39.5963 64.0363 39.5963 64.0363C39.5963 64.0363 37.5554 66.804 39.8647 70.6285C42.1739 74.4529 45.7244 70.6788 46.468 67.8328C47.2117 64.9868 49.7445 65.6857 49.7445 65.6857C49.7445 65.6857 46.8426 66.3958 47.4577 69.13C48.0727 71.8641 48.7045 71.9256 48.7045 71.9256C48.7045 71.9256 49.2637 69.5326 52.0593 70.17C54.855 70.8074 56.2249 73.4185 57.8463 73.0998C59.4678 72.7811 59.9934 70.7571 59.9934 70.7571C59.9934 70.7571 62.0734 73.9553 61.8106 75.6551C61.5478 77.3548 59.9934 79.3285 59.9934 79.3285C61.4189 79.3183 62.7996 78.83 63.9147 77.942C65.0298 77.054 65.8147 75.8175 66.1439 74.4306C67.5641 69.348 62.9289 62.4819 62.9289 62.4819Z" fill="black"/>
<path d="M59.0541 61.6433C59.3217 61.5262 59.5626 61.356 59.7623 61.1428C59.962 60.9297 60.1162 60.6782 60.2155 60.4036C60.3149 60.129 60.3574 59.8371 60.3404 59.5455C60.3233 59.254 60.2472 58.969 60.1165 58.7078C59.7816 58.1811 59.573 57.584 59.507 56.9633C58.9154 57.6715 58.5613 58.5478 58.495 59.4682C58.3329 61.0953 59.0541 61.6433 59.0541 61.6433ZM49.0289 41.7605C48.8164 40.441 50.5833 40.1614 50.3429 38.3219C50.1024 36.4823 48.6655 36.3258 48.6655 36.3258L49.0289 37.0303C49.3867 37.7404 49.3308 38.8419 48.7885 40.0831C48.2461 41.3244 49.0289 41.7605 49.0289 41.7605Z" fill="black"/>
<path d="M70.6393 57.5057C69.7311 57.6963 68.8379 57.9523 67.9666 58.2717V55.6102H68.0505C68.6096 55.6102 68.3748 50.6675 68.0169 48.9565C68.1511 34.4191 68.4866 8.13991 68.4866 7.86034C68.4866 7.84255 68.4795 7.82548 68.467 7.8129C68.4544 7.80031 68.4373 7.79324 68.4195 7.79324C68.4017 7.79324 68.3847 7.80031 68.3721 7.8129C68.3595 7.82548 68.3524 7.84255 68.3524 7.86034C67.7933 22.7612 67.7262 38.5176 67.7374 48.375C67.4466 48.3359 66.7924 48.8168 66.06 49.4598L56.2528 27.0609C56.4261 20.1948 56.5603 12.708 56.5603 5.96488C56.5603 5.8866 56.4373 5.8866 56.4317 5.96488C56.3926 6.65821 56.1522 16.5884 55.9117 26.7981L43.8121 24.31C44.019 17.7346 44.2203 11.3549 44.2315 10.3317C44.2315 10.287 44.1644 10.287 44.1588 10.3317C44.0581 12.6745 43.7786 17.2538 43.5381 24.31L32.3891 26.2893C32.4226 19.0709 32.3891 13.3734 32.3891 13.1889C32.3859 13.1803 32.3802 13.1729 32.3727 13.1677C32.3652 13.1625 32.3562 13.1597 32.3471 13.1597C32.338 13.1597 32.3291 13.1625 32.3216 13.1677C32.3141 13.1729 32.3084 13.1803 32.3052 13.1889C32.266 13.748 32.1878 19.4288 32.1039 26.1775L21.3406 20.1109C21.3686 17.6563 21.3853 16.1523 21.3853 16.0628C21.3853 16.0518 21.3832 16.0409 21.3789 16.0307C21.3747 16.0205 21.3686 16.0113 21.3608 16.0035C21.353 15.9957 21.3437 15.9895 21.3336 15.9853C21.3234 15.9811 21.3125 15.9789 21.3015 15.9789C21.2904 15.9789 21.2795 15.9811 21.2694 15.9853C21.2592 15.9895 21.2499 15.9957 21.2422 16.0035C21.2344 16.0113 21.2282 16.0205 21.224 16.0307C21.2198 16.0409 21.2176 16.0518 21.2176 16.0628C21.2176 16.6219 21.2176 18.031 21.1785 20.0718L12.2323 19.8817C12.0803 19.8772 11.9328 19.9333 11.8222 20.0377C11.7116 20.142 11.6469 20.286 11.6425 20.438C11.638 20.59 11.6941 20.7376 11.7985 20.8482C11.9028 20.9588 12.0468 21.0235 12.1988 21.0279L21.1449 21.2851C20.9772 34.8161 20.4516 68.8113 20.4404 69.1188C20.4404 69.2195 20.5914 69.2195 20.5914 69.1188C20.7088 66.5468 21.1505 34.2681 21.3071 21.3522L32.0871 27.5026C31.9585 37.9305 31.8243 50.2593 31.8187 50.4606C31.8187 50.5333 31.9306 50.5333 31.9362 50.4606C32.2269 44.5003 32.3443 35.2578 32.3835 27.4635L43.499 25.5121C43.376 29.4261 43.2642 34.0445 43.2083 39.4233C43.2083 39.4904 43.3145 39.4904 43.3145 39.4233C43.376 37.6733 43.5773 31.629 43.773 25.4842L55.8782 28.196C55.621 39.032 55.375 49.7952 55.3694 49.963C55.3694 49.9823 55.377 50.0007 55.3907 50.0144C55.4043 50.028 55.4228 50.0357 55.4421 50.0357C55.4613 50.0357 55.4798 50.028 55.4935 50.0144C55.5071 50.0007 55.5148 49.9823 55.5148 49.963C55.5707 48.3303 55.9285 39.4793 56.2081 28.7998L65.1542 50.3152C64.0359 51.3496 63.063 52.4232 63.063 52.4232C62.8282 53.0606 66.6694 55.0846 67.7653 55.5487V58.3444C67.3516 58.4842 63.8179 59.7646 62.4256 60.1336C62.4107 60.1398 62.3985 60.1512 62.3913 60.1657C62.3841 60.1802 62.3824 60.1968 62.3864 60.2125C62.3905 60.2282 62.4001 60.2418 62.4135 60.2509C62.4269 60.2601 62.4431 60.2641 62.4592 60.2622C63.857 59.9155 69.9963 57.9306 70.6449 57.651C70.7399 57.6119 70.7064 57.5001 70.6393 57.5057ZM42.5541 79.2391C42.404 79.3908 42.295 79.5782 42.2373 79.7836C42.1796 79.989 42.1751 80.2057 42.2242 80.4133C42.2864 80.5961 42.3891 80.7625 42.5246 80.9C42.6602 81.0375 42.8251 81.1425 43.007 81.2073C43.7152 81.4186 44.4562 81.4982 45.1932 81.4421C45.1932 81.4421 47.7093 83.5109 47.7764 83.5724C47.2172 84.0365 46.44 83.7569 45.8082 83.7178C45.702 83.7178 45.702 83.8576 45.8082 83.8911C46.1552 84.0368 46.5323 84.0961 46.9073 84.064C47.2822 84.0318 47.6438 83.9092 47.9609 83.7066C48.096 83.8212 48.2379 83.9277 48.3858 84.0253C48.3985 84.0309 48.4126 84.0321 48.426 84.0287C48.4394 84.0253 48.4513 84.0175 48.4597 84.0065C48.4681 83.9955 48.4725 83.982 48.4723 83.9682C48.4721 83.9543 48.4672 83.941 48.4585 83.9303C48.3423 83.8076 48.2191 83.6919 48.0895 83.5836C48.2061 83.4436 48.2899 83.2792 48.3346 83.1026C48.3793 82.926 48.3839 82.7416 48.348 82.5629C48.312 82.3843 48.2365 82.216 48.1269 82.0704C48.0174 81.9248 47.8766 81.8057 47.7149 81.7217C46.9524 81.3388 46.0995 81.1725 45.2491 81.2408C44.4439 80.5811 43.6388 79.9213 42.8225 79.2671C42.8976 79.2063 42.9803 79.1556 43.0685 79.1161C43.3476 79.0238 43.6444 78.9974 43.9354 79.0391C44.2265 79.0808 44.5039 79.1895 44.7459 79.3566C44.785 79.3566 44.8186 79.3566 44.7906 79.3006C44.5208 79.022 44.1579 78.8526 43.7711 78.8248C43.3843 78.7969 43.0007 78.9126 42.6939 79.1497L42.1347 78.708C42.0844 78.6688 42.0173 78.7359 42.062 78.7751L42.5541 79.2391ZM48.1454 82.6834C48.1632 82.8204 48.1515 82.9597 48.111 83.0918C48.0705 83.224 48.0021 83.3459 47.9106 83.4494L45.4727 81.4421C46.5015 81.4533 48.0056 81.6378 48.1398 82.6834H48.1454ZM42.705 79.3621C43.4487 79.9996 44.2035 80.6202 44.9416 81.2464C44.4134 81.2507 43.8859 81.2096 43.3648 81.1234C42.2354 80.8382 42.1515 79.9325 42.6994 79.3621H42.705Z" fill="black"/>
<path d="M74.8049 93.8884C73.983 93.1783 62.3251 84.6291 61.2683 83.9134V82.9853C61.2683 82.9741 50.5553 75.0121 50.4882 75.0288C49.0345 75.4035 30.8124 80.061 29.6382 80.4133C29.6276 80.4153 29.6176 80.4199 29.6091 80.4266C29.6007 80.4333 29.594 80.442 29.5896 80.4519C29.5852 80.4618 29.5832 80.4726 29.5839 80.4834C29.5846 80.4942 29.5879 80.5047 29.5935 80.5139V80.9277C29.0958 81.0898 22.7665 82.9182 22.7665 82.9909C22.7665 84.1539 22.9342 86.4966 22.9342 86.5078C22.7888 86.5078 18.8078 87.313 18.791 87.3521C18.7743 87.3912 18.7407 90.5056 18.8246 91.1262C18.8246 91.1542 39.7865 107.576 39.8256 107.57C40.5245 107.391 49.6439 104.529 50.4491 104.327C50.4743 104.32 50.4958 104.303 50.5092 104.28C50.5227 104.257 50.5271 104.23 50.5218 104.204C50.4771 103.947 50.4547 103.696 50.4267 103.438C50.4267 103.438 51.9699 104.093 52.0203 104.076C54.8439 103.209 62.0846 100.905 62.873 100.637C62.917 100.609 62.9489 100.565 62.9625 100.514V99.8375C62.9625 99.8375 63.9577 100.251 64.0025 100.235C66.7981 99.2169 73.8711 96.8462 74.626 96.5666C74.648 96.559 74.6663 96.543 74.6767 96.5221C74.6871 96.5012 74.689 96.477 74.6819 96.4548C74.7322 96.3094 74.8049 94.4083 74.8273 93.9666C74.8326 93.9529 74.8333 93.9379 74.8293 93.9237C74.8253 93.9096 74.8167 93.8971 74.8049 93.8884ZM74.5812 93.8884C74.4247 93.9219 67.7934 95.8341 67.2678 96.0298C67.2342 95.7279 67.2678 93.2342 67.2678 93.2342C67.0945 93.0105 63.0519 89.8179 62.3922 89.2867C63.0687 89.1469 65.9091 88.1684 66.6863 87.9783C68.3861 89.242 74.1172 93.592 74.5812 93.9107V93.8884ZM60.0438 98.9541L53.7703 100.682C53.871 100.262 53.7088 97.1705 53.7088 97.1313L60.1389 95.3812C60.1277 95.5266 59.9879 98.8814 60.0159 98.9765L60.0438 98.9541ZM53.6529 96.9356C53.5523 96.7958 46.4737 91.5903 45.6685 90.9921L49.8229 89.9185C49.6426 90.0216 49.5005 90.1802 49.4179 90.3707C49.3353 90.5611 49.3165 90.7732 49.3644 90.9753C49.4818 91.4673 50.0242 91.9034 51.0418 91.909C51.3158 91.909 51.6009 91.8811 51.8805 91.8531C51.9811 91.9426 53.446 93.1671 54.117 93.6759C53.5871 93.8581 53.0152 93.8795 52.4732 93.7374C52.4571 93.7355 52.4409 93.7395 52.4275 93.7486C52.4141 93.7578 52.4045 93.7714 52.4004 93.7871C52.3963 93.8028 52.3981 93.8194 52.4053 93.8339C52.4125 93.8484 52.4247 93.8598 52.4396 93.866C53.042 94.0578 53.6924 94.0341 54.2792 93.7989C54.4525 93.9331 54.6258 94.0729 54.8047 94.2015C54.9837 94.3301 55.0284 94.0952 54.9166 94.0114L54.4804 93.6703C54.6431 93.5568 54.7641 93.393 54.8247 93.2041C54.8853 93.0152 54.8822 92.8117 54.8159 92.6247C54.5699 91.8867 53.7312 91.6015 53.0267 91.5624C52.6731 91.5515 52.3193 91.5739 51.9699 91.6295C51.6736 91.3779 50.41 90.2596 50.0633 89.9521C50.2702 89.8402 51.8302 89.3929 52.3557 89.242C52.3557 89.242 59.7083 95.001 60.0103 95.1464C60.0438 95.1464 60.0885 95.1464 60.0662 95.0905C59.8984 94.8501 53.1497 89.5663 52.6185 89.1749C54.0499 88.7947 59.4735 87.2906 59.6412 87.2459C59.6412 87.2459 66.759 93.0944 66.9659 93.2286C64.7014 93.9219 55.403 96.4771 53.625 96.958L53.6529 96.9356ZM35.6209 93.7765C35.4196 93.7765 33.3844 94.1735 33.1775 94.2182C33.2111 93.6032 33.4012 90.6007 33.4235 90.4497C34.1001 90.3602 36.8902 89.8906 37.0803 89.8347L37.3263 90.0415C36.8121 90.0495 36.3011 90.1228 35.8054 90.2596C35.8054 90.2596 35.6097 93.6423 35.593 93.7989L35.6209 93.7765ZM35.6209 93.8828C35.6209 94.017 35.6209 94.1456 35.5762 94.2742C35.5315 94.4028 38.2377 96.5107 38.5787 96.7903C38.1538 96.8909 34.5642 97.9756 32.3053 98.0595C32.0648 97.875 27.7595 94.4307 25.8641 92.8763C26.535 92.798 30.1358 92.0041 30.1358 92.0041C30.4266 92.2277 32.4059 93.7933 33.0825 94.386C33.9276 94.2844 34.7647 94.1237 35.5874 93.9051L35.6209 93.8828ZM35.9173 90.3938C35.9173 90.3938 37.3263 90.2037 37.5332 90.2093C37.5332 90.2093 40.0437 92.3619 40.066 92.3563C41.8552 91.9594 43.678 91.5009 45.4561 91.0424L53.3957 96.9971C52.4732 97.2431 46.3674 98.9317 46.3507 98.9485L35.9173 90.3938ZM47.5808 90.2987C47.5248 90.2987 40.0996 92.2277 40.066 92.2837L40.1219 88.3697C42.5877 87.8889 45.0255 87.285 47.4577 86.642C47.3739 86.9607 47.4857 90.0303 47.5472 90.3211L47.5808 90.2987ZM54.3295 88.5375C53.9157 88.6493 49.5042 89.8179 47.7038 90.2875C47.7038 89.9968 47.6479 86.9328 47.6031 86.6364C47.6031 86.6364 52.3949 85.3225 54.5364 84.7521C54.5196 84.9087 54.2456 87.9336 54.3295 88.5375ZM49.9179 90.0583C50.2366 90.3994 51.4108 91.4673 51.6568 91.6798C51.1784 91.7623 50.6875 91.7375 50.2199 91.6071C49.2973 91.3052 49.2973 90.4609 49.9067 90.0583H49.9179ZM52.1545 91.8419C52.6722 91.7625 53.2012 91.7988 53.7032 91.9482C54.6314 92.2725 54.8662 93.1615 54.2624 93.5752C53.6082 93.0441 52.1992 91.8755 52.16 91.8419H52.1545ZM61.3634 86.6196C61.3186 86.0158 61.2571 84.3496 61.2627 84.1203C63.0016 85.3616 64.7573 86.5805 66.485 87.8441C65.7581 88.051 62.9569 88.9624 62.2747 89.2028C61.9784 88.9624 60.0382 87.3913 59.7195 87.2515C60.2283 87.1061 60.7371 86.9607 61.2292 86.7762C61.2739 86.765 61.3745 86.6756 61.3689 86.6196H61.3634ZM61.2012 86.6196L54.4469 88.4927C54.4469 87.8889 54.6258 84.8696 54.6761 84.7298C54.7209 84.7298 59.5238 83.4717 61.0726 83.1307C61.0391 83.6898 61.2068 86.6308 61.2068 86.6308L61.2012 86.6196ZM50.4882 75.191C51.8078 76.3092 60.3122 82.4597 60.9608 82.9517C58.8584 83.4214 56.7785 83.9526 54.6985 84.5061C54.0667 84.0309 44.9081 76.8684 44.7571 76.7621C45.0535 76.7062 48.8891 75.7054 50.4882 75.191ZM44.5391 76.8684C44.8186 77.1368 53.7703 84.1371 54.4525 84.6124L47.4242 86.5134C46.798 86.0102 37.8798 79.3397 37.22 78.7526C39.6802 78.1227 42.1199 77.4946 44.5391 76.8684ZM36.9517 78.8197C37.6282 79.295 46.8986 86.3289 47.2453 86.5581C46.3339 86.7986 41.5142 88.0007 40.0157 88.3138L29.6773 80.5586C30.7285 80.3462 36.8622 78.8197 36.9517 78.7974V78.8197ZM29.6103 81.1178C29.6438 81.9956 29.6718 82.7952 29.7053 83.7289L36.8678 89.7284C36.7392 89.7284 33.9938 90.1701 33.2837 90.3211C33.2334 90.3211 22.9845 83.0524 22.9845 83.0524C24.1363 82.7616 29.1182 81.2296 29.6103 81.0954V81.1178ZM19.1042 87.4192C19.1768 87.4192 22.8056 86.6923 22.9845 86.67C22.9845 86.67 28.984 91.1822 30.052 91.9929C29.3307 92.0488 26.3897 92.6527 25.6236 92.7309C24.8856 92.1215 19.4396 87.6484 19.1042 87.4192ZM25.9032 96.5834C25.9032 96.2814 25.7411 93.5361 25.7019 92.9378C26.1157 93.2789 30.421 96.7791 32.1711 98.1657C32.1711 98.1657 32.3556 101.392 32.378 101.66C32.1152 101.47 27.7987 98.1154 25.9088 96.5834H25.9032ZM32.4842 98.2608C34.5781 97.926 36.6533 97.4837 38.7017 96.9356C39.0372 97.1984 45.3442 101.968 45.8866 102.348C44.8801 102.588 39.9374 103.707 39.9206 103.707C37.3598 102.029 34.9052 100.162 32.4898 98.2608H32.4842ZM39.8871 107.414C39.8871 107.414 39.9318 103.874 39.9486 103.846C40.4015 103.785 44.9081 102.728 45.9313 102.499C46.1614 102.583 46.3809 102.694 46.5855 102.829L50.0857 101.822C50.2422 102.6 50.1639 103.399 50.2981 104.171C49.6495 104.406 40.6587 107.129 39.8927 107.414H39.8871ZM46.7141 102.689C46.7141 102.689 46.5911 100.324 46.524 99.1051C48.85 98.4565 51.1778 97.8153 53.5076 97.1816L53.6809 100.704L46.7141 102.689ZM62.7724 100.453C61.3634 100.878 52.8254 103.595 52.065 103.841C52.0203 103.013 51.8805 101.314 51.8693 101.302C51.8581 101.291 59.4959 99.2896 62.8227 98.2272C62.778 98.4061 62.7836 100.1 62.778 100.469L62.7724 100.453ZM60.15 98.9261C60.15 98.8423 60.2283 95.4763 60.2563 95.3253C61.0614 95.1073 65.6184 93.838 67.0833 93.4019C67.0214 94.5534 67.0645 95.7081 67.2119 96.8518L60.15 98.9261ZM67.3573 96.9971C67.3448 96.7125 67.3168 96.4288 67.2734 96.1472C67.7542 96.1137 74.4247 94.2071 74.6036 94.1344C74.6036 94.5314 74.4918 96.2982 74.5141 96.4548C71.7744 97.4724 64.7852 99.776 64.0807 100.033C64.0807 99.3679 64.1199 97.9029 64.1199 97.9029C64.1199 97.9029 67.3517 97.0251 67.3573 96.9971ZM87.2791 14.5643V14.486C87.2115 14.4074 87.1214 14.3512 87.021 14.3252C86.9206 14.2992 86.8146 14.3045 86.7173 14.3404C86.62 14.3762 86.5359 14.441 86.4764 14.526C86.417 14.611 86.3849 14.7122 86.3845 14.8159C86.413 14.7286 86.4626 14.6496 86.5289 14.586C86.5952 14.5224 86.6762 14.4761 86.7646 14.4512C86.8531 14.4264 86.9463 14.4237 87.036 14.4434C87.1258 14.4631 87.2093 14.5046 87.2791 14.5643ZM89.0516 15.7105C89.0416 15.6987 89.0292 15.6893 89.0152 15.6828C89.0012 15.6763 88.9859 15.6729 88.9705 15.6729C88.9551 15.6729 88.9398 15.6763 88.9258 15.6828C88.9118 15.6893 88.8994 15.6987 88.8894 15.7105C88.8877 15.9273 88.914 16.1434 88.9677 16.3535C88.9677 16.4318 89.1131 16.415 89.1075 16.3535C89.1162 16.1377 89.0974 15.9216 89.0516 15.7105ZM86.8821 15.3639C86.8748 15.3555 86.8658 15.3489 86.8556 15.3443C86.8455 15.3397 86.8345 15.3373 86.8234 15.3373C86.8123 15.3373 86.8014 15.3397 86.7912 15.3443C86.7811 15.3489 86.7721 15.3555 86.7647 15.3639C86.7125 15.6391 86.7125 15.9217 86.7647 16.197C86.7647 16.2641 86.8933 16.2529 86.8877 16.197C86.9107 15.9196 86.9089 15.6408 86.8821 15.3639ZM88.0619 17.8688V17.824C87.3965 17.824 87.3854 17.6675 87.3742 17.6563C87.363 17.6451 87.76 16.6554 87.8327 16.443C87.8327 16.415 87.7935 16.3927 87.7823 16.443C87.6817 16.6443 87.1449 17.7458 87.1617 17.7961C87.212 17.9359 87.8774 17.9247 88.0619 17.8688ZM89.4262 18.6795C89.4924 18.7653 89.5504 18.857 89.5995 18.9535C89.3479 19.0429 89.3703 19.7698 89.7561 19.7307C89.8063 19.7296 89.8544 19.7103 89.8915 19.6763C89.9285 19.6424 89.952 19.5961 89.9574 19.5462C89.9686 19.2778 89.5157 18.7746 89.4262 18.6795ZM97.2149 29.4763C95.8038 29.7398 94.3595 29.7738 92.9375 29.577V29.6217C93.6588 29.7839 95.9121 30.1361 97.254 29.6217C97.3044 29.5714 97.2708 29.4652 97.2149 29.4763ZM86.8933 29.1968C85.6654 29.485 84.3823 29.4348 83.1807 29.0514C83.1416 29.0514 83.1304 29.0961 83.1807 29.1129C84.3809 29.5843 85.7021 29.6511 86.9436 29.303C86.9772 29.2862 86.9492 29.18 86.8933 29.1968ZM89.3311 26.4011C88.9342 26.6583 86.3174 37.7627 86.2783 38.0646C86.2391 38.3665 88.0563 41.0839 88.1737 41.0839C89.3386 40.4397 90.4593 39.7187 91.5285 38.9257C91.7075 38.7076 90.9303 26.882 90.8296 26.5856C90.729 26.2893 89.3311 26.4011 89.3311 26.4011Z" fill="black"/>
<path d="M105.854 15.5372C103.27 13.7424 97.2988 10.2646 97.2317 10.2366C97.1646 10.2087 97.1423 10.1919 96.4433 10.6783C96.0385 10.0985 95.5418 9.5886 94.9728 9.16869C94.7704 9.04635 94.5384 8.98169 94.3019 8.98169C94.0653 8.98169 93.8333 9.04635 93.6309 9.16869C93.1535 9.41571 92.7208 9.74075 92.3505 10.1304C91.7211 10.0905 91.0906 10.1917 90.5054 10.4267C90.5054 10.4267 88.8951 7.03281 86.4125 7.83236C83.93 8.63192 85.4284 11.668 85.4284 11.668C85.3611 11.743 85.2977 11.8214 85.2383 11.9028C85.1159 11.7589 84.9791 11.6278 84.8302 11.5115C84.545 11.3661 80.9162 12.2663 79.127 13.0323C76.9846 13.9795 75.0095 15.2673 73.2785 16.8456C72.0205 18.2825 71.8192 19.0821 72.2106 20.7595C73.1946 25.0257 76.4152 29.0794 79.9881 31.6626C79.77 33.1722 79.5911 34.6819 79.5016 36.2027C79.278 39.8483 79.8539 41.5928 81.6487 42.9682C77.5391 55.3865 79.921 88.2579 79.921 88.2579C80.2312 88.5494 80.6199 88.7438 81.0393 88.817C81.0672 89.1302 81.1511 89.9744 81.1623 90.0863C80.6535 90.4707 80.1129 90.8111 79.5464 91.1039C79.3507 91.1689 79.1821 91.2969 79.0668 91.4678C78.9515 91.6388 78.896 91.843 78.909 92.0488C78.8307 92.5409 80.9889 92.5185 81.5928 92.4626C82.1967 92.4067 82.219 92.0097 82.342 91.9594C82.465 91.909 82.4427 92.1998 82.4259 92.3508C82.4091 92.5017 82.985 92.5185 83.3373 92.5241C83.6895 92.5297 83.6448 89.1134 83.6672 88.8953C84.0503 88.8412 84.4257 88.7417 84.7854 88.599C88.7832 77.8636 89.1019 71.0702 89.1019 71.0702C87.665 59.7086 87.9278 51.9814 88.3527 52.0597C88.7776 52.138 88.0843 55.0399 88.9118 65.6131C89.7394 76.1863 93.206 89.516 93.206 89.516C93.6591 89.5976 94.1164 89.6536 94.5758 89.6837C94.6094 90.0192 94.71 90.8858 94.7212 90.9921C94.2247 91.36 93.6993 91.6873 93.15 91.9706C92.9544 92.0349 92.7858 92.1629 92.6713 92.3342C92.5568 92.5054 92.5029 92.71 92.5182 92.9155C92.4344 93.4075 94.5926 93.3852 95.2021 93.3292C95.8115 93.2733 95.8227 92.8763 95.9457 92.826C96.0687 92.7757 96.0464 93.0665 96.0296 93.2174C96.0128 93.3684 96.5887 93.3852 96.941 93.3907C97.2932 93.3963 96.9857 91.4841 97.3324 89.7061C97.6682 89.6891 97.9997 89.6232 98.3164 89.5104C98.3164 89.5104 99.91 85.5965 100.855 68.5653C101.727 52.9096 100.162 45.0258 99.9044 43.8517C100.233 43.6671 100.509 43.4009 100.705 43.0786C100.901 42.7564 101.01 42.389 101.023 42.0121C101.023 41.7885 100.793 32.8647 100.743 32.1658C103.253 30.3128 105.531 28.1632 107.525 25.7637C108.544 24.6175 109.252 23.2297 109.583 21.7324C110.092 18.7858 108.286 17.2202 105.854 15.5372ZM93.6365 9.27493C93.8738 9.14861 94.1475 9.108 94.4113 9.15994C94.6751 9.21189 94.9129 9.35321 95.0847 9.56008C95.4832 9.98025 95.9031 10.3796 96.3427 10.7566C95.771 11.2028 95.375 11.8364 95.2244 12.5458C95.2244 12.0025 95.0116 11.4807 94.6318 11.0921C94.0299 10.5455 93.2664 10.2099 92.4567 10.136C92.8164 9.80557 93.2122 9.51673 93.6365 9.27493ZM93.7204 21.0167C93.7136 21.0075 93.7048 20.9999 93.6946 20.9948C93.6844 20.9896 93.6731 20.9869 93.6617 20.9869C93.6502 20.9869 93.6389 20.9896 93.6287 20.9948C93.6185 20.9999 93.6097 21.0075 93.603 21.0167L93.1948 21.436C93.0997 20.8769 92.9655 19.7139 92.9767 19.7083C93.2563 19.5406 94.9728 16.0125 95.2132 13.4349C96.4993 15.592 98.1098 17.5382 99.9882 19.2051C100.257 19.4455 101.503 20.4464 101.531 20.4632C101.425 20.5023 94.9337 22.3866 94.6821 22.5208C94.3634 21.9896 94.0279 21.5143 93.7204 21.0055V21.0167ZM94.6541 22.8227C94.2851 23.3427 92.7642 25.2046 92.4511 25.6743C91.9602 24.9829 91.5121 24.2621 91.1092 23.516C91.992 22.7797 92.8373 21.9997 93.6421 21.1788C93.9776 21.7156 94.2907 22.2803 94.6541 22.8115V22.8227ZM86.3175 12.8478C86.8151 12.7471 86.8766 14.1226 89.0516 14.4469C88.9608 14.4507 88.872 14.4748 88.7917 14.5173C88.7114 14.5599 88.6417 14.6199 88.5875 14.6929C88.5875 14.6929 89.3256 14.3854 89.5045 14.9445C89.5045 14.9781 89.594 14.9445 89.5996 14.9166C89.6074 14.8166 89.5805 14.717 89.5235 14.6345C89.4665 14.552 89.3828 14.4917 89.2865 14.4637C89.6116 14.4957 89.9384 14.5069 90.2649 14.4972C91.5957 14.4693 90.9974 16.0572 91.4167 16.1355C91.618 16.1746 91.646 15.9733 91.8473 15.7553C92.0486 15.5372 92.4511 15.2744 92.7754 15.526C93.6309 16.2026 92.4959 17.4215 92.4959 17.4215C92.5473 18.8048 92.7555 20.1779 93.1165 21.5143C92.0486 22.5711 90.9359 23.4769 90.9359 23.5272C90.757 23.5272 89.9574 23.6838 89.6667 23.7453C89.3485 23.0975 89.0703 22.4309 88.8336 21.7492C88.8754 21.4454 88.8923 21.1387 88.8839 20.8322C88.8839 20.0103 88.1794 20.3178 87.7209 20.1892C87.4383 20.1036 87.1811 19.95 86.9716 19.7419C86.5354 19.2773 86.2473 18.6934 86.1441 18.0645C85.9991 17.3403 85.9149 16.6053 85.8925 15.8671C85.859 14.9837 85.7024 12.9708 86.3175 12.8478ZM87.1617 23.1917C86.6921 23.0016 80.6982 19.5182 80.2621 19.1324C80.6646 18.8137 84.5786 16.2697 85.7304 15.6882C85.7304 17.5165 85.9484 20.055 87.7488 20.4352C88.2129 20.5303 88.5428 20.3681 88.6099 20.6421C88.6379 20.7595 88.649 21.1397 88.6658 21.4472C88.6512 21.4394 88.6349 21.4353 88.6183 21.4353C88.6017 21.4353 88.5854 21.4394 88.5708 21.4472C88.3415 21.71 86.9661 22.8507 87.0052 22.901C87.0627 22.9949 87.115 23.092 87.1617 23.1917ZM88.5987 21.8163C88.6938 22.1126 89.3927 23.3147 89.566 23.667C89.566 23.667 88.5093 25.0369 88.3415 25.3444C88.185 24.9474 87.3015 23.0575 87.2233 22.9289C87.7321 22.6326 88.006 22.1965 88.5987 21.8386V21.8163ZM83.4044 90.1701C82.6719 90.8579 81.5089 90.3323 81.3244 90.1701C81.3244 90.0192 81.207 89.119 81.1679 88.8226C81.9514 88.9065 82.7399 88.9345 83.5274 88.9065C83.4938 89.091 83.4044 89.9353 83.4044 90.1701ZM97.0025 91.0088C96.694 91.2327 96.3212 91.3504 95.9401 91.3444C95.559 91.3383 95.1902 91.2088 94.889 90.9753C94.889 90.8411 94.7548 89.9577 94.7156 89.6502C95.0791 89.6502 96.8962 89.7005 97.2205 89.6502C97.1814 89.9577 97.0304 90.8467 96.9969 91.0088H97.0025ZM109.303 22.135C108.888 23.436 108.202 24.6345 107.291 25.6519C105.316 28.007 103.063 30.1136 100.581 31.9254C100.475 32.0036 100.9 42.1072 100.749 42.5097C100.54 42.9964 100.179 43.4025 99.7199 43.6671C98.1375 44.6792 89.0963 45.3445 83.9356 43.8684C83.0454 43.6374 82.228 43.1852 81.5594 42.5537C80.8907 41.9222 80.3926 41.132 80.1111 40.2564C79.755 39.0226 79.6281 37.7339 79.7365 36.4543C79.8539 33.6587 80.2956 30.5723 80.659 27.8661C80.659 27.8661 80.6143 27.8269 80.6087 27.8661C80.3907 29.1073 80.1894 30.2815 80.0104 31.534C79.25 30.8966 78.4784 30.3318 77.7739 29.6385C75.4297 27.4391 73.6827 24.6802 72.697 21.6206C72.0149 19.2387 72.2721 18.6851 73.1834 17.4383C73.4113 17.1127 73.6759 16.8144 73.9718 16.5492C75.4081 15.3197 76.9982 14.2822 78.7021 13.4628C80.6606 12.6549 82.6973 12.0516 84.7799 11.6624C84.9058 11.7889 85.0234 11.9234 85.1321 12.065C84.8078 12.5347 84.3829 13.3454 84.7183 14.0164C84.9213 14.5334 85.2861 14.9708 85.7583 15.2632V15.5372C84.7072 16.0684 80.441 18.7243 80.0049 19.0653C79.9927 19.0768 79.983 19.0907 79.9763 19.1061C79.9697 19.1215 79.9663 19.138 79.9663 19.1548C79.9663 19.1715 79.9697 19.1881 79.9763 19.2035C79.983 19.2189 79.9927 19.2328 80.0049 19.2442C81.6823 20.698 86.748 23.2309 87.3239 23.393C87.4693 23.6558 88.1179 25.0704 88.3024 25.5177C88.3024 25.5624 88.3918 25.5904 88.4198 25.5177C88.577 25.1811 88.7701 24.8624 88.9957 24.5672C89.0237 24.8412 89.1858 25.7581 89.8624 25.9482C90.5389 26.1383 91.4559 25.1375 91.5398 24.6063C91.5398 24.6511 92.138 25.5177 92.3785 25.9147C92.3871 25.9305 92.3994 25.9441 92.4142 25.9545C92.429 25.9648 92.4459 25.9716 92.4638 25.9743C92.4816 25.977 92.4999 25.9756 92.5171 25.9701C92.5343 25.9646 92.55 25.9552 92.563 25.9426C92.9432 25.4562 94.3857 23.3483 94.8274 22.8674C94.8834 22.8115 94.8275 22.7724 94.738 22.5935C94.9672 22.5935 102.325 20.4128 102.885 20.1053C102.946 20.0718 102.885 19.9767 102.834 19.9935C102.482 20.0867 102.135 20.1987 101.794 20.329C99.7366 18.6068 98.2941 17.6955 96.3539 14.9781C95.6438 13.9828 95.5264 13.6753 95.2356 13.2224C95.3045 12.6356 95.5205 12.0758 95.8636 11.5949C96.2067 11.1139 96.6658 10.7275 97.1982 10.4715C97.6063 10.7119 100.883 12.4843 104.249 14.6482C105.736 15.6043 107.788 16.963 108.722 18.277C109.103 18.8346 109.354 19.4708 109.457 20.1386C109.56 20.8063 109.511 21.4885 109.315 22.135H109.303Z" fill="black"/>
</svg>
