<svg width="113" height="113" viewBox="0 0 113 113" fill="none" xmlns="http://www.w3.org/2000/svg">
<path fill-rule="evenodd" clip-rule="evenodd" d="M28.9556 43.7623C30.0739 44.573 42.6544 43.5442 44.0131 42.9683C44.3485 42.8229 44.4212 42.0401 44.466 41.6432C45.0251 36.2308 43.9068 14.4973 42.8668 13.1945C42.2238 12.395 38.159 14.145 34.7035 18.7243C30.3591 24.5002 28.7767 31.9422 28.5083 39.2221C28.4001 40.6751 28.4999 42.1362 28.8047 43.561C28.8303 43.6435 28.8836 43.7146 28.9556 43.7623ZM28.9948 39.2389C29.2464 32.0764 30.7784 24.6567 34.9775 18.9312C38.4497 14.2065 42.2462 12.7808 42.7103 13.3399C43.7559 14.6315 44.6784 40.6703 43.7782 42.5434C42.2015 43.1472 30.5436 43.9524 29.2408 43.3821C28.9684 42.0189 28.8856 40.6247 28.9948 39.2389ZM42.8668 73.2565C42.9231 73.212 42.961 73.1483 42.9731 73.0776C43.2526 71.7077 42.8724 62.4988 42.2406 61.7104C42.2143 61.6751 42.1807 61.6458 42.1422 61.6246C42.1036 61.6034 42.0609 61.5907 42.017 61.5874C40.5688 61.4979 30.7225 62.3925 29.2743 62.5267C28.7152 62.5771 29.1737 72.0879 29.9733 73.8659C30.0131 73.9393 30.0789 73.9951 30.1578 74.0225C31.1083 74.4027 42.1064 73.9386 42.8668 73.2565ZM30.3255 73.564C29.6713 71.8866 29.0507 64.562 29.3638 62.7224C30.7728 62.633 40.4682 61.9956 41.8884 62.0459C42.386 63.5108 42.7382 71.512 42.4922 72.9322C42.4922 72.893 42.4922 72.8539 42.537 72.8819C42.7718 73.1838 33.5908 73.8603 30.7952 73.6758H30.4206C30.3255 73.6758 30.3647 73.6646 30.3255 73.564ZM43.6608 80.4693C43.5993 80.268 43.5043 80.0332 43.2918 80.022C41.838 79.9325 31.9973 80.8215 30.5436 80.9557C29.9844 81.0061 30.4373 90.5169 31.2425 92.2949C31.2605 92.3325 31.2862 92.3659 31.318 92.3929C31.3498 92.4199 31.387 92.4398 31.427 92.4515C32.3719 92.8261 43.3701 92.3732 44.1361 91.6911C44.1893 91.6439 44.2264 91.5814 44.2423 91.5121C44.5275 90.1031 44.1584 82.1523 43.6608 80.4693ZM43.8062 91.3109C44.0298 91.6072 34.9384 92.2949 32.0644 92.1048H31.7401C31.6451 92.1048 31.6115 92.0713 31.5668 91.9538C30.9238 90.1758 30.3199 82.9798 30.633 81.1626C32.0924 81.0676 41.7318 80.4357 43.1576 80.4916C43.6552 81.9566 44.0019 89.9578 43.7503 91.3724C43.767 91.3276 43.7838 91.2885 43.8062 91.3109Z" fill="black"/>
<path fill-rule="evenodd" clip-rule="evenodd" d="M108.269 92.6975C108.19 92.239 107.503 91.8308 107.061 91.5792C106.01 91.0201 104.399 90.3603 103.22 89.8571C103.438 89.4713 104.45 87.7044 104.422 87.3186C104.422 87.0167 104.075 86.7259 103.863 86.5303C101.067 84.2937 88.0672 78.926 86.647 78.0706C87.0663 75.9962 87.4186 73.7485 87.7093 71.484C88.5201 71.21 89.4314 70.8019 90.3037 70.4776C91.5673 70.2651 94.1226 69.4152 94.8494 69.2363C95.8949 68.9143 96.8932 68.4556 97.8184 67.872C100.1 66.5171 102.108 64.7478 103.74 62.6553C104.343 61.9229 105.976 61.3917 105.238 59.4291C104.858 58.4059 103.913 57.4274 103.51 56.6335C103.225 56.0743 102.907 55.4425 102.549 54.8107C102.697 54.6946 102.808 54.5369 102.867 54.3577C102.926 54.1785 102.93 53.9858 102.879 53.8043C102.677 53.2116 97.8464 47.6985 95.6099 47.4469C95.0037 47.5219 94.4173 47.7116 93.8821 48.0061C93.6473 47.3575 93.4125 46.7816 93.2895 46.5355C92.529 45.0594 91.7407 43.5721 90.8852 42.1408C91.5673 42.096 92.9596 41.9842 93.5243 41.6152C93.9269 41.3524 93.8654 41.056 93.692 40.4298C94.0443 40.3124 94.3071 40.195 94.4525 40.1335C96.3144 39.3563 96.8679 36.2196 97.0692 34.2402C97.2481 32.4734 98.1483 18.2211 98.1875 18.1093C98.7466 17.4942 99.5406 15.7106 99.9487 15.034C100.066 14.8005 100.134 14.5456 100.15 14.2848C100.16 14.1916 100.143 14.0975 100.1 14.014C100.057 13.9306 99.9911 13.8615 99.9096 13.8151C99.3505 13.5468 98.8528 13.927 98.4558 14.3743C98.5766 13.976 98.6258 13.5596 98.6012 13.1442C98.5509 12.764 98.2937 12.462 97.947 12.585C97.7645 12.6628 97.5963 12.7705 97.4494 12.9037C97.2892 13.0525 97.1517 13.2239 97.0412 13.4126C97.0412 13.0715 97.0412 12.6298 96.7561 12.4788C96.6624 12.4441 96.5611 12.4351 96.4628 12.4528C96.3644 12.4705 96.2727 12.5143 96.1969 12.5795C95.989 12.7555 95.8015 12.9543 95.6378 13.1721C95.1514 13.7313 94.9445 14.8495 94.7823 15.2801C94.2232 15.0564 93.2224 14.693 93.0211 15.2801C92.708 16.2362 94.2679 16.4766 94.1897 16.9575C93.8095 19.2946 91.9531 22.9178 90.7007 27.8438C89.9235 30.9022 90.3261 30.6394 89.9403 29.8622C89.6663 29.3031 84.2371 28.6936 83.6109 28.6321C83.6219 28.6085 83.6276 28.5827 83.6276 28.5567C83.6276 28.5306 83.6219 28.5048 83.6109 28.4812C83.2136 28.1837 82.7317 28.0211 82.2354 28.0171C81.7183 28.041 81.2207 28.2224 80.8096 28.5371C80.7481 28.5371 75.565 29.0179 72.8979 30.0747C72.8744 30.0823 72.8533 30.0958 72.8364 30.1138C72.6128 30.1138 72.3779 30.1697 72.1487 30.2033L72.1934 28.3861C73.0768 27.9612 73.9491 27.43 74.1504 26.4627C74.3246 25.5524 74.4107 24.6274 74.4076 23.7006C75.5258 23.4937 76.085 22.4705 75.3246 21.0223C75.2553 20.7292 75.118 20.4564 74.9237 20.2262C74.7294 19.996 74.4837 19.8147 74.2063 19.6972C74.4367 19.435 74.5729 19.1032 74.5931 18.7547C74.6134 18.4062 74.5166 18.061 74.3181 17.7738C74.49 17.4839 74.5412 17.138 74.4607 16.8107C74.3802 16.4834 74.1744 16.2008 73.8876 16.0237C73.7419 15.9411 73.583 15.8843 73.4179 15.856C73.3788 15.856 73.2166 15.8951 73.116 15.8951C73.1409 15.609 73.0723 15.3225 72.9203 15.0788C72.8191 14.8979 72.6758 14.744 72.5026 14.6301C72.3293 14.5163 72.1312 14.4458 71.925 14.4246H71.7237C71.7186 14.3518 71.6891 14.2828 71.6399 14.2289C71.5189 14.0976 71.3795 13.9846 71.2261 13.8934C70.9199 13.7344 70.5745 13.6665 70.2309 13.6977C70.1424 13.708 70.0598 13.7473 69.996 13.8095C69.6661 13.2504 68.464 13.3734 67.9161 13.7145C67.8912 13.6785 67.8631 13.6448 67.8322 13.6138C67.6511 13.5345 67.4521 13.5046 67.2557 13.5272C67.0592 13.5498 66.8723 13.6241 66.7139 13.7424C66.5878 13.8407 66.4717 13.9512 66.3673 14.0723C65.9905 13.9574 65.5839 13.992 65.2319 14.1691C64.88 14.3461 64.6098 14.6518 64.4774 15.0229C64.3604 14.994 64.2385 14.9916 64.1205 15.0158C64.0026 15.04 63.8914 15.0901 63.7952 15.1626C63.6295 15.2638 63.4708 15.3759 63.32 15.4981C63.2299 15.5876 63.1599 15.6951 63.1146 15.8137C63.0693 15.9323 63.0497 16.0591 63.0572 16.1859C62.7581 16.1686 62.4606 16.24 62.202 16.3912C61.9433 16.5424 61.7351 16.7666 61.6035 17.0357C61.5664 17.1203 61.5473 17.2117 61.5475 17.3041C61.5475 17.6899 61.5979 17.5054 61.3071 17.6228C60.2196 15.0525 58.7513 12.6605 56.9515 10.5274C51.6956 4.44967 46.0316 4.95289 45.5116 4.80193C43.0897 4.12744 40.5445 4.02219 38.0752 4.4944C37.0379 4.22356 35.9847 4.01814 34.9217 3.87936C23.7055 2.38648 14.9662 6.97695 9.76632 18.4839C3.83393 31.5788 4.13586 49.9966 4.95219 59.3564C5.05843 60.5753 8.30699 93.8437 8.58096 95.085C8.61451 95.2471 8.67042 95.3589 9.01708 95.4819C10.8119 96.1138 19.238 95.8342 21.1838 95.7727C21.5416 100.805 21.5137 100.604 21.5528 100.66C22.8949 101.003 24.2719 101.19 25.6569 101.219C25.8973 101.185 48.3241 97.2097 58.299 95.4037C58.5394 96.22 60.3398 102.287 60.9381 102.885C60.9994 102.943 61.0778 102.98 61.1617 102.991C61.9156 102.985 62.6661 102.891 63.3983 102.712C63.594 103.355 63.7841 104.048 63.9574 104.736C63.7841 104.87 64.1978 104.836 61.3295 106.681C60.6844 107.067 60.0695 107.5 59.4899 107.979C59.2051 108.301 58.9967 108.683 58.8805 109.097C58.8413 109.235 58.8566 109.382 58.9232 109.509C58.9898 109.636 59.1026 109.733 59.2383 109.779C60.5411 110.215 69.504 107.095 70.3818 106.206C70.7061 105.871 70.6223 105.088 70.5552 104.579C70.3619 103.391 70.1081 102.213 69.7947 101.051C70.242 100.917 72.2326 100.318 72.5904 100.011C73.0936 99.5636 72.4003 96.6561 72.2381 95.974C71.036 91.1207 68.1341 83.5724 67.7651 81.4757C68.0894 80.7712 71.1199 75.3588 71.6399 74.4865C71.6399 74.4306 71.6007 68.8617 71.6399 67.9782C71.6399 67.6092 71.6958 66.1834 71.7014 65.8647C71.6978 65.8499 71.6977 65.8345 71.7009 65.8197C71.7042 65.8048 71.7107 65.7908 71.7202 65.7789C71.7296 65.7669 71.7416 65.7573 71.7553 65.7506C71.769 65.744 71.784 65.7405 71.7992 65.7405C71.8144 65.7405 71.8295 65.744 71.8432 65.7506C71.8568 65.7573 71.8689 65.7669 71.8783 65.7789C71.8877 65.7908 71.8943 65.8048 71.8975 65.8197C71.9008 65.8345 71.9006 65.8499 71.8971 65.8647C72.1666 68.5289 72.2096 71.2112 72.0257 73.8827C72.0257 76.8964 71.9418 85.5574 73.7758 87.9504C75.6097 90.3435 96.7896 98.9709 97.6898 98.518C98.07 98.3279 99.4679 96.125 99.753 95.6776C100.966 96.0223 102.155 96.4501 103.309 96.9581C103.303 96.9838 103.303 97.0106 103.309 97.0363C103.6 97.7576 103.091 101.509 103.231 102.477C103.331 102.9 103.522 103.297 103.79 103.64C103.878 103.753 104.005 103.828 104.147 103.85C104.288 103.872 104.433 103.839 104.55 103.757C105.635 102.985 108.459 93.922 108.269 92.6975ZM49.7722 90.0025C49.0789 88.2915 48.9559 81.5037 49.1795 79.7703C49.6324 79.7032 52.1038 79.3454 54.687 78.9931C54.9162 82.1187 55.9283 86.5582 56.6943 89.6167C55.1231 89.8012 51.7739 90.1758 50.2754 90.1422H49.9344C49.8281 90.1422 49.8337 90.1534 49.7722 90.0025ZM48.5309 61.7719C50.3761 61.5091 58.1145 60.3964 59.9764 60.2734C59.8869 60.6201 59.8142 60.9611 59.7527 61.2743C59.6464 61.4972 59.5549 61.727 59.4787 61.962C59.3725 62.5658 60.0379 62.5211 60.6809 62.4876C60.6809 62.6609 60.7312 62.8398 60.7536 63.0467C59.0855 65.8021 57.5915 68.6593 56.2805 71.6014C54.6814 71.7971 51.17 72.1606 49.6045 72.1606H49.2019C48.6204 72.1214 48.2346 64.1594 48.5309 61.7719ZM62.5092 50.6563C62.452 49.9337 62.353 49.2149 62.2129 48.5037C62.2129 48.4478 61.6035 45.5794 61.5867 45.5235C61.5308 45.2775 61.2344 44.1984 61.0723 44.2263C60.9101 44.2543 61.0723 45.3446 61.1114 45.6745C61.2232 46.2727 61.3966 46.9773 61.5196 47.4749C60.7815 47.8551 57.3708 50.7234 55.4642 51.3888C54.986 51.6278 54.4884 51.8261 53.9769 51.9815C53.9154 51.9815 53.7644 51.5454 53.7421 51.4839C53.5141 50.5475 53.2208 49.6282 52.8642 48.7329C52.389 47.514 50.2419 43.041 50.5606 42.2023C51.0079 41.85 52.7412 40.8603 53.2388 40.5752C57.7958 37.9752 57.5442 38.3387 57.8517 37.9137C58.086 37.4435 58.3455 36.9862 58.6289 36.5438C60.1218 35.0342 61.9501 33.2338 64.058 32.4678C63.2585 33.9495 61.1729 37.7236 61.0611 37.9361C61.0443 37.9673 61.0361 38.0024 61.0373 38.0377C61.0384 38.0731 61.0489 38.1076 61.0676 38.1377C61.0863 38.1677 61.1126 38.1923 61.1439 38.209C61.1751 38.2256 61.2102 38.2337 61.2456 38.2324C61.4525 38.2324 62.7888 38.0926 63.0348 38.0647C61.5923 39.5855 61.0779 39.9993 61.1841 40.3292C62.1935 42.6927 63.3341 44.998 64.6004 47.2345C65.2043 49.5549 67.2395 52.7699 66.6748 55.0008C66.2498 56.77 65.6465 58.4916 64.8744 60.1392C64.6787 60.5306 64.5948 61.5147 64.36 61.7775C63.5791 61.9126 62.7871 61.9726 61.9948 61.9564C61.5811 61.9564 60.3734 62.0682 59.982 62.0123C60.0323 61.8502 60.2 61.565 60.2336 61.3917C60.9157 58.0369 61.6426 57.9866 62.7553 54.6821C63.0628 53.726 62.5428 51.6684 62.5428 50.6675L62.5092 50.6563ZM30.4542 52.4176C30.3536 52.3729 30.348 52.4176 30.4542 52.3617C31.3153 52.0709 32.6292 51.4559 33.2946 52.0709C33.658 52.4064 32.6013 53.2451 32.3329 53.8602C31.9064 53.1637 31.2372 52.6498 30.4542 52.4176ZM29.4813 52.4791C29.6175 52.5281 29.7648 52.5378 29.9063 52.5071C30.0677 52.5209 30.2272 52.5527 30.3815 52.6021C34.0438 54.2404 31.3488 57.981 28.6203 57.31C26.9932 56.9186 25.9867 54.9784 26.8646 53.6589C27.1738 53.2664 27.5731 52.9543 28.0286 52.7489C28.4841 52.5435 28.9824 52.451 29.4813 52.4791ZM33.4679 51.8641C32.5565 51.0589 30.9127 52.0374 30.0069 52.2778C29.8224 52.2421 29.6355 52.2196 29.4478 52.2107C29.062 51.9256 28.9837 51.4056 29.6323 51.0421C30.6298 50.5272 31.6746 50.1096 32.7522 49.7953C33.7891 49.5851 34.8646 49.6782 35.8498 50.0637C35.8719 50.0734 35.8957 50.0784 35.9197 50.0784C35.9438 50.0784 35.9676 50.0734 35.9896 50.0637C44.6562 45.7863 47.614 44.3382 50.2419 43.1863C50.7227 45.2999 52.5455 48.6435 53.004 50.388C47.463 51.5845 35.0391 52.5294 34.6924 53.2395C34.3458 53.9496 33.5742 54.7436 32.8193 54.4249C31.8353 54.0055 34.2899 52.6133 33.4679 51.8641ZM50.9296 41.453C50.4891 41.4772 50.0473 41.4434 49.6157 41.3524C49.6157 38.5567 46.8703 14.5644 48.0165 13.3958C48.3297 13.0827 49.2746 13.3622 49.6939 13.5244C51.103 14.0835 53.1326 15.5205 55.1902 18.3161C57.8517 21.9393 59.6633 26.5969 60.7815 30.9637C60.9812 31.8976 61.1268 32.8422 61.2176 33.7929C60.2202 34.5518 59.2854 35.3894 58.422 36.2978C58.0362 36.678 57.7399 37.7348 57.3596 37.9193C55.9898 38.6126 52.4281 40.5249 50.9296 41.453ZM64.6619 27.1057C64.7262 27.2466 64.8304 27.3656 64.9615 27.4481C65.0927 27.5306 65.2451 27.5729 65.4 27.5698L65.8584 31.5899L64.6619 32.0093C64.6049 30.32 64.4179 28.6377 64.1028 26.9771C64.2701 27.0798 64.4665 27.125 64.6619 27.1057ZM77.3654 29.1913C75.9843 31.2992 74.2398 35.5039 74.2342 35.9008C74.2342 36.46 75.7439 36.1189 76.9908 36.1413C76.3981 37.5167 74.0721 41.9674 73.3117 43.41C73.3117 40.8883 73.2502 40.4634 73.2558 39.4961C73.2558 37.4608 73.5409 36.8905 73.6751 34.5478C73.8125 33.1333 73.631 31.7061 73.1439 30.371C74.4982 29.8096 75.9158 29.4153 77.3654 29.1969V29.1913ZM66.8761 56.0296C69.3735 55.9785 71.8578 55.6541 74.2846 55.0623C74.4127 55.8912 74.4799 56.7285 74.4859 57.5672C71.7192 57.3074 68.9286 57.5077 66.2275 58.1599C66.4567 57.4833 66.6748 56.7677 66.8761 56.0408V56.0296ZM67.2004 53.6645C67.0631 52.6655 66.7923 51.6895 66.3952 50.7626C68.5311 50.6116 71.1367 50.3153 73.2949 50.0022C73.4123 50.8968 73.5633 51.7858 73.7478 52.6804C71.5834 53.1217 69.3982 53.4539 67.2004 53.6757V53.6645ZM63.7617 37.7683C63.762 37.7365 63.7554 37.7049 63.7424 37.6758C63.7295 37.6466 63.7105 37.6206 63.6866 37.5994C63.6628 37.5783 63.6347 37.5624 63.6043 37.553C63.5738 37.5435 63.5417 37.5407 63.5101 37.5447C63.5101 37.5447 62.2073 37.7348 61.5699 37.8019C61.9557 37.0303 64.058 32.9207 64.3656 32.356C64.9247 32.1491 64.7066 32.2274 65.9088 31.8471C65.1784 34.355 64.6143 36.9083 64.2202 39.4905C63.9068 41.456 63.8879 43.4573 64.1643 45.4285C63.6051 44.3102 62.0564 41.3915 61.6538 40.2509C62.2017 39.4905 63.7673 38.1541 63.7617 37.7795V37.7683ZM63.32 37.7124V37.7739C63.32 37.7739 63.2976 37.7292 63.32 37.7292V37.7124ZM64.7066 45.5403C67.1277 45.3334 70.2197 44.9252 72.842 44.4556C72.8534 44.4848 72.8705 44.5114 72.8923 44.5338C72.8923 45.4844 72.9538 46.4237 73.0265 47.3631C70.941 47.6258 67.4855 48.0228 65.3161 48.1626C65.186 47.8259 65.0741 47.4825 64.9806 47.1338C65.0533 46.9549 64.9191 46.9102 64.7066 45.5571V45.5403ZM72.7805 41.9339C67.7483 42.8005 65.5453 43.164 64.4942 43.2814C64.4496 42.2249 64.4907 41.1665 64.6172 40.1167C68.8442 39.7365 67.972 39.8595 72.7693 39.1774C72.7637 39.2612 72.7693 40.933 72.7805 41.9283V41.9339ZM85.6405 60.0665C85.7747 59.9379 85.6964 59.759 85.6405 59.5074C86.8371 62.0067 87.3179 64.78 87.8212 64.9589C88.0219 65.003 88.2299 65.003 88.4306 64.9589C88.7717 65.8983 89.9459 69.0462 90.108 69.9911C88.6095 70.5503 86.7253 71.4728 85.8027 71.2771C85.0143 69.8625 83.9072 62.3813 83.65 60.6928C83.6994 60.6934 83.7479 60.6798 83.7898 60.6536C84.6509 60.251 84.7683 60.95 85.6517 60.0609L85.6405 60.0665ZM104.556 59.2167C105.54 61.1512 103.997 61.4979 103.32 62.3478C101.726 64.3932 99.7659 66.1243 97.5389 67.4527C96.6532 68.0151 95.6985 68.4605 94.6985 68.7778C94.0834 68.9344 91.9308 69.6445 90.6168 69.9576C90.14 68.2368 89.5631 66.5453 88.8891 64.8918C90.0727 64.5253 91.2127 64.0303 92.2886 63.4157C92.3659 63.6964 92.4847 63.964 92.6409 64.2097C92.6858 64.2764 92.7435 64.3335 92.8107 64.3778C92.8778 64.4221 92.953 64.4527 93.032 64.4677C93.1111 64.4828 93.1923 64.4821 93.271 64.4656C93.3497 64.4492 93.4244 64.4173 93.4908 64.3718C93.8083 64.1509 94.1008 63.8959 94.363 63.6114C94.6258 63.3095 94.6146 63.2033 94.1338 62.2471C95.7552 61.1289 97.2537 59.8149 98.7578 58.5289C98.9301 58.8794 99.1739 59.1898 99.4735 59.4403C99.5935 59.5129 99.735 59.5414 99.8738 59.521C100.013 59.5006 100.14 59.4325 100.234 59.3285C100.492 59.0412 100.717 58.7261 100.905 58.3891C101.084 58.0425 101.045 57.9195 100.39 57.1423C101.035 56.5433 101.631 55.8946 102.174 55.2021C102.487 55.7612 102.778 56.3203 103.035 56.8795C103.387 57.5393 104.131 58.35 104.567 59.2111L104.556 59.2167ZM93.9884 63.1306C94.0275 63.2368 94.0667 63.1921 93.9436 63.3207C93.7458 63.521 93.5347 63.7078 93.3118 63.8798C92.9037 64.1594 93.1217 63.8798 91.7742 61.4867C92.1753 61.3184 92.5961 61.2019 93.0267 61.1401C93.1944 61.414 93.8542 62.7112 93.9996 63.125L93.9884 63.1306ZM100.485 58.0984C100.33 58.3855 100.152 58.6603 99.9543 58.9203C99.6692 59.2334 99.6524 58.9762 98.7354 57.858C98.0421 57.0025 98.1036 57.159 98.1763 57.0808C98.4324 56.7896 98.7279 56.5356 99.0541 56.3259C99.2498 56.5272 100.295 57.7517 100.497 58.0928L100.485 58.0984ZM95.5316 47.9166C97.5556 48.1514 102.241 53.575 102.387 53.9552C102.532 54.3354 102.073 54.5144 101.867 54.8051C101.324 55.5012 100.728 56.1537 100.083 56.7565C99.8291 56.4608 99.5483 56.1894 99.2442 55.9457C98.9926 55.8115 98.7298 56.0743 98.5118 56.3148C98.3022 56.5564 98.1151 56.8165 97.9526 57.0919C97.9526 57.1702 97.8967 57.0919 98.5118 58.0984C97.0356 59.3676 95.5316 60.6816 93.938 61.811C93.7578 61.4722 93.5503 61.1487 93.3174 60.8437C93.1105 60.6592 92.6968 60.8437 92.3389 60.9835C92.0832 61.1006 91.8349 61.2331 91.5953 61.3805C91.5058 61.4644 91.5338 61.3805 92.1544 62.974C91.422 63.399 88.7493 64.7688 88.0168 64.5843C87.5751 63.9134 86.7476 60.5642 85.5231 58.6184C85.3498 57.6511 85.0814 56.1973 84.7851 54.5814C87.9777 51.5733 94.5531 47.7936 95.5316 47.9166ZM91.3716 49.3703C90.2534 50.0637 89.0065 50.8744 87.8771 51.6963C86.3506 46.0603 86.5743 46.3398 84.4831 41.7941C85.4227 41.9849 86.3765 42.0971 87.3347 42.1296C88.9158 44.4022 90.2645 46.828 91.3605 49.3703H91.3716ZM94.5978 17.0413C94.7488 16.1523 93.2559 15.9566 93.4292 15.4198C93.5355 15.3751 93.7535 15.3639 94.6202 15.705C94.7767 15.7665 94.9165 15.828 95.0395 15.705C95.28 15.4702 95.4924 14.0276 95.9733 13.4685C96.1122 13.2563 96.2839 13.0676 96.4821 12.9093C96.5023 13.5495 96.4057 14.1881 96.1969 14.7936C96.1124 14.9545 96.0485 15.1255 96.0068 15.3024C96.0012 15.3389 96.0035 15.3761 96.0135 15.4116C96.0236 15.447 96.0411 15.4799 96.065 15.508C96.0888 15.5362 96.1185 15.5588 96.1518 15.5744C96.1852 15.5901 96.2216 15.5984 96.2585 15.5988C96.443 15.5988 96.4989 15.4422 96.5548 15.2801C96.6107 15.1179 96.6163 15.0955 96.6498 14.9781C96.9173 14.3532 97.2752 13.7711 97.7122 13.2504C97.7681 13.2057 97.9974 12.9149 98.0309 13.0323H97.9694C98.0756 13.0883 98.0644 13.4014 98.0533 13.5188C97.9457 14.2074 97.7581 14.881 97.4941 15.5261C97.4719 15.5804 97.469 15.6406 97.4857 15.6968C97.5025 15.7531 97.538 15.8019 97.5863 15.8351C97.6346 15.8684 97.6928 15.8842 97.7513 15.8799C97.8098 15.8755 97.865 15.8513 97.9079 15.8112C98.2322 15.4869 99.0541 14.0612 99.5853 14.2457C99.5805 14.428 99.5367 14.6073 99.4567 14.7713C99.0765 15.4031 98.1819 17.3433 97.7178 17.8073C97.6665 17.8799 97.6357 17.9648 97.6283 18.0534C97.6283 18.2211 97.0692 27.0554 96.9238 28.8614C96.6666 31.9031 97.058 38.663 94.3015 39.8707C94.1617 39.9378 93.9157 40.0496 93.5802 40.1726C92.954 37.964 91.1033 32.9039 90.2813 30.8127C91.3157 24.9866 94.1282 19.7755 94.5978 17.0413ZM89.5656 30.0635C89.9514 30.9302 93.1497 39.7421 93.3006 41.1287C93.2615 41.2238 92.9204 41.3412 92.8142 41.3692C90.7734 41.9674 84.3825 41.6375 84.1365 41.112C84.1128 41.0658 84.0754 41.0282 84.0295 41.0041C83.9836 40.98 83.9314 40.9707 83.88 40.9774C83.8286 40.9842 83.7805 41.0066 83.7424 41.0417C83.7042 41.0768 83.6778 41.1228 83.6668 41.1735C83.6559 41.2281 83.6583 41.2846 83.6739 41.3382C83.6895 41.3917 83.7177 41.4407 83.7563 41.481C86.1326 46.6082 85.8027 46.1441 87.4074 52.015C86.4564 52.7202 85.5472 53.4801 84.6844 54.2907C83.5662 48.2018 81.8888 39.3004 81.8049 38.635C81.5421 35.8393 81.4806 31.0867 83.281 28.9173C84.5614 29.0571 88.4362 29.5715 89.588 30.0635H89.5656ZM83.3313 28.5706C81.2234 30.494 81.2066 35.8393 81.4303 38.6797C81.5365 40.0105 85.0423 58.8476 85.1932 59.7926C84.8298 60.128 84.7236 60.0442 84.4775 60.0218C84.2231 59.9954 83.9662 60.0378 83.7339 60.1448C82.7386 57.9698 78.9869 38.1374 79.3615 34.8497C79.574 32.999 80.1107 30.3263 80.9718 28.6713C81.3074 28.4054 81.7186 28.2525 82.1464 28.2344C82.5742 28.2163 82.9968 28.334 83.3537 28.5706H83.3313ZM80.6139 28.8166C79.7876 30.725 79.2469 32.7446 79.0092 34.8105C78.5787 38.1653 81.3352 52.7028 82.4423 57.3883C80.674 58.0079 78.9623 58.7786 77.3262 59.6919C76.6665 60.0889 75.5762 61.2799 74.9611 61.4196C74.7822 61.2183 74.9108 60.1169 74.9108 59.9435C74.9108 58.6687 74.9388 57.5001 74.8493 56.3203C74.6144 53.3346 73.4682 51.7914 73.239 44.5171C73.3285 44.4164 76.8901 37.6286 77.4437 36.1972C77.505 36.0842 77.519 35.9515 77.4828 35.8282C77.3989 35.6604 77.192 35.666 76.9908 35.666C76.4316 35.666 75.0953 35.817 74.6536 35.7667C75.4245 33.5041 76.3995 31.3163 77.5667 29.2304C80.9941 28.7831 80.1107 28.8558 80.6363 28.8166H80.6139ZM72.7861 30.371C73.2837 32.2609 73.5074 32.8088 72.965 36.8737C71.9083 37.1309 70.8515 37.3881 69.6829 37.5727C68.7659 37.7236 65.5733 38.1653 64.9079 38.1318C65.4167 34.777 65.4671 35.0454 66.0597 32.3056C66.658 34.0837 67.8322 36.2811 69.7053 36.5047C71.5784 36.7284 72.5457 35.4535 72.7749 33.6308C72.8644 32.8927 72.3667 31.1538 72.1543 30.4493L72.7861 30.371ZM73.7254 26.3732C73.5465 27.1672 72.7358 27.6201 71.9977 27.9556C71.8523 28.0227 71.7293 28.0842 71.7237 28.2407C71.6642 28.9679 71.6437 29.6976 71.6622 30.4269C71.8579 31.0476 72.3891 32.9319 72.3052 33.5805C72.1151 35.0957 71.31 36.1972 69.7836 36.0127C68.0111 35.8002 66.8146 33.2673 66.3728 31.5396C66.3728 31.3272 65.892 27.4803 65.8864 27.43C66.0035 27.3533 66.0899 27.2381 66.1308 27.1042C66.1716 26.9704 66.1643 26.8265 66.1101 26.6975C66.0603 26.5975 66.021 26.4925 65.9926 26.3844C65.9926 26.2223 65.8696 25.6576 65.8137 25.4227C65.7578 25.1879 65.7019 25.1823 65.6236 25.1487C64.5053 24.7014 63.9127 23.7956 64.4159 22.6047C64.4841 22.4866 64.5835 22.3896 64.7032 22.3242C64.8228 22.2588 64.9582 22.2276 65.0944 22.2339C65.2306 22.2403 65.3624 22.284 65.4755 22.3602C65.5886 22.4364 65.6785 22.5423 65.7354 22.6662C65.8355 22.9658 65.9869 23.2458 66.1827 23.4937C66.4567 23.7789 66.7419 23.6111 66.8593 23.2812C66.9767 22.9514 66.809 22.6494 66.9599 21.5703C67.0382 21.0112 67.1556 20.5247 67.2563 19.9935C67.2954 19.809 67.1221 19.0654 67.2115 19.0039C67.6365 18.7131 67.944 19.0598 68.3745 19.3394C69.0175 19.7587 69.7276 20.1445 70.4713 19.8985C71.2959 19.7167 72.0567 19.317 72.6743 18.7411C72.9001 19.0325 73.1528 19.3021 73.4291 19.5462C73.5186 19.6077 73.5074 19.5854 73.5186 19.6245C72.4674 19.8258 72.2661 20.631 72.473 21.6765C72.1487 21.7436 71.7237 21.9673 71.4777 22.0344C71.3332 21.6412 71.0766 21.2991 70.7397 21.0503C70.4538 20.7928 70.0998 20.6232 69.72 20.5617C69.3402 20.5002 68.9507 20.5495 68.5982 20.7036C67.7707 20.9944 66.9208 22.381 67.4799 23.8404C67.5599 24.0876 67.6901 24.3157 67.8622 24.5104C68.0344 24.7051 68.2449 24.8622 68.4805 24.9719C68.7161 25.0815 68.9718 25.1414 69.2316 25.1478C69.4914 25.1542 69.7497 25.1069 69.9904 25.009C70.319 24.9138 70.6251 24.7533 70.8902 24.5372C71.1554 24.321 71.3742 24.0536 71.5336 23.7509C71.6846 23.334 71.7003 22.8801 71.5784 22.4537C71.6734 22.4537 71.83 22.4537 71.9698 22.4146C72.0634 22.7985 72.1925 23.1729 72.3556 23.5329C72.3891 23.6111 72.6016 24.1255 72.5513 24.1814C72.454 24.2833 72.3452 24.3734 72.227 24.4498C72.1543 24.489 72.0816 24.4946 72.0816 24.5784C72.0816 24.8021 72.6407 24.612 72.8196 24.4834C72.9986 24.3548 73.0545 24.0249 72.965 23.7285C72.8077 23.2287 72.5657 22.7596 72.2493 22.3419L72.568 22.1742C72.7973 22.8563 73.3061 23.6335 74.0162 23.7341C74.0011 24.6209 73.9037 25.5044 73.7254 26.3732ZM71.1646 23.5776C70.7117 24.489 69.079 25.1376 68.2683 24.3212C68.117 24.1596 67.9992 23.9695 67.9216 23.7621C67.8025 23.4752 67.7483 23.1656 67.7628 22.8553C67.7773 22.545 67.8602 22.2418 68.0055 21.9673C68.1424 21.6198 68.4006 21.3337 68.7324 21.1621C69.0276 21.0041 69.3619 20.9339 69.6958 20.9597C70.0296 20.9854 70.3491 21.1061 70.6167 21.3075C70.9041 21.5954 71.1059 21.9575 71.1997 22.3534C71.2935 22.7492 71.2755 23.1634 71.1478 23.5496L71.1646 23.5776ZM75.1289 21.1286C75.5091 22.1238 75.3805 23.0408 74.3461 23.2477C73.3117 23.4546 72.322 20.6701 73.3005 20.234C74.1672 19.7811 74.6648 20.2228 75.1121 21.1006L75.1289 21.1286ZM73.0265 15.8727C73.0265 15.8727 73.0713 15.8727 73.0824 15.9175C73.0936 15.9622 73.0042 15.8727 73.0097 15.8448L73.0265 15.8727ZM68.0447 13.8487C68.0447 13.8487 67.9887 13.8487 67.9552 13.8095C68.0223 13.7592 68.0894 13.7536 68.0279 13.8207L68.0447 13.8487ZM8.97235 95.0179C8.67601 93.771 5.48337 60.0442 5.41627 59.3117C4.6279 50.0301 4.33715 31.6906 10.2248 18.7187C15.1228 7.87156 23.1464 3.31464 33.5798 4.2372C34.4129 4.30989 35.1956 4.41613 35.9561 4.55032C18.5782 4.98644 12.2768 22.1238 10.6665 39.5464C10.0668 46.4405 10.0668 53.3737 10.6665 60.2678C10.8958 62.8957 14.0213 94.0114 14.2617 95.4931C13.5516 95.4764 9.59858 95.4372 8.97235 95.0179ZM14.463 95.4875C13.8648 91.3332 11.371 64.1762 11.0467 60.2622C9.98438 47.6482 10.7168 31.0196 15.8944 19.6077C19.5791 11.478 25.6848 5.43934 35.6374 5.07031C18.8075 10.1472 17.6948 35.9679 18.2651 53.4967C18.349 55.8283 20.306 83.6899 21.1391 95.4316C18.6342 95.4708 16.3585 95.5043 14.4574 95.4875H14.463ZM25.5338 101.051C25.2095 96.6897 22.6208 56.9354 22.5369 54.0503C21.9274 34.1284 23.7446 7.17265 43.6162 5.40579C51.9752 4.65655 57.5106 10.2143 60.8654 17.9415C60.4957 18.4184 60.3217 19.0183 60.379 19.6189C60.4247 19.7596 60.5078 19.8852 60.6194 19.9824C60.4604 20.1549 60.347 20.3644 60.2895 20.5918C60.2883 20.8635 60.3559 21.131 60.4859 21.3696C60.6159 21.6081 60.8042 21.8099 61.0331 21.9561C60.994 22.0288 60.966 22.0847 60.9549 22.1127C60.6697 23.1023 60.9549 23.4881 61.514 23.7901C61.425 24.1278 61.4554 24.4859 61.6001 24.8038C61.7448 25.1217 61.9948 25.3798 62.308 25.5345C62.4528 25.5716 62.6006 25.5959 62.7497 25.6072C62.7331 25.7484 62.7331 25.891 62.7497 26.0322C62.828 26.3565 63.1411 26.4571 63.471 26.4907C63.8563 28.3748 64.0808 30.2884 64.1419 32.2106C63.2452 32.5181 62.3991 32.9571 61.6314 33.5134C61.5367 32.6341 61.3949 31.7606 61.2065 30.8966C60.0211 26.4236 58.2151 21.8219 55.4418 18.1596C52.1709 13.8375 48.6316 12.5179 47.8488 13.3007C46.4845 14.665 49.1851 39.6358 49.1236 41.4418C49.1236 41.8724 49.8002 41.9171 50.2419 41.9395C50.1167 42.1679 50.0751 42.4329 50.1245 42.6887C45.3607 44.7799 35.9225 49.6779 35.8666 49.7114C34.8308 49.3357 33.7084 49.2677 32.6348 49.5157C31.545 49.852 30.4907 50.2939 29.4869 50.8353C28.816 51.2322 28.7656 51.7914 29.1179 52.2051C27.2112 52.2051 25.696 53.5582 26.1545 55.4481C26.2835 55.9604 26.5352 56.4338 26.8877 56.8272C27.2403 57.2207 27.6832 57.5227 28.1784 57.707C28.6735 57.8913 29.2061 57.9525 29.7301 57.8853C30.2542 57.8181 30.754 57.6245 31.1867 57.3212C31.6377 57.0468 32.0061 56.6557 32.2532 56.1892C32.5002 55.7227 32.6166 55.1981 32.5901 54.6709C33.5071 55.1853 34.5079 54.3466 35 53.4296C35.7771 53.0886 43.4428 52.3114 47.6755 51.7522C49.7499 51.4727 51.6845 51.1931 53.1214 50.8688C53.2121 51.4025 53.414 51.9112 53.7141 52.3617C54.0664 52.7195 55.207 52.015 55.6767 51.8529C57.5609 51.2155 60.7088 48.6211 61.6538 48.0284C61.8463 48.8984 61.9827 49.78 62.0619 50.6675C62.0619 51.618 62.5652 53.7316 62.3135 54.492C61.4693 57.0193 60.6362 57.981 60.1329 59.8149C58.1368 59.9491 50.3873 61.2631 48.4583 61.5986C48.4368 61.601 48.4169 61.6106 48.4016 61.6258C48.3864 61.641 48.3768 61.661 48.3744 61.6824C48.0725 63.4828 48.0333 70.8242 48.8497 72.3842C48.9615 72.6023 49.4088 72.5967 49.7834 72.5967C51.0359 72.5967 53.6638 72.3954 56.1184 72.1102C55.4482 73.6295 54.9765 75.2287 54.7149 76.8684C54.6657 77.4694 54.6657 78.0734 54.7149 78.6744C51.8522 79.1329 49.1236 79.6026 49.1236 79.6026C49.1039 79.6076 49.0861 79.6182 49.0722 79.6331C49.0583 79.6479 49.049 79.6665 49.0453 79.6865C48.7434 81.4925 48.6987 88.8283 49.515 90.3939C49.5571 90.4652 49.6253 90.5173 49.7051 90.5392C50.5047 90.8076 56.0289 90.2037 56.8732 90.1087C57.3093 91.8252 57.779 93.525 58.2319 95.0962C48.106 96.9413 26.2495 100.911 25.5338 101.051ZM69.4593 101.168C69.6046 101.873 69.7668 102.628 69.8954 103.338L64.2481 104.657C64.0692 103.981 63.8568 103.304 63.6387 102.672C65.4111 102.298 67.6868 101.7 69.4593 101.168ZM99.8257 95.4987C100.866 93.8605 102.135 91.7805 103.085 90.0975C103.879 90.4721 104.83 90.8971 105.68 91.3164L103.359 96.6394C102.209 96.1798 101.028 95.7987 99.8257 95.4987Z" fill="black"/>
<path fill-rule="evenodd" clip-rule="evenodd" d="M69.9904 22.7556C70.0038 22.7044 70.0029 22.6504 69.9878 22.5997C69.9727 22.5489 69.9441 22.5032 69.9049 22.4675C69.8658 22.4318 69.8177 22.4075 69.7657 22.3972C69.7138 22.3869 69.66 22.3909 69.6102 22.4089C69.3362 22.5152 69.4593 22.8227 69.4481 23.1246C69.4466 23.1623 69.4527 23.1998 69.4661 23.2351C69.4794 23.2703 69.4998 23.3024 69.5259 23.3296C69.552 23.3567 69.5833 23.3783 69.618 23.3931C69.6527 23.4078 69.69 23.4154 69.7276 23.4154C69.7995 23.4141 69.8682 23.3857 69.92 23.336C69.9719 23.2862 70.003 23.2187 70.0072 23.147C70.0072 23.0352 69.996 22.8786 69.9904 22.7556ZM73.7702 21.5591C73.7654 21.5224 73.7534 21.4869 73.735 21.4548C73.7165 21.4228 73.6919 21.3946 73.6626 21.372C73.6332 21.3494 73.5998 21.3329 73.564 21.3232C73.5283 21.3136 73.491 21.3111 73.4543 21.3158C73.4175 21.3206 73.3821 21.3326 73.35 21.351C73.3179 21.3695 73.2898 21.3941 73.2672 21.4234C73.2446 21.4528 73.228 21.4863 73.2184 21.522C73.2088 21.5577 73.2063 21.595 73.211 21.6318C73.2313 21.7794 73.2631 21.9252 73.3061 22.0679C73.3143 22.1065 73.3306 22.143 73.3539 22.1749C73.3773 22.2067 73.4071 22.2333 73.4415 22.2528C73.4758 22.2723 73.5139 22.2843 73.5532 22.2881C73.5926 22.2918 73.6322 22.2871 73.6696 22.2744C73.707 22.2616 73.7413 22.2411 73.7702 22.2142C73.7991 22.1873 73.8219 22.1545 73.8373 22.1181C73.8526 22.0817 73.86 22.0424 73.859 22.0029C73.8581 21.9634 73.8487 21.9246 73.8317 21.889C73.8045 21.7803 73.7839 21.6702 73.7702 21.5591ZM71.8076 26.0769C71.7517 26.0769 71.2485 25.8812 71.1982 25.9538C71.1478 26.0265 71.2485 26.4459 71.6566 26.5577C72.0648 26.6695 72.3891 26.4123 72.3723 26.3173C72.3556 26.2222 72.3612 26.239 71.8076 26.0769ZM87.6478 12.2383C88.1287 11.3381 90.0968 10.164 90.6783 10.0913C90.705 10.0913 90.7306 10.0807 90.7495 10.0618C90.7684 10.0429 90.779 10.0173 90.779 9.99062C90.779 9.96393 90.7684 9.93833 90.7495 9.91946C90.7306 9.90058 90.705 9.88998 90.6783 9.88998C89.6998 9.72783 87.7373 10.7734 87.4521 12.1712C87.4432 12.1972 87.445 12.2256 87.4571 12.2503C87.4691 12.2749 87.4905 12.2937 87.5164 12.3026C87.5424 12.3115 87.5708 12.3098 87.5954 12.2977C87.6201 12.2856 87.6389 12.2643 87.6478 12.2383ZM90.6839 13.0099C90.3462 13.1118 90.0356 13.2884 89.7753 13.5264C89.515 13.7645 89.3115 14.0581 89.1798 14.3854C88.9135 15.0215 88.8471 15.7236 88.9897 16.3983C88.995 16.4202 89.0076 16.4398 89.0253 16.4538C89.0431 16.4678 89.065 16.4754 89.0876 16.4754C89.1102 16.4754 89.1321 16.4678 89.1499 16.4538C89.1676 16.4398 89.1801 16.4202 89.1854 16.3983C89.2413 16.0292 89.3532 15.5931 89.3755 15.4925C89.4731 14.8194 89.7689 14.1906 90.2254 13.6865C90.7342 13.1274 90.8964 13.1833 90.8237 13.0435C90.8088 13.0214 90.7862 13.0057 90.7603 12.9995C90.7345 12.9933 90.7072 12.997 90.6839 13.0099Z" fill="black"/>
</svg>
