<svg width="113" height="113" viewBox="0 0 113 113" fill="none" xmlns="http://www.w3.org/2000/svg">
<path d="M27.9442 79.4904C28.1567 79.524 29.3197 79.5799 29.3197 79.3786C29.3197 79.2612 29.1072 79.2668 29.1072 79.2668C29.1351 78.3722 30.2702 78.1485 31.0809 78.6182C31.3044 78.7468 31.511 78.9027 31.696 79.0823C30.5497 79.1438 29.0289 79.9265 29.1296 81.0616C29.1873 81.3576 29.3115 81.6366 29.4925 81.8777C29.6736 82.1188 29.907 82.3158 30.1751 82.4538C30.5103 82.7047 30.892 82.8862 31.2981 82.988C31.7042 83.0897 32.1264 83.1096 32.5403 83.0465C33.2773 82.8586 33.9258 82.4196 34.3742 81.8052C35.3877 81.8375 36.3792 81.5063 37.1699 80.8715C37.2032 80.845 37.2309 80.812 37.2511 80.7746C37.2712 80.7371 37.2836 80.6958 37.2873 80.6534C37.2873 80.4577 37.2873 80.4689 36.169 79.2276C36.1374 79.1923 36.0977 79.1651 36.0533 79.1483C36.009 79.1315 35.9612 79.1256 35.9141 79.1311C35.867 79.1365 35.8219 79.1532 35.7826 79.1798C35.7433 79.2063 35.7109 79.2419 35.6882 79.2835C35.6689 79.3079 35.652 79.3341 35.6379 79.3618C35.549 79.5286 35.4055 79.6597 35.2313 79.733C35.0572 79.8063 34.8631 79.8174 34.6817 79.7644C34.1226 79.6023 33.4013 78.1206 32.0874 77.2371C30.9411 76.4655 29.4035 76.2363 28.3188 77.1533C27.852 77.554 27.52 78.089 27.3683 78.6853C27.3079 78.8691 27.3199 79.0691 27.4018 79.2444C27.5487 79.3867 27.7404 79.4737 27.9442 79.4904ZM30.0465 81.5648C29.8932 81.4553 29.7868 81.2921 29.7485 81.1076C29.7101 80.9232 29.7427 80.7311 29.8397 80.5695C30.0876 80.2269 30.4322 79.966 30.8293 79.8203C30.5089 80.3635 30.2466 80.9388 30.0465 81.5368V81.5648ZM35.3136 80.6814C35.4477 80.2788 35.3136 80.4186 35.5372 80.3179C35.7067 80.2335 35.86 80.12 35.9901 79.9825L36.4989 80.5863C36.0776 80.8535 35.6117 81.0428 35.1235 81.1455C35.1794 81.0001 35.2688 80.7764 35.3136 80.6534V80.6814ZM33.2895 79.2556C33.8207 79.921 34.2624 80.5136 35.0731 80.4465C34.9574 80.6873 34.8639 80.9381 34.7936 81.1958C34.3854 81.2237 34.3295 81.1287 34.1673 81.1958C33.8486 81.3188 33.323 82.465 32.0482 82.4594C32.1276 82.2821 32.1785 82.0934 32.1992 81.9003C32.5599 81.8274 32.8976 81.6682 33.1833 81.4362C33.3057 81.3301 33.3852 81.183 33.4069 81.0224C33.4069 80.8268 33.3398 80.5751 32.9261 80.2453C33.0802 79.9188 33.2019 79.5779 33.2895 79.2276V79.2556ZM31.4108 81.3691C30.9188 81.1063 31.7575 80.6422 32.2998 80.659C32.4244 80.6599 32.5462 80.6961 32.6511 80.7634C32.756 80.8307 32.8397 80.9263 32.8925 81.0392C32.8178 81.1595 32.7193 81.2632 32.6031 81.3441C32.4869 81.425 32.3555 81.4813 32.2167 81.5095C32.078 81.5378 31.935 81.5374 31.7964 81.5085C31.6578 81.4795 31.5266 81.4226 31.4108 81.3411V81.3691ZM32.0706 77.9472C32.4503 78.27 32.7951 78.6317 33.0994 79.0263C32.9225 79.349 32.7872 79.6928 32.6968 80.0496C32.4618 79.9821 32.2155 79.9637 31.9731 79.9954C31.7308 80.0272 31.4975 80.1084 31.2878 80.2341C30.2646 80.7932 30.505 82.0177 31.9252 81.8779C31.8418 82.0387 31.7797 82.2098 31.7407 82.3867C31.1737 82.2738 30.6435 82.0221 30.1975 81.6543C30.5939 81.0384 30.9025 80.3704 31.1145 79.6693C31.3318 79.5695 31.567 79.5141 31.8061 79.5064C32.0452 79.4987 32.2834 79.5389 32.5067 79.6246L32.6241 79.1829L32.5011 79.127C32.2383 78.9481 32.1209 78.8083 31.819 78.5679C31.931 78.3637 32.0156 78.1456 32.0706 77.9193V77.9472ZM29.9012 77.0526C30.6009 77.0654 31.2784 77.3004 31.8358 77.7236C31.7356 77.9514 31.6606 78.1895 31.6121 78.4337C31.3441 78.2233 31.0279 78.083 30.6921 78.0254C30.3563 77.9678 30.0115 77.9948 29.6887 78.1038C29.8067 77.7646 29.8781 77.411 29.9012 77.0526ZM28.6207 77.4887C28.9307 77.2475 29.3032 77.1001 29.6943 77.0638C29.5208 77.4397 29.413 77.8425 29.3756 78.2547C29.209 78.3547 29.0726 78.4979 28.9811 78.6693C28.8895 78.8406 28.8461 79.0336 28.8556 79.2276C28.4638 79.2492 28.0718 79.1902 27.7038 79.0543C27.7869 78.4332 28.1126 77.8704 28.6096 77.4887H28.6207ZM20.2673 76.555C19.2609 76.1189 17.0243 77.4105 16.6162 78.1038C16.5571 78.2567 16.5571 78.4261 16.6162 78.579C16.9684 79.9154 20.2561 84.6344 20.8656 85.3669C20.9718 85.5011 21.1172 85.3166 21.0221 85.16C20.7314 84.6792 20.7649 85.6465 22.2522 80.8323C22.39 80.7784 22.5183 80.7029 22.6324 80.6087C22.6843 80.5512 22.713 80.4765 22.713 80.399C22.713 80.3216 22.6843 80.2469 22.6324 80.1893C22.5817 80.1266 22.5235 80.0703 22.4591 80.0216L22.8114 78.7188L24.2092 79.4904C23.9265 80.197 23.7203 80.9318 23.5941 81.6822C23.0304 81.8855 22.5021 82.176 22.0286 82.5433C21.6987 82.9067 22.2187 83.5777 22.543 83.9803C22.8673 84.3828 23.1413 84.6568 23.2028 84.7183C23.2643 84.7798 23.46 84.7183 23.4432 84.6177C23.4077 84.5367 23.3606 84.4614 23.3034 84.394C23.0004 83.9225 22.7403 83.4247 22.5262 82.9067C22.9608 82.6467 23.4195 82.4295 23.8961 82.2581C24.0694 82.1966 24.6062 82.0289 24.7516 82.1183C25.4689 82.4962 26.2171 82.8124 26.9881 83.0633C27.0192 83.0781 27.055 83.08 27.0875 83.0684C27.12 83.0569 27.1466 83.0329 27.1614 83.0018C27.1762 82.9706 27.1781 82.9349 27.1666 82.9024C27.155 82.8699 27.131 82.8433 27.0999 82.8284L26.1326 82.2414C26.3385 81.7744 26.4706 81.2783 26.524 80.7708L28.9115 82.0624C29.0569 82.1463 29.1687 81.9171 29.0625 81.8555C28.9562 81.794 21.7099 77.1868 20.2673 76.555ZM19.4174 77.1477C19.6125 77.0891 19.8206 77.0891 20.0157 77.1477C20.1443 77.2036 20.4574 77.3713 20.8824 77.6062C20.739 78.0019 20.6415 78.4127 20.5916 78.8307C20.217 78.6182 19.9933 78.456 19.697 78.5064C19.5355 78.5425 19.3844 78.6152 19.2553 78.7188C19.3112 78.2827 19.3615 77.9472 19.4174 77.1477ZM17.1809 78.3777C17.7608 77.8249 18.4643 77.4185 19.2329 77.1924C18.9345 78.5113 18.7253 79.8488 18.6067 81.1958C18.0429 80.3028 17.5672 79.3572 17.1865 78.3722L17.1809 78.3777ZM19.7194 83.08C19.4118 82.5712 19.0764 82.0065 18.7577 81.453C18.9478 80.6534 19.0093 80.2844 19.1267 79.5296C19.4326 80.0602 19.7863 80.5617 20.1834 81.028C19.958 81.6938 19.8043 82.3817 19.725 83.08H19.7194ZM20.6978 84.6904C20.4966 84.3716 20.2394 83.9411 19.9039 83.3876C20.1161 82.6861 20.2566 81.9648 20.3232 81.2349C20.4462 81.5313 21.5421 81.1063 21.8385 80.9945C21.6204 81.6822 20.86 84.0753 20.7034 84.6904H20.6978ZM20.5301 81.0616C20.1836 80.4619 19.8773 79.8399 19.6131 79.1997L19.7865 79.1046C19.8647 79.1494 21.777 80.2788 21.9168 80.3683C21.481 80.6454 21.0183 80.8777 20.5357 81.0616H20.5301ZM22.2075 79.8315C21.7882 79.5519 21.2178 79.2109 20.7817 78.9592C20.9309 78.5634 21.0286 78.15 21.0725 77.7292L22.6604 78.6238C22.6324 78.8362 22.4423 79.2724 22.241 79.8315H22.2075ZM25.909 82.068L25.0479 81.548C24.6653 81.397 24.2396 81.397 23.8569 81.548C24.0736 80.8944 24.2308 80.2226 24.3266 79.5407L26.3507 80.659C26.1439 81.115 26.0063 81.5994 25.9425 82.096L25.909 82.068Z" fill="black"/>
<path d="M109.494 84.0585C108.588 75.6268 100.782 62.6605 96.1192 55.5763C98.723 55.7846 101.336 55.85 103.947 55.772C104.691 55.772 106.637 55.6378 107.011 55.5652C107.229 55.5204 107.263 55.3135 106.933 55.3024C106.603 55.2912 104.255 55.1794 103.936 55.1738H98.2495C97.3773 55.2073 96.013 55.2856 95.9347 55.2856C94.2573 52.7304 93.0887 51.1312 93.0776 51.1256C93.0647 51.1126 93.0492 51.1025 93.0321 51.0959C93.015 51.0894 92.9967 51.0865 92.9785 51.0876C92.9602 51.0887 92.9424 51.0937 92.9262 51.1022C92.91 51.1107 92.8958 51.1226 92.8845 51.137C92.8733 51.1515 92.8653 51.1682 92.861 51.186C92.8567 51.2038 92.8563 51.2223 92.8597 51.2403C92.8632 51.2582 92.8705 51.2753 92.881 51.2902C92.8916 51.3052 92.9052 51.3177 92.921 51.3269C93.1782 51.5338 104.478 68.045 107.934 79.4177C109.304 83.9299 110.114 89.5939 105.697 91.1595C95.2078 94.9057 13.0546 96.1246 5.28823 91.7186C4.2091 91.1092 3.95749 89.84 4.16996 88.129C4.49985 85.7527 5.78026 82.5377 7.32347 78.9369C9.06237 80.6143 23.488 93.8601 25.8251 93.3625C28.1623 92.8649 41.3075 86.7591 41.8499 85.5905C42.1649 84.7788 42.3316 83.9171 42.3419 83.0465C42.4081 82.9554 42.4389 82.8434 42.4286 82.7312C42.4184 82.6191 42.3677 82.5146 42.286 82.437C41.4193 81.576 24.226 67.9443 23.1189 67.9835C22.3473 68.017 20.9495 68.811 20.2841 69.2024C20.0684 68.8494 19.7472 68.5732 19.366 68.4126C18.9847 68.2521 18.5627 68.2154 18.1594 68.3078C17.7793 68.4613 17.4388 68.6991 17.1638 69.0032C16.8887 69.3073 16.6862 69.6698 16.5715 70.0634C16.5778 70.0937 16.5943 70.1208 16.6182 70.1403C16.6421 70.1598 16.6721 70.1704 16.7029 70.1704C16.7338 70.1704 16.7637 70.1598 16.7876 70.1403C16.8116 70.1208 16.828 70.0937 16.8343 70.0634C17.1706 69.4947 17.7037 69.069 18.3328 68.8669C18.5943 68.8267 18.8619 68.8616 19.1044 68.9675C19.3469 69.0735 19.5544 69.246 19.7027 69.4652L13.4851 72.1211C13.155 71.7817 12.7428 71.5332 12.2886 71.3998C11.2262 71.1202 10.5105 71.8191 10.0856 72.8423C10.0762 72.8718 10.0773 72.9035 10.0886 72.9323C10.1 72.961 10.1209 72.9849 10.1478 73C10.1747 73.0151 10.2061 73.0205 10.2365 73.0152C10.2669 73.0099 10.2946 72.9943 10.3148 72.9709C11.0305 71.9365 11.858 71.5843 12.8477 72.4118C11.6511 72.943 9.97934 73.6978 8.80517 74.2793C8.88904 74.1451 20.9551 52.2942 20.9551 52.2383C21.4863 51.2542 22.5542 49.493 23.6557 49.2637C24.1536 49.1552 24.6614 49.099 25.171 49.096C24.3938 50.382 18.0868 60.8378 18.0756 62.3139C18.0756 63.9913 18.3663 63.7285 19.2609 63.9913C20.1556 64.2541 70.2146 63.9465 70.3041 63.9465C71.1708 63.9465 74.5591 63.8347 74.8722 63.6055C75.8451 62.8898 75.627 61.8218 75.2021 60.698C75.1015 60.4296 74.5927 59.3169 73.9105 57.8296C76.846 56.9462 79.0545 58.0701 79.2558 62.8618C79.4571 67.005 77.8244 68.2686 74.6989 68.0897C72.1884 67.9443 70.4551 67.2063 69.9071 68.1848C69.2921 69.2751 70.9918 71.7241 71.7299 72.7417C71.6237 72.7417 66.9437 72.6466 65.764 72.5963C64.1015 72.5319 62.4369 72.5525 60.7765 72.6578C59.6331 72.683 58.4962 72.8387 57.3882 73.1219C56.9688 73.3288 56.4264 74.4079 56.1972 74.8608C55.7443 75.7498 53.6811 81.33 53.1108 82.9403C52.7753 83.8684 51.6403 86.9436 52.4007 87.486C52.3727 88.0843 52.4678 88.8838 52.9934 89.1634C53.519 89.443 60.7429 89.6442 61.2965 89.6554C62.275 89.6834 72.166 89.812 78.4786 89.5324C84.7912 89.2529 87.5477 88.649 87.3856 88.6658C87.5459 88.6186 87.6899 88.5277 87.8015 88.4032C87.9131 88.2788 87.9879 88.1258 88.0174 87.9613C88.1036 87.548 88.0766 87.1191 87.9391 86.72C88.6436 85.3501 83.3151 73.9774 81.839 73.1778C81.7518 73.1287 81.6539 73.1018 81.5538 73.0995C81.2575 73.0995 74.6262 72.82 72.0486 72.7361C71.4895 71.9477 69.6723 68.9787 70.3712 68.3469C71.4335 67.4188 80.307 72.0707 79.8317 62.8115C79.5857 58.6236 77.6567 56.169 73.7428 57.5892C73.4017 56.8512 70.5389 50.7343 69.7729 49.1072C72.7404 49.2847 75.7175 49.2193 78.6743 48.9115C78.7168 49.4333 78.8669 49.9407 79.1152 50.4017C79.3634 50.8626 79.7045 51.2671 80.1169 51.5897C82.3534 53.2671 91.2548 53.0155 92.8707 50.9635C93.3235 50.3443 93.6365 49.6341 93.788 48.8821C93.9396 48.1301 93.9261 47.3541 93.7485 46.6079C93.8972 46.5132 94.0126 46.3744 94.0784 46.2109C94.1679 46.0375 94.0784 45.8195 93.6926 45.7412C93.1949 45.6666 92.6916 45.6367 92.1885 45.6517C92.1885 45.1933 92.2165 44.3378 92.1885 43.3649C92.2389 43.3313 92.6023 42.8952 92.6414 42.8449C93.087 42.3242 93.4389 41.7302 93.6814 41.0892C93.8659 40.5692 93.9386 39.971 93.4522 39.6802C92.7029 39.272 92.1773 40.0213 91.9257 40.86C91.6909 39.5684 91.1486 37.6729 89.8514 37.863C87.6484 38.1985 89.1692 43.5382 89.8849 45.6517C89.2562 45.5632 88.6182 45.5632 87.9895 45.6517C88.6884 43.8961 89.0462 41.626 87.2514 41.2849C86.9793 41.2248 86.6955 41.2457 86.4352 41.345C86.1748 41.4444 85.9493 41.6179 85.7865 41.8441C85.7506 41.7175 85.6831 41.6021 85.5904 41.5088C85.4978 41.4154 85.3829 41.3471 85.2567 41.3102C85.1304 41.2733 84.9968 41.2691 84.8685 41.2979C84.7401 41.3268 84.6212 41.3877 84.5228 41.475C83.7009 42.0677 84.1706 43.4264 85.1267 43.8737C85.0764 44.4485 85.0764 45.0266 85.1267 45.6014C84.5315 45.5295 83.929 45.5427 83.3375 45.6406C83.3043 44.2753 83.1547 42.9154 82.8902 41.5757C83.2299 41.3339 83.5157 41.0242 83.7294 40.6661C83.9431 40.3081 84.08 39.9095 84.1314 39.4957C84.2097 38.7521 83.9469 38.1314 83.3263 37.9693C82.5491 37.768 82.0906 38.3103 81.9564 39.0875C81.2687 38.137 79.9212 37.7959 79.267 38.8862C77.1702 36.7056 76.1582 37.9245 76.6894 38.8862C77.0864 39.6243 78.1208 40.0381 78.9259 40.2673C78.9259 41.5198 79.4851 42.5765 80.1784 43.6556C80.6425 44.3825 81.1624 45.0814 81.565 45.5958C80.695 45.5679 79.8243 45.6241 78.9651 45.7636C78.4395 45.9034 78.3556 46.2836 78.842 46.5575C78.6882 47.2129 78.6317 47.8874 78.6743 48.5592C75.6708 48.3994 72.6594 48.4704 69.6667 48.7717C69.4766 48.3635 68.9119 47.1726 68.8448 47.0328C68.7777 46.893 69.3144 45.2715 70.0693 30.1973C73.5359 29.9066 89.1245 30.2532 90.5559 29.6997C90.6379 29.6702 90.7107 29.6195 90.7666 29.5527C90.8226 29.4859 90.8599 29.4054 90.8746 29.3195C91.3498 27.7595 91.6741 14.3515 90.8746 13.1047C90.6789 12.7971 89.98 12.7021 89.5942 12.6462C84.6123 11.9193 63.8238 12.2324 62.7558 12.7971C61.6879 13.3619 62.1408 18.8749 62.3421 19.9708C51.5452 19.6241 26.6135 20.3007 24.2652 21.1785C23.706 21.3798 23.4992 22.1458 23.3873 22.7217C22.4592 27.5135 25.0647 42.9344 25.937 47.6982C25.8811 47.6982 25.937 47.6982 25.2548 48.7605C24.6775 48.7177 24.097 48.7478 23.5271 48.85C22.2523 49.0457 21.0781 50.8069 20.4295 51.9028C20.4016 51.9588 18.7521 54.6985 18.5061 55.1458C17.1027 54.9277 10.5776 55.0116 9.7501 55.0563C8.92259 55.1011 8.0727 55.1626 7.32347 55.2185C7.18928 55.2185 7.17809 55.4757 7.32347 55.4813C8.88904 55.5763 9.46494 55.6099 10.6783 55.6267C13.6473 55.6714 18.0253 55.7944 18.165 55.7776C17.8743 56.2864 13.569 63.9465 12.9931 65.0313C10.4882 69.728 8.52001 74.0277 8.40259 74.3911C7.75263 74.6867 7.14217 75.0624 6.58541 75.5094C6.40583 76.002 6.29848 76.518 6.26671 77.0414C6.23875 77.9416 6.56305 78.1597 7.06067 78.6629C5.72541 81.5239 4.62768 84.4898 3.77857 87.5307C3.50137 88.761 3.48993 90.0363 3.74502 91.2713C3.97332 92.506 4.40005 93.6956 5.00866 94.7939C5.28204 95.0715 5.63631 95.2555 6.02069 95.3194C7.49121 95.7332 12.0481 96.2644 13.5746 96.4377C13.4595 97.1209 13.4276 97.8156 13.4795 98.5065C13.481 99.2184 13.5846 99.9264 13.787 100.609C13.7889 100.626 13.794 100.642 13.8022 100.657C13.8103 100.672 13.8213 100.685 13.8346 100.696C13.8478 100.706 13.863 100.714 13.8793 100.719C13.8956 100.724 13.9127 100.725 13.9296 100.723C13.9465 100.722 13.9629 100.716 13.9778 100.708C13.9927 100.7 14.0058 100.689 14.0165 100.676C14.0271 100.663 14.035 100.647 14.0398 100.631C14.0446 100.615 14.0461 100.598 14.0442 100.581C14.1337 99.8839 14.158 99.1801 14.1169 98.4785C14.1132 97.8031 14.0364 97.1301 13.8877 96.4713C14.6593 96.5384 15.4029 96.5943 16.0515 96.6166C15.9484 97.2692 15.9202 97.9314 15.9676 98.5904C15.9695 99.3022 16.0731 100.01 16.2752 100.693C16.2752 100.727 16.2887 100.76 16.3128 100.784C16.337 100.808 16.3697 100.821 16.4038 100.821C16.4379 100.821 16.4706 100.808 16.4947 100.784C16.5188 100.76 16.5324 100.727 16.5324 100.693C16.6248 99.996 16.651 99.292 16.6107 98.5904C16.6068 97.9374 16.5318 97.2869 16.387 96.6502C17.6339 96.6781 35.9846 98.3276 67.6762 97.7014C76.1694 97.5336 86.3792 97.1422 94.7885 96.2196C94.6775 96.8939 94.6456 97.5788 94.6935 98.2605C94.6961 98.9708 94.8016 99.6771 95.0066 100.357C95.0026 100.376 95.0029 100.395 95.0073 100.414C95.0118 100.433 95.0204 100.45 95.0324 100.465C95.0445 100.48 95.0597 100.492 95.077 100.5C95.0943 100.508 95.1132 100.512 95.1324 100.512C95.1515 100.512 95.1704 100.508 95.1877 100.5C95.205 100.492 95.2202 100.48 95.2323 100.465C95.2443 100.45 95.2529 100.433 95.2574 100.414C95.2619 100.395 95.2621 100.376 95.2582 100.357C95.3558 99.6609 95.3821 98.9565 95.3364 98.2549C95.3304 97.5642 95.2497 96.8762 95.096 96.2029C95.7167 96.1358 97.1536 95.9569 97.2766 95.9401C97.1666 96.6107 97.1365 97.292 97.1872 97.9697C97.1875 98.6817 97.2911 99.3898 97.4947 100.072C97.4984 100.106 97.5155 100.137 97.5422 100.159C97.569 100.18 97.6032 100.19 97.6373 100.187C97.6714 100.183 97.7026 100.166 97.7241 100.139C97.7456 100.112 97.7556 100.078 97.7519 100.044C97.8439 99.3492 97.8683 98.647 97.8246 97.9474C97.821 97.2584 97.7404 96.572 97.5842 95.9009C100.106 95.5599 107.816 94.5199 108.867 92.3672C110.109 89.9126 110.008 86.72 109.494 84.0585ZM58.6127 75.0565C58.6742 74.9055 60.5472 74.4974 62.5937 75.0565C62.6124 75.0525 62.6318 75.0528 62.6504 75.0573C62.669 75.0618 62.6864 75.0703 62.7013 75.0824C62.7162 75.0944 62.7282 75.1097 62.7364 75.127C62.7447 75.1442 62.7489 75.1632 62.7489 75.1823C62.7489 75.2015 62.7447 75.2204 62.7364 75.2377C62.7282 75.2549 62.7162 75.2702 62.7013 75.2822C62.6864 75.2943 62.669 75.3029 62.6504 75.3073C62.6318 75.3118 62.6124 75.3121 62.5937 75.3081C61.5746 75.4891 60.5342 75.5155 59.5073 75.3864C59.0264 75.3081 58.417 75.3025 58.5959 75.0565H58.6127ZM87.3576 88.3527C82.1857 89.3367 53.614 89.1131 53.1835 88.9118C52.7529 88.7105 52.7138 88.0619 52.7026 87.637C55.8002 88.6434 86.066 87.8662 87.749 86.9772C87.8385 87.4692 87.8608 88.2576 87.3409 88.3527H87.3576ZM76.5049 75.118C76.5049 74.9279 77.735 74.8217 77.7909 74.8161C78.5223 74.7598 79.2569 74.7598 79.9883 74.8161C80.3964 74.8608 80.9612 74.9167 80.9164 75.0901C80.8717 75.2634 80.0274 75.3361 79.882 75.3584C79.3356 75.4088 78.7869 75.4312 78.2382 75.4255C77.8692 75.4143 76.4657 75.3472 76.4881 75.118H76.5049ZM83.6897 76.9799C85.0886 79.6454 86.2631 82.4227 87.2011 85.283C87.3203 85.6443 87.3862 86.021 87.3968 86.4013C84.8751 87.1841 55.8114 87.9892 52.8704 87.1449C52.7306 87.1058 52.6914 87.1449 52.6579 86.9101C52.4454 85.3893 54.9336 79.345 55.5095 77.936C66.0882 77.5838 83.5779 77.0414 83.673 76.9799H83.6897ZM78.9818 40.0157C78.3703 39.6798 77.8155 39.2496 77.338 38.7409C77.1199 38.411 77.1702 38.1817 77.8132 38.4949C78.2158 38.6794 78.7805 39.0093 79.1608 39.2385C79.0631 39.4873 79.0028 39.7492 78.9818 40.0157ZM92.401 41.0165C92.8483 40.2114 93.29 39.9821 93.2453 40.4574C93.005 41.3079 92.6634 42.1263 92.2277 42.8952C92.1941 42.3361 92.155 41.9615 92.1103 41.5924C92.1326 41.5142 92.2444 41.2793 92.3842 41.0165H92.401ZM90.0247 45.881C90.1365 46.1997 90.2092 46.3898 90.2148 46.401C90.221 46.4168 90.2302 46.4313 90.242 46.4435C90.2538 46.4558 90.2679 46.4656 90.2835 46.4723C90.2991 46.4791 90.3159 46.4827 90.3329 46.4829C90.3499 46.4831 90.3668 46.48 90.3825 46.4737C90.6286 46.3786 90.2651 46.1494 89.6836 42.7778C89.5103 41.7714 88.9959 38.6682 90.0135 38.5228C90.841 38.3998 91.2883 40.4518 91.4449 41.2626C91.735 42.8253 91.9218 44.4055 92.004 45.9928C92.0036 46.0238 92.0144 46.0538 92.0344 46.0775C92.0544 46.1012 92.0822 46.1168 92.1128 46.1216C92.1434 46.1263 92.1747 46.1199 92.201 46.1034C92.2272 46.087 92.2466 46.0616 92.2556 46.032C92.2574 46.0003 92.2574 45.9686 92.2556 45.9369C92.7611 45.9518 93.2635 46.0212 93.7541 46.1438C93.6917 46.2167 93.6132 46.2741 93.5249 46.3115C92.3507 46.9154 88.8002 46.798 87.5757 46.7756C87.7434 46.4401 87.8609 46.1829 87.9895 45.8754C88.6576 45.9852 89.3391 45.9871 90.0079 45.881H90.0247ZM85.6635 44.6565C85.7921 43.5382 86.0772 41.7546 87.2067 41.9671C88.3361 42.1795 88.051 43.8178 87.8049 44.9137C87.6533 45.5424 87.4666 46.1621 87.2458 46.77H85.5684C85.5549 46.0646 85.581 45.359 85.6467 44.6565H85.6635ZM84.9534 42.0286C84.9794 42.0038 85.0103 41.9847 85.0441 41.9726C85.0779 41.9605 85.1139 41.9556 85.1497 41.9582C85.1855 41.9609 85.2204 41.971 85.252 41.9879C85.2837 42.0048 85.3115 42.0282 85.3336 42.0565C85.4226 42.1457 85.5031 42.243 85.574 42.3473C85.4152 42.7038 85.3042 43.0799 85.2441 43.4655C84.9534 43.063 84.5788 42.3305 84.9534 42.0286ZM83.1921 38.629C83.919 38.8583 83.3487 40.7705 82.8622 41.352C82.7278 40.7502 82.5271 40.1652 82.2639 39.6075C82.4261 39.1155 82.7001 38.4725 83.1921 38.6235V38.629ZM81.8166 45.9425C82.0906 46.2892 82.2695 46.5016 82.2695 46.5016C82.2917 46.5235 82.3212 46.5366 82.3523 46.5385C82.3834 46.5403 82.4142 46.5308 82.4388 46.5116C82.4635 46.4925 82.4803 46.465 82.4862 46.4344C82.4921 46.4037 82.4866 46.372 82.4708 46.3451C82.4708 46.3451 81.4812 44.9361 80.6648 43.4767C80.0498 42.3585 79.4627 41.2402 79.6248 40.0045C79.7534 39.0316 80.2678 38.6179 81.1345 39.1826C82.387 39.9877 82.9573 44.9528 83.1362 46.4513C83.1379 46.4905 83.1518 46.5282 83.1758 46.5593C83.1998 46.5903 83.2328 46.6131 83.2704 46.6246C83.4213 46.6246 83.399 46.4625 83.3934 46.3842C83.3878 46.3059 83.3934 45.9145 83.3934 45.8754C83.9874 45.9505 84.5886 45.9505 85.1826 45.8754C85.2162 46.2836 85.2553 46.6023 85.2833 46.77C83.2983 46.77 80.8997 46.9042 79.2558 46.2612C80.1007 46.094 80.9565 45.9875 81.8166 45.9425ZM79.1384 46.7644C79.9562 47.0814 80.8182 47.27 81.6936 47.3235C82.6833 47.413 89.4208 47.4242 90.1868 47.3851C91.3419 47.3661 92.4855 47.1525 93.5696 46.7532C93.6736 47.4398 93.6345 48.1405 93.4545 48.8112C93.2746 49.4819 92.9578 50.1081 92.524 50.6504C91.1653 52.2439 82.5715 52.6073 80.5083 51.1536C79.1496 50.2199 78.9036 48.3523 79.1384 46.7588V46.7644ZM74.6318 63.1805C74.7492 63.5552 21.436 63.5719 21.38 63.5663C19.1435 63.5663 19.7027 63.5663 18.9534 63.3818C18.7521 63.3371 18.713 63.3371 18.6738 63.1414C18.6264 62.8344 18.6133 62.5231 18.6347 62.2132C18.6464 62.2362 18.6654 62.2546 18.6886 62.2657C18.7118 62.2769 18.7381 62.28 18.7633 62.2747C18.7633 62.2747 74.615 61.5143 74.9784 61.5031C75.1294 62.1573 75.1518 62.7668 74.6318 63.1805ZM90.3602 29.2468C90.3602 29.2468 90.3937 29.1909 90.4049 29.2077C90.4161 29.2244 90.3602 29.2412 90.3322 29.2468H90.3602ZM62.5545 15.1455C62.5545 14.7821 62.6999 13.4066 63.0242 13.2389C63.7623 12.8698 87.2179 12.5567 90.4217 13.5576C90.9808 14.7317 90.8019 27.9217 90.3322 29.2468C87.5813 29.6773 73.7372 29.6438 70.1364 30.0128C70.3544 25.6124 70.4495 21.9054 70.2706 21.1841C70.2361 21.0901 70.1803 21.0053 70.1075 20.9364C70.0347 20.8675 69.947 20.8164 69.8512 20.7871C68.6267 20.256 64.0195 20.105 62.6775 20.0603C62.5034 18.4281 62.4623 16.7844 62.5545 15.1455ZM23.8906 29.2244C23.8067 28.0503 23.3929 22.1235 24.5112 21.7097C25.0703 21.514 27.0385 21.3183 29.8956 21.1506C35.3695 20.8095 43.9969 20.5355 51.8472 20.4796C53.5916 20.4796 68.3304 20.351 69.7729 21.3407C70.1979 23.2753 68.8392 44.7683 68.5372 46.8427C55.325 47.2732 39.6693 47.9218 26.3451 47.5975C26.1215 46.3171 24.4105 36.4372 23.8906 29.2244ZM26.1718 47.9721C26.1729 47.9591 26.1729 47.946 26.1718 47.933C35.5932 48.2237 65.0762 47.2565 68.6658 47.2341C69.0628 48.1567 74.6374 60.5247 74.8722 61.2124C74.8107 61.2124 18.7186 61.9728 18.6459 62.0287C19.3504 59.6692 25.1766 49.6943 26.1718 47.9721ZM41.5424 85.434C41.1286 86.2391 28.5929 91.8416 26.0153 92.6188C26.0652 92.3611 26.084 92.0983 26.0712 91.8361C29.8789 90.5165 38.1428 87.0331 41.8499 84.5673C41.7792 84.8684 41.6761 85.1608 41.5424 85.4396V85.434ZM41.9282 84.1983C40.8099 84.8581 39.7419 85.3166 26.0656 91.5341C26.0661 91.281 26.0322 91.0289 25.9649 90.7849C27.7542 89.9462 39.8873 85.2439 42.0512 83.3708C42.0232 83.6112 41.9841 83.902 41.9282 84.2039V84.1983ZM13.1273 72.7249C13.3961 73.0416 13.5625 73.4325 13.6045 73.8458C13.6464 74.2592 13.5619 74.6755 13.3621 75.0397C13.2726 75.1795 13.4851 75.3249 13.5746 75.1795C13.9121 74.8116 14.1117 74.338 14.1392 73.8394C14.1667 73.3409 14.0205 72.8482 13.7255 72.4454C16.4429 71.1985 19.1156 70.0243 19.848 69.7056C20.0313 70.0779 20.1294 70.4863 20.1352 70.9012C20.141 71.3161 20.0543 71.727 19.8816 72.1043C19.8145 72.2832 20.0158 72.3503 20.1108 72.2329C20.4183 71.8421 20.6097 71.3728 20.6631 70.8784C20.7165 70.384 20.6297 69.8846 20.4128 69.4372C21.0166 69.0962 22.4256 68.319 23.1134 68.319C23.9744 68.319 41.4473 82.5321 41.7716 82.8564C40.3123 84.3605 26.7645 89.7225 25.6239 90.2705C23.2196 89.7113 8.54797 77.0917 7.1725 75.7946C8.02797 75.0845 12.1656 73.1722 13.1273 72.7249ZM6.74756 76.0518C8.49205 77.7571 23.0463 90.4606 25.4841 90.8632C25.4352 91.0739 25.4126 91.2899 25.417 91.5062C21.5031 89.5939 10.3204 79.9098 6.61896 76.7954C6.63573 76.7954 6.7196 76.2475 6.76433 76.0518H6.74756ZM6.83143 77.9696C6.67371 77.7295 6.59547 77.4459 6.60778 77.1588C10.2645 80.8491 20.5861 89.9238 25.4114 91.8137C25.4014 92.1127 25.4315 92.4117 25.5009 92.7027C22.6325 92.0597 7.21164 78.4281 6.84821 77.9696H6.83143ZM108.593 92.1827C104.981 99.3508 6.96562 97.4777 5.37769 94.682C4.7046 93.512 4.24989 92.2294 4.03577 90.8967C4.25146 91.3691 4.61175 91.7607 5.06457 92.015C13.295 96.8067 95.1799 95.5543 105.87 91.713C108.135 90.8967 109.276 89.1354 109.533 86.6809C109.685 88.5656 109.358 90.4581 108.582 92.1827H108.593Z" fill="black"/>
<path d="M24.8689 54.1561C64.4051 54.7152 68.1793 54.3742 69.2864 54.2008C69.5492 54.1617 69.7169 54.0722 69.7057 53.7647C69.7057 52.954 67.8047 49.2357 67.3014 48.9785C67.0778 48.8611 27.0439 49.4258 26.9042 49.4706C26.8781 49.4769 26.8537 49.4886 26.8325 49.505C26.8113 49.5213 26.7938 49.542 26.7811 49.5656C26.4009 50.1863 24.5446 53.2503 24.6285 53.9436C24.6376 54.0015 24.6666 54.0544 24.7104 54.0932C24.7543 54.1319 24.8104 54.1542 24.8689 54.1561ZM27.0663 49.8564C27.4689 49.8061 66.8541 49.4147 67.0946 49.437C67.512 50.0375 67.8857 50.6672 68.2128 51.3213C67.2959 51.3213 26.3115 51.5394 26.099 51.545C26.345 51.0529 26.6693 50.4938 27.0663 49.8564ZM25.948 51.8133C26.1661 51.8133 67.6369 51.6009 68.347 51.5841C68.715 52.2692 69.0056 52.993 69.2137 53.7423C67.2232 54.061 49.0849 53.9045 25.0702 53.7423C25.2946 53.0651 25.5849 52.4115 25.9369 51.791L25.948 51.8133ZM55.7274 56.0571C55.6159 55.8103 55.4336 55.602 55.2037 55.4587C54.9738 55.3154 54.7066 55.2435 54.4358 55.252C53.0156 55.252 41.0893 54.9221 40.0158 55.3582C39.3305 56.1887 38.8002 57.1356 38.4502 58.1539C38.4167 58.3999 38.5397 58.5117 38.6907 58.5285C42.0455 58.8919 53.1666 59.2386 56.0517 58.7074C56.4095 58.6403 56.4543 58.2601 56.3816 57.8967C56.2085 57.2684 55.9898 56.6536 55.7274 56.0571ZM38.8472 58.1539C39.1684 57.2466 39.6043 56.3841 40.1444 55.5875C40.9943 55.3079 52.0483 55.8894 54.4526 55.8838C54.5957 55.8787 54.7373 55.915 54.8603 55.9884C54.9833 56.0618 55.0825 56.1692 55.1459 56.2976C55.4177 56.8783 55.6294 57.4854 55.7777 58.1092C52.9429 58.5509 40.9048 58.2993 38.8472 58.1539ZM94.5591 56.7728C93.7708 55.6881 89.8177 55.7384 88.4925 55.7776C87.3743 55.7776 83.3094 55.9621 83.3094 57.058C83.3141 57.1468 83.3398 57.2331 83.3846 57.31C83.4293 57.3868 83.4917 57.4518 83.5666 57.4997C83.6728 57.5836 82.9404 64.9529 83.9468 68.906C84.2767 70.2144 84.7016 70.863 85.9485 71.4053C88.3416 72.4453 92.3114 72.2161 93.9049 69.9963C94.2237 69.3477 94.1566 67.4578 94.1845 66.8819C96.6615 67.374 98.6911 66.3675 99.2167 63.7005C99.5466 61.9839 99.1217 60.8601 98.3892 60.178C97.8998 59.7795 97.3214 59.5054 96.7031 59.3788C96.0849 59.2522 95.4453 59.277 94.8387 59.4511C94.8175 59.4582 94.795 59.4602 94.7729 59.4568C94.7508 59.4535 94.7298 59.4448 94.7117 59.4317C94.6937 59.4186 94.679 59.4013 94.669 59.3813C94.659 59.3613 94.6539 59.3392 94.6542 59.3169C94.6542 59.0205 94.7604 57.0133 94.5591 56.7728ZM83.9356 56.8903C85.4453 56.0068 91.5957 55.9397 93.5807 56.8399C93.6477 56.8735 93.8994 57.0021 93.8994 57.058C93.8994 57.1139 93.6422 57.2481 93.5807 57.2761C92.0822 57.9526 86.7313 58.2601 83.9188 57.2313C83.7232 57.1251 83.9188 56.9126 83.9188 56.8903H83.9356ZM94.9953 60.0214C95.5034 59.875 96.0395 59.8539 96.5575 59.9601C97.0756 60.0662 97.5602 60.2964 97.9698 60.6308C98.5737 61.19 98.8756 62.1517 98.5961 63.5775C98.5405 64.0731 98.3687 64.5487 98.0947 64.9655C97.8207 65.3823 97.4523 65.7286 97.0193 65.9762C96.1023 66.3888 95.0698 66.468 94.1006 66.1998C94.053 66.1825 94.0023 66.1752 93.9518 66.1784C93.9012 66.1815 93.8518 66.1951 93.8067 66.2182C93.7616 66.2413 93.7217 66.2734 93.6895 66.3125C93.6574 66.3517 93.6336 66.3971 93.6198 66.4458C93.4688 66.8708 93.6813 68.5873 93.3738 69.672C91.9592 71.5898 88.3416 71.7632 86.2001 70.863C85.1154 70.3989 84.8135 69.918 84.5227 68.7606C83.7735 66.0153 83.7287 60.424 83.8965 57.673C85.6578 58.5061 91.7579 58.7466 94.1566 57.5165C94.1566 59.2498 93.9441 59.5405 94.3802 59.8928C94.4646 59.9564 94.5618 60.0009 94.6652 60.0231C94.7685 60.0453 94.8754 60.0447 94.9785 60.0214H94.9953ZM40.6812 71.8694C39.2127 70.624 37.6331 69.516 35.9621 68.5593C35.3184 68.1795 34.6337 67.8738 33.9213 67.648C33.323 67.4914 33.0714 67.7989 33.1944 68.2071C33.4464 68.7931 33.7796 69.3408 34.1841 69.8342C35.4706 71.4627 36.9501 72.929 38.59 74.201C41.0837 76.2865 44.3155 78.8138 46.6751 80.6086C46.7953 80.6965 46.9318 80.7594 47.0767 80.7938C47.2216 80.8282 47.3718 80.8333 47.5187 80.8088C47.6656 80.7843 47.8061 80.7308 47.932 80.6513C48.0578 80.5718 48.1666 80.4679 48.2518 80.3458C48.6656 79.8929 48.9228 79.099 48.4587 78.6684C47.9219 78.1876 44.6398 75.0956 40.6812 71.8694ZM35.3247 70.6281L34.5587 69.3925C34.8314 69.2792 35.062 69.0838 35.2184 68.8333L36.4318 69.3254C36.1273 69.3857 35.8522 69.5473 35.6512 69.7838C35.4502 70.0204 35.3352 70.3179 35.3247 70.6281ZM37.0412 72.0539C36.6371 71.7139 36.263 71.3397 35.923 70.9357C35.9621 70.2591 36.1746 69.9572 36.8511 69.9348C37.3019 70.1502 37.7275 70.4146 38.1203 70.7232C37.8197 70.7964 37.5513 70.9662 37.3564 71.2066C37.1615 71.447 37.0508 71.7446 37.0412 72.0539ZM46.6024 80.1893C45.9817 79.6693 37.7289 72.669 37.2201 72.2217C37.2628 71.9086 37.3995 71.6159 37.6122 71.3823C37.8249 71.1487 38.1034 70.9851 38.4111 70.9133C40.3401 72.3447 43.1134 74.7154 47.9499 78.7411C47.7616 78.7316 47.5735 78.7633 47.3988 78.8341C47.2242 78.905 47.0671 79.0132 46.9387 79.1512C46.8103 79.2892 46.7136 79.4537 46.6555 79.633C46.5974 79.8123 46.5793 80.0022 46.6024 80.1893ZM90.908 86.3845C91.6069 86.8597 92.0934 86.6417 92.5463 85.9819C93.6645 84.394 97.5784 77.3657 97.5784 77.3098C97.5784 77.2538 97.6232 77.3601 97.4387 75.1012C97.4307 75.0163 97.4 74.935 97.3498 74.8661C97.2996 74.7971 97.2318 74.7429 97.1535 74.7091C97.0751 74.6754 96.9891 74.6634 96.9045 74.6743C96.8199 74.6852 96.7398 74.7187 96.6726 74.7713L94.7604 76.1635C94.7604 76.1635 90.5166 84.9363 90.4719 85.0146C90.3951 85.2601 90.3958 85.5233 90.4738 85.7683C90.5518 86.0134 90.7034 86.2285 90.908 86.3845ZM96.8292 75.4534C96.8627 75.8616 96.9075 76.404 96.941 76.7786C96.5257 76.5798 96.091 76.4243 95.6439 76.3145L96.8292 75.4534ZM95.2301 76.6947C95.7147 77.0382 96.2745 77.2606 96.8627 77.3433C96.7789 77.4887 92.5071 85.283 92.4624 85.3613C92.3325 85.0971 92.1191 84.8832 91.8552 84.7528C91.5913 84.6223 91.2918 84.5827 91.0031 84.64C91.4392 83.8292 95.0735 76.9743 95.2301 76.6947Z" fill="black"/>
<path d="M92.6582 65.6071C92.5979 65.5225 92.5214 65.4508 92.4331 65.396C92.3447 65.3413 92.2464 65.3047 92.1438 65.2884C91.813 65.2 91.4768 65.1328 91.1374 65.0871C91.3275 66.4179 91.4393 67.8828 91.4337 68.0114C91.4252 68.0965 91.3834 68.1748 91.3175 68.2293C91.2515 68.2837 91.1666 68.3099 91.0815 68.3021C90.9959 68.2923 90.9175 68.2493 90.8632 68.1824C90.8089 68.1156 90.7828 68.0301 90.7907 67.9443C90.7907 67.8492 90.7572 67.4634 90.7292 65.0312C89.6109 64.8914 84.2265 64.4721 84.439 65.5456C84.439 65.6015 83.9973 68.3413 85.7082 69.6552C87.4191 70.9692 90.841 70.712 92.0376 69.3757C92.3771 68.9689 92.6011 68.4784 92.6862 67.9555C92.8182 67.1774 92.8088 66.3818 92.6582 65.6071ZM94.0001 60.547C94.0001 60.7986 93.6646 62.722 93.441 65.3052L93.7094 65.3611C94.6932 65.5699 95.7179 65.4582 96.6336 65.0424C96.953 64.8651 97.2173 64.6033 97.3978 64.2857C97.5783 63.9682 97.6679 63.6071 97.6568 63.242C97.6948 62.7881 97.6158 62.3321 97.4276 61.9174C97.2393 61.5027 96.948 61.1431 96.5814 60.8729C96.2148 60.6027 95.785 60.4309 95.3332 60.3738C94.8813 60.3168 94.4224 60.3764 94.0001 60.547ZM94.2517 60.7371C94.6086 60.6806 94.9734 60.7012 95.3216 60.7977C95.6698 60.8941 95.9933 61.0641 96.2702 61.2962C96.536 61.5401 96.742 61.8421 96.8719 62.1786C97.0019 62.5151 97.0524 62.8771 97.0194 63.2364C96.9691 64.6734 95.493 64.9473 94.0784 64.802C94.1455 63.7843 94.2014 62.6158 94.2517 60.7371ZM88.2634 27.916C88.262 28.0156 88.2802 28.1145 88.3171 28.207C88.354 28.2995 88.4089 28.3838 88.4786 28.455C88.5482 28.5262 88.6313 28.583 88.7229 28.6219C88.8146 28.6609 88.9131 28.6813 89.0127 28.682C89.1648 28.6854 89.3146 28.6433 89.4427 28.5612C89.5709 28.479 89.6717 28.3606 89.7322 28.221C89.7928 28.0813 89.8104 27.9268 89.7827 27.7771C89.7551 27.6274 89.6835 27.4894 89.5771 27.3806C89.4706 27.2718 89.3342 27.1971 89.1852 27.1662C89.0361 27.1352 88.8813 27.1494 88.7403 27.2069C88.5994 27.2643 88.4787 27.3624 88.3938 27.4888C88.3088 27.6151 88.2635 27.7638 88.2634 27.916ZM27.0664 46.3618C27.195 46.6134 27.3628 46.6414 27.469 46.5631C27.5752 46.4848 62.9851 46.1773 65.6186 46.0375C66.1849 46.0462 66.7497 45.9747 67.296 45.825C68.554 44.7068 69.0461 23.8008 68.554 22.8335C67.296 20.323 27.9219 21.9389 25.5009 22.6714C23.5719 23.2529 26.1774 44.5782 27.0664 46.3618ZM25.3946 23.5772C25.3946 23.4765 25.5176 23.0851 25.6127 23.0572C28.2909 22.252 67.1786 20.9269 68.2353 23.0292C68.3254 23.4499 68.3667 23.8795 68.3583 24.3096C68.4534 26.7474 68.3583 31.9697 68.1067 36.6497C68.0564 37.5443 67.6594 44.8745 67.0779 45.5399C64.7575 46.0319 29.001 46.1437 27.4131 46.2052C26.5073 44.1029 24.5503 27.2674 25.3946 23.5772ZM89.0854 15.5872C89.2373 15.5905 89.3868 15.5485 89.5148 15.4667C89.6428 15.3848 89.7436 15.2667 89.8043 15.1274C89.8651 14.988 89.8829 14.8338 89.8558 14.6843C89.8286 14.5348 89.7575 14.3967 89.6517 14.2877C89.5458 14.1787 89.4099 14.1036 89.2612 14.072C89.1126 14.0405 88.9579 14.0538 88.8169 14.1104C88.6758 14.167 88.5548 14.2643 88.4692 14.3898C88.3836 14.5154 88.3373 14.6636 88.3361 14.8156C88.3339 14.9156 88.3516 15.0151 88.3882 15.1083C88.4248 15.2014 88.4795 15.2864 88.5492 15.3582C88.619 15.43 88.7023 15.4872 88.7943 15.5265C88.8863 15.5658 88.9853 15.5864 89.0854 15.5872Z" fill="black"/>
<path d="M36.3367 37.6673H42.9792C43.7479 37.6643 44.484 37.3565 45.0259 36.8114C45.5679 36.2663 45.8714 35.5285 45.8699 34.7598V29.3698C45.87 28.5994 45.5667 27.8601 45.0257 27.3118C44.4847 26.7634 43.7495 26.4502 42.9792 26.4399H36.3367C35.9516 26.4384 35.5699 26.5132 35.2138 26.6599C34.8576 26.8066 34.5341 27.0224 34.2617 27.2947C33.9894 27.5671 33.7736 27.8907 33.6269 28.2468C33.4802 28.6029 33.4054 28.9846 33.4069 29.3698V34.7598C33.4083 35.1431 33.4853 35.5223 33.6333 35.8759C33.7814 36.2294 33.9976 36.5503 34.2696 36.8203C34.5417 37.0903 34.8643 37.3041 35.219 37.4494C35.5736 37.5947 35.9534 37.6687 36.3367 37.6673ZM33.8821 29.3698C33.8923 28.7235 34.1547 28.1068 34.6133 27.6513C35.0719 27.1959 35.6904 26.9377 36.3367 26.9319H42.9792C43.3056 26.9282 43.6296 26.9893 43.9323 27.1115C44.235 27.2336 44.5105 27.4146 44.7429 27.6439C44.9752 27.8731 45.1599 28.1462 45.2862 28.4472C45.4124 28.7482 45.4778 29.0713 45.4785 29.3977V34.7598C45.4771 35.0865 45.4113 35.4098 45.2849 35.7111C45.1585 36.0124 44.974 36.2859 44.7419 36.5159C44.5098 36.7459 44.2347 36.9279 43.9322 37.0516C43.6298 37.1753 43.306 37.2382 42.9792 37.2367H36.3367C36.0129 37.2353 35.6926 37.17 35.394 37.0448C35.0954 36.9195 34.8244 36.7366 34.5964 36.5066C34.3685 36.2766 34.1881 36.004 34.0656 35.7043C33.943 35.4045 33.8807 35.0836 33.8821 34.7598V29.3698ZM54.2961 41.6595C54.4079 41.9894 54.6874 41.9167 54.7657 41.7098C54.872 41.4135 55.4926 39.2832 55.5709 38.9141C56.0014 38.7799 54.7881 39.1993 58.5399 37.835C58.5788 37.8199 58.6122 37.7934 58.6358 37.759C58.6594 37.7246 58.672 37.6838 58.672 37.6421C58.672 37.6004 58.6594 37.5596 58.6358 37.5252C58.6122 37.4908 58.5788 37.4643 58.5399 37.4492L52.792 35.1512C52.7567 35.1345 52.7176 35.1273 52.6787 35.1304C52.6398 35.1335 52.6023 35.1467 52.5701 35.1688C52.5378 35.1908 52.5119 35.2209 52.495 35.2561C52.478 35.2913 52.4705 35.3303 52.4733 35.3692C52.4733 35.3692 53.9885 40.7705 54.2961 41.6595ZM53.0492 35.7495L57.8913 37.6561C57.2427 37.8965 56.1468 38.3103 55.6212 38.5227C55.3864 38.6122 55.2913 38.6513 55.2354 38.724C55.1795 38.7967 55.3752 38.3606 54.5533 40.8935L53.0492 35.7495ZM66.2447 19.3557C66.2513 19.3892 66.2694 19.4194 66.296 19.4409C66.3226 19.4623 66.3559 19.4738 66.3901 19.4731C66.5075 19.4731 70.1251 19.8198 70.8631 19.6241C71.3384 19.4955 71.4223 18.6568 71.467 18.1648C71.5229 17.4211 71.467 15.5983 71.1539 14.9777C70.7289 14.139 67.5922 14.4186 66.6808 14.5807C66.4389 14.6148 66.2077 14.7026 66.0043 14.8379C65.8858 14.9754 65.8169 15.1487 65.8086 15.33C65.8031 16.6839 65.9493 18.0343 66.2447 19.3557ZM66.4069 15.2684C67.2903 14.9945 69.8064 14.8882 70.6059 15.2684C70.8799 15.9953 71.0253 18.4946 70.6954 19.0761C70.1754 19.2103 66.9995 19.2103 66.4684 19.2159C66.4516 18.7798 66.1944 16.4258 66.4069 15.2684ZM73.7483 19.3333C73.7558 19.3664 73.7742 19.3959 73.8006 19.4172C73.827 19.4385 73.8597 19.4503 73.8936 19.4508C74.011 19.4508 77.6286 19.7974 78.3667 19.6017C78.8419 19.4731 78.9258 18.6344 78.9761 18.1424C79.0265 17.3987 78.9761 15.576 78.6574 14.9553C78.2325 14.111 75.0958 14.3962 74.1844 14.5583C73.9431 14.5947 73.7123 14.6824 73.5078 14.8155C73.3919 14.9545 73.3233 15.1269 73.3121 15.3076C73.3069 16.6616 73.4532 18.0119 73.7483 19.3333ZM73.9104 15.2461C74.7938 14.9665 77.3099 14.8659 78.1095 15.2461C78.3835 15.973 78.5288 18.4723 78.1989 19.0482C77.679 19.188 74.5031 19.188 73.9719 19.1936C73.9551 18.7574 73.6979 16.4035 73.9104 15.2461ZM81.5985 19.5794C81.605 19.6129 81.6232 19.643 81.6498 19.6645C81.6764 19.686 81.7097 19.6974 81.7438 19.6968C81.8613 19.6968 85.4788 20.0434 86.2169 19.8477C86.6922 19.7191 86.776 18.8804 86.8208 18.3884C86.8767 17.6448 86.8208 15.822 86.5077 15.2014C86.0827 14.3627 82.946 14.6422 82.0346 14.8044C81.793 14.8398 81.5622 14.9276 81.358 15.0616C81.2396 15.1991 81.1707 15.3723 81.1623 15.5536C81.1568 16.9076 81.3031 18.258 81.5985 19.5794ZM81.7606 15.4921C82.644 15.2181 85.1601 15.1119 85.9597 15.4921C86.2337 16.219 86.379 18.7183 86.0492 19.2998C85.5292 19.434 82.3533 19.434 81.8221 19.4396C81.8053 19.0034 81.5481 16.6495 81.7606 15.4921ZM73.7986 27.9328C73.8377 28.0446 73.9272 28.0558 73.944 28.0502C74.067 28.0502 77.679 28.3969 78.417 28.2012C78.8923 28.0726 78.9761 27.2339 79.0265 26.7418C79.0768 25.9982 79.0265 24.1754 78.7133 23.5604C78.2828 22.7161 75.1461 23.0012 74.2403 23.1578C73.9968 23.1925 73.7639 23.2803 73.5582 23.415C73.4411 23.5555 73.3724 23.73 73.3625 23.9126C73.3572 25.2648 73.5035 26.6132 73.7986 27.9328ZM73.9663 23.8455C74.8497 23.5716 77.3602 23.4653 78.1598 23.8455C78.4338 24.5724 78.5792 27.0717 78.2493 27.6532C77.7293 27.7874 74.559 27.7874 74.0278 27.793C74.0055 27.3569 73.7483 25.0029 73.9663 23.8455ZM86.8711 23.3311C87.7657 22.0116 88.5485 20.8206 88.5764 20.7647C88.6044 20.7088 88.1962 20.2056 87.9558 20.5634C86.2449 23.1969 86.4797 22.9453 86.3567 22.9006C85.3726 22.5428 82.1967 22.6658 81.6991 23.1298C81.3636 23.443 81.4922 24.578 81.5314 25.0644C81.1735 24.8632 80.8996 24.7178 80.7989 24.6786C80.5417 24.578 80.5585 24.8296 80.6983 24.9191L81.5705 25.4782C81.6412 26.213 81.755 26.943 81.9116 27.6644C81.9171 27.6985 81.9349 27.7293 81.9618 27.751C81.9886 27.7727 82.0225 27.7836 82.057 27.7818C82.1744 27.7818 85.792 28.1285 86.53 27.9328C87.4917 27.6644 87.1954 24.1363 86.8711 23.3311ZM82.0737 23.5604C83.389 23.2611 84.7519 23.2363 86.0771 23.4877L84.1369 26.5461C83.9412 26.4343 82.8957 25.8193 82.0234 25.3272C81.9866 24.7436 82.0034 24.1577 82.0737 23.5771V23.5604ZM86.3623 27.3625C85.8367 27.5023 82.6664 27.5023 82.1352 27.5078C82.1352 27.2842 82.0514 26.5517 82.0122 25.741L84.1369 27.0605C84.1906 27.0664 84.2449 27.0569 84.2934 27.0332C84.3419 27.0094 84.3826 26.9724 84.4109 26.9264C84.5898 26.6971 85.49 25.3887 86.407 24.0412C86.5803 25.0477 86.6362 26.8816 86.3735 27.3625H86.3623ZM64.1312 15.4026C64.2829 15.4048 64.4319 15.362 64.5592 15.2794C64.6865 15.1968 64.7864 15.0783 64.8462 14.9389C64.9061 14.7994 64.9232 14.6454 64.8954 14.4962C64.8675 14.347 64.796 14.2095 64.6899 14.101C64.5838 13.9926 64.4479 13.9181 64.2994 13.887C64.1508 13.8559 63.9964 13.8696 63.8557 13.9263C63.715 13.9831 63.5943 14.0804 63.509 14.2059C63.4236 14.3313 63.3775 14.4793 63.3764 14.631C63.3763 14.8328 63.4553 15.0266 63.5964 15.1708C63.7375 15.315 63.9295 15.3983 64.1312 15.4026Z" fill="black"/>
</svg>
