<svg width="113" height="113" viewBox="0 0 113 113" fill="none" xmlns="http://www.w3.org/2000/svg">
<path d="M54.4247 53.5691C54.6292 53.6315 54.8497 53.6146 55.0423 53.5216C55.2349 53.4287 55.3853 53.2665 55.4636 53.0675C55.542 52.8686 55.5424 52.6474 55.4649 52.4481C55.3873 52.2488 55.2375 52.0861 55.0453 51.9923C54.8723 51.9243 54.6854 51.8989 54.5005 51.9184C54.3155 51.9378 54.138 52.0016 53.983 52.1042C53.8654 52.2123 53.7807 52.3513 53.7385 52.5054C53.6963 52.6594 53.6984 52.8222 53.7445 52.9751C53.7906 53.128 53.8789 53.2649 53.9992 53.3699C54.1195 53.475 54.2669 53.544 54.4247 53.5691ZM54.106 52.708C54.106 52.2384 55.0397 52.1825 55.1292 52.708C55.3025 53.4405 54.078 53.3958 54.106 52.708ZM53.7705 17.7847C52.9094 18.7967 53.1163 20.0995 54.4694 20.7369C54.7756 20.6579 55.088 20.6055 55.4031 20.5803C55.7624 20.6039 56.1194 20.6544 56.4711 20.7313C56.8441 20.5071 57.1342 20.1677 57.2976 19.7643C57.4609 19.3609 57.4888 18.9153 57.3769 18.4948C57.2727 18.129 57.0695 17.7991 56.7897 17.5416C56.5099 17.284 56.1643 17.1088 55.7911 17.0354C55.418 16.9619 55.0318 16.993 54.6752 17.1252C54.3186 17.2574 54.0055 17.4857 53.7705 17.7847ZM53.4574 27.4912C53.4508 27.4582 53.433 27.4285 53.407 27.4072C53.381 27.3858 53.3484 27.3742 53.3148 27.3742C53.2812 27.3742 53.2486 27.3858 53.2226 27.4072C53.1966 27.4285 53.1788 27.4582 53.1722 27.4912C53.1307 27.8027 53.1064 28.1163 53.0995 28.4305C53.1142 28.4753 53.1427 28.5142 53.1808 28.5419C53.219 28.5695 53.2649 28.5843 53.312 28.5843C53.3591 28.5843 53.405 28.5695 53.4431 28.5419C53.4813 28.5142 53.5098 28.4753 53.5245 28.4305C53.5524 28.3355 53.4574 27.5862 53.4574 27.4912ZM57.8689 27.5918C57.8624 27.5588 57.8446 27.5292 57.8186 27.5078C57.7926 27.4865 57.76 27.4748 57.7263 27.4748C57.6927 27.4748 57.6601 27.4865 57.6341 27.5078C57.6081 27.5292 57.5903 27.5588 57.5838 27.5918C57.5838 27.6701 57.4887 28.4249 57.5167 28.5312C57.5314 28.5759 57.5598 28.6149 57.598 28.6425C57.6361 28.6701 57.682 28.685 57.7291 28.685C57.7762 28.685 57.8221 28.6701 57.8603 28.6425C57.8984 28.6149 57.9269 28.5759 57.9416 28.5312C57.9696 28.4249 57.8689 27.6757 57.8689 27.5918ZM53.4965 25.6516C52.8256 25.5957 52.518 26.6357 52.5068 26.6804C52.4972 26.7123 52.5006 26.7467 52.5164 26.7761C52.5321 26.8055 52.5588 26.8274 52.5907 26.837C52.6226 26.8466 52.657 26.8432 52.6864 26.8275C52.7157 26.8118 52.7376 26.785 52.7473 26.7531C52.7808 26.6693 53.1387 26.0598 53.558 26.0822C53.7705 26.0989 53.8767 25.6796 53.4965 25.6516ZM58.0367 26.8314C58.0263 26.6344 57.956 26.4452 57.835 26.2893C57.7141 26.1334 57.5484 26.0182 57.3601 25.9592C57.3038 25.9443 57.2438 25.9525 57.1935 25.9819C57.1432 26.0112 57.1066 26.0594 57.0917 26.1157C57.0769 26.1721 57.0851 26.232 57.1144 26.2823C57.1438 26.3327 57.1919 26.3693 57.2483 26.3841C57.3857 26.433 57.5088 26.5153 57.6064 26.6236C57.704 26.732 57.7731 26.863 57.8074 27.0047C57.8163 27.0351 57.8369 27.0608 57.8647 27.076C57.8925 27.0912 57.9252 27.0947 57.9556 27.0858C57.986 27.0769 58.0116 27.0563 58.0268 27.0285C58.042 27.0007 58.0456 26.968 58.0367 26.9376C58.0367 26.9376 58.0478 26.8761 58.0367 26.8314ZM55.4479 29.8004C55.4703 29.793 55.4897 29.7788 55.5035 29.7597C55.5174 29.7407 55.5248 29.7177 55.5248 29.6942C55.5248 29.6706 55.5174 29.6477 55.5035 29.6286C55.4897 29.6095 55.4703 29.5953 55.4479 29.5879C55.1907 29.5376 54.8887 29.5208 54.8887 29.2692C54.9183 28.9553 54.9668 28.6435 55.0341 28.3355C55.0372 28.3077 55.0303 28.2797 55.0146 28.2565C54.999 28.2334 54.9755 28.2166 54.9486 28.2092C54.9216 28.2018 54.8929 28.2042 54.8676 28.2161C54.8422 28.228 54.822 28.2485 54.8105 28.274C54.6714 28.6345 54.5739 29.0096 54.5197 29.3922C54.5309 29.7277 54.8887 29.9793 55.4479 29.8004ZM56.1468 30.5329C56.0237 30.6661 55.8726 30.7703 55.7044 30.838C55.5361 30.9057 55.3549 30.9351 55.1739 30.9243C55.0498 30.9035 54.9315 30.8569 54.8265 30.7876C54.7215 30.7182 54.6323 30.6276 54.5644 30.5217C54.5489 30.4928 54.5225 30.4712 54.491 30.4618C54.4595 30.4523 54.4256 30.4558 54.3967 30.4714C54.3678 30.4869 54.3462 30.5133 54.3368 30.5448C54.3274 30.5763 54.3308 30.6102 54.3464 30.6391C54.4358 30.833 54.5759 30.9991 54.752 31.1199C54.928 31.2407 55.1334 31.3117 55.3464 31.3255C55.5595 31.3392 55.7723 31.2952 55.9624 31.198C56.1525 31.1008 56.3128 30.954 56.4264 30.7733C56.499 30.5888 56.2978 30.3987 56.1468 30.5329ZM56.0853 63.7565C56.0993 63.7661 56.1158 63.7713 56.1328 63.7713C56.1498 63.7713 56.1664 63.7661 56.1803 63.7565C56.7786 63.3819 61.2796 59.8034 61.6487 59.4847C61.6609 59.4733 61.6695 59.4585 61.6733 59.4422C61.6771 59.4258 61.6759 59.4087 61.6699 59.3931C61.6639 59.3774 61.6533 59.364 61.6396 59.3544C61.6258 59.3448 61.6095 59.3396 61.5927 59.3393C61.5927 59.3393 52.3671 59.1604 50.74 59.1045C50.6449 59.1045 50.6282 59.2052 50.6785 59.2499C50.9748 59.5406 54.5477 62.5767 56.0853 63.7565ZM75.5207 106.826C75.9401 105.971 75.1573 104.534 74.805 103.952C74.7982 103.938 74.7874 103.926 74.7741 103.918C74.7607 103.91 74.7453 103.905 74.7295 103.905C74.7138 103.905 74.6984 103.91 74.685 103.918C74.6717 103.926 74.6609 103.938 74.6541 103.952C74.3689 104.512 73.7706 105.977 74.3409 106.821C74.7267 107.447 75.2188 107.492 75.5207 106.826ZM41.4696 100.816C41.4137 100.849 37.3208 103.203 37.1643 103.444C37.0077 103.684 37.0133 103.863 37.2258 103.88C38.9032 103.986 39.5462 104.126 39.6133 104.204C39.7195 104.579 39.8369 106.1 40.0606 106.401C40.0844 106.439 40.1185 106.468 40.1587 106.487C40.199 106.505 40.2436 106.511 40.2874 106.505C40.3311 106.498 40.372 106.479 40.4052 106.45C40.4383 106.421 40.4624 106.383 40.4743 106.34C40.7092 105.457 41.4472 102.706 41.5926 102.253C41.738 101.8 41.984 100.631 41.4696 100.816ZM41.3913 101.341C41.3354 101.71 41.067 102.778 40.273 105.507C40.2074 104.938 40.0876 104.376 39.9152 103.829C39.2461 103.629 38.5552 103.511 37.8576 103.477C39.0094 102.762 40.2171 102.074 41.3745 101.341H41.3913ZM44.3603 103.125C44.4063 103.121 44.4494 103.101 44.4824 103.068C44.5153 103.036 44.5362 102.993 44.5414 102.947C44.5467 102.902 44.536 102.855 44.5112 102.816C44.4863 102.777 44.4488 102.748 44.405 102.734C44.1982 102.673 43.9829 102.647 43.7676 102.655V101.845C43.7676 101.806 43.7523 101.769 43.725 101.742C43.6978 101.715 43.6608 101.699 43.6222 101.699C43.5837 101.699 43.5467 101.715 43.5194 101.742C43.4922 101.769 43.4769 101.806 43.4769 101.845C43.4769 102.135 43.4265 102.404 43.4042 102.678C43.1414 102.678 42.8786 102.728 42.6046 102.767C42.3306 102.806 42.4481 103.119 42.6493 103.103C42.8858 103.089 43.1229 103.089 43.3594 103.103C43.3594 103.349 43.3091 103.611 43.2979 103.863C43.3068 103.921 43.3362 103.974 43.3808 104.013C43.4254 104.051 43.4823 104.072 43.5412 104.072C43.6 104.072 43.6569 104.051 43.7015 104.013C43.7461 103.974 43.7755 103.921 43.7844 103.863V103.119C43.976 103.134 44.1684 103.135 44.3603 103.125ZM57.8298 100.067C57.7819 99.9257 57.6929 99.8025 57.5743 99.7128C57.4557 99.6231 57.3129 99.571 57.1644 99.5633C56.65 99.5633 56.1692 100.195 55.761 100.782H55.7219C55.3249 100.503 55.2019 100.503 54.8328 100.894C54.3408 101.425 54.5477 101.52 55.1851 102.012C54.7546 102.611 53.6698 104.154 53.5077 104.433C53.3455 104.713 52.8703 105.501 53.3959 105.937C53.5038 106.015 53.6343 106.054 53.7669 106.049C53.8995 106.044 54.0266 105.995 54.1283 105.909C54.9404 104.925 55.6875 103.888 56.3649 102.806C56.924 103.142 56.9687 103.209 57.4048 102.851C57.4681 102.81 57.5212 102.754 57.5599 102.69C57.5987 102.625 57.6221 102.552 57.6285 102.476C57.6285 102.202 57.2986 102.012 57.0694 101.828C57.2651 101.543 57.4384 101.269 57.5949 100.984C57.6988 100.857 57.7736 100.71 57.8142 100.551C57.8547 100.393 57.8601 100.227 57.8298 100.067ZM56.0629 100.989C56.2481 100.739 56.4459 100.498 56.6556 100.268C56.9296 99.9715 57.1309 99.8988 57.3154 100.027C57.6285 100.234 57.4552 100.419 56.8122 101.587L56.0629 100.989ZM53.6866 105.652C53.3679 105.58 53.5748 105.093 53.7258 104.802C53.8767 104.512 55.0118 102.868 55.4479 102.202C55.6212 102.325 55.912 102.516 56.0517 102.599C55.6715 103.248 54.5924 104.836 54.3743 105.082C54.1563 105.328 53.955 105.714 53.6866 105.652ZM55.2801 100.911L55.3696 100.944C55.4591 100.978 57.2818 102.465 57.2818 102.499C57.2005 102.619 57.0936 102.721 56.9687 102.795C56.7563 102.627 55.4367 101.733 54.9447 101.347C55.0472 101.195 55.1592 101.049 55.2801 100.911ZM67.6146 103.701C67.6146 103.701 70.1531 106.424 70.3767 106.497C70.7513 106.597 72.7754 104.26 73.0438 103.947C73.3066 104.171 73.4408 104.21 73.7371 103.913C73.9204 103.722 74.0731 103.503 74.19 103.265C74.2095 103.228 74.2168 103.186 74.2108 103.145C74.2047 103.103 74.1857 103.065 74.1564 103.036C71.3105 100.15 70.8016 99.6136 70.6842 99.5689C70.3152 99.4123 70.1251 99.8652 69.907 100.027C69.6051 100.318 69.443 100.408 69.9406 100.967C67.6705 103.427 67.4916 103.41 67.6146 103.701ZM70.0077 100.419C70.1566 100.247 70.3234 100.091 70.5053 99.9547C70.5053 99.9547 72.1827 101.632 73.7706 103.198C73.6691 103.387 73.5452 103.563 73.4016 103.723C73.3401 103.662 70.0971 100.514 69.9853 100.419H70.0077ZM72.8033 103.69C70.3655 106.273 70.6115 106.172 70.3543 105.926C70.2034 105.798 68.3303 103.869 68.0451 103.539C68.2464 103.315 70.1027 101.302 70.2257 101.19C70.1978 101.213 72.4008 103.343 72.781 103.69H72.8033Z" fill="black"/>
<path d="M69.8511 102.51C69.292 103.103 68.8558 103.276 68.9174 103.595C69.1904 103.999 69.5053 104.374 69.8567 104.713C69.8781 104.73 69.9048 104.74 69.9325 104.741C69.9602 104.741 69.9872 104.732 70.0092 104.715C70.0311 104.699 70.0468 104.675 70.0536 104.648C70.0605 104.621 70.0581 104.593 70.0468 104.568C70.0468 104.568 69.6051 103.813 69.415 103.561C69.4597 103.505 69.935 102.868 70.0636 102.722C70.0918 102.694 70.1076 102.656 70.1076 102.616C70.1076 102.576 70.0918 102.538 70.0636 102.51C70.0354 102.482 69.9972 102.466 69.9573 102.466C69.9175 102.466 69.8793 102.482 69.8511 102.51Z" fill="black"/>
<path d="M78.1039 109.37L64.394 109.281C64.394 108.325 64.0865 100.385 64.0641 99.7087C64.0641 99.5018 63.7342 99.5018 63.7454 99.7087C63.7454 100.268 63.9467 108.755 63.9746 109.275H49.0514C49.0514 108.37 48.906 101.263 48.8948 100.777C48.8948 100.737 48.8789 100.698 48.8506 100.67C48.8223 100.642 48.7839 100.626 48.7439 100.626C48.7038 100.626 48.6654 100.642 48.6371 100.67C48.6088 100.698 48.5929 100.737 48.5929 100.777V109.275C47.4299 109.275 35.1737 109.275 33.4963 109.398C33.4606 109.405 33.4283 109.424 33.4051 109.452C33.3819 109.481 33.3692 109.516 33.3692 109.552C33.3692 109.589 33.3819 109.624 33.4051 109.652C33.4283 109.68 33.4606 109.699 33.4963 109.706C34.9892 109.773 76.762 109.851 78.1319 109.533C78.15 109.526 78.1651 109.513 78.1747 109.496C78.1843 109.479 78.1878 109.459 78.1845 109.44C78.1812 109.421 78.1713 109.404 78.1566 109.391C78.142 109.378 78.1233 109.371 78.1039 109.37ZM37.8911 8.4807C38.0197 8.70435 39.3281 8.77704 39.4455 8.73231C39.5227 8.70523 39.5893 8.65432 39.6356 8.58693C40.0791 8.95686 40.544 9.30039 41.0279 9.61574C41.0969 9.67152 41.1768 9.71227 41.2625 9.73537C41.3482 9.75848 41.4378 9.76344 41.5255 9.74993C41.7603 9.68283 46.1719 7.05491 46.239 7.01018C46.5297 6.83126 46.5353 6.65234 46.4962 6.53492C46.4123 6.30568 41.9057 4.19216 41.1844 3.40378C41.1635 3.38865 41.1398 3.3778 41.1147 3.37186C41.0896 3.36592 41.0636 3.365 41.0381 3.36916C41.0127 3.37331 40.9883 3.38247 40.9664 3.39608C40.9444 3.4097 40.9254 3.42752 40.9104 3.44851C40.3513 4.09151 39.8537 4.75129 39.3449 5.40547C38.8326 5.38969 38.3206 5.44616 37.824 5.57321C37.7692 6.54262 37.7917 7.51485 37.8911 8.4807ZM41.7324 6.8033C41.6753 6.95946 41.5669 7.09156 41.4248 7.17792C41.1453 7.27297 40.8657 7.01018 40.7707 6.89276C40.4631 6.53492 41.162 5.7745 41.6261 6.37277C41.6841 6.43332 41.7246 6.50844 41.7433 6.59015C41.762 6.67186 41.7582 6.75711 41.7324 6.83685V6.8033ZM41.3298 5.76891C41.1624 5.73951 40.9902 5.75718 40.8324 5.81994C40.6745 5.88271 40.5371 5.9881 40.4357 6.12437C40.3342 6.26064 40.2726 6.42242 40.2577 6.59167C40.2428 6.76092 40.2752 6.93097 40.3513 7.08287C40.4654 7.27066 40.6324 7.42066 40.8313 7.51414C41.0301 7.60761 41.2522 7.64042 41.4696 7.60845C41.6197 7.55368 41.7531 7.46108 41.857 7.33962C41.9608 7.21815 42.0315 7.07194 42.0622 6.91513C42.6773 6.91513 44.7908 6.91513 45.6351 6.87599L41.4696 9.30262C41.2347 9.20198 39.8593 8.18436 39.6915 8.05017C39.6915 7.74264 39.6915 5.9031 39.6524 5.60676C40.1221 5.04763 40.6029 4.44936 41.0614 3.85109C41.7435 4.41022 44.8915 6.08761 45.814 6.57406H42.079C42.0547 6.3816 41.9684 6.20227 41.8333 6.0631C41.6982 5.92392 41.5214 5.83245 41.3298 5.80246V5.76891ZM38.1986 5.86955L39.233 5.83041C39.233 6.00374 39.3001 8.06694 39.2722 8.35769C38.9192 8.38096 38.5646 8.36408 38.2154 8.30737C38.249 7.92157 38.221 6.33922 38.1986 5.9031V5.86955ZM20.6922 35.2631C20.7509 35.297 20.8174 35.3148 20.8851 35.3148C20.9528 35.3148 21.0194 35.297 21.078 35.2631C21.5197 35.0451 22.3976 34.2791 24.9584 32.5849C25.0336 32.5441 25.0983 32.4865 25.1478 32.4167C25.1972 32.347 25.23 32.2668 25.2436 32.1823C25.2436 32.1823 25.3386 29.7948 25.2044 29.7165C24.7739 29.4482 23.527 28.5983 23.1692 28.6542C23.1244 28.6542 18.4054 31.5952 18.3942 31.735C18.3475 32.3452 18.3381 32.9576 18.3662 33.569C19.1038 34.1838 19.8808 34.7497 20.6922 35.2631ZM18.7073 32.1208C19.1378 32.4116 20.34 33.2391 20.6699 33.4068V34.6816C18.5787 33.2838 18.7129 33.5186 18.7297 33.1049C18.7353 32.8756 18.7185 32.3389 18.7073 32.1208ZM20.8991 32.9427C20.8635 32.9691 20.8204 32.9833 20.7761 32.9833C20.7318 32.9833 20.6887 32.9691 20.6531 32.9427C20.5636 32.8868 19.3112 31.9922 18.9757 31.7518C23.3705 28.9561 23.2139 28.9226 23.4487 29.0064C23.5606 29.0512 24.0862 29.3866 24.7963 29.8563C23.9576 30.572 20.983 32.8868 20.8991 32.9427ZM24.813 32.1991C24.6956 32.3109 21.6707 34.3182 20.9997 34.7543V33.3565C21.3967 33.0546 24.0191 30.997 24.8354 30.298C24.8578 32.1432 24.8913 32.1432 24.841 32.1991H24.813ZM82.6664 35.6042C83.7106 35.5798 84.7265 35.2599 85.5963 34.6816C86.0301 34.4083 86.3569 33.9941 86.5218 33.5086C86.6867 33.0231 86.6797 32.4956 86.5021 32.0146C86.8711 31.735 88.0509 30.7342 88.2801 30.5161C88.7554 30.5441 89.3089 29.6998 89.6053 29.2413C89.7283 29.0512 89.8904 28.8555 89.8065 28.6374C89.0517 27.8385 88.2528 27.0825 87.4135 26.3729C87.3573 26.3136 87.2845 26.2727 87.2046 26.2557C87.1247 26.2387 87.0415 26.2465 86.9661 26.2779C86.4093 26.8178 85.9074 27.4115 85.4677 28.0503C85.4484 28.1331 85.4583 28.22 85.4956 28.2963C85.4956 28.3355 84.7184 30.5888 84.6234 30.8628C84.2049 30.905 83.8164 31.0989 83.5311 31.4079C83.2458 31.7169 83.0834 32.1197 83.0746 32.5402C83.0075 34.1728 84.2991 34.6984 82.6161 35.3023C82.5928 35.3223 82.575 35.348 82.5645 35.377C82.554 35.4059 82.5511 35.4371 82.5562 35.4674C82.5612 35.4978 82.5741 35.5263 82.5934 35.5503C82.6127 35.5742 82.6378 35.5928 82.6664 35.6042ZM85.8982 28.151C86.2615 27.6173 86.6898 27.1309 87.173 26.7028C87.475 26.9432 89.2195 28.5535 89.4096 28.8163C89.2698 29.0568 88.487 30.0744 88.2913 30.0967C88.2745 30.08 85.9709 28.2181 85.8982 28.151ZM86.3008 31.6511C86.0157 31.2333 85.578 30.9442 85.0819 30.846C85.1937 30.4714 85.6019 29.1015 85.7416 28.548C86.1666 28.9114 87.2178 29.7948 87.8608 30.3036C87.6092 30.5552 86.6586 31.366 86.3008 31.6511ZM83.561 35.1625C83.9972 34.7655 83.8909 34.2455 83.6896 33.7479C83.3318 32.6296 83.438 31.9083 84.0363 31.5114C84.1907 31.4134 84.3631 31.3472 84.5434 31.3167C84.7237 31.2862 84.9083 31.2919 85.0863 31.3336C85.2644 31.3752 85.4323 31.4519 85.5804 31.5593C85.7284 31.6666 85.8536 31.8024 85.9485 31.9587C86.832 33.3509 85.1769 34.8438 83.561 35.1625ZM47.7095 6.8033C47.9387 6.8033 49.2806 6.62997 50.5051 6.50137C50.5481 6.50137 50.5894 6.48429 50.6198 6.45388C50.6502 6.42347 50.6673 6.38223 50.6673 6.33922C50.6673 6.29622 50.6502 6.25498 50.6198 6.22457C50.5894 6.19416 50.5481 6.17707 50.5051 6.17707C50.0467 6.22181 47.894 6.35041 47.6592 6.40073C47.6138 6.41586 47.5751 6.44623 47.5496 6.48669C47.5241 6.52715 47.5134 6.57519 47.5193 6.62264C47.5253 6.67009 47.5475 6.71402 47.5821 6.74696C47.6168 6.77989 47.6618 6.7998 47.7095 6.8033ZM52.0931 6.44546C52.244 6.44546 55.213 6.19944 55.8672 6.23299C56.0853 6.23299 56.1021 5.91428 55.8672 5.89751C54.5893 5.83519 53.3084 5.87633 52.0372 6.02052C51.9889 6.03636 51.9476 6.06857 51.9205 6.1116C51.8935 6.15463 51.8823 6.20577 51.8889 6.25618C51.8955 6.30658 51.9196 6.35308 51.9568 6.38764C51.9941 6.42221 52.0423 6.44266 52.0931 6.44546ZM57.5502 6.12675L59.9601 6.05966C60 6.0524 60.0361 6.03135 60.0621 6.00018C60.0881 5.96902 60.1024 5.92971 60.1024 5.88912C60.1024 5.84853 60.0881 5.80922 60.0621 5.77806C60.0361 5.7469 60 5.72585 59.9601 5.71859L57.5614 5.65149C57.5044 5.65879 57.4518 5.6863 57.4133 5.72901C57.3748 5.77173 57.3529 5.82683 57.3516 5.88432C57.3502 5.9418 57.3695 5.99787 57.4059 6.04235C57.4424 6.08683 57.4936 6.11678 57.5502 6.12675ZM61.8779 6.20503C62.9067 6.20503 66.6193 6.37836 67.5251 6.53492C67.7488 6.57965 67.8271 6.23299 67.6034 6.19385C65.7066 5.90541 63.7909 5.75962 61.8723 5.75773C61.813 5.75847 61.7564 5.78274 61.715 5.82521C61.6736 5.86768 61.6507 5.92486 61.6514 5.98417C61.6522 6.04349 61.6765 6.10008 61.7189 6.1415C61.7614 6.18292 61.8186 6.20577 61.8779 6.20503ZM69.3311 7.17233C70.8114 7.61014 72.1791 8.36363 73.3401 9.3809C73.519 9.54305 73.7706 9.28026 73.5973 9.11811C72.4245 7.99462 70.9972 7.17163 69.4374 6.71943C69.3809 6.71422 69.3245 6.72959 69.2785 6.76271C69.2325 6.79583 69.2001 6.84446 69.1871 6.89964C69.1742 6.95482 69.1816 7.01282 69.2081 7.06294C69.2346 7.11305 69.2783 7.15191 69.3311 7.17233ZM74.2906 14.6312C74.2443 14.6425 74.2037 14.6703 74.1764 14.7095C74.1492 14.7486 74.1372 14.7964 74.1427 14.8438C74.1481 14.8912 74.1708 14.9349 74.2062 14.9668C74.2417 14.9987 74.2876 15.0165 74.3354 15.017C75.0734 15.017 75.9401 14.1559 76.0128 12.9649C76.0854 11.774 75.2691 10.8179 74.4863 10.0183C74.453 9.98421 74.4074 9.96475 74.3597 9.96423C74.312 9.9637 74.266 9.98215 74.2319 10.0155C74.1978 10.0489 74.1784 10.0944 74.1778 10.1421C74.1773 10.1899 74.1958 10.2358 74.2291 10.2699C75.1125 11.1869 75.5431 12.0256 75.5487 12.8419C75.5635 13.2367 75.4485 13.6255 75.2213 13.9486C74.9941 14.2718 74.6672 14.5116 74.2906 14.6312ZM68.1905 16.4483C68.7496 16.4483 72.4343 15.604 73.0438 15.4587C73.0864 15.4446 73.1222 15.415 73.1441 15.3757C73.1659 15.3364 73.1722 15.2904 73.1616 15.2467C73.151 15.203 73.1244 15.1649 73.0871 15.1399C73.0497 15.115 73.0043 15.105 72.9599 15.112C72.1268 15.3021 69.1857 15.8165 68.1514 15.9954C68.097 16.0074 68.0489 16.0387 68.016 16.0835C67.983 16.1284 67.9675 16.1836 67.9723 16.2391C67.9771 16.2945 68.0018 16.3463 68.042 16.3848C68.0821 16.4233 68.1349 16.4459 68.1905 16.4483ZM66.6752 16.0793C65.4843 16.2079 64.2374 16.3197 63.0353 16.4987C62.9848 16.5138 62.941 16.5459 62.9114 16.5895C62.8817 16.6332 62.8681 16.6857 62.8727 16.7382C62.8773 16.7908 62.8999 16.8402 62.9366 16.878C62.9734 16.9158 63.022 16.9398 63.0744 16.946C63.4155 16.946 66.1441 16.5881 66.692 16.521C66.9772 16.4819 66.9604 16.0402 66.6752 16.0793ZM58.2435 17.5107C58.5678 17.5107 60.8044 17.1472 61.3244 17.0746C61.368 17.0636 61.4061 17.037 61.4315 16.9999C61.4569 16.9628 61.4679 16.9177 61.4624 16.8731C61.4569 16.8285 61.4353 16.7874 61.4016 16.7575C61.368 16.7277 61.3246 16.7112 61.2796 16.7111C60.5975 16.7894 58.8698 16.9404 58.1988 17.0578C58.1442 17.07 58.0959 17.1018 58.0631 17.1472C58.0303 17.1925 58.0152 17.2483 58.0207 17.304C58.0262 17.3597 58.0519 17.4115 58.093 17.4496C58.134 17.4877 58.1876 17.5094 58.2435 17.5107ZM48.9116 18.3158C50.1082 18.3158 51.3327 18.1034 52.518 17.9915C52.764 17.9915 52.764 17.5834 52.518 17.6057C51.3271 17.7008 50.0802 17.7511 48.8781 17.9188C48.6376 17.9468 48.6656 18.3158 48.9116 18.3158ZM43.0184 18.8302C42.9693 18.8419 42.9261 18.871 42.897 18.9123C42.8679 18.9535 42.8549 19.0039 42.8604 19.0541C42.8659 19.1042 42.8895 19.1507 42.9269 19.1846C42.9642 19.2185 43.0126 19.2377 43.0631 19.2384C43.4433 19.2384 46.5129 18.7855 46.977 18.724C47.0259 18.7125 47.0687 18.6831 47.0971 18.6417C47.1254 18.6003 47.1372 18.5497 47.1302 18.5C47.1232 18.4503 47.0979 18.405 47.0592 18.373C47.0205 18.341 46.9713 18.3246 46.9211 18.327C46.1886 18.4165 43.639 18.7016 43.0184 18.8302ZM34.5028 20.4294C36.6727 19.974 38.8659 19.638 41.0726 19.4229C41.3633 19.4229 41.3522 18.9477 41.0726 18.9756C38.8383 19.1087 36.6217 19.4532 34.4525 20.0044C34.4044 20.0199 34.3632 20.0517 34.3359 20.0942C34.3086 20.1367 34.297 20.1874 34.3029 20.2376C34.3088 20.2877 34.332 20.3343 34.3685 20.3693C34.4049 20.4043 34.4524 20.4255 34.5028 20.4294ZM27.0216 23.3145C28.5126 22.4211 30.1412 21.7807 31.8413 21.419C32.1377 21.3575 32.0202 20.9102 31.7295 20.9717C29.9787 21.3193 28.301 21.9662 26.77 22.8839C26.722 22.9214 26.6893 22.9751 26.6778 23.0348C26.6664 23.0946 26.677 23.1566 26.7077 23.2091C26.7384 23.2617 26.7872 23.3013 26.8449 23.3207C26.9026 23.3401 26.9654 23.3379 27.0216 23.3145ZM22.2969 27.8099C22.9141 26.1478 24.1035 24.7601 25.6517 23.896C25.8586 23.7841 25.6853 23.4766 25.4728 23.5829C23.7871 24.4208 22.4923 25.88 21.8608 27.6533C21.7546 27.9665 22.1907 28.0895 22.2969 27.8099ZM23.5158 34.4971C23.3481 34.307 23.0797 34.5698 23.2363 34.7543C23.6277 35.2072 25.6909 36.7951 26.1102 36.7951C26.1542 36.7948 26.1969 36.78 26.2317 36.7531C26.2665 36.7262 26.2915 36.6886 26.3029 36.6461C26.3143 36.6036 26.3115 36.5585 26.2949 36.5178C26.2783 36.4771 26.2487 36.4429 26.2109 36.4205C25.2624 35.8526 24.3612 35.2094 23.5158 34.4971ZM31.3101 38.0812C30.048 37.9564 28.8127 37.6377 27.6478 37.1362C27.3906 37.0244 27.1782 37.4046 27.4409 37.5276C28.6515 38.1011 29.9575 38.446 31.2934 38.5452C31.6009 38.562 31.6009 38.1147 31.3101 38.0812ZM32.5235 38.8472C33.1721 38.9422 35.8167 39.3727 36.4877 39.4063C36.5433 39.4079 36.5975 39.3888 36.6397 39.3527C36.682 39.3166 36.7093 39.266 36.7162 39.2108C36.7232 39.1557 36.7094 39.0999 36.6775 39.0544C36.6456 39.0088 36.5979 38.9768 36.5436 38.9646C35.9006 38.8304 33.2783 38.5173 32.6297 38.4054C32.3669 38.3999 32.2607 38.8024 32.5235 38.8472ZM41.1397 39.5293C40.055 39.6256 38.9618 39.5348 37.9079 39.2609C37.864 39.2559 37.8198 39.2668 37.7833 39.2917C37.7468 39.3165 37.7204 39.3536 37.709 39.3962C37.6975 39.4388 37.7016 39.4841 37.7207 39.5239C37.7397 39.5638 37.7724 39.5954 37.8128 39.6132C38.901 39.9303 40.0379 40.0458 41.1676 39.9542C41.4192 39.9263 41.4137 39.5125 41.1397 39.5293ZM78.2996 36.784C79.4649 36.6563 80.6136 36.4071 81.7271 36.0403C81.9619 35.962 81.8613 35.593 81.6208 35.6657C80.5347 35.9814 79.4206 36.1911 78.294 36.2919C77.9697 36.3255 77.9753 36.8119 78.2996 36.784ZM73.1109 37.2089C73.0658 37.2233 73.027 37.2527 73.001 37.2922C72.975 37.3317 72.9633 37.3789 72.9679 37.426C72.9725 37.4731 72.993 37.5172 73.0262 37.5509C73.0593 37.5847 73.103 37.606 73.15 37.6115C73.5582 37.6115 76.3482 37.1194 76.8235 37.0523C77.0975 37.002 76.9912 36.605 76.7284 36.6442C75.2859 36.8511 74.2123 36.9964 73.1109 37.2089ZM71.6627 37.3822C70.2705 37.6283 68.867 37.7736 67.5363 37.9022C67.2456 37.9358 67.2567 38.3831 67.5363 38.3607C68.9448 38.2473 70.3463 38.0606 71.7354 37.8016C71.7629 37.7968 71.7892 37.7867 71.8129 37.7717C71.8365 37.7568 71.8569 37.7373 71.873 37.7145C71.8891 37.6916 71.9005 37.6658 71.9067 37.6386C71.9128 37.6113 71.9135 37.5831 71.9087 37.5556C71.904 37.528 71.8938 37.5017 71.8789 37.4781C71.8639 37.4545 71.8445 37.434 71.8216 37.418C71.7988 37.4019 71.773 37.3904 71.7457 37.3843C71.7184 37.3782 71.6902 37.3775 71.6627 37.3822ZM30.8125 57.3097C31.0585 57.3097 31.0697 56.963 30.8125 56.9295C29.6781 56.7605 28.525 56.7605 27.3906 56.9295C27.3369 56.9413 27.2896 56.973 27.2583 57.0182C27.227 57.0634 27.2139 57.1188 27.2216 57.1733C27.2294 57.2277 27.2575 57.2773 27.3002 57.3119C27.343 57.3465 27.3972 57.3637 27.4521 57.36C28.5685 57.2435 29.6931 57.2267 30.8125 57.3097ZM80.4579 57.0134C80.4114 57.0279 80.3714 57.058 80.3445 57.0986C80.3176 57.1391 80.3054 57.1876 80.31 57.2361C80.3146 57.2845 80.3356 57.3299 80.3697 57.3647C80.4037 57.3995 80.4487 57.4215 80.497 57.4271C80.5529 57.4271 83.4995 57.3433 84.2096 57.4271C84.3997 57.4551 84.4612 57.1643 84.2711 57.1364C83.0057 56.9886 81.7301 56.9475 80.4579 57.0134ZM78.9314 57.4551C78.9759 57.4551 79.0186 57.4374 79.05 57.4059C79.0815 57.3745 79.0992 57.3318 79.0992 57.2873C79.0992 57.2429 79.0815 57.2002 79.05 57.1687C79.0186 57.1373 78.9759 57.1196 78.9314 57.1196C78.1073 57.0661 77.2797 57.1244 76.4712 57.2929C76.2308 57.3433 76.2979 57.6955 76.5272 57.6955C77.3158 57.5177 78.1232 57.437 78.9314 57.4551ZM91.6573 64.3939C91.6125 64.6176 91.9368 64.7573 92.0319 64.5393C92.5127 63.4546 92.7532 61.7939 92.1493 60.6254C92.0319 60.4017 91.6964 60.5918 91.8082 60.8155C92.4848 62.1574 91.8362 63.5273 91.6573 64.3939ZM24.1365 81.1679C23.3498 81.8215 22.6918 82.616 22.1963 83.5106C22.1853 83.529 22.178 83.5493 22.1748 83.5705C22.1717 83.5917 22.1727 83.6133 22.1779 83.634C22.1884 83.676 22.2151 83.712 22.2522 83.7343C22.2893 83.7565 22.3337 83.7631 22.3756 83.7527C22.4176 83.7422 22.4536 83.7155 22.4759 83.6784C22.9874 82.8353 23.6421 82.0879 24.4105 81.4698C24.6341 81.3077 24.3601 81.0169 24.1365 81.1679ZM27.8715 77.8858C27.1054 78.4589 26.377 79.0808 25.6909 79.7477C25.6575 79.7818 25.639 79.8278 25.6396 79.8755C25.6401 79.9232 25.6596 79.9687 25.6937 80.0021C25.7278 80.0354 25.7737 80.0539 25.8214 80.0534C25.8691 80.0528 25.9147 80.0334 25.9481 79.9993C26.2612 79.6694 27.9442 78.3554 28.1119 78.2157C28.2796 78.0759 28.0784 77.8131 27.8715 77.8858ZM29.5489 76.8681C29.6663 76.8681 29.3196 76.98 31.4052 75.6045C31.4487 75.5744 31.4794 75.5292 31.4913 75.4777C31.5033 75.4261 31.4955 75.372 31.4697 75.3259C31.4438 75.2797 31.4017 75.2449 31.3515 75.2282C31.3013 75.2115 31.2467 75.2141 31.1983 75.2355C30.5821 75.6554 29.9938 76.1149 29.437 76.611C29.4183 76.6332 29.4061 76.6603 29.4019 76.6892C29.3977 76.718 29.4016 76.7475 29.4132 76.7742C29.4248 76.8009 29.4437 76.8239 29.4677 76.8405C29.4916 76.8571 29.5198 76.8667 29.5489 76.8681Z" fill="black"/>
<path d="M32.406 74.654C32.5513 74.7155 32.4563 74.654 34.2176 73.5357C34.1042 74.9397 34.1248 76.3514 34.2791 77.7515C33.4067 77.2774 32.5695 76.7412 31.7742 76.1468C31.6232 76.0294 31.4219 76.2419 31.5785 76.3705C32.4474 77.115 33.3832 77.7776 34.3741 78.3498C35.107 83.9159 37.9467 88.9889 42.3082 92.5238C40.3065 92.9935 39.0429 93.2563 38.5508 93.3066C38.3384 93.3066 38.3384 93.6533 38.5508 93.6533C39.0373 93.6533 42.1349 93.0494 42.7891 92.9152C50.8182 99.3061 61.3746 98.6798 69.0683 92.7922C70.6085 93.1994 72.1737 93.5057 73.7538 93.7092C73.8028 93.7055 73.849 93.6849 73.8846 93.651C73.9202 93.617 73.9429 93.5718 73.9488 93.5229C73.9547 93.4741 73.9436 93.4248 73.9172 93.3833C73.8908 93.3418 73.8508 93.3107 73.8041 93.2954C73.1108 93.178 71.165 92.809 69.4876 92.4623C73.6942 89.1308 76.4976 84.3421 77.3434 79.0431C77.5559 78.9089 77.7628 78.7636 77.9641 78.6126C78.1653 78.4616 77.9641 78.1094 77.746 78.2492L77.4273 78.4449C78.1094 72.5069 76.0183 66.5913 72.3224 62.1462C73.3736 60.9888 74.106 59.6189 73.6755 58.0981C74.2054 57.9365 74.7451 57.8095 75.2914 57.7178C75.5374 57.6843 75.448 57.3209 75.2131 57.3544C74.6468 57.4268 74.0863 57.5389 73.5357 57.6899C73.1273 56.6773 72.4259 55.8097 71.5215 55.1981C70.617 54.5865 69.5506 54.2588 68.4588 54.2568C69.352 53.3178 70.0074 52.1786 70.3702 50.9345C70.733 49.6904 70.7927 48.3775 70.5444 47.1055C69.51 42.3529 65.8141 37.8351 61.1621 35.2351C61.2761 34.6059 61.2416 33.9588 61.0615 33.3453C60.9385 32.7862 60.5695 32.596 60.1389 32.3165C59.9153 32.1711 59.7028 32.0369 59.468 31.9027C60.0849 30.9427 60.4076 29.8232 60.3961 28.6821C61.6542 28.5591 61.6989 26.7252 60.3178 26.4456C61.7213 19.859 49.5378 18.7408 50.2535 26.6581C50.0053 26.7289 49.7829 26.8701 49.6133 27.0646C49.4436 27.259 49.3339 27.4985 49.2973 27.754C49.2642 27.9291 49.2748 28.1097 49.3281 28.2798C49.3814 28.4499 49.4758 28.6042 49.6029 28.7292C49.7301 28.8541 49.886 28.9458 50.057 28.9961C50.2281 29.0464 50.4088 29.0538 50.5834 29.0176C50.532 29.7416 50.683 30.4656 51.0195 31.1088C50.7398 31.1731 50.4793 31.3029 50.2596 31.4876C50.0399 31.6723 49.8672 31.9066 49.7558 32.1711C49.508 32.8768 49.4596 33.6371 49.6161 34.3685C45.1709 36.3964 41.6169 39.9743 39.6188 44.4329C38.0364 48.0393 38.808 50.6784 41.6037 53.4293C40.3517 53.0255 38.9986 53.067 37.7736 53.5467C37.0054 53.8772 36.3184 54.3709 35.7603 54.9937C35.2022 55.6165 34.7864 56.3534 34.5419 57.1531C34.004 57.0671 33.4579 57.0446 32.9148 57.086C32.8776 57.093 32.8441 57.1128 32.82 57.1419C32.7958 57.171 32.7826 57.2076 32.7826 57.2454C32.7826 57.2832 32.7958 57.3198 32.82 57.3489C32.8441 57.378 32.8776 57.3977 32.9148 57.4047C33.4299 57.3828 33.9452 57.4432 34.4412 57.5837C34.0554 59.9376 36.0515 61.9281 37.9917 63.3259C35.9094 66.155 34.627 69.4923 34.2791 72.9877C33.623 73.3876 32.9901 73.8244 32.3836 74.2961C32.3517 74.315 32.3256 74.3424 32.3083 74.3751C32.2909 74.4079 32.2829 74.4449 32.2852 74.4819C32.2876 74.5189 32.3001 74.5546 32.3214 74.5849C32.3427 74.6153 32.3719 74.6392 32.406 74.654ZM57.1252 33.418L57.36 33.3453C57.4886 33.4795 57.8353 33.7814 58.0478 33.9603C56.3871 34.8326 54.3295 34.7599 52.1825 33.7143C52.4229 33.4962 52.8143 33.0993 52.9597 32.9315C53.3441 33.0788 53.7361 33.2057 54.1338 33.3117C54.2971 33.5537 54.5152 33.7537 54.7704 33.8952C55.0257 34.0368 55.3108 34.116 55.6025 34.1264C55.8942 34.1367 56.1842 34.078 56.4488 33.9548C56.7135 33.8317 56.9452 33.6478 57.1252 33.418ZM52.6521 32.775C52.462 32.9874 52.0371 33.4403 51.8973 33.5578C51.7408 33.472 51.5842 33.3826 51.4276 33.2894C51.3972 33.2708 51.3607 33.2651 51.3261 33.2735C51.2915 33.2819 51.2617 33.3037 51.2431 33.3341C51.2246 33.3645 51.2189 33.401 51.2273 33.4356C51.2357 33.4702 51.2575 33.5001 51.2879 33.5186C52.6465 34.3909 53.9717 35.0506 55.5764 35.0506C56.2265 35.0815 56.8753 34.9664 57.4751 34.7139C58.075 34.4614 58.6107 34.0778 59.043 33.5913C59.066 33.5676 59.0786 33.5357 59.0781 33.5027C59.0776 33.4696 59.064 33.4382 59.0402 33.4152C59.0165 33.3922 58.9846 33.3796 58.9516 33.3801C58.9186 33.3806 58.8871 33.3942 58.8641 33.418C58.7127 33.5429 58.554 33.6586 58.3888 33.7646C58.2379 33.636 57.8912 33.3565 57.7235 33.2055C58.2924 32.9908 58.8089 32.6572 59.2387 32.227C59.7978 32.4642 60.2994 32.8189 60.7092 33.267C60.9147 33.8761 60.9476 34.5302 60.8043 35.1569C60.2899 36.7448 56.1299 38.316 51.8582 36.085C50.3541 35.3302 49.7223 34.7096 49.9907 32.8309C50.0107 32.4987 50.1382 32.1822 50.3541 31.929C50.57 31.6758 50.8624 31.4997 51.1872 31.4275C51.5556 31.9917 52.0592 32.4549 52.6521 32.775ZM57.2035 37.5555C58.1149 37.4437 60.2787 37.03 61.0447 35.6154C65.4898 38.0755 70.125 43.5774 70.2313 48.5928C70.2695 49.6952 70.0493 50.7912 69.5881 51.7931C69.1269 52.7951 68.4376 53.6752 67.5754 54.3631C66.7845 54.5085 66.0267 54.7965 65.3388 55.2129C65.8309 47.6143 65.8477 48.0728 65.7917 48.0169C65.7358 47.961 64.8859 47.9554 63.4993 47.9219C63.6726 47.7038 64.1367 47.0887 64.243 46.9657C64.2689 46.9383 64.2829 46.9017 64.2818 46.8639C64.2808 46.8262 64.2648 46.7904 64.2374 46.7645C64.2099 46.7385 64.1733 46.7245 64.1356 46.7256C64.0978 46.7266 64.062 46.7426 64.0361 46.77C63.683 47.162 63.3097 47.5352 62.9178 47.8883H62.8004C62.943 46.1925 62.9804 44.4895 62.9122 42.789C62.9122 42.6548 62.6774 42.6548 62.6886 42.789C62.7445 43.5886 62.3699 47.1726 62.3251 47.8603C58.1596 47.7765 51.2152 47.7038 47.0217 47.6647C46.5078 45.9261 46.2904 44.1134 46.3787 42.3026C46.3787 42.1125 46.1103 42.1125 46.0935 42.3026C45.9127 44.1038 46.0624 45.9228 46.5352 47.6702H46.4178C45.8576 47.1101 45.3257 46.5223 44.8243 45.909C44.8039 45.881 44.7739 45.8616 44.7401 45.8544C44.7062 45.8473 44.6709 45.853 44.641 45.8703C44.6111 45.8877 44.5887 45.9156 44.5781 45.9486C44.5676 45.9815 44.5696 46.0172 44.5839 46.0488C44.6454 46.1662 45.3163 47.167 45.758 47.6926H43.5886C43.4265 47.6926 43.4768 47.6926 43.4656 47.8212C43.4097 48.453 43.611 51.942 43.7675 54.4246C43.4304 54.2143 43.0792 54.0275 42.7164 53.8654C39.8368 51.0362 38.3048 48.8332 39.8704 45.0535C41.7394 40.5012 45.2607 36.8241 49.7279 34.7599C50.3541 36.0962 53.5356 37.9917 57.2035 37.5555ZM43.8234 48.0896C44.4609 48.0896 64.0752 48.2629 65.4451 48.3859C65.1823 50.5889 64.6958 57.0972 64.5281 59.2834H63.3036C62.6103 59.8817 57.4663 64.1535 57.0972 64.4666C56.9686 64.5672 57.2035 64.6511 57.757 65.1487C58.1052 65.4043 58.3971 65.7288 58.6145 66.102C58.8319 66.4752 58.9701 66.8892 59.0207 67.3181C59.0221 67.3379 59.0309 67.3564 59.0455 67.3699C59.06 67.3834 59.0791 67.3909 59.0989 67.3908C61.0894 67.4747 62.7724 69.2471 61.3914 70.343C60.1221 71.3495 58.1596 70.343 57.1867 69.4149C58.0645 68.2687 58.5789 67.2678 57.5949 66.2334C57.4774 66.1104 56.2138 65.0816 54.6091 63.7732C48.5313 58.8137 49.0178 59.0933 48.9395 59.0933C48.6264 59.0933 45.3051 58.8641 44.7069 58.8305C44.2652 55.2521 43.9409 50.0242 43.8234 48.0896ZM49.672 70.1418C48.85 70.2033 47.469 70.3095 46.8763 69.4764C46.4905 68.9173 47.0664 68.2631 47.687 68.0842C49.0457 68.5762 51.1816 69.2639 51.8749 69.482C51.1851 69.8297 50.4394 70.0531 49.672 70.1418ZM46.7645 70.0299C47.3236 70.5891 48.2741 70.6562 49.0346 70.645C50.2753 70.6388 51.4923 70.3052 52.5627 69.6777C53.7872 70.0355 55.0005 70.343 56.2641 70.6114C56.2792 70.6166 56.2956 70.6167 56.3108 70.6117C56.326 70.6066 56.339 70.5967 56.348 70.5835C56.5605 70.3207 56.7674 70.0243 56.9575 69.7727C58.2435 70.9693 60.3905 71.7576 61.7101 70.74C62.683 69.9852 62.532 68.6936 61.5591 67.894C66.1887 66.5354 69.8734 64.584 71.9422 62.532C73.873 64.7459 75.302 67.3513 76.131 70.1695C76.9601 72.9877 77.1696 75.9519 76.7451 78.8586C75.564 79.6314 74.3414 80.3388 73.0828 80.9777C73.0524 80.9934 73.0283 81.0188 73.0142 81.05C73.0002 81.0812 72.9972 81.1161 73.0056 81.1493C73.0141 81.1824 73.0335 81.2116 73.0607 81.2323C73.0879 81.2529 73.1214 81.2637 73.1555 81.2629C73.2282 81.2629 75.4647 80.1838 76.6445 79.4849C75.6789 84.5375 72.9674 89.0896 68.9844 92.3449C68.0842 92.1548 67.307 91.9759 66.938 91.864C66.7367 91.7969 66.6472 92.0989 66.8429 92.1716C67.184 92.2946 67.8214 92.4679 68.5818 92.6636C64.9753 95.4118 60.5702 96.9076 56.0359 96.9237C51.5017 96.9399 47.0861 95.4755 43.46 92.7531C44.1302 92.613 44.7897 92.4262 45.4337 92.1939C45.6798 92.0877 45.5288 91.7243 45.2772 91.7802L42.9512 92.3393C38.6898 88.9189 35.8342 84.0515 34.9277 78.6629L35.0395 78.7133C35.2967 78.8251 35.498 78.4728 35.2575 78.333L34.8438 78.0926C34.1044 72.9893 35.3491 67.7967 38.3216 63.5831C41.106 65.3646 44.0898 66.8133 47.2118 67.8996C46.3284 68.3469 46.032 69.3087 46.7645 70.0299ZM60.1054 28.5367C59.988 29.655 59.8202 30.7733 59.1269 31.6343C58.7467 32.1096 57.9359 32.8141 57.2706 32.8309C56.8289 32.8309 56.6723 32.5737 56.3871 32.2717C56.0125 31.8356 55.828 31.6064 55.6267 31.6399C55.1794 31.6958 55.2577 32.5401 54.542 32.9595C54.3239 33.0825 53.5635 32.8644 52.982 32.5849C52.3004 32.2468 51.7385 31.7083 51.3717 31.0417C51.0049 30.375 50.8508 29.6122 50.93 28.8555C50.93 28.7213 50.7343 28.6374 50.656 28.6765C50.5345 28.7186 50.4043 28.7289 50.2777 28.7064C50.1511 28.684 50.0323 28.6296 49.9326 28.5484C49.8329 28.4672 49.7556 28.3619 49.708 28.2424C49.6605 28.1229 49.6442 27.9933 49.6608 27.8658C49.8733 26.7475 51.1257 27.0271 51.4556 27.6757C51.4666 27.692 51.483 27.704 51.502 27.7095C51.521 27.7149 51.5412 27.7135 51.5592 27.7055C51.5773 27.6975 51.5919 27.6834 51.6005 27.6657C51.6092 27.6479 51.6113 27.6277 51.6066 27.6086C51.3813 27.0208 51.3533 26.3756 51.5267 25.7705C51.7002 25.1653 52.0658 24.633 52.5683 24.2538C53.367 24.8084 54.3161 25.1056 55.2884 25.1056C56.2608 25.1056 57.2099 24.8084 58.0086 24.2538C59.0878 25.0925 59.1269 26.837 59.0486 27.4464C59.0477 27.4612 59.0503 27.476 59.0561 27.4895C59.062 27.5031 59.0709 27.5152 59.0822 27.5247C59.1772 27.5974 59.3338 27.4073 59.412 27.3178C59.5126 27.1617 59.6569 27.0387 59.8269 26.9641C59.997 26.8895 60.1852 26.8667 60.3682 26.8985C60.5509 26.9252 60.7175 27.018 60.8365 27.1592C60.9554 27.3005 61.0184 27.4805 61.0136 27.6651C61.0088 27.8497 60.9364 28.0262 60.8103 28.161C60.6841 28.2959 60.5129 28.3798 60.329 28.397C60.2899 28.3634 60.1166 28.4193 60.1054 28.5367Z" fill="black"/>
<path d="M52.0931 89.8624C52.0931 89.9351 52.149 89.9966 52.0931 89.8624C50.5136 90.5014 48.88 90.9973 47.2118 91.3441C47.0106 91.3832 47.0777 91.6796 47.2789 91.6572C49.0061 91.4628 50.6893 90.9849 52.2608 90.2426C52.4901 90.114 52.3391 89.7729 52.0931 89.8624ZM59.9209 87.4861C60.0551 87.4861 64.5841 85.708 65.0258 85.4229C65.2439 85.2775 65.0929 84.9029 64.8357 84.9979C64.3828 85.1657 60.782 86.8654 59.8818 87.1841C59.8489 87.1967 59.8213 87.2199 59.8032 87.2501C59.7852 87.2803 59.7778 87.3157 59.7824 87.3505C59.7869 87.3854 59.803 87.4177 59.8281 87.4423C59.8533 87.4669 59.886 87.4823 59.9209 87.4861ZM66.843 84.5227C66.9883 84.5227 70.7569 82.8061 71.1092 82.5377C71.2825 82.4036 71.1651 82.0849 70.9358 82.1743C70.5948 82.3029 67.5028 83.8517 66.7927 84.148C66.7529 84.1647 66.7198 84.1939 66.6984 84.2313C66.677 84.2686 66.6685 84.312 66.6742 84.3547C66.6799 84.3973 66.6996 84.4369 66.7301 84.4673C66.7606 84.4977 66.8003 84.5171 66.843 84.5227ZM77.8131 73.2841C78.1263 73.4854 79.2893 74.4024 79.6024 74.6037C79.6502 74.6314 79.7065 74.6409 79.7608 74.6303C79.8151 74.6198 79.8638 74.59 79.8979 74.5464C79.9319 74.5028 79.9491 74.4484 79.9462 74.3931C79.9432 74.3379 79.9204 74.2856 79.8819 74.2458C79.5856 73.9942 78.3052 73.1946 77.9865 73.0045C77.9494 72.9816 77.9047 72.9742 77.8623 72.9842C77.8198 72.9942 77.783 73.0206 77.76 73.0577C77.737 73.0947 77.7297 73.1394 77.7397 73.1819C77.7497 73.2244 77.7761 73.2611 77.8131 73.2841ZM84.8303 77.9249C84.6569 77.7851 84.4221 78.0367 84.601 78.1821C84.998 78.512 86.5747 79.9098 87.0109 80.2062C87.0571 80.229 87.1099 80.2352 87.1602 80.2236C87.2105 80.212 87.2552 80.1834 87.2868 80.1426C87.3184 80.1018 87.3349 80.0513 87.3335 79.9997C87.3322 79.9481 87.313 79.8986 87.2793 79.8595C86.9214 79.4905 85.2943 78.2939 84.8303 77.9249ZM88.4367 81.1343C88.4033 81.1017 88.3583 81.0837 88.3117 81.0842C88.265 81.0847 88.2205 81.1038 88.1878 81.1371C88.1552 81.1705 88.1372 81.2154 88.1377 81.2621C88.1382 81.3088 88.1573 81.3533 88.1906 81.3859C88.8927 82.0963 89.5238 82.8734 90.0749 83.7063C90.2538 83.9579 90.662 83.7063 90.4887 83.4491C89.9048 82.5943 89.2153 81.8165 88.4367 81.1343ZM80.6088 94.0279C79.8596 94.0279 76.6334 93.8154 75.8394 93.6533C75.8031 93.6444 75.7647 93.6503 75.7327 93.6697C75.7007 93.6891 75.6778 93.7204 75.6689 93.7567C75.66 93.7931 75.6659 93.8314 75.6853 93.8634C75.7047 93.8954 75.736 93.9184 75.7723 93.9273C77.3693 94.2275 78.9855 94.4143 80.6088 94.4864C80.6696 94.4864 80.7279 94.4622 80.7709 94.4193C80.8139 94.3763 80.8381 94.318 80.8381 94.2572C80.8381 94.1964 80.8139 94.138 80.7709 94.0951C80.7279 94.0521 80.6696 94.0279 80.6088 94.0279ZM60.6254 90.0078C60.4297 89.9127 60.2676 90.2034 60.4689 90.3041C61.8774 91.0155 63.3855 91.5094 64.9419 91.769C65.2439 91.8249 65.3613 91.3609 65.0538 91.3105C63.5241 91.0848 62.0336 90.6463 60.6254 90.0078ZM54.0724 89.6219C54.7713 89.471 56.1971 89.0628 56.4208 89.0293C56.6332 89.1131 57.9975 89.6275 58.7244 89.8009C58.7788 89.813 58.8359 89.8037 58.8837 89.7751C58.9316 89.7464 58.9666 89.7005 58.9817 89.6468C58.9967 89.5931 58.9906 89.5356 58.9646 89.4863C58.9386 89.437 58.8946 89.3995 58.8418 89.3815C58.2827 89.1802 57.7235 89.0125 57.1029 88.8224C57.5537 88.6726 57.9914 88.4855 58.4113 88.2633C58.4418 88.2306 58.4621 88.1897 58.4697 88.1457C58.4773 88.1016 58.4719 88.0563 58.454 88.0153C58.4362 87.9743 58.4068 87.9394 58.3694 87.9149C58.332 87.8904 58.2882 87.8774 58.2435 87.8775C57.6173 88.0899 57.0023 88.3583 56.3928 88.5931C55.6995 88.3471 55.0621 88.0955 54.4526 87.8271C54.2513 87.7377 54.0892 88.034 54.2961 88.1291C54.8049 88.3695 55.3137 88.5987 55.8169 88.8056C55.2225 89.012 54.6178 89.1874 54.0053 89.3312C53.9796 89.3499 53.96 89.3758 53.9488 89.4056C53.9377 89.4354 53.9356 89.4678 53.9427 89.4988C53.9499 89.5297 53.966 89.5579 53.989 89.5799C54.0121 89.6018 54.0411 89.6164 54.0724 89.6219ZM29.0457 74.0334C28.4865 73.5972 26.3898 71.7968 25.9257 71.3048C25.7747 71.1426 25.5231 71.3831 25.6741 71.5452C26.5867 72.6187 27.629 73.5747 28.7773 74.3912C29.0009 74.5422 29.2581 74.2011 29.0457 74.0334ZM22.4032 100.491C22.0542 97.4047 21.4254 94.3561 20.5245 91.3832C21.0345 92.1546 21.821 92.7009 22.7219 92.9096C22.7604 92.926 22.8039 92.9263 22.8427 92.9106C22.8815 92.8948 22.9124 92.8643 22.9287 92.8258C22.9451 92.7872 22.9454 92.7438 22.9297 92.705C22.9139 92.6662 22.8834 92.6352 22.8449 92.6189C22.1292 92.1884 21.0277 91.7522 20.6866 90.7067C20.8732 90.3661 20.9192 89.966 20.8147 89.5919C20.7102 89.2179 20.4636 88.8996 20.1275 88.705C20.3287 87.5175 20.7537 86.379 21.38 85.3502C21.4526 85.2104 21.2625 85.065 21.1563 85.188C20.3584 86.1829 19.8704 87.3903 19.7529 88.6602C19.6073 88.6707 19.4641 88.7028 19.3279 88.7553C17.8466 84.9263 15.7419 81.3688 13.0992 78.2268C13.2009 78.0534 13.2405 77.8505 13.2113 77.6515C13.182 77.4526 13.0858 77.2696 12.9386 77.1327C12.7913 76.9958 12.6017 76.9133 12.4011 76.8987C12.2006 76.8842 12.0011 76.9385 11.8356 77.0527C11.6467 77.1812 11.5094 77.3724 11.448 77.5924C11.3866 77.8124 11.4051 78.0471 11.5001 78.2548C11.5634 78.3656 11.6485 78.4624 11.7503 78.5394C11.8521 78.6164 11.9684 78.672 12.0922 78.7028C12.216 78.7336 12.3448 78.7391 12.4708 78.7188C12.5968 78.6985 12.7174 78.6529 12.8252 78.5847C15.4163 81.6912 17.4927 85.1929 18.9757 88.9566C18.0643 89.7617 18.8583 91.2714 20.0045 91.1484C20.9495 94.2253 21.6084 97.3829 21.9726 100.581C21.8049 100.67 21.6749 100.816 21.6065 100.993C21.5381 101.171 21.5359 101.366 21.6003 101.545C21.6647 101.724 21.7914 101.873 21.9572 101.966C22.1229 102.058 22.3164 102.088 22.5023 102.049C22.6882 102.011 22.8539 101.906 22.969 101.755C23.0841 101.604 23.1408 101.417 23.1287 101.227C23.1167 101.038 23.0366 100.859 22.9033 100.724C22.77 100.589 22.5924 100.506 22.4032 100.491ZM12.7973 77.8131C12.8169 77.8868 12.8193 77.964 12.8044 78.0388C12.7894 78.1136 12.7575 78.1839 12.711 78.2444C12.6645 78.3049 12.6048 78.3539 12.5364 78.3876C12.4679 78.4213 12.3927 78.4388 12.3164 78.4388C12.2402 78.4388 12.1649 78.4213 12.0965 78.3876C12.0281 78.3539 11.9683 78.3049 11.9218 78.2444C11.8754 78.1839 11.8434 78.1136 11.8285 78.0388C11.8135 77.964 11.8159 77.8868 11.8356 77.8131C11.8159 77.7394 11.8135 77.6622 11.8285 77.5874C11.8434 77.5126 11.8754 77.4422 11.9218 77.3818C11.9683 77.3213 12.0281 77.2723 12.0965 77.2386C12.1649 77.2049 12.2402 77.1873 12.3164 77.1873C12.3927 77.1873 12.4679 77.2049 12.5364 77.2386C12.6048 77.2723 12.6645 77.3213 12.711 77.3818C12.7575 77.4422 12.7894 77.5126 12.8044 77.5874C12.8193 77.6622 12.8169 77.7394 12.7973 77.8131ZM22.8617 101.246C22.8617 101.805 21.9391 101.805 21.9391 101.246C21.9391 100.687 22.8393 100.737 22.8393 101.297L22.8617 101.246ZM20.4127 90.2873C20.1107 91.2211 18.9869 90.5669 19.0036 89.8065C19.0036 89.1355 19.9374 88.6882 20.2896 89.3312C20.3799 89.4758 20.4359 89.6392 20.4533 89.8088C20.4708 89.9784 20.4492 90.1497 20.3903 90.3097L20.4127 90.2873ZM101.733 67.799C101.73 67.6375 101.682 67.4799 101.595 67.3439C101.508 67.2079 101.385 67.0987 101.239 67.0285C101.094 66.9584 100.932 66.93 100.771 66.9466C100.61 66.9632 100.458 67.0241 100.329 67.1225C97.1829 65.2803 94.477 62.7728 92.4009 59.7755C92.5526 59.6013 92.657 59.391 92.704 59.1648C92.751 58.9386 92.739 58.7041 92.6693 58.4839C92.6159 58.313 92.519 58.1589 92.3882 58.0366C92.2573 57.9144 92.097 57.8282 91.9229 57.7865C91.7488 57.7448 91.5668 57.749 91.3948 57.7987C91.2228 57.8484 91.0666 57.942 90.9416 58.0701C88.2507 54.4301 86.3275 50.2813 85.2887 45.8755C85.3937 45.7566 85.4579 45.6073 85.4719 45.4494C85.486 45.2915 85.4493 45.1332 85.367 44.9976C85.3052 44.8576 85.1996 44.7416 85.066 44.667C84.9324 44.5924 84.7781 44.5633 84.6265 44.5841C84.4749 44.605 84.3343 44.6746 84.2257 44.7825C84.1172 44.8904 84.0468 45.0307 84.0251 45.1821C83.9896 45.3094 83.9892 45.4439 84.0239 45.5714C84.0586 45.6989 84.1272 45.8146 84.2223 45.9063C84.3175 45.998 84.4356 46.0623 84.5643 46.0923C84.693 46.1223 84.8274 46.1169 84.9533 46.0767C85.9834 50.5334 87.9378 54.7241 90.69 58.3777C90.6312 58.4728 90.5878 58.5765 90.5614 58.6852C89.8513 58.3441 86.3231 57.2258 85.9541 57.3265C85.7976 57.3712 85.8702 57.5613 85.9541 57.5837C87.498 58.0103 89.0142 58.5313 90.4943 59.1437C90.5255 59.3149 90.5954 59.4767 90.6985 59.6169C90.8016 59.757 90.9353 59.8719 91.0894 59.9527C91.2435 60.0335 91.414 60.0782 91.588 60.0834C91.7619 60.0885 91.9348 60.054 92.0934 59.9824C94.643 63.6055 97.2542 66.0489 100.072 67.4524C100.012 67.5881 99.9863 67.7366 99.9977 67.8847C100.009 68.0327 100.057 68.1756 100.138 68.3004C100.218 68.4253 100.328 68.5281 100.458 68.5997C100.589 68.6712 100.734 68.7093 100.883 68.7104C101.001 68.7161 101.12 68.6959 101.23 68.6513C101.339 68.6066 101.438 68.5385 101.519 68.4518C101.6 68.365 101.661 68.2617 101.698 68.149C101.735 68.0362 101.747 67.9168 101.733 67.799ZM100.492 68.0786C100.444 68.0077 100.415 67.9255 100.408 67.8401C100.402 67.7547 100.418 67.6691 100.454 67.5917C100.491 67.5144 100.547 67.4479 100.618 67.399C100.688 67.35 100.77 67.3202 100.855 67.3126C100.989 67.3169 101.116 67.3728 101.21 67.4687C101.304 67.5645 101.357 67.6929 101.358 67.827C101.358 67.9288 101.325 68.0279 101.264 68.1094C101.203 68.1909 101.117 68.2503 101.019 68.2787C100.922 68.307 100.817 68.3029 100.722 68.2668C100.627 68.2307 100.546 68.1647 100.492 68.0786ZM91.9256 59.6581C91.7529 59.7138 91.5664 59.7099 91.3961 59.6471C91.2257 59.5842 91.0815 59.466 90.9863 59.3114C90.934 59.1871 90.9124 59.052 90.9235 58.9175C90.9345 58.7831 90.9778 58.6533 91.0497 58.5392C91.1216 58.425 91.2199 58.3299 91.3364 58.2619C91.4529 58.1939 91.584 58.1549 91.7188 58.1484C92.4344 58.1484 92.5575 59.3953 91.9256 59.6581ZM85.1098 45.3834C85.1163 45.4361 85.1115 45.4895 85.0958 45.5402C85.08 45.5908 85.0537 45.6376 85.0186 45.6773C84.9834 45.7171 84.9402 45.7489 84.8919 45.7707C84.8435 45.7925 84.791 45.8037 84.738 45.8037C84.6849 45.8037 84.6325 45.7925 84.5841 45.7707C84.5358 45.7489 84.4926 45.7171 84.4574 45.6773C84.4223 45.6376 84.396 45.5908 84.3802 45.5402C84.3645 45.4895 84.3597 45.4361 84.3662 45.3834C84.3597 45.3308 84.3645 45.2773 84.3802 45.2267C84.396 45.176 84.4223 45.1293 84.4574 45.0895C84.4926 45.0498 84.5358 45.018 84.5841 44.9962C84.6325 44.9744 84.6849 44.9631 84.738 44.9631C84.791 44.9631 84.8435 44.9744 84.8919 44.9962C84.9402 45.018 84.9834 45.0498 85.0186 45.0895C85.0537 45.1293 85.08 45.176 85.0958 45.2267C85.1115 45.2773 85.1163 45.3308 85.1098 45.3834ZM94.028 90.88C94.0434 90.8409 94.0446 90.7976 94.0313 90.7578C94.018 90.7179 93.9911 90.684 93.9553 90.6619C93.6757 90.4886 93.2172 90.7794 93.139 91.1092C93.3291 91.126 93.9106 91.1036 94.028 90.88Z" fill="black"/>
<path d="M92.6972 87.1842C92.3338 86.415 91.9249 85.6682 91.4727 84.9476C91.4477 84.9109 91.4097 84.8852 91.3663 84.8757C91.323 84.8662 91.2777 84.8737 91.2397 84.8967C91.2017 84.9196 91.174 84.9562 91.1622 84.999C91.1504 85.0417 91.1555 85.0874 91.1763 85.1266C91.5533 85.789 91.8804 86.4787 92.1548 87.1898C91.5309 87.2576 90.9378 87.496 90.4405 87.8788C89.9432 88.2616 89.561 88.7739 89.3357 89.3596C89.1104 89.9454 89.0508 90.5818 89.1635 91.1992C89.2761 91.8165 89.5566 92.3909 89.9742 92.8594C88.0394 93.6123 85.9932 94.0393 83.9188 94.123C83.8816 94.13 83.8481 94.1497 83.824 94.1788C83.7998 94.2079 83.7866 94.2445 83.7866 94.2823C83.7866 94.3201 83.7998 94.3568 83.824 94.3859C83.8481 94.415 83.8816 94.4347 83.9188 94.4417C86.1306 94.4887 88.3286 94.0814 90.3768 93.2452C90.7957 93.5776 91.2871 93.8066 91.8111 93.9137C92.3351 94.0208 92.877 94.003 93.3928 93.8617C93.9086 93.7203 94.3839 93.4595 94.7801 93.1003C95.1764 92.7411 95.4824 92.2936 95.6735 91.794C95.8645 91.2945 95.9353 90.757 95.8799 90.225C95.8245 89.6931 95.6446 89.1817 95.3548 88.7322C95.0649 88.2827 94.6733 87.9078 94.2116 87.6379C93.7498 87.368 93.231 87.2106 92.6972 87.1786V87.1842ZM91.9871 92.3505C91.9312 91.9759 91.9088 91.5957 91.8417 91.2323H91.0198C90.9694 91.5622 90.9694 91.8921 90.9191 92.2219C90.9162 92.2454 90.9086 92.2681 90.8969 92.2887C90.8852 92.3093 90.8696 92.3274 90.8509 92.3419C90.8322 92.3564 90.8108 92.3672 90.788 92.3734C90.7652 92.3797 90.7413 92.3814 90.7178 92.3785C90.6943 92.3756 90.6716 92.368 90.6511 92.3563C90.6305 92.3446 90.6124 92.329 90.5979 92.3103C90.5833 92.2916 90.5726 92.2702 90.5663 92.2474C90.5601 92.2246 90.5583 92.2007 90.5613 92.1772C90.5613 91.8082 90.8688 89.4598 90.9303 89.1299C91.0086 88.6659 91.2546 88.6267 91.3944 88.6435C91.6851 88.677 91.7634 88.979 91.8249 89.2026C91.9871 89.8009 92.384 91.6237 92.4847 92.2275C92.5294 92.5295 92.0374 92.6525 91.9871 92.3505ZM94.4976 91.92C93.5974 92.5462 92.4623 91.797 92.8202 90.9304C93.0494 90.3712 93.9384 89.991 94.313 90.5725C94.3581 90.6665 94.3803 90.7698 94.3777 90.874C94.3751 90.9782 94.3479 91.0803 94.2982 91.172C94.2486 91.2636 94.178 91.3422 94.0921 91.4013C94.0062 91.4603 93.9076 91.4982 93.8042 91.5118C93.6187 91.5363 93.4307 91.5363 93.2451 91.5118C93.3159 91.5901 93.399 91.6562 93.4911 91.7075C94.0503 91.9424 94.4249 91.523 94.5367 91.7579C94.5454 91.7815 94.5463 91.8073 94.5393 91.8314C94.5322 91.8556 94.5176 91.8768 94.4976 91.8921V91.92Z" fill="black"/>
<path d="M91.3106 89.2361C91.2267 89.6611 91.1316 90.4215 91.0869 90.7737H91.7523C91.6908 90.4886 91.5286 89.689 91.4168 89.2529C91.4 89.1802 91.3217 89.1634 91.3106 89.2361ZM42.8674 80.8659C42.5319 80.6646 41.7938 80.6423 41.7491 81.084C41.7156 81.33 41.7491 82.3141 41.7491 82.5769C42.0042 82.5695 42.255 82.5095 42.4859 82.4008C42.7168 82.2921 42.9228 82.1369 43.091 81.9451C43.1539 81.8618 43.1983 81.7661 43.2213 81.6643C43.2442 81.5625 43.2451 81.457 43.2239 81.3548C43.2027 81.2526 43.16 81.1561 43.0985 81.0718C43.037 80.9875 42.9582 80.9173 42.8674 80.8659Z" fill="black"/>
<path d="M52.4229 86.9437C50.8774 86.3777 49.3653 85.7243 47.8939 84.9868C48.1876 84.3865 48.3602 83.7343 48.4019 83.0673C48.4435 82.4004 48.3534 81.7317 48.1366 81.0996C47.9198 80.4675 47.5807 79.8842 47.1385 79.3832C46.6963 78.8821 46.1598 78.4731 45.5596 78.1794C44.9593 77.8856 44.3071 77.713 43.6401 77.6714C42.9731 77.6298 42.3045 77.7199 41.6724 77.9367C41.0402 78.1534 40.457 78.4926 39.9559 78.9348C39.4549 79.3769 39.0458 79.9135 38.7521 80.5137C38.0756 80.1536 37.4187 79.7579 36.784 79.3284C36.6107 79.2165 36.4485 79.4793 36.6106 79.5968C37.3655 80.1559 37.9973 80.5473 38.5844 80.9051C36.5771 86.7648 44.377 90.5166 47.6982 85.3279C49.1558 86.1555 50.7162 86.7871 52.339 87.2065C52.3718 87.2114 52.4052 87.2044 52.4334 87.1868C52.4615 87.1693 52.4824 87.1423 52.4925 87.1107C52.5026 87.0792 52.5011 87.0451 52.4884 87.0145C52.4756 86.9839 52.4524 86.9588 52.4229 86.9437ZM43.4768 82.4707C43.0239 82.9047 42.4264 83.1557 41.7994 83.1752V84.7408C41.7994 84.8045 41.7741 84.8657 41.729 84.9108C41.6839 84.9559 41.6227 84.9812 41.559 84.9812C41.4952 84.9812 41.434 84.9559 41.389 84.9108C41.3439 84.8657 41.3185 84.8045 41.3185 84.7408C41.3185 84.4724 41.2235 82.2526 41.2179 82.0737C41.2179 81.5146 41.0054 80.5585 41.777 80.2509C43.1972 79.6527 44.5391 81.2238 43.4488 82.4651L43.4768 82.4707ZM46.0488 84.1481C45.9705 85.0427 44.7684 85.4285 44.0527 84.8973C44.0017 84.8571 43.9674 84.7993 43.9565 84.7353C43.9455 84.6712 43.9587 84.6054 43.9934 84.5505C44.0282 84.4956 44.0821 84.4555 44.1446 84.438C44.2072 84.4205 44.2741 84.4267 44.3323 84.4556C44.4941 84.564 44.6887 84.6127 44.8825 84.5934C45.0764 84.574 45.2574 84.4877 45.3946 84.3494C45.5624 84.176 45.4953 83.8294 45.2213 83.8685C45.0089 83.9292 44.7874 83.9519 44.5671 83.9356C44.4554 83.9097 44.352 83.8564 44.2659 83.7807C44.1799 83.7049 44.114 83.609 44.0741 83.5015C44.0342 83.3941 44.0216 83.2784 44.0373 83.1648C44.0531 83.0513 44.0968 82.9434 44.1645 82.8509C44.2589 82.7175 44.3834 82.6083 44.5279 82.532C44.6723 82.4557 44.8328 82.4145 44.9961 82.4118C45.1595 82.4091 45.3212 82.4449 45.4682 82.5163C45.6151 82.5877 45.7431 82.6928 45.8419 82.8229C46.0097 83.041 45.663 83.3038 45.4953 83.0913C45.4171 83.0005 45.3137 82.935 45.1982 82.9032C45.0827 82.8713 44.9603 82.8745 44.8467 82.9124C44.3602 83.0913 44.6677 83.5722 44.992 83.4715C45.0647 83.4492 46.0935 83.287 46.0208 84.1257L46.0488 84.1481ZM91.3217 65.5514C91.1406 65.9648 90.9333 66.3664 90.7011 66.7535C90.263 66.1447 89.6958 65.6403 89.0399 65.2763C88.3841 64.9124 87.656 64.6979 86.9076 64.6483C86.1592 64.5987 85.4091 64.7152 84.711 64.9894C84.0129 65.2635 83.384 65.6887 82.8694 66.2343C82.3548 66.78 81.9672 67.4327 81.7343 68.1456C81.5015 68.8586 81.4291 69.6142 81.5225 70.3584C81.6158 71.1027 81.8725 71.817 82.2742 72.4504C82.6759 73.0838 83.2127 73.6205 83.8461 74.0222C83.287 74.5198 82.1296 75.4033 81.8948 75.5878L81.481 75.3977C81.2965 75.3138 81.1455 75.5878 81.3356 75.6772C81.4218 75.7174 81.5058 75.7622 81.5872 75.8114C80.8833 76.322 80.1536 76.796 79.401 77.2316C79.3617 77.2539 79.3329 77.2908 79.3208 77.3343C79.3088 77.3778 79.3145 77.4244 79.3367 77.4637C79.359 77.503 79.3959 77.5318 79.4394 77.5439C79.4829 77.5559 79.5295 77.5502 79.5688 77.528C80.4913 77.0136 81.2853 76.5271 81.9842 76.0519C82.4946 76.4068 82.9701 76.8093 83.4044 77.254C83.4482 77.2884 83.5031 77.3056 83.5587 77.3025C83.6143 77.2994 83.6669 77.2762 83.7066 77.2371C83.7463 77.1981 83.7705 77.1459 83.7745 77.0904C83.7786 77.0348 83.7623 76.9797 83.7287 76.9353C83.2927 76.5242 82.8233 76.1502 82.3253 75.817C82.6664 75.571 83.7567 74.7603 84.3046 74.2794C85.2824 74.7606 86.3886 74.9155 87.4609 74.7214C88.5332 74.5273 89.515 73.9945 90.2621 73.2011C91.0092 72.4078 91.4821 71.3957 91.6114 70.3137C91.7408 69.2317 91.5197 68.1367 90.9806 67.1896C91.2684 66.7093 91.5081 66.2017 91.6963 65.6744C91.7914 65.4339 91.4168 65.3165 91.3217 65.5514ZM86.6194 71.7801C86.5072 71.4022 86.4194 71.0174 86.3566 70.6283L85.1769 70.7457C85.1098 71.0979 85.0427 71.4502 84.9868 71.8025C84.9308 72.1547 84.4724 72.0093 84.5171 71.7074C84.6177 70.9638 85.216 67.7935 85.3334 67.4915C85.6633 66.843 86.1609 67.2903 86.4517 68.0227C86.7337 69.2353 86.9539 70.4613 87.1115 71.6962C87.1226 71.7615 87.1073 71.8285 87.069 71.8825C87.0308 71.9365 86.9726 71.973 86.9074 71.9842C86.8421 71.9953 86.7751 71.98 86.7211 71.9418C86.6671 71.9035 86.6305 71.8453 86.6194 71.7801ZM87.5755 68.1513C87.6039 68.0853 87.6458 68.0261 87.6987 67.9774C87.7515 67.9288 87.8141 67.892 87.8822 67.8692C87.9503 67.8465 88.0225 67.8385 88.094 67.8457C88.1654 67.8529 88.2346 67.8751 88.2968 67.9109C88.3523 67.9481 88.3992 67.9969 88.4341 68.0539C88.469 68.1109 88.4912 68.1747 88.4992 68.2411C88.5072 68.3075 88.5007 68.3748 88.4802 68.4384C88.4598 68.502 88.4258 68.5605 88.3807 68.6098C88.3105 68.696 88.2121 68.7546 88.1028 68.7751C87.9935 68.7955 87.8805 68.7766 87.7839 68.7216C87.6873 68.6665 87.6134 68.579 87.5752 68.4746C87.5371 68.3702 87.5372 68.2557 87.5755 68.1513ZM88.5484 71.7242C88.5475 71.7883 88.5236 71.85 88.4811 71.898C88.4387 71.9461 88.3804 71.9774 88.3168 71.9861C88.2533 71.9949 88.1887 71.9807 88.1348 71.946C88.0808 71.9112 88.0411 71.8583 88.0228 71.7969C87.9781 71.6739 87.8942 69.9517 87.8942 69.7504C87.8942 69.6926 87.9172 69.6371 87.9581 69.5962C87.999 69.5554 88.0545 69.5324 88.1123 69.5324C88.1701 69.5324 88.2256 69.5554 88.2665 69.5962C88.3074 69.6371 88.3304 69.6926 88.3304 69.7504C88.3471 70.0691 88.554 71.6291 88.5484 71.7242Z" fill="black"/>
<path d="M85.2887 70.1921L86.2616 70.0859C86.1642 69.404 85.9993 68.7335 85.7695 68.0842C85.6409 68.6433 85.4061 69.6385 85.2887 70.1921ZM31.4051 94.2739C30.9355 94.5535 31.3213 95.3139 31.9643 95.0287C31.9643 94.6597 31.9307 94.3857 31.9195 94.2571C31.8387 94.2185 31.7498 94.1999 31.6603 94.2028C31.5708 94.2057 31.4833 94.2301 31.4051 94.2739Z" fill="black"/>
<path d="M36.8064 93.5638C35.8809 93.7087 34.9471 93.7946 34.0107 93.821C33.7591 89.4207 27.4633 89.4151 27.2061 93.821C26.2347 93.7272 25.2787 93.5131 24.3601 93.1836C24.3428 93.1748 24.324 93.1695 24.3047 93.1679C24.2854 93.1664 24.266 93.1687 24.2475 93.1747C24.2291 93.1806 24.212 93.1902 24.1973 93.2027C24.1825 93.2153 24.1704 93.2306 24.1616 93.2479C24.1528 93.2652 24.1475 93.284 24.1459 93.3033C24.1444 93.3226 24.1467 93.342 24.1526 93.3605C24.1586 93.3789 24.1682 93.396 24.1807 93.4107C24.1933 93.4255 24.2087 93.4376 24.2259 93.4464C25.1576 93.9397 26.1784 94.2419 27.2284 94.3354C27.3343 95.1563 27.7355 95.9105 28.357 96.4571C28.9786 97.0036 29.7779 97.3051 30.6056 97.3051C31.4333 97.3051 32.2326 97.0036 32.8542 96.4571C33.4757 95.9105 33.8769 95.1563 33.9828 94.3354C34.9563 94.2362 35.9233 94.0812 36.8791 93.8713C36.9119 93.8551 36.9383 93.8282 36.954 93.795C36.9696 93.7618 36.9735 93.7244 36.965 93.6887C36.9566 93.653 36.9363 93.6212 36.9075 93.5985C36.8787 93.5759 36.843 93.5636 36.8064 93.5638ZM30.0968 95.3474C30.0892 95.3853 30.0737 95.421 30.0513 95.4524C30.0289 95.4838 30.0002 95.5102 29.9669 95.5297C29.9337 95.5492 29.8967 95.5615 29.8584 95.5657C29.82 95.57 29.7813 95.5661 29.7445 95.5543C29.5768 95.504 29.6048 95.4089 29.3364 95.0287C29.2525 95.1685 29.1686 95.3139 29.0904 95.4593C29.0597 95.5093 29.011 95.5457 28.9543 95.5609C28.8977 95.5762 28.8373 95.5691 28.7857 95.5411C28.7341 95.5131 28.6952 95.4665 28.6769 95.4107C28.6587 95.3549 28.6626 95.2942 28.6878 95.2412C28.794 95.0399 28.9003 94.833 29.0177 94.6318C28.8797 94.4881 28.7259 94.3605 28.5592 94.2515C28.5045 94.2131 28.4665 94.1553 28.4529 94.0899C28.4394 94.0244 28.4513 93.9563 28.4862 93.8993C28.5211 93.8423 28.5764 93.8007 28.6409 93.7831C28.7053 93.7654 28.7741 93.773 28.8332 93.8042C29.5321 94.2348 29.1015 94.2851 29.6327 93.6253C29.8508 93.3569 30.2645 93.6868 30.0856 93.9608C29.9626 94.1509 29.806 94.3466 29.6719 94.5199C29.9458 94.8722 30.1248 95.1462 30.0912 95.3474H30.0968ZM32.4787 95.4145C32.3597 95.5219 32.219 95.6024 32.0661 95.6507C31.9133 95.6989 31.7518 95.7137 31.5928 95.6941C31.4337 95.6745 31.2807 95.6209 31.1441 95.5369C31.0076 95.453 30.8907 95.3407 30.8013 95.2077C30.6875 95.0396 30.6271 94.8411 30.6281 94.6382C30.6291 94.4352 30.6914 94.2373 30.8069 94.0704C30.9224 93.9035 31.0857 93.7755 31.2752 93.703C31.4648 93.6306 31.6719 93.6171 31.8692 93.6645C31.8209 93.06 31.8041 92.4535 31.8189 91.8473C31.8198 91.7826 31.8445 91.7205 31.8883 91.6728C31.9321 91.6252 31.992 91.5954 32.0564 91.5892C32.1208 91.583 32.1852 91.6007 32.2374 91.6391C32.2895 91.6774 32.3257 91.7336 32.3389 91.797C32.4563 92.5294 32.5458 94.6765 32.557 94.9225C32.5682 95.0511 32.6241 95.2636 32.4731 95.4145H32.4787ZM22.0285 62.3587C22.1292 62.3587 22.1571 62.3587 22.1627 62.3251C22.1627 62.2301 21.9726 60.972 21.9502 60.821C20.3623 61.0391 20.5636 62.504 22.0285 62.3587Z" fill="black"/>
<path d="M25.9815 57.0581C25.3186 57.149 24.6615 57.2778 24.0134 57.4439C23.4922 56.9377 22.8567 56.5645 22.1607 56.3558C21.4648 56.1472 20.7288 56.1093 20.0151 56.2453C19.3013 56.3813 18.6309 56.6873 18.0604 57.1372C17.49 57.5872 17.0363 58.168 16.7378 58.8304C16.4393 59.4928 16.3048 60.2174 16.3456 60.9428C16.3864 61.6682 16.6013 62.3731 16.9723 62.9979C17.3432 63.6226 17.8591 64.1489 18.4764 64.532C19.0938 64.9152 19.7943 65.144 20.5188 65.1991C21.1496 66.9752 22.2489 68.5478 23.7002 69.7504C23.7135 69.7633 23.7291 69.7734 23.7462 69.7802C23.7633 69.787 23.7816 69.7904 23.8001 69.7901C23.8185 69.7899 23.8367 69.786 23.8536 69.7787C23.8706 69.7714 23.8859 69.7608 23.8987 69.7476C23.9116 69.7344 23.9217 69.7188 23.9285 69.7016C23.9353 69.6845 23.9387 69.6662 23.9384 69.6478C23.9382 69.6294 23.9343 69.6112 23.927 69.5942C23.9197 69.5773 23.9092 69.562 23.8959 69.5491C22.6855 68.2823 21.7054 66.814 20.9996 65.2103C21.8423 65.1785 22.6596 64.9126 23.3597 64.4425C24.0598 63.9724 24.6151 63.3165 24.9634 62.5485C25.3118 61.7805 25.4393 60.9306 25.3317 60.0942C25.2241 59.2578 24.8857 58.4678 24.3544 57.8129C24.9471 57.6564 25.4727 57.5166 26.0318 57.4104C26.3002 57.3656 26.2051 57.0134 25.9815 57.0581ZM19.0035 62.7165V58.5566C19.0121 58.5012 19.0403 58.4508 19.0828 58.4143C19.1254 58.3779 19.1795 58.3579 19.2356 58.3579C19.2916 58.3579 19.3458 58.3779 19.3883 58.4143C19.4309 58.4508 19.459 58.5012 19.4676 58.5566C19.4676 59.3841 19.5627 62.1574 19.5794 62.7165C19.5601 62.7778 19.5218 62.8313 19.47 62.8692C19.4182 62.9072 19.3557 62.9277 19.2915 62.9277C19.2273 62.9277 19.1647 62.9072 19.113 62.8692C19.0612 62.8313 19.0228 62.7778 19.0035 62.7165ZM22.4254 62.7724C21.3072 63.3707 19.8143 62.3028 20.5188 61.0559C20.6733 60.8339 20.8801 60.6535 21.121 60.5306C21.3619 60.4077 21.6294 60.3462 21.8998 60.3514C21.8064 59.7422 21.7504 59.1279 21.7321 58.5119C21.735 58.4513 21.7593 58.3937 21.8006 58.3492C21.8419 58.3048 21.8976 58.2764 21.9578 58.2691C22.018 58.2617 22.0789 58.2759 22.1297 58.309C22.1804 58.3422 22.2179 58.3923 22.2353 58.4504C22.3304 58.8529 22.5987 61.5312 22.6267 61.8834C22.6379 62.1574 22.7609 62.5656 22.4254 62.7445V62.7724Z" fill="black"/>
</svg>
