<svg width="112" height="113" viewBox="0 0 112 113" fill="none" xmlns="http://www.w3.org/2000/svg">
<path fill-rule="evenodd" clip-rule="evenodd" d="M55.8405 48.0445C55.6714 47.7933 55.4594 47.5737 55.2142 47.3959C55.0665 47.3991 54.9211 47.4331 54.7873 47.4957C54.6535 47.5583 54.5342 47.6481 54.437 47.7594C54.342 47.8936 54.4874 48.106 54.5824 48.2514C54.6827 48.4083 54.7989 48.5544 54.9291 48.6875C55.1024 48.8049 55.3764 48.5813 55.5721 48.4359C55.7678 48.2905 55.9131 48.1899 55.8405 48.0445ZM55.0856 48.3017C55.0018 48.1955 54.8452 47.9942 54.7725 47.8768C54.8896 47.7475 55.0253 47.6363 55.1751 47.5469C55.1751 47.5469 55.382 47.9159 55.4547 48.0557C55.3037 48.1619 55.1807 48.2458 55.0856 48.3017ZM56.2654 49.0174C56.1983 48.9391 55.6559 49.1516 55.4938 49.3808C55.3987 49.515 55.5385 49.7275 55.6392 49.8785C55.7354 50.0365 55.852 50.1813 55.9858 50.309C56.0163 50.3329 56.0534 50.3466 56.0921 50.3481C56.271 50.3481 56.7798 49.9512 56.8581 49.8617C56.884 49.8371 56.9016 49.8051 56.9086 49.7701C56.9156 49.735 56.9117 49.6987 56.8972 49.666C56.7263 49.4144 56.5124 49.1949 56.2654 49.0174ZM56.1424 49.9232C56.0286 49.7874 55.9222 49.6455 55.8237 49.4983C55.9437 49.3721 56.079 49.2613 56.2263 49.1684C56.2263 49.1684 56.4387 49.543 56.5114 49.6828C56.3381 49.7946 56.2374 49.8673 56.1424 49.9232ZM59.3518 53.5128C60.6434 52.5679 58.8654 50.8066 57.8645 52.1038C57.76 52.2777 57.7048 52.4768 57.7048 52.6797C57.7048 52.8826 57.76 53.0817 57.8645 53.2556C58.0277 53.4868 58.2761 53.6438 58.5549 53.692C58.8338 53.7402 59.1204 53.6758 59.3518 53.5128ZM58.0658 52.4784C58.1329 51.4944 59.7767 51.7907 59.4245 52.8307C59.3655 52.9967 59.2465 53.1346 59.0909 53.2172C58.9353 53.2998 58.7544 53.3211 58.5838 53.2769C58.4133 53.2327 58.2655 53.1261 58.1696 52.9783C58.0737 52.8306 58.0367 52.6522 58.0658 52.4784ZM56.148 47.86C56.1795 47.881 56.2164 47.8926 56.2542 47.8936C56.4387 47.8936 56.942 47.5022 57.0202 47.4127C57.0473 47.3877 57.0657 47.3547 57.0728 47.3185C57.0798 47.2823 57.0751 47.2448 57.0594 47.2114C56.8888 46.963 56.677 46.7455 56.4331 46.5684C56.286 46.5748 56.1417 46.6103 56.0083 46.6726C55.8749 46.735 55.7552 46.8231 55.6559 46.9319C55.5609 47.066 55.7063 47.2841 55.8013 47.4239C55.8998 47.5821 56.0161 47.7284 56.148 47.86ZM56.394 46.7417C56.394 46.7417 56.6009 47.1108 56.6736 47.2506C56.4723 47.3903 56.3828 47.4463 56.3045 47.4966C56.2151 47.3847 56.0641 47.1891 55.9858 47.0716C56.1007 46.9317 56.2388 46.8126 56.394 46.7194V46.7417ZM58.077 49.0342C58.1027 49.0094 58.1198 48.977 58.1258 48.9418C58.1319 48.9066 58.1265 48.8704 58.1105 48.8385C57.9414 48.5873 57.7295 48.3677 57.4843 48.1899C57.3372 48.1963 57.1928 48.2317 57.0595 48.2941C56.9261 48.3565 56.8064 48.4446 56.7071 48.5533C56.6121 48.6875 56.763 48.9112 56.8525 49.051C56.9539 49.2053 57.07 49.3495 57.1992 49.4815C57.2313 49.5021 57.2675 49.5155 57.3054 49.5206C57.4955 49.5262 57.9931 49.1236 58.077 49.0342ZM57.3557 49.0957C57.2442 48.9594 57.1397 48.8176 57.0426 48.6708C57.1609 48.5428 57.2964 48.4317 57.4452 48.3409C57.4452 48.3409 57.652 48.7099 57.7247 48.8497C57.5905 48.9615 57.4452 49.0454 57.3557 49.1236V49.0957ZM86.1063 47.5301C86.0448 47.5749 85.7261 47.8097 85.4241 48.0893C85.1222 48.3688 84.1605 49.2914 84.0822 49.7107C84.0766 49.7874 84.0882 49.8644 84.1163 49.936C84.1444 50.0076 84.1881 50.072 84.2444 50.1245C84.3897 50.2811 84.9657 50.7731 84.9657 50.5383C84.9516 50.4982 84.9287 50.4619 84.8985 50.432C84.7259 50.2672 84.5772 50.079 84.4568 49.8729C84.3562 49.6716 85.4409 48.6428 86.2181 47.6364C86.302 47.5637 86.1901 47.4463 86.1063 47.5301ZM84.5743 51.4217C84.496 51.5335 84.4177 51.7627 84.5743 51.7795C84.5743 51.7795 84.714 51.6174 84.8874 51.595C85.2173 51.595 85.2005 52.0926 85.1949 52.4281C85.1949 52.5232 85.3235 52.5623 85.3459 52.4673C85.4976 52.2571 85.5654 51.9979 85.536 51.7404C85.4241 51.2707 84.8035 51.075 84.5743 51.4217ZM84.8147 48.1004C84.8831 48.1268 84.959 48.1258 85.0266 48.0977C85.0943 48.0696 85.1485 48.0165 85.1781 47.9495L85.3123 47.6419C85.3426 47.5745 85.3448 47.4977 85.3186 47.4286C85.2924 47.3594 85.2399 47.3034 85.1725 47.2729C85.1396 47.257 85.1038 47.2478 85.0672 47.246C85.0306 47.2441 84.9941 47.2496 84.9597 47.2621C84.9253 47.2746 84.8937 47.2939 84.8669 47.3188C84.8401 47.3437 84.8185 47.3737 84.8035 47.4071L84.6637 47.7314C84.6491 47.7655 84.6414 47.8022 84.641 47.8393C84.6407 47.8764 84.6478 47.9132 84.6618 47.9476C84.6759 47.9819 84.6967 48.0131 84.7229 48.0394C84.7491 48.0656 84.7803 48.0864 84.8147 48.1004ZM86.9394 49.2467C86.9831 49.2733 87.0336 49.2869 87.0848 49.2858C87.3531 49.2858 87.3252 49.0454 87.4706 48.9224C87.5269 48.8742 87.5618 48.8056 87.5676 48.7316C87.5733 48.6577 87.5495 48.5845 87.5013 48.5282C87.4531 48.4718 87.3845 48.4369 87.3106 48.4312C87.2367 48.4254 87.1635 48.4492 87.1071 48.4974C86.9002 48.6707 86.6654 49.0789 86.9394 49.2467ZM46.7042 35.2013C50.4337 35.4417 59.3239 34.9832 59.3239 34.5471C59.2735 14.8097 59.3909 15.8329 59.1617 15.7882C55.3596 15.0837 53.8891 14.7818 51.3003 15.1284C47.7722 15.6093 46.4582 16.5486 40.6768 16.6772C37.322 16.7555 37.4115 16.5989 37.3835 16.7331C37.2885 17.1804 37.2046 36.2692 37.5457 36.6215C38.1943 37.2756 43.7129 35.0056 46.7042 35.2013ZM37.5177 16.8058C39.6483 16.8938 41.7823 16.8564 43.9086 16.694C47.8728 16.3417 50.8083 14.9551 54.5321 15.3241C55.4379 15.4136 58.0658 15.8832 58.9716 16.0734V34.3793C58.2503 34.4576 55.108 34.7763 51.7029 34.8881C46.1954 35.0727 46.9223 34.5527 43.9421 35.123C41.4149 35.6038 38.3508 36.6047 37.7917 36.3978C37.568 35.1733 37.4618 17.6557 37.5177 16.8058Z" fill="black"/>
<path fill-rule="evenodd" clip-rule="evenodd" d="M44.8088 30.7785C45.927 30.5828 53.3858 26.2607 53.8667 25.2655C53.8982 25.2204 53.9151 25.1667 53.9151 25.1117C53.9151 25.0567 53.8982 25.003 53.8667 24.9579C53.3076 24.3541 45.2449 20.4849 44.3279 20.4569C43.7688 20.4569 44.0595 29.5652 44.4733 30.5884C44.4952 30.6563 44.5419 30.7135 44.604 30.7487C44.6661 30.7839 44.7392 30.7946 44.8088 30.7785ZM44.3055 20.6079C45.189 20.6582 52.7932 24.5554 53.5312 25.148C52.7205 26.1992 46.0109 30.1523 44.7305 30.4486C44.0483 28.4357 44.3614 20.6079 44.3055 20.6079ZM24.5402 21.3012C24.5339 21.3931 24.5227 21.4845 24.5067 21.5752C24.4994 21.6112 24.4995 21.6483 24.5069 21.6843C24.5143 21.7204 24.5289 21.7545 24.5497 21.7848C24.5706 21.815 24.5973 21.8408 24.6284 21.8605C24.6594 21.8802 24.6941 21.8934 24.7303 21.8995C24.8022 21.9127 24.8763 21.8973 24.9369 21.8565C24.9975 21.8158 25.0398 21.7529 25.0546 21.6814C25.077 21.5707 25.092 21.4586 25.0994 21.3459C25.1023 21.3092 25.098 21.2723 25.0866 21.2372C25.0753 21.2022 25.0572 21.1697 25.0333 21.1417C25.0094 21.1137 24.9802 21.0906 24.9474 21.0738C24.9146 21.0571 24.8789 21.0469 24.8422 21.044C24.8054 21.0411 24.7685 21.0454 24.7335 21.0567C24.6984 21.0681 24.666 21.0862 24.6379 21.1101C24.6099 21.134 24.5868 21.1631 24.5701 21.1959C24.5533 21.2287 24.5432 21.2645 24.5402 21.3012ZM24.6576 24.3037C24.6576 24.3037 24.1376 23.8844 24.0985 23.8397C24.0323 23.7996 23.9705 23.7527 23.914 23.6999C23.914 23.5881 23.668 23.5601 23.8133 23.9627C23.914 24.2422 24.4508 24.5945 24.7024 24.4379C24.7202 24.432 24.7349 24.4192 24.7433 24.4025C24.7516 24.3857 24.753 24.3663 24.7471 24.3485C24.7412 24.3307 24.7284 24.316 24.7116 24.3076C24.6949 24.2992 24.6754 24.2978 24.6576 24.3037Z" fill="black"/>
<path fill-rule="evenodd" clip-rule="evenodd" d="M30.3665 49.5822C30.7858 49.2523 30.1484 47.2338 29.3489 44.8296C33.0559 46.1547 36.1367 46.7306 39.9724 45.9814C40.6769 46.0932 41.359 46.1882 41.9964 46.2609C42.1083 46.2609 42.2424 46.1156 42.4214 45.7913C42.9877 46.1677 43.6695 46.3302 44.3448 46.2498C44.8592 46.1044 46.5813 45.2154 46.7267 44.7625C46.7446 44.7181 46.7535 44.6706 46.7528 44.6228C46.7521 44.5749 46.7418 44.5277 46.7225 44.4839C46.7032 44.4401 46.6753 44.4007 46.6405 44.3678C46.6057 44.335 46.5646 44.3095 46.5198 44.2928C48.0854 43.9217 49.6727 43.649 51.2724 43.4765C56.0418 42.9509 64.7251 44.522 67.8115 44.3152C72.1169 44.0188 81.0015 39.8421 81.3705 38.8468C81.6724 38.0417 83.2436 5.57849 81.9688 3.62153C81.9198 3.5446 81.8488 3.48424 81.765 3.44832C81.6812 3.41241 81.5885 3.40262 81.4991 3.42024C79.6931 3.47056 70.6799 6.80858 67.3195 6.97073C63.277 7.18879 55.4827 5.45548 50.6518 5.98666C43.6682 6.76385 40.5762 8.97801 35.6447 8.86619C29.6843 8.70404 25.0212 5.17032 19.2845 4.43786C15.7228 3.98497 10.8248 4.03529 7.71045 5.25979C7.37257 5.36403 7.06283 5.54376 6.80466 5.78537C6.36854 6.39482 6.56423 21.0832 6.56982 21.6647C6.36854 21.2398 6.01069 21.374 5.81499 21.8101C5.42919 22.7494 5.54661 25.1313 5.52984 25.4389C5.29035 26.1475 5.08694 26.8679 4.92038 27.5971H4.36125C4.33608 27.5973 4.31163 27.6055 4.2915 27.6206C4.27136 27.6357 4.25662 27.6569 4.24942 27.681C3.13116 31.0693 1.63828 38.0529 4.14878 40.6249C4.94314 41.4949 6.0137 42.0638 7.17928 42.2352C7.19533 42.5605 7.25552 42.8822 7.3582 43.1913C7.60422 43.5827 8.47646 43.2528 9.98612 42.7943C9.41886 44.2462 8.92618 45.7261 8.51001 47.2282C8.34227 47.7874 7.48121 51.1086 7.66572 51.4776C7.85023 51.8467 8.42055 51.8914 8.78399 51.9809C7.71918 58.7622 7.50692 65.6502 8.15217 72.4842C8.18012 72.7806 8.48205 73.0434 8.99646 73.2111C8.89022 78.7018 9.81279 88.8221 10.0644 89.1072C10.1486 89.165 10.2437 89.205 10.344 89.2246C10.344 89.7055 10.316 90.5386 10.344 91.1369C10.3337 91.1696 10.3337 91.2048 10.344 91.2375C10.3391 91.4419 10.3812 91.6446 10.467 91.8302C10.959 92.462 15.0742 92.4732 15.2811 92.311C15.3584 92.2601 15.4218 92.1908 15.4657 92.1093C15.5096 92.0278 15.5326 91.9367 15.5326 91.8442C15.5326 91.7516 15.5096 91.6605 15.4657 91.579C15.4218 91.4975 15.3584 91.4282 15.2811 91.3773C15.0066 91.208 14.7164 91.0656 14.4144 90.9523C13.9234 90.7616 13.4107 90.6321 12.888 90.5665C12.888 90.2367 12.888 89.767 12.9327 89.3868C12.991 89.3898 13.0485 89.3725 13.0954 89.3379C13.1424 89.3032 13.1758 89.2533 13.1899 89.1967C13.5031 88.3356 15.6445 77.919 16.3994 73.8541C18.3172 73.8541 20.3748 73.7423 22.3206 73.6025C22.712 79.6914 24.1545 88.3021 24.3558 88.4866C24.4498 88.5441 24.5544 88.5821 24.6633 88.5984V90.0689C24.6523 90.1016 24.6523 90.1369 24.6633 90.1696C24.6585 90.3739 24.7005 90.5767 24.7863 90.7622C25.2728 91.3941 29.388 91.4052 29.6005 91.2431C29.6777 91.1922 29.7412 91.1229 29.7851 91.0414C29.829 90.9599 29.8519 90.8688 29.8519 90.7762C29.8519 90.6837 29.829 90.5926 29.7851 90.5111C29.7412 90.4296 29.6777 90.3603 29.6005 90.3093C29.3272 90.1378 29.0367 89.9954 28.7338 89.8844C28.2423 89.695 27.7298 89.5655 27.2074 89.4986V88.6711C27.2532 88.6611 27.2963 88.6415 27.3339 88.6135C27.3715 88.5856 27.4027 88.5499 27.4254 88.5089C28.0908 86.8819 29.1028 77.3766 29.1028 72.8533C29.8521 72.7191 31.9712 72.3277 32.3961 71.735C32.9888 70.8348 31.0598 58.6289 29.634 50.1022C29.8879 49.943 30.1325 49.7694 30.3665 49.5822ZM41.9852 45.9814C37.8309 45.467 31.591 44.1418 28.2809 41.6034C26.7601 36.7669 27.0229 35.3243 27.7777 30.0797C29.7235 31.8633 31.1325 33.9433 32.3849 35.4529C33.2125 36.4314 42.2201 43.0739 43.0867 43.8734C42.7577 44.5954 42.39 45.299 41.9852 45.9814ZM16.2987 15.7267C16.4578 15.9214 16.6737 16.0616 16.9162 16.1278C17.1588 16.1939 17.4159 16.1827 17.6518 16.0958C17.5959 16.353 17.5959 16.4201 17.6518 16.5151C17.2127 16.7517 16.831 17.082 16.5336 17.4824C15.8961 18.528 15.9912 18.3714 16.0359 18.9306C15.8497 19.0542 15.6951 19.2198 15.5844 19.414C15.4737 19.6082 15.4101 19.8256 15.3985 20.0488C15.3549 20.4214 15.3681 20.7985 15.4377 21.1671C15.481 21.405 15.5765 21.6303 15.7172 21.8269C15.8226 21.9789 15.9586 22.1072 16.1165 22.2035C16.2745 22.2998 16.4508 22.362 16.6342 22.386C16.5936 22.6266 16.5936 22.8723 16.6342 23.1129C16.8052 23.8248 17.1965 24.4647 17.7525 24.9412C17.9679 25.1156 18.2308 25.2211 18.5071 25.2441C18.7833 25.267 19.06 25.2063 19.3013 25.0698C19.2453 25.3718 19.1559 25.8358 19.072 26.3167C18.6237 26.3158 18.1757 26.3401 17.7301 26.3894C17.2884 25.9477 13.8665 26.4565 13.8665 27.5971C12.5941 28.2925 11.4485 29.198 10.4782 30.2754C10.1874 24.3486 9.85193 13.7362 9.8072 13.7139C10.3663 13.4623 13.805 13.2162 17.2213 13.5741C17.0174 13.6522 16.8312 13.7705 16.6739 13.9219C16.5165 14.0733 16.3911 14.2547 16.305 14.4554C16.219 14.6561 16.1741 14.8721 16.1731 15.0904C16.172 15.3088 16.2147 15.5252 16.2987 15.7267ZM22.8014 15.285C22.1305 15.5534 18.8484 16.4704 18.0376 16.4536C17.9314 16.3026 17.937 16.3697 17.9985 16.1293C20.8556 15.7547 22.2032 14.2339 22.8014 15.285ZM25.9214 20.8763C25.9661 21.2342 26.3966 22.6152 26.4358 23.0066C26.3072 23.1017 25.9326 23.1408 25.8319 23.2415C25.7291 23.5255 25.6688 23.8232 25.653 24.1249C25.4797 25.1649 24.613 25.4165 23.5618 25.4612C23.1481 25.4612 23.2823 25.4612 23.1089 27.0548C21.9257 26.6345 20.6848 26.3988 19.4299 26.3558C19.5361 25.7632 19.6088 25.3885 19.6535 25.1425C19.6975 25.2246 19.7718 25.2862 19.8605 25.3144C19.9493 25.3426 20.0455 25.3351 20.1288 25.2935C20.5313 25.0866 20.4307 24.6617 20.263 24.2479C19.9107 23.3813 20.1344 23.0402 19.9443 22.9339C19.6888 22.7851 19.4737 22.5758 19.318 22.3245C19.0049 21.7654 19.318 21.2062 19.6759 21.2062C20.3524 21.2062 20.386 21.9107 20.5761 22.3245C20.8556 22.9675 21.5769 22.235 21.4931 20.8875C21.5937 20.8204 22.013 20.854 22.2087 20.7198C22.4044 20.5856 22.5107 20.211 22.6672 20.0265C22.8936 20.1187 23.1385 20.1566 23.3822 20.1372C23.6259 20.1178 23.8617 20.0416 24.0707 19.9146C24.1783 19.8374 24.2673 19.737 24.3311 19.6209C24.395 19.5048 24.4321 19.3759 24.4397 19.2437C24.5529 19.3202 24.6838 19.3664 24.8199 19.3779C25.1063 19.3694 25.3785 19.2513 25.5803 19.048C25.7361 19.1705 25.8802 19.3071 26.0108 19.4561C26.2121 20.4402 25.8822 20.5576 25.9214 20.8708V20.8763ZM15.4488 26.6578C16.1157 26.5142 16.8025 26.4877 17.4785 26.5795C17.791 27.2426 18.3362 27.7679 19.0105 28.0556C17.8363 28.8775 15.3146 28.4358 15.4488 26.6578ZM17.814 26.5627C20.014 26.3338 22.2344 26.721 24.2272 27.681C22.7791 28.7098 21.0625 28.5085 19.4075 27.8543C18.7385 27.629 18.1729 27.1705 17.814 26.5627ZM23.4444 27.1722C23.4947 26.7249 23.5339 26.2496 23.573 25.7967C24.7975 25.7352 25.776 25.3829 25.9717 24.1696C25.9717 24.0298 26.0388 23.6105 26.0668 23.4539C26.8439 23.1856 26.8328 23.275 26.5812 22.3357C26.5812 22.3916 26.2009 21.0553 26.1674 20.7757C26.2407 20.6208 26.2861 20.4543 26.3016 20.2837C26.4414 20.3619 26.6091 20.1998 26.6874 19.9594C26.911 19.2381 26.3687 19.0088 26.3743 18.7516C26.4403 18.4283 26.423 18.0935 26.324 17.7788C26.2793 17.5079 26.1755 17.2502 26.0199 17.0241C25.8643 16.798 25.6607 16.6089 25.4238 16.4704C25.3231 16.4201 25.038 16.3138 25.0156 16.2915C24.8199 16.0902 24.7975 15.5422 23.7799 15.3521C23.5115 15.3018 23.2208 15.3521 23.1034 15.3018C23.0348 15.1107 22.905 14.9476 22.7343 14.8377C22.4212 14.6364 22.3821 14.7706 22.4995 14.642C25.6474 15.3968 29.7682 16.4592 31.865 17.0127C31.837 18.3043 31.5966 28.4973 31.2667 33.7476C30.2296 32.3616 29.0714 31.0705 27.8057 29.8895C27.951 28.8887 25.2001 26.9485 24.3726 27.5803C24.0707 27.4238 23.7575 27.3175 23.4444 27.1722ZM27.5317 29.7665C27.3863 30.5717 27.2913 31.0246 27.1291 32.1317C26.7083 32.1842 26.2812 32.119 25.8952 31.9433C25.5093 31.7676 25.1796 31.4883 24.9429 31.1364C24.8002 30.5897 24.8541 30.0101 25.0953 29.4991C25.3365 28.9881 25.7496 28.5781 26.2625 28.3408C26.9614 28.7992 27.5876 29.4311 27.5317 29.7665ZM27.9566 41.855C26.6818 42.3023 24.7248 41.7208 24.8758 40.2055C24.8903 39.6467 25.121 39.1153 25.5193 38.7232C25.9177 38.3311 26.4527 38.1088 27.0117 38.1032C27.2573 39.3703 27.5727 40.6228 27.9566 41.855ZM43.8863 41.43C43.9254 41.6649 44.0484 42.7775 44.054 43.1074C44.054 43.1969 44.054 43.1633 43.9758 43.1857C43.7472 43.2428 43.5158 43.2876 43.2824 43.3199C43.1818 42.7943 43.1594 42.5874 43.0029 41.7767C43.7186 41.4692 43.7801 41.4692 43.9031 41.4244L43.8863 41.43ZM46.2682 44.7848C45.6549 45.2721 44.9753 45.6694 44.2497 45.9646C43.6478 46.0471 43.0354 45.9313 42.5052 45.6347C42.645 45.3663 42.8128 45.0141 43.0196 44.5835C43.1874 44.6339 43.3104 44.5835 43.5005 44.4382C43.8472 44.1921 44.4846 43.7504 44.2665 44.1642C44.1099 44.4605 43.836 44.673 43.9198 44.8743C44.0037 45.0756 44.2721 45.0085 44.479 44.9805C45.0252 44.8908 45.5649 44.7657 46.0949 44.6059C46.1843 44.5779 46.5701 44.5276 46.285 44.7792L46.2682 44.7848ZM48.6836 42.1513C48.6836 42.2408 48.6836 42.2072 48.5998 42.224C48.3667 42.2622 48.1313 42.2846 47.8953 42.2911C47.8449 41.7767 47.8282 41.4189 47.7555 40.7367C48.053 40.6406 48.3553 40.5603 48.6613 40.4963C48.7004 40.7367 48.7172 41.855 48.7004 42.1457L48.6836 42.1513ZM53.6767 41.7655C53.6767 41.855 53.6767 41.8214 53.5872 41.8326C53.3526 41.8466 53.1174 41.8466 52.8827 41.8326V40.2726C53.6431 40.1217 53.7102 40.1328 53.8053 40.1161C53.8333 40.3677 53.7494 41.4636 53.6767 41.7655ZM58.9829 42.1345C58.9829 42.2184 58.9829 42.1905 58.8822 42.1849C58.6478 42.1738 58.4143 42.1477 58.1833 42.1066C58.2168 41.7711 58.3175 41.1057 58.3734 40.5578C59.1282 40.4963 59.145 40.5186 59.3127 40.5075C59.3016 40.7367 59.0891 41.855 59.0052 42.1345H58.9829ZM69.9363 42.2911C69.9363 42.375 69.9362 42.347 69.8468 42.3582C69.6128 42.3829 69.3776 42.3941 69.1423 42.3917C69.1423 41.8997 69.1423 41.5698 69.0808 40.8318C69.9195 40.6249 69.858 40.664 69.9978 40.6305C70.0257 40.8877 69.9922 41.978 69.9586 42.2911H69.9363ZM74.8007 40.9548C74.8007 41.0442 74.8007 41.0107 74.7168 41.0275C74.4858 41.0721 74.2525 41.1038 74.0179 41.1225C73.9788 40.8597 73.9117 40.1999 73.8222 39.5681C74.5715 39.3221 74.633 39.3277 74.7224 39.2941C74.7727 39.5346 74.8343 40.6417 74.8231 40.9548H74.8007ZM78.8768 39.1208C78.8768 39.1823 78.8768 39.16 78.8097 39.1711C78.6029 39.211 78.3937 39.2371 78.1834 39.2494C78.1219 38.7965 78.1163 38.5952 78.0213 37.8851C78.2844 37.7883 78.5533 37.708 78.8264 37.6447C78.8712 37.874 78.9103 38.8524 78.8991 39.1208H78.8768ZM81.5494 30.6723C78.0381 32.3497 76.6179 34.1445 72.1728 34.9497C70.2618 35.3304 68.2909 35.2903 66.3969 34.8323C65.9776 33.0095 66.0615 16.9401 66.1006 16.3474C71.3788 17.1302 82.0471 13.1939 82.103 13.1771C82.0415 18.6286 81.7954 25.4389 81.5494 30.6723ZM6.70961 10.2081C9.04678 9.88381 12.7874 8.81027 16.9361 9.19608C23.0866 9.75521 27.6659 12.9423 34.1015 13.4623C41.2248 14.0214 44.0932 11.673 51.5744 11.1139C56.7016 10.7281 63.4671 12.2657 67.6214 12.2937C71.0098 12.2937 78.8935 10.3703 82.1589 9.6937V13.0094C82.103 13.0094 70.5066 17.0351 66.0335 15.9839C66.0335 15.9839 65.849 15.9839 65.8378 16.1461C65.7987 16.7891 65.6309 34.0048 66.1677 35.0168C66.1823 35.0461 66.2027 35.0721 66.2277 35.0933C66.2527 35.1145 66.2817 35.1303 66.3131 35.1398C68.2696 35.6234 70.3091 35.6673 72.2846 35.2684C76.7073 34.4633 78.217 32.6684 81.583 31.019C81.4991 32.6964 81.4208 34.2228 81.3481 35.4529C77.4342 37.0185 72.8493 38.9083 68.544 39.255C65.2619 39.5234 55.9803 38.215 50.8363 38.5952C45.245 39.0146 42.5779 40.1496 39.3573 40.6305C32.3626 35.3858 32.8155 35.7045 31.5966 34.139C31.9265 29.1068 32.1557 18.9809 32.2004 16.873C32.2015 16.8359 32.1899 16.7997 32.1675 16.7702C32.1452 16.7407 32.1134 16.7197 32.0774 16.7108C29.634 16.0734 26.0332 15.1844 22.6616 14.3848C22.7252 14.2628 22.7468 14.1233 22.7231 13.9878C22.6954 13.8148 22.6193 13.6531 22.5035 13.5215C22.3878 13.3899 22.2371 13.2937 22.069 13.2442C22.1291 13.1529 22.1611 13.046 22.1611 12.9367C22.1611 12.8274 22.1291 12.7204 22.069 12.6291C21.946 12.4378 21.7621 12.2935 21.5471 12.2194C21.332 12.1454 21.0983 12.1459 20.8836 12.221C19.9778 11.0188 17.8643 11.7681 17.4338 12.8528C17.0032 13.9375 18.6023 13.2162 13.6317 13.2721C12.916 13.2721 10.1706 13.3728 9.71774 13.6691C9.64505 13.7139 10.1539 29.1795 10.221 30.6388C9.7173 31.2154 9.26458 31.8347 8.86786 32.4895C8.70419 30.8488 8.35531 29.232 7.82787 27.6698C7.82787 27.6307 7.82787 27.6083 7.62099 27.5971C7.48907 26.9505 7.39202 26.2972 7.33024 25.6401C8.60506 24.3094 8.18012 23.7223 7.62658 23.8957C7.38377 24.0186 7.13132 24.1214 6.87175 24.2032C6.70961 20.7533 6.67047 13.4455 6.70961 10.2081ZM5.77586 25.5507C5.81499 25.4948 5.94919 21.0497 6.27348 21.8213C6.5195 22.414 6.49154 24.2088 6.54746 24.315C6.81584 24.8741 7.53153 24.1864 7.82228 24.1752C7.96765 24.3597 7.26315 25.2376 7.08982 25.4389C6.91648 25.6401 7.08982 25.9253 7.43648 27.5915H5.1049C5.33414 26.8423 5.66962 25.7632 5.77586 25.5507ZM7.52594 41.9668C6.31783 41.88 5.19089 41.3266 4.38362 40.4236C1.96258 37.969 3.44427 31.1085 4.47308 27.8375H7.64336C8.17395 29.4503 8.52094 31.1177 8.67775 32.8082C8.68044 32.8311 8.69048 32.8524 8.70636 32.8691C8.72223 32.8858 8.74309 32.8968 8.76579 32.9006C8.78849 32.9044 8.81181 32.9007 8.83223 32.8901C8.85266 32.8795 8.86908 32.8625 8.87904 32.8418C10.0756 30.7441 11.8135 29.0062 13.9112 27.8096C14.0965 31.3169 13.4927 34.821 12.1444 38.0641C11.2665 40.1049 10.7577 42.1178 7.52594 41.9668ZM13.0054 36.3028C13.4633 36.3367 13.8991 36.5129 14.252 36.8066C14.6049 37.1003 14.8571 37.4969 14.9736 37.941C15.5774 40.0378 13.1005 40.7367 11.6691 39.9316C12.1816 38.7477 12.6278 37.5363 13.0054 36.3028ZM9.65064 44.5779C11.8872 45.3328 11.6915 48.9504 8.53238 48.3745C8.8399 47.2897 9.14742 46.1547 9.67301 44.5779H9.65064ZM7.99561 51.3602C8.08087 50.4681 8.24364 49.585 8.48205 48.7211C11.9878 49.4312 12.4687 45.2154 9.72333 44.4493C10.2022 42.9824 10.7929 41.5543 11.4902 40.1776C12.162 40.5468 12.946 40.6562 13.6932 40.4851C16.5336 39.8365 15.4544 36.163 13.0502 36.1406C13.9065 33.3961 14.2347 30.5142 14.0175 27.6474C13.9895 27.1889 14.5766 26.8702 15.2979 26.6745C15.279 26.8343 15.279 26.9957 15.2979 27.1554C15.4153 28.6762 18.0935 29.3919 19.4634 28.1339C20.5188 28.5224 21.6497 28.6621 22.7679 28.542C23.4337 28.4272 24.0591 28.1443 24.5851 27.7201C24.8423 27.5244 25.4964 27.7872 26.1283 28.1898C25.5829 28.3905 25.1335 28.79 24.8702 29.3081C24.702 29.602 24.5963 29.9276 24.5597 30.2644C24.5232 30.6011 24.5565 30.9418 24.6577 31.265C24.9185 31.6774 25.2903 32.0079 25.7304 32.2186C26.1705 32.4292 26.6611 32.5115 27.1459 32.456C26.8685 34.1997 26.8197 35.9722 27.0005 37.7286C26.5908 37.7172 26.1859 37.8186 25.8299 38.0217C25.474 38.2249 25.1807 38.5219 24.982 38.8804C23.5563 41.2791 25.9941 42.8446 28.0908 41.9444C28.7618 43.9909 30.3721 48.7155 30.1652 49.2858C29.4756 49.8835 28.6787 50.3446 27.8168 50.6445C27.7547 50.2575 27.5986 49.8917 27.3623 49.5789C27.126 49.2662 26.8167 49.0161 26.4614 48.8506C26.1061 48.6851 25.7157 48.6092 25.3242 48.6295C24.9328 48.6498 24.5523 48.7657 24.216 48.9671C23.1369 49.6716 22.8965 51.2652 23.232 51.8802C21.2564 52.202 19.2613 52.3888 17.2604 52.4393C17.6742 49.0846 12.4016 48.6149 12.5358 52.4393C10.9792 52.2949 9.45072 51.9316 7.99561 51.3602ZM27.4646 50.8011C26.1339 51.2803 24.762 51.6359 23.3661 51.8634V51.8299C23.2869 51.5077 23.2763 51.1724 23.335 50.8459C23.3938 50.5193 23.5206 50.2088 23.7072 49.9344C23.9347 49.5784 24.2668 49.3015 24.6579 49.1418C25.049 48.982 25.48 48.9472 25.8917 49.0422C26.3033 49.1371 26.6755 49.3572 26.9572 49.6721C27.2388 49.987 27.416 50.3814 27.4646 50.8011ZM16.8914 52.4449C15.6054 52.4449 14.202 52.4449 12.67 52.4114C12.6505 51.8331 12.8488 51.2686 13.2257 50.8295C13.6026 50.3905 14.1306 50.109 14.7052 50.0407C15.0134 50.0328 15.3197 50.0914 15.6033 50.2126C15.8868 50.3337 16.141 50.5145 16.3484 50.7426C16.5558 50.9707 16.7117 51.2408 16.8054 51.5346C16.8991 51.8283 16.9284 52.1388 16.8914 52.4449ZM13.8721 91.0977C13.8499 91.1468 13.8152 91.1893 13.7714 91.2207C12.7198 91.2332 11.6684 91.179 10.6235 91.0586C10.5788 90.4994 10.5397 89.7278 10.5117 89.247C11.2418 89.3635 11.9813 89.4103 12.7203 89.3868C12.5525 90.8293 12.5917 90.7455 12.7762 90.8014C13.4639 91.0586 13.3689 90.9132 13.8721 91.0977ZM12.8601 89.0457C12.0208 89.0779 11.1806 89.0161 10.3551 88.8612C10.0197 86.6247 9.19215 77.6282 9.19774 73.2726C10.5788 73.7199 13.2179 73.8821 16.1981 73.8317C15.3035 77.9581 13.1005 88.3244 12.8601 89.0457ZM28.1803 90.0298C28.1565 90.0779 28.1221 90.12 28.0796 90.1528C27.0282 90.1687 25.9768 90.1183 24.9317 90.0018C24.8982 89.6048 24.8702 89.0793 24.8478 88.6375C25.5557 88.7516 26.275 88.7778 26.9893 88.7158C26.8775 89.7223 26.8999 89.6831 27.0844 89.7446C27.7442 89.9403 27.6659 89.8453 28.1691 90.0298H28.1803ZM27.1011 88.3524C26.2676 88.4607 25.4215 88.4209 24.6018 88.235C24.2272 86.7085 22.9244 78.6794 22.4995 73.6025C25.0044 73.4236 27.3192 73.1608 28.9183 72.8924C28.8065 77.3319 27.6547 86.8539 27.09 88.3356L27.1011 88.3524ZM32.1333 71.5113C30.8977 73.2894 8.75603 74.4971 8.54915 72.473C7.9058 65.6808 8.10864 58.8349 9.15301 52.0927C13.9839 53.5129 24.7528 52.9649 29.3489 50.309C30.7523 58.8638 32.603 70.7677 32.0998 71.489L32.1333 71.5113Z" fill="black"/>
<path fill-rule="evenodd" clip-rule="evenodd" d="M21.0906 45.1482C21.1389 44.7864 21.1057 44.4184 20.9935 44.0711C20.8813 43.7238 20.6928 43.406 20.442 43.1409C20.198 42.865 19.8906 42.6525 19.5464 42.5215C19.2021 42.3906 18.8312 42.3451 18.4655 42.3891C18.0998 42.4331 17.7503 42.5652 17.4469 42.7741C17.1435 42.9829 16.8954 43.2623 16.7238 43.5882C16.535 43.8955 16.4147 44.2399 16.3713 44.5979C16.3279 44.9559 16.3623 45.3191 16.4721 45.6626C17.3668 47.368 20.7886 47.2226 21.0906 45.1482ZM16.9642 43.7224C17.1144 43.4348 17.3324 43.1881 17.5994 43.0037C17.8664 42.8194 18.1743 42.7029 18.4964 42.6643C18.8186 42.6258 19.1453 42.6663 19.4483 42.7825C19.7512 42.8987 20.0213 43.087 20.2351 43.331C20.4549 43.567 20.6192 43.8491 20.7159 44.1568C20.8127 44.4644 20.8394 44.7898 20.7942 45.1091C20.537 46.8927 17.4842 47.0213 16.707 45.5284C16.623 45.2259 16.6024 44.9093 16.6467 44.5985C16.691 44.2877 16.7991 43.9894 16.9642 43.7224ZM22.9693 34.9385C23.021 34.5731 22.9896 34.2008 22.8773 33.8494C22.765 33.4979 22.5747 33.1764 22.3207 32.9088C22.0771 32.6327 21.7701 32.4198 21.4261 32.2884C21.0821 32.157 20.7114 32.1111 20.3457 32.1545C19.98 32.198 19.6304 32.3295 19.3268 32.5378C19.0231 32.7461 18.7746 33.025 18.6024 33.3505C16.6231 36.9234 22.5667 37.7453 22.9693 34.9385ZM18.8429 33.5127C18.993 33.225 19.2111 32.9784 19.4781 32.794C19.745 32.6096 20.053 32.4931 20.3751 32.4546C20.6973 32.416 21.024 32.4566 21.327 32.5728C21.6299 32.6889 21.9 32.8772 22.1138 33.1213C22.3346 33.3566 22.4995 33.6386 22.5963 33.9465C22.6932 34.2543 22.7193 34.58 22.6729 34.8993C22.4157 36.6829 19.3629 36.806 18.5857 35.3187C18.5016 35.0162 18.4811 34.6996 18.5254 34.3888C18.5696 34.078 18.6777 33.7797 18.8429 33.5127ZM94.3592 59.434C93.2681 58.6673 92.1075 58.0046 90.8926 57.4547C90.9765 56.7837 91.2896 52.8922 91.0604 52.5399C90.9877 52.4337 90.9709 52.5399 91.0604 52.3275C91.239 52.4541 91.4451 52.5368 91.6617 52.5689C91.8784 52.601 92.0995 52.5815 92.3072 52.512C92.5014 52.7718 92.7889 52.9461 93.1091 52.9983C93.4292 53.0504 93.7571 52.9763 94.0238 52.7915C94.868 52.3442 96.333 50.5997 95.8913 49.3641C95.7235 48.9 95.6005 49.1963 96.0646 48.8776C96.4367 48.5546 96.7245 48.1458 96.9033 47.6867C97.1308 47.2549 97.2242 46.765 97.1714 46.2799C97.1186 45.7947 96.922 45.3364 96.6069 44.9637C96.1435 44.398 95.5036 44.0042 94.7898 43.8454C94.5671 43.7844 94.3413 43.7359 94.1132 43.7001C93.9902 42.962 94.5438 41.6257 92.5141 40.5242C91.8743 40.22 91.1429 40.17 90.4677 40.3844C89.6961 40.6025 89.9085 40.9435 89.7688 40.5354C89.1593 38.9418 87.1352 37.8068 85.7654 38.6399C85.3727 38.872 85.0388 39.1915 84.7896 39.5736C84.5404 39.9556 84.3826 40.39 84.3284 40.8429C84.3469 41.3085 84.4611 41.7653 84.6639 42.1848C82.3155 42.4811 82.6678 45.931 84.7086 45.8471C84.286 46.812 83.9456 47.8108 83.691 48.8329C83.4506 50.0853 83.2716 51.4943 83.8531 52.635C84.106 53.0907 84.4586 53.4834 84.8846 53.7835C85.3107 54.0837 85.7991 54.2836 86.3133 54.3683C86.0338 54.8995 85.7542 55.4306 85.5697 55.8388C81.0239 54.9274 71.1217 57.5721 70.188 58.3829C70.0202 58.5282 70.0929 58.6568 70.188 58.942C69.5362 59.1262 68.8756 59.2773 68.2086 59.3949C66.0699 56.8334 63.7066 54.4682 61.1468 52.3275C61.2139 51.0694 60.2913 49.6213 59.2625 49.3473C58.1442 47.5637 56.8694 45.7856 56.5507 45.5955C56.232 45.4054 53.6097 47.1052 53.442 47.4462C53.386 47.5525 53.4419 47.6419 53.5314 47.8264C54.057 48.8385 56.4669 52.7915 57.546 54.3291C58.4315 56.4915 59.5153 58.5673 60.7834 60.5299C60.4192 60.5735 60.0586 60.6426 59.7042 60.7368C55.5219 61.8159 51.8428 64.4942 48.8906 67.4128C45.4855 70.7676 42.3655 75.3022 41.2864 77.5164C41.2305 77.6226 41.1858 77.7065 41.2361 77.8015C41.3641 78.0443 41.5059 78.2796 41.661 78.506L41.3312 78.9869C40.3639 78.2432 37.283 76.0235 36.299 76.7895C35.4155 77.1529 34.8564 77.2368 36.0641 79.3727C36.8357 80.7258 38.9492 83.035 40.2968 83.7004C41.169 84.1253 41.6554 83.2978 41.4933 82.9679C42.3185 82.5199 43.0864 81.9736 43.7802 81.3408L44.3393 82.0397C44.3726 82.0768 44.4185 82.1002 44.4681 82.1053C44.5177 82.1105 44.5674 82.0971 44.6077 82.0677C51.1998 77.0355 59.1898 70.6894 59.8943 71.0081C61.1971 71.6007 65.9441 79.1826 67.4762 80.3232C67.4932 80.3351 67.5049 80.3532 67.5085 80.3737C67.5122 80.3941 67.5076 80.4152 67.4957 80.4322C67.4839 80.4493 67.4657 80.4609 67.4453 80.4646C67.4248 80.4683 67.4038 80.4637 67.3867 80.4518C65.6198 79.2385 60.8169 71.9194 59.7601 71.3715C58.832 71.6455 55.9189 73.9379 50.6631 77.6785C48.0128 85.5064 47.0734 95.3191 47.3083 95.9454C47.3586 96.0628 47.6046 96.2026 47.9625 96.3479C47.8954 96.9574 47.8283 97.5836 47.7779 98.126C46.7435 98.7857 43.5565 100.972 43.9591 102.141C43.9982 103.069 43.8696 103.65 46.313 103.259C47.8395 102.996 49.4721 102.141 50.7861 101.408C51.0041 101.291 51.0824 100.452 51.0936 100.005C51.4015 99.1494 51.5896 98.2556 51.6527 97.3488C52.0174 97.4465 52.399 97.4637 52.771 97.3991C53.0282 97.2705 53.9619 95.6546 55.1417 93.446C54.0234 97.8129 52.7039 103.695 53.1456 104.237C53.2806 104.423 53.4752 104.557 53.6969 104.617C53.9186 104.677 54.1542 104.66 54.3645 104.567C55.0075 104.293 58.0995 93.4628 58.8991 90.2198C61.2362 90.779 65.3067 91.7519 69.8301 92.7863C67.7837 99.9767 66.056 107.212 66.425 107.687C66.5548 107.873 66.7454 108.007 66.9638 108.068C67.1823 108.128 67.4149 108.11 67.6215 108.017C67.9347 107.883 70.4172 100.541 72.8718 93.4796C79.5814 94.9892 86.6041 96.4821 90.1266 96.9686C90.6857 101.548 91.709 108.811 92.3631 109.202C92.555 109.33 92.7849 109.387 93.014 109.365C93.2432 109.342 93.4576 109.241 93.6212 109.079C94.007 108.694 93.3975 101.252 92.9111 96.6107C94.8569 94.6873 98.7149 88.3579 102.019 82.5038C102.752 89.5377 104.731 106.546 105.475 107.86C105.567 107.969 105.685 108.053 105.818 108.105C105.95 108.158 106.093 108.178 106.235 108.162C106.469 108.148 106.689 108.046 106.85 107.877C107.359 107.374 105.173 84.6173 104.513 79.8759C105.749 79.8312 106.75 79.7808 107.409 79.7137C108.254 79.6299 108.427 77.4045 107.655 77.1697C106.844 76.9571 106.015 76.8168 105.178 76.7503C106.565 74.1392 107.549 72.1487 107.767 71.5113C107.812 71.3771 107.851 71.2317 107.767 71.1367C107.482 70.9476 107.176 70.7919 106.856 70.6726C108.136 67.9496 108.969 66.0877 109.003 65.9703C109.59 63.7505 96.5678 60.0714 94.3592 59.434ZM39.4916 78.1202C39.1548 78.8771 38.7367 79.5951 38.2447 80.2617L37.6856 79.5907C38.2011 79.0566 38.5355 78.374 38.6417 77.6394C38.9269 77.7959 39.212 77.9581 39.4916 78.1202ZM38.3398 77.4996C38.227 78.1669 37.9219 78.7867 37.462 79.2832C35.9188 77.2312 36.1033 76.4093 38.3398 77.4996ZM40.4309 83.5158C39.2512 82.8784 36.5673 80.0269 35.8908 78.1034C35.8461 77.9804 35.7231 77.5835 35.8125 77.494C35.8928 77.4305 35.9812 77.3778 36.0753 77.3374C36.0418 78.0531 36.8525 79.1434 37.2942 79.697C38.1161 80.7202 39.7656 82.7107 41.0851 83.0518C41.1773 83.0709 41.2725 83.0709 41.3647 83.0518C41.4821 83.2307 41.0963 83.8793 40.4309 83.5158ZM41.1746 82.7275C40.4533 82.5318 39.4077 81.5701 38.4908 80.5468C39.0049 79.8342 39.3961 79.0404 39.6482 78.1985C40.3862 78.6402 41.0292 79.0819 41.2864 79.2776C41.3005 79.2881 41.3167 79.2955 41.3338 79.2995C41.3509 79.3035 41.3687 79.3039 41.3859 79.3008C41.4032 79.2976 41.4197 79.291 41.4343 79.2812C41.4489 79.2715 41.4614 79.2588 41.4709 79.2441C41.4709 79.2441 41.6107 79.0092 41.7952 78.7185C42.3544 79.4901 43.0756 80.4518 43.6739 81.1899C42.7346 81.8888 41.5045 82.8225 41.1746 82.7275ZM46.3186 99.6356C46.9125 100.207 47.4431 100.84 47.901 101.525L47.079 101.805C46.7535 101.151 46.2315 100.615 45.5861 100.273C45.8489 100.033 46.1005 99.8145 46.3186 99.6356ZM45.3457 100.497C45.9248 100.838 46.3972 101.333 46.71 101.928C44.3561 102.672 43.5006 102.286 45.3457 100.497ZM50.7358 101.201C48.9521 102.04 46.9225 103.024 45.0662 103.007C44.9431 103.007 44.507 103.007 44.4679 102.873C44.4359 102.777 44.4171 102.678 44.412 102.577C45.2227 102.907 46.9672 102.258 47.8059 101.962C48.7732 101.632 50.2605 101.056 50.9706 100.284C50.9387 100.6 50.8596 100.909 50.7358 101.201ZM50.8644 99.8705C50.4059 100.508 49.187 101.056 48.2588 101.397C47.7608 100.682 47.1554 100.048 46.464 99.5182C48.0072 98.2881 48.0799 98.3999 48.0911 98.2434C48.0911 98.2434 48.1414 97.36 48.2085 96.4486C49.281 96.8058 50.3754 97.0934 51.485 97.3096C51.4005 98.1866 51.1973 99.0481 50.8811 99.8705H50.8644ZM103.423 62.5875C102.461 62.4533 101.634 62.5875 101.214 63.0404C101.019 63.2641 100.431 64.1587 99.5927 65.5062C98.4451 63.309 96.8466 61.3789 94.9016 59.8422C98.1446 60.7592 101.203 61.7432 103.44 62.5875H103.423ZM85.5753 56.1296C85.6927 56.1296 85.5753 56.1296 86.509 54.3571C86.6097 54.1502 85.9499 54.29 85.0441 53.6694C83.4506 52.607 83.5792 50.7675 83.9706 48.8944C84.2548 47.8284 84.6289 46.7884 85.0888 45.7856C85.5777 45.5841 86.0194 45.2833 86.386 44.9022C89.1537 46.3224 90.2161 46.0204 90.7081 46.2217C90.5975 46.4925 90.4528 46.748 90.2776 46.9822C90.2776 46.9822 90.5683 48.8441 90.149 49.7051C89.9756 50.0574 90.6186 50.2363 90.915 50.0518C91.0606 49.9397 91.1937 49.8122 91.312 49.6716C92.352 49.5038 92.4302 50.0238 91.9214 50.678C91.2896 51.4664 90.8535 51.4999 90.8032 51.8857C90.7752 52.1765 90.1937 52.7244 90.6969 52.7971C90.7278 54.3848 90.6494 55.9728 90.4621 57.5497C90.4561 57.5909 90.4639 57.6329 90.4841 57.6692C90.5043 57.7056 90.5358 57.7343 90.5739 57.751C90.9094 57.8908 91.2672 58.053 91.6139 58.2263C90.0763 60.3119 88.0858 62.2912 85.4634 61.6706C82.8411 61.0499 83.1878 58.3717 84.4235 55.9786C84.8102 56.0045 85.1949 56.0549 85.5753 56.1296ZM84.1774 56.0345C83.6854 56.9962 83.02 58.6736 83.3108 60.0211C83.6463 61.5587 85.1447 62.157 86.6656 62.0955C88.6225 62.0172 89.8303 60.9381 91.0324 59.5962C91.3902 59.188 91.7481 58.7631 92.0277 58.3773C98.2172 61.5531 101.354 69.0846 101.259 70.5048C100.141 71.1534 93.5485 71.2373 92.2345 71.2541C91.8667 69.8955 91.5829 68.5156 91.3847 67.1221C91.3847 67.1013 91.3764 67.0814 91.3617 67.0667C91.3471 67.0521 91.3271 67.0438 91.3064 67.0438C91.2856 67.0438 91.2657 67.0521 91.251 67.0667C91.2363 67.0814 91.2281 67.1013 91.2281 67.1221C91.3777 68.5791 91.6224 70.0247 91.9606 71.4498C92.0053 71.6287 92.2234 71.5784 92.9446 71.5784L93.0453 71.8188C89.0475 72.2829 86.7439 72.3779 83.445 74.0106C81.5383 72.1207 79.7267 70.242 76.9031 67.8601C75.8246 66.8699 74.6692 65.9669 73.4477 65.1595C74.4833 63.5279 75.6622 61.9917 76.9702 60.5691C77.0485 60.502 76.9423 60.3846 76.864 60.4516C75.3579 61.7085 74.1086 63.2444 73.1849 64.975C72.6593 63.8008 70.8925 59.7863 70.529 58.6401C71.4851 58.0362 79.3969 55.7438 84.1774 56.0345ZM88.6952 85.2659C89.4948 83.6948 90.4453 81.9111 91.4909 80.0716C94.4655 80.0716 97.5239 80.0157 100.202 79.9709C98.7932 82.4535 97.3059 85.087 95.9751 87.413C93.5429 86.6414 91.0771 85.9201 88.6952 85.2659ZM95.7627 87.7485C93.7442 91.271 92.1227 94.0331 91.776 94.4021C90.8479 94.4021 82.1981 92.434 73.9118 90.5441C75.03 87.3571 76.0588 84.4552 76.7857 82.5933C82.8635 84.0358 90.1657 85.9537 95.7627 87.7485ZM88.8294 80.0995L91.1945 80.0716C90.8758 80.6643 90.5627 81.2514 90.2608 81.8384C89.8414 81.3185 89.3606 80.7314 88.8294 80.0995ZM77.876 80.0995C77.3616 80.189 77.3169 79.6634 73.5372 90.4826L70.9596 89.8899C74.141 78.9645 75.2817 78.0475 75.4326 78.0475C75.9135 77.371 92.4973 76.4372 101.963 76.8678L100.403 79.6187C92.0892 79.7305 79.956 79.6914 77.876 80.0772V80.0995ZM99.8723 76.4876C92.0444 76.3366 81.0687 76.9013 76.9479 77.5275C75.3152 77.3933 76.987 76.2919 78.5358 76.0514C79.71 75.8725 80.9792 75.9228 81.2364 75.7942C82.5783 75.1233 83.1207 73.3732 93.2801 72.1207C93.5205 72.0872 93.364 71.8188 93.2801 71.6007C95.603 71.6268 97.9249 71.496 100.23 71.2093C100.454 72.5414 100.564 73.89 100.56 75.2407C100.472 75.7134 100.23 76.1438 99.8723 76.4652V76.4876ZM59.3352 49.6492C59.5733 49.7182 59.795 49.8345 59.9871 49.9911C60.1792 50.1477 60.3378 50.3414 60.4535 50.5606C60.6552 50.9896 60.7765 51.4521 60.8113 51.9249C60.4591 51.3266 60.2019 50.8402 60.1292 50.7731C59.9335 50.5774 58.5021 50.706 58.1275 50.2139C57.7529 49.7219 58.7593 49.4815 59.3352 49.6268V49.6492ZM53.7103 47.5692C54.331 46.848 56.506 45.5955 56.506 45.7353C56.78 45.9198 57.8647 47.586 58.8935 49.2914C58.0883 49.2914 57.4118 49.7778 57.8535 50.4096C58.2952 51.0415 59.3352 50.9688 59.8887 51.0638C60.2905 51.694 60.6437 52.3538 60.9455 53.0376C60.3864 53.3563 58.6307 54.4074 58.2225 54.6087C57.546 53.8147 53.8893 47.9718 53.7103 47.5692ZM61.1524 60.5131C59.9646 58.7642 58.9337 56.9137 58.0716 54.9833C58.1834 55.0281 58.2896 54.9833 58.435 54.8939C58.9941 54.6031 60.7274 53.5799 61.2307 53.2836C61.4487 53.1494 61.2754 52.8139 61.158 52.5511C64.4121 55.179 68.0073 59.6856 68.1136 59.7192C68.8721 59.651 69.6216 59.5049 70.3501 59.2831C70.8645 60.6529 72.0275 63.32 72.5866 64.5724C68.6615 61.9389 64.6861 60.2168 61.1524 60.5131ZM62.1756 79.6243C67.2078 80.7146 70.8086 81.4806 73.3582 81.8105C72.5699 83.9296 71.6473 86.7756 70.7415 89.8117C64.8259 88.4586 59.6763 87.2788 58.4909 87.0551C60.3472 83.3481 62.0023 79.9877 62.1756 79.6243ZM54.2024 104.226C54.0731 104.274 53.9319 104.278 53.7998 104.239C53.6678 104.2 53.552 104.119 53.4699 104.008C53.2574 103.259 54.672 96.7729 55.6617 92.5123C56.1202 91.6456 56.601 90.7119 57.0875 89.7669L58.6866 90.1639C57.8479 93.2951 54.7112 103.488 54.2024 104.226ZM67.465 107.715C67.3352 107.763 67.1933 107.767 67.061 107.727C66.9287 107.686 66.8133 107.604 66.7325 107.491C66.6486 106.373 68.231 99.6188 70.0873 92.8478L72.4972 93.4069C70.2271 100.055 67.9179 106.904 67.465 107.715ZM93.3528 108.833C93.2515 108.926 93.1215 108.982 92.9842 108.991C92.847 109.001 92.7107 108.963 92.598 108.884C92.1115 108.252 91.038 101.419 90.4062 97.0077C92.2905 97.2537 92.3464 97.1363 92.6427 96.8735C93.0397 101.347 93.5094 108.134 93.3752 108.822L93.3528 108.833ZM106.571 107.642C106.471 107.728 106.346 107.779 106.215 107.787C106.084 107.795 105.953 107.76 105.844 107.687C105.195 106.535 103.048 88.9841 102.226 82.1963C102.662 81.4191 103.087 80.6531 103.495 79.9094H104.357C104.854 84.1868 106.738 106.094 106.571 107.631V107.642ZM107.577 77.5164C107.985 77.6394 107.829 79.3168 107.404 79.3615C106.599 79.4398 105.307 79.4957 103.702 79.5404C104.172 78.6793 104.619 77.863 105.033 77.0746C105.892 77.1402 106.744 77.2843 107.577 77.5052V77.5164ZM107.437 71.3659C106.878 73.2893 95.0693 94.9613 92.1954 96.7617C91.0156 97.5053 59.6539 90.2031 57.1602 89.6327C57.5795 88.822 58.0045 87.9945 58.4126 87.1782C69.0361 89.6327 91.2896 95.0507 91.927 94.7376C92.6595 94.3742 104.938 72.1319 105.939 70.7397C106.453 70.9064 106.954 71.112 107.437 71.3547V71.3659ZM108.639 65.8696C107.944 67.4305 107.234 68.985 106.509 70.5328C106.291 70.4489 106.095 70.3818 105.989 70.3539C105.942 70.3317 105.889 70.3252 105.837 70.3352C105.786 70.3453 105.739 70.3714 105.704 70.4098C105.492 70.6446 104.027 73.2055 102.126 76.5602C101.522 76.5323 100.884 76.5099 100.225 76.4987C100.52 76.1519 100.713 75.73 100.784 75.2798C100.884 74.676 100.616 72.6407 100.398 71.1758C101.114 71.036 101.589 70.8571 101.628 70.6167C101.779 69.8283 100.269 66.7531 99.8164 65.9032C100.705 64.4774 101.332 63.5269 101.494 63.3088C102.763 61.8495 108.846 64.7402 108.639 65.8585V65.8696Z" fill="black"/>
</svg>
