<svg width="113" height="113" viewBox="0 0 113 113" fill="none" xmlns="http://www.w3.org/2000/svg">
<path d="M95.9795 36.7054C95.7 37.8236 94.0058 37.2645 93.3852 37.0576C93.3325 37.0376 93.2741 37.0394 93.2227 37.0624C93.1713 37.0855 93.1312 37.128 93.1112 37.1806C93.1112 37.2421 92.9379 37.8348 92.7142 38.6959C92.7003 38.7445 92.7032 38.7963 92.7225 38.843C92.7417 38.8897 92.7763 38.9285 92.8204 38.9531C93.5563 39.3355 94.368 39.5494 95.1968 39.5793C95.247 39.5823 95.2947 39.6022 95.3322 39.6357C95.3698 39.6691 95.3949 39.7143 95.4036 39.7638L95.521 40.3957C95.5251 40.4244 95.5349 40.4521 95.5499 40.4771C95.5648 40.502 95.5846 40.5237 95.608 40.5409C95.6314 40.5581 95.6581 40.5704 95.6864 40.5772C95.7146 40.5839 95.744 40.5849 95.7727 40.5802L97.4501 40.3397C97.4802 40.3346 97.5089 40.3232 97.5344 40.3062C97.5598 40.2893 97.5814 40.2672 97.5977 40.2414C97.6141 40.2155 97.6248 40.1865 97.6292 40.1563C97.6336 40.126 97.6317 40.0952 97.6234 40.0658C97.5675 39.8477 97.4836 39.5066 97.4109 39.1991C97.4003 39.1583 97.402 39.1152 97.416 39.0754C97.4299 39.0355 97.4554 39.0007 97.4892 38.9755C97.9329 38.6255 98.2508 38.1408 98.395 37.5944C99.0827 34.9888 96.1585 33.3059 96.1585 33.3059C94.3581 32.2547 92.703 31.6844 93.0553 30.6612C93.4746 29.4367 95.2918 30.4263 95.8509 30.7954C95.899 30.8241 95.9562 30.8337 96.0111 30.8223C96.066 30.8109 96.1146 30.7794 96.1473 30.7338L96.9972 29.3528C97.0257 29.3032 97.0346 29.2447 97.0222 29.1888C97.0098 29.1329 96.9769 29.0837 96.9301 29.0509C95.3477 27.9717 94.5482 28.3016 94.4866 27.9326L94.3469 27.0044C94.3385 26.9459 94.3074 26.8931 94.2603 26.8575C94.2131 26.8219 94.1538 26.8064 94.0953 26.8143L92.457 27.0659C92.4277 27.0705 92.3997 27.0811 92.3747 27.0971C92.3498 27.1131 92.3284 27.1342 92.3121 27.1589C92.2958 27.1837 92.2848 27.2116 92.2799 27.2408C92.275 27.2701 92.2763 27.3 92.2837 27.3287C92.485 28.1507 92.5688 28.296 92.3676 28.3967C91.9551 28.6038 91.6004 28.9098 91.3351 29.2874C91.0697 29.6649 90.9019 30.1023 90.8467 30.5605C90.5 34.6142 96.6114 34.234 95.9795 36.7054ZM26.9994 44.0356C26.8093 45.2881 24.6958 45.1539 23.9633 45.0756C23.8926 45.069 23.822 45.0897 23.7659 45.1333C23.7098 45.1769 23.6725 45.2402 23.6614 45.3104L23.516 47.1052C23.5054 47.1584 23.5149 47.2137 23.5429 47.2602C23.5708 47.3068 23.615 47.3412 23.667 47.3568C24.5771 47.5709 25.5245 47.5709 26.4347 47.3568C26.4873 47.3427 26.5433 47.3494 26.5912 47.3754C26.6391 47.4014 26.6751 47.4448 26.6919 47.4966L26.91 48.3297C26.9194 48.3577 26.9343 48.3835 26.9538 48.4057C26.9732 48.4279 26.9969 48.446 27.0234 48.459C27.0499 48.472 27.0788 48.4796 27.1082 48.4814C27.1377 48.4832 27.1672 48.4792 27.1951 48.4695C27.808 48.1744 28.4415 47.924 29.0906 47.7203C29.1564 47.695 29.2102 47.6459 29.2413 47.5826C29.2724 47.5194 29.2785 47.4467 29.2583 47.3792C29.1689 47.1611 29.0123 46.6356 28.9005 46.3169C28.8854 46.2717 28.8831 46.2232 28.894 46.1768C28.9048 46.1303 28.9284 46.0879 28.962 46.0541C29.4263 45.5762 29.7327 44.9672 29.8398 44.3096C30.3542 41.2959 26.8373 40.3006 26.8373 40.3006C24.6734 39.6744 22.7277 39.5234 23.0128 38.3213C23.3539 36.8787 25.4954 37.4658 26.2055 37.6783C26.2715 37.696 26.3418 37.6893 26.4033 37.6596C26.4649 37.6298 26.5138 37.5789 26.5409 37.5161L27.3293 35.794C27.343 35.7687 27.3516 35.7409 27.3545 35.7123C27.3574 35.6837 27.3546 35.6547 27.3463 35.6272C27.338 35.5996 27.3243 35.574 27.306 35.5518C27.2877 35.5296 27.2653 35.5112 27.2398 35.4977C26.3856 35.1611 25.4655 35.0253 24.5504 35.1007C24.4998 35.1069 24.4486 35.0953 24.4057 35.0677C24.3628 35.0401 24.3309 34.9984 24.3156 34.9497L24.0304 33.9433C24.0215 33.9125 24.006 33.8841 23.9848 33.86C23.9637 33.8359 23.9375 33.8168 23.9082 33.804C23.8788 33.7912 23.847 33.785 23.815 33.7859C23.7829 33.7868 23.7515 33.7947 23.7229 33.8091L21.9001 34.3291C21.8337 34.3521 21.7787 34.3997 21.7464 34.4622C21.7142 34.5246 21.7072 34.5971 21.7268 34.6645C22.0679 35.7828 22.1629 35.8946 21.9616 36.0512C21.52 36.3729 21.1592 36.793 20.9078 37.2782C20.6565 37.7634 20.5215 38.3005 20.5135 38.8469C20.5638 43.3199 27.4467 41.184 26.9994 44.0356ZM53.4687 18.7908C53.7763 18.9585 53.1277 19.6071 53.4687 19.7413L54.8051 20.1271C54.8297 20.1346 54.8556 20.1369 54.8811 20.1339C54.9067 20.1308 54.9313 20.1224 54.9534 20.1092C54.9755 20.0961 54.9947 20.0784 55.0096 20.0574C55.0244 20.0364 55.0348 20.0126 55.0399 19.9873C55.2356 19.2269 55.2412 19.1486 55.3866 19.1151C55.8628 18.9984 56.292 18.739 56.6166 18.3714C58.1766 16.6493 56.7229 14.3904 56.7229 14.3904C55.8339 12.987 54.8498 11.9973 55.5207 11.3487C56.3259 10.566 57.2317 11.9079 57.5168 12.3999C57.5289 12.4195 57.5446 12.4365 57.5633 12.4499C57.5819 12.4634 57.603 12.473 57.6254 12.4782C57.6477 12.4834 57.6709 12.4841 57.6936 12.4802C57.7162 12.4764 57.7379 12.4681 57.7573 12.4558L58.9314 11.701C58.9528 11.6893 58.9716 11.6735 58.9869 11.6545C59.0021 11.6355 59.0134 11.6137 59.0202 11.5903C59.0269 11.5669 59.029 11.5424 59.0262 11.5183C59.0235 11.4941 59.016 11.4707 59.0041 11.4494C58.6976 10.8712 58.2636 10.3702 57.7349 9.98446C57.5951 9.87822 57.6566 9.78317 57.953 9.03394C57.9626 9.0117 57.9674 8.98764 57.9668 8.9634C57.9663 8.93916 57.9605 8.91533 57.9499 8.89354C57.9393 8.87175 57.924 8.85253 57.9053 8.83719C57.8865 8.82185 57.8646 8.81076 57.8411 8.80469L56.544 8.43566C56.4943 8.42372 56.442 8.43166 56.3981 8.45777C56.3542 8.48389 56.3223 8.52612 56.3091 8.57545L56.1134 9.26318C56.1028 9.30323 56.0798 9.33888 56.0476 9.36501C56.0155 9.39113 55.9759 9.40638 55.9345 9.40855C55.537 9.42844 55.1497 9.54153 54.8039 9.7387C54.4581 9.93587 54.1636 10.2116 53.944 10.5436C52.0374 13.4623 56.667 15.2627 55.1964 16.9009C54.5479 17.6278 53.5191 16.6549 53.1556 16.2803C53.1212 16.2468 53.075 16.2281 53.027 16.2281C52.979 16.2281 52.9329 16.2468 52.8984 16.2803L51.9982 17.2755C51.9709 17.3086 51.956 17.3501 51.956 17.393C51.956 17.4358 51.9709 17.4773 51.9982 17.5104C52.3834 18.0446 52.8866 18.4827 53.4687 18.7908ZM63.9245 33.3785C63.9283 33.4232 63.9478 33.4652 63.9795 33.4969C64.0112 33.5286 64.0531 33.5481 64.0978 33.5519C76.5217 34.6198 77.0529 35.2852 77.2598 35.0448C77.4667 34.8043 77.7574 33.9265 77.3604 33.8482C73.1079 32.9397 68.7804 32.4268 64.4333 32.3162C64.0867 32.3162 63.8965 33.0095 63.9245 33.3785ZM51.1987 28.9223C50.7402 28.9223 52.9096 29.3472 63.712 31.6005C67.8493 31.8448 71.9693 32.3245 76.0521 33.0375C76.0572 33.0393 76.0627 33.0401 76.0681 33.0398C76.0736 33.0396 76.0789 33.0382 76.0838 33.0359C76.0888 33.0336 76.0932 33.0303 76.0969 33.0262C76.1005 33.0222 76.1034 33.0175 76.1052 33.0123C76.107 33.0072 76.1078 33.0017 76.1076 32.9963C76.1073 32.9908 76.1059 32.9855 76.1036 32.9805C76.1013 32.9756 76.098 32.9712 76.0939 32.9675C76.0899 32.9639 76.0852 32.961 76.08 32.9592C70.0246 30.0517 58.417 28.5924 51.1987 28.9223Z" fill="black"/>
<path d="M95.7952 44.6059C98.5237 44.6059 102.365 43.2976 103.657 40.692C107.269 33.3841 103.835 25.0363 99.1835 22.9899C97.6683 22.3301 96.1251 22.1791 93.5083 22.4307C92.5429 22.5441 91.61 22.8499 90.7649 23.3301C89.9197 23.8103 89.1795 24.4551 88.588 25.2264C83.4439 31.6117 87.0615 44.6059 95.7952 44.6059ZM86.8491 30.0685C88.2637 22.5705 94.7552 20.8931 99.1164 24.9412C105.58 30.9351 103.36 43.4988 95.9853 44.1307C90.1423 44.6507 85.4512 37.4602 86.8435 30.1132L86.8491 30.0685Z" fill="black"/>
<path d="M92.6527 41.8214C93.4459 42.2407 94.3276 42.4649 95.2248 42.4756C98.6746 42.4756 102.046 38.612 101.375 32.8641C100.531 25.4947 93.6592 21.9331 89.8235 26.6577C86.2619 31.0469 87.7156 39.2717 92.6527 41.8214ZM93.6816 24.9412C96.7624 24.6504 100.458 27.6194 101.068 32.9088C101.772 39.0593 97.3998 43.8287 92.8373 41.4524C90.9642 40.4795 88.8115 38.0305 88.3642 34.0662C87.9169 30.102 89.7285 25.3102 93.6816 24.9412ZM52.6916 22.1176C53.2374 22.3416 53.8237 22.4503 54.4135 22.4369C55.0034 22.4234 55.5841 22.288 56.1191 22.0393C61.8166 19.6071 63.7456 9.17926 58.6072 7.03219C55.2524 5.62877 51.769 9.00592 50.4327 12.411C49.0069 16.0454 49.471 20.7868 52.6916 22.1176ZM57.0696 7.0881C60.3573 7.0881 61.6657 10.7448 61.1792 14.1499C60.7431 17.186 58.9427 20.0991 56.6279 21.4187C54.3131 22.7382 52.0709 22.0561 50.908 20.032C48.2409 15.3577 52.2666 7.0881 57.0696 7.0881Z" fill="black"/>
<path d="M52.8258 23.89C53.8225 24.3642 54.9045 24.6323 56.0073 24.6784C59.1496 24.6784 62.3702 21.9722 63.9525 17.9688C65.697 13.4958 64.8304 8.69843 61.9341 6.78619C61.1068 6.3639 60.2555 5.9905 59.3844 5.66793C54.0727 3.45377 47.5141 10.7896 48.6379 18.3714C49.0684 21.2342 50.5893 23.2526 52.8258 23.89ZM49.6947 12.1035C50.5095 9.88255 51.9945 7.9697 53.9441 6.62964C55.7501 5.46105 57.6455 5.19267 59.2838 5.86922C64.8751 8.18962 63.6115 18.9082 57.735 22.6991C51.6293 26.6354 46.6754 19.7636 49.6947 12.1035ZM23.5273 54.3963C26.4981 54.5748 29.4218 53.5902 31.6794 51.6509C37.5895 47.8097 38.2716 39.35 33.6084 33.8258C30.1083 29.6771 24.4555 28.2345 19.8706 30.3145C7.36838 34.2228 11.0307 53.3843 23.5273 54.3963ZM25.6296 29.7945C35.599 31.0693 39.9658 44.0915 32.6076 50.5271C25.406 56.8061 13.5971 50.7172 13.7593 40.39C13.8655 33.988 19.1325 28.9949 25.6296 29.8001V29.7945Z" fill="black"/>
<path d="M20.9888 49.8673C22.1119 50.5134 23.3581 50.9164 24.6468 51.0503C25.9356 51.1842 27.238 51.0459 28.47 50.6445C33.8376 48.8441 36.2251 42.2575 33.0884 36.7724C29.9517 31.2874 23.024 30.0069 18.7131 33.7419C13.6865 38.1255 15.0508 46.5181 20.9888 49.8673ZM24.3883 32.0701C28.9676 32.0701 33.0604 35.6094 33.8935 40.3844C35.2914 48.3297 26.7646 53.8595 20.083 48.8385C18.8039 47.8797 17.7692 46.6326 17.0629 45.1986C16.3566 43.7646 15.9986 42.1841 16.0181 40.5857C16.1187 35.8219 19.7531 32.0701 24.3883 32.0701ZM63.2368 50.9744C63.1936 50.9748 63.1519 50.9904 63.1189 51.0184C63.086 51.0464 63.064 51.0851 63.0567 51.1276C63.0494 51.1702 63.0572 51.2141 63.0789 51.2514C63.1006 51.2888 63.1347 51.3174 63.1753 51.3322C64.9142 51.8914 65.1546 50.6613 64.4221 49.0286C64.4081 48.9864 64.3778 48.9514 64.3379 48.9315C64.2981 48.9116 64.2519 48.9083 64.2097 48.9224C64.1674 48.9365 64.1325 48.9668 64.1126 49.0066C64.0926 49.0465 64.0894 49.0926 64.1034 49.1348C64.2196 49.6357 64.2834 50.1473 64.2935 50.6613C64.2712 50.9017 64.26 50.9856 63.2368 50.9744ZM59.4291 51.1086C59.211 52.786 61.1736 54.1838 62.5602 53.524C62.5972 53.5049 62.6261 53.4731 62.6416 53.4345C62.6571 53.3958 62.6581 53.3529 62.6446 53.3135C62.631 53.2742 62.6037 53.241 62.5677 53.2201C62.5317 53.1992 62.4893 53.192 62.4484 53.1997C62.1309 53.2477 61.807 53.2314 61.4959 53.1518C61.1848 53.0723 60.8928 52.9311 60.6373 52.7366C60.3818 52.5421 60.168 52.2983 60.0084 52.0196C59.8489 51.7409 59.747 51.433 59.7087 51.1142C59.7094 51.0771 59.6954 51.0413 59.6697 51.0145C59.644 50.9878 59.6088 50.9723 59.5717 50.9716C59.5346 50.9709 59.4988 50.9849 59.472 51.0106C59.4453 51.0363 59.4298 51.0715 59.4291 51.1086ZM61.3357 48.2962C61.8949 48.3856 62.1912 46.6523 61.6209 46.5628C61.0506 46.4734 60.7598 48.2011 61.3357 48.2962ZM66.6531 47.0493C66.094 46.9542 65.7808 48.7882 66.4182 48.7882C66.955 48.7882 67.2178 47.1443 66.6531 47.0493ZM62.6385 44.6506C62.1577 43.6945 60.6536 43.6498 59.9659 44.6506C59.9388 44.6869 59.9256 44.7318 59.9286 44.777C59.9317 44.8222 59.9508 44.8648 59.9825 44.8972C60.0142 44.9296 60.0564 44.9496 60.1015 44.9536C60.1467 44.9576 60.1918 44.9453 60.2287 44.919C60.5215 44.673 60.8896 44.5344 61.2719 44.5263C61.6543 44.5182 62.028 44.6409 62.331 44.8743C62.3653 44.8981 62.4062 44.9107 62.448 44.9103C62.4898 44.9098 62.5305 44.8964 62.5643 44.8718C62.5981 44.8472 62.6234 44.8127 62.6367 44.773C62.65 44.7334 62.6506 44.6906 62.6385 44.6506ZM68.0565 45.5788C68.0818 45.6137 68.1182 45.639 68.1597 45.6505C68.2012 45.662 68.2454 45.6591 68.2851 45.6422C68.3247 45.6253 68.3574 45.5955 68.3779 45.5575C68.3983 45.5196 68.4053 45.4758 68.3976 45.4334C68.3174 45.2066 68.1847 45.0019 68.0103 44.8361C67.8359 44.6703 67.6248 44.5481 67.3943 44.4794C67.1637 44.4107 66.9201 44.3975 66.6834 44.4409C66.4468 44.4842 66.2237 44.5829 66.0325 44.7289C65.9996 44.7549 65.9766 44.7914 65.9672 44.8323C65.9578 44.8731 65.9626 44.916 65.9809 44.9537C65.9991 44.9915 66.0296 45.0219 66.0675 45.04C66.1053 45.0581 66.1482 45.0627 66.189 45.0532C66.5136 44.915 66.8756 44.8918 67.2152 44.9874C67.5548 45.0829 67.8516 45.2916 68.0565 45.5788ZM19.7419 85.0591C19.7145 86.278 19.979 87.4858 20.5135 88.5816C20.5268 88.6155 20.5529 88.6428 20.586 88.6578C20.6192 88.6727 20.6569 88.6742 20.6911 88.6618C20.7253 88.6494 20.7534 88.6242 20.7693 88.5915C20.7852 88.5588 20.7877 88.5211 20.7763 88.4866C20.4137 87.3837 20.2251 86.2311 20.2172 85.0703C20.2172 84.472 20.3681 83.7843 20.6309 83.7004C20.7595 83.6613 21.0726 83.7339 21.7156 84.6733C21.7349 84.7052 21.7661 84.7281 21.8023 84.737C21.8384 84.7459 21.8767 84.7401 21.9085 84.7208C21.9404 84.7015 21.9633 84.6704 21.9723 84.6342C21.9812 84.598 21.9753 84.5598 21.9561 84.5279C20.9552 82.5094 19.7978 83.0518 19.7419 85.0591ZM26.116 100.754C25.3307 100.66 24.5856 100.355 23.9595 99.8714C23.3335 99.3881 22.8499 98.7444 22.5599 98.0086C22.5392 97.9674 22.5046 97.9349 22.4623 97.9167C22.4199 97.8986 22.3725 97.896 22.3284 97.9093C22.2843 97.9227 22.2463 97.9512 22.2212 97.9898C22.196 98.0284 22.1853 98.0747 22.1909 98.1204C22.3771 99.0085 22.8729 99.8015 23.5899 100.358C24.3069 100.914 25.1983 101.197 26.1048 101.156C26.1313 101.157 26.1576 101.153 26.1823 101.143C26.207 101.134 26.2296 101.12 26.2488 101.101C26.268 101.083 26.2835 101.062 26.2942 101.037C26.305 101.013 26.311 100.987 26.3117 100.961C26.3124 100.934 26.308 100.908 26.2985 100.883C26.2891 100.859 26.2749 100.836 26.2567 100.817C26.2385 100.798 26.2168 100.782 26.1926 100.771C26.1685 100.761 26.1424 100.755 26.116 100.754ZM25.8085 87.4522C25.3109 87.7821 26.0713 89.0121 26.6025 89.0121C26.6563 89.0108 26.7091 88.9976 26.7573 88.9736C26.8055 88.9497 26.8479 88.9154 26.8815 88.8733C26.915 88.8312 26.939 88.7823 26.9516 88.73C26.9643 88.6777 26.9653 88.6232 26.9547 88.5704C26.9268 88.0448 26.2446 87.1446 25.8085 87.4522ZM28.1345 86.8148C27.7599 86.5911 27.4915 86.8148 27.5083 87.1502C27.5362 87.6758 28.2016 88.5648 28.6265 88.2685C29.0515 87.9722 28.6601 87.1446 28.1345 86.8148ZM15.6994 85.6462C13.2001 85.2883 11.2263 85.6462 9.6328 86.647C9.57608 86.6834 9.53438 86.7389 9.51538 86.8036C9.38535 87.223 9.40914 87.675 9.58248 88.0784C9.5954 88.1058 9.61388 88.1302 9.63675 88.15C9.65962 88.1699 9.68637 88.1847 9.7153 88.1937C9.74423 88.2026 9.7747 88.2054 9.80478 88.202C9.83486 88.1985 9.86388 88.1888 9.89 88.1734C11.6306 87.2676 13.6208 86.9591 15.554 87.2956C15.5765 87.3014 15.5998 87.3024 15.6227 87.2986C15.6456 87.2949 15.6674 87.2864 15.6868 87.2738C15.7063 87.2612 15.7229 87.2447 15.7356 87.2254C15.7484 87.206 15.757 87.1843 15.7609 87.1614C15.8507 86.722 15.8845 86.273 15.8615 85.8251C15.8594 85.7811 15.8421 85.7392 15.8125 85.7066C15.7829 85.6739 15.743 85.6526 15.6994 85.6462ZM31.7129 93.2951C30.8463 93.2951 30.9245 95.7776 31.7688 95.7553C32.6131 95.7329 32.5572 93.2951 31.7129 93.2951ZM34.0277 93.8542C33.8991 93.3398 33.5021 93.2616 33.189 93.6865C32.7305 94.2959 32.697 95.6546 33.2953 95.6546C33.8935 95.6546 34.1955 94.4972 34.0277 93.8542ZM55.4481 99.6301H53.7707C53.7037 99.6326 53.6399 99.6596 53.5915 99.706C53.5431 99.7523 53.5133 99.8148 53.5079 99.8817L53.3849 100.961C53.38 101.045 53.4074 101.127 53.4615 101.192C53.5155 101.256 53.5921 101.298 53.6756 101.307C54.3187 101.375 54.9671 101.375 55.6102 101.307C55.6909 101.299 55.765 101.259 55.8163 101.196C55.8676 101.133 55.892 101.053 55.8842 100.972L55.7724 99.9376C55.7633 99.8563 55.7257 99.7809 55.6664 99.7246C55.6071 99.6683 55.5297 99.6348 55.4481 99.6301ZM56.6278 99.8929L56.5384 100.961C56.5352 101.047 56.5654 101.131 56.6227 101.196C56.6799 101.26 56.7599 101.3 56.8459 101.307C57.5137 101.366 58.1854 101.366 58.8532 101.307C58.9363 101.298 59.0123 101.256 59.0654 101.191C59.1186 101.127 59.1447 101.044 59.1384 100.961C58.993 100.228 59.1383 99.6413 58.6687 99.6301C58.199 99.6189 57.5113 99.6301 56.8962 99.6301C56.8269 99.6327 56.7609 99.6611 56.7113 99.7097C56.6617 99.7582 56.632 99.8235 56.6278 99.8929ZM59.9435 101.307C60.5962 101.369 61.2533 101.369 61.9061 101.307C61.9872 101.299 62.0618 101.259 62.114 101.197C62.1662 101.134 62.1919 101.053 62.1856 100.972L62.0738 99.9376C62.063 99.8531 62.0219 99.7753 61.9582 99.7188C61.8944 99.6623 61.8123 99.6307 61.7271 99.6301H59.9938C59.9262 99.6324 59.8618 99.6592 59.8124 99.7055C59.7631 99.7518 59.7322 99.8144 59.7254 99.8817L59.6416 100.95C59.6377 100.993 59.6425 101.037 59.6556 101.078C59.6688 101.12 59.69 101.158 59.718 101.191C59.7461 101.225 59.7805 101.252 59.8192 101.272C59.8579 101.292 59.9001 101.304 59.9435 101.307ZM63.0299 101.307C63.7205 101.358 64.4137 101.358 65.1043 101.307C65.1454 101.305 65.1856 101.294 65.2225 101.275C65.2595 101.257 65.2924 101.231 65.3194 101.2C65.3464 101.169 65.367 101.133 65.38 101.094C65.393 101.054 65.3981 101.013 65.395 100.972L65.2776 99.932C65.2619 99.8471 65.217 99.7704 65.1506 99.7152C65.0842 99.6601 65.0005 99.6299 64.9142 99.6301H63.0802C63.011 99.6309 62.9445 99.657 62.8931 99.7032C62.8417 99.7495 62.8088 99.813 62.8007 99.8817L62.7168 100.95C62.713 100.994 62.7181 101.038 62.732 101.081C62.7458 101.123 62.768 101.162 62.7972 101.195C62.8264 101.229 62.8621 101.256 62.9021 101.275C62.9421 101.294 62.9856 101.305 63.0299 101.307ZM83.578 96.7394C81.9006 96.3871 76.0241 99.0542 75.834 99.261C75.3755 99.7475 75.588 101.224 75.9738 101.654C76.3596 102.085 86.9328 106.63 90.5113 107.38C91.5009 107.452 94.9843 105.842 95.9069 105.411C97.0251 104.852 98.2273 104.405 98.4286 103.304C98.4286 103.304 98.6354 101.928 98.1099 101.548C94.9508 99.5574 88.5207 97.7682 83.578 96.7394ZM83.5165 97.0916C87.2291 97.8017 94.5426 99.9767 97.6849 101.799C96.7959 102.504 91.5345 104.942 90.7629 105.07C87.8554 103.51 79.6194 100.597 76.136 99.5462C76.354 99.3281 81.9398 96.7953 83.4886 97.0916H83.5165ZM90.7461 106.843C89.024 106.843 77.9308 102.258 76.3932 101.442C76.0745 101.274 75.9403 100.323 76.0297 99.8202C78.6577 100.804 90.1143 104.97 90.6231 105.507C90.7536 105.702 90.8309 105.928 90.8476 106.162C90.8643 106.396 90.8196 106.631 90.7181 106.843H90.7461ZM98.0148 103.22C97.875 103.969 97.1929 104.293 95.8342 104.936C94.3429 105.662 92.7968 106.27 91.2102 106.753C91.3371 106.311 91.2973 105.838 91.0983 105.423C92.4458 105.07 97.0307 103.035 98.0036 102.101C98.0426 102.474 98.0314 102.85 97.9701 103.22H98.0148Z" fill="black"/>
<path d="M95.879 101.565C95.6554 101.117 83.5446 97.3656 83.0525 97.4718C81.7442 97.7626 80.816 98.031 78.1769 99.3561C78.1483 99.3689 78.1239 99.3896 78.1068 99.4159C78.0897 99.4422 78.0806 99.4729 78.0806 99.5043C78.0806 99.5357 78.0897 99.5663 78.1068 99.5926C78.1239 99.6189 78.1483 99.6397 78.1769 99.6525C81.2913 100.804 90.6008 104.126 90.7798 104.092C95.9126 101.716 96.03 101.861 95.879 101.565ZM79.2728 99.6748C80.4487 99.0188 81.7092 98.5277 83.019 98.2155C87.3187 99.2723 91.5066 100.698 94.7216 101.844C93.3315 102.355 91.9788 102.962 90.6735 103.661C88.1351 102.694 83.3209 100.916 79.2728 99.6748Z" fill="black"/>
<path d="M98.205 91.668C98.1932 91.4973 98.1394 91.3321 98.0484 91.1872C98.2069 91.1844 98.3622 91.142 98.5001 91.0639C98.638 90.9858 98.7542 90.8744 98.8381 90.74C98.9221 90.6055 98.971 90.4522 98.9805 90.294C98.9901 90.1357 98.9599 89.9776 98.8927 89.8341C103.958 85.2939 110.271 77.5332 109.936 76.605C109.706 75.9844 109.706 77.4717 89.8068 74.279C85.6413 65.1093 80.6091 56.1352 69.2084 55.7829C69.1605 55.7818 69.1136 55.7973 69.0759 55.8269C69.0382 55.8565 69.0119 55.8983 69.0015 55.9451C68.2858 59.065 66.0269 66.2331 60.5195 65.372C56.3931 64.7234 53.4576 59.9988 52.3618 55.5649C53.4805 55.6118 54.6012 55.5857 55.7165 55.4866C55.7547 55.483 55.7909 55.4677 55.82 55.4426C55.849 55.4176 55.8696 55.3841 55.8787 55.3468C56.3385 53.4302 56.4315 51.4439 56.1527 49.4927C56.1496 49.4688 56.1413 49.4458 56.1285 49.4253C56.1157 49.4048 56.0987 49.3873 56.0785 49.3741C56.0583 49.3608 56.0355 49.352 56.0117 49.3484C55.9878 49.3447 55.9634 49.3463 55.9402 49.3529C54.4417 49.7443 53.9721 47.5805 54.4249 46.5573C54.4896 46.3954 54.6075 46.2604 54.7593 46.1746C54.911 46.0888 55.0874 46.0574 55.2594 46.0854C55.4315 46.1134 55.5888 46.1993 55.7055 46.3288C55.8221 46.4583 55.8911 46.6237 55.9011 46.7977C55.9011 47.5301 57.5785 45.8304 57.3548 44.0971C57.5896 44.0971 57.8189 44.0971 58.0425 44.0579C58.3724 44.0188 57.9643 42.744 59.2503 41.5586C59.1161 41.9746 59.0987 42.4194 59.1999 42.8446C59.2726 43.0794 60.3182 43.1018 60.9221 42.9341C61.1401 42.8782 61.0395 42.3023 61.9732 40.5522C63.5359 40.8834 65.1284 41.0539 66.7259 41.061C67.3772 41.5505 67.97 42.1133 68.4927 42.7384C70.9529 45.685 67.8944 54.5249 64.3887 56.4986C62.9741 57.2926 61.593 57.0578 60.1952 56.2246C60.0442 56.1296 59.9324 56.0569 59.8485 56.1743C59.8246 56.2002 59.8112 56.2341 59.8112 56.2694C59.8112 56.3046 59.8246 56.3386 59.8485 56.3644C62.018 58.1536 64.5956 57.8964 66.6643 55.0449C66.9942 55.0952 68.1908 55.2014 68.3417 54.8995C68.569 54.3813 68.7215 53.8335 68.7946 53.2724C69.2531 54.4634 68.8282 55.3412 69.2643 55.2965C69.7937 55.2743 70.3065 55.1059 70.746 54.81C70.7636 54.7948 70.7777 54.7759 70.7874 54.7546C70.797 54.7334 70.802 54.7103 70.8019 54.687C70.8159 53.9615 70.7427 53.2369 70.5839 52.5288C71.3611 53.647 71.389 54.1223 71.54 54.1391C71.8587 54.1894 72.9378 53.3898 72.921 53.1718C72.7475 52.3156 72.4177 51.4986 71.9481 50.7619C71.7024 50.1679 71.6326 49.5158 71.7469 48.8832C72.2109 49.7873 72.5495 50.7505 72.7533 51.746C72.7868 51.9249 72.798 52.0256 72.9769 52.02C73.2957 51.994 73.6062 51.9051 73.8903 51.7582C74.1744 51.6114 74.4265 51.4096 74.632 51.1645C74.6535 51.1418 74.6689 51.1139 74.6768 51.0836C74.6846 51.0533 74.6846 51.0215 74.6767 50.9912C74.5775 50.5539 74.4371 50.1271 74.2574 49.7163C75.124 50.1581 76.0689 49.7163 76.0801 49.4424C76.1528 47.3121 75.644 46.4287 75.001 45.7577C75.1743 45.8527 76.3373 45.8024 76.6113 45.165C76.658 44.94 76.658 44.7079 76.6113 44.4829C76.5339 44.0157 76.3596 43.5699 76.0996 43.1741C75.8396 42.7784 75.4997 42.4414 75.1017 42.1848C74.1623 41.5362 73.3572 41.2343 73.0832 40.1999C74.4866 40.6472 74.4531 41.8773 76.0801 42.6266C76.099 42.6398 76.1214 42.6469 76.1444 42.6469C76.1674 42.6469 76.1899 42.6398 76.2087 42.6266C77.0027 42.2072 77.1425 41.184 76.9524 41.0778C75.644 40.3677 75.4595 38.1982 72.8763 37.8348C74.0784 37.5329 74.5537 37.7286 74.5928 37.4322C74.6359 37.173 74.6163 36.9073 74.5356 36.6573C74.4548 36.4073 74.3153 36.1802 74.1288 35.9952C72.9274 35.7415 71.6837 35.7683 70.4944 36.0735C70.6342 35.4305 70.7292 34.9553 70.7292 34.9553C70.7292 34.8211 71.3331 34.9161 63.2536 34.206C56.723 32.6181 57.1367 32.674 57.1032 32.8194C57.1032 32.8473 56.9075 35.6486 57.0025 37.7733C57.0696 39.2103 59.8485 40.0657 61.593 40.4571C61.1347 41.1026 60.8375 41.8484 60.7264 42.6321C60.3039 42.6012 59.8797 42.6012 59.4571 42.6321C59.4877 42.1863 59.5512 41.7434 59.6472 41.307C59.692 41.0778 59.7087 41.0051 59.6472 40.9548C59.4515 40.7982 57.8301 41.7767 57.8524 43.7504C57.2374 43.7504 57.0193 43.6889 56.5161 43.6554C56.43 42.5069 56.7463 41.3643 57.4107 40.4236L57.4499 40.3677C57.4616 40.3533 57.4704 40.3369 57.4758 40.3191C57.4812 40.3014 57.483 40.2828 57.4812 40.2644C57.4794 40.2459 57.4739 40.228 57.4652 40.2117C57.4565 40.1954 57.4446 40.1809 57.4303 40.1692C57.416 40.1574 57.3995 40.1486 57.3818 40.1432C57.364 40.1379 57.3454 40.136 57.327 40.1378C57.3086 40.1397 57.2907 40.1451 57.2743 40.1538C57.258 40.1626 57.2435 40.1744 57.2318 40.1887C56.7914 40.6893 56.4685 41.2819 56.2866 41.9233C56.1047 42.5647 56.0685 43.2386 56.1806 43.8958C56.1871 43.935 56.2057 43.9711 56.2338 43.9992C56.2618 44.0273 56.298 44.0459 56.3372 44.0523C56.5608 44.0859 56.7901 44.1027 57.0193 44.1138C56.9443 44.9487 56.6427 45.7471 56.1471 46.4231C56.0705 46.2217 55.9396 46.0455 55.7688 45.9142C55.598 45.7829 55.3941 45.7016 55.1798 45.6794C53.0886 45.4614 53.4521 50.2084 55.8116 49.7331C55.8116 50.9073 55.8116 51.6509 55.7277 52.9537L54.9841 53.3787C54.6845 52.6794 54.2873 52.0262 53.8043 51.4385C53.7923 51.4252 53.7776 51.4147 53.7612 51.4075C53.7448 51.4002 53.7272 51.3965 53.7093 51.3965C53.6914 51.3965 53.6737 51.4002 53.6573 51.4075C53.6409 51.4147 53.6263 51.4252 53.6142 51.4385C53.4055 52.2676 53.3505 53.128 53.4521 53.9769C53.019 53.9778 52.5905 53.8883 52.194 53.7141C51.986 52.4896 51.9465 51.2424 52.0766 50.0071C52.0804 49.9719 52.0734 49.9364 52.0565 49.9053C52.0395 49.8742 52.0135 49.8491 51.9818 49.8332C51.9501 49.8174 51.9144 49.8117 51.8794 49.8167C51.8443 49.8218 51.8117 49.8375 51.7858 49.8617C50.9893 50.5867 50.345 51.4629 49.8904 52.4393C49.4069 52.3253 48.9803 52.0416 48.6883 51.6398C49.5158 49.543 50.7626 49.0678 50.813 46.7977C50.8154 46.7656 50.8082 46.7335 50.7923 46.7056C50.7764 46.6776 50.7525 46.655 50.7238 46.6406C50.695 46.6262 50.6626 46.6207 50.6307 46.6248C50.5988 46.6288 50.5688 46.6423 50.5446 46.6635C49.7955 47.26 49.0876 47.9063 48.4255 48.5981C48.0704 48.2677 47.8296 47.833 47.7377 47.3568C49.102 46.3839 50.1476 45.4949 50.2986 43.7504C50.2986 43.7113 50.2986 43.5994 50.2315 43.5603C50.1644 43.5212 50.1532 43.5603 49.3592 44.1194C48.8763 44.416 48.4487 44.7944 48.0956 45.2377C47.7281 44.855 47.5271 44.3424 47.5364 43.8119C48.979 42.6154 50.265 42.5371 50.5446 40.4571C50.5489 40.4321 50.5463 40.4063 50.5371 40.3826C50.5278 40.3589 50.5123 40.3382 50.4922 40.3227C50.4721 40.3072 50.4481 40.2974 50.4228 40.2945C50.3976 40.2916 50.372 40.2956 50.3489 40.3062C49.4641 40.703 48.6486 41.2391 47.9334 41.8941C47.7002 41.5826 47.5328 41.2268 47.4414 40.8485C50.3377 39.4898 50.8521 37.6335 52.7587 36.9849C52.9153 36.9346 52.9097 36.8172 52.8147 36.7557C52.5351 36.5879 50.4607 36.4929 48.61 37.7006C48.3605 37.2942 48.2343 36.8242 48.2465 36.3475C51.5119 35.1118 52.619 35.2628 54.492 35.5591C53.7396 37.3428 53.2499 39.2262 53.0383 41.1504C53.1837 41.4636 54.0336 41.4132 54.0336 41.4132C54.1206 39.8961 54.3871 38.3946 54.8275 36.9402C54.7134 38.2882 54.6687 39.6412 54.6933 40.9939C55.0278 41.0058 55.3624 40.9738 55.6886 40.8988C55.6215 38.7406 55.6215 34.9497 56.7398 31.9583L62.8902 33.3561C62.9086 33.3596 62.9276 33.3588 62.9456 33.3538C62.9636 33.3488 62.9803 33.3398 62.9943 33.3274C63.0083 33.315 63.0193 33.2995 63.0265 33.2822C63.0336 33.2649 63.0368 33.2462 63.0356 33.2275C63.0011 32.8842 63.0734 32.5386 63.2425 32.2379C63.3487 32.0534 63.8351 32.2379 50.4719 29.3192C50.4032 29.3065 50.3323 29.3194 50.2726 29.3554C50.2128 29.3915 50.1683 29.4482 50.1476 29.5149C49.8904 30.3648 50.3321 30.5046 50.3321 30.5046L55.8396 31.757C55.7173 32.3404 55.5471 32.9126 55.3307 33.468C54.5591 32.8473 53.4129 32.5342 53.2172 32.7299C52.6581 33.289 52.6078 34.1333 52.7699 34.2452C53.1809 34.5065 53.5733 34.7961 53.9441 35.1118C51.8641 34.6869 50.0973 35.1118 47.9614 35.9841C47.925 36.0009 47.8942 36.0277 47.8724 36.0614C47.8507 36.095 47.8389 36.1341 47.8384 36.1742C47.8298 36.8358 48.0467 37.4806 48.4534 38.0025C48.6994 38.3156 49.5325 37.2086 51.8809 37.0073C50.5334 37.695 49.6444 39.2941 47.4078 40.4851C47.1842 40.6081 47.0835 40.664 47.0891 40.7758C47.0973 41.0688 47.1673 41.3567 47.2944 41.6207C47.4216 41.8847 47.6032 42.1189 47.8272 42.3078C48.09 42.4197 47.8272 42.2296 50.1476 40.7479C49.5885 42.4588 48.5429 42.319 47.1674 43.5435C46.9885 43.7001 47.0388 44.8128 47.9446 45.6626C47.9812 45.6985 48.0304 45.7186 48.0816 45.7186C48.1328 45.7186 48.182 45.6985 48.2186 45.6626C48.7144 45.09 49.2776 44.5793 49.896 44.1418C49.2865 46.2945 47.2345 46.8871 47.3128 47.2562C47.3256 47.6147 47.4274 47.9643 47.6089 48.2737C47.7905 48.5831 48.0461 48.8425 48.3528 49.0286C48.6883 49.1572 48.5317 48.8497 50.4719 47.1835C50.2371 49.2355 48.7106 49.8226 48.3025 51.6006C48.2242 51.8187 48.8169 52.663 49.9799 52.9369C50.4439 53.0376 50.1029 52.238 51.6572 50.4824C51.5435 51.5997 51.5717 52.7269 51.7411 53.8372C51.825 54.3068 53.0663 54.3963 53.6813 54.3292C54.0503 54.2789 53.6813 54.0944 53.7931 51.9976C54.9561 54.1726 54.4305 54.1391 55.6662 53.4122C55.6215 53.9713 55.5712 54.5305 55.5041 55.0896C52.9768 54.9386 52.2499 55.1623 52.2276 55.0561C52.2052 54.9498 52.1716 54.7653 52.0207 54.7597C36.365 54.2845 25.7415 68.4193 23.1024 83.801C20.8435 80.9942 18.5175 81.5533 17.6005 83.5886C10.3318 82.6157 4.90821 85.9593 3.80672 92.1265C3.06308 96.2865 3.91855 99.3952 6.60239 102.191C6.24454 106.295 7.16152 106.463 8.83891 106.776C10.0484 106.994 11.2932 106.909 12.4621 106.53C12.5687 106.507 12.6644 106.449 12.7334 106.364C12.8025 106.28 12.8409 106.175 12.8423 106.066C13.3623 106.066 14.4246 106.032 14.7937 105.59C14.9074 105.386 14.9543 105.152 14.9279 104.919C16.7339 105.154 16.007 104.629 16.4319 106.178C16.6332 106.921 16.801 107.106 17.4272 107.296C18.8642 107.693 23.5776 107.821 23.9299 106.25C24.6512 106.306 26.6305 106.373 27.0387 105.484C27.17 104.926 27.219 104.351 27.184 103.779C30.3823 103.002 32.7418 101.145 34.011 98.4C40.5193 98.0589 45.3838 96.6275 48.8784 94.0276C50.3097 96.5325 51.8865 96.3256 51.1149 94.3798C52.3729 95.7441 53.4297 94.9389 52.3897 93.0267C52.6719 93.308 53.0398 93.4871 53.4353 93.5355L55.3084 97.3935H54.4194C54.2628 97.3935 54.246 97.4942 54.2348 97.6004C54.231 97.6581 54.231 97.716 54.2348 97.7737C54.222 97.7707 54.2086 97.7707 54.1957 97.7737H52.5183C52.0934 97.8185 51.7803 98.646 51.4 99.6021C50.7626 101.28 50.757 101.766 50.7459 102.319C50.7115 102.74 50.7698 103.162 50.9166 103.557C51.0635 103.953 51.2953 104.311 51.5957 104.606C51.9704 104.981 66.6476 105.205 66.9439 104.83C67.3189 104.421 67.5703 103.914 67.6693 103.368C67.7682 102.821 67.7106 102.258 67.503 101.744C67.503 101.71 66.094 98.3888 65.8257 98.154C65.4217 97.9619 64.9744 97.879 64.5285 97.9135H64.439V97.7178C64.4322 97.6555 64.4029 97.5979 64.3565 97.5556C64.3102 97.5134 64.2501 97.4896 64.1874 97.4886C63.6283 97.4886 63.2313 97.4606 62.7728 97.4886C62.5491 97.4886 62.5827 97.7626 62.5715 97.8968H61.9173C61.9173 97.8017 61.9173 97.5445 61.6489 97.5389H59.9715C59.7647 97.5389 59.7926 97.7905 59.7814 97.8464H59.2223C59.2223 97.8129 59.2223 97.483 58.9539 97.4774C58.6855 97.4718 58.2047 97.4774 57.9251 97.4774C57.9283 97.429 57.9283 97.3804 57.9251 97.332C57.8804 96.9518 55.5376 92.3558 55.3363 91.9755H78.7025C83.8017 92.6633 87.1398 92.9708 92.9547 93.2727C93.6369 94.5196 95.0962 94.4525 95.2975 93.6138C96.2928 93.9213 96.9749 93.6529 96.9749 92.6297C97.2019 92.6669 97.4348 92.6331 97.642 92.5331C97.8491 92.433 98.0203 92.2715 98.1323 92.0706C108.577 92.0706 108.364 92.1657 108.359 91.8805C108.353 91.5953 108.61 91.668 98.205 91.668ZM69.2867 40.4459C69.7586 39.1832 70.1325 37.8858 70.4049 36.5656C71.3778 36.1406 72.8819 36.2077 73.989 36.409C74.167 36.6524 74.263 36.9461 74.263 37.2477C73.4933 37.2462 72.7357 37.4385 72.06 37.8068C72.0434 37.8152 72.0288 37.827 72.0173 37.8414C72.0057 37.8559 71.9974 37.8727 71.9929 37.8907C71.9426 38.0752 72.183 38.0864 72.3731 38.1088C75.3197 38.4722 75.1687 40.5466 76.7343 41.2846C76.6264 41.674 76.4248 42.031 76.1472 42.3246C74.604 41.3573 74.6096 40.0266 72.9099 39.8533C72.8904 39.8521 72.871 39.8554 72.8531 39.8628C72.8351 39.8703 72.8191 39.8817 72.8061 39.8962C72.7932 39.9107 72.7838 39.928 72.7785 39.9467C72.7732 39.9654 72.7722 39.9851 72.7757 40.0042C72.9714 42.4924 76.0186 41.827 76.3485 45.0364C76.0248 45.2461 75.6494 45.3622 75.2638 45.3719C75.1649 44.7766 74.8933 44.2234 74.4828 43.7811C74.0723 43.3388 73.5409 43.0267 72.9546 42.8838C72.933 42.8764 72.9099 42.8745 72.8873 42.8781C72.8648 42.8818 72.8435 42.8909 72.8252 42.9047C72.807 42.9185 72.7925 42.9365 72.7829 42.9573C72.7733 42.978 72.7689 43.0007 72.7701 43.0235C72.817 43.5325 72.9725 44.0254 73.2262 44.4691C73.4799 44.9128 73.8258 45.297 74.2406 45.5955C75.2526 46.5069 75.767 47.2226 75.7111 49.3305C75.5236 49.428 75.3176 49.4849 75.1066 49.4974C74.8956 49.5099 74.6844 49.4778 74.4866 49.4032C74.7214 47.1667 73.1782 45.5285 73.0385 46.0484C72.4514 48.2235 73.7933 48.9168 74.2574 50.9576C73.9512 51.2549 73.5606 51.4502 73.1391 51.5168C72.8962 50.3629 72.4392 49.2648 71.7916 48.2794C71.7808 48.2542 71.7629 48.2327 71.7401 48.2175C71.7172 48.2024 71.6904 48.1944 71.663 48.1944C71.6356 48.1944 71.6088 48.2024 71.5859 48.2175C71.563 48.2327 71.5451 48.2542 71.5344 48.2794C70.8746 50.5942 71.8307 50.9576 72.58 53.0823C72.3041 53.3228 71.9976 53.5259 71.6686 53.6862C71.2101 52.3834 69.8849 50.9968 70.0583 51.7572C70.2531 52.6793 70.3876 53.6132 70.4609 54.5528C70.1373 54.7085 69.7892 54.8069 69.4321 54.8436C69.4979 54.048 69.2778 53.255 68.8114 52.6071C68.7995 52.5865 68.7824 52.5694 68.7618 52.5576C68.7411 52.5459 68.7178 52.5398 68.694 52.54C68.3977 52.54 68.7499 53.0432 67.9951 54.5696C67.6502 54.6465 67.295 54.6654 66.9439 54.6255C68.1941 52.6873 69.0844 50.5394 69.5718 48.285C70.3658 44.3431 69.4097 42.6433 67.3353 41.0163C68.1125 41.0274 69.0407 40.9044 69.2867 40.4459ZM74.906 45.6794C74.2574 45.0252 73.5081 44.5611 73.1223 43.264C73.5997 43.4828 74.0138 43.8191 74.3257 44.2416C74.6377 44.6641 74.8373 45.1588 74.906 45.6794ZM74.1064 49.4312C73.5864 48.3688 73.0776 47.8097 73.2677 46.4175C73.9009 47.2884 74.1987 48.3584 74.1064 49.4312ZM53.0048 34.0271C53.0778 33.6909 53.2291 33.3768 53.4465 33.1101C54.0728 33.2297 54.667 33.4792 55.191 33.8426C55.012 34.3067 54.8163 34.7931 54.6318 35.3019C54.2578 34.6975 53.6811 34.2456 53.0048 34.0271ZM23.2813 104.17C23.1471 104.757 23.3931 105.484 23.3819 106.021C23.3484 107.229 18.7803 107.167 17.5278 106.843C17.265 106.77 17.019 106.709 16.8457 106.077C16.7562 105.753 16.7115 105.518 16.6724 105.294C16.4207 103.919 16.4487 105.395 11.2488 103.706C11.0312 103.619 10.8041 103.557 10.5722 103.522C10.5407 103.52 10.5094 103.529 10.484 103.548C10.4585 103.566 10.4406 103.594 10.4332 103.624C10.4259 103.655 10.4296 103.687 10.4438 103.716C10.458 103.744 10.4817 103.766 10.5107 103.779C11.1184 104.072 11.7557 104.299 12.4118 104.455C12.3447 106.071 12.4845 106.099 12.3055 106.133C11.201 106.472 10.0303 106.538 8.89483 106.323C7.25098 106.01 6.68626 105.842 7.03292 102.129C7.08883 101.537 3.1805 99.1939 4.38263 92.2104C5.39466 86.3786 10.3877 83.2307 17.4216 83.9911C16.9188 85.7426 17.0232 87.6127 17.7179 89.2973C17.7291 89.3329 17.7539 89.3626 17.7869 89.3799C17.8199 89.3972 17.8585 89.4007 17.8941 89.3896C17.9296 89.3784 17.9594 89.3536 17.9767 89.3206C17.994 89.2876 17.9974 89.249 17.9863 89.2134C16.2642 83.2922 19.837 79.5125 23.6783 85.4057C23.7052 85.4454 23.7444 85.4752 23.7899 85.4903C23.8353 85.5055 23.8846 85.5052 23.9299 85.4896C29.0571 83.8122 29.8567 88.3859 31.9478 89.6719C30.3935 90.3597 29.7616 93.2168 29.6498 94.7041C29.4653 97.0413 30.2537 100.894 32.3057 100.228C28.4421 104.528 23.572 102.94 23.2813 104.17ZM29.8008 83.1133C29.0624 83.6477 28.5108 84.4008 28.224 85.266C27.4212 84.8059 26.494 84.6103 25.5737 84.7068C29.1913 80.9383 32.1715 81.8832 30.1195 86.9881C29.705 86.4552 29.2218 85.9795 28.6825 85.5735C28.8721 84.7139 29.321 83.9333 29.9685 83.337C29.9982 83.3147 30.0178 83.2816 30.023 83.2449C30.0283 83.2082 30.0187 83.1709 29.9965 83.1413C29.9742 83.1116 29.9411 83.092 29.9044 83.0868C29.8677 83.0815 29.8304 83.0911 29.8008 83.1133ZM33.7147 97.9527C33.4726 98.6266 33.032 99.2114 32.4511 99.6301C30.6451 100.653 29.9965 96.7729 30.1586 94.7097C30.2816 93.1553 31.042 89.9627 32.5797 89.9627C34.3297 89.9794 35.051 94.7992 33.7259 97.9527H33.7147ZM51.4 91.5059C51.3876 91.4901 51.3721 91.4769 51.3545 91.4671C51.3369 91.4573 51.3176 91.4511 51.2976 91.4487C51.2776 91.4464 51.2574 91.448 51.238 91.4535C51.2187 91.459 51.2006 91.4682 51.1848 91.4807C51.169 91.4932 51.1558 91.5087 51.146 91.5262C51.1362 91.5438 51.13 91.5632 51.1276 91.5831C51.1253 91.6031 51.1269 91.6234 51.1324 91.6427C51.1379 91.6621 51.1471 91.6802 51.1596 91.696C51.6325 92.3103 52.0095 92.9927 52.2779 93.72C52.4009 94.1002 52.4512 94.5476 52.3282 94.6314C52.2052 94.7153 51.8194 94.4972 51.5119 94.24C50.7235 93.5803 50.3936 92.9205 50.2259 93.0323C50.142 93.077 50.1755 93.1833 50.2259 93.2727C50.4495 93.6865 51.2547 95.3974 50.8186 95.4478C50.3824 95.4981 49.5158 94.2736 49.2362 93.8207C49.1188 93.625 49.0014 93.4069 48.8057 93.5523C44.4836 96.6667 38.7413 97.511 34.2179 97.88C35.1684 95.4086 35.0398 91.914 33.9272 90.3261C33.7857 90.0844 33.5843 89.8833 33.3423 89.7422C33.1004 89.6012 32.8261 89.525 32.5461 89.521C31.7466 89.2414 30.9917 88.0896 30.3767 87.2844C31.4949 84.5894 31.4949 82.8114 30.304 82.174H30.2704C28.4756 81.38 26.3062 83.0854 24.9811 84.7963C24.6465 84.8629 24.3161 84.9488 23.9914 85.0535C23.8348 84.7963 23.6671 84.5447 23.5049 84.3098C24.0257 81.8618 24.6941 79.4475 25.5066 77.0803C28.4924 76.8566 39.9434 80.1387 43.1305 82.146C43.1405 82.1528 43.1519 82.1574 43.1638 82.1594C43.1758 82.1614 43.188 82.1608 43.1997 82.1576C43.2114 82.1544 43.2223 82.1487 43.2316 82.1409C43.2408 82.1331 43.2483 82.1234 43.2535 82.1125C46.0491 76.1353 45.8982 71.5896 43.6281 65.8976C43.2591 64.9639 44.0586 65.1037 44.327 65.6404C48.4926 74.0833 44.7911 83.8122 42.2135 87.8492C39.4178 85.6965 37.4832 84.1589 34.011 83.7563C33.9663 83.7493 33.9206 83.7601 33.8837 83.7863C33.8468 83.8126 33.8216 83.8522 33.8136 83.8968C33.8056 83.9413 33.8153 83.9873 33.8407 84.0248C33.8661 84.0623 33.9052 84.0883 33.9495 84.0974C39.7198 85.4002 41.7774 89.0681 46.7369 91.5059C46.7858 91.5298 46.8418 91.535 46.8942 91.5206C46.9467 91.5062 46.9922 91.4731 47.022 91.4276C48.308 89.4203 50.1029 88.3803 51.9815 88.5425C51.8131 88.6401 51.6604 88.7626 51.5286 88.9059C51.2267 89.2302 51.3945 89.4315 51.6405 89.8676C51.6149 89.8937 51.6005 89.9289 51.6005 89.9655C51.6005 90.0021 51.6149 90.0372 51.6405 90.0633C53.9105 91.7687 54.6877 95.1123 51.4 91.5059ZM66.6308 104.478C65.5685 104.478 54.0615 104.411 51.8921 104.243C51.64 103.937 51.4513 103.585 51.3371 103.206C51.2228 102.826 51.1853 102.428 51.2267 102.034C56.5156 102.483 61.8299 102.55 67.1284 102.236C67.2146 102.623 67.2147 103.025 67.1287 103.412C67.0427 103.799 66.8727 104.163 66.6308 104.478ZM57.858 99.015V98.9815C58.2883 99.0041 58.7194 99.0041 59.1496 98.9815C59.4571 98.9479 59.3118 98.5453 59.2838 98.2378H59.7703C59.7703 98.5621 59.6025 98.9982 59.938 99.0374C60.5662 99.1045 61.1997 99.1045 61.8279 99.0374C62.1577 99.0038 61.9732 98.5565 61.962 98.2434H62.5603C62.5603 98.5062 62.3926 98.9479 62.7337 98.9927C63.276 99.057 63.824 99.057 64.3663 98.9927C64.5285 98.9927 64.562 98.8529 64.5564 98.7131C64.5564 98.7131 64.5564 98.5174 64.5229 98.3273C64.881 98.3085 65.2398 98.3482 65.5852 98.4447C65.6747 98.5733 66.7985 101.207 67.0502 101.911C63.2592 101.911 54.3131 101.772 51.2659 101.71C51.4 101.05 52.3114 98.2714 52.5686 98.1651H54.1622C54.1731 98.1683 54.1847 98.1683 54.1957 98.1651C54.1957 98.3608 54.1957 98.5398 54.1622 98.5677C54.1622 98.7522 54.1622 98.9032 54.3802 98.9256C55.2106 98.9796 56.0436 98.9796 56.8739 98.9256C57.1703 99.0653 57.2989 99.1157 57.3436 99.1324C57.584 99.261 57.7574 99.2107 57.858 99.015ZM57.4722 97.1196C57.5688 97.6745 57.5688 98.242 57.4722 98.797C57.1479 98.6684 56.1806 98.1484 56.1191 98.1204C56.0576 98.0925 55.8563 97.6451 53.7819 93.4237C53.8464 93.3647 53.898 93.293 53.9336 93.2132C53.9692 93.1333 53.988 93.047 53.9888 92.9596C54.028 92.2943 53.3961 91.0865 52.1157 90.0465C51.7243 89.2246 51.3721 89.1463 52.4512 88.7158C53.1054 88.453 53.0998 88.6319 53.2284 88.8668C54.3299 90.8293 55.8172 93.5299 57.461 97.1196H57.4722ZM54.5759 90.4994L53.754 88.9898C55.2692 89.3979 56.175 89.9739 56.2869 90.3485C56.3987 90.7231 55.0624 90.5386 54.5759 90.4994ZM92.8373 92.8534C81.1738 92.0035 69.8458 90.3149 65.9543 89.5936C71.8587 84.4888 80.3128 77.8854 84.4056 73.6975C93.1504 75.7048 102.052 76.8398 109.494 76.8902C108.739 78.8359 101.47 86.5855 98.574 89.5433C97.7465 89.1296 96.0523 89.6216 96.2313 90.505C95.3255 90.4715 95.0179 90.7846 94.9117 90.9803C94.8608 91.0738 94.8341 91.1786 94.8341 91.285C94.8341 91.3915 94.8608 91.4962 94.9117 91.5897C94.3861 91.5897 93.8941 91.7575 93.8829 92.2719C93.1784 92.0315 92.7982 92.3781 92.8373 92.8254V92.8534ZM93.2846 93.0211C93.0386 92.5403 93.4691 92.4955 93.9891 92.708C94.2234 93.0641 94.5667 93.3348 94.9676 93.4796C94.8278 94.1003 93.6425 93.7312 93.2846 92.9932V93.0211ZM96.399 93.1665C95.9293 93.5467 94.1625 92.8198 94.2911 92.2607C94.319 92.0874 94.5874 91.9308 95.2416 91.9979C95.6419 92.2853 96.103 92.4766 96.5891 92.557C96.6005 92.6619 96.5894 92.768 96.5566 92.8683C96.5238 92.9685 96.4701 93.0606 96.399 93.1385V93.1665ZM97.7856 91.8358C97.6962 92.1265 97.411 92.2272 96.891 92.1489C95.2136 91.8917 94.5147 90.8349 96.4996 90.9523C96.8285 91.1735 97.2229 91.276 97.6179 91.2431C97.6956 91.3123 97.7525 91.4018 97.7822 91.5016C97.8118 91.6013 97.813 91.7074 97.7856 91.8078V91.8358ZM96.7457 90.6057C96.1865 90.0465 98.1826 89.5769 98.5069 90.0465C98.5422 90.1128 98.5606 90.1867 98.5606 90.2618C98.5606 90.3369 98.5422 90.4108 98.5069 90.4771C98.2777 90.93 97.0588 90.8964 96.7457 90.5777V90.6057Z" fill="black"/>
</svg>
