<svg width="113" height="113" viewBox="0 0 113 113" fill="none" xmlns="http://www.w3.org/2000/svg">
<path d="M109.782 83.0401C109.75 82.8981 109.632 82.8466 109.503 82.7605C109.503 82.7605 109.788 76.2981 109.788 76.2248C109.788 73.8021 106.321 71.7317 101.366 71.0808C101.606 70.9834 101.815 70.8196 101.966 70.6086C102.117 70.3976 102.206 70.148 102.221 69.8888C102.271 69.8781 102.317 69.8539 102.355 69.8188C102.392 69.7837 102.419 69.7391 102.432 69.6897C104.195 63.2983 105.543 57.5398 104.171 51.7908C102.793 45.8595 98.4883 39.4742 93.7022 36.262C88.8523 33.1421 83.0129 31.944 77.3263 32.9022C77.2861 32.8066 77.2475 32.7098 77.2095 32.6103C77.7256 32.6621 78.2429 32.5232 78.6638 32.2199C79.0846 31.9165 79.3799 31.4697 79.4941 30.9637C79.6009 30.3648 79.3711 30.4822 79.6462 30.4604C80.3723 30.3227 81.015 29.9048 81.4354 29.2969C81.8681 28.575 81.715 27.1576 80.912 26.7249C81.0905 26.4426 81.2315 26.1383 81.3314 25.8196C81.7485 24.4515 80.7913 24.0662 79.928 23.5641C78.7577 22.92 79.0512 20.6986 78.4463 19.4215C77.319 16.8864 74.5172 14.4134 71.9883 15.3583C70.5281 14.7153 68.9095 14.5219 67.3389 14.8025C65.7683 15.0831 64.3169 15.8251 63.1697 16.9339C61.9736 18.1362 61.0686 19.5962 60.5238 21.2022C59.979 22.8081 59.809 24.5175 60.0268 26.1993C60.2447 27.1818 60.3329 28.1886 60.289 29.194C60.2303 29.9595 59.5621 30.6125 59.4268 31.492C59.3513 31.7806 59.3561 32.0843 59.4409 32.3702C59.5256 32.6562 59.687 32.9135 59.9076 33.1142C60.1282 33.315 60.3995 33.4515 60.6921 33.5091C60.9848 33.5666 61.2876 33.5429 61.5677 33.4406C61.6053 33.8283 61.7469 34.1987 61.9776 34.5125C62.2083 34.8264 62.5195 35.0721 62.8783 35.2237C63.2422 35.3564 63.6366 35.3814 64.0142 35.2956C64.3919 35.2099 64.7368 35.0169 65.0075 34.74C65.1993 34.9849 65.7238 35.3965 65.9989 35.3691C66.2618 35.4169 66.5332 35.3646 66.7595 35.2225C66.9858 35.0803 67.1507 34.8585 67.2217 34.6008C67.753 34.9846 68.3627 35.2459 69.007 35.3662C69.6514 35.4865 70.3143 35.4626 70.9483 35.2964V35.3137C58.8917 38.5522 54.0273 49.8031 53.0527 50.8274C52.8283 50.9796 52.5709 51.0763 52.3018 51.1097C49.4502 51.6325 47.0549 53.6113 44.9403 55.3592C42.4801 57.3933 42.238 57.3765 42.1558 57.5342C40.21 56.8302 38.8759 57.4089 38.1574 58.5227C36.4549 58.6429 35.9936 61.1221 35.5888 62.804C35.354 63.7791 35.0246 65.2133 35.3048 66.1733C35.2617 66.2292 35.2421 66.2762 32.8121 70.4507C32.4655 70.3355 32.1138 70.2378 31.7571 70.1577C31.5451 70.074 31.3185 70.0333 31.0907 70.0379C30.8628 70.0425 30.6381 70.0924 30.4297 70.1845C29.9774 70.4467 29.6354 70.8638 29.4669 71.3587C29.2874 71.7177 29.1006 72.1454 28.8898 72.6839C28.7318 70.7095 28.6998 68.7271 28.7942 66.7487C28.9541 62.4366 28.7193 58.038 28.5348 53.7466C30.658 51.5933 32.5607 49.2333 34.2144 46.7015C34.2517 46.7175 34.2919 46.7251 34.3323 46.7239C34.3728 46.7228 34.4125 46.7128 34.4487 46.6948C35.6196 46.0933 36.758 45.4308 37.8594 44.7099C38.7239 44.9042 39.6221 44.8913 40.4806 44.6725C40.7004 45.6789 41.7616 46.1681 42.621 46.5651C42.6649 46.5853 42.7133 46.5938 42.7615 46.5897C42.8097 46.5856 42.8559 46.5691 42.8958 46.5418C42.9357 46.5145 42.9678 46.4773 42.989 46.4338C43.0102 46.3904 43.0198 46.3422 43.0169 46.2939C42.9982 45.8397 42.8446 45.4013 42.5757 45.0348C42.3068 44.6682 41.9348 44.39 41.5072 44.2358C41.661 44.1474 41.8075 44.0535 41.9461 43.9562C41.994 43.9801 42.0478 43.9898 42.101 43.984C42.1542 43.9783 42.2047 43.9574 42.2464 43.9238C42.6305 43.6146 44.8776 45.1013 47.2517 44.4578C47.401 44.4169 48.1016 44.2156 48.1916 44.3403C48.2355 44.398 48.3 44.4364 48.3717 44.4474C48.4433 44.4584 48.5164 44.4412 48.5755 44.3993C48.6347 44.3575 48.6753 44.2943 48.6888 44.2231C48.7023 44.152 48.6876 44.0783 48.6479 44.0177C47.8986 42.8995 45.6062 41.9025 43.3848 42.668C43.9378 42.2219 44.3783 41.6521 44.6708 41.0046C44.9473 40.319 45.1533 39.6071 45.2858 38.8799C45.2955 38.8242 45.2881 38.767 45.2646 38.7156C45.2411 38.6643 45.2026 38.6213 45.1542 38.5922C45.1058 38.5632 45.0497 38.5495 44.9934 38.5529C44.937 38.5563 44.883 38.5768 44.8385 38.6115C44.0161 39.2308 43.2437 39.9137 42.5282 40.654C42.2014 41.044 41.955 41.4948 41.8032 41.9805C41.6514 42.4662 41.5972 42.977 41.6436 43.4837C41.3334 43.7045 41.0007 43.8919 40.6512 44.0429C39.9586 44.2698 39.2245 44.3408 38.5013 44.2509C39.5077 43.472 40.5505 42.4466 40.8737 41.1197C41.1623 40.7528 41.4239 40.3654 41.6565 39.9607C42.1804 38.9117 42.3084 37.0274 42.219 35.8745C42.2151 35.826 42.1987 35.7793 42.1712 35.7391C42.1438 35.6989 42.1064 35.6665 42.0626 35.6452C42.0188 35.6239 41.9702 35.6144 41.9217 35.6177C41.8731 35.6209 41.8262 35.6368 41.7856 35.6637C40.9457 36.2347 40.3016 37.05 39.9405 37.9992C39.937 38.0086 39.934 38.0181 39.9316 38.0277C39.6352 39.114 39.7357 40.2703 40.215 41.2892C40.219 41.2975 40.2235 41.3055 40.2285 41.3132C39.5189 43.2791 36.4851 44.9984 34.6444 45.968C37.9802 39.9774 35.8287 37.5391 38.1569 30.9665C39.2356 30.6062 40.2439 30.062 41.1371 29.3578C42.1044 29.364 42.9028 29.6972 43.9109 29.6296C44.9271 29.5082 45.8935 29.1214 46.7127 28.508C46.7474 28.4819 46.7756 28.4481 46.795 28.4093C46.8144 28.3705 46.8245 28.3277 46.8245 28.2843C46.8245 27.7582 44.3057 27.2952 42.8105 27.752C43.5907 26.8227 44.2086 25.7685 44.6383 24.6337C45.0534 24.6819 45.4733 24.6006 45.8405 24.4011C46.1117 24.2994 46.3834 24.1808 46.6546 24.0617C47.4506 23.798 48.1961 23.4009 48.8592 22.8876C48.9005 22.8533 48.931 22.8079 48.9471 22.7567C48.9633 22.7056 48.9644 22.6509 48.9503 22.5991C48.9362 22.5474 48.9075 22.5008 48.8677 22.4649C48.8279 22.429 48.7785 22.4053 48.7256 22.3966C47.6624 22.2198 46.5706 22.3862 45.6084 22.8719C45.6778 22.6189 45.7 22.3552 45.6739 22.0942C45.6296 21.7526 45.6296 21.4069 45.6739 21.0653C45.6989 21.0383 45.7184 21.0066 45.7313 20.9721C45.7441 20.9375 45.75 20.9008 45.7486 20.8639C45.7472 20.8271 45.7386 20.7909 45.7232 20.7574C45.7079 20.7239 45.6861 20.6937 45.659 20.6686C45.632 20.6436 45.6003 20.6241 45.5658 20.6112C45.5312 20.5984 45.4944 20.5925 45.4576 20.5939C45.4208 20.5953 45.3846 20.6039 45.3511 20.6193C45.3176 20.6346 45.2874 20.6564 45.2623 20.6835C44.3588 21.4757 43.5178 23.0173 44.1922 24.2272C43.7092 25.5876 42.9437 26.8303 41.9461 27.8737C40.9485 28.9171 39.7414 29.7375 38.404 30.281C39.7403 26.7411 41.6123 23.3388 42.3739 19.6094C43.7655 19.5333 44.0714 18.1696 44.6227 17.5087C44.6593 17.4633 44.6808 17.4075 44.6842 17.3492C44.6875 17.291 44.6725 17.2331 44.6413 17.1838C44.6101 17.1345 44.5643 17.0961 44.5102 17.0742C44.4561 17.0522 44.3965 17.0478 44.3398 17.0614C43.6859 17.1874 43.0986 17.5432 42.6842 18.0645C42.6842 17.2185 42.1944 17.1022 41.6727 15.1889C41.657 15.1309 41.623 15.0796 41.5759 15.0424C41.5287 15.0052 41.4708 14.9843 41.4108 14.9826C41.3507 14.9809 41.2918 14.9986 41.2426 15.033C41.1934 15.0674 41.1566 15.1168 41.1376 15.1738C40.9242 15.8354 40.8517 16.5344 40.9246 17.2258C41.0023 17.951 41.3454 18.622 41.888 19.1095C41.5147 20.479 41.0358 21.8175 40.4555 23.1129C40.2514 22.3441 40.1695 21.5481 40.2128 20.7539C40.2171 20.68 40.1919 20.6074 40.1427 20.5521C40.0936 20.4967 40.0245 20.4632 39.9506 20.4587C39.9139 20.4565 39.8771 20.4616 39.8424 20.4736C39.8077 20.4856 39.7757 20.5044 39.7482 20.5288C39.7207 20.5532 39.6983 20.5828 39.6823 20.6158C39.6663 20.6489 39.6569 20.6848 39.6548 20.7215C39.598 21.7988 39.7514 22.877 40.1066 23.8957C38.5751 27.27 36.692 30.6366 36.0523 34.3816C35.9002 35.3322 35.8326 36.3123 35.7448 37.2662C34.5829 35.6743 33.8353 33.8183 33.5692 31.8655C34.1232 31.5954 34.5848 31.1674 34.896 30.6354C34.9396 30.5656 35.241 29.5122 35.3758 29.2969C35.4233 29.2563 35.4559 29.201 35.4683 29.1397C35.4807 29.0785 35.4722 29.0148 35.4442 28.959C35.4162 28.9031 35.3703 28.8582 35.3138 28.8315C35.2573 28.8048 35.1935 28.7978 35.1325 28.8116C34.8027 28.8932 34.4927 29.0407 34.2213 29.2452C33.9498 29.4496 33.7225 29.7069 33.553 30.0014C33.3648 30.3638 33.2106 30.7428 33.0923 31.1336C32.7099 30.2943 32.2252 29.5056 31.6491 28.7853C31.6293 28.7298 31.5925 28.682 31.5439 28.6487C31.4953 28.6153 31.4374 28.5982 31.3785 28.5998C31.3196 28.6013 31.2627 28.6215 31.2159 28.6573C31.1691 28.6931 31.1348 28.7428 31.118 28.7993C30.9438 29.3514 30.9477 29.9444 31.1292 30.4943C31.3108 31.0441 31.6607 31.5229 32.1294 31.8627C31.5852 31.6274 31.0167 31.4528 30.4342 31.3422C30.3784 31.3321 30.321 31.3391 30.2694 31.3624C30.2177 31.3857 30.1744 31.424 30.1451 31.4725C29.9813 31.7425 30.3279 31.9198 30.5851 32.3671C30.888 32.8307 31.3094 33.2048 31.8056 33.4506C32.3018 33.6964 32.8547 33.8049 33.4071 33.7649C33.8624 35.3349 34.6291 36.7972 35.6615 38.0646C35.0805 43.108 32.314 47.1964 28.3844 50.2861C28.1121 43.912 27.9041 37.3948 28.4912 30.9916C32.0008 28.1445 33.3785 22.7332 33.34 18.202C33.8655 17.8321 34.3124 17.3615 34.6547 16.8176C34.9971 16.2737 35.2281 15.6673 35.3344 15.0334C35.3425 14.9816 35.3359 14.9286 35.3153 14.8803C35.2948 14.8321 35.261 14.7906 35.218 14.7606C35.1749 14.7307 35.1243 14.7134 35.072 14.7108C35.0196 14.7082 34.9675 14.7204 34.9217 14.746C33.4445 15.5769 32.6852 16.6471 32.7579 17.7743C32.5687 17.2285 32.2893 16.7182 31.9315 16.2646C31.7325 16.0168 31.5541 15.7532 31.3981 15.4763C31.4024 15.4085 31.382 15.3415 31.3405 15.2878C31.2991 15.234 31.2396 15.1972 31.173 15.1841C31.1063 15.171 31.0373 15.1826 30.9786 15.2167C30.9199 15.2508 30.8757 15.3051 30.8541 15.3695C30.5678 16.206 30.5678 17.1139 30.8541 17.9504C30.8592 17.9661 30.8657 17.9812 30.8736 17.9957C31.3011 18.7811 31.9473 19.4256 32.7339 19.8509C32.6612 20.9792 32.4946 22.0995 32.2357 23.2001C31.1329 21.4316 30.3286 19.4936 29.8549 17.464C29.847 17.4276 29.832 17.3933 29.8107 17.3628C29.7894 17.3323 29.7623 17.3064 29.7308 17.2866C29.6994 17.2668 29.6643 17.2534 29.6277 17.2473C29.591 17.2412 29.5535 17.2424 29.5173 17.251C29.4812 17.2595 29.4471 17.2752 29.417 17.2971C29.387 17.319 29.3616 17.3466 29.3424 17.3784C29.3231 17.4102 29.3105 17.4456 29.305 17.4823C29.2996 17.5191 29.3016 17.5566 29.3109 17.5926C29.3638 17.8162 29.4197 18.0399 29.4786 18.2635C29.0256 17.9771 28.639 17.5973 28.3447 17.1494C28.0504 16.7015 27.8552 16.1958 27.7721 15.6664C28.116 15.5628 28.4349 15.3893 28.7086 15.1568C28.9823 14.9242 29.2051 14.6376 29.3629 14.3149C29.694 13.657 29.9681 12.9717 30.182 12.2668C30.1982 12.2126 30.1975 12.1547 30.1801 12.1008C30.1627 12.0469 30.1293 11.9996 30.0844 11.9651C30.0395 11.9306 29.9851 11.9106 29.9286 11.9076C29.872 11.9047 29.8159 11.919 29.7677 11.9487C28.8824 12.5055 28.1212 13.2385 27.5311 14.1019C27.2929 12.8662 26.8876 12.8668 26.3709 11.4874C26.3504 11.4326 26.3132 11.3857 26.2645 11.3532C26.2159 11.3207 26.1582 11.3043 26.0998 11.3063C26.0413 11.3082 25.9849 11.3285 25.9386 11.3642C25.8922 11.3999 25.8583 11.4493 25.8414 11.5053C25.6384 12.2006 25.6132 12.9358 25.7682 13.6434C26.0022 14.4065 26.497 15.0629 27.166 15.4981C27.2434 16.0742 27.4209 16.6324 27.6905 17.1475C26.8151 16.9789 25.9083 17.1502 25.1548 17.6267C25.1168 17.651 25.0853 17.6843 25.0629 17.7235C25.0405 17.7627 25.028 17.8067 25.0263 17.8518C25.0247 17.8969 25.034 17.9418 25.0535 17.9825C25.0729 18.0232 25.1019 18.0587 25.1381 18.0857C25.4624 18.3296 25.8556 18.4647 26.2613 18.4715C26.9837 18.5187 27.7059 18.3791 28.3587 18.0662C28.7417 18.4659 29.197 18.7894 29.7006 19.0195C30.2435 20.761 31.0326 22.416 32.0439 23.9343C31.3819 26.3145 30.3799 28.5331 28.5661 30.1881C28.6805 29.0721 28.8214 27.96 28.9888 26.8518C29 26.781 28.9837 26.7086 28.9431 26.6496C28.9025 26.5905 28.8407 26.5493 28.7706 26.5344C28.7005 26.5196 28.6274 26.5322 28.5663 26.5697C28.5053 26.6073 28.4609 26.6668 28.4425 26.7361C27.4077 30.6835 26.7632 34.7231 26.5185 38.7965C24.3329 37.865 22.7796 35.0123 22.1724 33.3439C22.074 33.0084 22.0919 33.0951 22.1098 33.0201C22.9957 29.3678 23.3133 25.6006 23.0514 21.8515C23.0461 21.7773 23.0116 21.7083 22.9555 21.6596C22.8993 21.6109 22.8261 21.5865 22.752 21.5918C22.6778 21.597 22.6088 21.6315 22.5601 21.6877C22.5114 21.7438 22.487 21.817 22.4922 21.8912C22.7289 25.2377 22.4923 28.6008 21.7894 31.8812C21.6465 31.2559 21.5542 30.6202 21.5132 29.9801L20.8422 24.7718C20.84 24.6977 20.8084 24.6275 20.7544 24.5766C20.7004 24.5258 20.6284 24.4984 20.5543 24.5007C20.4801 24.5029 20.4099 24.5345 20.3591 24.5885C20.3082 24.6425 20.2809 24.7145 20.2831 24.7886C20.2429 25.3964 20.23 25.9628 20.2456 26.499C19.4977 25.6565 18.9319 24.6685 18.5839 23.597C18.2359 22.5256 18.1131 21.3937 18.2233 20.2725C18.2363 20.2606 18.2479 20.2473 18.2579 20.2328C18.8305 20.2736 19.3292 19.4836 19.3851 19.4427C19.9416 18.7597 20.4013 18.0031 20.7511 17.1945C20.7839 17.1277 20.7888 17.0507 20.7648 16.9804C20.7408 16.91 20.6898 16.8521 20.6231 16.8193C20.5563 16.7865 20.4793 16.7816 20.409 16.8056C20.3386 16.8296 20.2807 16.8806 20.2479 16.9473C19.997 17.1204 19.7289 17.2669 19.4478 17.3846C18.916 17.6668 18.4746 18.0931 18.1741 18.6147C17.9932 17.3592 17.5731 16.1502 16.9367 15.053C16.91 15.0074 16.8709 14.9702 16.8239 14.9459C16.7769 14.9216 16.724 14.9112 16.6713 14.9157C16.6186 14.9203 16.5683 14.9397 16.5262 14.9717C16.4841 15.0038 16.452 15.0471 16.4335 15.0966C16.1331 15.9366 16.0802 16.8453 16.281 17.7145C16.4818 18.5837 16.9279 19.377 17.5663 20.0002C17.5988 20.0325 17.6387 20.0563 17.6826 20.0695C17.5286 21.4035 17.6849 22.7549 18.1393 24.0185C18.5937 25.282 19.3339 26.4235 20.3021 27.3539C20.8719 33.5631 20.8422 35.9282 26.3883 41.061C26.2205 44.7904 26.2507 48.5366 26.3212 52.2437C24.6619 51.0854 23.069 49.8346 21.5501 48.4975C19.8867 47.1261 18.4217 45.5304 17.1973 43.756C15.9157 41.855 15.19 39.6414 14.5364 37.4446C14.5806 37.4083 14.6126 37.3593 14.628 37.3042C15.2163 35.1304 15.1993 32.8372 14.5788 30.6724C14.8981 30.5672 15.1492 30.1401 15.4175 29.6374C15.8523 28.7612 16.0661 27.7921 16.0404 26.8143C16.0404 26.7624 16.026 26.7115 15.9987 26.6674C15.9714 26.6232 15.9323 26.5875 15.8859 26.5643C15.8394 26.5411 15.7875 26.5312 15.7357 26.5359C15.684 26.5406 15.6346 26.5595 15.5931 26.5907C15.1687 26.9014 14.8108 27.294 14.5408 27.7454C14.2707 28.1968 14.0939 28.6977 14.0208 29.2186C13.9741 29.4095 13.9442 29.604 13.9314 29.8001C13.2229 29.1034 12.831 29.1129 10.9445 28.168C10.8956 28.1438 10.8406 28.1344 10.7865 28.1411C10.7323 28.1477 10.6812 28.1701 10.6396 28.2054C10.598 28.2407 10.5676 28.2874 10.5523 28.3398C10.5369 28.3922 10.5372 28.4479 10.5531 28.5001C10.8182 29.4269 11.4267 30.2177 12.2545 30.7115C12.514 30.9061 13.9437 31.3981 14.1724 31.6061C14.1907 31.6446 14.2174 31.6784 14.2506 31.7051C14.5784 33.2803 14.5799 34.9059 14.2551 36.4817L14.027 35.6844C14.0169 35.6491 14 35.6161 13.9772 35.5873C13.9544 35.5585 13.9261 35.5345 13.894 35.5167C13.862 35.4988 13.8267 35.4875 13.7902 35.4832C13.7537 35.479 13.7168 35.482 13.6814 35.4921C13.6461 35.5021 13.6131 35.519 13.5843 35.5419C13.5556 35.5647 13.5316 35.5929 13.5137 35.625C13.4958 35.6571 13.4845 35.6924 13.4803 35.7289C13.476 35.7653 13.479 35.8023 13.4891 35.8376C14.0085 37.8472 14.672 39.8167 15.4746 41.7309C13.5076 41.0466 11.8649 39.6561 10.8651 37.8292C10.8313 37.7676 10.7756 37.7209 10.7089 37.6986C10.6423 37.6762 10.5697 37.6797 10.5056 37.7085C10.0477 37.3627 9.51546 37.1285 8.95118 37.0247C8.12678 36.8247 7.26953 36.8003 6.43509 36.9531C6.38436 36.9615 6.33693 36.9837 6.298 37.0172C6.25907 37.0508 6.23016 37.0945 6.21444 37.1434C6.19872 37.1924 6.1968 37.2447 6.2089 37.2947C6.22099 37.3447 6.24664 37.3903 6.283 37.4267C6.83186 38.0025 7.54285 38.3977 8.3216 38.56C8.46101 38.6104 8.5993 38.6536 8.73647 38.6897C8.00221 38.9147 7.32562 39.2966 6.75359 39.8089C6.18155 40.3213 5.72775 40.9519 5.42362 41.6571C5.40551 41.6983 5.39765 41.7433 5.4007 41.7883C5.40374 41.8332 5.41761 41.8768 5.44111 41.9152C5.46461 41.9537 5.49705 41.9858 5.53568 42.009C5.5743 42.0322 5.61795 42.0458 5.66292 42.0485C6.83579 42.1306 8.01283 41.9654 9.1178 41.5637C10.0735 41.1676 10.8701 40.4647 11.3823 39.5659C12.5345 40.9382 14.0739 41.9309 15.7994 42.4141C17.1372 44.9253 18.97 47.1393 21.1872 48.9224C22.8219 50.361 24.5413 51.7003 26.3363 52.9331C26.5759 59.7126 26.475 66.4999 26.0338 73.2693C25.955 74.4309 25.6908 75.5723 25.251 76.6503C25.2426 76.6706 25.2367 76.6918 25.2337 76.7135C22.8789 77.6216 20.681 78.8931 18.7198 80.4815C18.3475 80.785 17.9345 81.0349 17.493 81.224C16.8981 81.2727 16.2992 81.226 15.7189 81.0859C11.8134 80.7421 8.82649 85.1855 5.57123 86.4475C3.8983 87.1369 3.05513 88.0024 2.99531 89.0944C2.99119 89.1684 3.01661 89.241 3.06599 89.2962C3.11537 89.3515 3.18467 89.3849 3.25866 89.389C3.33265 89.3932 3.40524 89.3677 3.4605 89.3184C3.51575 89.269 3.54914 89.1997 3.55332 89.1257C3.60085 88.2702 4.33051 87.5635 5.77866 86.9669C9.08314 85.6854 12.0924 81.3241 15.6334 81.6372C16.2737 81.7905 16.9348 81.8373 17.5903 81.7759C18.131 81.5744 18.6334 81.2823 19.0759 80.912C21.0012 79.3544 23.1593 78.1091 25.4713 77.2218C29.5457 75.7205 30.135 77.6216 32.2161 78.4882C35.7386 79.9543 39.2215 77.5466 41.5631 81.5137C42.6568 83.2805 42.8335 84.1282 44.8167 85.5478C45.8064 86.2562 46.1027 86.542 46.4812 88.1271C46.7116 89.0944 46.8983 89.4623 48.9375 89.9828C49.5046 90.1208 50.0342 90.3824 50.4885 90.7488C50.9428 91.1152 51.3105 91.5775 51.5654 92.1025C51.5811 92.1357 51.6031 92.1656 51.6303 92.1903C51.6574 92.215 51.6892 92.2341 51.7237 92.2465C51.7583 92.259 51.795 92.2645 51.8316 92.2627C51.8683 92.261 51.9043 92.2521 51.9375 92.2364C51.9708 92.2208 52.0006 92.1987 52.0253 92.1716C52.05 92.1444 52.0691 92.1127 52.0816 92.0781C52.094 92.0436 52.0995 92.0069 52.0978 91.9702C52.096 91.9335 52.0871 91.8975 52.0714 91.8643C51.7818 91.2647 51.3632 90.7365 50.8456 90.3176C50.3279 89.8987 49.7241 89.5993 49.0773 89.441C46.3677 88.75 47.5743 88.6107 46.4494 86.3658C45.9462 85.5036 45.1136 85.1525 44.4521 84.5581C43.1555 83.4555 42.9201 82.6414 42.0417 81.2235C39.8309 77.4773 36.7132 78.8807 33.6385 78.3126C34.4929 77.1491 35.4619 75.5075 36.1893 74.7521C36.5134 74.4397 36.7289 74.0317 36.8043 73.588C36.9341 72.6934 35.9237 72.0224 35.1566 71.546C37.6676 67.2709 37.5245 67.532 37.5374 67.4554C38.5514 67.1777 39.4836 66.6598 40.2553 65.9458C40.0701 67.6159 40.5524 69.2917 41.5972 70.6078C42.7186 71.7577 44.0314 72.7036 45.477 73.4035C50.5066 75.9908 55.8474 77.9218 61.3687 79.1491C58.2118 82.0823 55.0645 85.677 54.4142 90.8769C53.9367 94.5342 56.5506 95.7497 60.2392 95.7497C68.0279 95.7497 78.3663 91.0357 84.817 86.4754C84.8148 86.925 84.7134 87.3685 84.5201 87.7745C84.3268 88.1804 84.0464 88.5387 83.6988 88.8238C83.0188 89.3533 82.1634 89.8677 82.3261 90.7595C82.3701 91.0061 82.4845 91.2346 82.6555 91.4176C82.8266 91.6005 83.047 91.7301 83.29 91.7905C84.5824 91.9237 85.8758 91.5471 86.8947 90.741L87.1296 96.1221C87.1296 99.1247 91.9158 101.476 98.0259 101.476C104.136 101.476 108.857 99.1241 108.922 96.1344C108.949 94.9094 108.945 95.0788 109.027 95.0408C109.073 95.0194 109.113 94.9859 109.141 94.9437C109.17 94.9015 109.186 94.8523 109.189 94.8014C109.841 82.2556 109.796 83.0982 109.782 83.0401ZM42.3582 45.8204C41.804 45.6156 41.3447 45.2137 41.0683 44.6915C41.3629 44.7512 41.6369 44.8867 41.8631 45.0847C42.0893 45.2826 42.26 45.5362 42.3582 45.8204ZM46.7312 43.3043C47.0663 43.4037 47.3792 43.5664 47.6532 43.7834C47.2512 43.8595 46.791 44.0244 46.588 44.0267C45.3686 44.0846 44.1509 43.88 43.0174 43.4267C43.5913 43.1409 44.2201 42.9824 44.8608 42.962C45.5016 42.9416 46.1392 43.0599 46.7301 43.3087L46.7312 43.3043ZM42.9363 41.0308C43.4404 40.4983 43.984 40.0044 44.5623 39.5536C43.9897 41.7247 43.4569 41.7812 42.1871 42.9766C42.2176 42.2643 42.4803 41.5815 42.9352 41.0325L42.9363 41.0308ZM40.4672 38.1793C40.7261 37.5087 41.1428 36.9105 41.6822 36.4353C41.6872 37.1113 41.6352 37.7865 41.5268 38.4538C41.4186 39.2543 41.078 40.0054 40.5472 40.6143C40.2802 39.8298 40.252 38.9837 40.4661 38.1832L40.4672 38.1793ZM47.8847 22.8859C47.4186 23.1463 46.9325 23.369 46.4309 23.5518C46.1681 23.6636 45.9065 23.7816 45.5984 23.9018C45.4609 23.9807 45.3103 24.0343 45.1539 24.0601C45.2225 23.9448 45.2845 23.8257 45.3395 23.7033C46.081 23.1703 46.9715 22.8842 47.8847 22.8859ZM45.089 21.7044C45.0985 21.9186 45.1209 22.2384 45.1276 22.3133C45.0954 22.6732 45.0101 23.0263 44.8743 23.3611C44.7626 23.4592 44.6602 23.5674 44.5684 23.6843C44.5059 23.3361 44.5204 22.9785 44.6107 22.6365C44.701 22.2945 44.865 21.9764 45.0912 21.7044H45.089ZM43.2025 28.2194C43.7937 28.1052 44.3993 28.0852 44.9967 28.1602C45.0907 28.168 45.5475 28.272 45.9165 28.3676C45.2856 28.7433 44.583 28.9827 43.8539 29.0704C43.1493 29.0565 42.4475 28.9783 41.7571 28.8367C42.2041 28.5575 42.6917 28.3493 43.2025 28.2194ZM34.6422 29.6307C34.5863 29.7951 34.404 30.3659 34.404 30.3659C34.2117 30.6761 33.9624 30.947 33.6693 31.1644C33.8118 30.5582 34.1545 30.0179 34.6422 29.6307ZM31.5574 29.6162C32.0192 30.2146 32.3977 30.8729 32.6824 31.5731C32.3382 31.3759 32.0525 31.0908 31.8545 30.747C31.6566 30.4031 31.5535 30.0129 31.5558 29.6162H31.5574ZM31.0553 32.0702C31.5141 32.209 31.9603 32.3867 32.3889 32.6014C32.6519 32.7434 32.8684 32.9583 33.0123 33.2203C32.6201 33.1903 32.2399 33.0711 31.9007 32.8718C31.5615 32.6724 31.2724 32.3983 31.0553 32.0702ZM31.3763 17.7536C31.2153 17.2702 31.1636 16.7571 31.2248 16.2512C31.4411 16.5532 31.7353 16.9283 31.8113 17.0692C32.195 17.6343 32.4067 18.2985 32.4207 18.9815C31.9939 18.646 31.6387 18.2283 31.3763 17.753V17.7536ZM26.2323 12.5498C26.3587 12.793 26.5022 13.0269 26.6617 13.2498C26.8852 13.6977 27.0149 14.1865 27.043 14.6862C26.7516 14.4171 26.5268 14.084 26.3862 13.7131C26.2456 13.3423 26.1931 12.9438 26.2328 12.5492L26.2323 12.5498ZM29.3684 12.9277C29.2225 13.3079 29.0542 13.6893 28.8652 14.0678C28.6321 14.5455 28.2235 14.9147 27.7246 15.0983C27.8398 14.3804 28.6371 13.5227 29.369 12.9272L29.3684 12.9277ZM26.3111 17.9191C26.1787 17.9191 26.0469 17.9003 25.9197 17.8632C26.476 17.6423 27.0853 17.5917 27.6704 17.7178C27.2427 17.9026 26.774 17.972 26.3111 17.9191ZM34.6232 15.6009C34.3691 16.3451 33.9172 17.0059 33.3159 17.5126C33.3837 17.1188 33.5355 16.7441 33.7611 16.4142C33.9867 16.0844 34.2807 15.807 34.6232 15.6009ZM18.5839 19.001C18.82 18.6075 19.1271 18.2613 19.4897 17.9801C19.5344 17.9577 19.5456 17.9521 19.8095 17.8291C19.3907 18.5627 18.4385 19.8576 18.2876 19.6614C18.2842 19.6161 18.2814 19.5708 18.2775 19.5255C18.3501 19.335 18.4537 19.1578 18.5839 19.001ZM16.7785 15.9375C17.2834 17.0005 17.5956 18.1448 17.7005 19.3169C17.3084 18.8557 17.0226 18.3139 16.8633 17.7299C16.704 17.1459 16.675 16.534 16.7785 15.9375ZM14.5693 29.3198C14.6629 28.6233 14.9722 27.9736 15.4539 27.4618C15.4084 28.0338 15.2765 28.5956 15.0625 29.128C14.8924 29.456 14.7027 29.7734 14.4944 30.0786C14.4828 29.8234 14.508 29.5678 14.5693 29.3198ZM12.5637 30.2429C12.0572 29.9476 11.6426 29.5175 11.3661 29.0005C12.982 29.7453 13.441 29.7973 13.9084 30.8328C13.4567 30.6321 12.7141 30.3525 12.5637 30.2429ZM7.14015 37.4306C7.70298 37.3857 8.26937 37.4317 8.81755 37.567C9.34267 37.6477 9.83351 37.8777 10.2316 38.2296C9.63576 38.3141 9.02818 38.2428 8.46809 38.0227C7.98608 37.9292 7.53185 37.7267 7.14015 37.4306ZM8.92211 41.0403C8.0256 41.3675 7.07611 41.5252 6.12197 41.5055C6.48707 40.8272 7.01221 40.2483 7.65179 39.819C8.29137 39.3897 9.02607 39.123 9.79212 39.042C10.6196 38.9302 10.8796 39.066 10.9026 39.1538C10.9948 39.5279 9.8648 40.6808 8.92211 41.0403ZM83.0261 71.7602C83.2892 71.7534 83.5512 71.7231 83.8089 71.6696L86.6325 74.888C86.358 75.3579 86.2334 75.9003 86.2752 76.4429L86.505 81.6987L83.0261 71.7602ZM64.0441 49.4508C64.1325 48.2134 64.2644 46.9308 64.3746 45.2433C64.3684 45.0091 64.4199 44.7769 64.5247 44.5673C64.6294 44.3576 64.7841 44.177 64.9751 44.0412C65.4425 43.9747 65.2424 45.3099 65.1758 46.1782L64.4557 55.6566C64.2527 57.0986 63.7802 57.2658 63.3598 57.367C63.5549 56.7961 63.9854 50.2336 64.0413 49.4491L64.0441 49.4508ZM40.1217 62.884C40.1438 62.9399 40.1474 63.0014 40.1317 63.0595C39.9427 63.6662 38.4376 64.8761 37.6414 65.1417C37.5854 65.1591 37.4943 65.1702 37.3221 65.0651C36.8748 64.4305 37.2997 62.7727 37.8438 61.8742C37.928 61.9489 38.0329 61.9965 38.1446 62.0107C38.2563 62.0248 38.3698 62.0049 38.47 61.9536C38.4874 62.1169 38.5647 62.268 38.6869 62.3778C38.8092 62.4875 38.9677 62.5481 39.132 62.5479C39.2278 62.5409 39.3172 62.497 39.3814 62.4255C39.4557 62.3695 39.4205 62.3573 39.4557 62.5121C39.4716 62.5823 39.502 62.6484 39.5451 62.7061C39.5881 62.7637 39.6429 62.8116 39.7057 62.8467C39.7685 62.8818 39.838 62.9032 39.9097 62.9097C39.9814 62.9161 40.0536 62.9073 40.1217 62.884ZM60.9773 56.6323C61.7321 56.186 62.4346 55.6568 63.0718 55.0544C63.0148 55.6479 62.9544 56.2275 62.8906 56.7933C62.8997 56.995 62.8476 57.1947 62.7412 57.3663C62.6347 57.5378 62.4788 57.6731 62.2941 57.7545L59.7176 59.2736C53.9809 58.4724 55.1064 60.0827 60.9773 56.6323ZM91.7989 62.0592C91.9666 61.7187 91.838 61.8624 91.9213 57.9345C92.0409 55.6104 91.8835 53.2803 91.4522 50.9935C93.2482 52.9023 94.4011 53.4089 94.6762 55.958C95.1967 60.3818 98.5784 64.449 97.8822 68.9735C97.8766 69.0143 97.88 69.056 97.8923 69.0953C96.2289 70.066 95.8319 70.189 95.2426 71.021C94.2564 71.1282 93.2785 71.3015 92.3155 71.5399C92.8245 68.4746 92.5402 65.3301 91.4897 62.4059C91.6254 62.3244 91.7331 62.2035 91.7983 62.0592H91.7989ZM102.099 77.626C103.802 77.8781 105.466 78.3479 107.05 79.0239C102.852 81.4661 94.6706 81.734 89.7592 79.4203C93.1274 77.3252 98.4017 77.1245 102.098 77.626H102.099ZM99.965 70.9366C99.6831 71.0047 99.419 71.1322 99.1902 71.3105C98.9614 71.4887 98.7732 71.7137 98.6382 71.9704C98.4084 72.4574 98.6002 73.0797 98.5856 73.5438C98.5784 73.7921 98.504 73.8888 98.4794 73.8944C98.4548 73.9 98.3933 73.8647 98.3424 73.7619C98.0424 73.158 97.8922 72.4908 97.9046 71.8166C97.9046 71.7425 97.8752 71.6714 97.8227 71.619C97.7703 71.5665 97.6992 71.5371 97.6251 71.5371C97.5509 71.5371 97.4798 71.5665 97.4274 71.619C97.3749 71.6714 97.3455 71.7425 97.3455 71.8166C97.3455 71.8166 97.3511 73.4325 97.3544 73.5002C97.3897 74.3271 96.6801 74.2964 96.6963 73.3492C96.707 72.7342 96.731 72.1365 96.7685 71.5678C96.7747 71.4937 96.7512 71.4201 96.7032 71.3633C96.6552 71.3064 96.5865 71.271 96.5124 71.2648C96.4382 71.2586 96.3646 71.282 96.3078 71.3301C96.251 71.3781 96.2156 71.4467 96.2093 71.5209L96.0097 73.4543C95.9839 73.4135 95.9635 73.3695 95.9488 73.3235C95.6692 72.5581 95.4629 71.8748 95.7134 71.3106C96.0158 70.8848 96.4229 70.5442 96.8954 70.3215L98.8663 69.1714C99.8172 69.297 100.758 69.4889 101.682 69.7456C101.6 70.6615 100.982 70.5944 99.9645 70.9366H99.965ZM77.1619 25.0033C77.3044 25.0032 77.4452 25.0349 77.5739 25.0959C77.7027 25.157 77.8162 25.2459 77.9064 25.3563C77.9965 25.4667 78.061 25.5957 78.0951 25.7341C78.1292 25.8724 78.132 26.0166 78.1035 26.1562C77.8664 27.1388 77.36 28.0359 76.6414 28.7467C77.0372 27.4641 75.7865 25.0033 77.1619 25.0033ZM71.3162 37.4295C71.3827 37.6962 71.7831 37.6296 71.7831 37.2958L71.3827 34.8916C71.3162 34.7579 71.2491 34.6908 71.1155 34.7579C68.5591 35.5849 65.1842 33.5944 64.3684 28.4996C64.4511 28.1021 64.5977 27.7207 64.8023 27.3701C65.4856 26.3726 66.7453 25.7129 67.4509 24.5924C67.6444 25.0816 68.3673 25.2398 69.083 24.2256C69.5001 25.3349 71.3196 25.4238 71.8597 22.7243C72.4184 23.3178 72.8742 24.0004 73.2083 24.7439C73.5004 25.2887 73.7133 25.8723 73.8407 26.4772C73.8407 27.4244 73.8194 28.5633 74.7616 28.6578C74.4194 29.6844 73.7071 31.2673 74.3025 32.1278C74.4132 32.2782 74.5593 32.3989 74.7277 32.4795C74.8962 32.56 75.0819 32.5978 75.2685 32.5895C75.455 32.5812 75.6366 32.5271 75.7973 32.4319C75.9579 32.3368 76.0927 32.2035 76.1896 32.0439C76.2867 32.1614 76.3996 32.2649 76.5251 32.3514C76.7639 33.0815 77.087 33.7812 77.4879 34.4364C77.5072 34.4677 77.5324 34.4949 77.5622 34.5164C77.592 34.5379 77.6257 34.5534 77.6615 34.5619C77.6972 34.5704 77.7343 34.5717 77.7706 34.5659C77.8068 34.56 77.8416 34.5471 77.8729 34.5278C77.9042 34.5086 77.9313 34.4833 77.9529 34.4535C77.9744 34.4238 77.9898 34.39 77.9983 34.3543C78.0068 34.3186 78.0082 34.2815 78.0023 34.2452C77.9965 34.2089 77.9836 34.1742 77.9643 34.1429C77.8212 33.9103 77.6898 33.6738 77.5679 33.4266C77.9671 33.3659 78.3659 33.315 78.7644 33.274C78.5463 36.5729 77.0926 39.4602 74.8566 40.7205C74.3843 40.9664 73.8678 41.1159 73.3372 41.1605C72.8066 41.205 72.2724 41.1436 71.7657 40.9799C71.43 40.8462 71.1266 40.6423 70.876 40.382C70.6253 40.1217 70.433 39.8109 70.312 39.4703C69.926 38.3972 69.8716 37.2328 70.156 36.1284C70.4512 36.0355 70.7494 35.9485 71.0506 35.8672L71.3162 37.4295ZM39.4675 58.0391C40.0478 57.7562 40.7114 57.6946 41.3339 57.8657C42.4264 58.166 43.4256 58.6189 43.827 59.471C44.0289 59.8987 44.1066 60.7408 43.7152 60.8688C43.1404 61.0606 42.5634 61.2753 41.9204 61.4699C41.8158 61.4615 41.7655 61.4319 41.7583 61.414C41.7348 61.3525 41.7929 61.1255 42.1228 60.818C42.4087 60.63 42.7169 60.4784 43.0403 60.3667C43.1098 60.3407 43.1661 60.2882 43.1968 60.2206C43.2276 60.1531 43.2302 60.0761 43.2042 60.0067C43.1781 59.9372 43.1256 59.8809 43.0581 59.8502C42.9905 59.8194 42.9136 59.8168 42.8441 59.8428C42.0636 60.0708 41.3781 60.5458 40.8905 61.1965C40.6701 61.6328 40.363 62.0196 39.988 62.3332C39.8863 61.6622 40.5561 60.5009 41.0196 59.9043C41.0608 59.8513 41.0816 59.7853 41.0781 59.7182C41.0746 59.6512 41.0471 59.5877 41.0007 59.5392C40.9542 59.4908 40.8918 59.4607 40.825 59.4544C40.7582 59.4482 40.6913 59.4661 40.6366 59.5051C40.138 59.8474 39.755 60.3328 39.5379 60.8974C39.4087 61.2661 39.2496 61.6236 39.0621 61.9664C39.0062 61.9155 39.0062 61.7579 39.0062 61.6869C39.0813 60.7711 39.3219 59.8765 39.7163 59.0466C39.7439 58.987 39.7497 58.9195 39.7325 58.8561C39.7154 58.7926 39.6764 58.7373 39.6225 58.6997C39.5686 58.6621 39.5031 58.6447 39.4376 58.6506C39.3722 58.6565 39.3109 58.6853 39.2645 58.7318C38.6866 59.3495 38.3493 60.154 38.314 60.9991C38.314 61.5247 38.1463 61.5666 38.134 61.2177C37.9673 60.2504 38.3431 58.6329 39.4675 58.0391ZM29.9857 71.56C30.1122 71.1839 30.3704 70.8662 30.7126 70.6654C30.2016 72.6676 29.8269 74.3993 29.5479 76.0414C29.3037 75.3532 29.1275 74.6427 29.0218 73.9201C29.2992 73.1162 29.621 72.3283 29.9857 71.56ZM43.269 18.263C43.3924 18.1124 43.5428 17.9861 43.7124 17.8906C43.3932 18.4497 43.1259 18.8529 42.6434 18.9994C42.8237 18.7312 43.0335 18.4842 43.269 18.263ZM41.4686 16.3619C41.9159 17.5216 42.1155 17.5859 42.1295 18.0108C42.0993 18.1607 42.0686 18.3133 42.044 18.4671C41.8038 18.1772 41.6282 17.8394 41.529 17.4763C41.4298 17.1132 41.4092 16.7331 41.4686 16.3614V16.3619ZM35.7884 74.3646C34.9771 75.2067 33.8952 77.0602 33.0447 78.1762C32.3058 77.9593 31.6143 77.605 31.0067 77.1317C32.5033 75.5547 34.2793 74.2688 36.2447 73.3392C36.2461 73.5327 36.2061 73.7244 36.1274 73.9012C36.0487 74.0781 35.9331 74.2361 35.7884 74.3646ZM35.9673 72.8522C33.9209 73.8224 32.0777 75.1731 30.5359 76.8321C30.3721 76.732 30.2043 76.6369 30.0327 76.5525C30.3234 74.7504 30.7305 72.8533 31.3075 70.6128C31.4045 70.6277 31.4996 70.6532 31.591 70.6889C33.2075 71.0332 34.7121 71.7769 35.9673 72.8522ZM33.3467 70.6413L35.5938 66.7833C35.7381 66.995 35.9291 67.1706 36.1521 67.2966C36.3751 67.4227 36.6241 67.4957 36.8798 67.5102L34.6746 71.2653C34.2462 71.0283 33.8026 70.8199 33.3467 70.6413ZM62.1464 95.109C58.0827 95.4198 54.4427 94.9675 54.9672 90.9485C55.4939 86.7315 57.6684 83.5607 60.8671 80.4077C63.917 77.5042 67.15 74.7993 70.5463 72.3098C70.5809 72.2844 70.6093 72.2514 70.6291 72.2133C70.649 72.1753 70.6598 72.1331 70.6607 72.0902C70.6616 72.0472 70.6526 72.0047 70.6344 71.9658C70.6162 71.9269 70.5893 71.8927 70.5558 71.8658C69.8823 71.3212 69.145 70.8606 68.3601 70.4943C68.2929 70.4655 68.2172 70.4642 68.149 70.4906C68.0809 70.517 68.0258 70.569 67.9956 70.6355C67.9653 70.702 67.9623 70.7777 67.9872 70.8464C68.012 70.9151 68.0628 70.9714 68.1286 71.0031C68.7615 71.297 69.3613 71.6574 69.9178 72.0783C68.629 73.0288 67.3531 74.0213 66.0738 75.0674C66.05 75.0316 66.0182 75.0018 65.9809 74.9803C65.9437 74.9587 65.902 74.9461 65.8591 74.9433C58.3256 74.4613 51.0075 72.234 44.4829 68.4373C44.4511 68.4162 44.4154 68.402 44.3778 68.3953C44.3403 68.3886 44.3018 68.3896 44.2647 68.3984C44.2276 68.4071 44.1927 68.4233 44.1621 68.446C44.1315 68.4688 44.1059 68.4975 44.0868 68.5305C44.0677 68.5635 44.0556 68.6 44.0511 68.6378C44.0467 68.6757 44.05 68.714 44.0609 68.7506C44.0718 68.7871 44.0901 68.821 44.1146 68.8502C44.1391 68.8794 44.1693 68.9032 44.2033 68.9203C50.7282 72.7168 58.0385 74.9627 65.5695 75.4845C64.2443 76.5827 62.9057 77.7501 61.8792 78.6839C56.2665 77.4737 50.8379 75.5289 45.7337 72.8997C44.3536 72.2338 43.0993 71.3341 42.0261 70.2405C41.5142 69.5927 41.1471 68.8428 40.9493 68.0412C40.7516 67.2396 40.7279 66.405 40.8799 65.5935C40.8914 65.5338 40.8831 65.472 40.8564 65.4174C42.0127 64.4258 42.9539 63.208 43.6218 61.8389C44.5827 61.3095 45.5911 60.8715 46.6339 60.5306C49.1276 60.5008 51.6091 60.1778 54.0273 59.5683C56.5723 59.4493 59.1221 59.652 61.6164 60.1716C63.0338 60.672 64.3517 61.5733 65.7232 62.1884C72.9707 65.5337 84.6387 67.4219 91.0206 62.7548C92.0188 65.6271 92.2603 68.7081 91.7217 71.7009C89.5081 72.3361 87.8296 73.2894 86.949 74.4088L84.3887 71.489C85.9621 70.818 85.2112 69.3347 82.8679 69.3347C79.9514 69.3347 79.692 71.4951 82.425 71.7434L85.5165 80.5838C78.3232 87.1771 70.1655 91.0541 61.2675 92.1059C61.1948 92.1156 61.1288 92.1536 61.0838 92.2115C61.0389 92.2695 61.0185 92.3428 61.027 92.4157C61.0356 92.4885 61.0725 92.5551 61.1297 92.601C61.1869 92.6469 61.2599 92.6685 61.3329 92.6611C70.279 91.6038 78.4793 87.734 85.7172 81.1575C86.5397 83.5092 86.4765 83.3896 86.576 83.4617L86.618 84.4189C79.81 89.9107 69.3084 94.5012 62.1464 95.109ZM84.4239 91.2392C83.7558 91.351 82.9864 91.3315 82.8757 90.6639C82.7756 90.1137 83.4689 89.7094 84.0421 89.266C84.5059 88.8847 84.8689 88.3952 85.0992 87.8407C85.3295 87.2861 85.42 86.6834 85.3627 86.0857C85.8033 85.7648 86.232 85.4399 86.6487 85.1111L86.8645 90.0572C86.1615 90.6473 85.3228 91.0535 84.4239 91.2392ZM108.362 96.1221C108.362 98.7662 103.725 100.917 98.0248 100.917C92.3245 100.917 87.6876 98.7662 87.6876 96.1087L86.8975 77.9962C90.4626 82.7656 105.585 82.7684 109.151 77.9962L108.959 82.3893C107.873 81.6507 107.921 81.6518 107.767 81.6954L105.764 82.2294C105.714 82.2426 105.668 82.2695 105.633 82.3071C105.597 82.3446 105.572 82.3913 105.562 82.442C105.551 82.4927 105.555 82.5453 105.572 82.5941C105.59 82.6428 105.62 82.6857 105.661 82.718L107.226 83.9694L106.907 95.0821L105.499 95.8778C105.446 95.9082 105.404 95.9555 105.38 96.0124C105.356 96.0693 105.351 96.1325 105.367 96.1921C105.382 96.2518 105.417 96.3046 105.466 96.3423C105.515 96.38 105.575 96.4005 105.637 96.4006C106.2 96.2544 106.752 96.0675 107.288 95.8414L108.397 95.3298L108.362 96.1221Z" fill="black"/>
<path d="M69.679 31.3076C69.9082 30.9637 69.3155 30.5455 68.5568 31.0538C68.4854 31.1012 68.4079 31.1388 68.3264 31.1656C68.3404 30.8771 68.4092 29.6604 68.4567 28.8329C68.4588 28.7962 68.4537 28.7595 68.4416 28.7248C68.4295 28.6901 68.4107 28.6581 68.3862 28.6307C68.3618 28.6033 68.3322 28.5809 68.2991 28.565C68.266 28.549 68.23 28.5397 68.1934 28.5377C68.12 28.5358 68.0486 28.562 67.9939 28.611C67.9391 28.6599 67.9051 28.7279 67.8987 28.801C67.8579 29.5061 67.7656 31.1527 67.7645 31.2092C67.7544 31.7957 68.3203 31.8841 68.8666 31.5201C68.9854 31.4223 69.1375 31.3744 69.2909 31.3865C69.3216 31.4068 69.3559 31.4209 69.392 31.428C69.4281 31.435 69.4653 31.4349 69.5013 31.4276C69.5374 31.4202 69.5716 31.4059 69.6021 31.3853C69.6326 31.3647 69.6587 31.3383 69.679 31.3076Z" fill="black"/>
<path d="M71.6226 30.6087C71.5863 30.6035 71.5492 30.6055 71.5136 30.6146C71.478 30.6237 71.4445 30.6398 71.4151 30.6619C71.3857 30.6839 71.361 30.7116 71.3423 30.7432C71.3236 30.7749 71.3113 30.8099 71.3062 30.8463C71.2512 31.2673 71.0776 31.6639 70.8057 31.9898C70.5337 32.3158 70.1746 32.5576 69.7702 32.687C69.7009 32.709 69.6429 32.7572 69.6086 32.8213C69.5742 32.8854 69.5662 32.9604 69.5862 33.0303C69.6062 33.1002 69.6527 33.1596 69.7158 33.1958C69.7788 33.2321 69.8535 33.2423 69.924 33.2243C70.4316 33.0643 70.8832 32.7632 71.226 32.356C71.5688 31.9489 71.7886 31.4526 71.8597 30.9252C71.8649 30.8888 71.8629 30.8518 71.8539 30.8162C71.8448 30.7806 71.8288 30.7472 71.8067 30.7178C71.7847 30.6884 71.7571 30.6637 71.7255 30.6449C71.694 30.6262 71.659 30.6139 71.6226 30.6087Z" fill="black"/>
<path d="M69.4464 26.8916C69.9971 26.6591 70.608 26.6101 71.1887 26.7518C71.2611 26.7679 71.337 26.7545 71.3996 26.7147C71.4622 26.6748 71.5064 26.6118 71.5225 26.5393C71.5386 26.4669 71.5252 26.391 71.4854 26.3284C71.4455 26.2658 71.3824 26.2216 71.31 26.2055C70.6521 26.0366 69.9569 26.0897 69.3323 26.3565C69.2737 26.3825 69.2258 26.4279 69.1967 26.485C69.1676 26.5422 69.159 26.6076 69.1723 26.6703C69.1857 26.733 69.2202 26.7892 69.2701 26.8295C69.32 26.8698 69.3823 26.8917 69.4464 26.8916Z" fill="black"/>
<path d="M66.6072 27.6906C66.644 27.6961 66.6816 27.6942 66.7177 27.6849C66.7538 27.6757 66.7877 27.6593 66.8174 27.6368C66.8471 27.6143 66.872 27.586 66.8906 27.5537C66.9092 27.5214 66.9212 27.4857 66.9258 27.4488C66.9304 27.4118 66.9276 27.3743 66.9175 27.3384C66.9074 27.3025 66.8903 27.269 66.867 27.2399C66.8438 27.2107 66.815 27.1865 66.7823 27.1687C66.7495 27.1508 66.7136 27.1397 66.6765 27.1359C66.3519 27.1092 66.0265 27.1775 65.74 27.3326C65.4535 27.4877 65.2185 27.7228 65.0634 28.0093C65.0451 28.0412 65.0332 28.0763 65.0284 28.1128C65.0236 28.1493 65.0261 28.1863 65.0356 28.2218C65.0452 28.2573 65.0617 28.2906 65.0841 28.3198C65.1065 28.3489 65.1344 28.3734 65.1663 28.3918C65.1982 28.4101 65.2333 28.422 65.2698 28.4268C65.3063 28.4315 65.3433 28.4291 65.3788 28.4195C65.4143 28.41 65.4476 28.3935 65.4768 28.3711C65.5059 28.3487 65.5304 28.3207 65.5487 28.2889C65.649 28.098 65.8022 27.9401 65.9899 27.834C66.1776 27.7279 66.3919 27.6781 66.6072 27.6906Z" fill="black"/>
<path d="M66.4316 28.2648C65.9535 28.3889 66.1772 29.3831 66.4741 29.5972C66.771 29.8114 67.017 29.4446 67.0254 29.1303C67.0338 28.8161 66.856 28.1563 66.4316 28.2648Z" fill="black"/>
<path d="M70.4266 27.2668C69.9485 27.3909 70.1722 28.3851 70.4691 28.5992C70.766 28.8134 71.012 28.4466 71.0204 28.1323C71.0287 27.8181 70.8481 27.1566 70.4266 27.2668Z" fill="black"/>
</svg>
