<svg width="112" height="113" viewBox="0 0 112 113" fill="none" xmlns="http://www.w3.org/2000/svg">
<path d="M83.5958 67.519C84.3842 66.8201 85.1782 66.082 85.016 65.0588C84.933 64.5122 84.6385 64.0202 84.1962 63.6886C83.7538 63.3571 83.1988 63.2126 82.6509 63.2864L79.5645 49.4367C79.7938 49.7162 79.8217 49.8169 79.9727 49.8169C80.0102 49.8169 80.0471 49.8078 80.0803 49.7902C80.1134 49.7727 80.1417 49.7473 80.1628 49.7162C81.0465 48.4823 81.8389 47.1853 82.5335 45.8359C83.7971 43.823 81.6668 42.7159 80.4927 44.7176C80.3985 44.3802 80.2344 44.0664 80.0109 43.7966C79.7874 43.5269 79.5095 43.3072 79.1955 43.152C78.8626 43.0343 78.4995 43.0343 78.1667 43.152L70.2438 7.63037C69.8978 6.10574 68.963 4.7798 67.6432 3.94182C66.3233 3.10384 64.7257 2.82182 63.1987 3.15731C41.8678 7.88757 28.2138 10.7895 26.8384 11.1082C23.5898 11.8686 21.247 18.3769 21.9739 21.5248L28.6667 51.444C28.6266 51.4108 28.5762 51.3926 28.5241 51.3926C28.4721 51.3926 28.4217 51.4108 28.3816 51.444C23.0698 55.3243 19.3963 61.5083 17.6518 67.7147C14.9792 77.1249 16.9473 87.8435 20.3636 96.9685C21.0769 99.0047 22.1092 100.915 23.4221 102.627C23.5562 102.8 23.8358 102.588 23.7184 102.409C21.4371 98.9422 20.4083 95.9732 19.1894 91.7015C17.0088 84.3321 16.1142 76.4707 17.8866 68.9672C20.878 56.8172 28.4542 52.2267 28.745 51.8018L31.1716 62.6993C28.9517 65.1391 27.1477 67.9272 25.8319 70.9521C25.7257 71.1925 25.9437 71.2987 26.0723 71.0359C28.159 66.7244 31.1469 62.9109 34.8339 59.8533C36.8189 58.2374 38.9603 56.6159 41.4093 56.1742C42.4171 55.985 43.4578 56.0838 44.4119 56.4594C48.2252 58.0138 46.9839 62.1457 44.9039 65.7074C40.0059 74.0944 39.5251 74.9666 38.8429 76.8509C37.4619 81.0556 38.8429 84.6788 39.5139 88.8834C41.085 98.4558 37.3948 101.66 36.6343 102.75C36.3324 103.192 36.6847 103.275 36.8244 103.158C37.9566 102.188 38.8372 100.958 39.3909 99.574L40.5483 104.78C40.7176 105.544 41.036 106.267 41.4853 106.908C41.9347 107.549 42.506 108.095 43.1667 108.514C43.8274 108.934 44.5645 109.219 45.3356 109.354C46.1067 109.488 46.8967 109.469 47.6604 109.297L83.1933 101.38C86.1511 100.698 89.6792 95.6993 88.9244 91.9027C88.902 91.0864 89.2934 93.0657 83.5958 67.519ZM33.2292 60.5969L23.724 18.0023C23.4315 16.7015 23.6389 15.3384 24.3049 14.1835C24.9709 13.0285 26.0469 12.1663 27.3192 11.7679C27.5317 11.6953 62.9303 3.72203 63.3049 3.63816C63.9963 3.4842 64.7113 3.46832 65.4089 3.59143C66.1065 3.71453 66.7728 3.9742 67.3698 4.35553C67.9667 4.73686 68.4824 5.23234 68.8873 5.81351C69.2923 6.39469 69.5784 7.05013 69.7294 7.74219L77.6858 43.4316C77.4659 43.6094 77.2979 43.8431 77.1994 44.1081C76.5396 45.601 77.8256 47.2001 78.8209 48.5085L82.1365 63.387C81.7745 63.5022 81.441 63.6928 81.158 63.9461C81.1189 62.6098 80.5709 61.4021 79.3185 61.3238L78.312 56.7948C78.9774 55.2293 79.2514 54.7316 79.4695 53.496C79.5328 53.1562 79.5137 52.8061 79.4136 52.4753C79.3135 52.1444 79.1354 51.8425 78.8943 51.5948C78.6532 51.3471 78.3561 51.161 78.0281 51.052C77.7001 50.943 77.3506 50.9145 77.0093 50.9687L68.0632 10.7112C67.755 9.3727 66.9303 8.21026 65.7689 7.47714C64.6074 6.74402 63.2032 6.49964 61.8624 6.79726L30.7523 13.6914C29.4146 14.0008 28.253 14.8258 27.5202 15.9869C26.7873 17.148 26.5423 18.5514 26.8384 19.8921L35.4993 58.7518C34.6662 59.3333 33.9393 59.9428 33.2292 60.5969ZM43.0532 55.6151C40.3805 55.3299 38.021 56.8787 35.8851 58.4107L27.2689 19.7859C27.0022 18.5723 27.2273 17.3026 27.8949 16.2546C28.5624 15.2066 29.618 14.4659 30.8306 14.1946C64.5183 6.66307 62.2202 7.14392 62.9751 7.13833C64.0452 7.13662 65.0836 7.50125 65.9177 8.1716C66.7518 8.84194 67.3314 9.77761 67.5599 10.823L76.5061 51.0805C75.0188 51.4775 74.1689 53.1046 73.9732 54.4353C72.9835 53.0654 71.144 52.4783 70.0593 53.8091C69.8127 54.2289 69.6951 54.7119 69.7209 55.198C69.7468 55.6842 69.915 56.152 70.2046 56.5432C70.6236 57.1368 71.0871 57.6975 71.5913 58.2206L68.6447 59.0705C68.4378 56.1518 66.8834 50.9072 63.8026 46.641C63.2684 45.8186 62.5674 45.1176 61.745 44.5834C62.7481 43.6582 63.5891 42.5715 64.2331 41.3684C64.2591 41.3233 64.2694 41.2709 64.2624 41.2193C64.2554 41.1678 64.2314 41.12 64.1943 41.0835C64.1572 41.047 64.109 41.0239 64.0573 41.0178C64.0057 41.0117 63.9534 41.0229 63.9088 41.0497C63.7858 41.128 63.6516 41.2007 63.523 41.2677C63.6935 41.0087 63.8254 40.7261 63.9144 40.4291C63.923 40.39 63.9212 40.3493 63.9092 40.3112C63.8971 40.273 63.8754 40.2386 63.846 40.2115C63.8166 40.1844 63.7806 40.1654 63.7416 40.1565C63.7026 40.1476 63.6619 40.149 63.6236 40.1607C63.0645 40.3899 62.6004 39.7972 62.4551 39.2046C62.0357 37.4601 62.4551 36.722 61.443 34.5973C62.3092 33.1582 62.844 31.5442 63.0086 29.8726C63.1092 29.5038 63.0916 29.1127 62.9583 28.7544C62.8646 28.5954 62.7218 28.4712 62.5513 28.4006C62.3808 28.33 62.192 28.3168 62.0134 28.363C60.6705 28.6 59.3702 29.0353 58.1553 29.6546C58.3343 28.24 58.5523 26.9036 58.5971 25.5617C59.5476 25.1424 62.1923 23.9402 61.6387 21.6869C61.3536 20.5072 59.7433 19.0255 58.4685 19.4001C58.5373 18.6554 58.3474 17.9097 57.9309 17.2885C57.5144 16.6673 56.8967 16.2085 56.1816 15.9894C55.3761 15.8108 54.534 15.9043 53.7873 16.2554C53.0407 16.6065 52.4315 17.1953 52.0552 17.9296C51.4864 17.2754 50.7974 16.7364 50.0256 16.3416C49.4433 16.0945 48.8072 16.0017 48.1786 16.0721C47.55 16.1425 46.9502 16.3738 46.437 16.7436C45.9239 17.1134 45.5148 17.6093 45.2492 18.1833C44.9835 18.7574 44.8704 19.3902 44.9207 20.0207C43.0923 19.607 41.0459 20.8371 41.1465 22.8164C41.1611 23.268 41.2878 23.7089 41.5152 24.0993C41.7426 24.4898 42.0636 24.8175 42.4493 25.0529C42.9703 25.27 43.5116 25.4349 44.0652 25.545C44.3724 25.6502 44.6499 25.8275 44.8746 26.0619C45.0993 26.2963 45.2646 26.5811 45.3568 26.8925C45.9232 28.4463 46.3718 30.0406 46.6987 31.6619C46.6987 31.7178 46.7938 31.55 46.2961 32.0812C45.9047 31.7027 45.4799 31.3602 45.0269 31.058C44.5293 30.6498 44.0764 30.2864 43.6123 29.9397C40.6321 27.6249 40.5259 32.2154 41.8343 35.1508C42.2542 36.1389 42.8196 37.0586 43.5117 37.8794C43.4781 38.0416 43.4558 38.2093 43.4334 38.3714C43.1874 38.2876 42.8743 38.7349 42.8128 38.9865C42.8021 39.0204 42.7996 39.0563 42.8056 39.0913C42.8116 39.1263 42.8259 39.1594 42.8472 39.1878C42.8685 39.2162 42.8962 39.2392 42.9282 39.2547C42.9601 39.2703 42.9953 39.278 43.0308 39.2772H43.3439C43.2676 40.0594 43.2414 40.8457 43.2656 41.6312C43.3048 42.5034 43.2656 44.5554 42.4158 44.6281C42.3771 44.627 42.3389 44.6378 42.3065 44.6589C42.274 44.6801 42.2488 44.7107 42.2342 44.7465C42.2197 44.7824 42.2164 44.8219 42.2248 44.8597C42.2333 44.8975 42.2531 44.9318 42.2816 44.958C42.5022 45.1461 42.7444 45.3075 43.0029 45.4389H42.4885C42.4537 45.4381 42.4195 45.4471 42.3896 45.4649C42.3598 45.4827 42.3356 45.5086 42.3198 45.5396C42.304 45.5705 42.2973 45.6053 42.3005 45.6399C42.3036 45.6746 42.3164 45.7076 42.3375 45.7352C43.9087 47.6195 46.2514 48.2681 48.7451 48.5309C48.5439 49.5261 48.1021 51.1085 47.4088 51.936C47.1588 52.188 46.8652 52.3926 46.5422 52.5399C45.0381 52.9033 44.3056 54.7764 45.0661 56.3084C44.4522 55.9364 43.7659 55.7 43.0532 55.6151ZM66.4193 67.0046C65.4017 68.7547 64.5518 69.0231 62.5781 69.2803L50.2772 71.0303C48.9129 71.2764 44.0149 72.0032 44.4007 70.6893C44.7921 69.7108 47.0062 66.9934 47.571 66.3001C47.2579 68.682 48.214 69.6549 50.512 69.2523C62.8129 67.0158 62.2538 67.3792 62.4942 66.9543C62.9527 67.0437 63.2938 66.5964 63.6125 66.1994C64.1455 65.4439 64.6311 64.6558 65.0662 63.8399C65.4518 63.2043 65.7101 62.4998 65.8266 61.7655C66.987 61.5401 68.1754 61.4967 69.3492 61.6369C69.3944 61.6762 69.4301 61.7254 69.4534 61.7807C69.4766 61.8359 69.4869 61.8958 69.4834 61.9556C69.3659 62.252 69.735 61.2959 66.4249 67.0046H66.4193ZM69.6679 62.6378C69.8096 63.4905 69.6087 64.3648 69.1087 65.07L67.2133 68.2738C66.8146 69.1187 66.2968 69.902 65.6757 70.5998C65.2674 70.9326 64.7646 71.1283 64.2387 71.159C63.7802 71.226 47.9512 73.2054 47.9512 73.2054C45.8041 73.58 44.82 73.5073 44.3839 71.4888C45.7929 72.3275 49.5335 71.4273 62.5054 69.7332C64.4903 69.476 65.6645 69.2467 66.7604 67.2786L69.6679 62.6378ZM52.1894 60.5802C52.3094 60.663 52.42 60.7586 52.5193 60.8653C52.2115 61.1429 51.9425 61.4608 51.7197 61.8103C51.7168 61.8249 51.7168 61.8401 51.7197 61.8548C51.7226 61.8694 51.7284 61.8834 51.7367 61.8959C51.745 61.9083 51.7557 61.919 51.7681 61.9274C51.7805 61.9357 51.7945 61.9415 51.8092 61.9445C51.8239 61.9474 51.839 61.9474 51.8537 61.9445C51.8684 61.9416 51.8824 61.9358 51.8948 61.9275C51.9073 61.9192 51.918 61.9085 51.9263 61.8961C51.9346 61.8836 51.9404 61.8697 51.9434 61.855C52.1742 61.585 52.4287 61.3361 52.7038 61.1113C52.8221 61.3051 52.9267 61.5069 53.0169 61.7152C52.9722 61.7767 52.9442 61.7991 52.9442 61.8382C52.9427 61.8566 52.9448 61.8751 52.9505 61.8926C52.9561 61.9102 52.9652 61.9264 52.9771 61.9405C52.9891 61.9545 53.0037 61.966 53.0201 61.9744C53.0365 61.9827 53.0544 61.9878 53.0728 61.9892C53.1958 61.9892 53.3803 61.581 54.1911 60.8709C54.247 60.9436 54.2806 61.0107 54.3756 61.0107C54.3961 61.0116 54.4166 61.008 54.4357 61.0004C54.4548 60.9928 54.472 60.9812 54.4863 60.9664C54.5005 60.9516 54.5115 60.9339 54.5185 60.9146C54.5254 60.8952 54.5282 60.8746 54.5266 60.8541C54.5161 60.7819 54.4934 60.7119 54.4595 60.6473C54.6445 60.4859 54.8493 60.3488 55.0689 60.2391C55.1894 60.3863 55.2943 60.5456 55.382 60.7144C55.0369 61.0621 54.7191 61.4359 54.4315 61.8326C54.4145 61.8536 54.4056 61.88 54.4064 61.907C54.4073 61.9339 54.418 61.9597 54.4364 61.9795C54.4548 61.9992 54.4797 62.0117 54.5066 62.0145C54.5334 62.0173 54.5604 62.0103 54.5825 61.9948C54.6608 61.9948 54.739 61.7655 55.5442 61.0163C55.5742 61.1254 55.6366 61.2229 55.7231 61.2959C55.0689 61.9948 54.5154 62.6937 54.7838 63.6722C54.8265 63.8381 54.9019 63.9937 55.0056 64.1301C55.1093 64.2664 55.2392 64.3807 55.3876 64.4661C55.4354 64.7169 55.5787 64.9394 55.7873 65.0865C55.996 65.2336 56.2536 65.2938 56.5059 65.2545C56.8407 65.2096 57.1615 65.0912 57.4452 64.9079C58.1386 65.3663 58.776 64.6842 59.2009 64.2704C59.7541 63.7171 60.2557 63.1145 60.6994 62.47C60.979 62.0675 60.8839 62.1681 60.9454 62.1849C61.102 62.2296 61.1523 61.9556 61.7226 61.3294C61.7929 61.4707 61.8813 61.6022 61.9854 61.7208C62.0039 61.7512 62.0338 61.773 62.0684 61.7814C62.103 61.7898 62.1395 61.7841 62.1699 61.7655C62.2003 61.747 62.2221 61.7171 62.2305 61.6825C62.2389 61.6479 62.2332 61.6114 62.2146 61.581C62.1413 61.4111 62.0494 61.2499 61.9407 61.1002C62.1223 60.8937 62.3247 60.7063 62.5445 60.541C62.6542 60.703 62.7514 60.8731 62.8353 61.0498C62.4607 61.4299 62.134 61.8542 61.8624 62.3135C61.8065 62.4868 62.0804 62.526 62.0804 62.375C62.3453 61.9976 62.6468 61.6474 62.9806 61.3294C63.0981 61.5587 63.1819 61.7879 63.3385 61.7208C63.3761 61.6999 63.4058 61.6673 63.423 61.6279C63.4401 61.5885 63.4439 61.5445 63.4335 61.5027C63.3982 61.3465 63.3457 61.1946 63.277 61.0498C63.6695 60.7207 64.0863 60.4217 64.5239 60.1552C63.1755 61.7565 62.3673 63.7427 62.2146 65.8304C62.226 66.0751 62.2148 66.3203 62.1811 66.5629V66.6076C62.0413 66.9263 61.5157 66.9319 61.443 66.9431C61.2138 66.9431 62.0749 66.8313 50.8195 68.7715C49.5391 68.9895 48.3258 69.0231 48.0965 67.765C47.7499 65.3384 49.1142 62.1402 52.1894 60.5802ZM52.5361 60.4292C52.8527 60.2668 53.1891 60.1465 53.5369 60.0714C52.4634 60.692 52.9722 60.7815 52.5584 60.4292H52.5361ZM53.7997 60.3397C54.1296 60.7423 54.0289 60.3397 53.2406 61.3853C53.1775 61.2042 53.0829 61.0357 52.961 60.8877C53.2172 60.6716 53.4989 60.4876 53.7997 60.3397ZM54.1128 60.1776C54.3349 60.1005 54.547 59.9973 54.7446 59.8701C54.8621 59.9931 54.8676 59.8701 54.3476 60.2782C54.1967 60.3901 54.3085 60.3845 54.1128 60.1776ZM56.3493 60.3062C56.3997 60.4124 56.3493 60.3901 56.4276 60.4739C56.3326 60.5969 56.0586 60.938 55.9524 61.0331C55.9201 60.93 55.8769 60.8307 55.8238 60.7367C55.9132 60.692 55.9915 60.6081 56.3717 60.3062H56.3493ZM55.6448 60.446C55.6049 60.3675 55.5581 60.2927 55.5051 60.2223C55.4596 60.1657 55.411 60.1115 55.3597 60.0602C55.5523 59.9586 55.7501 59.8671 55.9524 59.7862C56.0287 59.8533 56.0998 59.9262 56.1648 60.0043C55.9917 60.1431 55.8256 60.2906 55.6672 60.446H55.6448ZM61.7282 60.8094C61.8784 60.5445 62.011 60.2699 62.1252 59.9875L62.3376 60.2894C62.1095 60.4424 61.9074 60.6312 61.7394 60.8486L61.7282 60.8094ZM62.8073 60.3397C63.0533 60.1832 63.1037 60.1608 63.277 60.0378C63.523 60.0378 63.7746 60.0378 64.0262 60.077C62.7905 60.815 63.3776 61.0554 62.8297 60.3397H62.8073ZM64.8761 62.2911C64.8431 62.2428 64.7929 62.2089 64.7357 62.1964C64.6785 62.184 64.6187 62.1938 64.5686 62.224C64.4679 62.3023 64.4679 62.3247 64.1772 62.7272C64.1157 62.6601 64.0542 62.6042 63.9983 62.5371C63.976 62.5078 63.9434 62.488 63.907 62.4817C63.8707 62.4755 63.8334 62.4833 63.8026 62.5036C63.6348 62.6154 63.8361 62.8614 63.9591 63.0627C63.8585 63.2193 63.7578 63.3814 63.674 63.538C63.6551 63.5635 63.6441 63.5941 63.6425 63.6258C63.6408 63.6575 63.6485 63.689 63.6645 63.7164C63.6806 63.7438 63.7044 63.7659 63.7329 63.7799C63.7614 63.7939 63.7934 63.7992 63.8249 63.7952C63.8249 63.7952 63.9088 63.7952 63.9256 63.756C64.3673 63.3087 64.0821 63.3311 64.4847 63.6107C64.5331 63.6407 64.5905 63.6526 64.6469 63.6442C64.3785 64.1362 63.1204 66.4063 62.606 66.63C62.6196 64.2787 63.4927 62.0136 65.0606 60.2615C65.0614 60.2807 65.067 60.2994 65.0767 60.316C65.0865 60.3325 65.1001 60.3465 65.1165 60.3565C65.1724 60.4683 65.2284 60.5802 65.2787 60.6976C65.4719 61.602 65.3012 62.5461 64.8034 63.3255C64.8034 63.2528 64.7643 63.2472 64.4903 63.0404C64.8593 62.6042 65.0159 62.47 64.8985 62.2911H64.8761ZM65.1613 59.6856C65.1316 59.6654 65.0965 59.6546 65.0606 59.6546C65.0247 59.6546 64.9897 59.6654 64.96 59.6856C64.0963 59.5536 63.2213 59.5105 62.3488 59.557C63.9293 56.0673 64.236 52.1339 63.2155 48.4414C63.2078 48.412 63.1944 48.3845 63.176 48.3603C63.1576 48.3361 63.1347 48.3158 63.1085 48.3005C63.0822 48.2851 63.0533 48.2751 63.0232 48.271C62.9931 48.2669 62.9625 48.2688 62.9331 48.2765C62.9038 48.2842 62.8762 48.2976 62.852 48.316C62.8278 48.3343 62.8075 48.3573 62.7922 48.3835C62.7769 48.4097 62.7669 48.4387 62.7627 48.4688C62.7586 48.4989 62.7605 48.5295 62.7682 48.5588C63.3422 50.7818 63.4538 53.0989 63.096 55.3668C62.7383 57.6346 61.9187 59.8049 60.6882 61.7432C60.1838 62.4862 59.6368 63.1993 59.0499 63.879C58.748 64.2313 58.4517 64.7289 57.6968 64.5388C57.6395 64.5075 57.5926 64.4601 57.5618 64.4025C57.531 64.3449 57.5177 64.2796 57.5235 64.2145C57.5738 63.6889 57.8199 63.6554 57.9205 63.0068C57.9205 62.9697 57.9058 62.9342 57.8796 62.908C57.8533 62.8817 57.8178 62.867 57.7807 62.867C57.7436 62.867 57.7081 62.8817 57.6819 62.908C57.6557 62.9342 57.6409 62.9697 57.6409 63.0068C57.5266 63.2466 57.3958 63.4783 57.2495 63.7001C57.171 63.836 57.122 63.9869 57.1056 64.1429C57.0893 64.299 57.1059 64.4567 57.1545 64.6059L56.8973 64.7345C56.2934 65.0197 55.8909 64.8072 55.779 64.4438C55.5106 63.5771 56.5786 62.8447 56.545 62.649C56.5422 62.6244 56.5329 62.6011 56.5181 62.5813C56.5033 62.5615 56.4836 62.546 56.4609 62.5364C56.4381 62.5267 56.4133 62.5233 56.3888 62.5263C56.3643 62.5294 56.341 62.5389 56.3214 62.5539C55.852 62.8724 55.5189 63.3552 55.3876 63.907C54.8285 63.2137 55.3876 62.2687 55.9468 61.7264C59.1953 58.5953 59.5867 53.6917 58.1833 49.4255C58.1553 49.2801 57.9093 49.3137 57.9373 49.4255C58.6921 52.9033 58.871 56.2804 57.1154 59.3948C55.786 59.328 54.4535 59.4332 53.1511 59.7079C51.5408 60.1664 52.2174 60.4236 52.2062 59.4619C52.4659 57.2128 52.2038 54.9341 51.4402 52.8026C51.3451 52.5399 51.1047 52.6685 51.1606 52.8697C51.2761 53.2425 51.3768 53.6339 51.4625 54.0439C51.3441 54.5478 51.1966 55.0444 51.0208 55.5312C50.8056 56.1559 50.3847 56.6891 49.8271 57.0435C49.2695 57.398 48.6082 57.5528 47.9512 57.4826C48.0577 57.454 48.157 57.4034 48.2427 57.3341C48.3284 57.2647 48.3986 57.1782 48.4488 57.08C48.4919 57.1033 48.5397 57.1166 48.5886 57.1191C48.9129 57.1191 49.4273 56.56 49.623 56.3308C49.7773 56.0886 49.8555 55.8058 49.8475 55.5188C49.8395 55.2317 49.7457 54.9537 49.5783 54.7205C49.3477 54.1993 49.0648 53.7028 48.734 53.2388C48.7468 53.2045 48.7468 53.1668 48.734 53.1325C48.4213 52.7716 47.9956 52.5272 47.5262 52.4392C48.5047 51.5837 49.0247 49.7498 49.2036 48.4917C53.4251 48.7937 58.3399 47.6027 61.5045 44.8238C61.8021 45.0628 62.0841 45.3206 62.3488 45.5954C64.1828 47.4462 66.9058 52.1988 67.9402 57.5049C67.9849 57.7286 68.2141 58.9699 68.3092 59.1823C67.1909 59.501 66.341 59.7415 65.5135 60.049C65.4318 59.9049 65.3191 59.7808 65.1836 59.6856H65.1613ZM43.9981 45.4277C43.9422 45.1873 43.6011 45.3494 42.8239 44.8238C44.0317 44.0802 43.5061 41.1503 43.6626 39.199C44.2218 39.199 44.7809 39.1375 45.34 39.0648C45.3461 39.5162 45.4574 39.9601 45.6651 40.3609C45.8728 40.7618 46.1712 41.1087 46.5366 41.374C46.2794 41.374 46.0222 41.3237 45.7706 41.3181C45.519 41.3125 44.725 41.3181 44.6523 41.4914C44.6441 41.5089 44.6397 41.5279 44.6393 41.5472C44.6388 41.5666 44.6424 41.5858 44.6498 41.6036C44.6571 41.6215 44.6681 41.6376 44.682 41.651C44.6959 41.6644 44.7125 41.6748 44.7306 41.6815C45.3948 41.6701 46.0591 41.6925 46.7211 41.7486C47.4 41.8388 48.0711 41.9809 48.7284 42.1735C48.761 42.1735 48.7923 42.1606 48.8153 42.1375C48.8384 42.1144 48.8514 42.0832 48.8514 42.0505C48.8514 42.0179 48.8384 41.9866 48.8153 41.9636C48.7923 41.9405 48.761 41.9275 48.7284 41.9275L48.6165 41.8884C49.3186 41.8021 49.9657 41.4647 50.4385 40.9385C50.9112 40.4123 51.1776 39.7329 51.1886 39.0256C51.273 39.0198 51.3576 39.0352 51.4346 39.0704C51.5413 39.7243 51.8674 40.3226 52.3592 40.7666C52.851 41.2107 53.4793 41.4742 54.1408 41.5138C54.1253 41.5262 54.1139 41.5429 54.108 41.5618C54.102 41.5807 54.1017 41.601 54.1072 41.62C54.1631 41.7262 54.2973 41.62 54.5433 41.5082C55.2334 41.4584 55.8834 41.1651 56.3773 40.6807C57.6186 40.1215 58.2783 39.8755 59.0891 39.4841C59.2624 39.445 59.1282 39.1654 59.0052 39.2325C55.1472 40.5968 57.6074 40.5241 57.1936 38.1142C59.3519 38.1142 60.034 37.4768 61.4878 35.9448C61.9351 37.7117 61.6835 39.8587 62.8185 40.5185C62.9737 40.6161 63.1554 40.663 63.3385 40.6527C63.1631 41.0342 62.8984 41.3679 62.5669 41.6256C62.524 41.6573 62.4932 41.7026 62.4795 41.7541C62.4658 41.8056 62.4701 41.8602 62.4915 41.909C62.513 41.9578 62.5504 41.9978 62.5976 42.0225C62.6449 42.0472 62.6991 42.0551 62.7514 42.0449C62.9872 41.9791 63.2188 41.8988 63.4447 41.8045C62.6313 43.1139 61.5718 44.2532 60.3248 45.1593C54.0233 49.5094 45.2897 48.4302 42.9078 45.7576C43.2272 45.7548 43.5455 45.7211 43.8583 45.6569C43.9072 45.645 43.9494 45.6142 43.9756 45.5712C44.0018 45.5282 44.0099 45.4766 43.9981 45.4277ZM50.0312 16.912C50.7556 17.3663 51.3935 17.9456 51.9154 18.6229C51.9487 18.657 51.9903 18.6819 52.0361 18.6951C52.0819 18.7082 52.1303 18.7092 52.1766 18.6979C52.2229 18.6866 52.2654 18.6634 52.3 18.6307C52.3347 18.5979 52.3601 18.5567 52.3739 18.5111C52.6517 17.8045 53.169 17.218 53.8354 16.8541C54.5018 16.4903 55.2748 16.3722 56.0195 16.5206C56.6967 16.7204 57.2673 17.18 57.6068 17.7992C57.9462 18.4183 58.0268 19.1466 57.831 19.825C57.8152 19.8835 57.8187 19.9455 57.8411 20.0018C57.8635 20.058 57.9036 20.1055 57.9553 20.137C58.007 20.1685 58.0675 20.1824 58.1278 20.1766C58.1881 20.1707 58.2448 20.1455 58.2895 20.1046C58.9325 19.5455 59.8607 20.2108 60.1291 20.4233C60.4232 20.6256 60.6689 20.8903 60.8487 21.1987C61.0285 21.5071 61.1379 21.8514 61.1691 22.2069C61.1691 23.834 59.3798 24.6112 58.1889 25.1312C58.1465 25.1549 58.1115 25.19 58.0878 25.2324C58.0641 25.2749 58.0526 25.3231 58.0547 25.3716C58.0156 26.8645 57.7751 28.4133 57.5962 29.923C57.0371 30.2081 56.819 30.3311 56.819 30.3311C56.7666 30.3163 56.7159 30.2956 56.668 30.2696C56.7351 29.7999 57.1209 27.2279 57.1042 26.7527C57.0931 26.7191 57.0718 26.6899 57.0432 26.6692C57.0146 26.6485 56.9801 26.6373 56.9448 26.6373C56.9095 26.6373 56.8751 26.6485 56.8465 26.6692C56.8178 26.6899 56.7965 26.7191 56.7855 26.7527C56.6792 27.1385 56.4108 30.1075 56.4053 30.141C55.6848 29.8115 54.9168 29.5983 54.1296 29.5092C54.1743 29.0619 54.2694 22.2405 54.2694 22.0001C54.2694 21.9106 54.1799 21.9162 54.124 21.9162C54.1027 21.9161 54.0822 21.9242 54.0666 21.9387C54.051 21.9533 54.0415 21.9732 54.0401 21.9945C53.7662 24.9187 53.7046 28.5643 53.7438 29.4701H53.576C52.2067 29.2919 50.8146 29.4532 49.5223 29.9397C49.4552 29.28 48.9632 26.7303 48.611 25.1647C48.611 25.0361 48.3817 24.9914 48.3817 25.1647C48.3793 25.1777 48.3793 25.191 48.3817 25.2039C48.8066 27.5522 49.0415 29.5204 49.1533 30.0851C48.3427 30.4449 47.5892 30.9215 46.9168 31.4997C46.6933 30.2197 46.4022 28.9524 46.0445 27.7032C45.1835 24.7342 44.1938 25.2318 42.9469 24.7901C42.625 24.6539 42.3395 24.4442 42.1132 24.1777C41.887 23.9112 41.7264 23.5954 41.6443 23.2556C41.5622 22.9158 41.5609 22.5615 41.6405 22.2211C41.7201 21.8807 41.8784 21.5637 42.1027 21.2956C42.4697 20.8762 42.961 20.5849 43.5051 20.4642C44.0492 20.3436 44.6176 20.3997 45.1276 20.6246C45.3121 20.6973 45.4686 20.5128 45.4463 20.3227C45.3314 19.7361 45.3847 19.1289 45.6 18.5713C45.8153 18.0137 46.1839 17.5283 46.6632 17.1711C47.1425 16.814 47.7131 16.5996 48.309 16.5528C48.9049 16.5059 49.5019 16.6285 50.0312 16.9064V16.912ZM56.4724 30.4989L56.327 30.5716C56.2938 30.5999 56.2721 30.6394 56.266 30.6826C56.2599 30.7258 56.2698 30.7698 56.2939 30.8062C56.3179 30.8426 56.3545 30.869 56.3966 30.8803C56.4387 30.8917 56.4836 30.8873 56.5227 30.8679C57.9601 30.0659 59.4806 29.4228 61.0572 28.9501C61.4766 28.8382 62.4215 28.4804 62.6396 28.8997C62.6427 28.95 62.6427 29.0004 62.6396 29.0507C62.0325 29.0693 61.4462 29.2764 60.9622 29.6434L58.0156 31.3208C57.7863 31.455 58.1609 31.6954 58.1889 31.4885C58.1889 31.4326 58.0547 31.5333 61.6891 29.5987C61.7729 29.5539 62.5501 29.1737 62.6619 29.5036C62.2538 32.8975 61.2529 33.8313 60.7329 34.8769C60.7104 34.9183 60.704 34.9667 60.7152 35.0126C60.7263 35.0585 60.7541 35.0986 60.7932 35.1251C60.8322 35.1516 60.8798 35.1626 60.9265 35.156C60.9732 35.1494 61.0159 35.1256 61.0461 35.0893C61.0796 35.0502 61.102 35.0055 61.1355 34.9663C61.2033 35.1082 61.263 35.2538 61.3144 35.4025C58.7983 38.0192 59.2289 37.1581 57.1265 37.8626C56.9461 37.1687 56.5166 36.5654 55.9198 36.1679C55.3231 35.7704 54.6009 35.6065 53.891 35.7074C53.1811 35.8083 52.5332 36.167 52.0709 36.7151C51.6085 37.2631 51.3641 37.9622 51.3842 38.679C51.3087 38.6436 51.2271 38.6227 51.1438 38.6175C51.0512 37.9171 50.7072 37.2743 50.1759 36.8087C49.6447 36.3431 48.9623 36.0864 48.2559 36.0864C47.5495 36.0864 46.8671 36.3431 46.3359 36.8087C45.8046 37.2743 45.4606 37.9171 45.368 38.6175C44.8089 38.6957 44.2497 38.7181 43.6906 38.7461C43.9079 36.9588 44.5148 35.2409 45.4686 33.7139C49.3043 27.5858 56.4053 30.4989 56.4724 30.4989ZM56.0306 40.5017C54.9124 41.0609 54.9124 41.1559 54.3532 41.1559C53.7549 41.163 53.1731 40.9599 52.7092 40.582C52.2453 40.2041 51.9288 39.6754 51.8147 39.0881C51.7006 38.5007 51.7962 37.8919 52.085 37.3679C52.3737 36.8438 52.8372 36.4377 53.3946 36.2203C53.952 36.0029 54.5681 35.988 55.1354 36.1782C55.7027 36.3684 56.1852 36.7517 56.4989 37.2612C56.8126 37.7707 56.9376 38.3741 56.852 38.9663C56.7664 39.5585 56.4757 40.1019 56.0306 40.5017ZM50.8139 39.2828C50.7424 39.9294 50.426 40.524 49.9297 40.9444C49.4333 41.3649 48.7948 41.5793 48.1453 41.5435C47.4958 41.5077 46.8847 41.2244 46.4375 40.752C45.9904 40.2795 45.7412 39.6538 45.7412 39.0033C45.7412 38.3528 45.9904 37.727 46.4375 37.2545C46.8847 36.7821 47.4958 36.4989 48.1453 36.4631C48.7948 36.4273 49.4333 36.6416 49.9297 37.0621C50.426 37.4825 50.7424 38.0771 50.8139 38.7237C50.4449 39.0033 50.484 39.4953 50.8027 39.3052L50.8139 39.2828ZM45.2897 33.5405C44.7977 32.7018 43.7745 31.4662 43.3272 30.8567C42.8798 30.2473 42.6394 29.8782 42.0467 29.9397C41.9125 29.9397 41.8958 30.0572 41.9461 30.1131C42.1027 30.2976 42.2592 29.8167 42.919 30.7728C43.44 31.4167 43.9254 32.0887 44.3727 32.7857C45.2058 33.9934 45.245 33.5909 44.9934 33.9934C44.7325 33.5884 44.3841 33.247 43.9738 32.9944C43.5635 32.7418 43.1018 32.5845 42.6227 32.5341C42.586 32.5333 42.5501 32.5454 42.5215 32.5683C42.4928 32.5912 42.4731 32.6234 42.4657 32.6594C42.4584 32.6953 42.464 32.7327 42.4814 32.765C42.4988 32.7973 42.5271 32.8224 42.5611 32.836C43.4776 32.9903 44.2968 33.4983 44.8424 34.2506L44.7194 34.4631C44.4795 34.2253 44.177 34.0605 43.8471 33.9879C43.4777 33.9141 43.1044 33.8618 42.7289 33.8313C42.6942 33.8283 42.6596 33.8379 42.6314 33.8582C42.6031 33.8786 42.5832 33.9084 42.575 33.9422C42.5669 33.976 42.5712 34.0117 42.5871 34.0426C42.603 34.0736 42.6295 34.0978 42.6618 34.1109C43.3104 34.3569 43.9925 34.1612 44.6076 34.7371C44.5181 34.8992 44.4342 35.067 44.3615 35.2347C44.0905 35.2637 43.8291 35.3515 43.5955 35.4919C43.165 35.6988 43.3495 35.984 43.5452 35.8833C43.7397 35.7637 43.9507 35.6733 44.1714 35.6149C43.9316 36.2067 43.7445 36.8186 43.6123 37.4433C41.6442 35.0055 41.1018 31.8855 41.6442 30.1466C41.6819 29.9751 41.7843 29.8247 41.9301 29.7268C42.076 29.6289 42.2539 29.591 42.427 29.621C42.7566 29.7298 43.0595 29.907 43.316 30.141C45.3624 31.7681 45.1276 31.7401 46.0613 32.3384C45.7572 32.707 45.4982 33.1106 45.2897 33.5405ZM45.5916 56.5488C45.6031 56.5086 45.6031 56.466 45.5916 56.4258C44.4734 53.6917 46.5533 52.0031 48.2699 53.222C48.2307 53.3786 48.5103 53.8147 48.6054 53.9433C49.5838 55.6598 49.5335 55.8164 48.7004 56.5376C48.5942 56.6271 48.5606 56.6439 48.5383 56.6271C48.4741 56.5587 48.4229 56.4791 48.3873 56.3923C47.912 55.5312 47.8282 55.274 47.666 55.3411C47.6453 55.3481 47.6267 55.3602 47.612 55.3763C47.5973 55.3925 47.5869 55.4121 47.5819 55.4334C47.5768 55.4546 47.5773 55.4768 47.5832 55.4979C47.5891 55.5189 47.6003 55.5381 47.6157 55.5536C47.6716 55.6039 47.5262 55.4473 47.9624 56.4873C48.2028 57.0465 48.2475 56.7725 47.9624 56.9626C47.5206 57.203 47.1796 57.2254 46.8441 55.9002C46.8311 55.8647 46.8065 55.8346 46.7743 55.8148C46.742 55.795 46.704 55.7867 46.6664 55.7912C46.6289 55.7958 46.5939 55.8129 46.5673 55.8398C46.5407 55.8667 46.5239 55.9018 46.5198 55.9394C46.4766 56.3343 46.5779 56.7316 46.805 57.0576C46.677 57.1562 46.5276 57.2232 46.3688 57.2533C46.1588 56.9695 45.8947 56.73 45.5916 56.5488ZM46.654 57.6671C46.7761 57.6328 46.8914 57.5779 46.9951 57.5049C49.1421 58.5058 51.0655 57.1583 51.6638 55.1566C51.8828 56.547 51.9316 57.959 51.8092 59.3613C51.7515 59.6548 51.7515 59.9568 51.8092 60.2503C50.3288 61.0213 49.1279 62.2378 48.3761 63.7281C47.6187 63.9209 46.8721 64.1542 46.1396 64.427C47.2019 62.2743 47.9288 59.6856 46.654 57.6615V57.6671ZM45.8488 65.0085C48.5159 64.0971 47.5262 64.3935 48.1972 64.1642C47.9767 64.6657 47.8081 65.1884 47.694 65.7242C46.3741 67.1328 45.1944 68.6665 44.1714 70.3035C44.07 70.4433 44.0152 70.6116 44.0149 70.7843C44.0123 70.7905 44.0109 70.7972 44.0109 70.8039C44.0109 70.8106 44.0123 70.8173 44.0149 70.8235C43.9998 71.669 44.2544 72.4974 44.7418 73.1886C44.9759 73.3989 45.2519 73.5574 45.5515 73.6538C45.8512 73.7501 46.1678 73.7821 46.4807 73.7477C47.0901 73.7477 45.3624 73.9043 64.1325 71.651C65.8099 71.5727 66.464 70.6613 67.2748 69.1796C67.7836 68.2459 69.6287 65.1706 69.6679 65.1147C69.9688 64.6284 70.1532 64.0791 70.2065 63.5097C70.2599 62.9404 70.1808 62.3664 69.9754 61.8326C69.9799 61.7434 69.9664 61.6542 69.9357 61.5703C69.905 61.4864 69.8577 61.4095 69.7966 61.3443C69.7356 61.2791 69.662 61.2268 69.5804 61.1906C69.4987 61.1545 69.4105 61.1351 69.3212 61.1337C68.172 60.9959 67.0085 61.0355 65.8714 61.2511C65.8702 60.8998 65.7999 60.5521 65.6645 60.2279C67.0959 59.8757 67.5655 59.7079 71.9212 58.5002C73.08 59.6621 74.3067 60.7543 75.5947 61.7711C75.6166 61.8001 75.6449 61.8236 75.6774 61.8397C75.7099 61.8559 75.7457 61.8643 75.782 61.8643C75.8183 61.8643 75.8541 61.8559 75.8866 61.8397C75.9191 61.8236 75.9474 61.8001 75.9693 61.7711C76.7017 60.3174 77.3783 58.8972 77.9822 57.5329L78.8264 61.3182C78.5413 61.377 78.2743 61.5031 78.0477 61.686C77.8211 61.8688 77.6414 62.1031 77.5237 62.3694C77.0149 63.3535 77.1491 64.6059 77.2665 65.6962C77.2665 65.9031 77.6243 69.5598 77.7697 70.9129C77.7726 70.9802 77.8017 71.0436 77.8509 71.0896C77.9 71.1356 77.9652 71.1605 78.0325 71.159C78.9536 70.7344 79.8415 70.241 80.6884 69.6828L83.7971 83.6332C84.0638 84.8467 83.8387 86.1165 83.1711 87.1645C82.5036 88.2124 81.448 88.9532 80.2355 89.2245L49.1254 96.1577C47.9114 96.4196 46.6431 96.1919 45.5961 95.5239C44.5492 94.8559 43.8081 93.8018 43.534 92.5905L39.8214 75.9283C40.7496 73.5912 44.5517 67.4295 45.8488 65.0085ZM88.3764 92.2159C88.3654 93.4176 87.946 94.5799 87.1869 95.5117C86.4279 96.4435 85.3744 97.0893 84.1997 97.3431L48.6445 105.266C47.2616 105.567 45.8159 105.31 44.6214 104.551C43.4269 103.792 42.58 102.592 42.2648 101.212C40.8111 94.732 40.4812 93.0602 40.4812 93.0602C40.5098 92.234 40.4649 91.407 40.347 90.5888C39.827 85.4392 37.8588 81.6427 39.4691 76.8285L43.0532 92.7414C43.3478 94.0795 44.1601 95.2464 45.3127 95.9872C46.4652 96.7279 47.8641 96.9822 49.2036 96.6945L80.3361 89.7669C81.6746 89.4587 82.837 88.634 83.5702 87.4726C84.3033 86.3111 84.5476 84.907 84.25 83.5661L81.1021 69.4424C81.801 68.9672 82.472 68.4528 83.1206 67.9104C88.9356 93.8877 88.3876 91.0864 88.3708 92.2159H88.3764Z" fill="black"/>
<path d="M65.4184 94.2399C64.9498 94.6848 64.61 95.248 64.4348 95.8699C64.2597 96.4919 64.2556 97.1496 64.4231 97.7736C64.5781 98.4557 64.959 99.0654 65.504 99.5039C66.049 99.9423 66.7262 100.184 67.4257 100.189C68.1142 100.194 68.7803 99.9441 69.2961 99.4881C69.812 99.032 70.1415 98.4016 70.2213 97.7177C70.3025 97.0894 70.2299 96.4507 70.0098 95.8567C69.7897 95.2626 69.4286 94.7308 68.9577 94.307C68.4752 93.8705 67.8511 93.6232 67.2006 93.6109C66.5501 93.5985 65.917 93.822 65.4184 94.2399ZM68.214 99.6467C65.4184 100.558 63.8584 97.1809 65.4184 94.9388C65.7743 94.5199 66.272 94.2466 66.8166 94.1714C67.3612 94.0961 67.9144 94.224 68.3706 94.5307C70.02 95.7048 70.4002 98.9198 68.214 99.6579V99.6467ZM59.0051 32.1092C59.5978 31.6852 60.2686 31.383 60.9789 31.2201C61.3647 31.153 61.4989 31.1251 61.538 31.0133C61.5398 30.9773 61.5282 30.942 61.5055 30.9141C61.4828 30.8862 61.4505 30.8678 61.415 30.8623C60.4935 30.9028 59.6169 31.2717 58.9436 31.9023C58.9281 31.9179 58.9171 31.9375 58.9117 31.9589C58.9063 31.9803 58.9068 32.0028 58.9131 32.0239C58.9194 32.0451 58.9312 32.0642 58.9474 32.0792C58.9636 32.0942 58.9836 32.1045 59.0051 32.1092ZM61.4206 32.1762C61.0196 32.0643 60.5986 32.0434 60.1884 32.115C59.7783 32.1866 59.3893 32.3489 59.0499 32.59C59.0286 32.6069 59.0134 32.6303 59.0068 32.6566C59.0002 32.683 59.0025 32.7108 59.0134 32.7356C59.0243 32.7605 59.043 32.7812 59.0668 32.7943C59.0906 32.8074 59.1181 32.8122 59.1449 32.8081C59.6405 32.5321 60.1992 32.3896 60.7664 32.3943C61.1746 32.3943 61.443 32.5229 61.4989 32.344C61.5099 32.3113 61.5079 32.2757 61.4933 32.2445C61.4787 32.2132 61.4527 32.1888 61.4206 32.1762ZM59.3015 33.0709C59.282 33.0668 59.2618 33.0672 59.2424 33.0719C59.2231 33.0766 59.205 33.0856 59.1895 33.0982C59.1741 33.1108 59.1616 33.1266 59.153 33.1446C59.1445 33.1626 59.14 33.1823 59.14 33.2023C59.14 33.2222 59.1445 33.2419 59.153 33.2599C59.1616 33.2779 59.1741 33.2938 59.1895 33.3063C59.205 33.3189 59.2231 33.3279 59.2424 33.3326C59.2618 33.3373 59.282 33.3377 59.3015 33.3337C59.6565 33.3675 59.9952 33.4991 60.28 33.7139C60.298 33.7306 60.3208 33.7413 60.3452 33.7444C60.3696 33.7475 60.3944 33.7429 60.416 33.7312C60.4377 33.7194 60.4551 33.7012 60.4658 33.679C60.4765 33.6568 60.4799 33.6319 60.4757 33.6076C60.331 33.4378 60.151 33.3017 59.9481 33.209C59.7452 33.1163 59.5245 33.0691 59.3015 33.0709ZM54.56 42.0897C55.9243 41.3125 57.0034 41.3069 58.0267 41.0105C58.1944 41.0105 58.1553 40.7086 58.0267 40.731C56.7592 40.8282 55.5338 41.229 54.4538 41.8996C54.2805 41.9778 54.3923 42.1959 54.56 42.0897ZM44.4006 43.0178C45.7686 42.5735 47.2197 42.4454 48.6444 42.6432C48.801 42.6432 48.8289 42.4084 48.6165 42.3636C47.1797 42.0298 45.6741 42.161 44.3167 42.7383C44.1714 42.7662 44.2608 43.0178 44.4006 43.0178Z" fill="black"/>
<path d="M45.9383 44.2087C46.7314 43.7731 47.5851 43.4584 48.4711 43.275C48.6546 43.5983 48.9256 43.8633 49.253 44.0394C49.5805 44.2155 49.951 44.2955 50.3219 44.2702C50.4171 44.5721 50.6001 44.8388 50.8475 45.0362C51.0561 45.2231 51.3122 45.3488 51.5877 45.3994C51.8632 45.45 52.1473 45.4235 52.4087 45.3228C52.6701 45.2222 52.8986 45.0514 53.0691 44.8291C53.2395 44.6069 53.3453 44.3419 53.3747 44.0634C53.7623 44.0312 54.1325 43.8881 54.4408 43.6511C54.7492 43.4141 54.9828 43.0933 55.1136 42.727C57.7695 42.6264 58.0826 42.6487 59.268 42.5146C59.4525 42.5146 59.4357 42.2294 59.268 42.207C57.9056 42.1958 56.544 42.2742 55.1919 42.4419C55.2064 42.398 55.2176 42.3532 55.2255 42.3077C55.2372 42.2786 55.2426 42.2473 55.2412 42.216C55.2398 42.1846 55.2316 42.1539 55.2173 42.126C55.2029 42.0981 55.1827 42.0736 55.158 42.0543C55.1333 42.0349 55.1048 42.0211 55.0742 42.0137C55.0437 42.0064 55.012 42.0058 54.9812 42.0118C54.9504 42.0179 54.9213 42.0305 54.8958 42.0489C54.8704 42.0672 54.8492 42.0909 54.8337 42.1182C54.8182 42.1455 54.8088 42.1758 54.8061 42.207C54.795 42.3062 54.7725 42.4038 54.739 42.4978C54.5992 42.4978 54.3868 42.4978 54.3979 42.6488C54.4091 42.7997 54.5377 42.7494 54.6384 42.7494C54.5335 42.9593 54.3858 43.145 54.2047 43.2942C54.0237 43.4435 53.8133 43.5532 53.5872 43.616C52.8827 43.7726 52.3403 43.3421 51.9098 42.3133C52.5752 41.4075 52.2676 41.0664 51.9098 41.195C51.7924 41.2341 51.9098 41.223 51.3059 41.223C50.7021 41.223 50.635 41.7541 51.0991 42.1735L51.3619 42.3915C51.2388 43.124 50.9649 43.9012 50.1989 43.918C49.9342 43.9122 49.6743 43.8463 49.4389 43.7252C49.2035 43.6041 48.9988 43.431 48.8402 43.2191L49.0582 43.1799C49.2036 43.1799 49.2875 42.9115 48.9632 42.9115C47.8238 42.9077 46.7116 43.2596 45.7817 43.918C45.7626 43.9283 45.7457 43.9422 45.732 43.959C45.7183 43.9758 45.7081 43.9951 45.7018 44.0159C45.6956 44.0367 45.6935 44.0585 45.6957 44.08C45.6979 44.1016 45.7043 44.1225 45.7146 44.1416C45.7249 44.1607 45.7388 44.1776 45.7556 44.1913C45.7724 44.205 45.7918 44.2153 45.8126 44.2215C45.8333 44.2277 45.8551 44.2298 45.8767 44.2276C45.8983 44.2254 45.9192 44.219 45.9383 44.2087ZM51.675 42.7438C51.776 43.0389 51.9435 43.3068 52.1645 43.5269C52.3856 43.747 52.6542 43.9133 52.9498 44.013C52.9498 44.0969 52.9498 44.1808 52.9162 44.2591C52.8488 44.4322 52.7404 44.5865 52.6003 44.7087C52.4602 44.831 52.2927 44.9174 52.112 44.9608C51.9312 45.0042 51.7427 45.0033 51.5624 44.958C51.3821 44.9127 51.2155 44.8244 51.0767 44.7008C50.9062 44.5589 50.7688 44.3814 50.6741 44.1808C50.946 44.0417 51.1795 43.8379 51.354 43.5873C51.5286 43.3367 51.6388 43.047 51.675 42.7438ZM46.0669 36.0454C46.257 36.0454 46.2961 35.7267 46.8608 35.3744C47.1395 35.2277 47.4316 35.1078 47.7331 35.0166C47.9679 34.8712 47.8673 34.4575 47.3193 34.5805L47.0509 34.6811C46.5565 34.9082 46.1598 35.3049 45.9327 35.7994C45.921 35.8241 45.9153 35.8512 45.9161 35.8785C45.9169 35.9058 45.9241 35.9325 45.9372 35.9565C45.9503 35.9805 45.9688 36.0011 45.9914 36.0165C46.0139 36.032 46.0398 36.0419 46.0669 36.0454ZM55.0353 34.1332C55.1765 34.1304 55.3174 34.1454 55.4547 34.1779C55.7561 34.2592 56.047 34.3755 56.3214 34.5246C56.8805 34.5246 56.0809 33.6803 55.0801 33.6579C54.8815 33.6382 54.6826 33.6919 54.5209 33.8089C54.2358 34.0996 54.644 34.2282 55.0353 34.1332ZM49.7236 67.217C49.7747 67.2087 49.8213 67.1825 49.8548 67.1431C49.8884 67.1037 49.9069 67.0536 49.9069 67.0017C49.9069 66.9499 49.8884 66.8998 49.8548 66.8604C49.8213 66.821 49.7747 66.7948 49.7236 66.7865C49.6725 66.7948 49.6259 66.821 49.5924 66.8604C49.5588 66.8998 49.5403 66.9499 49.5403 67.0017C49.5403 67.0536 49.5588 67.1037 49.5924 67.1431C49.6259 67.1825 49.6725 67.2087 49.7236 67.217ZM51.3059 67.5189C51.3571 67.5107 51.4036 67.4845 51.4372 67.445C51.4708 67.4056 51.4892 67.3555 51.4892 67.3037C51.4892 67.2519 51.4708 67.2018 51.4372 67.1623C51.4036 67.1229 51.3571 67.0967 51.3059 67.0884C51.2277 67.0884 51.0655 67.1835 51.0991 67.3456C51.11 67.3931 51.1361 67.4357 51.1734 67.467C51.2108 67.4983 51.2573 67.5165 51.3059 67.5189ZM52.9833 66.6076C53.0303 66.5997 53.0729 66.5754 53.1036 66.539C53.1343 66.5027 53.1512 66.4567 53.1512 66.4091C53.1512 66.3615 53.1343 66.3154 53.1036 66.2791C53.0729 66.2428 53.0303 66.2185 52.9833 66.2106C52.9364 66.2185 52.8938 66.2428 52.8631 66.2791C52.8323 66.3154 52.8155 66.3615 52.8155 66.4091C52.8155 66.4567 52.8323 66.5027 52.8631 66.539C52.8938 66.5754 52.9364 66.5997 52.9833 66.6076ZM53.7773 67.6867C53.8277 67.6867 53.8761 67.6667 53.9117 67.631C53.9474 67.5954 53.9674 67.547 53.9674 67.4966C53.9674 67.4462 53.9474 67.3978 53.9117 67.3622C53.8761 67.3265 53.8277 67.3065 53.7773 67.3065C53.7269 67.3065 53.6785 67.3265 53.6429 67.3622C53.6072 67.3978 53.5872 67.4462 53.5872 67.4966C53.5872 67.547 53.6072 67.5954 53.6429 67.631C53.6785 67.6667 53.7269 67.6867 53.7773 67.6867ZM55.8405 66.1099C55.8405 66.061 55.8211 66.0141 55.7865 65.9795C55.7519 65.9449 55.7049 65.9254 55.656 65.9254C55.607 65.9254 55.5601 65.9449 55.5255 65.9795C55.4909 66.0141 55.4715 66.061 55.4715 66.1099C55.4715 66.1589 55.4909 66.2058 55.5255 66.2404C55.5601 66.275 55.607 66.2944 55.656 66.2944C55.7049 66.2944 55.7519 66.275 55.7865 66.2404C55.8211 66.2058 55.8405 66.1589 55.8405 66.1099ZM57.3334 67.4015C57.3692 67.3921 57.4008 67.371 57.4234 67.3417C57.4459 67.3124 57.4582 67.2764 57.4582 67.2394C57.4582 67.2024 57.4459 67.1664 57.4234 67.1371C57.4008 67.1077 57.3692 67.0867 57.3334 67.0772C57.3082 67.0771 57.2834 67.0829 57.2608 67.094C57.2382 67.1052 57.2186 67.1215 57.2034 67.1415C57.1882 67.1616 57.1779 67.1849 57.1733 67.2097C57.1687 67.2344 57.1699 67.2599 57.1768 67.2841C57.1857 67.3186 57.206 67.3489 57.2345 67.3703C57.263 67.3916 57.2978 67.4027 57.3334 67.4015ZM60.677 66.8704C60.7553 66.8704 60.8727 66.7921 60.8391 66.6635C60.8056 66.5349 60.7273 66.5237 60.677 66.5405C60.6384 66.5476 60.6036 66.568 60.5785 66.5981C60.5535 66.6283 60.5397 66.6662 60.5397 66.7054C60.5397 66.7446 60.5535 66.7826 60.5785 66.8127C60.6036 66.8428 60.6384 66.8632 60.677 66.8704ZM61.3927 65.5173C61.4431 65.5173 61.4915 65.4972 61.5271 65.4616C61.5628 65.4259 61.5828 65.3776 61.5828 65.3271C61.5828 65.2767 61.5628 65.2284 61.5271 65.1927C61.4915 65.1571 61.4431 65.137 61.3927 65.137C61.3423 65.137 61.2939 65.1571 61.2583 65.1927C61.2226 65.2284 61.2026 65.2767 61.2026 65.3271C61.2026 65.3776 61.2226 65.4259 61.2583 65.4616C61.2939 65.4972 61.3423 65.5173 61.3927 65.5173ZM58.9269 66.2833C58.9773 66.2833 59.0257 66.2632 59.0613 66.2276C59.097 66.1919 59.117 66.1436 59.117 66.0932C59.117 66.0427 59.097 65.9944 59.0613 65.9587C59.0257 65.9231 58.9773 65.9031 58.9269 65.9031C58.8765 65.9031 58.8281 65.9231 58.7925 65.9587C58.7568 65.9944 58.7368 66.0427 58.7368 66.0932C58.7368 66.1436 58.7568 66.1919 58.7925 66.2276C58.8281 66.2632 58.8765 66.2833 58.9269 66.2833ZM48.9129 68.3912C48.943 68.3911 48.9728 68.3842 49 68.3711C49.0272 68.3579 49.051 68.3388 49.0698 68.3152C49.0886 68.2916 49.1019 68.264 49.1086 68.2346C49.1153 68.2052 49.1153 68.1746 49.1086 68.1452C49.105 68.1083 49.0897 68.0736 49.065 68.046C49.0403 68.0185 49.0074 67.9996 48.9711 67.9921C48.9349 67.9846 48.8972 67.9889 48.8636 68.0043C48.8299 68.0198 48.8021 68.0457 48.7843 68.0781C48.7664 68.106 48.7555 68.1379 48.7525 68.171C48.7496 68.204 48.7546 68.2373 48.7672 68.268C48.7798 68.2987 48.7997 68.326 48.825 68.3474C48.8504 68.3688 48.8805 68.3838 48.9129 68.3912ZM58.3845 87.6197L49.5167 89.4705C48.9597 89.5878 48.4684 89.9131 48.1429 90.3801C47.8174 90.8471 47.6823 91.4207 47.765 91.9839C47.8477 92.5471 48.142 93.0576 48.588 93.4113C49.034 93.765 49.5981 93.9353 50.1653 93.8876C50.4113 93.8876 49.69 93.9379 59.2624 91.981C59.5744 91.9515 59.8767 91.8568 60.1497 91.703C60.4227 91.5492 60.6604 91.3397 60.8472 91.0882C61.0341 90.8366 61.1661 90.5486 61.2345 90.2428C61.3029 89.937 61.3064 89.6202 61.2445 89.313C61.1827 89.0058 61.057 88.7151 60.8756 88.4595C60.6941 88.204 60.4611 87.9895 60.1914 87.8299C59.9218 87.6702 59.6216 87.569 59.3103 87.5328C58.999 87.4966 58.6836 87.5262 58.3845 87.6197ZM59.1617 91.4666L50.3219 93.3173C49.8985 93.3772 49.4682 93.2732 49.1189 93.0264C48.7697 92.7796 48.5278 92.4088 48.4429 91.9897C48.3579 91.5706 48.4362 91.1349 48.6618 90.7716C48.8874 90.4083 49.2432 90.1449 49.6565 90.0352C56.2934 88.6318 58.105 88.2404 58.6026 88.1509C59.029 88.0978 59.4599 88.206 59.8106 88.4543C60.1613 88.7026 60.4065 89.073 60.4981 89.4928C60.5782 89.9286 60.4827 90.3785 60.2323 90.7441C59.982 91.1097 59.5971 91.3614 59.1617 91.4442V91.4666Z" fill="black"/>
<path d="M57.9821 89.6159C57.2887 89.7054 54.5658 90.8125 50.3779 91.4219C50.2157 91.4219 50.2325 91.6847 50.3779 91.6847C51.7142 91.6847 56.9197 90.5664 58.0995 89.9234C58.1277 89.9004 58.148 89.869 58.1574 89.8338C58.1669 89.7986 58.1649 89.7613 58.1519 89.7272C58.1389 89.6932 58.1155 89.6641 58.085 89.6441C58.0545 89.6241 58.0185 89.6142 57.9821 89.6159ZM76.042 84.0302C73.9732 84.7571 73.9173 87.7093 76.0085 88.123C76.2881 88.1687 76.5741 88.1565 76.8488 88.0871C77.1235 88.0177 77.381 87.8927 77.6053 87.7197C77.8297 87.5467 78.0162 87.3294 78.1531 87.0814C78.2901 86.8334 78.3746 86.5599 78.4016 86.2779C78.7985 85.0198 77.3168 83.6779 76.042 84.0302ZM76.4726 87.7875C76.2473 87.8072 76.0206 87.7773 75.8081 87.6999C75.5957 87.6225 75.4028 87.4996 75.2429 87.3398C75.0831 87.1799 74.9602 86.987 74.8828 86.7746C74.8054 86.5621 74.7755 86.3354 74.7952 86.1102C74.9126 85.0702 75.8463 84.1308 76.8416 84.4328C78.9383 85.182 77.971 87.6645 76.4949 87.7875H76.4726Z" fill="black"/>
<path d="M75.9581 85.4671C75.8002 85.4786 75.6515 85.546 75.5388 85.6572C75.3263 85.9759 75.4885 86.2163 75.8016 86.2163C75.7568 86.6581 75.7065 87.1948 76.0979 87.2172C76.2321 87.2172 76.8136 87.1054 77.1267 87.0383C77.1638 87.0414 77.2011 87.0367 77.2363 87.0246C77.2715 87.0125 77.3038 86.9933 77.3311 86.968C77.3584 86.9428 77.3802 86.9121 77.3951 86.878C77.41 86.8439 77.4176 86.8071 77.4175 86.7699C77.4175 86.5798 77.4175 86.8929 77.356 86.0989C77.5125 86.0989 77.5852 86.0262 77.5908 85.8976L77.5572 85.5566C77.5565 85.5323 77.551 85.5085 77.5411 85.4864C77.5311 85.4643 77.5169 85.4443 77.4993 85.4277C77.4816 85.4111 77.4609 85.3981 77.4382 85.3895C77.4155 85.3809 77.3914 85.3769 77.3671 85.3776C77.2162 85.3776 76.9925 85.4056 76.9925 85.4056C76.9925 85.4056 77.2385 85.3273 77.2721 85.154C77.2833 85.1121 77.2831 85.0679 77.2713 85.0262C77.2595 84.9844 77.2366 84.9467 77.2051 84.9169C77.1736 84.8871 77.1345 84.8663 77.0922 84.8569C77.0499 84.8475 77.0058 84.8496 76.9646 84.8632C76.8704 84.9144 76.7873 84.9838 76.7202 85.0673C76.653 85.1508 76.603 85.2468 76.5732 85.3497C76.1706 84.6172 75.5444 85.0701 75.9581 85.4671ZM76.9813 86.1101C76.9813 86.3673 77.0205 86.4735 77.0428 86.6692C76.836 86.6692 76.316 86.8258 76.1203 86.8538C76.1139 86.8224 76.1139 86.7901 76.1203 86.7587V86.1996C76.4044 86.1465 76.6924 86.1166 76.9813 86.1101ZM71.362 84.6676C69.6847 84.483 68.5664 86.1828 69.0305 87.7204C69.2058 88.1558 69.5118 88.5262 69.9063 88.7806C70.3008 89.0349 70.7645 89.1607 71.2335 89.1406C73.8055 88.9729 74.0291 84.9248 71.362 84.6676ZM72.4803 88.1677C72.1368 88.5299 71.6636 88.741 71.1646 88.7546C70.6656 88.7682 70.1816 88.5833 69.8188 88.2404C69.5252 87.943 69.3378 87.5571 69.2855 87.1424C69.2333 86.7277 69.3192 86.3074 69.5299 85.9464C69.7406 85.5854 70.0644 85.304 70.4512 85.1456C70.838 84.9872 71.2662 84.9607 71.6696 85.0701C71.9737 85.168 72.2479 85.3416 72.4664 85.5746C72.685 85.8076 72.8407 86.0924 72.919 86.4021C72.9973 86.7118 72.9955 87.0364 72.9139 87.3452C72.8323 87.6541 72.6734 87.9371 72.4524 88.1677H72.4803ZM79.7546 84.8521L80.6213 85.2435C80.3585 85.6964 80.1181 86.1493 79.9056 86.5798C79.8804 86.6206 79.8724 86.6697 79.8834 86.7163C79.8944 86.763 79.9235 86.8034 79.9643 86.8286C80.0051 86.8538 80.0542 86.8618 80.1009 86.8508C80.1475 86.8398 80.1879 86.8107 80.2131 86.7699C80.4759 86.3729 80.7722 85.9424 81.0574 85.4391C81.3537 85.5901 81.4544 85.6237 82.0079 85.8529C82.1258 85.9277 82.2675 85.9556 82.4049 85.9312C82.4326 85.9229 82.458 85.9083 82.479 85.8884C82.5 85.8686 82.5161 85.844 82.5259 85.8168C82.5357 85.7896 82.5389 85.7605 82.5354 85.7318C82.5319 85.7031 82.5217 85.6756 82.5056 85.6516C82.377 85.4895 82.3658 85.5118 81.2755 85.0925C81.5494 84.6172 82.0806 83.9239 81.706 83.8065C81.432 83.7226 81.1469 84.3656 80.8282 84.9248L79.8944 84.5445C79.6763 84.4215 79.5533 84.7682 79.7546 84.8521ZM58.9941 80.1833C57.9093 80.3343 56.1033 80.8319 52.7933 81.4805C48.0239 82.4198 48.1748 82.2912 46.5869 82.7218C46.5525 82.731 46.5221 82.7514 46.5004 82.7797C46.4787 82.808 46.467 82.8427 46.467 82.8783C46.467 82.914 46.4787 82.9486 46.5004 82.9769C46.5221 83.0052 46.5525 83.0256 46.5869 83.0349C47.6157 83.0349 57.1266 81.1394 59.0723 80.5859C59.1198 80.5699 59.1599 80.5372 59.1851 80.4939C59.2103 80.4505 59.2189 80.3995 59.2094 80.3503C59.1998 80.3011 59.1727 80.2571 59.1331 80.2264C59.0935 80.1956 59.0441 80.1803 58.9941 80.1833ZM63.9647 76.0849C65.6421 75.7718 67.4593 75.5257 69.1423 75.1232C69.3548 75.1232 69.338 74.7485 69.1423 74.7709C65.9105 75.0952 46.0893 79.0874 45.7929 79.585C45.4183 80.1945 50.1821 78.5842 63.9647 76.0849ZM73.2743 76.4204C72.581 75.9675 71.7758 76.3812 71.3285 77.0354C70.5457 78.4388 70.8253 79.7528 71.3844 81.268C71.3285 81.268 46.9168 86.1213 46.8777 86.2052C46.8385 86.289 46.8777 86.4176 46.9895 86.4176C48.5607 86.4176 69.584 82.2186 71.5354 81.6538C71.6968 82.0748 71.8835 82.4855 72.0945 82.8839C72.1165 82.9209 72.1475 82.9516 72.1847 82.9731C72.2219 82.9946 72.264 83.0063 72.307 83.0069C72.5754 83.0069 74.9237 81.391 75.4717 80.9996C76.2656 80.4405 77.082 79.8255 77.205 78.8414C77.4175 77.1081 75.1362 76.7055 74.0012 77.7231C73.9386 77.2105 73.6777 76.7428 73.2743 76.4204ZM33.1789 15.8552C32.8446 15.6588 32.4634 15.5566 32.0757 15.5594C31.688 15.5622 31.3083 15.67 30.9769 15.8712C30.6455 16.0725 30.3748 16.3597 30.1935 16.7024C30.0122 17.0451 29.927 17.4305 29.9471 17.8177C29.929 17.8419 29.9192 17.8714 29.9192 17.9016C29.9192 17.9318 29.929 17.9613 29.9471 17.9855C30.2143 18.3135 30.5642 18.5642 30.9607 18.7118C31.3572 18.8593 31.7859 18.8984 32.2025 18.8249C32.6192 18.7513 33.0086 18.5679 33.3306 18.2936C33.6527 18.0192 33.8956 17.6638 34.0344 17.2642C34.1854 17.1412 34.0959 16.9846 34.0735 16.9119C33.9249 16.4563 33.6038 16.077 33.1789 15.8552ZM30.1932 17.8569C30.2098 17.4884 30.3291 17.1319 30.5376 16.8276C30.746 16.5233 31.0354 16.2834 31.3729 16.1347C30.6349 16.6939 30.8641 18.265 31.7476 18.4216C31.177 18.4344 30.6224 18.2329 30.1932 17.8569ZM32.2955 18.3321C32.4978 18.1806 32.6562 17.9781 32.7544 17.7452C32.8527 17.5124 32.8872 17.2576 32.8546 17.007C32.8368 16.7795 32.7563 16.5614 32.6221 16.3768C32.4879 16.1923 32.3052 16.0485 32.0942 15.9614C32.4203 15.9629 32.7389 16.0595 33.011 16.2392C33.2831 16.4189 33.4969 16.6741 33.6262 16.9734C33.5323 17.2878 33.3645 17.5752 33.1369 17.8115C32.9093 18.0479 32.6285 18.2264 32.3179 18.3321H32.2955ZM36.0361 15.1059C36.0256 15.0596 35.9991 15.0185 35.9612 14.9899C35.9234 14.9612 35.8766 14.9469 35.8292 14.9494C35.477 14.9494 35.7453 15.3743 35.2701 16.6771C35.26 16.7094 35.2611 16.7442 35.2731 16.7758C35.2852 16.8074 35.3075 16.8341 35.3365 16.8515C35.3656 16.8689 35.3996 16.8761 35.4332 16.8718C35.4667 16.8676 35.4979 16.8522 35.5217 16.8281C35.645 16.6188 35.7426 16.3954 35.8124 16.1627C35.9131 16.6827 36.0193 17.1859 36.1256 17.6668C36.1322 17.6954 36.1443 17.7225 36.1614 17.7464C36.1785 17.7703 36.2001 17.7906 36.225 17.8062C36.2499 17.8218 36.2777 17.8323 36.3067 17.8372C36.3356 17.842 36.3653 17.8411 36.3939 17.8345C36.4226 17.8279 36.4496 17.8157 36.4736 17.7986C36.4975 17.7816 36.5178 17.76 36.5334 17.7351C36.549 17.7101 36.5595 17.6824 36.5643 17.6534C36.5692 17.6244 36.5683 17.5948 36.5617 17.5661C36.4051 16.761 36.2262 15.9614 36.0361 15.1059ZM39.5251 16.6324C39.0163 16.7218 38.6976 16.7833 38.3006 16.8896C38.7004 16.3788 38.9276 15.7542 38.9492 15.1059C38.9341 14.9263 38.8644 14.7555 38.7495 14.6165C38.6346 14.4776 38.4799 14.3772 38.3062 14.3287C38.1441 14.2701 37.968 14.2625 37.8015 14.3068C37.635 14.3512 37.4861 14.4454 37.3747 14.5769C37.2633 14.7084 37.1948 14.8708 37.1784 15.0423C37.162 15.2138 37.1985 15.3863 37.283 15.5365C37.3221 15.6986 37.5961 15.5365 37.5569 15.4414C37.5078 15.3062 37.5071 15.1581 37.555 15.0225C37.6029 14.8868 37.6965 14.7721 37.8197 14.6978C37.9455 14.6459 38.0859 14.6418 38.2146 14.686C38.3432 14.7303 38.4513 14.8199 38.5186 14.9382C38.5636 15.1291 38.568 15.3273 38.5314 15.5199C38.4948 15.7126 38.418 15.8954 38.3062 16.0565C37.7862 17.0853 37.4116 17.1747 37.6352 17.4096C37.6596 17.4359 37.6907 17.4551 37.7252 17.465C37.7597 17.4748 37.7963 17.475 37.8309 17.4655C38.4451 17.3807 39.0524 17.2517 39.6481 17.0797C39.6935 17.0528 39.7288 17.0118 39.7485 16.9628C39.7683 16.9139 39.7714 16.8599 39.7574 16.809C39.7434 16.7582 39.7131 16.7133 39.6711 16.6814C39.6291 16.6495 39.5778 16.6323 39.5251 16.6324ZM41.9797 16.0565C42.0603 15.8228 42.0648 15.5696 41.9925 15.3332C41.9201 15.0969 41.7747 14.8895 41.5771 14.741C41.3795 14.5925 41.1399 14.5105 40.8928 14.5067C40.6456 14.503 40.4036 14.5777 40.2016 14.7201C40.1656 14.5537 40.0972 14.396 40.0003 14.2561C40.4296 14.2025 40.8482 14.0837 41.2416 13.9038C41.2937 13.8938 41.3421 13.8698 41.3815 13.8343C41.4209 13.7989 41.4499 13.7533 41.4653 13.7025C41.4742 13.66 41.4699 13.6158 41.4529 13.5758C41.4359 13.5358 41.407 13.502 41.3702 13.4789C41.2137 13.3838 41.0291 13.5124 40.9061 13.5627C38.6696 14.4182 39.9109 13.7584 39.8661 15.1451C39.8672 15.1879 39.8819 15.2293 39.9081 15.2632C39.9342 15.2971 39.9705 15.3217 40.0117 15.3336C40.0528 15.3454 40.0967 15.3438 40.1369 15.329C40.1771 15.3142 40.2115 15.287 40.2352 15.2513C40.2489 15.2374 40.2586 15.22 40.2631 15.201C40.3744 15.0479 40.5399 14.943 40.7259 14.9076C40.9119 14.8723 41.1043 14.9092 41.264 15.0109C41.3719 15.0899 41.4577 15.1955 41.5128 15.3174C41.568 15.4392 41.5908 15.5733 41.579 15.7066C41.5672 15.8398 41.5212 15.9678 41.4454 16.0781C41.3697 16.1884 41.2667 16.2772 41.1466 16.336C40.8613 16.4432 40.5539 16.4777 40.2519 16.4367C40.0842 16.4367 40.0059 16.61 40.1178 16.7106C40.2757 16.8215 40.4578 16.893 40.649 16.9194C40.8401 16.9457 41.0348 16.9261 41.2169 16.8622C41.3989 16.7982 41.5631 16.6917 41.6958 16.5516C41.8284 16.4115 41.9258 16.2417 41.9797 16.0565ZM42.5668 15.2234C42.9211 15.1823 43.2711 15.1093 43.6123 15.0053C43.6203 15.3849 43.6825 15.7615 43.7968 16.1236C43.8192 16.1556 43.8499 16.1809 43.8856 16.1966C43.9214 16.2124 43.9608 16.218 43.9995 16.2128C44.0382 16.2076 44.0748 16.1918 44.1051 16.1672C44.1354 16.1426 44.1584 16.1101 44.1715 16.0732C44.2039 15.6699 44.1603 15.264 44.0429 14.8767C44.2503 14.8474 44.4447 14.758 44.602 14.6195C44.6227 14.5931 44.6363 14.5617 44.6415 14.5285C44.6466 14.4953 44.6431 14.4614 44.6313 14.4299C44.6195 14.3985 44.5998 14.3706 44.5741 14.3489C44.5484 14.3273 44.5176 14.3126 44.4846 14.3064C43.8024 14.2169 44.0205 14.7481 43.8416 13.8703C43.8416 13.8243 43.8233 13.7802 43.7908 13.7477C43.7583 13.7152 43.7142 13.6969 43.6682 13.6969C43.6223 13.6969 43.5782 13.7152 43.5457 13.7477C43.5132 13.7802 43.4949 13.8243 43.4949 13.8703C43.4949 13.9597 43.4949 13.9206 43.5341 14.4965C43.3328 14.5524 43.1538 14.6195 42.9749 14.6922C42.796 14.7649 43.1091 14.0827 43.1762 13.2049C43.1767 13.1758 43.1668 13.1475 43.1484 13.1249C43.13 13.1024 43.1042 13.0872 43.0756 13.0819C42.8743 13.0427 42.8687 13.2552 42.4661 14.955C42.445 15.004 42.4437 15.0594 42.4624 15.1094C42.4812 15.1594 42.5186 15.2003 42.5668 15.2234Z" fill="black"/>
<path d="M45.8488 15.352C47.0733 15.352 47.3529 13.3223 46.1675 12.4613C45.5692 12.0307 44.9766 12.137 44.7082 12.8359C44.3727 13.7808 44.8759 15.352 45.8488 15.352ZM46.1451 13.1154C46.6204 13.7193 46.4974 14.6978 45.955 14.8991C45.4127 15.1004 44.9542 14.2225 44.9989 13.4341C45.0716 12.355 45.7426 12.5563 46.1619 13.0931L46.1451 13.1154Z" fill="black"/>
<path d="M48.2195 14.8431C49.5894 14.8431 49.8969 12.5507 48.6892 11.7567C48.5784 11.6719 48.4499 11.6131 48.3132 11.5848C48.1765 11.5564 48.0352 11.5593 47.8998 11.5932C47.7644 11.627 47.6383 11.691 47.5311 11.7803C47.4238 11.8696 47.338 11.9819 47.2802 12.109C47.1307 12.33 47.042 12.5865 47.023 12.8526C46.8105 13.7249 47.3026 14.8431 48.2195 14.8431ZM47.4647 12.4389C47.4963 12.3488 47.5465 12.2664 47.6119 12.197C47.6774 12.1275 47.7566 12.0726 47.8446 12.0357C47.9326 11.9988 48.0274 11.9808 48.1228 11.9828C48.2182 11.9849 48.3121 12.0069 48.3985 12.0475C49.2763 12.6066 49.103 14.6866 47.8729 14.284C47.6959 14.1595 47.5547 13.9906 47.4634 13.7944C47.3721 13.5981 47.334 13.3813 47.3529 13.1657C47.349 12.9189 47.3868 12.6731 47.4647 12.4389ZM49.9752 13.887C50.0815 13.887 49.8522 13.887 50.607 13.7752C51.0096 13.7137 50.9481 13.7249 51.524 13.6074C51.7248 13.5991 51.9189 13.5331 52.0831 13.4173C52.1292 13.3703 52.1551 13.3071 52.1551 13.2412C52.1551 13.1754 52.1292 13.1121 52.0831 13.0651C51.949 12.9309 51.6135 12.9812 51.4401 13.0651C50.8307 13.1993 50.9146 13.1769 50.5343 13.2831C50.8219 12.8316 51.0123 12.325 51.0935 11.7959C51.1662 11.2367 50.6965 10.7391 50.238 10.8957C50.1459 10.9221 50.0641 10.9761 50.0036 11.0504C49.9431 11.1247 49.9067 11.2157 49.8994 11.3113C49.8921 11.4068 49.9142 11.5023 49.9628 11.5849C50.0113 11.6675 50.0839 11.7333 50.1709 11.7735C50.4784 11.9077 50.4952 11.5331 50.3722 11.5163C50.3447 11.5086 50.3207 11.4915 50.3044 11.4681C50.288 11.4446 50.2804 11.4162 50.2827 11.3877C50.2827 11.192 50.4728 11.2032 50.5791 11.2982C51.032 11.7399 50.2883 13.0036 49.8187 13.5348C49.7976 13.5668 49.785 13.6037 49.7819 13.6419C49.7788 13.6801 49.7853 13.7185 49.8009 13.7536C49.8165 13.7886 49.8406 13.8192 49.871 13.8425C49.9015 13.8658 49.9373 13.8811 49.9752 13.887ZM52.5975 12.4053C52.7932 12.4053 52.7373 12.2935 53.0057 11.3653C53.3971 13.0427 53.4195 13.149 53.6208 13.244C53.6512 13.2676 53.6885 13.2804 53.727 13.2804C53.7655 13.2804 53.8028 13.2676 53.8332 13.244C53.9786 13.0483 53.9171 12.9589 53.5425 11.6393C53.2294 10.549 53.2294 10.4931 53.0169 10.4875C52.9773 10.4895 52.9396 10.5051 52.9101 10.5315C52.8806 10.558 52.8611 10.5937 52.8547 10.6329C52.7485 11.1529 52.6087 11.6617 52.4466 12.2264C52.4472 12.2691 52.4625 12.3102 52.4901 12.3429C52.5176 12.3755 52.5556 12.3976 52.5975 12.4053ZM70.199 72.8587L70.9315 73.5632C71.1048 73.7812 71.5353 74.2174 71.8093 74.2174C72.0833 74.2174 72.3685 73.8316 72.5697 73.5296C73.0811 72.9443 73.4725 72.2642 73.7216 71.5279C73.9732 70.2252 72.3293 69.2131 71.5186 70.9688C70.9091 70.0071 68.5999 70.2923 69.0808 71.5279C69.3459 72.0518 69.7287 72.5072 70.199 72.8587ZM89.1368 35.0949C88.9517 34.9738 88.7323 34.916 88.5115 34.9301C88.2908 34.9442 88.0805 35.0295 87.9123 35.1732C87.5108 35.5842 87.2236 36.0931 87.0792 36.6493C86.7758 37.3519 86.5107 38.0705 86.2853 38.8019C86.179 39.2548 86.4306 39.2548 86.5313 39.171C87.5265 39.2492 90.8366 38.4888 90.7639 37.3706C90.7072 37.1074 90.5512 36.8762 90.3283 36.7252C90.1054 36.5741 89.8328 36.5149 89.5674 36.5598C89.6491 36.3005 89.6518 36.0227 89.5751 35.7618C89.4984 35.5009 89.3459 35.2688 89.1368 35.0949ZM89.0082 53.7196C89.8022 52.6405 90.5235 51.36 90.3725 49.8951C90.3575 49.5098 90.2574 49.1325 90.0796 48.7903C89.9017 48.4482 89.6504 48.1495 89.3437 47.9158C88.6392 47.4964 87.8396 48.1003 87.3029 48.5085C84.5855 50.5549 83.7412 54.0383 82.9808 57.0241C82.8242 57.6559 82.6565 58.3045 82.5614 58.9419C82.2092 60.1552 83.1597 60.4068 83.9704 60.4739C86.3691 60.6584 89.8805 59.2997 92.3071 58.6176C93.4813 58.2877 95.4494 57.7341 95.4159 56.0232C95.3935 54.1389 92.0387 52.3944 89.0082 53.7196ZM85.8771 34.3289C85.8979 34.3567 85.9249 34.3792 85.956 34.3947C85.987 34.4103 86.0213 34.4183 86.056 34.4183C86.0907 34.4183 86.125 34.4103 86.156 34.3947C86.1871 34.3792 86.2141 34.3567 86.2349 34.3289C87.8683 31.9306 89.3295 29.4193 90.6073 26.8141C91.6417 24.5776 90.3837 21.6981 88.0297 22.2069C87.068 22.4305 86.2349 23.1742 85.5584 24.4155C85.3285 23.6369 84.8107 22.9751 84.1102 22.5647C81.7898 21.2564 79.1451 23.7725 80.4255 26.0929C81.9138 29.0423 83.7435 31.8066 85.8771 34.3289ZM48.0854 38.4832C48.0896 38.6397 48.1102 38.7952 48.1469 38.9473C48.1804 39.2828 48.2251 39.6406 48.5606 39.6406C48.6047 39.6392 48.648 39.6291 48.6882 39.6109C48.7283 39.5927 48.7645 39.5667 48.7946 39.5345C48.8247 39.5023 48.8482 39.4645 48.8637 39.4232C48.8792 39.382 48.8864 39.338 48.8849 39.294C48.8321 38.9909 48.7516 38.6933 48.6445 38.405C48.6173 38.3483 48.5727 38.3018 48.5173 38.2722C48.4619 38.2425 48.3986 38.2312 48.3363 38.2399C48.2741 38.2486 48.2163 38.2769 48.1711 38.3206C48.126 38.3644 48.096 38.4213 48.0854 38.4832ZM54.4986 37.5774C54.4383 37.5319 54.3634 37.5102 54.2881 37.5164C54.2128 37.5226 54.1425 37.5562 54.0904 37.611C53.85 37.7228 53.8109 39.0312 54.342 39.0312C54.4231 39.0337 54.5023 39.0067 54.565 38.9553C54.6277 38.9039 54.6696 38.8316 54.6831 38.7516C54.6831 38.5 54.6496 38.528 54.6496 38.3602C54.6496 37.7675 54.6048 37.6613 54.4986 37.5774ZM72.251 86.0654C71.9994 85.6013 71.3397 85.7467 71.1328 86.2275C71.0796 86.159 71.0129 86.102 70.9369 86.0601C70.8609 86.0182 70.7772 85.9923 70.6908 85.9839C70.6044 85.9756 70.5172 85.9849 70.4346 86.0114C70.352 86.0379 70.2756 86.081 70.2102 86.1381C70.1165 86.2229 70.0422 86.3269 69.9924 86.4431C69.9426 86.5592 69.9184 86.6848 69.9216 86.8111C69.9248 86.9375 69.9552 87.0617 70.0108 87.1752C70.0664 87.2887 70.1459 87.3888 70.2438 87.4688C70.5792 87.7076 70.9368 87.9135 71.3117 88.0838C71.3701 88.1226 71.4375 88.1457 71.5074 88.1509C71.664 88.1509 71.731 87.8993 71.7925 87.7819C72.1728 87.0047 72.4244 86.5966 72.251 86.0654ZM65.1612 87.5695C65.2563 88.1286 65.3402 88.7548 65.3793 88.9393L66.4417 88.6933C66.5199 88.6933 66.5255 88.7324 66.246 87.3681C65.8786 87.3993 65.5153 87.4668 65.1612 87.5695Z" fill="black"/>
<path d="M65.2171 86.0989C64.8122 86.2584 64.4581 86.5246 64.1923 86.8691C63.9265 87.2137 63.759 87.6238 63.7075 88.0559C63.6604 88.329 63.6734 88.6091 63.7453 88.8767C63.8173 89.1444 63.9465 89.3932 64.1242 89.6059C64.3018 89.8186 64.5235 89.9902 64.774 90.1087C65.0246 90.2273 65.2978 90.2899 65.575 90.2924C66.0047 90.2735 66.4224 90.1442 66.7876 89.917C67.1529 89.6898 67.4535 89.3723 67.6605 88.9952C68.2868 87.5303 66.9001 85.6293 65.2171 86.0989ZM66.8945 88.7716V88.8499C66.7715 89.1518 66.5926 89.1797 65.6029 89.3531L65.4464 89.381C65.3876 89.4002 65.3255 89.407 65.264 89.4013C65.2024 89.3955 65.1427 89.3772 65.0885 89.3475C65.0445 89.3186 65.0079 89.2798 64.9817 89.2341C64.9554 89.1885 64.9403 89.1373 64.9375 89.0847C64.9375 89.0288 64.9375 88.8666 64.8928 88.6598C64.8293 88.2902 64.7938 87.9164 64.7866 87.5415C64.7643 87.4705 64.7643 87.3944 64.7866 87.3234C64.8058 87.2793 64.835 87.2401 64.8719 87.2091C64.9087 87.1781 64.9523 87.156 64.9991 87.1445C65.4143 87.0355 65.8365 86.9551 66.2627 86.9041C66.337 86.9029 66.4097 86.9256 66.4701 86.9689C66.5305 87.0122 66.5754 87.0738 66.5982 87.1445C66.7044 87.6701 66.7659 88 66.8106 88.218C66.8706 88.3963 66.899 88.5836 66.8945 88.7716Z" fill="black"/>
</svg>
