<svg width="113" height="113" viewBox="0 0 113 113" fill="none" xmlns="http://www.w3.org/2000/svg">
<path d="M76.8963 17.3537C76.8934 17.3465 76.8884 17.3403 76.8819 17.3359C76.8754 17.3315 76.8678 17.3291 76.86 17.3291C76.8521 17.3291 76.8445 17.3315 76.838 17.3359C76.8315 17.3403 76.8265 17.3465 76.8236 17.3537C76.8236 17.7004 76.3204 17.9129 76.4602 18.3043C76.5217 18.472 76.7509 18.5894 76.8795 18.4217C76.8841 18.4134 76.8867 18.4042 76.8871 18.3948C76.8876 18.3854 76.8858 18.376 76.882 18.3673C76.8783 18.3587 76.8725 18.351 76.8653 18.3449C76.8581 18.3388 76.8496 18.3345 76.8404 18.3322H76.7789C76.5105 18.3322 76.5105 18.1421 76.8124 17.7731C76.8582 17.7146 76.8896 17.6462 76.9042 17.5734C76.9188 17.5006 76.9161 17.4253 76.8963 17.3537ZM78.0817 16.789C78.1152 16.8785 78.2606 16.8505 78.2774 16.7611C78.2772 16.5723 78.2528 16.3844 78.2047 16.2019C78.2047 16.1812 78.1964 16.1613 78.1818 16.1466C78.1671 16.1319 78.1472 16.1237 78.1264 16.1237C78.1056 16.1237 78.0857 16.1319 78.0711 16.1466C78.0564 16.1613 78.0481 16.1812 78.0481 16.2019C78.0115 16.3975 78.023 16.599 78.0817 16.789ZM75.532 16.3585C75.532 16.5318 75.532 16.8729 75.7054 16.9791C75.7136 16.9837 75.7228 16.9863 75.7323 16.9867C75.7417 16.9872 75.7511 16.9854 75.7598 16.9816C75.7684 16.9779 75.7761 16.9721 75.7821 16.9649C75.7882 16.9577 75.7926 16.9492 75.7948 16.94C75.7672 16.7509 75.7261 16.5641 75.6718 16.3809C75.6606 16.2746 75.532 16.269 75.532 16.3585ZM74.9953 15.6819C74.9849 15.699 74.9817 15.7195 74.9864 15.7389C74.9911 15.7583 75.0034 15.775 75.0204 15.7854C75.0375 15.7958 75.058 15.7989 75.0774 15.7942C75.0968 15.7895 75.1135 15.7773 75.1239 15.7602C75.2077 15.6484 75.683 15.3185 75.7389 15.2011C75.7462 15.1923 75.7509 15.1816 75.7524 15.1703C75.754 15.1589 75.7524 15.1474 75.7477 15.1369C75.7431 15.1265 75.7356 15.1175 75.7261 15.1111C75.7167 15.1046 75.7056 15.1009 75.6942 15.1004C75.3867 15.0949 75.1183 15.4415 74.9953 15.6819ZM78.1376 14.9495C78.4172 14.983 78.5625 15.2067 78.6967 15.4192C78.706 15.4354 78.7205 15.4481 78.7379 15.4551C78.7553 15.4622 78.7745 15.4632 78.7925 15.458C78.8105 15.4529 78.8263 15.4419 78.8373 15.4267C78.8483 15.4116 78.8539 15.3931 78.8533 15.3744C78.8533 15.011 78.4563 14.7873 78.1264 14.7817C78.0258 14.7762 78.0314 14.9383 78.1376 14.9495ZM83.7289 33.8537C84.931 33.781 86.1108 33.44 87.3129 33.3337C87.408 33.3337 87.408 33.1716 87.3129 33.1828C86.0996 33.2899 84.8983 33.505 83.7233 33.8258L83.7289 33.8537ZM77.9419 34.0942C78.0313 34.0942 77.9922 33.9432 77.9028 33.9544C76.6559 34.1501 75.4034 34.3737 74.1622 34.6086C74.1286 34.6086 74.1622 34.6701 74.1622 34.6701C75.4314 34.4967 76.695 34.3122 77.9419 34.0942ZM59.5017 65.9647L50.5892 59.7583L48.9006 62.5708L60.7709 70.421L70.7123 52.0199L67.8496 50.678L59.5017 65.9647Z" fill="black"/>
<path d="M74.5926 43.9628C74.4417 43.5826 74.369 43.6329 73.9664 43.5491C73.3011 43.4037 72.6301 43.2751 71.9591 43.1409C69.8792 42.7216 67.8383 42.0227 65.8087 41.4635C63.7564 40.9131 61.7505 40.2027 59.8092 39.3388C59.2501 39.0928 58.7357 38.8524 58.2213 38.5616C57.9137 38.3827 57.2763 37.8236 56.9353 37.8459C56.7396 37.8459 56.8346 37.8459 56.611 38.036C56.1916 38.4274 55.7834 38.8132 55.3417 39.1543C53.614 40.5003 51.7754 41.6974 49.8455 42.7327C46.878 44.5318 43.7877 46.1199 40.5974 47.4854C40.5752 47.4914 40.5556 47.5045 40.5415 47.5226C40.5274 47.5408 40.5195 47.563 40.5191 47.586C40.2328 50.9058 40.5434 54.25 41.4361 57.4603C42.2695 60.6975 43.2717 63.889 44.4387 67.0214C46.5186 72.7078 49.6218 77.9916 54.2123 81.967C59.0041 86.1214 63.1584 86.8483 63.1975 86.8091C64.8787 85.5294 66.4193 84.075 67.7936 82.4703C70.9785 78.9176 73.4602 74.7928 75.1071 70.3147C76.1111 67.5251 76.741 64.6146 76.9801 61.6594C77.2933 57.7454 76.7341 53.8818 76.0576 50.0071C75.7871 47.9457 75.2959 45.9193 74.5926 43.9628ZM76.0688 66.3281C75.3117 70.0105 73.8764 73.52 71.8361 76.6777C66.6977 84.2483 63.1808 86.5911 63.1249 86.6302C57.9327 84.8705 53.3999 81.5705 50.1306 77.1697C48.5864 75.1392 47.2596 72.9522 46.172 70.6446C44.9733 67.9532 43.9444 65.1894 43.0911 62.3695C42.1628 59.6779 41.4431 56.9188 40.9385 54.1167C40.6935 52.6273 40.5794 51.1194 40.5974 49.6101C40.5974 49.2522 40.6645 47.6978 40.6589 47.7034C40.7148 47.6084 44.8245 45.8527 46.5578 44.8686C48.9117 43.5044 51.3495 42.2407 53.6084 40.6975C54.5978 40.0434 55.5327 39.3104 56.4041 38.5057C56.7172 38.215 56.8402 38.064 57.2651 38.2373C57.5615 38.3547 59.3172 39.3556 59.9322 39.6072C62.4024 40.6487 64.9482 41.501 67.5476 42.1568C68.9063 42.5426 70.265 42.9844 71.646 43.2751C72.5208 43.4117 73.387 43.5984 74.2404 43.8342C74.5591 44.0355 75.1965 46.5796 75.3587 47.2505C75.6606 48.6372 75.8842 50.0462 76.1247 51.4328C76.969 56.4203 77.1982 61.3574 76.0688 66.3393V66.3281ZM37.5334 20.9601C37.525 20.9695 37.5194 20.9809 37.5172 20.9933C37.515 21.0056 37.5163 21.0183 37.5209 21.03C37.5256 21.0416 37.5334 21.0517 37.5435 21.0592C37.5536 21.0666 37.5656 21.071 37.5781 21.072C37.6804 21.0591 37.7755 21.0126 37.8484 20.9397C37.9213 20.8668 37.9678 20.7717 37.9807 20.6694C37.9807 20.5743 37.6396 20.155 37.5837 19.9649C37.5803 19.955 37.5738 19.9465 37.5653 19.9404C37.5568 19.9344 37.5466 19.9311 37.5362 19.9311C37.5257 19.9311 37.5155 19.9344 37.507 19.9404C37.4985 19.9465 37.4921 19.955 37.4886 19.9649C37.4383 20.127 37.8185 20.5855 37.7962 20.7085C37.7738 20.8315 37.6172 20.8763 37.5334 20.9601ZM38.5622 19.1486C38.509 19.3299 38.4863 19.5189 38.4951 19.7077C38.4951 19.8698 38.7467 19.8698 38.7523 19.7077C38.7776 19.5191 38.7565 19.3272 38.6908 19.1486C38.6846 19.1369 38.6754 19.1271 38.664 19.1202C38.6527 19.1134 38.6397 19.1098 38.6265 19.1098C38.6132 19.1098 38.6003 19.1134 38.5889 19.1202C38.5776 19.1271 38.5683 19.1369 38.5622 19.1486ZM36.2865 19.1318C36.2346 19.3145 36.2346 19.5082 36.2865 19.6909C36.2865 19.8083 36.5102 19.7916 36.499 19.6909C36.4878 19.5903 36.4598 19.3443 36.4375 19.1709C36.4427 19.1509 36.4397 19.1296 36.4292 19.1118C36.4187 19.094 36.4016 19.0811 36.3816 19.0759C36.3615 19.0707 36.3403 19.0737 36.3225 19.0841C36.3046 19.0946 36.2917 19.1118 36.2865 19.1318ZM35.8112 18.9752C35.9007 18.8578 36.3704 18.4888 36.4375 18.3826C36.4489 18.3715 36.4564 18.357 36.4588 18.3413C36.4612 18.3255 36.4584 18.3095 36.4507 18.2955C36.4431 18.2816 36.4311 18.2705 36.4166 18.264C36.4021 18.2575 36.3859 18.2559 36.3704 18.2595C36.0721 18.3692 35.8225 18.5813 35.6659 18.8578C35.6044 18.9473 35.7442 19.0535 35.8112 18.9752ZM38.4504 18.3266C38.6536 18.4289 38.8418 18.5587 39.0095 18.7124C39.0204 18.7236 39.0345 18.7313 39.0498 18.7344C39.0652 18.7375 39.0811 18.7359 39.0955 18.7299C39.11 18.7239 39.1223 18.7137 39.1309 18.7006C39.1394 18.6875 39.1439 18.6722 39.1437 18.6565C39.1437 18.5111 38.5845 18.1869 38.4336 18.198C38.4199 18.2037 38.4084 18.2136 38.401 18.2264C38.3936 18.2392 38.3906 18.2541 38.3925 18.2688C38.3944 18.2835 38.4011 18.2971 38.4116 18.3075C38.4221 18.318 38.4357 18.3247 38.4504 18.3266ZM35.8448 21.8492H35.7945C35.7945 22.207 36.5884 22.9339 37.6452 22.481C37.6955 22.481 37.6452 22.3748 37.6061 22.3915C37.2953 22.5208 36.9492 22.5373 36.6275 22.4383C36.3059 22.3392 36.029 22.1308 35.8448 21.8492ZM14.4244 69.0791C12.5737 69.2636 10.6783 68.9728 8.83313 69.2021C8.83313 69.2021 8.79399 69.2356 8.79399 69.2524C8.64766 70.7772 8.67768 72.3138 8.88345 73.8317C8.8846 73.8455 8.88917 73.8589 8.89675 73.8705C8.90433 73.8821 8.91468 73.8917 8.92687 73.8984C8.93907 73.905 8.95272 73.9085 8.96662 73.9086C8.98051 73.9087 8.9942 73.9053 9.00646 73.8988C10.8069 73.9938 12.6911 73.9323 14.4971 73.8484C14.5475 73.8484 14.5698 73.7366 14.5698 73.7254C14.624 72.1985 14.5941 70.6698 14.4804 69.1461C14.4811 69.1381 14.4803 69.1299 14.4779 69.1222C14.4755 69.1144 14.4716 69.1072 14.4664 69.101C14.4612 69.0947 14.4548 69.0896 14.4476 69.0858C14.4404 69.0821 14.4325 69.0798 14.4244 69.0791ZM9.00087 70.6949C9.00087 70.2253 9.00087 69.7556 8.96732 69.2803C10.7371 69.3712 12.5108 69.3581 14.2791 69.2412C14.2352 69.7861 14.2222 70.3331 14.2399 70.8795C12.4979 70.7288 10.749 70.6728 9.00087 70.7117V70.6949ZM9.11829 73.7087C9.03442 72.7749 9.02323 71.8468 9.01205 70.913C9.83957 70.913 10.6894 70.9466 11.4946 70.9689C11.4273 71.8477 11.4781 72.7315 11.6456 73.5968C10.801 73.561 9.95487 73.604 9.11829 73.7254V73.7087ZM11.9139 73.6136C11.9139 73.116 11.7853 71.3379 11.7127 70.9521C12.5458 70.9521 14.2343 71.0919 14.2399 71.0919C14.2399 71.9418 14.3238 72.7973 14.3406 73.636C13.5634 73.6919 12.7415 73.6528 11.9307 73.6304L11.9139 73.6136Z" fill="black"/>
<path d="M109.477 72.8251C109.362 72.0554 108.982 71.3497 108.403 70.829C107.705 70.2979 106.776 70.3873 105.954 70.4153C104.724 70.4544 102.191 70.6949 102.191 70.6893C101.767 69.4983 101.392 68.2794 100.9 67.122C100.562 66.1367 99.8569 65.3196 98.9317 64.8407C98.026 64.4493 93.7766 64.7513 91.8084 64.9302C93.2901 60.0322 93.3684 53.2611 93.3684 51.9528C93.5736 51.8146 93.7502 51.638 93.8884 51.4328C94.3301 50.7003 94.0226 49.5708 93.9555 48.7825C93.7654 46.641 93.6479 44.466 93.346 42.3357C93.9172 41.7545 94.4166 41.1069 94.8333 40.4067C96.1864 38.131 96.192 35.5981 95.5658 33.0765C94.9395 30.5548 93.1727 28.6034 91.1878 26.8925C89.2161 25.1018 86.7665 23.9227 84.1371 23.4985C83.8667 23.0259 83.5542 22.5786 83.2034 22.1622L82.7113 22.4473C82.7113 21.6925 82.3982 18.4607 82.3982 18.4607C82.8567 18.3377 83.7625 17.0126 83.9023 16.0397C83.9692 15.0918 83.8035 14.1419 83.4195 13.2727C83.0356 12.4034 82.4451 11.6412 81.6993 11.0522C79.6305 9.37484 75.5488 10.1632 74.6486 10.8454C74.4014 11.0405 74.1157 11.1813 73.8102 11.2584C73.5048 11.3355 73.1865 11.3471 72.8762 11.2927C72.8762 11.2927 73.6254 12.0419 73.1669 12.1817C72.7085 12.3215 72.3953 11.561 72.3953 11.561C72.2891 13.0819 72.8986 13.4621 72.8986 13.4621C74.9058 15.6203 76.4211 13.8926 76.4211 13.8926C76.4211 13.8926 76.628 13.2217 78.7862 13.7081C79.0642 13.7478 79.3306 13.8458 79.5679 13.9957C79.8053 14.1456 80.0083 14.3441 80.1636 14.578C80.3188 14.8119 80.4228 15.076 80.4687 15.353C80.5147 15.63 80.5015 15.9136 80.4301 16.1851L80.704 16.2969C80.807 16.1472 80.923 16.0069 81.0507 15.8775C82.2696 15.0333 82.5827 16.3137 82.5827 16.3137C82.8287 17.3537 81.5483 17.6556 81.5483 17.6556C81.5819 19.0982 81.3191 19.333 81.3191 19.333C80.2791 20.5798 79.2223 19.2268 79.2223 19.2268C78.9889 18.9578 78.6946 18.7485 78.3639 18.6162C78.0333 18.484 77.6758 18.4326 77.3213 18.4663C76.0017 18.5222 76.203 18.9416 75.6439 19.3498C75.2916 19.607 74.9338 19.3162 74.7157 19.0758C74.7157 18.6005 74.5256 16.7386 74.4194 16.2801V14.653C74.0278 14.5386 73.6706 14.3293 73.3794 14.0436C72.8203 15.721 74.0112 16.2354 74.3411 16.3528C74.3803 16.8616 74.1957 20.7364 74.9002 22.1901C75.0887 22.5944 75.3741 22.9457 75.7312 23.213C76.0882 23.4803 76.5057 23.6552 76.9467 23.7222C76.8852 24.0521 76.8237 24.6 76.8125 24.751C75.437 24.9523 74.3243 25.8357 73.2564 26.6688C71.9751 27.6479 70.7865 28.7428 69.7059 29.9397C67.7591 32.0525 66.4927 34.702 66.0716 37.5439L64.1537 36.9848C64.1814 36.8619 64.1946 36.7361 64.1929 36.6102C64.1912 36.3852 64.1216 36.1659 63.9934 35.9811C63.8651 35.7962 63.684 35.6544 63.4739 35.5741C63.2637 35.4937 63.0342 35.4787 62.8153 35.5309C62.5965 35.583 62.3984 35.7 62.2471 35.8665C62.1368 36.0194 62.0571 36.1922 62.0123 36.3753C62.0123 36.3753 58.8028 34.9551 57.1981 34.2674C56.8575 34.0468 56.4432 33.9704 56.0463 34.0549C55.4321 34.3836 54.8872 34.8279 54.4416 35.3633V35.3298C53.8825 34.642 52.6524 34.6979 52.4735 35.6988C52.4387 35.9909 52.4851 36.2869 52.6077 36.5543C52.3281 36.7611 52.0485 36.9792 51.7242 37.1917C50.9414 35.2571 50.1978 33.2386 48.9286 31.6003C47.8738 30.1977 46.6016 28.9726 45.16 27.9716C43.1826 26.5627 40.7991 25.8383 38.3722 25.9084L38.2268 25.5561C38.2268 25.3269 38.182 25.0976 38.1541 24.874C39.9713 25.0249 40.9162 22.2908 40.9162 22.2908C40.9802 22.7631 40.9323 23.2438 40.7764 23.6942C40.7764 23.6942 42.6216 21.0439 41.5313 16.6436C40.4409 12.2432 36.4991 13.1658 36.4991 13.1658C31.8191 10.454 29.3869 15.3128 29.3869 15.3128C26.5353 22.2125 31.6234 25.0976 31.6234 25.0976C31.1314 24.7286 31.288 23.9011 31.288 23.9011C31.5432 24.2617 31.8773 24.5594 32.2648 24.7716C32.6524 24.9838 33.0832 25.1048 33.5245 25.1256C33.5245 25.2989 33.463 25.489 33.4462 25.6847L33.3288 26.0985C28.4587 27.815 24.1702 30.9741 22.4984 36.0399C21.7044 38.4385 21.6541 40.9323 22.8618 43.2079C23.8765 45.0549 25.5493 46.4522 27.5474 47.1218C27.5232 47.4493 27.5746 47.778 27.6978 48.0824C27.8209 48.3869 28.0124 48.6589 28.2575 48.8775C27.8772 49.0509 26.8988 49.7554 26.3396 52.551C26.1104 53.7028 25.6854 55.7157 25.2214 57.9019C22.778 55.9897 19.1883 53.071 19.1324 53.1157C13.8878 57.3372 3.65005 66.2386 3.65005 66.2498C3.63891 66.2589 3.63073 66.2711 3.62655 66.2849C3.62236 66.2987 3.62237 66.3134 3.62656 66.3272C3.63076 66.3409 3.63895 66.3532 3.6501 66.3623C3.66125 66.3714 3.67486 66.377 3.68919 66.3784C4.53348 66.451 5.36659 66.5014 6.23324 66.5293C6.23324 71.7237 6.66937 82.185 6.69173 82.185H4.74036C4.70127 83.0623 4.73493 83.9412 4.84101 84.8129C8.69902 84.8129 23.2309 84.7123 28.4028 84.6116C28.5706 87.0774 28.7774 90.0408 28.7774 90.0408C28.4364 90.175 26.9715 91.0473 26.513 91.2485C25.8979 91.5169 25.3947 91.8468 25.473 92.5905C25.4991 92.6198 25.5316 92.6427 25.568 92.6576C27.5833 92.8087 29.6092 92.73 31.6067 92.4227C31.6509 92.4083 31.6886 92.3786 31.7129 92.3389C31.8723 91.774 31.8723 91.176 31.7129 90.6111L34.2122 80.2113C34.5812 78.7408 35.9399 72.8755 36.2754 71.4273C37.6843 71.4187 39.0917 71.3328 40.4913 71.1701C41.0504 72.8811 42.616 79.4229 43.2422 80.8207C43.8684 82.2186 43.9355 82.7945 43.9467 82.8001C45.5402 83.2474 46.8598 83.8121 48.772 82.2409C48.7891 82.2239 48.8122 82.2143 48.8363 82.2143C48.8604 82.2143 48.8836 82.2239 48.9006 82.2409C48.9177 82.258 48.9272 82.2811 48.9272 82.3052C48.9272 82.3293 48.9177 82.3525 48.9006 82.3695C47.7488 83.6052 45.3166 83.7674 43.9299 82.8392L46.3622 89.9905C46.2095 90.7056 46.2095 91.4448 46.3622 92.1599C46.3622 92.2047 50.0189 92.1599 51.8137 92.1096C51.8696 92.1096 51.9143 91.9978 51.9143 91.9866C51.9305 91.7086 51.863 91.4322 51.7205 91.1929C51.5779 90.9537 51.367 90.7628 51.1148 90.6447C50.7905 90.4602 49.3311 89.7613 48.9398 89.5656V81.268C49.6378 82.1872 50.4061 83.0509 51.2378 83.8512C53.1499 85.5881 55.2076 87.1576 57.3882 88.5423C59.3452 89.8563 61.4084 91.1591 63.6841 91.8356C63.7288 91.8356 69.7003 88 72.8706 83.2753V85.428C73.1227 85.6879 73.4361 85.8801 73.782 85.9871C73.8269 86.4511 73.8979 86.9122 73.9945 87.3682C73.1781 87.9273 71.9201 88.7772 71.7076 89.7948C71.6811 89.8883 71.6743 89.9863 71.6878 90.0826C71.7013 90.1789 71.7347 90.2713 71.7859 90.3539C71.4951 91.7462 74.6319 91.4722 75.3028 91.3827C76.1751 91.2653 79.2168 91.092 78.7023 89.532C78.7023 89.532 78.8645 87.5751 78.3165 87.234C78.3667 86.7825 78.3667 86.3268 78.3165 85.8753C79.0993 85.7075 79.6473 85.5398 79.6473 85.5398L80.3406 68.2067C81.6322 74.8604 86.888 86.0542 86.888 86.0542C87.2917 86.113 87.699 86.1429 88.107 86.1437C88.265 86.5299 88.4519 86.9038 88.6661 87.2619C88.2356 87.6701 86.0326 89.7724 87.2179 90.4937C87.4751 91.8692 89.639 91.1032 90.4385 90.7621C90.9417 90.5496 93.9946 89.0847 93.0273 88.2851C93.0273 88.2851 92.306 86.5462 92.06 86.4512C92.0119 85.9937 91.9106 85.5433 91.7581 85.1093C92.0467 84.9282 92.3148 84.7164 92.5576 84.4774C92.5576 84.4774 91.9985 81.2513 91.4394 78.0083C94.3695 78.0928 97.3014 77.9187 100.201 77.4883C100.24 77.4883 100.268 77.4324 100.274 77.3933C100.274 76.644 100.324 75.8501 100.905 75.3021C101.426 74.878 102.049 74.5984 102.711 74.4914C104.478 74.1111 105.239 75.2965 105.686 76.7894C105.686 76.8285 108.454 76.6608 109.796 76.7111C109.868 76.7111 109.896 76.5546 109.896 76.5378C109.888 75.2889 109.748 74.0443 109.477 72.8251ZM76.8684 13.5516C76.1192 13.9821 75.163 13.3391 74.9338 12.6066C74.9338 12.5675 74.9785 12.5395 75.0009 12.5787C75.1798 12.903 75.8955 13.7305 76.8237 13.3894C76.8684 13.3615 76.9299 13.5124 76.8684 13.5516ZM90.2149 26.3557C92.1718 27.843 94.2295 29.744 95.0793 32.1036C95.9292 34.4631 96.164 37.3985 94.9955 39.7301C93.8649 41.8376 92.0788 43.5197 89.9074 44.5219C87.4215 45.6653 84.715 46.2493 81.9789 46.2328C81.9645 46.2272 81.9485 46.2272 81.9341 46.2328C81.4114 45.1717 80.7978 44.1577 80.1002 43.2023C83.2377 41.1992 86.4797 39.3645 89.8123 37.7061C89.8254 37.6982 89.8357 37.6864 89.8417 37.6723C89.8478 37.6583 89.8492 37.6427 89.8459 37.6278C89.5046 36.4769 89.278 35.2951 89.1693 34.0997C89.1693 34.0493 89.0854 34.0437 89.0854 34.0997C89.1115 35.0554 89.2389 36.0057 89.4656 36.9345C89.5775 37.4153 89.8458 37.4936 89.4321 37.734C88.6269 38.1534 83.3767 40.9434 81.6042 42.0282C81.526 41.0776 81.2632 36.6605 81.2744 36.6493C82.0404 35.3689 84.9423 30.0907 85.7474 28.8215C85.7537 28.8152 85.7586 28.8078 85.762 28.7997C85.7654 28.7915 85.7672 28.7828 85.7672 28.7739C85.7672 28.7651 85.7654 28.7564 85.762 28.7482C85.7586 28.74 85.7537 28.7326 85.7474 28.7264C85.4083 28.174 85.0006 27.6667 84.5341 27.2167C85.157 26.7313 85.8322 26.3169 86.547 25.9811C86.6085 25.9811 86.6812 25.9307 86.6364 25.8636C86.1789 25.1275 85.6427 24.4432 85.0373 23.8228C86.9149 24.2992 88.6726 25.1618 90.1981 26.3557H90.2149ZM78.8086 45.7799C77.7518 46.7249 77.6903 46.1825 77.6624 46.0092C78.0545 45.8007 78.4174 45.5413 78.7415 45.2376C78.7415 45.2376 78.7079 45.1481 78.68 45.1705C78.4507 45.327 77.1703 46.4062 77.1703 45.7632C77.5865 45.2468 78.0676 44.7864 78.6017 44.3933C78.5234 44.2423 78.2439 44.3933 78.1712 43.4595C78.5235 43.7263 78.9538 43.8697 79.3957 43.8677C79.6606 43.8813 79.9236 43.8151 80.1505 43.6776C80.3544 44.1024 80.586 44.5133 80.8438 44.9077C80.4917 45.2463 80.1182 45.5619 79.7256 45.8526C79.3733 46.0986 78.6073 46.7081 78.16 46.4118C78.4179 46.2416 78.6644 46.0548 78.898 45.8526C78.9092 45.8191 78.8254 45.752 78.7918 45.7799H78.8086ZM84.8919 23.7893C85.0988 24.1303 86.2227 25.517 86.5078 25.9084C85.7347 26.1595 85.0407 26.6087 84.495 27.2112L85.6691 28.7488C84.1818 31.304 82.4318 33.781 81.2688 36.5263C81.6756 32.2163 82.5608 27.965 83.9079 23.8508L84.1092 23.6383L84.8919 23.7893ZM83.1754 22.2908C83.4046 22.7269 83.7345 23.0959 83.975 23.5433C83.2257 24.326 82.3982 25.0082 81.6098 25.7798C81.3141 25.1003 80.9387 24.4584 80.4916 23.8675C81.4449 23.4536 82.3458 22.9281 83.1754 22.302V22.2908ZM80.0555 23.5377C81.8167 23.1519 82.2584 20.9041 82.3703 19.5287C82.3703 19.8082 82.4821 21.7652 82.566 22.4697C82.5629 22.4826 82.5629 22.496 82.566 22.5089L80.3909 23.7893C80.1501 24.2309 79.9444 24.6908 79.7759 25.1647C79.5874 24.6665 79.3632 24.1825 79.1049 23.7166C79.4236 23.6774 79.7311 23.6215 80.0555 23.5488V23.5377ZM79.7032 25.4163C79.701 25.4281 79.7011 25.4402 79.7036 25.4519C79.706 25.4636 79.7108 25.4746 79.7175 25.4845C79.7243 25.4944 79.7329 25.5028 79.7429 25.5093C79.7529 25.5159 79.7641 25.5204 79.7759 25.5226C79.7876 25.5248 79.7997 25.5246 79.8114 25.5222C79.8231 25.5197 79.8342 25.515 79.8441 25.5082C79.8539 25.5015 79.8624 25.4929 79.8689 25.4828C79.8754 25.4728 79.8799 25.4616 79.8821 25.4499C80.0499 24.9411 80.2959 24.449 80.4412 23.9402C80.7519 24.6226 81.1263 25.2741 81.5595 25.886C82.3317 25.3309 83.059 24.7158 83.7345 24.0465C81.895 28.1114 81.2017 33.9263 81.0954 35.8386C80.6481 34.1612 78.652 27.3286 77.914 25.668C78.1019 25.7853 78.3142 25.858 78.5346 25.8804C78.6744 25.64 78.9372 24.1639 79.0937 23.7557C79.1049 23.8396 79.5746 25.0976 79.7032 25.4275V25.4163ZM77.1144 20.5743C77.2357 20.6101 77.3631 20.6201 77.4885 20.6037C77.6139 20.5872 77.7345 20.5447 77.8425 20.4789C77.9504 20.4131 78.0434 20.3253 78.1154 20.2214C78.1875 20.1174 78.2369 19.9996 78.2606 19.8753C78.2606 19.8027 78.4116 19.8418 78.4004 19.9145C78.2383 20.9377 77.2822 20.8594 77.0976 20.6134C77.0865 20.6078 77.0976 20.5854 77.1144 20.5854V20.5743ZM77.0809 23.7389C77.7168 23.8308 78.3627 23.8308 78.9987 23.7389C78.7429 24.3789 78.5409 25.0391 78.3948 25.7127C78.2271 25.6009 77.243 25.0305 76.9411 24.8293C76.9467 24.8181 77.0585 24.1415 77.0809 23.7501V23.7389ZM76.8684 24.9075C77.1307 25.1532 77.4195 25.3688 77.7295 25.5505C78.2159 27.4124 80.5251 34.4631 80.978 36.174C80.2791 35.1788 76.5497 31.1419 75.6159 29.9453C75.886 29.3437 76.1176 28.7256 76.3093 28.0946C75.8198 27.9048 75.312 27.7661 74.794 27.6808C75.3549 26.8823 75.8009 26.009 76.1192 25.0865C76.3484 25.0082 76.8684 24.9075 76.8684 24.9075ZM66.1946 37.5551C66.6884 34.762 67.9442 32.1595 69.8233 30.0348C70.7247 29.0212 71.7104 28.0859 72.77 27.2391C73.7186 26.3606 74.807 25.6463 75.9906 25.1256C75.5041 25.9587 75.04 26.954 74.5089 27.7703C74.4641 27.843 75.6663 28.0722 76.1471 28.24C76.0409 28.4189 75.56 29.6602 75.4202 29.9956C75.4202 30.0348 80.2288 35.4192 81.1066 36.6549C81.0339 37.516 81.5316 42.0897 81.5372 42.0952C81.0172 42.414 80.4636 42.7774 79.966 43.1241C79.9213 43.1241 80.089 43.4204 80.1393 43.5266C79.9322 43.6299 79.7052 43.6871 79.474 43.6944C79.5355 42.5034 79.4292 41.1224 78.4116 40.3396C77.9649 40.0184 77.4391 39.825 76.8908 39.7804C76.0017 39.6686 75.1127 39.6183 74.2237 39.4897C73.8435 39.4338 73.4577 39.3667 73.0775 39.294V39.2605C72.7686 37.5511 72.6486 35.8129 72.7196 34.0773C72.7196 34.0326 72.6469 34.0158 72.6358 34.0773C72.4295 35.8104 72.5126 37.5658 72.8818 39.2716C70.6061 38.8411 68.4087 38.1925 66.1722 37.5495L66.1946 37.5551ZM62.1409 36.4368C62.1938 36.1724 62.3433 35.9372 62.5602 35.7771C62.7297 35.6684 62.9293 35.6163 63.1303 35.6284C63.3312 35.6404 63.5232 35.716 63.6785 35.8442C63.8488 35.99 63.9713 36.1837 64.0301 36.4001C64.0889 36.6164 64.0813 36.8455 64.0084 37.0575C63.9301 37.3203 63.5107 38.0975 63.1753 37.4768C63.1954 37.4315 63.2122 37.3848 63.2256 37.337C63.2801 37.0954 63.3212 36.8508 63.3486 36.6046C63.2815 36.8282 63.2423 37.0687 63.1641 37.2867C63.1466 37.3559 63.1147 37.4206 63.0704 37.4765C63.026 37.5324 62.9703 37.5783 62.9069 37.611C62.7279 37.6725 62.5938 37.5327 62.5267 37.3818C62.6346 37.0464 62.7004 36.699 62.7224 36.3474C62.6903 36.7161 62.5918 37.076 62.4316 37.4097C62.3198 37.611 62.1073 37.6334 62.0346 37.4097C62.0208 37.3339 62.0208 37.2563 62.0346 37.1805C62.0424 36.9276 62.078 36.6763 62.1409 36.4312V36.4368ZM54.2124 35.3186C54.2627 35.3689 54.3074 35.4248 54.3577 35.4863C54.3582 35.4948 54.3611 35.503 54.366 35.51C54.371 35.5169 54.3778 35.5223 54.3857 35.5254C54.5027 35.6749 54.5934 35.8432 54.6541 36.0231C54.7268 36.2467 54.8777 36.8003 54.4137 36.5822C54.2736 36.3841 54.1185 36.1972 53.9496 36.0231C53.916 36.0231 53.9496 36.0231 53.9496 36.0231C54.0502 36.202 54.8498 37.3035 53.9496 37.0575C53.8638 36.7981 53.7269 36.5586 53.547 36.353C53.5371 36.346 53.5252 36.3424 53.5131 36.3428C53.501 36.3431 53.4893 36.3474 53.4799 36.355C53.4704 36.3626 53.4637 36.373 53.4606 36.3847C53.4576 36.3965 53.4585 36.4089 53.4631 36.4201C53.575 36.6773 54.2012 37.639 53.4631 37.3818C53.0429 37.1338 52.7344 36.7332 52.6021 36.2635C52.5163 36.0535 52.5089 35.8196 52.5813 35.6046C52.6538 35.3896 52.8011 35.2078 52.9965 35.0924C53.1919 34.9771 53.4222 34.9359 53.6455 34.9764C53.8687 35.0169 54.0699 35.1364 54.2124 35.313V35.3186ZM32.5013 22.9506C32.7709 22.9497 33.0378 23.0038 33.2859 23.1096C33.5339 23.2153 33.7578 23.3705 33.9438 23.5656C33.8432 22.7605 32.6243 21.6142 32.6243 21.6142C31.1985 21.6478 31.506 20.2388 31.506 20.2388C31.5704 20.0903 31.6697 19.9595 31.7954 19.8576C31.921 19.7556 32.0695 19.6855 32.2281 19.6531C32.3866 19.6207 32.5507 19.6271 32.7063 19.6716C32.8619 19.7161 33.0045 19.7975 33.1219 19.9089C33.1219 20.0822 33.4238 20.8762 33.86 20.9097C34.2961 20.9433 34.1395 21.4018 34.1395 21.4018C34.1395 21.4018 34.4638 20.9824 34.1395 20.7476C33.8152 20.5128 33.7873 19.9033 33.7873 19.9033C35.6212 19.7356 36.9128 15.324 36.9128 15.324C37.3825 17.7674 40.0328 17.8121 40.0328 17.8121C40.0371 19.2624 39.9512 20.7115 39.7756 22.151C39.6995 22.587 39.4798 22.9849 39.1516 23.2818C38.8234 23.5786 38.4054 23.7572 37.964 23.7893C37.964 23.7893 37.964 25.2542 38.0423 25.6624C37.4331 26.1881 36.6552 26.4773 35.8505 26.4773C35.0458 26.4773 34.2679 26.1881 33.6587 25.6624V25.1032C33.9182 25.1213 34.1789 25.11 34.4359 25.0697C32.8703 24.7622 32.5013 22.9506 32.5013 22.9506ZM33.3623 26.2215C33.9215 27.2615 37.0917 27.8989 38.3945 26.009C39.0109 26.013 39.6259 26.0654 40.2341 26.1656C39.8035 30.5995 33.2449 30.7561 31.6849 26.9595C32.2273 26.7023 32.792 26.4619 33.3623 26.2215ZM23.544 43.918C20.5526 39.5792 22.7668 33.7362 26.2614 30.3926C27.8026 28.9824 29.5747 27.8476 31.5004 27.0378C32.1378 29.0675 34.6707 30.0851 36.6668 29.8335C37.6151 29.7443 38.5047 29.3346 39.1888 28.6718C39.8729 28.0091 40.3106 27.1329 40.4298 26.1879C42.0298 26.4673 43.5535 27.0787 44.9028 27.9828C46.3229 28.9411 47.5801 30.121 48.6266 31.4773C49.9797 33.1939 50.7457 35.2738 51.5509 37.2923C50.2034 38.2261 48.621 39.2045 46.9996 40.1215C46.72 39.909 46.0826 39.3443 45.954 39.2269C45.9966 37.5706 45.6439 35.928 44.9252 34.4351H44.8693C46.0211 37.2811 45.7024 39.663 45.7527 40.7813C42.8005 42.3692 39.9489 43.6385 38.484 43.9516C38.484 43.9516 38.484 43.8677 38.4392 43.8565C36.0965 43.0793 29.1129 40.5912 29.1017 40.5912C29.2463 39.6556 29.3415 38.7131 29.3869 37.7676C29.3869 37.7676 29.3422 37.7676 29.3422 37.8011C29.1017 38.7237 29.0682 39.7245 28.9172 40.6695C28.9144 40.6866 28.9166 40.7041 28.9235 40.72C28.9305 40.7359 28.9419 40.7494 28.9564 40.7589C31.998 42.0729 35.2075 42.9955 38.361 43.9963C38.435 45.0626 38.3862 46.1338 38.2156 47.1889C33.2561 47.6418 26.8429 48.6986 23.544 43.918ZM46.8262 40.2222C46.5131 40.4011 46.1944 40.5744 45.8813 40.7422C45.9148 40.3228 45.9372 39.8811 45.9428 39.4282C46.2087 39.723 46.5048 39.9891 46.8262 40.2222ZM38.5455 44.7903C38.7312 44.869 38.9309 44.9096 39.1326 44.9096C39.3343 44.9096 39.5339 44.869 39.7197 44.7903C40.1334 44.5722 40.3403 44.1193 40.7149 43.8453C40.7395 44.151 40.6564 44.4556 40.4801 44.7064C40.4409 44.7567 40.4801 44.8182 40.5584 44.8126C40.9386 44.8685 41.7269 44.7176 42.0009 44.9412C42.3867 45.2488 41.0113 45.3829 40.659 45.4277C40.6031 45.4277 40.6199 45.5171 40.659 45.5227C41.0939 45.5201 41.5258 45.4504 41.9394 45.3158C42.2693 46.1545 40.8771 45.9644 40.6143 46.0595C40.6031 46.0632 40.5933 46.0703 40.5864 46.0798C40.5795 46.0894 40.5758 46.1008 40.5758 46.1126C40.5758 46.1244 40.5795 46.1359 40.5864 46.1454C40.5933 46.1549 40.6031 46.1621 40.6143 46.1657C40.9401 46.188 41.2675 46.1654 41.5872 46.0986C41.8835 46.7976 39.1493 47.3455 38.4616 46.4173C38.5378 45.8785 38.5658 45.334 38.5455 44.7903ZM30.0075 55.1007C30.0075 55.0671 30.0802 55.1007 30.0746 55.1007C29.9349 57.2254 28.5929 65.8695 28.1848 68.0558C28.1848 68.1173 28.0841 68.0893 28.0953 68.0558C28.3861 65.8975 29.5826 57.2477 30.0075 55.1007ZM25.5624 69.2635C26.1466 69.5564 26.7479 69.814 27.3628 70.0351C27.3628 70.1972 27.3964 70.4209 27.4132 70.6725C26.0265 70.5383 24.707 70.8123 23.3259 70.7172C23.3259 70.2196 23.2868 69.3026 23.2868 69.3026C23.6614 69.2914 24.7181 69.2691 25.5624 69.2803V69.2635ZM25.9706 70.8738H27.3852C27.4355 71.5503 27.4914 72.4785 27.5474 73.4737C27.0511 73.4039 26.5487 73.387 26.0489 73.4234C26.0757 72.5786 26.0552 71.733 25.9874 70.8905L25.9706 70.8738ZM25.8308 73.4178C25.7693 73.4178 24.1534 73.4178 23.421 73.4514C23.421 72.7804 23.3259 71.0807 23.3259 70.9017C24.1525 70.9572 24.9819 70.9572 25.8085 70.9017C25.7092 71.7436 25.7167 72.5946 25.8308 73.4346V73.4178ZM4.09177 66.2386C9.12396 61.8438 13.9996 57.6727 19.1436 53.3785C21.0502 55.0559 23.1526 56.5544 25.199 58.0808C24.5672 61.0163 23.8739 64.2313 23.4713 66.082C18.3217 66.1715 7.23968 66.2833 4.09177 66.2386ZM5.04229 84.6508C5.07788 83.8688 5.02914 83.0852 4.89692 82.3136C6.77001 82.5373 23.6055 82.3472 28.2239 82.2745C28.2575 82.8336 28.3134 83.5884 28.3693 84.4159C23.1917 84.4159 8.85557 84.5501 5.04229 84.6508ZM17.8352 77.1249C18.8584 77.0448 19.8856 77.0317 20.9105 77.0857C20.9105 77.0857 20.9105 81.268 20.9999 82.1738L17.9415 82.2242C17.8967 80.4741 17.9415 78.8638 17.8352 77.1249ZM31.5563 92.2214C28.4476 92.7526 26.608 92.4451 25.6295 92.5066C25.5904 92.255 26.0042 91.6791 26.1887 91.5393C26.3732 91.3995 28.783 90.2477 28.783 90.2477C29.5379 91.6176 31.0978 90.9578 31.5787 90.7174C31.7049 91.2184 31.7049 91.7428 31.5787 92.2438L31.5563 92.2214ZM33.5189 82.3975C31.5955 83.2418 29.6888 82.7106 28.1624 81.3407L28.2071 82.034L21.2068 82.1459C21.2895 80.4001 21.239 78.6505 21.0558 76.9124C21.0558 76.9124 18.6851 76.5937 17.6284 76.8733C17.5948 76.8733 17.6563 80.4517 17.701 82.2018L7.07753 82.1626C7.07753 82.1626 6.88743 71.7013 6.59109 66.507C8.97299 66.5796 18.5845 66.3951 23.4433 66.2945L23.147 67.6532C23.7518 68.2156 24.4287 68.695 25.1599 69.079C24.4991 69.0094 23.8314 69.0548 23.1861 69.2132C23.1826 69.226 23.1826 69.2395 23.1861 69.2523C23.0688 70.7048 23.0912 72.1653 23.2532 73.6135C23.2532 73.6135 23.2924 73.6806 23.3203 73.6806C24.0136 73.7253 26.8037 73.5967 27.62 73.7142C27.7486 76.0234 27.8996 78.6345 28.045 79.5291C28.045 79.5291 28.2071 81.2792 28.2351 81.296C29.0235 81.8551 30.9692 83.4151 33.4909 82.3024C33.5413 82.2633 33.5916 82.3919 33.5189 82.4198V82.3975ZM33.9942 80.2281C31.5787 80.8207 28.8949 79.7919 28.2239 79.49C28.0003 77.8573 27.8661 71.5559 27.525 70.1022C30.2719 71.0226 33.155 71.4707 36.0518 71.4273C35.6156 72.8251 34.3017 78.7352 33.9942 80.2616V80.2281ZM33.1666 61.2176C33.1705 61.2051 33.1783 61.1941 33.1889 61.1864C33.1995 61.1786 33.2122 61.1744 33.2253 61.1744C33.2385 61.1744 33.2512 61.1786 33.2618 61.1864C33.2723 61.1941 33.2801 61.2051 33.2841 61.2176C33.2841 63.141 33.3456 65.07 33.2841 66.9934C33.2841 67.0493 33.1946 67.0493 33.189 66.9934C33.1051 65.0979 33.161 63.1689 33.1666 61.2511V61.2176ZM37.4328 49.2969C36.1804 49.364 30.1641 49.6435 28.4364 48.7937H28.4084C27.9683 48.3406 27.7029 47.7464 27.6592 47.1163C27.894 47.2001 28.14 47.2728 28.3805 47.3399C31.3942 48.1283 34.5309 47.6642 37.567 47.3902C37.4812 48.0316 37.4364 48.6778 37.4328 49.3248V49.2969ZM43.4547 80.8822C42.8955 79.2775 41.2629 72.6742 40.5863 71.1254C41.1455 71.0583 42.3364 70.8514 42.7557 70.7787C43.3149 71.9473 43.9858 73.0768 44.6009 74.2118C45.2159 75.3468 45.8701 76.5657 46.5467 77.712C47.1058 78.6345 47.6649 79.5403 48.2856 80.4126C46.4125 81.7265 44.1927 81.1562 43.4547 80.9102V80.8822ZM51.5677 91.858C49.7952 91.8971 48.3862 92.0369 46.5355 91.9363C46.404 91.3243 46.3832 90.6937 46.474 90.0744C48.2073 91.5113 48.9006 89.6438 48.9006 89.6438C49.2864 90.0017 51.5509 91.0472 51.5677 91.8859V91.858ZM73.8659 85.9871C75.1239 86.3561 76.8964 86.1157 78.1376 85.8585C78.0817 86.3226 78.4451 87.9944 76.3931 88.2292C73.8323 88.5591 73.9777 86.4512 73.8659 86.0151V85.9871ZM75.588 91.0808C74.8779 91.1982 72.0599 91.6399 71.8642 90.449C72.0764 90.5912 72.3245 90.6706 72.5799 90.6782C73.5527 90.7565 78.2327 89.9066 78.4955 89.5935C78.7918 90.8292 76.354 90.9857 75.588 91.1088V91.0808ZM78.4955 89.4705C78.1991 89.7445 74.3523 90.4266 73.5583 90.4881C72.7644 90.5496 71.3665 90.6726 71.9536 89.4593C72.0771 89.2156 72.2332 88.9899 72.4177 88.7884C72.6488 89.0171 72.8934 89.2318 73.1502 89.4314C73.2173 89.4761 73.2844 89.3978 73.2508 89.3307C73.0754 89.0482 72.8233 88.8214 72.5239 88.6765C72.6861 88.5088 72.8706 88.3411 73.0551 88.1845C73.1669 88.274 73.5639 88.7101 73.6869 88.7828C73.6995 88.7902 73.7141 88.7935 73.7287 88.7925C73.7433 88.7915 73.7572 88.7861 73.7687 88.7771C73.7801 88.768 73.7886 88.7557 73.793 88.7418C73.7973 88.7278 73.7974 88.7129 73.7932 88.6989C73.6692 88.4274 73.4561 88.2064 73.1893 88.0727L73.5975 87.7428C73.8938 87.9329 74.1566 88.1677 74.4474 88.369C74.4865 88.369 74.5368 88.369 74.5089 88.3131C74.2885 88.0374 74.0097 87.8139 73.6925 87.6589C73.8033 87.5686 73.919 87.4846 74.0392 87.4073C74.2865 87.7303 74.6056 87.9913 74.9712 88.1697C75.3368 88.3482 75.7389 88.439 76.1457 88.4353C76.5525 88.4315 76.9528 88.3331 77.3151 88.1479C77.6773 87.9627 77.9914 87.6957 78.2327 87.3682C78.6353 87.7931 78.4955 89.135 78.4955 89.4985V89.4705ZM79.474 66.9878C79.049 72.3387 72.8203 82.7218 72.8203 82.7218V82.856C69.5997 87.5303 65.3223 90.326 63.6617 91.6623C61.3245 90.9634 59.2222 89.6047 57.2149 88.2516C55.0549 86.8684 53.0245 85.2927 51.1483 83.5437C49.3632 81.7186 47.8322 79.6611 46.597 77.4268C45.2998 75.1903 44.2039 72.8531 42.8508 70.6669C42.2917 69.4704 37.8913 59.3948 37.6621 49.3136C37.7131 48.6813 37.7225 48.0462 37.69 47.4126L38.2156 47.3679C38.2503 47.3458 38.2761 47.3121 38.2883 47.2728C38.3512 47.045 38.3998 46.8134 38.4337 46.5795C38.732 46.7877 39.0729 46.9269 39.4317 46.9868C39.7906 47.0468 40.1582 47.0261 40.508 46.9262C40.9162 46.8367 41.9226 46.6466 41.7158 46.0259C41.7792 46.0021 41.8394 45.9701 41.8947 45.9309C41.9531 45.9011 42.0033 45.8575 42.0409 45.8038C42.0786 45.7502 42.1026 45.6882 42.1109 45.6232C42.1192 45.5581 42.1114 45.4921 42.0884 45.4307C42.0653 45.3694 42.0276 45.3146 41.9786 45.2711C42.1798 45.1705 42.2693 45.0307 42.1127 44.835C42.0289 44.7652 41.9313 44.7138 41.8263 44.6839C41.7214 44.6541 41.6114 44.6465 41.5033 44.6617C41.2041 44.6578 40.9051 44.6765 40.6087 44.7176C40.81 44.438 40.9162 43.4763 40.6422 43.644C40.3915 43.838 40.1726 44.0701 39.9936 44.3318C39.5743 44.8126 39.0878 44.7623 38.5175 44.6728C38.5175 44.4772 38.5175 44.2815 38.4672 44.1137C39.5928 43.9711 40.6847 43.6324 41.6934 43.1129C43.0018 42.5537 49.3479 39.6295 52.658 36.7444C52.7446 36.9399 52.8708 37.1154 53.0287 37.2597C53.1865 37.404 53.3725 37.5141 53.575 37.5831C53.944 37.6669 54.0111 37.4545 53.9552 37.1861C53.995 37.2149 54.0412 37.2338 54.0899 37.2411C54.1385 37.2484 54.1882 37.2439 54.2348 37.228C54.2813 37.2121 54.3234 37.1853 54.3574 37.1498C54.3915 37.1143 54.4165 37.0711 54.4304 37.0239C54.4723 36.9083 54.4723 36.7817 54.4304 36.6661C54.6317 36.7723 54.7771 36.7891 54.8386 36.5487C54.8591 36.3537 54.8399 36.1566 54.7823 35.9692C54.7246 35.7819 54.6297 35.6081 54.5031 35.4584C54.9001 35.1452 55.2691 34.8042 55.6605 34.4855C56.4601 33.8481 57.4386 34.5917 58.2381 34.9328C59.457 35.4584 61.9508 36.5263 61.9675 36.5039C61.932 36.6531 61.9058 36.8044 61.8892 36.9568C61.8892 37.1637 61.7718 37.5607 62.0402 37.6669C62.2135 37.734 62.3421 37.6334 62.4316 37.4656C62.4478 37.5213 62.4767 37.5725 62.516 37.6151C62.5554 37.6577 62.604 37.6906 62.6582 37.7112C62.7124 37.7318 62.7707 37.7395 62.8284 37.7338C62.8861 37.728 62.9417 37.709 62.9907 37.6781C63.0331 37.6506 63.0708 37.6167 63.1026 37.5775C63.2535 37.8235 63.5331 37.9577 63.7623 37.734C63.944 37.5595 64.0753 37.3394 64.1426 37.0966C66.9853 38.0902 69.8968 38.8751 72.8538 39.445C74.2573 39.7078 75.6886 39.7581 77.092 40.0041C78.9819 40.3228 79.3901 42.0282 79.3286 43.6944C79.1923 43.687 79.0573 43.6645 78.926 43.6273C78.6367 43.5377 78.353 43.4313 78.0761 43.3086C78.0761 43.3086 78.0426 43.3086 78.0426 43.3421C77.9862 43.5634 78.0039 43.7971 78.0929 44.0075C78.1434 44.1715 78.253 44.311 78.4004 44.3989C78.0692 44.5715 77.7749 44.807 77.5338 45.0922C77.3716 45.2599 76.9187 45.6513 76.9746 45.9309C77.0305 46.2105 77.3213 46.1322 77.5338 46.0707C77.5111 46.1206 77.5014 46.1755 77.5056 46.2301C77.5099 46.2848 77.528 46.3375 77.5581 46.3833C77.5883 46.4291 77.6296 46.4665 77.6781 46.492C77.7266 46.5175 77.7809 46.5303 77.8357 46.5292H78.009C78.3557 46.9206 78.8589 46.5963 79.2112 46.367L79.6752 46.0707C79.6752 47.407 79.8821 48.7489 80.0051 50.0797C80.0946 51.1029 80.1393 52.1429 80.2735 53.1661C80.5419 60.8485 79.8933 61.6761 79.474 67.0158V66.9878ZM80.4636 53.1269C80.3909 52.0087 80.2344 50.8904 80.1393 49.7721C80.0275 48.5029 79.9828 47.2057 79.7815 45.9477C80.2134 45.6712 80.6097 45.3426 80.9613 44.9692C81.2464 45.4221 81.5483 45.8638 81.8167 46.2943C81.8922 46.3408 81.9756 46.373 82.0627 46.3894C81.9621 47.5076 82.5044 51.8074 82.7057 53.3394C81.621 53.3058 80.8159 53.2052 80.4636 53.1549V53.1269ZM82.812 53.3506C82.6946 51.7962 82.3926 47.5076 82.2528 46.3894C86.2003 46.3279 90.3938 45.2376 93.2398 42.414C93.3013 44.1584 93.8437 49.3807 93.8716 50.2418C93.9118 50.5084 93.8843 50.7808 93.7914 51.0339C93.6986 51.287 93.5435 51.5126 93.3404 51.69C89.8179 53.4233 85.5014 53.5295 82.812 53.3785V53.3506ZM90.6398 90.3987C89.7396 90.8068 87.928 91.6008 87.3242 90.4658C87.6401 90.4932 87.9584 90.4629 88.2635 90.3763C89.9359 90.0538 91.5166 89.3665 92.8931 88.3634C93.5026 89.0288 90.9921 90.2533 90.6119 90.4266L90.6398 90.3987ZM92.8372 88.2236C91.5426 89.1896 90.0457 89.8492 88.4592 90.1526C87.9616 90.2533 87.162 90.449 87.0614 89.7836C87.0777 89.5375 87.1672 89.3019 87.3186 89.1071C87.3801 88.9952 87.4528 88.889 87.5255 88.7828C87.7273 88.8904 87.903 89.0412 88.0399 89.2245C88.1014 89.2692 88.1573 89.1853 88.1349 89.1294C88.0107 88.9257 87.8246 88.767 87.6037 88.6765C87.71 88.5312 87.8218 88.3914 87.9336 88.2516C88.3306 88.4137 88.4368 88.7269 88.5543 88.8107C88.6717 88.8946 88.6549 88.8107 88.6381 88.7492C88.4972 88.4916 88.2832 88.2815 88.0231 88.1454L88.3082 87.7987C88.7332 88.0615 88.8674 88.4026 88.9904 88.52C89.0407 88.5591 89.1413 88.52 89.1134 88.4473C88.9644 88.1255 88.7255 87.8537 88.4257 87.6645L88.722 87.2955C89.3818 88.4137 91.9202 87.8546 92.0153 86.5686C92.3341 87.1024 92.6 87.6661 92.8092 88.2516L92.8372 88.2236ZM91.6071 85.1149C91.7189 85.5286 92.5297 87.2899 90.3658 87.6813C88.8618 87.9553 88.2859 86.1604 88.2523 86.0878C89.4241 86.064 90.5699 85.7386 91.5792 85.1428L91.6071 85.1149ZM105.943 76.5602C105.68 76.4427 105.68 76.2191 105.585 76.001C105.46 75.6384 105.293 75.2913 105.088 74.9666C104.165 73.7365 102.292 74.072 101.101 74.743C100.805 74.9206 100.554 75.1646 100.367 75.4556C100.181 75.7466 100.065 76.0769 100.028 76.4204C100.021 76.5702 100.006 76.7195 99.9829 76.8677C99.8767 77.2423 99.7928 77.2311 99.3902 77.2814C98.8702 77.3485 94.1623 77.6728 91.5009 77.7511C91.0815 75.3021 90.6678 72.8755 90.4889 71.8858C90.2231 70.7721 90.1794 69.6169 90.3603 68.4863C91.0385 67.4713 91.5536 66.3563 91.8867 65.1818C93.6256 65.0644 97.478 64.7289 98.4621 64.9861C99.6866 65.3216 100.341 66.3616 100.794 67.4687C101.247 68.5757 101.593 69.8058 101.985 70.9073C101.985 70.9521 102.102 70.9744 102.119 70.9744C103.092 70.9744 104.087 70.8346 105.06 70.7899C106.033 70.7452 107.341 70.3761 108.169 70.9912C108.774 71.5568 109.152 72.3245 109.231 73.1494C109.425 74.2288 109.518 75.3238 109.511 76.4204C108.526 76.3868 106.1 76.6328 105.943 76.5602Z" fill="black"/>
<path d="M104.361 79.423C104.55 79.2722 104.707 79.0844 104.821 78.8711C104.936 78.6578 105.005 78.4234 105.026 78.1823C105.047 77.9411 105.019 77.6982 104.943 77.4684C104.867 77.2386 104.745 77.0266 104.585 76.8454C104.24 76.4143 103.76 76.1119 103.222 75.9871C102.685 75.8623 102.121 75.9224 101.621 76.1577C100.469 76.8398 100.816 78.2768 101.342 79.0037C101.946 79.8312 103.533 79.9821 104.361 79.423ZM101.711 76.3478C102.047 76.184 102.422 76.1157 102.795 76.1502C103.167 76.1847 103.523 76.3207 103.824 76.5435C104.607 77.0523 105.099 78.26 104.383 79.0316C103.824 79.6299 102.471 79.5908 101.85 79.1155C100.654 78.2153 101.09 76.6497 101.711 76.3478Z" fill="black"/>
<path d="M103.148 78.0251C103.25 77.9206 103.307 77.7801 103.307 77.6337C103.307 77.4874 103.25 77.3469 103.148 77.2424C103.044 77.1449 102.907 77.0906 102.765 77.0906C102.622 77.0906 102.485 77.1449 102.382 77.2424C102.329 77.2862 102.286 77.3403 102.256 77.4013C102.225 77.4624 102.208 77.5291 102.204 77.5973C102.2 77.6655 102.211 77.7337 102.235 77.7977C102.258 77.8616 102.295 77.92 102.342 77.9692C102.391 78.0271 102.45 78.0747 102.517 78.109C102.584 78.1433 102.658 78.1637 102.733 78.1689C102.808 78.1741 102.884 78.1641 102.955 78.1394C103.026 78.1147 103.092 78.0758 103.148 78.0251ZM102.918 77.3598C102.96 77.376 102.998 77.4021 103.028 77.4357C103.058 77.4694 103.08 77.5097 103.091 77.5534C103.103 77.5971 103.104 77.6428 103.094 77.6869C103.084 77.731 103.064 77.7722 103.036 77.8071C102.471 78.4053 102.141 77.1026 102.907 77.3486L102.918 77.3598ZM97.998 66.9096C96.8797 66.0485 94.7662 66.6412 93.5753 66.9991C93.5629 67.0004 93.5515 67.0063 93.5432 67.0156C93.535 67.0249 93.5304 67.0369 93.5305 67.0494C93.6312 68.3633 93.9387 69.7612 94.1456 71.0639C94.1456 71.0639 97.6513 70.6222 99.3902 70.6278C99.435 70.6278 99.5188 70.6278 99.5132 70.5663C99.3511 69.3139 99.0659 67.7371 97.998 66.9096ZM94.3021 70.8235C94.1176 69.6158 94.0393 68.3689 93.7989 67.1668C94.9787 66.9431 96.9356 66.3113 97.9477 67.2227C98.8311 68.0111 99.0324 69.2859 99.2001 70.3986C98.3838 70.3986 95.1184 70.7005 94.3021 70.8347V70.8235ZM103.673 81.6371C102.052 80.6587 99.804 80.9885 98.0819 81.6371C97.1764 81.9677 96.3263 82.4333 95.5602 83.0182C94.9619 83.4823 94.4028 84.0246 94.5258 84.8354C94.5258 84.9584 95.4483 87.8938 95.4651 87.8994C96.958 88.8555 99.1722 88.794 100.827 88.397C101.747 88.1797 102.628 87.8214 103.438 87.3347C104.163 86.8841 104.756 86.2519 105.16 85.5007C105.16 85.5007 105.015 83.6388 105.009 83.5941C104.962 83.1841 104.815 82.7918 104.583 82.4509C104.35 82.1101 104.038 81.8308 103.673 81.6371ZM95.1464 83.7003C95.8443 82.9674 96.6933 82.395 97.6345 82.0229C99.435 81.2234 102.007 80.955 103.5 81.8328C104.467 82.392 105.116 83.5717 104.406 84.6285C103.81 85.3381 103.039 85.8798 102.169 86.1996C100.408 86.988 97.9644 87.6198 96.1808 86.5743C95.2247 86.0151 94.3021 84.7347 95.1464 83.7003ZM103.069 87.2508C102.349 87.6469 101.578 87.9422 100.777 88.1287C99.1042 88.5691 97.3321 88.4352 95.7447 87.7484C95.7447 87.7484 95.3253 86.496 95.1185 85.8809C95.5041 86.3421 95.9891 86.71 96.5372 86.9569C97.0853 87.2038 97.6822 87.3234 98.2831 87.3067C100.247 87.2566 102.151 86.6262 103.757 85.4951C104.192 85.2177 104.536 84.8193 104.747 84.3489C104.797 84.7068 104.842 85.4392 104.842 85.4672C104.424 86.2116 103.811 86.8282 103.069 87.2508Z" fill="black"/>
<path d="M98.7807 85.9872L98.613 86.2835C98.5515 86.3954 98.7248 86.496 98.7863 86.3842L98.9764 86.0543C99.1648 86.1111 99.3639 86.1234 99.5579 86.0905C99.7519 86.0575 99.9356 85.98 100.095 85.8642C100.19 85.7915 100.095 85.6461 99.9717 85.702C99.7048 85.851 99.3938 85.9005 99.0938 85.8418C99.4181 85.2827 99.7648 84.7739 100.117 84.2595C100.246 84.2595 100.374 84.2595 100.508 84.293C100.76 84.3328 101.018 84.2933 101.246 84.1801C101.475 84.0669 101.662 83.8856 101.783 83.6612C101.86 83.459 101.871 83.2379 101.815 83.0291C101.758 82.8203 101.638 82.6346 101.47 82.4982L101.386 82.4423L101.576 82.1515C101.58 82.1475 101.582 82.1429 101.584 82.1379C101.585 82.1329 101.586 82.1276 101.585 82.1224C101.585 82.1172 101.583 82.1122 101.581 82.1076C101.578 82.103 101.575 82.0989 101.571 82.0956C101.567 82.0923 101.562 82.0898 101.557 82.0883C101.552 82.0868 101.547 82.0863 101.542 82.0868C101.536 82.0874 101.531 82.0889 101.527 82.0914C101.522 82.0938 101.518 82.0972 101.515 82.1012C101.425 82.1907 101.336 82.2801 101.252 82.3752C100.954 82.2902 100.641 82.2727 100.335 82.324C100.03 82.3752 99.7392 82.494 99.4852 82.6715C99.4349 82.7051 99.4852 82.7945 99.53 82.7722C99.8145 82.6434 100.116 82.5549 100.425 82.5094C100.648 82.4828 100.874 82.4999 101.09 82.5597C100.685 83.0326 100.312 83.5312 99.9717 84.0526C99.3846 83.9911 98.708 83.9463 98.2943 84.4887C98.2012 84.6122 98.1393 84.7562 98.1137 84.9087C98.0882 85.0611 98.0998 85.2175 98.1475 85.3645C98.1953 85.5116 98.2777 85.6449 98.3879 85.7533C98.4982 85.8617 98.6329 85.9419 98.7807 85.9872ZM101.269 82.5933C101.41 82.6408 101.529 82.7391 101.603 82.8692C101.676 82.9994 101.699 83.152 101.666 83.2978C101.52 84.047 100.872 84.1085 100.268 84.0582C100.604 83.5717 100.939 83.0853 101.269 82.5933ZM99.2336 84.2036C99.4194 84.1828 99.6069 84.1828 99.7928 84.2036C99.4629 84.7124 99.1553 85.238 98.859 85.7524C97.8414 85.2939 98.4341 84.2986 99.2336 84.2036ZM37.2091 96.8176C37.0185 96.3118 36.7084 95.8595 36.3054 95.4993C35.9024 95.1391 35.4183 94.8816 34.8943 94.7488C33.3368 94.3508 31.6952 94.4346 30.1864 94.9892C28.878 95.403 26.8316 96.5604 27.2454 98.2489C27.2957 98.6068 27.9834 101.179 28.0226 101.179C29.3533 102.543 31.6122 102.504 33.3511 102.297C34.8943 102.09 37.0861 101.525 37.69 99.8704C37.5891 98.8598 37.4323 97.8556 37.2203 96.8623C37.2233 96.8589 37.2254 96.8548 37.2265 96.8504C37.2276 96.846 37.2276 96.8414 37.2265 96.837C37.2254 96.8326 37.2232 96.8285 37.2202 96.8251C37.2172 96.8217 37.2134 96.8192 37.2091 96.8176ZM27.5976 97.0356C28.1474 96.1552 29.0072 95.5128 30.0075 95.2352C31.5556 94.6465 33.2459 94.5412 34.8552 94.9333C35.9399 95.1849 37.3153 96.2528 37.0917 97.5165C36.9016 98.6851 35.9734 99.1939 34.9726 99.5797C33.149 100.379 31.0947 100.479 29.2023 99.8593C28.0282 99.4008 26.8708 98.372 27.5976 97.0356ZM33.0771 102.107C32.2049 102.222 31.3214 102.222 30.4492 102.107C29.61 101.952 28.8134 101.62 28.112 101.134C28.112 101.134 27.8101 99.7139 27.6368 99.0373C28.4978 100.105 30.3597 100.39 31.5786 100.39C32.6036 100.389 33.6208 100.213 34.5868 99.8704C35.4115 99.6549 36.169 99.2358 36.7898 98.6515C36.9725 98.4439 37.113 98.2027 37.2035 97.9414C37.2818 98.5732 37.5222 99.8201 37.5222 99.8201C36.471 101.341 34.8496 101.872 33.0771 102.068V102.107Z" fill="black"/>
<path d="M31.2097 99.2163L31.0811 99.4176C31.0419 99.4791 31.137 99.5574 31.1817 99.4959L31.3439 99.2778C31.5711 99.3753 31.8175 99.4199 32.0645 99.4083C32.3115 99.3967 32.5526 99.3291 32.7696 99.2107C32.8535 99.1604 32.8032 99.015 32.7025 99.0486C32.3061 99.2028 31.87 99.2224 31.4613 99.1045C31.7912 98.6068 32.5236 97.2929 32.6075 97.1699C33.1107 97.2258 33.6475 97.2426 33.9606 96.7729C34.0368 96.6921 34.0917 96.5937 34.1205 96.4865C34.1493 96.3792 34.151 96.2665 34.1255 96.1585C34.1 96.0504 34.0481 95.9504 33.9744 95.8673C33.9008 95.7843 33.8076 95.7208 33.7034 95.6826L33.8096 95.5316C33.8488 95.4813 33.7705 95.431 33.7258 95.4701L33.5636 95.6267C33.3321 95.5375 33.0829 95.5041 32.8361 95.5294C32.5893 95.5547 32.352 95.6378 32.1434 95.772C32.0987 95.8112 32.1434 95.8671 32.2049 95.8447C32.4871 95.7248 32.7936 95.6731 33.0995 95.6938C33.2143 95.7016 33.3273 95.7261 33.435 95.7664C33.0886 96.1404 32.7813 96.5488 32.518 96.9854C32.2595 96.927 31.9943 96.9044 31.7297 96.9183C31.4772 96.9453 31.237 97.0409 31.035 97.1946C30.833 97.3484 30.6768 97.5544 30.5834 97.7905C30.482 98.0629 30.4907 98.3642 30.6076 98.6303C30.7245 98.8965 30.9404 99.1066 31.2097 99.2163ZM33.586 95.8615C34.0724 96.169 33.9326 96.8679 33.1331 97.0189C32.9959 97.0385 32.8565 97.0385 32.7193 97.0189C32.9933 96.6107 33.2896 96.2305 33.586 95.8447V95.8615ZM32.4174 97.1699C32.0372 97.7905 31.7017 98.4391 31.2991 99.0541C31.1739 98.988 31.0643 98.896 30.9775 98.7841C30.8907 98.6723 30.8288 98.5432 30.7959 98.4055C30.5331 97.3208 31.5787 97.0692 32.4174 97.1531V97.1699ZM21.2683 87.318C19.8168 86.5544 18.1497 86.3041 16.538 86.6079C15.1905 86.7588 12.9596 87.5081 13.0602 89.2246C13.0602 89.5713 13.1944 92.2104 13.228 92.2215C14.24 93.7871 16.3759 94.2232 18.098 94.363C19.6748 94.4916 22.0119 94.4189 22.9625 92.8813L23.1134 89.8229C23.0257 89.2892 22.8127 88.784 22.492 88.3486C22.1713 87.9132 21.7519 87.56 21.2683 87.318ZM22.8115 92.8366C21.4975 94.0667 19.8481 94.2792 18.098 94.1394C17.2159 94.0895 16.3439 93.926 15.5036 93.6529C14.6818 93.3292 13.9398 92.8314 13.3286 92.1936C13.3286 92.1936 13.3286 90.7454 13.2895 90.0521C13.9325 91.3102 15.772 91.9755 17.0133 92.216C17.9867 92.4021 18.9841 92.4267 19.9655 92.2886C20.8022 92.2385 21.614 91.9852 22.3306 91.5506C22.5555 91.3819 22.7454 91.1711 22.8898 90.93C22.8283 91.5618 22.8115 92.8366 22.8115 92.8366ZM22.9345 90.2758C22.6046 91.4499 21.5814 91.8078 20.5023 92.0203C18.5569 92.4559 16.5194 92.1677 14.7712 91.2095C13.7312 90.5945 12.6968 89.4371 13.5411 88.2182C13.8631 87.82 14.2615 87.4902 14.7128 87.2483C15.1641 87.0063 15.6592 86.857 16.169 86.8092C17.8724 86.4589 19.644 86.6892 21.2012 87.4633C22.1126 87.9218 23.2588 89.1407 22.9345 90.2758Z" fill="black"/>
<path d="M19.9488 87.9497L20.0439 87.8658C20.0886 87.8267 20.0439 87.754 19.9768 87.782L19.8426 87.8714C19.6192 87.7535 19.3741 87.6823 19.1222 87.6621C18.8704 87.6419 18.6171 87.6732 18.3777 87.754C18.3671 87.7593 18.3587 87.7681 18.354 87.7789C18.3493 87.7898 18.3485 87.8019 18.3519 87.8132C18.3552 87.8246 18.3624 87.8344 18.3722 87.8409C18.3821 87.8475 18.3939 87.8504 18.4056 87.8491C18.8313 87.7794 19.2678 87.8257 19.6693 87.9832C19.2825 88.2575 18.923 88.5683 18.5957 88.9114L18.277 88.8667C18.0127 88.7858 17.7335 88.766 17.4604 88.8086C17.1873 88.8512 16.9274 88.9552 16.7003 89.1127C16.5565 89.2199 16.4406 89.3601 16.3624 89.5215C16.2842 89.6829 16.246 89.8607 16.2509 90.0399C16.2558 90.2192 16.3038 90.3946 16.3908 90.5515C16.4778 90.7083 16.6012 90.8419 16.7506 90.9411L16.5829 91.1144C16.5214 91.1703 16.6108 91.2542 16.6779 91.2039L16.868 91.0305C17.0658 91.182 17.2982 91.2817 17.5442 91.3208C17.7902 91.3598 18.0421 91.3369 18.277 91.2542C18.2951 91.2444 18.3092 91.2286 18.317 91.2096C18.3249 91.1907 18.3259 91.1695 18.32 91.1499C18.3141 91.1302 18.3016 91.1131 18.2846 91.1016C18.2676 91.09 18.2472 91.0847 18.2267 91.0864C17.8205 91.1349 17.4089 91.065 17.0414 90.8851C17.4943 90.4434 18.5342 89.2413 18.6517 89.1295C19.0078 89.202 19.3763 89.1867 19.7252 89.0847C19.8858 89.0424 20.0237 88.9397 20.1103 88.7979C20.1968 88.6562 20.2251 88.4865 20.1893 88.3243C20.1537 88.1759 20.0689 88.0439 19.9488 87.9497ZM16.8904 90.7957C16.7901 90.7395 16.7021 90.6638 16.6318 90.5729C16.5614 90.482 16.5101 90.3779 16.4809 90.2667C16.4516 90.1556 16.4451 90.0396 16.4617 89.9259C16.4782 89.8122 16.5176 89.7029 16.5773 89.6047C16.8848 88.9841 17.4998 88.9561 18.0981 89.0456L18.4224 89.0959C17.8968 89.6439 17.416 90.2421 16.8904 90.7957ZM19.3394 88.945C19.1702 88.9617 18.9998 88.9617 18.8306 88.945C19.1493 88.6486 19.4848 88.3858 19.8147 88.0783C19.8747 88.1248 19.9224 88.1853 19.9536 88.2545C19.9848 88.3237 19.9985 88.3995 19.9936 88.4753C19.988 88.8555 19.6301 88.9226 19.3394 88.945Z" fill="black"/>
</svg>
