<svg width="113" height="113" viewBox="0 0 113 113" fill="none" xmlns="http://www.w3.org/2000/svg">
<path d="M60.7764 68.0222C60.6302 66.278 60.5761 64.5274 60.6143 62.7775C60.6143 62.6321 60.4018 62.593 60.3851 62.7775C60.2023 64.5314 60.2211 66.3005 60.441 68.0501C60.4447 68.0946 60.4659 68.1358 60.5 68.1646C60.5341 68.1935 60.5782 68.2076 60.6227 68.2039C60.6672 68.2002 60.7084 68.179 60.7372 68.1449C60.766 68.1108 60.7802 68.0667 60.7764 68.0222ZM58.2436 67.368C58.2537 67.3907 58.2702 67.4099 58.291 67.4234C58.3119 67.437 58.3362 67.4441 58.361 67.4441C58.3858 67.4441 58.4101 67.437 58.431 67.4234C58.4518 67.4099 58.4683 67.3907 58.4784 67.368C58.4001 65.6067 58.3274 63.8399 58.2492 62.073C58.2492 62.0434 58.2374 62.0149 58.2164 61.9939C58.1954 61.973 58.167 61.9612 58.1373 61.9612C58.1077 61.9612 58.0792 61.973 58.0583 61.9939C58.0373 62.0149 58.0255 62.0434 58.0255 62.073C57.951 63.407 57.9659 64.7444 58.0702 66.0764C58.0739 66.5125 58.1322 66.9464 58.2436 67.368ZM72.8984 67.5916C72.9532 68.4553 72.8567 69.322 72.6133 70.1525C72.6133 70.2811 72.9879 70.9912 73.2227 68.9503C73.3699 67.5719 73.0826 66.1819 72.4008 64.9749C72.3281 64.8407 72.138 64.9749 72.1995 65.0923C72.5865 65.8745 72.8235 66.7222 72.8984 67.5916ZM66.1217 27.172C66.1179 27.5928 66.2602 28.0018 66.5243 28.3294C66.8598 28.6313 67.3798 27.4571 68.9398 27.2726V25.763C67.8514 25.8426 66.8385 26.3491 66.1217 27.172ZM80.8213 67.5581C80.8213 66.4063 80.7207 65.2601 80.6983 64.1083C80.6983 63.9517 80.4579 63.9852 80.4579 64.1418C80.4579 65.3328 80.4579 66.5349 80.5082 67.7314C80.5306 68.5198 80.8381 68.2291 80.8213 67.5581ZM69.9854 25.735L70.0189 27.2447C71.9479 27.3118 72.507 28.7655 72.7139 28.3126C72.8034 28.1057 73.1668 27.0713 72.9711 26.8924C72.1503 26.1555 71.0884 25.7438 69.9854 25.735ZM29.8564 16.6603C29.5657 16.8169 29.8564 17.5046 30.0857 17.3536C30.3149 17.2027 30.1752 16.4758 29.8564 16.6603ZM29.4874 14.9773C29.096 15.0165 29.0848 15.419 29.4874 15.4694C29.7791 15.492 30.0619 15.5799 30.3149 15.7266C30.4659 15.8272 30.6281 15.6259 30.5386 15.4861C30.4234 15.3166 30.2656 15.1803 30.0811 15.091C29.8966 15.0017 29.6919 14.9625 29.4874 14.9773ZM28.4866 16.9455C28.6362 17.3379 28.754 17.7418 28.8388 18.1532C28.9339 18.634 28.9283 18.7626 28.9059 18.7906C28.8156 18.7935 28.7258 18.8047 28.6375 18.8242C28.4754 18.8801 28.4754 19.0869 28.727 19.2044C28.7952 19.2388 28.8723 19.252 28.9481 19.242C29.0239 19.232 29.0949 19.1994 29.1519 19.1484C29.4427 18.8689 29.3197 18.0805 28.7941 16.8057C28.7756 16.7649 28.7416 16.7332 28.6996 16.7174C28.6577 16.7017 28.6112 16.7033 28.5704 16.7218C28.5297 16.7404 28.4979 16.7743 28.4822 16.8163C28.4665 16.8582 28.468 16.9047 28.4866 16.9455Z" fill="black"/>
<path d="M109.527 84.2985H101.593C102.325 80.3846 97.9754 77.6281 95.2692 79.0706C94.9913 77.7144 94.2278 76.5064 93.122 75.6735C92.0163 74.8405 90.6444 74.44 89.2642 74.5472C89.1169 73.5865 88.7536 72.6717 88.2015 71.8717C87.6495 71.0717 86.9231 70.4074 86.0771 69.9288C85.8143 66.7977 85.9317 63.6106 85.9373 60.5186C86.4126 60.5522 87.5532 60.6584 87.3687 60.2055C86.8096 58.8189 85.8535 56.5041 85.1322 55.1733C85.4229 55.1733 85.7528 55.1733 85.7528 54.877C85.8423 49.5093 86.0156 38.2484 86.0156 38.2484C86.1051 31.5835 86.3287 23.9234 81.6488 18.4383C81.5034 18.265 81.3021 18.2035 81.1735 18.3824C79.2697 21.0779 78.0179 24.1786 77.5168 27.4404C77.3267 24.2533 77.0751 20.6525 76.5831 17.0908C75.7444 11.0466 73.7203 6.98732 70.4326 4.57746C70.1195 4.34822 69.661 3.97919 69.4541 4.12456C64.3213 7.75892 62.8116 14.0995 62.4538 18.7794C62.3252 20.7699 62.286 22.7884 62.3364 24.7901C61.6486 22.2237 59.2891 17.2138 58.4224 18.4216C54.3855 24.203 54.7266 31.673 55.0676 38.2652C55.6268 50.8233 55.7945 54.0607 55.8672 54.9049C55.8672 55.1789 55.8672 55.3634 56.6388 55.2796C55.0117 59.5905 54.6763 60.3117 54.8216 60.4348C54.967 60.5578 55.5429 60.5186 55.8225 60.5019C55.7833 62.3861 56.2306 71.5447 56.1691 72.0312C55.7632 72.5255 55.4368 73.0801 55.2018 73.675C54.2487 73.9343 53.3641 74.3997 52.6106 75.0384C51.857 75.677 51.2528 76.4732 50.8406 77.3709C50.0968 77.2981 49.3469 77.4215 48.6656 77.7287C47.9946 70.2867 46.6192 59.0369 44.9362 51.5446C47.8157 51.9192 49.1912 50.6276 49.8565 49.5093C51.5339 46.5851 50.4157 41.7262 48.3357 39.0368C46.5752 35.2914 43.9933 31.9909 40.7818 29.3806C41.1229 28.732 40.2227 25.7853 37.9358 24.572C36.9574 24.052 35.6546 24.0129 35.0563 23.4538C33.7759 22.2013 34.637 18.8689 31.9699 17.9966C31.7974 16.6185 31.5113 15.2571 31.1144 13.9261C34.4692 12.4836 34.2959 8.58085 32.3166 7.47376C30.4714 6.44496 29.4538 7.9043 28.2405 8.31246C26.5631 8.87159 25.1373 7.66387 22.9343 7.66387C18.78 7.66387 17.7959 11.8462 17.5778 12.0531C17.3598 12.2599 17.2759 13.4397 15.4252 14.1666C13.457 14.9326 10.9521 14.9773 9.88419 17.2921C8.97839 19.3162 10.7173 21.7875 9.52075 23.6606C8.82184 24.7789 6.31134 24.846 4.48856 27.7703C2.53719 30.8846 3.19138 35.1117 5.8808 36.8673C3.566 42.0673 3.67223 47.5971 6.15478 51.3209C8.42485 54.7148 12.1263 55.9897 16.1465 55.8834C15.9452 65.3551 16.0291 74.7989 15.5258 84.3321C13.7087 84.3321 11.8859 84.3712 10.1023 84.4048C10.0518 84.4048 10.0035 84.4248 9.96783 84.4604C9.93217 84.4961 9.91215 84.5444 9.91215 84.5949C9.91215 84.6453 9.93217 84.6936 9.96783 84.7293C10.0035 84.7649 10.0518 84.785 10.1023 84.785C11.6958 84.8185 13.5801 84.8521 15.4923 84.8521C15.1848 90.4042 14.771 96.0347 14.2622 101.553C14.2119 102.112 15.5202 102.079 16.0738 102.112C15.9209 102.889 15.8627 103.681 15.9004 104.472C15.4755 104.847 14.8549 107.407 14.8884 107.883C14.8884 107.983 14.9332 108.045 15.0002 108.056C15.6153 108.157 24.9081 108.615 25.3386 108.106C25.3494 108.087 25.355 108.065 25.355 108.042C25.355 108.02 25.3494 107.997 25.3386 107.978C24.718 106.3 22.5429 104.886 20.7649 104.427L21.2458 102.286C21.6148 102.286 22.364 102.342 22.4703 102.146C24.9696 96.51 27.2452 90.6894 29.2302 84.8577H37.3599C38.9088 89.829 40.2758 94.8552 41.4584 99.9263C41.9336 101.973 41.6037 101.861 42.9233 101.922C42.9171 102.72 43.0129 103.514 43.2085 104.287C42.7796 105.297 42.5208 106.37 42.4424 107.463C42.4316 107.482 42.426 107.503 42.426 107.525C42.426 107.546 42.4316 107.568 42.4424 107.586C42.7947 108.034 52.8311 108.408 53.5189 108C54.078 107.642 51.0139 104.673 48.2966 104.125C48.3358 103.411 48.3189 102.695 48.2462 101.984C48.7215 101.984 49.8174 102.112 49.8174 101.643C49.8174 96.3646 49.6385 90.7118 49.2583 84.8688H109.544C109.62 84.8666 109.691 84.8344 109.743 84.7794C109.795 84.7243 109.823 84.6509 109.821 84.5753C109.818 84.4997 109.786 84.428 109.731 84.3761C109.676 84.3242 109.603 84.2963 109.527 84.2985ZM33.7927 74.3236C35.1849 78.1537 35.9286 80.5356 37.1866 84.3488H29.3979C30.7566 80.3287 32.6353 74.2845 33.871 69.202C34.2903 67.5246 35.1346 68.2346 34.8271 69.5989C34.4692 71.2819 33.7759 74.2845 33.7927 74.3236ZM47.8996 104.181C46.9435 104.617 44.5448 104.589 43.611 104.321C43.5495 103.521 43.3874 102.722 43.3762 101.922L47.771 101.973C47.8101 102.711 47.8548 103.443 47.8996 104.181ZM16.5882 55.8778C21.2849 55.643 26.8706 53.4959 31.545 50.1244C31.6456 50.0517 31.7351 50.0349 31.763 49.9398C31.791 49.8448 31.763 49.7665 31.5953 49.5261C32.9083 48.9113 34.2871 48.448 35.7049 48.145C36.264 48.0444 37.9023 47.7313 38.1986 46.8423L39.4175 46.8087C40.5917 49.2409 42.4592 50.9295 44.5504 51.4551L45.6686 58.1032C36.4318 61.2846 28.0001 61.9612 16.6217 60.4124C16.6609 58.9083 16.6665 57.3819 16.605 55.8778H16.5882ZM31.243 21.7987C30.4602 23.8284 28.8276 23.9123 29.0904 24.3931V24.5664C29.1966 25.4555 29.4035 27.2838 27.9721 28.5754C25.5567 27.6137 24.0582 26.5066 22.9399 24.8963C23.1748 24.4882 22.9399 22.7045 22.9399 22.6877C22.5933 20.865 21.0053 20.496 21.3632 18.8465C21.4135 18.6061 21.4862 18.4663 21.5812 18.4216C21.8943 18.2818 22.6995 19.3609 22.8672 18.1085C23.13 16.3192 23.6332 14.9382 25.4057 14.435C27.0495 13.9709 28.6375 14.7648 30.7622 14.0324C31.243 16.0229 32.0705 19.6237 31.243 21.7987ZM28.056 29.0674C29.0233 28.827 29.8508 26.4507 29.6495 25.12C31.1585 25.3331 32.6446 25.685 34.089 26.1711C39.3449 28.0442 43.9074 32.0476 46.9882 37.4824C44.8859 35.4695 42.1349 34.3345 39.6468 34.491C38.8535 33.191 37.942 31.9669 36.9238 30.8343C36.9086 30.8175 36.8901 30.8041 36.8694 30.7949C36.8487 30.7857 36.8263 30.781 36.8036 30.781C36.7809 30.781 36.7585 30.7857 36.7378 30.7949C36.7171 30.8041 36.6986 30.8175 36.6834 30.8343C36.6673 30.8499 36.6546 30.8686 36.6458 30.8893C36.6371 30.9099 36.6326 30.9321 36.6326 30.9545C36.6326 30.9769 36.6371 30.9991 36.6458 31.0198C36.6546 31.0404 36.6673 31.0591 36.6834 31.0747C37.5767 32.1856 38.4002 33.3508 39.1492 34.5637C38.4081 34.6756 37.6937 34.9219 37.0412 35.2906C36.9356 35.301 36.8309 35.3197 36.7281 35.3465C36.4211 35.4159 36.1087 35.4589 35.7944 35.4751C34.486 35.4751 34.4357 34.916 33.966 34.9775C33.0323 35.0725 33.3062 36.9177 35.4533 37.3091C35.0675 38.3882 34.8942 40.7645 35.6154 41.7821C34.7544 41.7821 34.2008 41.6032 34.1673 42.481C34.1561 42.6392 34.1561 42.7981 34.1673 42.9563C33.8901 42.7779 33.5763 42.6642 33.2491 42.6235C32.922 42.5829 32.5899 42.6163 32.2774 42.7215C31.6903 42.9451 30.5721 44.1137 30.0074 44.6001C30.0074 44.3653 30.0074 44.0075 29.8005 43.9851C26.25 43.6888 20.8544 43.6049 17.6226 43.6943C17.4454 41.4132 17.4753 39.1207 17.712 36.845C17.7217 36.7983 17.7124 36.7496 17.6862 36.7098C17.6599 36.6699 17.619 36.6421 17.5723 36.6325C17.5255 36.6229 17.4769 36.6322 17.4371 36.6584C17.3972 36.6846 17.3694 36.7256 17.3598 36.7723C17.1809 37.7787 16.8342 41.8828 17.1976 43.7111L12.6183 44.013C12.5845 44.0162 12.5525 44.0296 12.5264 44.0514C12.5004 44.0732 12.4816 44.1024 12.4725 44.1351C12.4634 44.1679 12.4645 44.2026 12.4755 44.2347C12.4866 44.2668 12.5072 44.2948 12.5345 44.315C12.5502 44.3291 12.569 44.3394 12.5893 44.3453C12.6097 44.3511 12.6311 44.3522 12.6519 44.3485C18.297 44.0028 23.9591 44.0401 29.5992 44.4604C29.6252 46.3496 30.1938 48.1915 31.2374 49.7665C23.7786 55.1398 11.5057 58.6511 6.49585 51.0357C2.88945 45.5954 4.67867 36.0901 11.3659 30.2864C14.56 27.5478 18.4462 25.741 22.5989 25.0641C23.6109 26.9931 27.3235 29.2352 28.0504 29.0563L28.056 29.0674ZM36.3423 35.8441C36.0574 36.145 35.8182 36.4859 35.6322 36.8562C34.5866 36.6996 33.994 36.1516 33.8933 35.6988C33.815 35.3856 33.9996 35.257 34.3854 35.5198C34.9923 35.8159 35.6723 35.9286 36.3423 35.8441ZM39.0597 38.9249C39.0313 38.9575 39.0146 38.9986 39.012 39.0417C39.0094 39.0848 39.0211 39.1276 39.0454 39.1633C39.0696 39.199 39.105 39.2258 39.1461 39.2393C39.1871 39.2528 39.2314 39.2524 39.2722 39.2381C39.7251 39.0591 39.9375 39.0983 39.9711 39.1821C40.0046 39.266 39.8257 39.6798 39.4623 39.8587C39.2274 39.9761 38.7745 40.0824 38.4279 39.4505C38.1427 38.9361 38.6292 38.3714 38.4279 38.254C38.2266 38.1366 37.6563 39.0032 38.1427 39.7636C38.0422 39.8373 37.922 39.8793 37.7975 39.8843C37.673 39.8893 37.5499 39.857 37.4438 39.7916C37.1978 39.6015 37.03 39.0703 37.3152 38.1142C37.4214 37.7452 36.7952 37.6501 36.7169 39.2325C36.6834 39.4505 36.443 40.7924 36.3703 41.2453C36.2976 41.6982 36.1969 41.7318 36.1858 41.7374C36.1746 41.743 36.1243 41.7374 36.0795 41.6759C35.6825 41.2286 35.2073 38.9529 35.9677 37.2028C36.2041 36.6126 36.608 36.1044 37.1295 35.7408C37.6511 35.3772 38.2676 35.1741 38.9031 35.1564C39.2769 35.1492 39.6469 35.2325 39.9816 35.3991C40.3162 35.5657 40.6057 35.8107 40.8253 36.1132C41.0449 36.4157 41.1882 36.7668 41.243 37.1367C41.2977 37.5065 41.2623 37.884 41.1397 38.2372C41.0794 38.4252 40.9771 38.5969 40.8405 38.7393C40.7039 38.8818 40.5366 38.9911 40.3513 39.0591C40.2874 38.95 40.1988 38.8574 40.0925 38.7889C39.9862 38.7204 39.8653 38.6779 39.7395 38.6648C39.6137 38.6517 39.4866 38.6685 39.3685 38.7137C39.2504 38.7589 39.1446 38.8312 39.0597 38.9249ZM34.9445 43.6608C34.876 43.468 34.7438 43.3043 34.5699 43.1967L34.637 42.2909H37.2872C37.2872 42.5928 37.3711 43.4819 37.3711 43.4819C36.5591 43.4854 35.7483 43.5452 34.9445 43.6608ZM36.6778 41.7877C36.8254 41.1768 36.9319 40.5566 36.9965 39.9314C37.1782 40.1294 37.4252 40.2553 37.6921 40.2861C37.9591 40.3169 38.2282 40.2505 38.4502 40.0991L38.5397 40.1606C38.3005 41.2521 38.2701 42.3791 38.4502 43.4819H37.8911C37.9063 42.9527 37.848 42.4239 37.7178 41.9107C37.5556 41.7653 36.9238 41.7877 36.6778 41.7877ZM32.3725 43.1408C32.7472 43.0471 33.1401 43.0542 33.5112 43.1612C33.8824 43.2682 34.2187 43.4714 34.486 43.7503C34.5866 43.918 34.5699 43.9739 34.5643 43.9907C34.5587 44.0075 34.2288 44.0522 34.0051 44.041C33.6747 43.9877 33.3359 44.0344 33.0323 44.1752C32.5713 44.545 32.2692 45.0771 32.188 45.6625C32.1041 47.0883 36.2249 46.9094 37.6339 46.8646C36.5939 47.927 33.4963 47.6865 31.3996 49.1515C30.6669 47.8876 30.2007 46.4871 30.0297 45.0363C30.3987 44.8685 31.7798 43.398 32.3725 43.1408ZM49.8565 48.4581C48.6488 51.9863 44.8635 51.0805 44.7069 51.0413C42.0678 50.376 40.5414 47.9158 39.9655 46.7752C40.5917 46.6298 40.4128 46.0147 40.3513 45.4221L45.2269 45.3102C45.6183 46.0539 46.5465 45.8079 46.5017 45.0642C46.5075 44.9024 46.4564 44.7437 46.3574 44.6156C46.2583 44.4875 46.1176 44.3981 45.9596 44.3629C45.8015 44.3277 45.6361 44.3489 45.4921 44.4229C45.3481 44.4969 45.2345 44.6189 45.171 44.7679C44.4721 44.7064 41.0334 44.8014 40.3122 44.8797C40.2283 43.3812 40.3122 43.4875 38.9311 43.4931C38.8025 42.4421 38.8025 41.3793 38.9311 40.3284C39.224 40.383 39.5268 40.3328 39.7865 40.1867C40.0461 40.0405 40.2461 39.8076 40.3513 39.5288C41.2794 39.4114 42.2132 37.8011 41.3913 36.079C41.2374 35.7899 41.0253 35.5358 40.7684 35.3327C40.5115 35.1297 40.2152 34.9821 39.8984 34.8992C44.1646 34.7874 48.0282 38.226 49.5714 42.3189C49.6497 42.3189 49.7 42.263 49.5714 42.3189C50.3658 44.2725 50.4664 46.4393 49.8565 48.4581ZM20.7817 102.275C20.6039 102.979 20.4731 103.694 20.3903 104.416C19.0303 104.557 17.6602 104.572 16.2974 104.461C16.3869 103.684 16.4708 102.912 16.5546 102.135L20.7817 102.275ZM95.314 79.4005C96.5329 78.3997 101.923 79.6745 101.118 84.3153H49.2247L48.7383 78.1201C51.5731 77.136 53.653 78.6345 54.3855 80.4573C54.5141 80.7984 55.2354 80.5076 54.1115 79.1042C53.3973 78.2216 52.3889 77.626 51.2711 77.4268C53.9773 72.2157 61.6375 73.0488 63.1247 78.6513C63.203 78.9476 63.6447 78.8022 63.5665 78.5059C63.1178 76.8537 62.0629 75.4313 60.612 74.5225C59.1611 73.6136 57.421 73.285 55.7386 73.6023C56.2127 72.6492 56.9142 71.8276 57.7812 71.21C58.6482 70.5925 59.654 70.198 60.7097 70.0615C61.7654 69.925 62.8385 70.0506 63.834 70.4273C64.8296 70.804 65.7171 71.4201 66.418 72.2213C66.9324 72.7804 68.6546 76.0569 69.2137 76.4427C68.754 77.2309 68.4663 78.1074 68.3694 79.0147C67.6781 79.268 67.0496 79.6673 66.5267 80.1854C66.0037 80.7036 65.5986 81.3284 65.3389 82.0173C65.3204 82.0595 65.3194 82.1074 65.3362 82.1504C65.3529 82.1934 65.3861 82.228 65.4284 82.2465C65.4706 82.265 65.5185 82.266 65.5615 82.2493C65.6045 82.2325 65.6391 82.1993 65.6576 82.157C65.9959 81.3734 66.5326 80.6915 67.2148 80.1786C67.897 79.6657 68.7012 79.3396 69.5479 79.2323C70.3947 79.1251 71.2547 79.2404 72.0433 79.567C72.8319 79.8936 73.5216 80.4202 74.0446 81.0947C74.0817 81.1466 74.1378 81.1816 74.2008 81.1921C74.2637 81.2026 74.3282 81.1877 74.3801 81.1506C74.432 81.1135 74.467 81.0574 74.4775 80.9944C74.488 80.9315 74.4731 80.867 74.436 80.8151C73.7918 79.9622 72.9068 79.322 71.8952 78.9772C70.8835 78.6323 69.7917 78.5987 68.7608 78.8805C68.9251 77.9902 69.2679 77.1424 69.7686 76.3881C70.2692 75.6338 70.9173 74.9886 71.6739 74.4913C72.5886 73.9049 73.6374 73.5605 74.7218 73.4904C75.8062 73.4204 76.8906 73.627 77.8732 74.091C78.8558 74.5549 79.7044 75.2609 80.3394 76.1427C80.9744 77.0245 81.3749 78.0531 81.5034 79.1321C81.5155 79.1879 81.5475 79.2373 81.5933 79.2712C81.6392 79.3051 81.6958 79.3211 81.7526 79.3163C81.8095 79.3115 81.8626 79.2862 81.9021 79.2451C81.9417 79.204 81.9649 79.15 81.9675 79.093C81.8193 77.8622 81.3431 76.6939 80.5887 75.7102C79.8342 74.7266 78.8293 73.9638 77.6789 73.5017C78.052 72.5172 78.6716 71.645 79.4783 70.9685C80.2849 70.292 81.2518 69.8339 82.2862 69.6381C85.5515 69.1348 88.3528 71.6454 88.7665 74.6032C87.9111 74.7448 87.0989 75.0785 86.391 75.5792C85.683 76.0798 85.0978 76.7345 84.6793 77.4939C84.5786 77.684 84.8862 77.8517 84.9924 77.6672C85.603 76.6353 86.5355 75.8324 87.6466 75.3819C88.7577 74.9314 89.9861 74.8582 91.1428 75.1735C92.2559 75.528 93.2243 76.2331 93.9035 77.1834C94.5828 78.1337 94.9363 79.2783 94.9114 80.4461C94.9114 80.5971 95.1127 80.7872 95.2637 80.6809C95.3252 80.6418 95.5041 80.5132 95.3196 79.4005H95.314ZM62.9682 19.0813C66.8038 18.4104 70.796 18.293 76.3035 18.7011C77.1869 26.2997 77.3155 33.4566 77.4553 41.1C76.3818 38.7292 75.2915 35.2682 75.3082 32.8807C75.303 30.1034 74.6279 27.3683 73.3401 24.9075C71.8081 21.9832 69.7337 19.9145 67.4748 22.3411C64.3437 25.6959 64.5673 29.744 64.6288 34.2338C64.4214 36.2304 63.9919 38.1977 63.3484 40.0991C63.1527 30.7784 62.6103 23.9122 62.9682 19.0813ZM85.3782 54.7204C84.9669 54.6561 84.5482 54.6561 84.1369 54.7204L84.1928 50.3145C84.2092 50.2146 84.2026 50.1124 84.1736 50.0155C84.1445 49.9186 84.0937 49.8297 84.0251 49.7553C82.7447 48.6818 79.1606 45.2264 77.9753 42.1455C77.9753 38.9026 77.925 35.6149 77.7964 32.3719C80.6312 32.288 83.2815 32.3216 85.5124 32.3719C85.736 37.8235 85.3167 47.3511 85.3782 54.7204ZM63.0465 69.6772C61.9145 69.4256 60.7373 69.4638 59.624 69.7883C58.5108 70.1128 57.4974 70.7131 56.6779 71.5335C56.6388 70.3314 56.3928 62.8614 56.3089 60.513L62.6607 60.39C62.6439 61.5251 62.9402 68.5813 63.0465 69.6772ZM75.4256 36.7387C76.4489 40.9714 78.2828 45.4948 83.7064 50.0964C83.7064 51.6061 83.5331 55.4249 83.6337 56.8787C83.5219 56.8787 75.2915 56.9346 74.6876 56.9849C75.3131 50.2554 75.5595 43.496 75.4256 36.7387ZM64.7518 36.8226C65.1264 43.672 65.8142 50.4878 66.8038 57.1079C65.434 57.0744 59.0095 56.8787 58.0758 56.9234C58.0758 56.0064 57.8465 50.7282 57.8242 50.2138C61.3854 46.5179 63.7927 41.8646 64.7518 36.8226ZM63.0744 60.3788C63.477 60.3788 64.366 60.4739 64.3157 60.0769C64.0644 59.2027 63.7214 58.3574 63.2925 57.5552L66.8597 57.6056C66.9436 58.12 67.0219 58.6343 67.1002 59.1488C66.5746 59.7079 65.5122 62.9509 65.3669 63.5379C65.3557 63.577 65.3539 63.6181 65.3617 63.6579C65.3695 63.6978 65.3866 63.7352 65.4116 63.7672C65.5458 63.9349 65.898 63.9573 66.2727 63.9573C64.6456 66.5349 65.529 69.7219 66.1496 71.2931C65.3758 70.6147 64.4695 70.1044 63.4882 69.7946C63.6168 68.7714 63.1471 61.3182 63.08 60.3788H63.0744ZM65.9372 66.4398C66.0556 65.5767 66.3364 64.7439 66.7647 63.9852C69.3439 64.0886 71.9267 64.0607 74.5031 63.9014C74.8106 65.1147 77.6118 68.2962 74.134 73.0767C73.1902 73.2047 72.2839 73.5296 71.4738 74.0305C70.6637 74.5314 69.9679 75.197 69.4317 75.9842C67.4524 72.9929 65.434 70.0406 65.9428 66.4398H65.9372ZM74.9336 42.8333C74.8497 48.4693 74.5031 53.4065 74.0893 58.8077L67.5083 58.981C66.2671 50.3872 65.7359 44.2367 65.2718 37.1749C65.1432 35.1732 65.0146 33.0988 65.0593 31.0691C65.132 27.5857 65.8421 25.1032 67.2959 23.2413C69.3535 20.619 71.0197 21.7875 72.6524 24.6894C73.59 26.3645 74.2348 28.1874 74.559 30.0795C75.0622 32.931 74.9616 41.2062 74.9392 42.8333H74.9336ZM77.282 73.3563C76.4776 73.0957 75.6329 72.9821 74.7882 73.0208C75.729 71.6916 76.2531 70.1127 76.2939 68.4848C76.3347 66.8569 75.8904 65.2537 75.0175 63.879C75.3809 63.879 76.3482 63.879 76.2364 63.5379C76.0463 62.9005 75.5095 61.5754 75.079 60.5074C74.7994 59.8029 74.5199 59.1935 74.5199 59.0313C74.5534 58.735 74.6876 57.4154 74.6876 57.4154C75.2076 57.4993 77.6957 57.4154 78.54 57.4154C77.8299 59.652 77.925 59.3724 77.774 59.7582C77.6622 60.0546 77.6063 60.1999 77.6789 60.3173C77.7516 60.4348 78.048 60.4292 78.7972 60.4459C78.7972 63.6721 79.0712 67.4015 79.211 70.6166C78.3051 71.3119 77.6339 72.2681 77.2876 73.3563H77.282ZM79.1551 60.4403L85.5236 60.5019C85.3208 63.5462 85.332 66.6009 85.5571 69.6437C84.5973 69.2227 83.5448 69.0576 82.5022 69.1644C81.4596 69.2712 80.4625 69.6463 79.608 70.2531C79.4905 66.9822 79.4011 63.6218 79.1607 60.4403H79.1551ZM62.9961 18.662C63.3819 14.1386 64.8692 8.08322 69.7057 4.60542C74.3577 7.79806 75.6269 13.2496 76.242 18.1867C72.2777 17.896 66.6976 17.9351 63.0017 18.662H62.9961ZM55.4479 33.1044C56.7506 33.1044 61.5983 33.0373 62.7166 33.0317C62.8172 35.7155 62.9197 38.4031 63.0241 41.0944C61.9897 43.7782 59.6693 47.9046 57.4943 49.9287C57.3825 50.4878 57.5278 54.0886 57.5558 54.7372C57.1476 54.7763 56.7395 54.8155 56.3592 54.8714C56.1356 47.3455 55.4479 37.6222 55.4479 33.1044Z" fill="black"/>
<path d="M28.3803 20.4624C26.865 20.345 26.4792 19.2435 26.1438 19.3441C26.0543 19.3441 26.0152 19.4616 25.9928 19.5231C25.5175 20.5574 26.1214 21.8435 27.1782 21.8435C27.5032 21.8086 27.8127 21.6862 28.0737 21.4893C28.3346 21.2923 28.5372 21.0282 28.6599 20.7252C28.6783 20.6867 28.6841 20.6432 28.6762 20.6012C28.6684 20.5592 28.6473 20.5208 28.6162 20.4915C28.5851 20.4623 28.5454 20.4437 28.503 20.4384C28.4606 20.4332 28.4176 20.4416 28.3803 20.4624ZM28.1119 20.8482C27.3571 21.8546 26.1605 21.4073 26.278 20.0263C26.5099 20.283 26.7927 20.4887 27.1085 20.6302C27.4242 20.7717 27.7659 20.8459 28.1119 20.8482ZM70.5444 44.9077C70.5355 44.8481 70.5054 44.7937 70.4598 44.7544C70.4141 44.7151 70.3559 44.6934 70.2956 44.6934C70.2354 44.6934 70.1771 44.7151 70.1315 44.7544C70.0858 44.7937 70.0558 44.8481 70.0468 44.9077C70.0468 45.7519 70.3264 56.1686 70.4829 57.298C70.4829 57.3514 70.5041 57.4026 70.5419 57.4403C70.5796 57.4781 70.6308 57.4993 70.6842 57.4993C70.7376 57.4993 70.7888 57.4781 70.8266 57.4403C70.8643 57.4026 70.8855 57.3514 70.8855 57.298C71.1371 53.7419 70.6619 48.5923 70.5444 44.9077ZM26.373 17.8289C26.5519 17.8289 26.6078 17.6388 26.5687 17.4431C26.4904 17.0517 26.1773 17.0293 26.099 17.253C26.0208 17.4766 26.1326 17.8289 26.373 17.8289ZM25.7803 15.4638C25.5286 15.5138 25.3017 15.6489 25.1378 15.8464C24.9739 16.0439 24.8829 16.2918 24.8801 16.5485C24.9249 16.8392 25.1653 16.8392 25.2044 16.6268C25.3218 16.0285 25.5735 16.0676 25.8866 15.8775C25.9317 15.8555 25.9678 15.8186 25.9889 15.773C26.0099 15.7274 26.0146 15.676 26.0021 15.6273C25.9896 15.5787 25.9607 15.5359 25.9203 15.5061C25.8799 15.4763 25.8305 15.4613 25.7803 15.4638ZM82.8901 68.0222C82.8901 68.1284 83.097 68.0949 83.1193 67.9886C83.2088 67.6084 82.795 63.2751 82.8621 62.101C82.8621 61.95 82.6385 61.9556 82.6273 62.101C82.524 64.0786 82.612 66.0615 82.8901 68.0222ZM70.03 72.5679C70.1419 72.6518 70.3152 72.5176 70.2425 72.3946C70.03 72.02 69.7281 71.7292 69.4094 71.1533C68.9202 70.2407 68.6381 69.2315 68.583 68.1975C68.5279 67.1635 68.7012 66.13 69.0907 65.1706C69.1522 65.0308 68.9285 64.9469 68.8615 65.0923C68.3862 66.1832 68.1929 67.3762 68.2994 68.5613C68.4059 69.7465 68.8088 70.8859 69.4709 71.8746C69.6204 72.1331 69.809 72.367 70.03 72.5679Z" fill="black"/>
</svg>
