<svg width="113" height="113" viewBox="0 0 113 113" fill="none" xmlns="http://www.w3.org/2000/svg">
<path d="M34.5024 14.7594C34.4714 14.7685 34.4452 14.7894 34.4295 14.8177C34.4138 14.8459 34.4099 14.8792 34.4185 14.9103C34.4185 15.0222 34.4689 14.9886 35.1566 15.0277C35.7493 15.0613 36.2749 15.0893 36.5321 15.0893H36.6886C36.7114 15.0832 36.7322 15.0712 36.7489 15.0545C36.7656 15.0378 36.7776 15.017 36.7837 14.9942C36.7897 14.9717 36.7898 14.948 36.7839 14.9255C36.7781 14.9029 36.7664 14.8823 36.7501 14.8656C36.5768 14.6923 34.5192 14.7538 34.5024 14.7594ZM33.7308 11.4269C33.6888 12.0879 33.6888 12.7509 33.7308 13.4119C33.7308 13.479 33.6917 13.725 33.8706 13.725C33.9067 13.725 33.9415 13.711 33.9675 13.686C33.9936 13.661 34.0089 13.6269 34.0104 13.5908C34.0548 12.8702 34.0548 12.1475 34.0104 11.4269C34.0104 11.3899 33.9957 11.3543 33.9694 11.3281C33.9432 11.3019 33.9077 11.2872 33.8706 11.2872C33.8335 11.2872 33.798 11.3019 33.7718 11.3281C33.7455 11.3543 33.7308 11.3899 33.7308 11.4269ZM31.2315 14.491C31.2023 14.5047 31.178 14.5271 31.162 14.5551C31.1459 14.5831 31.139 14.6154 31.142 14.6475C31.142 14.8656 31.3881 14.8432 31.7291 14.8824C32.0425 14.9107 32.3542 14.9555 32.6629 15.0166C32.6923 15.0148 32.7204 15.0038 32.7432 14.985C32.766 14.9663 32.7823 14.9409 32.7898 14.9123C32.7972 14.8838 32.7954 14.8536 32.7847 14.8261C32.774 14.7987 32.7548 14.7753 32.73 14.7594C32.2498 14.5836 31.7428 14.4928 31.2315 14.491ZM33.468 15.6652C33.1549 17.1077 33.1046 17.3705 33.3226 17.3705C33.5407 17.3705 33.5183 17.281 33.77 15.7434C33.77 15.5477 33.468 15.4695 33.468 15.6652ZM38.1591 5.81884C37.5609 6.77496 38.3492 8.30139 39.5402 8.05537C39.879 8.01245 40.1918 7.85166 40.4239 7.60119C40.6559 7.35071 40.7924 7.02654 40.8094 6.6855C40.938 5.33799 38.9307 4.58875 38.1591 5.81884ZM38.5002 7.26699C38.3915 7.10445 38.321 6.91944 38.2939 6.72579C38.2668 6.53214 38.2838 6.33487 38.3437 6.14873C38.7015 5.03047 40.3565 5.32681 40.5299 6.40593C40.6473 7.06012 39.255 8.42999 38.5002 7.26699ZM11.0245 20.3395C10.9932 20.3406 10.9629 20.3506 10.9373 20.3685C10.9116 20.3864 10.8917 20.4113 10.8798 20.4403C10.868 20.4692 10.8648 20.501 10.8706 20.5317C10.8765 20.5625 10.891 20.5908 10.9126 20.6135C11.2034 20.9266 12.2266 22.7605 12.8137 23.3029C13.0821 23.0848 14.7427 20.3507 14.642 20.1997C13.4442 20.3709 12.2319 20.4177 11.0245 20.3395ZM14.2898 20.4346C13.897 21.3174 13.3894 22.1446 12.7801 22.8947L11.3599 20.6582C12.3418 20.6925 13.3245 20.6174 14.2898 20.4346ZM6.45076 69.2188C6.48799 69.2186 6.52383 69.2047 6.55141 69.1797C6.56731 69.1645 6.57997 69.1463 6.58862 69.1261C6.59727 69.106 6.60173 69.0842 6.60173 69.0623C6.60173 69.0403 6.59727 69.0186 6.58862 68.9984C6.57997 68.9782 6.56731 68.96 6.55141 68.9449C6.17203 68.6343 5.74034 68.3938 5.27658 68.2347C5.23182 68.238 5.18991 68.258 5.15917 68.2907C5.14306 68.3146 5.13446 68.3429 5.13446 68.3717C5.13446 68.4006 5.14306 68.4288 5.15917 68.4528C5.15917 68.4864 5.22067 68.5143 5.57852 68.7044C5.85435 68.8325 6.11659 68.988 6.3613 69.1685C6.38366 69.196 6.41564 69.214 6.45076 69.2188ZM6.62968 70.5272C6.22173 71.0903 5.89428 71.7076 5.65679 72.3611C5.65382 72.3897 5.66045 72.4184 5.67565 72.4427C5.69084 72.467 5.71373 72.4855 5.74066 72.4953H5.79099C5.81105 72.4949 5.83071 72.4896 5.84825 72.4799C5.8658 72.4701 5.88069 72.4562 5.89163 72.4394L6.14883 71.9642C6.39485 71.5169 6.70796 70.9018 6.87011 70.7285C6.8992 70.6974 6.91538 70.6564 6.91538 70.6139C6.91538 70.5713 6.8992 70.5303 6.87011 70.4992C6.85834 70.4755 6.83953 70.456 6.81625 70.4434C6.79298 70.4307 6.76637 70.4256 6.74007 70.4287C6.71376 70.4317 6.68905 70.4428 6.66929 70.4605C6.64953 70.4781 6.6357 70.5014 6.62968 70.5272ZM9.06191 66.9599C9.08596 66.934 9.10152 66.9014 9.10652 66.8665C9.11152 66.8315 9.10571 66.7958 9.08987 66.7642C9.06794 66.73 9.03429 66.7048 8.9952 66.6935C8.95612 66.6822 8.91425 66.6855 8.8774 66.7027C8.4924 67.1177 8.18892 67.6013 7.98278 68.1285C7.98045 68.1466 7.98183 68.1649 7.98683 68.1825C7.99182 68.2 8.00033 68.2163 8.01184 68.2304C8.02335 68.2446 8.03762 68.2562 8.05377 68.2646C8.06992 68.2731 8.08762 68.2781 8.10579 68.2795C8.13943 68.2815 8.17267 68.2713 8.19938 68.2507C8.2261 68.2302 8.24449 68.2007 8.25117 68.1677C8.42744 67.8076 8.64309 67.4682 8.89417 67.1556C9.01718 67.027 9.05073 66.9823 9.06191 66.9599ZM8.92772 69.8171C8.90973 69.8123 8.89097 69.8111 8.87253 69.8136C8.85408 69.8161 8.8363 69.8222 8.82021 69.8315C8.80411 69.8409 8.79002 69.8533 8.77872 69.8681C8.76743 69.8829 8.75916 69.8997 8.75439 69.9177C8.74961 69.9357 8.74843 69.9545 8.75091 69.9729C8.75338 69.9914 8.75946 70.0091 8.76881 70.0252C8.77816 70.0413 8.79058 70.0554 8.80537 70.0667C8.82017 70.078 8.83704 70.0863 8.85503 70.0911C8.97245 70.1246 10.661 70.6111 10.7896 70.6111C10.8148 70.6082 10.8387 70.5983 10.8585 70.5825C10.8783 70.5667 10.8932 70.5456 10.9015 70.5216C10.9086 70.496 10.9075 70.4687 10.8985 70.4437C10.8895 70.4187 10.8729 70.397 10.8511 70.3818C10.7673 70.3203 8.95008 69.8227 8.92772 69.8171ZM103.002 39.2102C102.986 39.1901 102.965 39.174 102.942 39.1633C102.919 39.1526 102.893 39.1476 102.867 39.1487C102.845 39.1487 102.823 39.155 102.805 39.1668C102.786 39.1787 102.771 39.1957 102.761 39.2158C102.202 40.0992 101.017 42.1233 100.894 42.3358C100.865 42.3548 100.844 42.3826 100.833 42.4149C100.822 42.4472 100.822 42.4822 100.832 42.5147C100.839 42.5437 100.855 42.5697 100.879 42.588C100.902 42.6064 100.931 42.616 100.961 42.6153C105.227 42.2183 105.087 42.2631 105.138 42.1401C105.188 42.0171 105.255 42.2854 103.002 39.2102ZM104.724 41.9667L101.24 42.2854C101.688 41.5642 102.454 40.2837 102.789 39.719C102.834 39.6463 102.867 39.5848 102.895 39.5457C103.824 40.8037 104.439 41.6201 104.724 41.9667ZM106.675 33.138C106.405 32.9299 106.076 32.8114 105.735 32.7991C105.394 32.7868 105.058 32.8812 104.773 33.0692C104.489 33.2572 104.27 33.5294 104.147 33.8478C104.024 34.1662 104.004 34.515 104.09 34.8454C104.175 35.1758 104.361 35.4713 104.622 35.6907C104.884 35.9102 105.207 36.0426 105.547 36.0695C105.887 36.0963 106.227 36.0163 106.52 35.8406C106.812 35.6649 107.042 35.4023 107.178 35.0894C107.293 34.7505 107.307 34.3853 107.218 34.0387C107.128 33.6921 106.94 33.3791 106.675 33.138ZM104.573 35.2236C104.391 34.9763 104.299 34.6751 104.309 34.3685C104.32 34.062 104.434 33.7681 104.632 33.5341C104.831 33.3002 105.102 33.14 105.403 33.0793C105.703 33.0185 106.016 33.0609 106.289 33.1995C106.58 33.3894 106.803 33.6664 106.927 33.9908C107.05 34.3152 107.068 34.6705 106.977 35.0055C106.872 35.2254 106.712 35.4142 106.512 35.5533C106.312 35.6925 106.08 35.7772 105.837 35.7992C105.595 35.8212 105.35 35.7797 105.129 35.6788C104.907 35.5779 104.716 35.421 104.573 35.2236ZM86.1271 41.6145C85.2716 42.5035 86.183 44.4772 87.62 44.0747C87.9056 43.9875 88.1577 43.8152 88.3426 43.5808C88.5276 43.3464 88.6365 43.061 88.6547 42.763C88.673 42.465 88.5997 42.1685 88.4447 41.9132C88.2898 41.658 88.0605 41.4562 87.7877 41.3349C87.5149 41.209 87.2105 41.1683 86.9142 41.2182C86.6179 41.2681 86.3436 41.4062 86.1271 41.6145ZM88.4363 42.5594C88.4555 42.8145 88.3996 43.0696 88.2754 43.2932C88.1511 43.5168 87.9641 43.699 87.7374 43.8175C86.4626 44.466 85.5959 42.6992 86.1327 41.8773C86.2839 41.6578 86.5007 41.4918 86.752 41.4029C87.0034 41.3141 87.2763 41.307 87.5319 41.3827C87.7875 41.4584 88.0126 41.613 88.1751 41.8243C88.3375 42.0357 88.4289 42.293 88.4363 42.5594ZM84.9417 39.5736C84.9138 39.6184 84.9417 39.6855 85.0032 39.6687C87.5193 38.8747 87.4243 38.9195 87.4187 38.8412C86.9714 33.686 84.1478 29.4645 84.0247 29.5093C81.8889 30.2082 81.8609 30.1411 81.9112 30.2473C83.319 33.2125 84.3376 36.3473 84.9417 39.5736ZM84.0863 29.8168C86.7309 34.2898 87.0273 37.7788 87.1 38.6063C86.3843 38.8356 85.8755 38.9977 85.171 39.2605C84.5586 36.1819 83.5454 33.1968 82.1572 30.3815C84.1478 29.6938 84.0247 29.7106 84.0863 29.8168ZM58.5563 44.5331C61.2737 44.7624 73.0602 45.014 74.212 45.0252C76.1913 45.0252 78.2321 44.466 78.5397 42.4923C78.6627 41.6872 79.0988 35.6821 79.0261 34.6645C78.7857 31.0748 77.4549 28.5476 71.1983 27.7145C67.5359 27.228 57.8741 26.9596 54.8772 29.0899C53.334 30.2082 53.5129 32.4783 53.4682 34.1836C53.4413 36.1927 53.5553 38.2012 53.8092 40.1943C54.1559 43.2248 55.0449 44.2368 58.5563 44.5331ZM69.5376 38.7573C69.5313 38.7744 69.5198 38.7892 69.5048 38.7996C69.4898 38.8101 69.472 38.8156 69.4538 38.8156C69.4355 38.8156 69.4177 38.8101 69.4027 38.7996C69.3877 38.7892 69.3762 38.7744 69.3699 38.7573C69.3559 37.8812 69.4007 37.0051 69.5041 36.135C69.5041 36.0679 69.6383 36.0567 69.655 36.135C69.675 37.0107 69.6358 37.8868 69.5376 38.7573ZM68.6933 32.6795C69.1071 32.7075 70.9299 32.8696 71.1479 32.9423C71.2262 32.9703 71.2542 33.1157 71.1479 33.1324C70.9355 33.1324 69.0847 32.92 68.671 32.8585C68.548 32.8417 68.5759 32.674 68.6933 32.6795ZM60.0492 39.7414C60.0555 39.7243 60.067 39.7095 60.082 39.6991C60.0969 39.6886 60.1148 39.6831 60.133 39.6831C60.1513 39.6831 60.1691 39.6886 60.1841 39.6991C60.1991 39.7095 60.2105 39.7243 60.2169 39.7414C60.2778 40.2983 60.2927 40.8594 60.2616 41.4188C62.6156 41.4188 64.9527 41.8493 67.3067 41.8158C67.3402 41.4356 67.3738 41.0665 67.4297 40.6975C67.4297 40.5745 67.6478 40.608 67.6422 40.6975C67.6422 41.1057 67.5807 41.5082 67.5359 41.9108C67.5359 41.942 67.5236 41.9718 67.5015 41.9938C67.4795 42.0159 67.4497 42.0282 67.4185 42.0282C66.1996 42.0282 61.3575 41.6257 60.1498 41.648C60.1176 41.6467 60.0871 41.6333 60.0643 41.6105C60.0416 41.5877 60.0282 41.5572 60.0268 41.525C59.9895 40.9308 59.997 40.3345 60.0492 39.7414ZM57.8126 37.8515C57.8068 37.866 57.7968 37.8785 57.7838 37.8873C57.7709 37.8961 57.7556 37.9007 57.7399 37.9007C57.7243 37.9007 57.709 37.8961 57.696 37.8873C57.6831 37.8785 57.6731 37.866 57.6673 37.8515C57.5432 37.0282 57.5131 36.1935 57.5778 35.3634C57.5778 35.2851 57.7176 35.3075 57.7232 35.3634C57.7176 35.8107 57.8685 37.6614 57.807 37.8515H57.8126ZM59.49 31.8744C59.5067 31.8819 59.5209 31.8941 59.5308 31.9095C59.5408 31.9248 59.546 31.9428 59.546 31.9611C59.546 31.9794 59.5408 31.9973 59.5308 32.0127C59.5209 32.028 59.5067 32.0402 59.49 32.0477C58.5989 32.3229 57.6913 32.5414 56.7726 32.7019C56.2359 32.495 59.3614 31.852 59.4788 31.8744H59.49ZM96.9239 102.811C96.9239 102.856 97.0413 102.901 97.0525 102.856C97.4101 101.693 98.0199 100.623 98.8385 99.7218C99.6571 98.821 100.664 98.112 101.788 97.6451C102.42 97.4027 103.071 97.2157 103.734 97.086C104.819 96.8903 98.3273 96.8735 96.9239 102.811ZM95.1123 100.424C95.4973 99.0139 96.3861 97.794 97.6103 96.9954C98.8345 96.1967 100.309 95.8749 101.755 96.0907C101.805 96.0907 101.816 96.0068 101.755 95.9957C99.5742 95.5092 95.8616 96.2473 94.9949 100.385C94.9725 100.424 95.1012 100.463 95.1123 100.424Z" fill="black"/>
<path d="M107.833 100.424C108.33 100.312 108.828 100.217 109.331 100.144C109.488 100.144 109.409 100.01 107.866 98.1651C108.722 97.9303 108.861 97.9582 108.766 97.852C105.082 93.9716 97.9361 89.1183 97.7459 89.1295C93.4518 89.3196 88.3861 91.7519 87.5362 95.9901C86.2411 95.2585 84.8241 94.7678 83.3539 94.5419C84.1464 91.9759 84.123 89.2271 83.2868 86.6749C88.5874 82.2019 89.3813 77.6282 89.4708 77.4548C98.976 74.8549 100.681 70.5608 99.1885 64.0357C98.1134 59.4047 95.7369 55.1774 92.3391 51.8522C92.3 48.1675 92.7864 40.8932 90.2703 33.3114C85.5121 18.9529 74.4413 16.8338 74.1394 16.7834C73.8394 16.7416 73.5364 16.7248 73.2336 16.7331C79.5965 7.3397 67.592 4.87952 64.2036 8.7543C62.269 10.9908 63.5494 14.1779 65.0479 16.8449C63.2531 17.1133 57.7792 18.2987 53.5577 24.1808C49.1238 30.3871 48.5926 38.9474 48.9337 47.3512C46.5239 45.6291 46.2499 45.4725 46.289 45.6738C46.3953 46.1379 46.7978 47.9662 46.9264 48.4024L44.8241 47.0884C44.7738 47.0548 44.7234 47.0884 44.729 47.1611C44.9136 48.1116 45.126 49.0509 45.3273 49.9959C44.4906 49.6757 43.6377 49.3995 42.7721 49.1684C43.4207 50.5382 46.3729 56.616 48.5479 61.0835C44.3209 60.8542 43.4766 55.4921 41.0444 52.7692C40.1951 51.8048 39.0775 51.1156 37.8344 50.7899C36.5914 50.4642 35.2794 50.5167 34.0664 50.9408C33.1215 49.4256 31.4552 49.9232 31.3434 50.9408C30.4153 49.5709 29.1069 49.1013 27.4686 48.995C26.0006 46.8248 24.6692 44.5653 23.482 42.2295C23.4755 42.2179 23.4656 42.2085 23.4536 42.2025C23.4416 42.1965 23.4282 42.1943 23.4149 42.196C20.8821 42.6657 13.6022 43.9796 13.6133 43.9964C13.8929 44.617 14.083 45.0755 13.7084 45.6738C13.2219 46.451 12.4951 45.6738 12.4224 45.534C10.9127 43.0906 20.8709 61.3574 20.9268 61.3518C24.2816 61.2624 31.8187 60.0714 32.143 59.9932C32.355 59.9558 32.5542 59.8653 32.7218 59.7301C32.8895 59.595 33.0201 59.4196 33.1017 59.2202C33.1832 59.0209 33.2129 58.8042 33.188 58.5903C33.1631 58.3764 33.0844 58.1723 32.9593 57.9971L31.4329 55.4754C31.5245 55.3239 31.603 55.1649 31.6677 55.0001C31.9808 55.9506 33.647 56.3588 34.4242 54.8827C36.1016 54.8827 37.3932 56.1911 38.1201 57.628C39.6242 60.6194 41.0444 69.8954 49.6494 69.2077C50.3758 69.1722 51.0925 69.0251 51.7741 68.7715C52.5177 73.5521 54.4244 82.515 58.6067 84.9864C57.9022 86.7197 57.8295 89.2414 58.0476 91.0977C59.3727 103.846 72.1992 105.165 78.1204 101.162C81.9952 103.807 83.5552 106.558 83.7788 106.474C84.215 106.295 84.6399 106.094 85.0816 105.915C89.9181 104.014 93.4686 104.841 94.8832 105.288C95.5249 105.523 96.149 105.803 96.7507 106.127C96.7555 106.38 96.8405 106.624 96.9932 106.825C97.146 107.026 97.3587 107.173 97.6006 107.245C98.7188 107.553 99.4625 106.306 99.0879 105.674C100.804 104.556 104.92 103.438 109.471 103.773C109.689 103.745 109.51 103.617 107.833 100.424ZM109.163 100.016C105.412 100.525 99.5408 102.621 97.9808 106.054C99.0991 102.141 103.801 99.3449 107.721 98.2266C107.721 98.2154 108.694 99.4176 109.18 100.016H109.163ZM94.777 89.8284C95.7554 89.5712 96.5941 89.4762 97.5726 89.2693C104.372 94.0946 103.835 93.6417 108.487 97.7849C106.55 98.2148 104.701 98.9711 103.019 100.021C100.385 101.587 98.4113 103.287 97.7236 106.256C95.023 102.023 90.8239 98.7913 87.7263 96.1522C88.6209 93.0602 90.6282 90.9187 94.7937 89.8284H94.777ZM88.6265 77.371C85.0425 76.946 81.7268 71.8803 83.544 70.6614C84.5928 70.441 85.6186 70.1228 86.608 69.7109C86.1831 71.9027 90.0355 76.454 92.546 76.0906C91.2734 76.6044 89.9677 77.0322 88.6377 77.371H88.6265ZM67.3795 72.3388C66.6135 72.7525 65.5791 71.953 66.5184 70.2421C67.3515 68.7212 69.8341 66.9767 70.2478 68.9896C70.16 68.955 70.0678 68.9324 69.9739 68.9225C69.7937 68.9801 69.621 69.0589 69.4595 69.1573C66.77 70.5272 67.5304 72.2493 67.413 72.3164L67.3795 72.3388ZM66.127 68.2012C64.9081 68.3745 64.5167 68.9505 63.3314 68.5591C62.79 68.3747 62.3167 68.0318 61.9727 67.575C60.7034 66.2163 60.709 64.3488 60.5301 63.0684C61.724 63.0947 62.9184 63.0592 64.1086 62.9621C64.0075 64.059 64.2249 65.1617 64.7348 66.138C65.4784 67.424 67.6479 68.4137 68.453 67.6589C68.4576 67.807 68.4899 67.953 68.5481 68.0894C68.2466 68.2323 67.9568 68.3987 67.6814 68.587C66.9006 69.1967 66.317 70.0234 66.004 70.9633C65.4379 70.2784 64.9221 69.5534 64.4608 68.7939C64.5782 68.7939 65.8531 68.369 66.1382 68.2795C66.1516 68.2825 66.1655 68.28 66.1771 68.2727C66.1886 68.2653 66.1968 68.2537 66.1997 68.2404C66.2027 68.227 66.2002 68.213 66.1929 68.2015C66.1855 68.19 66.1739 68.1818 66.1606 68.1789L66.127 68.2012ZM73.9213 49.1069C73.9213 49.5038 73.9884 49.789 73.9772 50.186C72.1768 50.7116 59.1379 54.8212 58.7241 54.9666C63.5677 52.4482 68.6759 50.4755 73.9549 49.0845L73.9213 49.1069ZM58.8863 54.6534C62.8386 51.4638 67.379 49.0815 72.2495 47.6419C72.2495 48.2011 72.3669 48.6763 72.3781 49.2466C67.7391 50.6327 63.2347 52.4348 58.9198 54.6311L58.8863 54.6534ZM61.6819 62.9062C61.6819 62.8503 59.4734 55.2238 59.3727 55.0113L75.403 50.9129C75.4701 52.853 75.8392 64.7346 75.8671 65.8473C75.8112 65.8473 68.4083 67.5247 68.4027 67.5806C68.1437 67.7003 67.8603 67.7577 67.5752 67.7483C66.6852 67.6252 65.8613 67.2102 65.2324 66.5686C64.8259 66.047 64.5321 65.4467 64.3694 64.8057C64.2068 64.1648 64.1789 63.497 64.2875 62.8447C64.3154 62.7385 64.3937 62.8112 61.6987 62.8839L61.6819 62.9062ZM60.3512 54.6255C60.7202 54.4969 74.8048 50.2139 75.1906 50.1077C75.1906 50.3425 75.2744 50.4767 75.2632 50.7116C70.7343 51.9584 60.5637 54.5696 60.368 54.6031L60.3512 54.6255ZM58.9198 55.1063C58.7799 55.2171 58.6193 55.2988 58.4474 55.3466C58.2755 55.3945 58.0958 55.4077 57.9188 55.3853C57.7418 55.3629 57.571 55.3054 57.4165 55.2163C57.2619 55.1271 57.1267 55.008 57.0188 54.8659C57.0296 54.8572 57.0383 54.8462 57.0441 54.8335C57.0499 54.8209 57.0527 54.8071 57.0523 54.7932C57.1138 54.8324 57.7624 55.1958 58.0308 55.3524C58.3379 55.2884 58.6405 55.2044 58.9366 55.1008L58.9198 55.1063ZM59.2329 55.0392C59.3 55.5984 61.503 62.8671 61.5198 62.9118C61.1053 62.8791 60.6884 62.8979 60.2785 62.9677C60.3791 65.2825 60.983 67.8378 63.1413 68.6765C63.3929 69.4369 62.051 69.9569 61.4135 68.6765C61.1731 68.1733 57.4437 56.2302 57.0467 55.0504C57.1851 55.2077 57.3559 55.333 57.5474 55.4179C57.7389 55.5027 57.9465 55.5449 58.156 55.5418C58.3654 55.5386 58.5716 55.49 58.7604 55.3994C58.9493 55.3088 59.1162 55.1783 59.2497 55.0169L59.2329 55.0392ZM69.9795 68.984C69.9795 68.984 72.065 69.8507 72.2775 69.9233C71.4108 69.9904 69.0737 72.7861 70.6951 74.7822C70.4268 74.6145 67.7709 72.9147 67.5808 72.4674C66.9825 71.0025 69.1967 69.3251 69.9962 68.9616L69.9795 68.984ZM73.379 70.2756C73.7131 70.3946 74.0575 70.4825 74.4078 70.5384C72.7751 71.0081 71.6121 74.8102 73.625 76.3142C72.637 75.8902 71.6819 75.393 70.7678 74.8269C69.7278 73.116 71.1536 69.2636 73.3957 70.2532L73.379 70.2756ZM74.7097 70.6111C75.58 70.8048 76.4613 70.9449 77.3488 71.0304C75.4981 71.6511 75.1738 75.9732 77.2649 77.5163C76.141 77.2516 75.0398 76.8983 73.9717 76.4596C72.0482 74.8157 72.831 70.7564 74.7265 70.5887L74.7097 70.6111ZM77.4718 71.0416C78.2857 71.1199 79.1035 71.1479 79.9208 71.1255C78.3105 73.1607 80.1333 76.851 81.9225 78.1258C80.476 78.0852 79.0365 77.9093 77.6228 77.6002C75.6546 76.2919 75.4589 71.5784 77.4886 71.0192L77.4718 71.0416ZM80.0438 71.1255C81.1621 71.0885 82.2751 70.9557 83.3707 70.7285C81.6933 72.0648 84.6678 76.9908 88.3749 77.4381C86.325 77.9308 84.2206 78.16 82.1126 78.1202C78.3273 74.4132 79.8425 71.433 80.0606 71.1031L80.0438 71.1255ZM93.0325 75.8949C90.2088 76.6106 86.9323 71.7126 86.7366 70.79C86.6733 70.432 86.6601 70.0669 86.6975 69.7053C87.6688 69.3247 88.5545 68.7545 89.3031 68.0279C89.5938 71.679 95.638 74.033 97.2875 73.2055C96.2083 74.7654 93.066 75.8669 93.0492 75.8725L93.0325 75.8949ZM97.6788 72.7637C97.481 72.9617 97.2398 73.111 96.9743 73.1999C95.6101 73.608 90.0747 71.5225 89.3869 67.9272C90.0323 67.1441 90.4226 66.1822 90.5052 65.1707C91.808 68.1173 98.0758 69.1573 99.3003 66.7083C99.5296 69.5543 98.8307 71.3827 97.6956 72.7414L97.6788 72.7637ZM97.8969 60.9493C97.3378 62.4533 93.983 63.9071 90.6282 62.5204C90.5275 62.4757 90.5052 62.6099 90.5499 62.6323C93.6978 64.086 97.2986 62.8951 97.9584 61.1673C98.5924 62.8449 99.0223 64.5926 99.2388 66.3729C98.6517 68.7603 92.5796 68.2515 90.4828 65.098C90.6054 63.6791 90.3243 62.2545 89.6721 60.9884C89.9572 60.6697 92.5013 57.9411 96.2083 57.3932C96.8647 58.5266 97.4348 59.7079 97.9137 60.9269L97.8969 60.9493ZM96.1636 57.2814C94.8909 57.4247 93.66 57.8222 92.5439 58.4504C91.4279 59.0785 90.4493 59.9245 89.6665 60.9381C89.2785 60.1599 88.7897 59.4361 88.2127 58.7854C88.2519 58.5282 88.2743 58.271 88.3246 58.0138C88.8837 55.2182 91.7297 52.7636 93.4742 53.4234C94.4906 54.6173 95.3964 55.9011 96.1804 57.259L96.1636 57.2814ZM93.3064 53.2277C91.0699 52.3498 88.1512 56.1072 88.1512 58.7183C87.6574 58.1771 87.1248 57.6726 86.5577 57.2087C85.3276 52.9705 88.2742 50.5382 89.9125 49.9959C91.1495 50.954 92.2917 52.0288 93.3232 53.2053L93.3064 53.2277ZM84.5225 55.9395C84.5225 55.973 85.8588 56.89 86.4347 57.3429C85.842 59.0203 81.9113 59.0203 82.0903 54.2285C82.3195 48.1172 87.033 46.6187 88.4979 47.4071C88.8234 47.5672 89.0785 47.8415 89.2147 48.1777C89.3508 48.5139 89.3584 48.8884 89.236 49.2299C89.1577 49.1795 88.1568 48.503 87.7151 48.2514C86.7331 48.8391 85.9067 49.654 85.3053 50.6277C84.8094 51.4086 84.4835 52.2851 84.3486 53.2003C84.2137 54.1154 84.273 55.0487 84.5225 55.9395ZM84.7741 55.8612C84.7182 55.8276 83.3315 51.8354 87.7934 48.4359C88.5259 48.9223 89.1241 49.3529 89.8175 49.8896C86.6192 50.9184 85.3053 54.7205 86.4347 57.0689C85.9075 56.6314 85.3528 56.228 84.7741 55.8612ZM63.6613 12.5061C62.5094 5.94746 75.4422 5.69026 74.7992 12.5955C74.5867 14.888 72.9149 16.6884 71.7463 18.5559C70.6728 20.2724 70.3317 20.4066 69.5881 20.5576C70.0074 19.3778 71.299 14.5916 71.6568 13.3783C71.6702 13.3516 71.6724 13.3207 71.6629 13.2924C71.6535 13.2641 71.6332 13.2407 71.6065 13.2274C71.5798 13.214 71.5489 13.2118 71.5206 13.2213C71.4923 13.2307 71.4689 13.251 71.4556 13.2777C71.3493 13.6243 71.2487 13.971 71.1536 14.3233C70.4715 13.3616 70.9803 13.8983 69.9012 14.7258C69.1184 14.0269 69.0066 13.6579 68.8556 13.8704C68.6215 14.213 68.3495 14.5281 68.0448 14.8097C67.3571 14.9215 67.016 13.9878 66.9769 13.876C66.9378 13.7641 66.7756 13.8424 66.798 13.9095C66.8204 13.9766 68.5648 20.4066 68.6487 20.6191C67.1279 20.5576 64.0471 14.7482 63.6613 12.5061ZM69.3756 20.798C71.053 20.6415 72.0594 18.5167 72.2719 18.198C73.3063 18.6398 73.2224 21.3907 70.4994 22.112C66.7421 23.0904 64.4832 20.0208 66.3227 18.7963C67.5025 20.3675 67.6646 20.9546 69.37 20.798H69.3756ZM68.8444 20.6414C68.8444 20.3954 67.5193 15.5589 67.2173 14.7202C68.0169 15.3912 68.3691 14.9607 68.973 14.1052C69.1743 14.3177 69.8341 15.0389 69.9515 14.9495C70.2747 14.7078 70.5481 14.4059 70.7566 14.0605L71.1033 14.5245C70.8852 15.3241 69.4259 20.5911 69.4259 20.5967C69.2312 20.6223 69.0352 20.6372 68.8388 20.6414H68.8444ZM53.5969 25.1425C58.4613 17.6165 65.238 17.4432 65.3386 17.3538C65.6119 17.8246 65.9164 18.2767 66.25 18.7069C64.5223 19.417 65.4393 23.5489 70.505 22.4698C73.6753 21.7933 73.5299 18.4217 72.4005 17.9968C72.6633 17.6054 72.9596 17.2196 73.2 16.8338C78.8696 17.8849 86.2782 23.2917 89.6553 32.523C91.8639 38.5616 92.1714 45.1482 92.0708 51.595C91.1989 50.7519 90.2644 49.9762 89.2751 49.2746C89.7504 49.4144 89.7 46.5796 86.9715 46.9598C85.4943 47.2461 84.1867 48.0964 83.3259 49.3305C82.3871 50.6659 81.8374 52.2357 81.738 53.8651C81.3131 58.9588 85.7861 59.4564 86.5577 57.4547C90.3207 60.4852 91.0308 64.2314 89.8398 66.7531C88.1624 70.3147 79.9152 72.6407 70.4044 68.9896C70.4339 68.8593 70.4331 68.7241 70.4021 68.5942C70.3711 68.4642 70.3107 68.3432 70.2255 68.2404C69.8229 67.6812 69.2302 67.7651 68.6152 68.0167C68.5608 67.8857 68.5342 67.7448 68.5369 67.6029C69.9012 67.3905 75.9733 66.0597 76.0684 66.0262C76.1635 65.9926 76.1243 65.9591 76.1243 65.9367C76.074 63.9518 75.6938 51.8075 75.6826 50.7004C75.7106 50.6333 75.6826 50.5271 75.5652 50.5606L75.4645 50.5942C75.4645 49.4759 75.6938 49.638 74.1729 50.0797C74.1729 48.8608 74.2568 48.6819 74.0891 48.7267C73.5858 48.8552 73.0882 48.9894 72.5906 49.1348C72.5906 48.5757 72.5011 47.9774 72.4788 47.3959C72.4783 47.386 72.4755 47.3763 72.4708 47.3675C72.4661 47.3587 72.4595 47.3511 72.4514 47.3452C72.4434 47.3394 72.4342 47.3353 72.4244 47.3335C72.4146 47.3316 72.4045 47.3319 72.3949 47.3344C67.1817 48.7858 62.3596 51.386 58.2824 54.9442C58.2265 54.9777 53.2894 50.5382 49.2245 47.5525C49.4817 39.9539 49.2412 31.8968 53.5969 25.1425ZM46.4679 45.9254C49.7389 48.0389 56.8566 54.1558 57.5108 54.7429L47.1333 48.4415C47.0606 47.9718 46.563 46.3447 46.4679 45.9254ZM44.9918 47.3903C48.6094 49.5821 56.5882 54.4745 56.6162 54.4969C54.9388 53.6917 45.8026 50.1524 45.6348 50.0909C45.4447 49.1684 45.2099 48.3073 44.9918 47.3903ZM43.0684 49.3808C44.8856 50.1189 56.8678 54.9107 56.8846 54.9107C57.6003 57.3541 61.0837 68.7603 61.4191 69.1517C61.2011 69.0846 51.584 65.8808 51.2094 65.7969C51.187 65.7243 43.102 49.4367 43.0684 49.3808ZM12.7802 46.1043C13.4065 46.3559 14.1333 45.7073 14.0606 44.8742C15.0168 46.7138 21.1057 58.3437 21.5195 59.4899C21.5586 59.5906 21.5754 59.5626 22.3917 59.4117C22.4446 59.6151 22.4473 59.8284 22.3995 60.0331C22.3517 60.2378 22.2549 60.4279 22.1174 60.5869C21.9798 60.7459 21.8057 60.869 21.61 60.9458C21.4143 61.0226 21.2028 61.0506 20.9939 61.0276C20.0489 58.9588 13.3785 47.0381 12.7802 46.1043ZM32.0982 59.736C31.6789 59.8478 23.3982 61.0499 21.6704 61.1338C21.8472 61.0836 22.0115 60.9968 22.1525 60.8789C22.2935 60.761 22.4081 60.6148 22.4888 60.4497C22.5695 60.2846 22.6145 60.1043 22.6209 59.9206C22.6273 59.737 22.5949 59.554 22.5259 59.3837C22.6433 59.3837 31.5056 57.751 32.3443 57.8517C33.0823 57.9356 33.3787 59.3949 32.1094 59.736H32.0982ZM32.4673 57.5721C32.1542 57.4379 22.3078 59.1377 21.7152 59.2495C20.9715 57.2534 13.9712 44.22 13.8873 44.097C16.4258 43.6833 22.6265 42.4867 23.3255 42.3637C24.4745 44.6412 25.7707 46.8414 27.2058 48.9503C26.3112 48.9056 25.1538 48.9838 24.0915 48.8664C24.0707 48.8664 24.0508 48.8747 24.0361 48.8894C24.0214 48.904 24.0132 48.924 24.0132 48.9447C24.1138 49.9288 24.1138 50.924 24.2201 51.9081C24.2201 51.9752 24.3599 51.9864 24.371 51.9864C25.959 52.0255 27.6028 51.4888 29.1684 52.0311C29.5206 52.7077 32.3778 57.4212 32.4785 57.5721H32.4673ZM29.448 52.1821C29.5713 52.2504 29.6754 52.3488 29.7506 52.468C29.8259 52.5872 29.8699 52.7235 29.8785 52.8642C29.6493 52.4896 29.4927 52.2324 29.4591 52.1821H29.448ZM31.3266 55.2853L29.9456 52.9984C30.5047 51.1589 26.3168 51.6845 24.4437 51.7571C24.3487 50.8122 24.3263 50.0798 24.2313 49.118C25.8639 49.2746 27.5301 48.995 29.1069 49.515C31.4552 50.2922 32.5456 52.6462 31.3378 55.2853H31.3266ZM34.3907 54.2117C34.0161 55.8891 32.3331 56.1631 31.7013 54.838C31.9385 54.2332 32.038 53.5832 31.9925 52.9352C31.9471 52.2872 31.7578 51.6575 31.4385 51.0918C31.4385 51.0359 31.9976 49.8449 32.9425 50.186C34.2565 50.6277 34.6647 53.0376 34.4019 54.2117H34.3907ZM34.6926 54.7317C34.6107 54.7261 34.5285 54.7261 34.4466 54.7317C34.8939 53.7421 34.6032 51.9361 34.0888 50.9967C35.9339 50.4264 36.1408 53.8427 34.7038 54.7317H34.6926ZM34.9051 54.7317C35.9115 54.2173 36.2638 51.4328 34.81 50.8178C35.9898 50.5886 36.9347 50.5103 37.2423 51.5111C37.6504 52.8139 36.9851 54.7317 35.6655 54.9554C35.426 54.8536 35.1741 54.7841 34.9163 54.7485L34.9051 54.7317ZM37.013 55.85C36.6772 55.5127 36.288 55.2331 35.8612 55.0225C37.4547 55.0225 38.0977 51.5894 36.7838 50.7283C37.5812 50.819 38.3537 51.062 39.0594 51.444C40.6697 52.909 38.3382 56.3979 37.0242 55.85H37.013ZM37.1081 55.9674C38.1872 56.5265 40.7312 53.5184 39.3781 51.623C40.3329 52.226 41.1317 53.0459 41.7097 54.016C41.7411 54.2011 41.7617 54.3878 41.7712 54.5752C41.7712 56.4818 39.8255 57.6113 38.0083 57.1416C37.7588 56.7168 37.4604 56.3228 37.1193 55.9674H37.1081ZM38.0474 57.2255C38.5004 57.4095 38.9936 57.4715 39.4781 57.4054C39.9625 57.3392 40.4211 57.1472 40.8081 56.8484C41.1951 56.5497 41.497 56.1547 41.6836 55.7028C41.8703 55.2509 41.9352 54.758 41.8719 54.2732C42.3807 55.1063 42.8056 55.9898 43.2697 56.8508C43.2545 57.0932 43.2228 57.3341 43.1747 57.5721C42.7553 59.1936 40.7368 60.1833 38.8637 59.0762C38.6532 58.4357 38.3837 57.8161 38.0586 57.2255H38.0474ZM38.8973 59.1656C40.7312 60.6194 43.3312 59.1656 43.3703 57.0857C43.7351 57.7801 44.1638 58.4389 44.6508 59.0538C44.6508 62.4925 41.1003 62.8391 39.585 61.1617C39.2551 60.2 39.1489 59.8366 38.9085 59.1656H38.8973ZM39.6633 61.2959C41.5644 63.6946 45.0701 61.8047 44.8017 59.2048C45.2209 59.7117 45.7104 60.1561 46.2555 60.5243C47.0327 63.6499 43.2082 65.4335 40.871 63.8456C40.4058 63.0285 40.0057 62.1759 39.6745 61.2959H39.6633ZM41.0052 64.0916C43.6108 65.92 47.1557 63.4206 46.3953 60.6473C46.8835 60.9537 47.4333 61.1484 48.0056 61.2177C48.8778 65.4447 45.4168 67.6924 43.5325 67.1109C42.5289 66.237 41.6784 65.2013 41.0164 64.0469L41.0052 64.0916ZM43.6946 67.2731C46.7811 68.0502 49.1406 63.7673 48.1174 61.2624C48.283 61.2763 48.4494 61.2763 48.615 61.2624C49.3083 62.6826 49.9122 63.9183 50.3371 64.7793C50.3349 65.6295 50.1096 66.4642 49.6838 67.2001C49.258 67.936 48.6465 68.5472 47.9105 68.9728C46.3536 68.8902 44.871 68.281 43.7058 67.2451L43.6946 67.2731ZM48.0838 68.9505C48.824 68.5755 49.4388 67.9929 49.853 67.2739C50.2671 66.5549 50.4625 65.7307 50.4154 64.9023C51.0528 66.1995 50.8459 65.9647 51.4107 66.1492C51.5057 66.9432 51.612 67.7315 51.7294 68.5199C50.5526 68.8759 49.3224 69.0216 48.095 68.9505H48.0838ZM59.9934 82.4982C59.7551 81.1914 59.7893 79.8493 60.094 78.5563C60.9383 75.6377 63.8122 73.731 65.6182 76.7056C65.8083 77.0243 65.9928 77.3542 66.1773 77.6897C62.789 78.3495 60.0437 82.4255 59.9934 82.4982ZM66.7421 82.364C60.6643 88.2573 64.2539 95.3806 65.8419 97.0692C64.9193 96.1243 59.4734 88.5089 66.7085 82.2802C66.7309 82.2578 66.7812 82.3249 66.7421 82.3584V82.364ZM65.8978 76.6106C65.532 75.8747 64.9005 75.3052 64.1309 75.017C62.0621 74.4579 58.8974 76.9013 59.7697 82.8449C59.602 83.0965 58.903 84.293 58.7465 84.6397C53.4068 81.2066 52.6352 70.4042 51.9251 66.3169C54.1616 67.0606 62.4759 69.7053 62.7163 69.6717C62.9311 69.6398 63.1251 69.5258 63.2575 69.3537C63.3899 69.1817 63.4505 68.965 63.4264 68.7492C63.7238 68.837 64.0337 68.8748 64.3434 68.861C64.8627 69.6553 65.4226 70.4223 66.0208 71.159C65.9444 71.4368 65.9708 71.7327 66.0951 71.9926C66.2193 72.2525 66.4332 72.4588 66.6973 72.5736C66.8338 72.632 66.9841 72.6504 67.1306 72.6266C67.2771 72.6029 67.4138 72.538 67.5249 72.4394C67.9498 73.5577 72.7583 76.1018 73.9381 76.605C78.7172 78.6166 84.0329 78.967 89.0347 77.6002C86.9603 85.1317 78.9144 90.3372 74.9334 90.6671C69.1016 91.1424 69.096 86.3115 68.8444 84.8074C68.3739 81.9174 67.375 79.1387 65.8978 76.6106ZM70.3261 93.077C69.4706 91.9587 69.1296 90.5385 70.0913 89.493C71.1369 90.7734 72.6465 91.1704 74.2848 91.0082C75.3105 90.9631 76.3249 90.7749 77.2985 90.4491C77.4179 91.1818 77.3759 91.9317 77.1755 92.6465C75.7944 95.7888 72.0482 95.2632 70.3205 93.077H70.3261ZM85.4227 105.417C84.8633 105.627 84.3274 105.895 83.8236 106.217C82.873 104.841 81.6262 103.829 80.4184 102.593C79.0765 101.229 76.3256 99.7083 74.8271 99.0206L74.1003 98.618C74.8383 98.3217 77.1084 97.4159 77.6899 97.1475C82.1629 100.021 83.5328 102.621 83.7732 102.593C89.4093 102.124 93.9886 103.65 96.7395 105.753C92.4677 103.527 87.6201 104.506 85.4003 105.423L85.4227 105.417ZM95.5318 104.74C90.3207 101.291 83.9913 102.431 83.9018 102.325C82.1948 100.243 80.1565 98.4557 77.8688 97.0357C77.8727 97.0278 77.8748 97.0192 77.8748 97.0105C77.8748 97.0018 77.8727 96.9931 77.8688 96.9853C77.0303 96.4105 76.1254 95.9393 75.1738 95.5819C76.9414 94.8424 78.8396 94.4653 80.7557 94.473C82.6718 94.4806 84.5668 94.8729 86.3285 95.6266C86.7534 95.8056 87.0218 95.9957 87.4467 96.141C87.4467 96.141 90.4213 98.6571 91.7856 99.876C93.9186 101.761 95.8369 103.877 97.5055 106.183C96.8949 105.641 96.234 105.158 95.5318 104.74ZM96.9184 106.138L97.8634 106.664C98.1767 106.348 98.5071 106.049 98.853 105.769C98.8773 105.897 98.8762 106.028 98.8498 106.155C98.8234 106.282 98.7723 106.402 98.6994 106.509C98.6264 106.617 98.5331 106.708 98.4246 106.779C98.3162 106.851 98.1948 106.9 98.0675 106.924C97.9401 106.948 97.8091 106.947 97.6822 106.921C97.5552 106.894 97.4347 106.843 97.3274 106.77C97.2202 106.697 97.1284 106.604 97.0573 106.496C96.9862 106.387 96.9371 106.266 96.9128 106.138H96.9184ZM97.9472 106.396C98.2521 105.739 98.6598 105.135 99.155 104.606C101 102.672 105.031 101.073 107.721 100.458C108.28 101.475 108.789 102.498 109.303 103.527C105.596 103.091 99.7924 104.097 97.9416 106.396H97.9472ZM15.9449 85.853C15.9361 85.849 15.9266 85.8469 15.917 85.8469C15.9073 85.8469 15.8978 85.849 15.889 85.853C15.8851 85.8608 15.883 85.8694 15.883 85.8782C15.883 85.8869 15.8851 85.8955 15.889 85.9033C15.8874 85.9145 15.8882 85.9259 15.8914 85.9367C15.8946 85.9476 15.9001 85.9576 15.9076 85.9661C15.915 85.9746 15.9242 85.9814 15.9345 85.986C15.9448 85.9906 15.956 85.9929 15.9673 85.9928L17.7901 86.0599C20.5857 86.1717 25.3272 86.3506 25.931 86.3506C25.9462 86.3463 25.9596 86.3371 25.9691 86.3245C25.9786 86.3119 25.9837 86.2965 25.9837 86.2807C25.9837 86.265 25.9786 86.2496 25.9691 86.237C25.9596 86.2244 25.9462 86.2152 25.931 86.2109C25.1594 86.1549 22.0171 86.0319 16.4985 85.8418L15.9449 85.853ZM22.8446 84.7347L25.0252 84.7963C25.0352 84.797 25.0453 84.7957 25.0548 84.7924C25.0642 84.7891 25.0729 84.7839 25.0803 84.777C25.0876 84.7702 25.0935 84.7619 25.0975 84.7527C25.1015 84.7435 25.1035 84.7336 25.1035 84.7236C25.1043 84.7133 25.103 84.7029 25.0997 84.6932C25.0965 84.6834 25.0913 84.6743 25.0846 84.6665C25.0778 84.6587 25.0696 84.6523 25.0604 84.6477C25.0512 84.6431 25.0411 84.6404 25.0308 84.6397C22.7943 84.4608 18.0752 84.3545 15.2404 84.2874H15.0168C13.8985 84.2874 13.0598 84.2427 12.7802 84.2259C12.7663 84.2255 12.7525 84.2283 12.7399 84.2341C12.7273 84.24 12.7162 84.2486 12.7075 84.2595C12.7007 84.2724 12.6971 84.2868 12.6971 84.3014C12.6971 84.316 12.7007 84.3304 12.7075 84.3434C12.7141 84.3559 12.7236 84.3665 12.7354 84.3743C12.7471 84.3821 12.7606 84.3869 12.7746 84.3881C15.0727 84.5111 19.9204 84.6341 22.8446 84.7347Z" fill="black"/>
<path d="M49.4816 90.2086C52.2269 88.0615 51.4609 85.5566 49.8339 85.087C50.6502 84.5278 50.7508 84.4831 50.6614 84.3489C50.6465 84.3268 50.6239 84.3111 50.598 84.3049C50.5721 84.2987 50.5448 84.3024 50.5216 84.3154C48.2347 84.5446 47.5302 81.6092 49.7332 79.8143C49.7395 79.8081 49.7444 79.8007 49.7478 79.7925C49.7512 79.7844 49.7529 79.7756 49.7529 79.7668C49.7529 79.758 49.7512 79.7492 49.7478 79.7411C49.7444 79.7329 49.7395 79.7255 49.7332 79.7193C49.7401 79.7013 49.7401 79.6814 49.7332 79.6634C49.7219 79.6499 49.7068 79.64 49.6899 79.635C49.673 79.6301 49.655 79.6302 49.6382 79.6354L44.7234 79.3279C45.1204 79.0931 45.2322 79.0763 45.249 78.8974C45.2657 78.7184 44.4606 78.3103 44.8632 77.0634C45.0133 76.5343 45.2313 76.0269 45.5118 75.5538C47.0326 74.7822 46.9879 74.7654 46.9655 74.6815C46.9537 74.6397 46.9316 74.6014 46.9014 74.5702C46.8711 74.539 46.8336 74.5157 46.7922 74.5026C42.8391 74.223 29.5094 73.5912 29.4591 73.6303C20.513 77.3262 11.4606 81.7433 11.0077 82.1236C9.96774 82.9734 9.77205 84.662 9.78323 85.2603C3.83406 89.834 3.78933 89.9011 3.52654 90.4099C3.32946 90.8032 3.27357 91.2523 3.36825 91.6818C3.46292 92.1114 3.7024 92.4954 4.04653 92.7694C5.44436 93.8038 6.99875 92.7191 8.34067 94.2455C8.58029 94.5076 8.75557 94.822 8.85262 95.1636C8.94967 95.5052 8.96582 95.8647 8.8998 96.2137C6.60736 97.3711 5.05297 97.6395 5.41082 97.8911C7.93809 98.8472 7.2224 101.559 5.0362 102.18C5.01423 102.185 4.99468 102.197 4.9807 102.215C4.96671 102.233 4.95911 102.255 4.95911 102.277C4.95911 102.3 4.96671 102.322 4.9807 102.34C4.99468 102.357 5.01423 102.37 5.0362 102.375C5.12566 102.375 30.7563 104.377 32.7747 104.562C33.4906 104.652 34.2177 104.567 34.8938 104.316C35.2908 104.148 47.7818 95.9285 48.4863 95.4477C49.6046 94.6928 50.7229 93.7255 50.9298 92.3053C51.0304 91.4834 50.5887 90.6447 49.4816 90.2086ZM5.96995 97.9134C6.02586 97.9134 34.3794 100.15 34.4857 100.195C34.6938 100.236 34.8909 100.321 35.0643 100.443C35.2377 100.565 35.3834 100.723 35.4921 100.905C36.1072 102.196 35.3523 103.952 33.2556 104.338C32.6573 104.304 9.11227 102.465 5.51146 102.202C7.44047 101.302 7.92132 99.0373 5.96995 97.9134ZM7.59143 93.4012C29.4926 94.95 32.6461 95.0786 32.7524 95.0786C33.237 95.2063 33.6737 95.4728 34.0089 95.8454C34.3441 96.2179 34.5632 96.6802 34.6392 97.1756C34.7152 97.6709 34.6449 98.1776 34.4368 98.6336C34.2288 99.0895 33.892 99.4747 33.4681 99.7418C32.6965 99.6859 11.0636 98.0644 7.9996 97.824C9.49807 96.9629 9.60431 94.4692 7.59143 93.4012ZM44.9303 78.8638C44.455 79.1434 30.6724 87.3123 30.2475 87.5304C29.3305 87.5807 28.3688 86.5687 28.6875 85.0478C29.1404 82.884 29.8057 83.102 45.2322 75.6376C44.6172 76.6888 43.963 78.1425 44.9303 78.847V78.8638ZM30.5438 82.4479H30.5103C13.384 82.4479 11.9918 81.9614 10.7673 82.6827C11.3264 81.9167 11.237 82.1236 21.5641 77.4548C25.7073 75.5761 28.9167 74.1 29.392 73.9043C33.6917 74.2678 44.5277 74.6424 46.4623 74.743C44.8911 75.509 31.2819 82.0341 30.5438 82.4311V82.4479ZM18.0584 82.6491C21.6983 82.7498 26.2217 82.8728 30.1692 82.7274C28.4415 83.6276 27.5469 86.4792 29.4535 87.6422C13.7251 87.2676 11.237 88.2572 10.2529 86.4512C10.011 85.981 9.91005 85.451 9.96215 84.9248C10.3759 82.1906 10.7841 82.4423 18.0584 82.6324V82.6491ZM12.126 87.6813C12.2602 87.7484 29.4591 87.9162 30.1692 87.9162C30.2419 87.9162 38.9531 82.7218 44.3376 79.5292C44.7681 79.5795 48.3745 79.7696 49.3306 79.8032C47.7147 80.8599 34.29 89.3923 33.1605 90.3875C28.5253 90.0576 5.89726 89.5824 5.83576 89.5824C5.20251 89.5403 4.5695 89.6677 4.0018 89.9514C4.38761 89.5656 8.10024 86.7364 9.73291 85.4783C9.87828 86.9712 11.1028 87.8547 12.126 87.6869V87.6813ZM50.0911 84.5949C48.3466 85.7132 34.5863 94.5083 33.9433 94.9109C33.0319 94.5586 32.3778 94.1449 32.2659 92.9148C32.0311 90.3819 33.9042 90.326 49.1238 80.1442C47.396 81.939 48.2571 84.5222 50.0911 84.6005V84.5949ZM34.3347 99.2721C35.2796 97.9582 34.9889 95.8391 33.4289 95.0786C33.9881 95.0786 33.127 95.8167 41.5028 90.3708C44.9079 88.2181 49.0622 85.5902 49.599 85.2211C49.9192 85.2961 50.2143 85.453 50.4555 85.6765C50.6966 85.9 50.8755 86.1824 50.9745 86.496C51.679 88.6374 49.1573 90.2254 47.2842 91.5002C44.209 93.6081 36.465 98.1147 34.3347 99.2721ZM33.1773 94.8494C17.6279 93.8206 5.39963 93.0602 4.90201 92.9372C4.62376 92.8951 4.35993 92.7859 4.13333 92.6191C3.90673 92.4522 3.72416 92.2327 3.6014 91.9794C3.47864 91.7262 3.41938 91.4469 3.42875 91.1657C3.43811 90.8844 3.51581 90.6097 3.65514 90.3652C3.86202 90.4267 3.65514 89.806 5.83576 89.7725C6.88133 89.7725 30.1748 90.4211 32.9872 90.5273C31.5279 92.0705 31.8745 94.0778 33.1773 94.8718V94.8494ZM7.50756 97.7737C6.89252 97.7345 6.3893 97.7122 5.91404 97.6898C6.64091 97.427 8.15056 96.7952 8.75443 96.4821C8.51364 97.0579 8.07 97.5254 7.50756 97.796V97.7737ZM33.9601 99.7753C39.2078 96.9062 44.3045 93.769 49.23 90.3763C49.5599 90.5609 50.5663 91.1703 50.6558 91.7854C50.7844 92.6632 50.1246 93.5746 49.8339 93.9268C49.4257 94.4245 36.0345 103.315 35.2237 103.829C34.9285 104.015 34.603 104.147 34.262 104.22C36.314 103.387 36.8508 100.239 33.9601 99.7977V99.7753Z" fill="black"/>
</svg>
