<svg width="113" height="112" viewBox="0 0 113 112" fill="none" xmlns="http://www.w3.org/2000/svg">
<path d="M109.913 65.4834L90.1813 61.5259C90.4491 58.4624 89.9577 56.0061 88.6096 53.8339C87.0261 51.6533 87.0205 51.7433 86.6677 51.4218C86.6309 51.2 86.5371 50.9915 86.3954 50.8168C86.2127 50.4835 85.9609 50.193 85.6568 49.9647C85.3012 49.7869 85.0887 49.7237 85.0887 49.4531C85.0887 49.2854 85.2593 49.1691 85.3158 48.9985C85.3456 48.9054 85.3559 48.807 85.3461 48.7097C85.3362 48.6123 85.3063 48.5181 85.2584 48.4328C85.2104 48.3475 85.1453 48.2731 85.0673 48.2141C84.9892 48.1551 84.8998 48.1128 84.8047 48.09C84.5777 47.9781 84.2366 47.8624 84.1796 47.5784C84.17 47.4247 84.189 47.2705 84.2355 47.1238C84.2355 46.2717 82.7583 45.9876 82.0767 46.0447C81.4102 46.2353 80.5357 46.691 80.3154 47.3513C80.2494 48.0123 80.0966 48.6616 79.8609 49.2826C79.6822 49.5185 79.472 49.7288 79.2363 49.9077C79.1189 49.9932 79.0222 50.1039 78.9533 50.2318C78.8844 50.3596 78.8451 50.5013 78.8382 50.6463C78.8382 50.9868 79.2363 51.2144 79.1793 51.5555C79.1793 52.0553 77.8206 52.7582 78.113 53.5644C77.8727 54.017 77.663 54.4851 77.4851 54.9656C77.4222 55.2158 77.3351 55.4592 77.2251 55.6925C77.0015 56.1398 76.4093 56.6039 74.4815 59.068L65.5555 62.799C63.4688 56.1705 62.648 46.6312 56.5534 39.5744L57.4106 38.3208C59.0385 39.7912 60.49 41.4458 61.736 43.2512C63.305 45.4928 64.0223 47.0064 64.4607 48.9985C64.0704 50.5079 64.0373 52.0875 64.364 53.6119C64.5544 54.3742 64.9535 55.0683 65.5163 55.6164C66.4456 56.5233 68.0632 56.8946 69.9625 56.1907C73.352 54.8694 75.7965 51.4543 77.8217 48.3567C83.5025 39.6499 81.4935 35.0538 81.2453 34.5562C79.8402 31.8064 76.3724 33.2293 73.7909 34.9392C72.3746 35.3122 70.9187 35.514 69.4543 35.5402C64.3943 35.7461 59.4003 34.3349 55.1964 31.5111C54.7015 31.4194 54.1901 31.5039 53.751 31.7498C53.3118 31.9957 52.9726 32.3876 52.7922 32.8575C52.1257 34.2419 52.7854 35.1796 53.2277 35.4821C53.2277 35.4821 53.5436 35.6258 53.6801 35.6934L52.8973 36.8402C50.9399 35.375 48.8492 34.0969 46.6529 33.0225L46.7541 32.4633C47.6574 32.5815 48.5752 32.4179 49.382 31.9948C49.7744 32.6979 49.9265 33.5099 49.8153 34.3074C49.8089 34.3623 49.819 34.4179 49.8441 34.4671C49.8693 34.5164 49.9086 34.557 49.9569 34.584C50.0052 34.6109 50.0604 34.6229 50.1155 34.6184C50.1706 34.614 50.2232 34.5933 50.2666 34.559C54.7855 30.9861 58.7341 24.0881 56.7251 17.3936C54.9051 10.9032 48.2352 8.86685 42.5863 10.2099C38.4398 11.1967 35.4926 15.1727 34.7037 20.8407C34.5113 22.2871 34.3408 24.9721 35.3651 26.7015C36.0997 27.9247 37.0367 29.0143 38.1362 29.9238C38.0859 30.0714 38.0361 30.2195 37.9841 30.3649C34.1787 29.7722 15.6652 27.5827 11.7608 40.2834C10.5301 44.4212 10.4848 48.8212 11.63 52.9835C9.68062 63.7005 9.43399 74.6579 10.8992 85.4517C10.9086 85.513 10.9381 85.5695 10.9831 85.6122L3.51306 88.7355C3.45356 88.7605 3.40453 88.8053 3.37431 88.8623C3.34408 88.9193 3.3345 88.985 3.34721 89.0483C3.35992 89.1116 3.39412 89.1685 3.44402 89.2094C3.49392 89.2503 3.55644 89.2727 3.62097 89.2728C3.70708 89.2728 0.462986 90.6147 73.3095 60.1616C73.2478 60.4299 73.2858 60.7115 73.4163 60.9538C73.5469 61.1962 73.7611 61.3828 74.0191 61.4789C74.6587 61.6467 75.0378 60.912 75.2933 60.3048C75.9805 60.0997 76.6503 59.84 77.2961 59.5281C77.8004 59.6774 78.3168 59.7823 78.8393 59.8418C77.9822 62.5955 78.018 64.0017 77.8385 66.5514C67.2877 67.5975 59.2993 72.3211 59.2993 77.9756C59.2993 84.3944 69.593 89.6167 82.2461 89.6167C94.8993 89.6167 105.193 84.3944 105.193 77.9756C105.193 72.3563 97.3047 67.6545 86.8534 66.5693C86.8394 64.0683 87.0485 62.9852 87.0133 61.4588L88.4642 61.7579C88.6219 62.2298 88.6068 62.17 88.5733 62.2667C87.4516 65.5097 91.332 64.43 90.2316 62.1096L109.801 66.0347C109.874 66.0496 109.95 66.0349 110.011 65.994C110.073 65.9531 110.116 65.8893 110.131 65.8167C110.146 65.744 110.131 65.6684 110.09 65.6066C110.05 65.5447 109.986 65.5016 109.913 65.4868V65.4834ZM89.6082 61.7445C89.4326 61.7688 89.2586 61.8033 89.0871 61.848C88.2708 59.2284 86.7359 57.0763 85.4477 54.7162C85.4122 54.6511 85.3523 54.6028 85.2811 54.5819C85.21 54.561 85.1334 54.5692 85.0683 54.6047C85.0032 54.6402 84.9549 54.7001 84.934 54.7713C84.9131 54.8424 84.9213 54.919 84.9568 54.9841C85.3689 55.7389 85.7793 56.4289 86.1908 57.1294C84.8623 58.08 83.2033 58.0241 81.588 57.8093C80.9684 57.7696 80.3791 57.5274 79.9106 57.1199C80.3579 55.972 79.3179 55.7042 79.309 54.4009C79.6696 54.3394 79.6048 54.7213 79.6048 54.7844C79.6048 55.1087 79.7781 55.1244 80.0895 55.0204C80.6129 54.9158 81.1558 54.317 80.8282 53.7707C80.7163 53.5437 80.3736 53.4302 80.2601 53.2027C80.2088 53.1174 80.189 53.0169 80.2042 52.9186C80.2601 52.8068 80.4312 52.7481 80.5452 52.6916C80.5829 52.662 80.6142 52.6251 80.6374 52.5832C80.6607 52.5413 80.6753 52.4952 80.6805 52.4475C80.6857 52.3999 80.6814 52.3517 80.6678 52.3058C80.6541 52.2598 80.6315 52.2171 80.6011 52.18L80.4306 52.0095C80.245 51.7495 80.4725 51.5622 80.6996 51.3844C80.915 51.2794 81.1396 51.1944 81.3705 51.1305C81.6081 51.3084 81.8972 51.4038 82.1939 51.4021C82.4907 51.4005 82.7788 51.302 83.0144 51.1216C82.9583 51.1892 82.9167 51.2676 82.8921 51.3519C82.8674 51.4363 82.8603 51.5247 82.8712 51.6119C83.0261 52.0754 83.3442 52.0844 83.6669 52.4076C83.749 52.4742 83.8051 52.5676 83.8256 52.6714C83.846 52.7752 83.8294 52.8828 83.7787 52.9757C83.6421 53.1331 83.4656 53.2507 83.2677 53.3162C83.1872 53.3407 83.114 53.3847 83.0546 53.4441C82.9951 53.5036 82.9511 53.5768 82.9266 53.6572C82.8561 53.7352 82.8163 53.8362 82.8148 53.9413C82.8148 54.0531 82.9266 54.1118 82.9853 54.1683C83.153 54.2801 83.3828 54.2801 83.6098 54.3958C83.8369 54.5116 83.9509 54.7364 83.8374 54.9069C83.6831 55.1384 83.3828 55.0791 83.3828 55.1909C83.3828 55.3587 83.9666 55.6472 84.6325 55.3615C85.2034 54.9813 84.1645 54.355 84.6325 54.0548C84.7364 53.9926 84.853 53.9543 84.9736 53.9429C85.3093 53.9523 85.6355 53.8299 85.8822 53.6019C85.9924 53.4762 86.0532 53.3148 86.0532 53.1476C86.0532 52.9804 85.9924 52.819 85.8822 52.6933C85.7703 52.6374 85.6551 52.5256 85.7144 52.4093L85.7703 52.3533C86.0656 52.2354 86.4754 52.4914 86.6459 52.1996C87.0843 52.6838 87.7592 53.617 88.1461 54.1482C89.4522 56.2572 89.9185 58.6771 89.6071 61.7445H89.6082ZM81.8497 47.9194C82.1186 48.1431 82.9758 48.6312 82.7583 49.2826C82.7491 49.3712 82.7604 49.4607 82.7913 49.5443C82.9635 50.2326 82.9439 50.2152 83.0384 50.2929C82.9836 50.4056 82.9071 50.5063 82.8133 50.5894C82.7195 50.6725 82.6103 50.7362 82.4918 50.777C82.3734 50.8178 82.248 50.8349 82.123 50.8273C81.9979 50.8196 81.8756 50.7874 81.763 50.7324C81.7496 50.7215 81.7352 50.712 81.72 50.7039C81.7351 50.6318 81.7312 50.7442 81.7312 50.2482C81.7312 50.1741 81.7017 50.103 81.6493 50.0505C81.5968 49.9981 81.5257 49.9686 81.4516 49.9686C81.2845 49.9596 81.1251 49.8954 80.9984 49.7861C80.8716 49.6769 80.7846 49.5287 80.751 49.3648C80.6623 48.9665 80.6639 48.5535 80.7556 48.156C80.8473 47.7584 81.0268 47.3864 81.2811 47.0673C81.362 47.4105 81.5638 47.713 81.8497 47.9194ZM77.2184 56.6385C77.9341 55.9228 77.8284 55.3615 78.5089 54.0212C78.5878 54.0686 78.6707 54.109 78.7566 54.142C78.7347 54.9036 78.9543 55.6526 79.3839 56.2818C79.6501 56.8152 79.1144 57.0836 79.3694 57.3665C79.4001 57.4006 79.4398 57.4263 79.4728 57.4593C78.2527 58.471 76.8474 59.2356 75.3352 59.7104C75.2731 59.5421 75.1592 59.3978 75.0098 59.2983C75.7501 58.3511 76.4803 57.4755 77.2184 56.6385ZM12.3703 53.5437C14.1315 59.4521 17.7676 64.1672 20.381 65.985C23.6189 68.2573 27.1979 68.7689 31.1722 67.5187C39.8645 64.7918 47.9316 54.1683 50.488 47.5219C50.4456 46.9355 50.1819 46.387 49.7505 45.9876C49.0893 45.4672 48.2615 45.2047 47.4211 45.249C43.9545 47.7489 42.1949 48.7156 36.5706 49.9077C25.2169 52.2868 25.0726 55.9077 24.3564 55.1909C24.3295 55.1653 24.308 55.1345 24.2934 55.1003C24.2788 55.0661 24.2712 55.0293 24.2712 54.9922C24.2712 54.955 24.2788 54.9182 24.2934 54.884C24.308 54.8499 24.3295 54.819 24.3564 54.7934C25.4193 53.5798 26.705 52.5812 28.1439 51.8518C27.7279 48.6821 27.0248 45.5568 26.0433 42.5143C25.9477 42.228 26.6158 41.9255 26.8009 42.2962C27.7046 45.3489 28.3881 48.4625 28.8462 51.613C31.2817 50.5892 33.8126 49.8089 36.4018 49.2837C42.4583 47.9848 43.5173 47.0651 47.4021 44.4713C47.4721 44.4773 47.5418 44.4563 47.5969 44.4127C47.652 44.369 47.6883 44.306 47.6985 44.2364C47.7791 43.6477 47.8969 43.0646 48.0513 42.4908C48.3872 41.4917 48.9912 40.604 49.7974 39.925C49.9636 39.7707 50.1704 39.6673 50.3935 39.6269C50.4696 39.6203 50.5462 39.6306 50.6178 39.6571C50.6894 39.6836 50.7543 39.7256 50.8078 39.7801C50.7967 39.8772 50.7561 39.9685 50.6915 40.0418C50.3018 40.4579 49.9838 40.9357 49.7505 41.4559C49.724 41.4955 49.7083 41.5414 49.705 41.5889C49.7016 41.6365 49.7108 41.6841 49.7315 41.727C49.7874 42.4131 50.9084 43.5576 52.5461 43.684C53.1986 43.7326 53.8372 43.2708 54.3946 42.346C54.6826 41.8668 55.093 42.1553 54.8419 42.6938C54.5897 43.2755 54.1757 43.7726 53.6492 44.126C53.1227 44.4794 52.5058 44.6741 51.8718 44.6871C51.7985 44.6864 51.7276 44.7136 51.6734 44.763C51.6193 44.8125 51.5859 44.8807 51.58 44.9538C51.5783 44.9905 51.5839 45.0271 51.5964 45.0616C51.6089 45.0961 51.6281 45.1279 51.6529 45.155C51.6776 45.1821 51.7075 45.204 51.7407 45.2196C51.774 45.2351 51.81 45.244 51.8467 45.2457C52.7927 45.2537 53.7043 44.8911 54.3862 44.2353C54.9566 43.7187 54.9767 44.2482 54.7346 44.5993C54.3528 45.0858 53.8586 45.4724 53.2943 45.7256C52.7301 45.9788 52.1128 46.0912 51.4955 46.053C51.4232 46.0465 51.3513 46.0684 51.2948 46.114C51.2383 46.1596 51.2018 46.2253 51.1929 46.2973C51.1841 46.3694 51.2036 46.442 51.2473 46.5C51.2911 46.5579 51.3556 46.5965 51.4273 46.6077C52.3594 46.6919 53.2923 46.4552 54.0714 45.9367C54.5926 45.769 54.7486 46.445 53.6074 46.9476C52.8702 47.2242 52.0915 47.3741 51.3043 47.391C51.2577 47.3919 51.212 47.4043 51.1714 47.4273C51.1309 47.4503 51.0967 47.4831 51.072 47.5226C51.0473 47.5622 51.0329 47.6073 51.0302 47.6539C51.0274 47.7004 51.0363 47.7469 51.0561 47.7891C47.7527 55.929 39.8796 65.7155 31.4669 68.2808C27.6978 69.5366 23.2023 69.1843 19.8582 66.7711C17.2509 64.9405 13.8961 61.1188 12.0398 55.4123C12.0342 55.4101 12.3378 53.4783 12.3703 53.5437ZM53.9697 47.9899C53.9697 47.4934 54.8749 47.6192 54.7005 48.1403C52.9291 61.404 52.1587 61.631 51.6101 63.9637C51.5791 64.052 51.5142 64.1244 51.4298 64.1648C51.3454 64.2053 51.2484 64.2106 51.1601 64.1795C51.0717 64.1485 50.9994 64.0836 50.9589 63.9992C50.9184 63.9148 50.9132 63.8177 50.9442 63.7294C52.6468 58.1554 53.1768 54.3086 53.9669 47.9899H53.9697ZM50.9504 65.2218C51.4508 65.2139 51.9221 67.7077 52.0502 68.4457L48.4404 69.9554C48.8961 68.8522 50.4472 65.2301 50.9453 65.2218H50.9504ZM79.484 33.6733C79.763 33.7631 80.02 33.9105 80.2384 34.106C80.4569 34.3014 80.6319 34.5405 80.7521 34.8078C80.9853 35.2735 82.8701 39.6051 77.3599 48.0503C75.3822 51.0752 72.9986 54.4076 69.7702 55.6673C68.2522 56.2298 66.7984 56.0755 65.9122 55.22C65.424 54.7465 65.0776 54.1463 64.9119 53.4867C64.1006 49.9675 65.8037 46.1229 67.5985 42.9812C68.5457 43.6035 69.9469 43.9177 70.7129 43.0891C70.9228 42.8122 71.0294 42.4707 71.0143 42.1236C70.9992 41.7765 70.8633 41.4456 70.6301 41.188C70.2285 40.7908 69.7759 40.4486 69.2843 40.1704C71.2978 37.1751 76.5715 32.7809 79.479 33.6733H79.484ZM68.9768 40.6373C69.4308 40.8914 69.8488 41.205 70.2197 41.5699C70.3628 41.7261 70.4473 41.927 70.4587 42.1385C70.4701 42.35 70.4078 42.5589 70.2824 42.7296C69.7081 43.348 68.4993 42.9062 67.8753 42.4902C68.0839 42.1324 68.8169 40.8928 68.9768 40.6373ZM53.306 33.0817C53.4347 32.7378 53.6769 32.4482 53.9926 32.2607C54.3083 32.0732 54.6786 31.9991 55.0421 32.0507C59.3043 34.8915 64.3571 36.3085 69.475 36.0983C70.5276 36.0698 71.5767 35.9646 72.614 35.7835C70.7581 37.2551 69.2025 39.0698 68.0319 41.1288C66.7034 43.4341 65.4543 45.5498 64.7531 47.8903C63.3553 43.107 57.4844 36.5959 53.5252 35.0046C53.3893 34.8956 52.7284 34.2839 53.306 33.0817ZM56.9873 37.9507L54.5126 41.5699C54.3855 41.6075 54.2671 41.6698 54.1641 41.7533C54.0612 41.8368 53.9757 41.9398 53.9127 42.0564C53.6057 42.5669 53.1299 43.1702 52.5858 43.1254C52.107 43.1237 51.6383 42.9876 51.233 42.7325C50.8277 42.4775 50.5021 42.1138 50.2934 41.6829C50.2884 41.627 50.0608 41.9876 54.1782 35.9573C55.1758 36.531 56.1164 37.1985 56.9873 37.9507ZM39.8941 31.1734C39.9426 31.2022 39.9988 31.2156 40.0551 31.2119C40.1114 31.2082 40.1653 31.1876 40.2096 31.1526C40.254 31.1177 40.2867 31.0702 40.3036 31.0163C40.3204 30.9625 40.3205 30.9047 40.3039 30.8508C39.8673 29.4295 40.0976 27.8315 40.3073 26.413C40.3383 26.3379 40.3535 26.2572 40.3517 26.176C40.3499 26.0948 40.3312 26.0149 40.2969 25.9413C40.2625 25.8677 40.2133 25.802 40.1522 25.7485C40.0912 25.6949 40.0196 25.6546 39.9422 25.6302C38.5762 24.8983 37.9813 23.5491 38.2648 21.8365C38.3548 21.345 38.7233 20.6327 39.2634 20.5874C39.7873 20.5426 40.167 21.0565 40.2139 21.5983C40.3224 22.3548 40.0943 23.0945 40.2139 23.8773C40.4147 25.0811 40.8111 25.3478 41.1085 25.3596C41.1751 25.3625 41.2416 25.3521 41.304 25.3288C41.3664 25.3056 41.4235 25.27 41.472 25.2243C41.5011 25.5189 41.6137 25.7992 41.7965 26.0321C41.9794 26.265 42.2248 26.441 42.5041 26.5393C42.7781 26.6327 43.1102 26.4728 43.099 25.9802C43.0375 23.2656 43.7141 22.0719 44.3722 21.0319C44.5293 21.7509 45.3026 21.9181 45.8986 21.3187C45.9573 21.2684 46.0104 21.217 46.0664 21.1644C46.052 21.3877 46.1133 21.6093 46.2403 21.7935C46.3673 21.9777 46.5526 22.1138 46.7664 22.1798C47.1473 22.2253 47.5317 22.1294 47.8466 21.9103C47.8526 22.0287 47.8675 22.1464 47.8914 22.2625C47.954 22.4546 48.0691 22.6252 48.2237 22.7553C48.3782 22.8853 48.5661 22.9694 48.7661 22.9981C48.966 23.0269 49.17 22.9991 49.3549 22.9179C49.5399 22.8367 49.6984 22.7054 49.8125 22.5387C49.824 22.7792 49.9037 23.0115 50.0423 23.2083C50.1809 23.4052 50.3728 23.5585 50.5953 23.6503C50.8136 23.7032 51.0427 23.6895 51.253 23.6109C51.4634 23.5324 51.6455 23.3927 51.7757 23.2097C51.9937 24.1228 52.8073 24.1602 53.1427 23.7649C53.0931 24.9131 52.8699 26.0472 52.4807 27.1287C51.5022 29.7085 49.4452 32.5763 46.5724 31.9003C46.4605 31.9003 46.2319 31.9562 46.2319 32.068L45.8908 33.9428C45.8349 34.2839 46.4018 34.4544 46.4589 34.1105L46.5534 33.5922C47.2495 33.9311 47.9512 34.3113 48.6585 34.7194C48.6538 34.7251 48.6495 34.731 48.6456 34.7373C47.15 38.162 43.5167 38.7497 40.3789 37.0437C39.1368 36.3725 38.0449 35.4546 37.1701 34.3465C36.2953 33.2383 35.6559 31.9632 35.2913 30.5992C37.1924 30.7748 37.8248 30.9263 37.9919 30.9229C38.026 30.9507 38.0663 30.97 38.1094 30.979C38.1524 30.988 38.197 30.9866 38.2394 30.9748C38.2818 30.963 38.3208 30.9412 38.353 30.9113C38.3853 30.8814 38.4098 30.8441 38.4247 30.8027C38.4856 30.635 38.5404 30.4672 38.5986 30.2995C39.0134 30.6153 39.4459 30.9071 39.8941 31.1734ZM74.3092 60.8835C74.056 61.1339 73.6847 60.43 73.8977 60.217C74.1155 60.025 74.3506 59.8535 74.6 59.7048C74.8102 59.806 74.8236 59.9318 74.8175 60.0006C74.7141 60.3283 74.5407 60.6295 74.3092 60.8835ZM78.0644 59.1216C78.5182 58.8629 78.9552 58.5757 79.3727 58.2617C79.2559 58.5759 79.1306 58.9405 79.0115 59.305L78.0644 59.1216ZM104.635 77.9722C104.635 84.083 94.5918 89.0542 82.2472 89.0542C69.9027 89.0542 59.8596 84.083 59.8596 77.9722C59.8596 72.614 67.5806 68.1315 77.8044 67.1094C77.7798 67.5187 77.7602 67.9291 77.7596 68.3484C70.2583 69.2604 64.6972 72.4905 64.6972 76.3244C64.6972 80.864 72.4937 84.5571 82.0767 84.5571C91.6597 84.5571 99.4562 80.8668 99.4562 76.3244C99.4562 72.5715 94.1215 69.3996 86.8606 68.4116V67.1256C97.0016 68.1818 104.635 72.6431 104.635 77.9722ZM83.3823 68.1169C82.3697 68.0812 81.9045 68.0912 81.4689 68.0985C81.6221 67.3649 81.5248 67.7871 81.7541 66.8958C82.0823 66.8919 82.212 66.8813 83.1866 66.9014C83.2184 67.0865 83.2984 67.5075 83.3823 68.1169ZM77.7775 68.9053C77.7943 69.3487 77.8217 69.9559 77.8743 70.4368C73.6511 71.1983 70.7174 73.1122 70.7174 75.4159C70.7174 78.4072 75.6562 80.7511 81.9615 80.7511C88.2668 80.7511 93.2051 78.4072 93.2051 75.4159C93.2051 73.2649 90.646 71.4544 86.869 70.6034C86.8724 70.0588 86.8724 69.5142 86.869 68.9696C93.8151 69.914 98.896 72.8528 98.896 76.3244C98.896 80.5554 91.3477 83.998 82.0756 83.998C72.8035 83.998 65.2552 80.5554 65.2552 76.3244C65.2563 72.7706 70.5793 69.7748 77.7775 68.9053ZM86.2903 72.727C86.3216 72.9931 86.358 73.2593 86.4021 73.5215C86.391 73.7334 85.8134 73.8805 85.63 73.5372C85.63 73.5372 85.441 72.9221 85.4315 72.8886C85.7268 72.9078 86.0222 72.8522 86.2903 72.727ZM84.576 72.4044C84.5896 72.4897 84.6286 72.569 84.6878 72.6319C84.8265 72.7706 84.6839 72.3854 85.1027 73.7379L85.1089 73.7463C85.2581 74.1219 85.3156 74.5277 85.2766 74.93C85.2014 75.1725 85.2014 75.4322 85.2766 75.6747C85.3368 75.8179 85.4386 75.9396 85.5688 76.0243C85.699 76.1089 85.8516 76.1525 86.0068 76.1494C86.4719 76.8187 87.1628 77.2978 87.9526 77.4986C88.5839 77.7066 88.9747 77.2252 88.8293 76.7762C88.8057 76.5938 88.7186 76.4256 88.5833 76.301C87.8751 75.4509 87.3231 74.482 86.9529 73.4393C86.8897 73.0552 86.8439 72.6599 86.8014 72.2679C86.8651 72.174 86.85 72.0516 86.8617 71.1754C90.2931 71.971 92.6471 73.5713 92.6471 75.4159C92.6471 78.0494 87.8542 80.192 81.9626 80.192C76.0711 80.192 71.2771 78.0494 71.2771 75.4159C71.2771 73.4259 74.0168 71.7178 77.8927 70.9987C77.8484 71.4199 77.9197 71.8451 78.099 72.2288C78.1549 72.2847 78.1477 72.136 78.16 73.4225C78.155 73.6327 78.0885 73.8368 77.9688 74.0096C76.6928 75.1581 75.8055 75.0966 75.6551 75.7122C75.5801 76.0113 75.7283 76.2875 76.3193 76.3144C77.0579 76.3533 77.7958 76.2268 78.4792 75.9442C78.5035 75.9878 78.5389 76.0241 78.5819 76.0493C78.6248 76.0746 78.6737 76.0879 78.7236 76.0879C78.932 76.0964 79.1407 76.0762 79.3437 76.0281C79.4481 76.0164 79.545 75.9682 79.6175 75.8922C79.69 75.8161 79.7334 75.717 79.7401 75.6121C79.8159 74.6441 79.9888 73.6862 80.2562 72.7527C80.3579 72.6623 80.4196 72.5352 80.4278 72.3993C80.5844 71.8044 80.7387 71.2285 80.8857 70.6582C81.9137 70.6113 82.9436 70.6324 83.9688 70.7214C84.1483 71.2962 84.3457 71.8598 84.576 72.4044ZM79.4935 73.517C79.3168 73.7178 78.7202 73.7116 78.7202 73.4242L78.7051 72.6582C78.9915 72.8227 79.3191 72.9015 79.6489 72.8852L79.4935 73.517ZM83.7921 70.1539C82.8714 70.0787 81.9468 70.0613 81.0239 70.1019C81.2665 69.1184 81.148 69.6372 81.3532 68.6587C82.0074 68.6459 82.5643 68.6448 83.4667 68.6789C83.5534 69.1737 83.6579 69.6669 83.7921 70.1539ZM81.9006 66.3333C82.2003 65.1748 82.4977 64.0168 82.7046 62.8589C82.6353 63.8944 82.7957 64.6 83.096 66.3395C82.1097 66.3232 82.1919 66.3333 81.9006 66.3333ZM86.9887 60.8779C86.9708 60.629 86.9456 60.3802 86.9076 60.132C86.8606 59.8524 86.3865 58.3237 86.2886 57.7417C86.3524 57.702 86.4145 57.6573 86.4765 57.6137C87.1597 58.7382 87.7507 59.9163 88.2439 61.1362L86.9887 60.8779ZM88.9719 63.5913C88.8913 63.1938 88.9409 62.7809 89.1134 62.4138C89.3057 62.3641 89.5011 62.3267 89.6982 62.302C90.2808 63.4566 89.1352 64.014 88.9697 63.5936L88.9719 63.5913Z" fill="black"/>
<path d="M49.5498 27.803C49.6195 27.7967 49.6843 27.7645 49.7314 27.7127C49.7785 27.6609 49.8045 27.5934 49.8042 27.5234C49.8042 26.4051 49.8042 25.2438 49.7483 24.101C49.7437 24.0271 49.7104 23.9581 49.6556 23.9084C49.6007 23.8588 49.5287 23.8326 49.4548 23.8354C49.4181 23.8372 49.3821 23.8463 49.349 23.8621C49.3158 23.8778 49.286 23.9 49.2614 23.9272C49.2368 23.9545 49.2178 23.9863 49.2055 24.0209C49.1932 24.0555 49.1878 24.0922 49.1897 24.1289C49.2417 25.1683 49.2456 26.2268 49.2456 27.2601C48.7743 27.2814 48.3104 27.1366 47.935 26.8508C47.8763 26.8089 47.8036 26.7914 47.7322 26.8018C47.6609 26.8123 47.5963 26.85 47.552 26.9069C47.5078 26.9639 47.4872 27.0358 47.4947 27.1075C47.5022 27.1793 47.5372 27.2453 47.5923 27.2919C48.1553 27.7066 48.8559 27.8895 49.5498 27.803Z" fill="black"/>
<path d="M46.9968 29.9612C47.0706 29.9686 47.1443 29.9465 47.2017 29.8995C47.2591 29.8526 47.2955 29.7848 47.303 29.711C47.3104 29.6372 47.2882 29.5635 47.2412 29.5061C47.1943 29.4487 47.1265 29.4123 47.0527 29.4049C46.8257 29.3833 46.6098 29.2963 46.4311 29.1545C46.2525 29.0127 46.1188 28.8221 46.0463 28.6059C45.9746 28.2363 46.0067 27.8541 46.1391 27.5016C46.6668 28.0129 47.2637 28.4477 47.9121 28.7932C47.9445 28.8119 47.9804 28.824 48.0175 28.8286C48.0546 28.8333 48.0923 28.8304 48.1283 28.8202C48.1644 28.81 48.1979 28.7927 48.2271 28.7692C48.2563 28.7458 48.2805 28.7167 48.2983 28.6838C48.316 28.6508 48.327 28.6147 48.3305 28.5774C48.334 28.5401 48.33 28.5025 48.3187 28.4669C48.3074 28.4312 48.289 28.3981 48.2647 28.3697C48.2404 28.3412 48.2106 28.3179 48.1772 28.3012C47.4601 27.9212 46.8129 27.422 46.2632 26.8251C46.2334 26.7922 46.1961 26.767 46.1545 26.7514C46.1129 26.7359 46.0683 26.7304 46.0242 26.7356C45.9801 26.7407 45.9378 26.7563 45.9009 26.781C45.864 26.8057 45.8336 26.8388 45.812 26.8776C45.4867 27.4409 45.3774 28.1033 45.5045 28.7412C45.6062 29.0685 45.802 29.3586 46.0673 29.5755C46.3326 29.7925 46.6559 29.9266 46.9968 29.9612Z" fill="black"/>
<path d="M74.4641 15.3673H76.2488C76.236 15.8593 76.2131 16.3519 76.1683 16.844C76.1759 16.914 76.2092 16.9787 76.2616 17.0257C76.314 17.0728 76.3819 17.0988 76.4524 17.0988C76.5228 17.0988 76.5907 17.0728 76.6432 17.0257C76.6956 16.9787 76.7288 16.914 76.7364 16.844C76.7811 16.3519 76.8041 15.8593 76.8169 15.3673H78.7247C78.8 15.3673 78.8723 15.3374 78.9255 15.2841C78.9788 15.2308 79.0087 15.1586 79.0087 15.0833C79.0087 15.0079 78.9788 14.9357 78.9255 14.8824C78.8723 14.8292 78.8 14.7992 78.7247 14.7992H76.8281C76.8281 14.2311 76.8063 13.6631 76.7934 13.0944C76.7856 12.7539 76.2175 12.7539 76.2254 13.0944C76.2382 13.6631 76.2628 14.2311 76.26 14.7992H74.4641C74.3888 14.7992 74.3165 14.8292 74.2632 14.8824C74.21 14.9357 74.1801 15.0079 74.1801 15.0833C74.1801 15.1586 74.21 15.2308 74.2632 15.2841C74.3165 15.3374 74.3888 15.3673 74.4641 15.3673Z" fill="black"/>
<path d="M94.9726 26.5018C97.2219 24.7344 95.383 21.2684 92.9144 21.9656C92.4436 22.106 92.0183 22.3683 91.6814 22.7258C91.3445 23.0834 91.1081 23.5236 90.996 24.002C90.4872 26.0998 93.0872 27.633 94.9726 26.5018ZM93.3253 22.5253L93.3343 22.5197C93.7659 22.4704 94.2011 22.575 94.5631 22.8151C94.9252 23.0551 95.191 23.4152 95.3136 23.832C95.4371 24.182 95.4559 24.5604 95.3675 24.9209C95.2792 25.2814 95.0876 25.6083 94.8162 25.8615C94.5449 26.1147 94.2056 26.2833 93.8399 26.3466C93.4742 26.4099 93.0979 26.3651 92.7573 26.2178C92.3903 26.0928 92.0719 25.8554 91.8475 25.5392C91.6231 25.2231 91.504 24.8442 91.5071 24.4565C91.5358 23.9726 91.7336 23.5141 92.066 23.1612C92.3983 22.8082 92.844 22.5831 93.3253 22.5253Z" fill="black"/>
<path d="M99.4014 15.4808C99.468 15.5064 99.5404 15.5131 99.6106 15.5001C99.6808 15.487 99.746 15.4548 99.7989 15.407C100.805 15.3472 101.806 15.2454 102.81 15.1397C103.132 15.1397 103.142 14.7422 103.037 14.7422L101.447 11.6742C101.401 11.616 101.337 11.5739 101.266 11.5538C101.195 11.5337 101.119 11.5367 101.049 11.5624C100.927 11.5624 99.8543 13.3852 99.2879 15.0849C99.2525 15.1529 99.2446 15.2318 99.2657 15.3055C99.2868 15.3792 99.3354 15.4419 99.4014 15.4808ZM101.227 12.4112L102.364 14.6052C101.595 14.6561 100.827 14.7265 100.057 14.807C100.383 13.9784 100.775 13.1772 101.229 12.4112H101.227Z" fill="black"/>
<path d="M25.5507 94.6215H23.6792L23.8403 92.9396C23.8439 92.9031 23.8404 92.8662 23.8298 92.831C23.8192 92.7959 23.8018 92.7632 23.7786 92.7347C23.7316 92.6773 23.6638 92.6409 23.5901 92.6335C23.5163 92.6261 23.4426 92.6483 23.3852 92.6952C23.3278 92.7421 23.2913 92.8099 23.2839 92.8837L23.1162 94.617H21.6306C21.5564 94.617 21.4853 94.6465 21.4329 94.6989C21.3805 94.7513 21.351 94.8224 21.351 94.8966C21.351 94.9707 21.3805 95.0418 21.4329 95.0942C21.4853 95.1467 21.5564 95.1761 21.6306 95.1761H23.0636L22.8864 97.0291C22.8817 97.1016 22.9055 97.1731 22.9526 97.2284C22.9997 97.2837 23.0665 97.3185 23.1388 97.3254C23.2111 97.3323 23.2833 97.3108 23.34 97.2654C23.3968 97.22 23.4336 97.1543 23.4427 97.0822L23.6256 95.1761H25.5507C25.6248 95.1761 25.6959 95.1467 25.7483 95.0942C25.8008 95.0418 25.8302 94.9707 25.8302 94.8966C25.8302 94.8224 25.8008 94.7513 25.7483 94.6989C25.6959 94.6465 25.6248 94.617 25.5507 94.617V94.6215Z" fill="black"/>
<path d="M35.8455 97.936C35.4298 98.0852 35.0676 98.3542 34.8046 98.7089C34.5415 99.0637 34.3894 99.4884 34.3673 99.9295C34.3453 100.371 34.4544 100.808 34.6808 101.188C34.9072 101.567 35.2408 101.87 35.6395 102.06C36.0383 102.25 36.4843 102.318 36.9214 102.255C37.3585 102.191 37.7671 102 38.0956 101.705C38.4242 101.41 38.658 101.024 38.7676 100.596C38.8773 100.168 38.8578 99.7176 38.7116 99.3009C38.4471 98.4985 37.0359 97.5055 35.8455 97.936ZM37.165 101.626C36.9574 101.7 36.7371 101.733 36.5169 101.722C36.2967 101.711 36.0807 101.657 35.8814 101.563C35.6822 101.468 35.5034 101.336 35.3554 101.172C35.2074 101.009 35.093 100.818 35.0188 100.61C34.9446 100.402 34.912 100.182 34.9229 99.962C34.9339 99.7417 34.988 99.5258 35.0824 99.3265C35.1768 99.1272 35.3095 98.9484 35.4729 98.8004C35.6364 98.6524 35.8274 98.538 36.035 98.4638C36.4582 98.3533 36.9069 98.3966 37.3011 98.5862C37.6953 98.7758 38.0093 99.0992 38.1871 99.4988C38.2632 99.7052 38.297 99.9248 38.2865 100.145C38.276 100.364 38.2215 100.58 38.1262 100.778C38.0308 100.976 37.8966 101.153 37.7315 101.299C37.5664 101.444 37.3738 101.555 37.165 101.624V101.626Z" fill="black"/>
<path d="M46.8485 23.7308C47.1202 23.4887 47.1884 22.6506 46.7126 22.522C46.2368 22.3934 45.8739 23.3607 46.1082 23.7006C46.3045 23.9796 46.5762 23.9724 46.8485 23.7308Z" fill="black"/>
<path d="M51.4503 25.151C51.7221 24.9089 51.7897 24.0707 51.3139 23.9421C50.8381 23.8135 50.4752 24.7808 50.7101 25.1208C50.9063 25.3998 51.178 25.3925 51.4503 25.151Z" fill="black"/>
</svg>
