<svg width="113" height="112" viewBox="0 0 113 112" fill="none" xmlns="http://www.w3.org/2000/svg">
<path d="M109.633 65.4777C107.425 65.925 103.13 65.6958 101.856 65.528C101.817 65.0807 101.884 60.7922 101.828 59.8249C101.828 59.7746 101.744 59.7466 101.744 59.7466C98.5806 59.5241 95.4082 59.4607 92.2386 59.5565C92.2386 55.7991 92.2386 51.997 92.1547 48.2005C92.1552 48.1866 92.1524 48.1728 92.1465 48.1602C92.1407 48.1476 92.132 48.1365 92.1212 48.1278C92.1103 48.1191 92.0976 48.1131 92.084 48.1102C92.0704 48.1073 92.0563 48.1076 92.0429 48.1111C86.2223 47.9098 81.9785 47.9936 81.945 48.0551C81.8835 48.4577 81.7828 52.2263 81.8164 53.0873C80.1081 51.2093 78.0442 49.6889 75.7442 48.6143C75.1989 48.4389 74.6908 48.164 74.2457 47.8035C74.119 47.6902 74.0229 47.5468 73.9662 47.3866C73.9095 47.2263 73.8941 47.0543 73.9214 46.8866C74.4079 45.0302 77.3098 44.0909 78.1596 43.4479C78.684 43.0977 79.1338 42.6472 79.4832 42.1222C79.8325 41.5973 80.0744 41.0084 80.1949 40.3894C80.2281 39.7921 80.0587 39.2011 79.714 38.712C79.3506 38.1529 79.9265 38.0467 80.3235 37.7C79.9559 37.7058 79.5938 37.7897 79.2611 37.946C79.3888 37.7435 79.4615 37.5112 79.4723 37.272C79.4831 37.0328 79.4315 36.795 79.3226 36.5818C79.3506 36.7607 79.3346 36.9437 79.2762 37.1151C79.2178 37.2866 79.1186 37.4412 78.9872 37.5658C79.0179 37.1115 78.8806 36.6618 78.6014 36.3022C77.1644 34.4291 74.1283 34.0265 71.9309 33.9035C71.9868 29.4305 71.9309 17.767 71.9309 16.4698C76.9631 16.6934 81.9953 16.9394 87.0722 17.1407C86.7144 25.0189 86.6249 32.9474 86.8541 40.8647C86.8548 40.8783 86.8588 40.8915 86.8657 40.9032C86.8726 40.9149 86.8822 40.9247 86.8938 40.9319C86.9053 40.939 86.9184 40.9433 86.932 40.9442C86.9455 40.9452 86.9591 40.9428 86.9716 40.9374C89.51 41.0324 95.8114 41.2505 96.4265 41.2673C96.6837 44.7395 96.7564 48.2732 96.706 51.8013C96.7075 51.827 96.7187 51.8512 96.7374 51.8689C96.7562 51.8866 96.7809 51.8964 96.8067 51.8964C99.3366 52.0587 101.874 52.0699 104.405 51.9299C104.489 51.9299 104.495 51.7901 104.405 51.7901C103.125 51.7901 98.1262 51.7901 96.9073 51.7063C96.9996 48.1904 96.9026 44.6721 96.6166 41.1666C94.3186 40.7976 87.732 40.8032 87.0219 40.7864C86.8653 32.8971 86.9045 24.963 87.2679 17.0457C87.2679 17.0199 87.2581 16.9951 87.2404 16.9764C87.2227 16.9577 87.1986 16.9465 87.1729 16.945C87.1169 16.945 71.8582 16.3076 71.8023 16.3356C71.7821 16.3396 71.7641 16.351 71.7517 16.3675C71.7393 16.384 71.7334 16.4045 71.7352 16.425V33.9091C70.561 34.0545 71.0083 35.0889 70.712 35.6648C70.5834 35.9052 70.4772 35.8046 70.2703 35.9443C69.7112 36.3078 69.7615 38.74 69.7838 39.383C69.2247 40.8312 68.7886 42.9223 69.8398 44.0741C70.0243 44.2754 70.3486 44.4431 70.4492 44.7059C70.4679 44.7951 70.467 44.8872 70.4468 44.976C70.4265 45.0648 70.3873 45.1481 70.3318 45.2203C70.1183 45.6155 69.7908 45.9373 69.3919 46.1437C68.993 46.3502 68.5412 46.4317 68.0953 46.3777C64.5839 46.0982 63.1134 46.6405 62.3474 46.8586C60.0453 47.9023 57.8755 49.2162 55.8838 50.7725C55.7902 50.8806 55.7277 51.0121 55.7031 51.1529C55.6785 51.2938 55.6926 51.4387 55.744 51.5721C55.1849 51.8013 54.6258 52.1312 54.1002 52.394C53.7703 51.3317 52.2718 46.2044 52.188 45.9808C52.5273 45.7686 52.8156 45.4841 53.0322 45.1477C53.5914 45.1477 53.7144 45.1812 53.7535 45.0973C54.1841 44.1412 54.4636 43.118 54.9277 42.1731C55.4421 42.1731 60.7259 41.9047 62.845 41.7202C62.845 41.7202 65.8308 42.2793 65.9817 42.3296C65.9733 42.4464 65.9915 42.5636 66.035 42.6723C66.0785 42.781 66.1462 42.8784 66.233 42.9571C66.3197 43.0357 66.4233 43.0936 66.5357 43.1264C66.6481 43.1591 66.7665 43.1658 66.8819 43.146C67.5082 43.0733 67.8772 42.5086 68.1288 41.9942C68.4336 41.4103 68.5965 40.7628 68.6041 40.1043C68.6041 38.8183 67.9219 38.3822 67.3963 38.4269C67.2583 38.4207 67.1222 38.4616 67.0105 38.5428C66.8987 38.6241 66.8179 38.741 66.7813 38.8742C66.4011 38.8071 64.0248 38.3486 63.9856 38.3151C62.6661 36.9284 59.2442 33.9203 59.2442 33.9091C59.1547 30.7388 59.2722 22.268 59.3057 21.3007C59.3044 21.2744 59.2933 21.2496 59.2747 21.231C59.2561 21.2124 59.2313 21.2014 59.2051 21.2C52.7806 21.323 51.1983 20.9932 51.2039 21.2839C51.2766 22.8998 51.2654 27.7531 51.2374 27.7363C47.0943 24.9909 40.463 18.7175 40.5748 18.7902C40.5077 18.5721 40.189 17.6999 40.0939 17.4818C40.0939 17.4483 36.946 16.4865 36.2806 16.3635C35.9763 16.3599 35.6767 16.4392 35.414 16.5928C34.5826 17.1536 33.8748 17.8786 33.334 18.7231C28.3801 25.3656 26.5182 33.0089 27.547 39.8303C27.6539 40.7887 27.887 41.7287 28.2403 42.626C28.3816 42.9103 28.5916 43.1549 28.8513 43.3374C29.1111 43.52 29.4123 43.6349 29.7276 43.6715C30.2868 43.7946 32.9985 44.0909 33.6415 43.9343C34.0274 43.7047 34.4007 43.4546 34.7598 43.1851C36.4372 43.2186 41.106 42.9726 41.7769 42.9391C41.6148 46.0702 41.6371 54.0882 41.6707 54.9548C39.0372 54.8989 32.3388 54.8989 31.6063 54.8766C31.6063 53.3669 31.7293 51.7175 31.6622 50.1854C31.5728 50.0457 31.405 50.0401 31.2596 50.0289C30.0016 49.9562 24.6954 49.7884 23.4933 49.8947C23.2529 49.8947 23.5436 49.822 23.4933 56.3359H14.2397C14.213 56.3359 14.1874 56.3465 14.1685 56.3654C14.1496 56.3842 14.139 56.4098 14.139 56.4365C14.139 60.6468 14.0607 64.8962 14.139 69.14H6.08752C6.06824 69.14 6.04975 69.1477 6.03612 69.1613C6.02249 69.1749 6.01483 69.1934 6.01483 69.2127C6.01483 69.232 6.02249 69.2505 6.03612 69.2641C6.04975 69.2777 6.06824 69.2854 6.08752 69.2854C11.5446 69.3525 17.0297 69.4084 22.5092 69.386C22.6155 69.386 22.649 69.7718 22.6211 62.3018C25.9758 62.3018 29.3306 62.3857 32.7246 62.3018C32.7246 64.8179 32.6519 67.334 32.6854 69.8501C31.6947 69.3877 30.5689 69.3041 29.5207 69.6153C27.0829 70.2583 27.5582 72.0866 27.4911 72.3606C27.3681 72.7408 27.0102 72.6402 26.6021 72.7464C26.138 72.8735 25.7164 73.1226 25.3812 73.4677C25.0459 73.8128 24.8091 74.2414 24.6954 74.709C23.5772 74.6586 22.8727 74.709 22.3303 75.6763C22.0334 75.338 21.6639 75.0711 21.2493 74.8958C20.8347 74.7205 20.3859 74.6411 19.9364 74.6637C19.4868 74.6863 19.0482 74.8102 18.6533 75.0262C18.2584 75.2422 17.9175 75.5447 17.656 75.9111C16.6719 75.5868 15.7996 76.4702 15.3747 77.3592C14.659 78.8857 15.85 79.73 15.9338 79.9536L12.8027 79.9145C12.7244 79.9145 12.7244 80.0319 12.8027 80.0375C13.8706 80.0375 23.9406 80.4233 48.028 80.0766C45.3665 85.9028 45.0199 95.7323 44.8633 102.106C45.1763 102.244 45.4998 102.356 45.8306 102.442C45.8306 102.872 45.8642 103.32 45.8642 103.884C45.3665 104.17 43.8066 105.098 43.7227 105.204C43.6388 105.31 43.5717 105.707 43.8233 105.763C45.045 105.796 46.2676 105.762 47.4857 105.663C47.4134 104.636 47.5465 103.606 47.877 102.632C48.572 102.643 49.2669 102.608 49.957 102.526C53.5075 94.5861 53.9828 90.5044 55.1961 87.7759C56.3982 86.8757 59.3672 83.683 60.7595 82.4082C60.9769 80.294 61.0068 78.1648 60.8489 76.0453C60.8489 75.9502 60.9663 75.8664 61.0558 76.0453C61.2347 76.4199 61.4416 77.7786 61.2459 81.4577C61.1676 82.9785 60.6364 86.0538 61.9616 90.1298C63.1439 93.3316 64.9904 96.2471 67.3796 98.6845L72.0036 103.348C72.3162 103.291 72.6245 103.213 72.9262 103.113C72.9541 103.146 73.804 104.231 73.8487 104.231C73.8428 104.543 73.746 104.846 73.5702 105.103C73.3943 105.36 73.1472 105.561 72.8591 105.679C72.6913 105.746 72.7752 106.238 72.9038 106.238C73.4997 106.272 74.0971 106.272 74.693 106.238C75.1622 105.709 75.5955 105.148 75.9902 104.561C75.9902 104.472 74.8719 103.001 74.6707 102.235C74.893 102.085 75.1042 101.918 75.3025 101.737C73.2327 96.9767 71.4075 92.1134 69.8342 87.1664C70.8574 85.3828 72.6857 81.9274 72.9429 79.9928C85.1767 80.5519 95.5263 81.262 107.464 80.0655C107.553 80.0655 107.553 79.9201 107.464 79.9257L106.049 80.0487C105.728 79.1924 105.223 78.4173 104.569 77.7785C103.915 77.1397 103.128 76.6529 102.264 76.3528C100.883 75.8999 100.631 76.4255 100.217 75.8608C99.6778 75.0347 98.8802 74.4103 97.9488 74.0847C97.0174 73.759 96.0045 73.7505 95.0678 74.0604C95.2691 71.863 93.6867 69.8054 91.221 70.0849C91.4936 69.2202 91.4543 68.2873 91.11 67.4485C90.7657 66.6097 90.1382 65.9183 89.3367 65.4945C89.5408 64.848 89.5648 64.1582 89.4062 63.4991C89.2476 62.8401 88.9123 62.2367 88.4365 61.7539C88.1832 61.4176 87.8336 61.1664 87.4341 61.0336C87.0346 60.9007 86.6042 60.8926 86.2 61.0102C85.6189 59.9508 84.9049 58.97 84.0753 58.0916C84.2601 57.8525 84.43 57.6023 84.5841 57.3423C83.8925 55.8313 82.997 54.4222 81.9226 53.1544C81.9226 53.1544 82.0903 48.5248 82.1015 48.1222C84.6735 48.0663 91.2545 48.2732 91.9702 48.262C91.9702 51.2142 91.9982 58.7961 92.0261 59.6348C92.0272 59.652 92.0325 59.6687 92.0416 59.6835C92.0506 59.6982 92.0631 59.7105 92.078 59.7194C92.0928 59.7282 92.1096 59.7332 92.1269 59.7341C92.1442 59.7349 92.1614 59.7315 92.1771 59.7242C96.8179 59.5789 100.603 59.8584 101.654 59.8752C101.654 60.8481 101.481 65.2037 101.654 65.6287C101.654 65.679 103.667 66.0927 107.687 65.8915C108.124 65.8467 110.008 65.7964 109.633 65.4777ZM47.3459 103.834C46.9042 103.784 46.4588 103.772 46.0151 103.801C46.0151 103.745 45.9648 102.682 45.948 102.47C46.5242 102.558 47.1047 102.616 47.6869 102.643C47.6198 102.822 47.3571 103.812 47.3459 103.834ZM74.5085 102.358L75.1068 103.476C74.9279 103.577 74.3464 103.952 73.9885 104.164C73.9885 104.108 73.0995 103.046 73.0771 103.046C73.569 102.849 74.0472 102.619 74.5085 102.358ZM68.2183 46.6685C68.4063 46.663 68.5934 46.6406 68.7774 46.6014C69.0969 46.5775 69.4075 46.4853 69.6882 46.3309C69.9689 46.1766 70.2132 45.9637 70.4045 45.7068C71.7352 43.789 68.9787 44.8122 69.5937 41.1666C69.9014 39.68 70.455 38.2551 71.232 36.9508C71.6632 37.5004 72.203 37.9552 72.8177 38.2871C73.4324 38.619 74.1088 38.8207 74.8048 38.8798C75.2633 38.8798 74.844 39.9533 75.0341 40.8759C75.1739 41.5301 75.8952 41.0492 76.3145 41.435C76.4434 41.5595 76.534 41.7183 76.5756 41.8926C76.6172 42.0669 76.608 42.2495 76.5493 42.4188C76.4905 42.588 76.3845 42.737 76.2438 42.848C76.1032 42.959 75.9337 43.0275 75.7554 43.0453C75.4679 43.7175 75.2214 44.4065 75.0173 45.1085C74.3327 45.5736 73.8571 46.288 73.6922 47.099C73.7377 47.3645 73.8449 47.6157 74.0051 47.8322C74.1654 48.0488 74.3742 48.2247 74.6147 48.3459C73.8057 49.2312 72.7032 49.7933 71.5116 49.9282C70.8632 50.0395 70.1967 49.9739 69.5826 49.7381C68.4307 49.2293 68.0114 47.8986 68.2183 46.6685ZM51.9475 45.9416C51.9923 46.2268 53.5858 51.4994 53.9213 52.6065C54.1617 52.8022 55.2184 51.9299 55.7832 51.7678C56.0641 53.9351 56.9606 55.9765 58.3664 57.6498C55.5707 59.9647 53.5299 60.261 53.1888 60.2722C52.851 60.2874 52.5145 60.2217 52.2072 60.0807C51.8999 59.9397 51.6307 59.7274 51.4219 59.4614C50.598 58.4654 50.0882 57.2473 49.957 55.9613C49.4538 52.7574 49.6104 49.4026 49.6607 46.1317C49.74 46.1606 49.8263 46.1648 49.9081 46.1439C49.9899 46.1229 50.0635 46.0778 50.1192 46.0143C50.4099 46.5063 50.7789 46.4169 50.9802 46.087C51.4052 46.702 51.9979 45.8186 52.1376 45.1085C52.1376 45.1085 52.6073 45.1477 52.8366 45.1532C52.6185 45.5838 51.9308 45.8354 51.9475 45.9416ZM50.3596 44.1692C50.3596 44.0909 50.5273 43.9958 50.5944 43.9903C50.6641 43.9925 50.7307 44.0197 50.782 44.0669C50.8333 44.1141 50.866 44.1782 50.874 44.2475C50.874 44.3369 51.0082 44.3816 51.0473 44.2978C51.079 44.2359 51.1249 44.1824 51.1811 44.1416C51.2374 44.1008 51.3025 44.0739 51.3712 44.063C51.4398 44.0521 51.5101 44.0575 51.5762 44.0789C51.6424 44.1003 51.7025 44.1369 51.7518 44.1859C52.406 44.7451 51.5338 46.3386 51.1927 46.0814C51.1256 46.0311 51.0138 45.9975 51.0585 45.6061C51.0585 45.5111 50.9131 45.5279 50.8796 45.6061C50.8796 46.0479 50.7063 46.1653 50.5721 46.1653C50.4379 46.1653 50.3484 46.0479 50.2869 45.9584C50.2537 45.8206 50.2537 45.6769 50.2869 45.539C50.2869 45.4272 50.1303 45.3769 50.108 45.4943C50.08 45.6368 50.031 45.7744 49.9626 45.9025C49.9419 45.9283 49.9147 45.9481 49.8837 45.9598C49.8528 45.9715 49.8193 45.9746 49.7867 45.9689C49.7541 45.9632 49.7237 45.9488 49.6986 45.9273C49.6734 45.9058 49.6546 45.8779 49.6439 45.8466C49.5277 45.3061 49.5469 44.7452 49.6998 44.2139C49.7181 44.1567 49.7527 44.1061 49.7994 44.0683C49.8461 44.0306 49.9028 44.0073 49.9626 44.0014C50.0465 44.0014 50.1639 44.1412 50.1639 44.158C50.1807 44.3034 50.3652 44.3034 50.3596 44.1692ZM53.5746 44.924C53.172 44.924 52.6856 44.924 52.16 44.9631C52.2774 43.9399 51.394 43.6492 50.997 44.0462C50.9615 43.9794 50.9097 43.9227 50.8464 43.8814C50.7831 43.8401 50.7104 43.8155 50.635 43.8099C50.5596 43.8043 50.4841 43.8179 50.4154 43.8495C50.3467 43.881 50.2871 43.9295 50.2422 43.9903C50.2084 43.9504 50.167 43.9177 50.1204 43.8941C50.0738 43.8705 50.023 43.8564 49.9709 43.8528C49.9188 43.8491 49.8664 43.856 49.817 43.8729C49.7676 43.8897 49.722 43.9163 49.683 43.9511C49.465 44.13 49.4482 44.5102 49.4147 44.8681H47.5695C47.4577 44.5438 46.865 43.0621 46.7588 42.6875L54.6649 42.201C54.5028 42.626 53.8038 44.4599 53.5746 44.924ZM68.3077 40.8871C68.1009 41.6754 67.6815 42.9838 66.6303 42.9503C66.5001 42.9264 66.3825 42.8572 66.2985 42.7548C66.2146 42.6524 66.1697 42.5235 66.1718 42.3911C66.2738 42.4067 66.3775 42.4067 66.4794 42.3911C66.9324 42.0595 67.2792 41.6034 67.4778 41.0783C67.6763 40.5532 67.718 39.9817 67.5976 39.4333C67.5976 39.3271 67.4914 38.9916 67.4187 38.9804L66.8596 38.891C67.4914 38.0914 68.7606 38.9189 68.3077 40.8871ZM51.3996 21.379C51.4611 21.379 56.5827 21.446 59.11 21.4349C58.9311 25.5277 58.892 29.6765 59.0653 33.8085C56.6107 31.7732 53.9716 29.8107 51.3828 27.8593C51.3884 27.809 51.4443 22.4972 51.3996 21.379ZM28.8106 43.0062C28.2515 42.4191 28.095 41.5357 27.9496 40.7697C26.7586 34.6192 28.067 28.1444 31.1031 22.6929C31.5839 21.8207 33.8093 18.1024 35.4867 16.822C36.1688 16.2964 37.0355 16.9842 37.4213 17.6999C38.0922 18.9467 38.1929 24.4486 38.0699 26.2434C37.0739 25.8733 35.9873 25.8225 34.9611 26.098C29.6997 27.6077 30.147 35.6368 36.0794 35.6704C35.6768 36.7886 33.9994 40.8759 31.0472 43.0677C30.7291 43.3276 30.3281 43.4645 29.9175 43.4532C29.5068 43.4419 29.114 43.2832 28.8106 43.0062ZM33.5185 43.8001C33.4123 43.7666 31.1814 43.7051 30.3315 43.6212C31.0988 43.3521 31.7815 42.8853 32.3108 42.2681C35.811 38.8462 37.3933 33.2493 38.0643 28.4072C38.5043 25.1012 38.4421 21.7477 37.8798 18.4603C37.7575 17.8131 37.4507 17.215 36.9963 16.7382C37.3933 16.8668 39.8367 17.6216 39.9765 17.6328C41.7378 22.145 41.8552 27.2722 40.7705 32.0136C40.5468 32.9027 40.2561 33.7861 39.9709 34.6583C38.78 38.4828 36.9572 41.7369 33.5185 43.8001ZM34.922 43.0565C41.4638 37.9237 42.7498 25.5669 40.6754 19.0641C47.6534 26.3664 56.8903 31.2309 63.8347 38.494C63.8794 38.5387 66.7981 39.0867 67.3852 39.1817C67.5366 39.7285 67.524 40.3078 67.3491 40.8475C67.1741 41.3873 66.8445 41.8638 66.4011 42.2178C66.1551 42.1172 62.8897 41.5357 62.845 41.5301C60.9999 41.5468 35.7662 43.0118 34.922 43.0565ZM22.5036 62.0949C22.4872 62.0949 22.4711 62.0992 22.4568 62.1073C22.4425 62.1154 22.4306 62.127 22.4221 62.1411C22.4137 62.1552 22.409 62.1712 22.4086 62.1876C22.4082 62.204 22.412 62.2202 22.4198 62.2347C22.4198 64.4992 22.3415 66.8811 22.4198 69.2015C20.3622 69.1512 14.9218 69.1344 14.3515 69.1344C14.4186 65.897 14.3515 57.4374 14.3515 56.526H23.5939C23.6101 56.5265 23.6261 56.5228 23.6404 56.5154C23.6547 56.5081 23.6669 56.4971 23.6759 56.4837C23.6848 56.4703 23.6902 56.4548 23.6915 56.4387C23.6929 56.4226 23.6901 56.4065 23.6834 56.3918C23.7449 54.351 23.6834 52.1983 23.6387 50.0904C25.6683 50.0121 30.762 50.2749 31.282 50.3084C31.6678 50.3084 31.433 50.0233 31.4442 55.0331C31.4442 55.0778 31.5392 55.1338 31.5616 55.1338C34.9164 55.3686 38.3327 55.1338 41.749 55.1729C42.1348 55.3015 41.7098 54.1497 41.9391 42.967L46.591 42.7042C46.7252 43.0733 47.3235 44.6053 47.4241 45.0302C47.4318 45.0546 47.4465 45.076 47.4665 45.092C47.4864 45.1079 47.5106 45.1176 47.536 45.1197H49.4538C49.4013 45.4518 49.4541 45.792 49.6048 46.0926C49.0848 54.1273 49.7613 56.157 49.8172 56.3582C49.2217 56.168 48.5809 56.1739 47.989 56.3752C47.3971 56.5765 46.8855 56.9626 46.5295 57.4765C46.1444 57.1952 45.6845 57.0345 45.2079 57.0147C44.7314 56.9949 44.2597 57.117 43.8526 57.3654C43.4455 57.6139 43.1213 57.9776 42.921 58.4104C42.7207 58.8432 42.6533 59.3258 42.7274 59.7969C42.7274 60.0373 42.5038 60.0877 42.2969 60.0988C39.9709 59.9982 38.4948 61.7762 38.8079 63.5207C38.4633 63.788 38.2224 64.1668 38.1265 64.5922C38.0307 65.0176 38.0857 65.4631 38.2823 65.8523C37.5051 66.1878 36.6049 66.7246 36.6049 67.6751C36.5759 67.9497 36.6538 68.225 36.8225 68.4437C36.9912 68.6624 37.2377 68.8076 37.5107 68.8493C37.7735 68.8828 38.0699 68.8493 38.2935 69.0338C38.398 69.2475 38.5627 69.4259 38.7674 69.5471C38.9721 69.6683 39.2077 69.727 39.4453 69.7159C39.4557 69.8916 39.4281 70.0674 39.3645 70.2314C39.3008 70.3954 39.2025 70.5438 39.0763 70.6664C39.0763 70.6664 38.478 70.5267 38.2152 70.426C37.9628 70.3317 37.6849 70.3317 37.4325 70.426C37.1374 70.5404 36.8142 70.561 36.507 70.485C36.1998 70.4089 35.9235 70.2399 35.7159 70.0011C35.386 69.4419 34.7934 68.497 34.0385 69.1065C33.9478 69.1859 33.8769 69.2855 33.8316 69.3972C33.8316 70.4092 33.2446 70.0905 32.9594 69.9563C33.0321 67.3731 33.0153 64.7956 33.0209 62.2124C32.9426 62.0614 33.4514 62.0726 22.5036 62.0949ZM48.179 79.8027C47.3794 79.8027 26.0206 80.0543 16.1239 79.9536C15.945 79.3945 15.1399 78.8969 15.4418 77.801C15.7437 76.7051 16.6775 75.7378 17.7119 76.1236C17.735 76.1316 17.7602 76.1309 17.7829 76.1216C17.8055 76.1123 17.824 76.0952 17.8349 76.0732C18.0756 75.7384 18.3873 75.4609 18.7479 75.2607C19.1084 75.0605 19.5088 74.9425 19.9203 74.9153C20.3318 74.888 20.7442 74.9521 21.128 75.103C21.5118 75.2539 21.8575 75.4879 22.1402 75.7881C22.2576 75.8887 22.2968 76.0397 22.4533 75.8328C22.8279 74.9326 23.8903 74.804 24.8184 74.8991C24.8412 74.8978 24.863 74.8897 24.881 74.8757C24.899 74.8617 24.9123 74.8425 24.9191 74.8208C25.026 74.2448 25.3452 73.73 25.8137 73.3782C26.3059 73.0693 26.8626 72.8779 27.4408 72.8191C27.5257 72.7348 27.5915 72.6333 27.634 72.5214C27.6764 72.4096 27.6944 72.2899 27.6868 72.1705C27.6668 71.6852 27.8094 71.2071 28.092 70.8121C28.3746 70.4171 28.781 70.1277 29.2468 69.9899C31.3659 69.3301 33.1607 70.4092 33.4459 70.3645C33.731 70.3198 33.8484 70.0905 33.8764 69.8054C33.8764 69.6376 33.8484 69.1959 34.4355 69.1344C35.0226 69.0729 35.2071 69.811 35.4699 70.152C35.6697 70.3922 35.9326 70.5718 36.229 70.6706C36.5253 70.7693 36.8434 70.7834 37.1473 70.7112C37.5331 70.6497 37.6561 70.5099 38.0755 70.672C38.3824 70.7691 38.6994 70.831 39.0204 70.8565C39.2056 70.71 39.3501 70.5185 39.4402 70.3002C39.5302 70.0819 39.5628 69.8442 39.5348 69.6097C39.5344 69.597 39.5311 69.5845 39.5252 69.5733C39.5193 69.562 39.511 69.5522 39.5007 69.5447C39.4905 69.5372 39.4787 69.532 39.4662 69.5297C39.4537 69.5274 39.4408 69.528 39.4286 69.5314C39.2819 69.5618 39.1298 69.5541 38.9869 69.509C38.844 69.464 38.715 69.3832 38.6122 69.2742C38.4389 69.0841 38.3662 68.8437 38.0978 68.7542C37.8294 68.6647 37.5387 68.7207 37.2983 68.6424C37.1461 68.5627 37.0144 68.449 36.9133 68.3102C36.8121 68.1714 36.7444 68.0111 36.7152 67.8419C36.686 67.6726 36.6961 67.499 36.7449 67.3343C36.7937 67.1696 36.8797 67.0184 36.9963 66.8923C37.377 66.4589 37.8648 66.133 38.4109 65.9474C38.43 65.9367 38.4441 65.9191 38.4504 65.8983C38.4566 65.8774 38.4545 65.8549 38.4445 65.8355C38.2256 65.4724 38.1524 65.0399 38.2395 64.6249C38.3267 64.21 38.5677 63.8434 38.9142 63.599C38.9292 63.5901 38.9411 63.5766 38.9481 63.5606C38.9551 63.5445 38.9569 63.5267 38.9533 63.5095C38.5955 61.8657 40.0716 60.3449 41.749 60.2554C42.5317 60.3001 43.0406 60.1827 42.8672 59.2937C42.8945 58.9134 43.0135 58.5453 43.2141 58.2211C43.4147 57.8968 43.6909 57.626 44.019 57.4318C44.8242 56.923 45.8418 57.2529 46.6022 57.6219C46.9442 57.1118 47.4428 56.7269 48.0227 56.5252C48.6027 56.3234 49.2326 56.3159 49.8172 56.5036C49.8508 56.5036 50.4491 60.0597 52.7918 60.4679C53.1049 60.5238 54.8886 60.5629 58.2657 58.0748C57.9582 59.0365 56.5548 64.1749 56.3032 65.651C56.2361 66.0704 56.5771 66.2828 56.8623 66.4729C55.4757 68.6144 50.505 74.8208 48.179 79.8027ZM88.7216 62.4137C89.0227 62.8706 89.2145 63.3906 89.2824 63.9336C89.3502 64.4765 89.2923 65.0278 89.113 65.5448C89.1047 65.5687 89.1052 65.5948 89.1144 65.6184C89.1237 65.642 89.141 65.6615 89.1634 65.6734C91.9926 67.1942 90.9973 70.1465 90.9973 70.1465C90.5529 70.2532 90.1395 70.4618 89.7896 70.7559C89.7337 70.8118 89.7896 70.8957 89.8791 70.8454C90.2762 70.5349 90.746 70.3309 91.244 70.2526C91.742 70.1743 92.2518 70.2244 92.725 70.3981C93.4649 70.6974 94.0808 71.2399 94.4711 71.9361C94.8613 72.6323 95.0028 73.4407 94.8721 74.2281C98.3611 73.3782 99.9043 75.7322 100.022 75.9055C100.38 76.4199 100.508 76.3528 101.14 76.3752C103.231 76.4702 105.054 78.1924 105.921 80.0766C94.9951 80.8986 84.0082 80.2444 73.0604 79.7635C73.9316 76.7788 74.4016 73.6913 74.4582 70.5826C74.67 70.5462 74.8792 70.4957 75.0844 70.4316C75.2285 70.1685 75.3339 69.8861 75.3975 69.5929C75.9567 66.7246 76.8736 63.8059 77.0749 60.8145C77.7961 61.4788 78.5808 62.0706 79.4177 62.5814C79.4848 62.6149 79.6973 62.4416 79.7644 62.3969C80.3516 62.7485 80.9123 63.1429 81.4417 63.5766C82.4146 64.5943 82.0009 65.6287 82.2581 69.5146C82.5097 73.6522 82.8843 74.6531 82.7669 74.9885C82.5936 75.4302 80.9441 75.7657 82.2581 76.1068C82.409 76.1068 82.8843 75.9726 82.8172 76.2801C82.6439 76.5653 82.2581 77.1188 82.8843 77.2642C82.9754 77.274 83.0669 77.2502 83.1415 77.1971C83.1495 77.2912 83.1912 77.3793 83.259 77.4451C83.3269 77.5109 83.4162 77.5499 83.5105 77.5549C83.6126 77.5593 83.7134 77.5314 83.7987 77.4752C83.884 77.4189 83.9495 77.3373 83.9858 77.2418C84.0067 77.2995 84.0426 77.3506 84.0898 77.3899C84.1369 77.4292 84.1936 77.4553 84.2542 77.4655C84.886 77.4208 84.8525 76.5317 85.0146 75.9894C85.1656 74.9382 85.1935 73.7528 85.7806 72.7129C87.2399 68.7989 88.2128 64.885 86.3397 61.2283C86.8071 61.1512 87.2868 61.2244 87.7099 61.4374C88.1329 61.6504 88.4774 61.9923 88.6937 62.4137H88.7216ZM85.2718 73.3C84.981 73.9374 84.7127 76.487 84.6456 76.6547C84.5785 76.8225 84.4834 77.4431 84.1535 77.1356C84.1088 77.0377 84.0933 76.929 84.1088 76.8225C84.1088 76.7163 83.9634 76.7218 83.9467 76.8225C83.9467 77.0238 83.8292 77.3089 83.5832 77.3313C83.1695 77.3313 83.3316 76.8113 83.3204 76.7722C83.3155 76.7529 83.3043 76.7359 83.2886 76.7237C83.2729 76.7115 83.2536 76.7049 83.2338 76.7049C83.2139 76.7049 83.1946 76.7115 83.1789 76.7237C83.1632 76.7359 83.152 76.7529 83.1471 76.7722C83.1471 76.8113 83.108 77.1971 82.806 77.0294C82.6774 76.9511 82.6942 76.8225 82.7557 76.7107C82.8172 76.5988 82.985 76.4367 83.0129 76.2578C83.023 76.1821 83.0083 76.1053 82.971 76.0387C82.9337 75.9722 82.8758 75.9195 82.806 75.8887C82.6216 75.8509 82.4314 75.8509 82.2469 75.8887C82.163 75.8887 81.9953 75.8887 81.9673 75.7769C81.9394 75.6651 82.2525 75.6092 82.3364 75.5812C83.2981 75.2401 82.9514 74.463 82.8228 73.4174C82.56 71.3206 82.4538 69.1512 82.3699 66.9762V65.0751C82.2525 63.5711 81.302 62.956 79.9824 62.2795C79.9824 62.2795 82.7333 60.2945 84.0361 58.2481C87.0163 61.8545 88.593 65.2429 85.2438 73.3H85.2718ZM82.2413 53.8701C83.0964 54.9261 83.8315 56.0737 84.4331 57.292C83.5609 58.9694 80.9609 61.2842 79.5071 62.3242C78.8921 62.0111 77.019 60.9543 75.3752 57.963C75.3416 57.9015 75.2466 57.963 75.2801 58.0189C75.7545 58.9321 76.3162 59.7972 76.9575 60.6021C76.7618 63.1853 75.9734 65.7908 75.4646 68.3796C75.3492 69.0036 75.1885 69.6184 74.9838 70.2191C73.3064 70.6273 61.4472 69.0505 56.8735 66.1542C56.5771 65.9753 56.51 65.8915 56.5771 65.5224C57.1363 62.5031 58.9702 55.7488 61.0502 51.6168C61.0837 51.5441 60.9775 51.4826 60.944 51.5553C59.9888 53.4514 59.1703 55.4134 58.495 57.4262C57.4214 55.9669 56.1857 53.708 56.018 51.3764C55.9397 51.0074 56.2696 50.8173 56.5212 50.6551C56.7728 50.493 61.9224 46.2715 66.6583 46.5511C67.0441 46.5511 68.0338 46.6517 68.1512 46.6517C68.0104 47.206 68.035 47.7893 68.2218 48.3298C68.4085 48.8703 68.7494 49.3443 69.2023 49.6934C70.4212 50.5321 73.1163 50.3476 74.7937 48.4074C77.6585 49.6257 80.1993 51.4963 82.2133 53.8701H82.2413Z" fill="black"/>
<path d="M71.3942 41.9551C71.4068 41.9521 71.4185 41.9457 71.4278 41.9366C71.4372 41.9275 71.4439 41.9161 71.4474 41.9035C71.4508 41.891 71.4508 41.8777 71.4473 41.8651C71.4439 41.8526 71.4371 41.8411 71.4277 41.8321C71.3215 41.737 71.0531 41.7426 71.0531 41.5469C71.4339 41.0472 71.8447 40.5711 72.2832 40.1212C72.3335 40.0652 72.2552 39.9758 72.1993 40.0317C71.014 41.2226 70.7791 41.396 70.9021 41.7091C70.9497 41.795 71.0222 41.8644 71.11 41.9083C71.1978 41.9522 71.2969 41.9685 71.3942 41.9551ZM71.0699 39.9087C71.1861 39.7793 71.2943 39.643 71.3942 39.5005C71.4501 39.4222 71.3159 39.3216 71.2488 39.4222C71.1473 39.5559 71.0575 39.6981 70.9804 39.8472C70.9817 39.8573 70.9851 39.8671 70.9904 39.8759C70.9958 39.8847 71.0029 39.8922 71.0113 39.898C71.0198 39.9038 71.0294 39.9078 71.0395 39.9096C71.0495 39.9114 71.0599 39.9111 71.0699 39.9087ZM73.2113 41.0773C73.2896 41.0773 73.9103 40.6467 73.7705 40.5181C73.7527 40.5004 73.7285 40.4904 73.7034 40.4904C73.6782 40.4904 73.6541 40.5004 73.6363 40.5181C73.558 40.6523 73.1442 40.8816 73.1498 41.0773C73.1592 41.0827 73.1698 41.0855 73.1806 41.0855C73.1914 41.0855 73.202 41.0827 73.2113 41.0773ZM72.2552 43.7835C72.4677 43.94 72.8535 43.694 73.0324 43.3921C73.1338 43.1934 73.2162 42.9856 73.2784 42.7714C73.2816 42.7621 73.2829 42.7522 73.2821 42.7423C73.2813 42.7325 73.2785 42.7229 73.2739 42.7142C73.2693 42.7054 73.263 42.6977 73.2553 42.6915C73.2476 42.6853 73.2387 42.6807 73.2292 42.6781C73.2197 42.6754 73.2097 42.6747 73.2 42.676C73.1902 42.6773 73.1807 42.6806 73.1723 42.6857C73.1638 42.6908 73.1564 42.6975 73.1507 42.7055C73.1449 42.7136 73.1408 42.7227 73.1387 42.7323C73.0722 42.88 72.9669 43.007 72.834 43.0995C72.701 43.1921 72.5454 43.2468 72.3838 43.2579C72.0819 43.3529 72.0483 43.6437 72.2552 43.7835ZM44.6509 25.6117C44.639 25.6043 44.6247 25.6019 44.6111 25.605C44.5974 25.6082 44.5856 25.6166 44.5782 25.6285C44.5708 25.6403 44.5684 25.6546 44.5715 25.6683C44.5747 25.6819 44.5831 25.6937 44.595 25.7011C47.7932 28.083 48.5089 28.4017 50.3652 29.9338C50.4267 29.9841 50.5162 29.9002 50.4547 29.8387C48.6222 28.2946 46.6828 26.882 44.6509 25.6117ZM54.732 33.1711C54.8103 33.2047 54.8942 33.1152 54.8271 33.0481C54.76 32.981 53.1497 31.8963 52.8142 31.6727C52.7359 31.6168 52.6632 31.7398 52.7415 31.7957C53.0658 32.0305 54.5475 33.0873 54.732 33.1711ZM20.1497 14.0321L19.0314 14.3284C20.8374 16.9339 23.9574 19.4612 26.2051 22.0612C26.5909 22.1339 23.0181 16.2127 21.637 13.3946L22.5708 13.3331C22.5942 13.3335 22.6173 13.3268 22.6369 13.3139C22.6565 13.301 22.6718 13.2826 22.6808 13.2609C22.6899 13.2392 22.6922 13.2154 22.6875 13.1923C22.6829 13.1693 22.6714 13.1483 22.6546 13.1319C20.6017 10.419 18.2139 7.97674 15.5481 5.86313C15.481 5.72335 15.2741 5.86313 15.3412 5.98055C16.7222 8.7818 18.7798 11.3147 20.1497 14.0321ZM22.3471 13.1095L21.4525 13.1598C21.4309 13.1599 21.4097 13.1656 21.3911 13.1764C21.3724 13.1872 21.3569 13.2027 21.3462 13.2214C21.3354 13.2401 21.3298 13.2613 21.3298 13.2829C21.3298 13.3045 21.3355 13.3256 21.3463 13.3443C22.4645 15.6703 25.3832 20.7472 25.5677 21.0436C23.963 19.3662 19.9149 14.977 19.4172 14.4626L20.3398 14.2222C20.3569 14.2168 20.3726 14.2078 20.3858 14.1957C20.399 14.1837 20.4095 14.1689 20.4164 14.1524C20.4233 14.1359 20.4266 14.1181 20.4259 14.1002C20.4252 14.0823 20.4206 14.0648 20.4125 14.0488C19.2942 11.8123 15.9786 6.70183 15.7326 6.22098C18.3493 8.08289 21.8998 12.5615 22.3471 13.1095ZM21.1338 28.3291C21.161 28.3344 21.1893 28.3312 21.2146 28.3198C21.24 28.3085 21.2612 28.2895 21.2753 28.2656C21.2894 28.2416 21.2957 28.2139 21.2934 28.1862C21.2911 28.1585 21.2803 28.1323 21.2624 28.111C20.5109 27.1312 19.635 26.2534 18.6568 25.4998C20.4796 25.2315 22.3359 25.2426 24.1587 24.9407C24.2817 24.9407 24.2593 24.745 24.1587 24.7115L12.8251 21.0324C12.7976 21.0205 12.7666 21.02 12.7388 21.0311C12.7111 21.0421 12.6888 21.0637 12.6769 21.0911C12.665 21.1185 12.6646 21.1496 12.6756 21.1773C12.6866 21.2051 12.7082 21.2274 12.7356 21.2393C13.8333 21.9055 14.8137 22.748 15.6375 23.733C11.7348 23.364 3.67209 23.0564 3.60499 23.0564C3.44844 23.0005 3.38134 23.2465 3.5379 23.3025C7.98859 24.9239 19.8534 27.9936 21.1338 28.3291ZM4.13617 23.2298C8.05009 23.3528 11.5614 23.7554 15.8779 23.9678C15.9842 23.9678 16.0065 23.8504 15.9506 23.7833C15.2596 22.9121 14.446 22.1456 13.5352 21.5076L23.5996 24.7786C21.8327 25.019 20.0379 25.0134 18.2766 25.3042C18.1648 25.3042 18.1592 25.4831 18.2431 25.5334C19.2144 26.207 20.0714 27.0319 20.7815 27.9768C15.2405 26.5231 9.59889 25.1811 4.13617 23.2298ZM23.7058 35.1561C21.3742 36.3135 15.2405 38.9246 14.5528 39.1874C14.525 39.1961 14.5011 39.2143 14.4855 39.239C14.4699 39.2636 14.4635 39.293 14.4675 39.3219C14.4715 39.3507 14.4857 39.3773 14.5075 39.3967C14.5292 39.4161 14.5572 39.4271 14.5863 39.4278H17.2925C14.8659 41.6644 13.1382 43.3418 10.2698 45.0191C10.1916 45.0639 10.4991 45.2148 10.583 45.1757C14.6826 43.1964 18.6496 40.9533 22.4589 38.4605C22.6378 37.9853 20.7815 38.3487 20.4572 38.2481L23.812 35.3462C23.9574 35.2511 23.8176 35.1001 23.7058 35.1561ZM20.077 38.2816C20.0603 38.298 20.0488 38.3191 20.0441 38.3421C20.0394 38.3651 20.0418 38.389 20.0508 38.4107C20.0598 38.4323 20.0751 38.4508 20.0948 38.4637C20.1144 38.4765 20.1374 38.4832 20.1609 38.4829H22.0228C18.6428 40.6807 15.1325 42.6711 11.5111 44.4432C13.7551 43.0177 15.82 41.3283 17.6616 39.4111C17.6763 39.3948 17.6861 39.3747 17.69 39.3531C17.6938 39.3315 17.6915 39.3092 17.6834 39.2888C17.6752 39.2685 17.6615 39.2508 17.6438 39.2378C17.6262 39.2248 17.6052 39.217 17.5833 39.2154H15.2126C17.4491 38.3375 22.5931 35.9892 22.9845 35.7991L20.077 38.2816Z" fill="black"/>
</svg>
