<svg width="112" height="113" viewBox="0 0 112 113" fill="none" xmlns="http://www.w3.org/2000/svg">
<path d="M37.4171 64.3549C37.5792 64.696 37.7805 65.1265 38.1775 65.1825C39.0498 65.1825 40.319 64.5115 39.95 63.5722C39.7538 63.0735 39.5298 62.5863 39.279 62.1128C39.1392 61.6208 38.9379 61.1567 38.4403 61.0952C37.9803 61.1256 37.5409 61.2975 37.1823 61.5872C36.1367 62.1128 36.7182 62.8565 37.4171 64.3549ZM36.8076 62.2191C36.9418 61.7997 37.7805 61.4363 38.362 61.4027C38.7366 61.453 38.8597 62.0066 39.0554 62.3477C39.3461 62.8397 40.073 63.6952 39.7151 64.2431C39.5447 64.4761 39.3204 64.6645 39.0614 64.792C38.8025 64.9196 38.5164 64.9825 38.2278 64.9756C37.8644 64.8694 37.7302 64.4165 37.5401 63.9691C37.35 63.5218 36.6287 62.795 36.8076 62.2191ZM42.8127 61.2518C42.4437 60.3012 41.9572 59.0767 41.0794 59.6415C40.5203 59.8931 40.0059 60.0664 39.8325 60.469C39.7788 60.6594 39.7705 60.8598 39.8084 61.0541C39.8463 61.2483 39.9292 61.4309 40.0506 61.5872C40.3973 62.2358 40.7607 64.1425 41.9964 63.4883C43.1258 62.9627 43.6123 62.7782 42.8127 61.2518ZM41.1353 63.1304C40.8798 62.7484 40.659 62.3442 40.4755 61.9227C40.073 61.1176 39.3573 60.4969 40.6936 60.1167C41.851 59.5017 41.8119 59.949 42.4381 61.235C42.6338 61.6487 42.9078 61.8277 42.9972 62.4371C43.0476 62.8006 42.6953 62.9963 42.3039 63.1025C42.3095 62.9236 41.6162 63.7175 41.1521 63.1304H41.1353ZM45.7985 58.8699C45.4351 58.115 45.3009 58.0088 44.9598 57.9249C44.5797 57.9307 44.2106 58.0537 43.903 58.2772C42.7848 58.8922 43.1258 59.2501 43.5564 60.2901C44.4286 62.3924 44.7473 62.3365 46.1284 61.4083C46.228 61.3612 46.3171 61.2946 46.3905 61.2124C46.4639 61.1302 46.52 61.0341 46.5554 60.9298C46.5909 60.8254 46.605 60.715 46.597 60.6051C46.5889 60.4953 46.5589 60.3881 46.5086 60.2901C46.3116 59.7978 46.0741 59.3228 45.7985 58.8699ZM45.7314 61.3524C44.3447 61.973 44.7026 61.8668 43.7409 60.1782C43.5508 59.8036 43.2488 59.58 43.3103 59.004C43.383 58.7133 43.7968 58.5176 44.0484 58.4449C45.3344 57.8858 45.1667 58.2772 45.9998 59.7477C46.249 60.0465 46.3977 60.4163 46.4247 60.8045C46.3464 61.2462 45.5636 61.3524 45.7314 61.3524ZM50.5958 54.9392C49.9193 55.4032 50.2995 56.1581 50.73 56.857C51.1773 57.8858 51.5352 58.9258 52.5528 58.2772C53.5536 57.774 54.0009 57.718 53.5592 56.6725C53.3744 56.1853 53.15 55.714 52.8883 55.2635C52.318 54.0054 51.7812 54.2794 50.5958 54.9392ZM51.2053 54.9056C51.5687 54.7099 51.9489 54.5198 52.2509 54.7323C52.5448 55.0487 52.7561 55.4328 52.8659 55.8505C53.1678 56.5159 54.1296 57.5279 53.0728 57.8466C52.1279 58.3443 51.6302 58.4952 51.2444 57.4497C51.032 56.9968 50.3778 55.9736 50.4169 55.4312C50.6126 55.146 50.7748 55.1349 51.2053 54.9056ZM53.8668 54.285C54.5377 55.7108 54.862 57.3155 56.025 56.5774C56.7575 56.2084 57.5458 55.8729 57.1433 55.0957C56.9357 54.5948 56.7005 54.1057 56.4388 53.6308C56.0753 52.876 55.9355 52.7641 55.5945 52.6859C55.2143 52.6916 54.8453 52.8146 54.5377 53.0381L54.2749 53.1779C54.1738 53.2218 54.0826 53.2858 54.0069 53.366C53.9311 53.4461 53.8724 53.5408 53.8343 53.6442C53.7962 53.7477 53.7794 53.8578 53.7849 53.9679C53.7905 54.078 53.8184 54.1859 53.8668 54.285ZM55.7678 52.9878C56.0594 53.3051 56.2687 53.6891 56.3773 54.1061C56.8358 54.8832 57.4452 55.7834 56.5897 56.0966C55.2143 56.8067 55.2422 56.6221 54.6607 55.3865C54.0513 54.3521 53.481 53.7091 54.5545 53.2562C54.5545 53.3512 55.354 52.725 55.7678 52.9878ZM47.6324 58.8083C47.1292 57.9808 47.3305 57.8858 46.6036 56.9297C46.8385 57.9697 46.995 57.8466 47.3976 58.7692C47.6094 59.3502 47.893 59.9025 48.2419 60.4131C48.3202 60.3292 48.4096 60.3348 48.1189 59.7533C47.9781 59.4278 47.8156 59.1121 47.6324 58.8083ZM49.1477 57.103C48.968 56.681 48.7431 56.2798 48.4767 55.9065C48.5573 56.3643 48.7283 56.8015 48.9799 57.1925C49.4272 57.9808 49.5894 58.7636 50.1262 59.429C50.4057 59.1718 49.6118 58.2269 49.1477 57.103ZM15.2419 74.8778C14.6045 73.6869 14.7611 73.5974 14.1684 73.0103C14.2468 73.4234 14.4064 73.8168 14.6381 74.1677C15.0854 74.9505 15.2531 75.7389 15.7843 76.4042C15.952 76.2533 15.2755 74.9393 15.2419 74.8778ZM17.4952 75.5432C17.6518 75.3922 17.5455 75.3587 17.4393 75.0903C17.2213 74.6048 16.9787 74.1308 16.7124 73.6701C16.4934 73.1088 16.2081 72.5757 15.8626 72.0821C16.1142 73.1725 16.2651 73.0159 16.6621 73.9385C16.8692 74.5072 17.1492 75.0466 17.4952 75.5432ZM20.4866 71.9256C20.3516 71.4506 20.1193 71.0088 19.8044 70.6284C19.4074 70.2985 19.0161 70.4998 18.6358 70.6843C17.7189 71.1316 17.607 71.2435 17.5679 71.5845C17.5802 71.9989 17.7123 72.4009 17.9481 72.7419C18.7477 74.2572 18.5743 74.9785 20.1846 74.1901C20.3897 74.1514 20.579 74.0535 20.7291 73.9084C20.8791 73.7633 20.9834 73.5774 21.0289 73.3737C20.9437 72.8604 20.7595 72.3686 20.4866 71.9256ZM20.8053 73.6365C20.4083 74.0727 20.1287 74.0335 19.687 74.2684C19.2453 74.5032 19.0272 74.1733 18.7812 73.8155C18.0208 72.2834 17.5455 71.9088 17.9313 71.4336C17.9963 71.3561 18.0764 71.2928 18.1669 71.2476C18.2573 71.2024 18.356 71.1762 18.4569 71.1708C19.2565 70.757 19.5752 70.6116 19.9778 71.3329C20.576 72.7084 21.0066 73.0439 20.8053 73.6365ZM23.7799 70.6452C23.5394 69.6835 22.9132 68.4981 22.1025 69.0349C21.5433 69.2865 21.0289 69.4598 20.8556 69.8624C20.8011 70.0524 20.7919 70.2526 20.8288 70.4468C20.8657 70.641 20.9476 70.8239 21.0681 70.9807C21.4203 71.6348 21.7838 73.5359 23.0139 72.8873C24.0818 72.4176 24.1321 72.3282 24.1992 72.0654C24.2319 71.8125 24.2115 71.5556 24.1392 71.3111C24.067 71.0665 23.9446 70.8398 23.7799 70.6452ZM23.2711 72.5183C22.3373 73.0047 22.2087 72.6692 22.1528 72.5686C21.9843 72.3622 21.8503 72.13 21.7558 71.8809C21.2694 70.6675 20.235 69.9239 21.7167 69.4934C23.0194 68.8 22.8349 69.4934 23.6569 70.9527C23.8424 71.2121 23.9597 71.514 23.9979 71.8305C24.0427 72.1325 23.819 72.2387 23.2711 72.5183ZM24.5403 67.7545C24.3453 67.8563 24.1967 68.0289 24.125 68.2369C24.0532 68.4448 24.0638 68.6723 24.1545 68.8727C24.7975 70.1587 25.1106 71.9368 26.3407 71.154C27.2521 70.6843 27.5093 70.5949 27.5093 70.2594C27.6155 69.7002 26.6258 67.9837 26.6538 68.0229C26.1114 66.8599 25.6082 67.2121 24.5403 67.7545ZM25.3342 67.6762C26.2121 67.2233 26.3407 68.0396 26.9557 69.1467C27.2968 69.7058 27.6546 70.265 27.0396 70.5893C26.8462 70.6981 26.6464 70.7952 26.4413 70.88C25.2895 71.3721 25.6026 70.8409 24.7639 69.5605C24.585 69.197 24.2775 68.9622 24.339 68.3863C24.4117 68.062 24.6912 68.0117 25.3342 67.6762ZM31.8985 66.8039C32.2787 67.5867 32.4129 67.7656 32.7428 67.8104C33.5982 67.8104 34.0288 67.2009 34.0288 67.3743C34.6829 66.9046 34.9122 66.8151 33.8219 64.7463C33.4808 64.0027 33.3522 63.8349 32.9832 63.7399C32.5232 63.7751 32.0847 63.9486 31.7251 64.2375C30.5286 64.8246 31.5127 65.7863 31.8985 66.8039ZM32.8769 64.0083C33.246 64.0642 33.3746 64.6121 33.5703 64.9644C33.766 65.3167 34.0511 65.8031 34.2971 66.2951C34.4928 66.6697 34.2692 67.1003 34.1126 67.1282C32.575 67.9446 32.5415 67.6874 32.0718 66.6082C32.0047 66.4573 31.9488 66.4573 31.4176 65.3837C30.9423 64.5003 32.1892 64.0586 32.8769 64.0083ZM27.9566 67.5588C28.169 67.9278 28.7953 69.2362 29.1643 69.8288C29.4327 69.5605 28.7114 68.6435 28.2809 67.6818C28.09 67.2126 27.8174 66.7809 27.4757 66.407C27.5545 66.8201 27.7183 67.2123 27.9566 67.5588ZM30.0198 66.8039C30.2056 67.115 30.3664 67.4403 30.5006 67.7768C30.674 68.1179 30.9591 68.6099 31.0933 68.8168C31.3617 68.554 30.6348 67.6091 30.2099 66.6698C30.014 66.1909 29.7358 65.75 29.388 65.367C29.5055 65.8817 29.7199 66.3694 30.0198 66.8039ZM35.5496 64.1201C35.394 63.646 35.132 63.2137 34.7836 62.8565C34.9737 63.7511 35.1973 63.7902 35.5608 64.6289C35.6167 64.7631 36.2709 66.407 36.4498 66.2224C36.6287 66.0379 35.5216 64.0642 35.5496 64.1201ZM34.1685 58.2604C34.5543 58.8978 34.9905 59.8372 34.9625 59.7757C35.0074 59.8771 35.0739 59.9675 35.1575 60.0405C35.241 60.1135 35.3395 60.1674 35.4461 60.1983C35.5527 60.2292 35.6647 60.2364 35.7743 60.2194C35.884 60.2024 35.9886 60.1617 36.0808 60.1C36.7182 59.6918 37.8979 59.7253 37.0481 58.1486C36.8378 57.6087 36.5873 57.0854 36.2988 56.583C35.7844 55.7331 34.8451 56.4544 34.6214 56.5215C34.385 56.622 34.1732 56.7727 34.0008 56.9632C33.6821 57.5783 34.107 58.0144 34.1685 58.2604ZM35.0631 56.583C36.1087 56.1804 35.9522 56.7563 36.8468 58.2604C37.6296 59.5632 36.8468 59.3787 36.8468 59.6415C36.7685 59.5632 36.8468 59.6415 36.7014 59.6415C35.0855 60.3236 35.3595 59.9769 34.3419 58.1933C34.0679 57.6342 33.9505 57.3714 34.1294 57.075C34.3997 56.8429 34.7189 56.6748 35.0631 56.583ZM37.5848 56.4935C37.7981 57.0539 38.0407 57.6026 38.3117 58.1374C38.3562 58.2394 38.4231 58.33 38.5075 58.4025C38.592 58.4749 38.6917 58.5274 38.7992 58.5559C38.9067 58.5844 39.0193 58.5882 39.1286 58.567C39.2378 58.5459 39.3408 58.5003 39.43 58.4337C39.8493 58.1989 40.3917 58.1038 40.6545 57.6845C40.7307 57.5015 40.7569 57.3014 40.7304 57.1049C40.7039 56.9084 40.6256 56.7225 40.5035 56.5662C40.1513 55.8897 40.0953 55.5822 39.7543 54.9503C39.1951 53.9607 38.0098 54.9839 38.0769 54.9168C37.8019 54.9966 37.5567 55.1562 37.3724 55.3753C37.2326 55.6548 37.2997 55.9232 37.5848 56.4935ZM38.144 55.0398C38.8429 54.777 39.1001 54.5869 39.5138 55.3194C40.2966 57.0806 41.3702 57.7404 39.4132 58.2324C38.6416 58.5176 38.5745 58.1262 38.0881 57.2204C37.1152 55.3921 37.4618 55.4871 38.1607 55.0622L38.144 55.0398ZM44.6523 53.1276C45.4239 54.6708 45.4462 54.8777 45.8488 55.0622C46.4368 55.056 47.0027 54.8376 47.4423 54.4471C47.6025 54.2647 47.6989 54.0351 47.7171 53.793C47.7352 53.5509 47.6741 53.3095 47.543 53.1052C47.3976 53.0213 47.4535 52.7641 46.7434 51.4278C46.2737 50.5891 45.066 51.1371 44.4398 51.8528C44.2161 52.2665 44.5013 52.6132 44.6523 53.1276ZM44.6523 51.8528C44.82 51.6123 45.7705 51.2936 45.7202 51.3272C46.5254 51.0252 46.6204 52.0037 47.2243 52.9151C47.4203 53.1785 47.5262 53.4981 47.5262 53.8265C47.4703 54.3241 47.0342 54.4807 46.5198 54.654C45.8097 55.0733 45.4798 54.2291 45.1834 53.6755C44.8871 53.122 44.2497 52.2665 44.6411 51.8528H44.6523ZM41.7616 55.9176C41.9231 56.3207 42.1436 56.6976 42.4157 57.0359C42.6729 56.7787 41.9517 55.845 41.5267 54.9C41.3283 54.4195 41.0484 53.9768 40.6992 53.5917C41.0626 54.8944 41.4037 54.9951 41.7616 55.9176ZM43.6123 54.8832C43.7947 55.292 44.0078 55.6864 44.2497 56.063C44.5181 55.7946 43.8024 54.8777 43.3663 53.9159C43.1703 53.4354 42.8921 52.9927 42.5443 52.6076C42.9525 54.039 43.3103 54.0054 43.6123 54.8832ZM48.5662 51.4334C48.887 52.1234 49.2454 52.7954 49.6397 53.4463C49.9081 53.1723 49.198 52.2889 48.7507 51.2992C48.564 50.8161 48.2912 50.371 47.9455 49.9852C48.0583 50.5031 48.2689 50.9946 48.5662 51.4334ZM51.127 51.1482C51.3178 51.5539 51.5325 51.9478 51.77 52.328C52.0328 52.0708 51.3227 51.1091 50.8978 50.1754C50.6973 49.7107 50.4193 49.2834 50.0758 48.9117C50.5008 50.4102 50.8251 50.2592 51.127 51.1482ZM53.2014 50.1865C53.391 50.5946 53.6058 50.9904 53.8444 51.3719C54.1128 51.1035 53.3971 50.1921 52.961 49.2248C52.765 48.7443 52.4868 48.3016 52.139 47.9165C52.5584 49.3367 52.9106 49.3255 53.2014 50.1865ZM14.666 70.6787C14.8104 70.6309 14.9371 70.5409 15.0298 70.4203C15.1225 70.2997 15.1769 70.154 15.186 70.0022C14.9784 69.0249 14.5521 68.1073 13.9391 67.3183C13.7711 67.1931 13.5672 67.1254 13.3576 67.1254C13.1481 67.1254 12.9441 67.1931 12.7761 67.3183C11.6579 67.8271 11.7362 68.0955 11.7082 68.2074C11.6355 68.7665 12.5357 70.6004 12.8265 70.9527C13.2402 71.4056 13.8944 71.0757 14.666 70.6787ZM13.2179 70.7738C12.9271 70.5445 12.7258 69.9854 12.1946 69.0572C11.9878 68.705 11.7977 68.3416 12.0157 68.0173C12.2953 67.5867 13.6596 67.0388 14.0342 67.9278C14.6604 69.4151 15.2587 69.7953 14.9008 70.3265C14.543 70.8576 13.531 71.0142 13.2179 70.7738ZM15.1972 67.7153C16.0527 69.1858 15.9856 70.1979 17.4673 69.2809C17.7189 69.1747 18.127 69.0237 18.2445 68.7218C18.3123 68.5306 18.3325 68.3258 18.3032 68.1251C18.274 67.9244 18.1963 67.7338 18.0767 67.57C17.5176 66.4517 17.2324 64.724 15.734 65.8926C14.8337 66.5244 14.7275 66.3063 15.1972 67.7153ZM16.0415 65.9876L16.2484 65.9093C16.6845 65.7416 16.9025 65.9093 17.143 66.3678C18.0152 68.28 18.9881 68.6882 17.0591 69.2418C16.2875 69.5325 16.2148 69.1355 15.7284 68.2297C15.035 66.9493 14.5374 66.4293 16.0415 65.9876ZM19.2844 67.5308C19.3451 67.6614 19.44 67.773 19.5592 67.8538C19.6784 67.9345 19.8172 67.9814 19.961 67.9893C20.2517 67.9893 20.3636 67.8775 21.0793 67.4917C21.6887 67.4917 21.8956 66.6362 21.4315 66.0603C20.8332 64.942 20.6152 63.2646 19.0887 64.3829C18.8539 64.5562 18.0543 64.7967 18.3395 65.5012C18.6051 66.1996 18.9209 66.8779 19.2844 67.5308ZM19.3963 64.3326L19.6031 64.2543C20.0393 64.0922 20.2573 64.2878 20.4978 64.7128C21.3197 66.5132 21.9906 66.7928 21.1408 67.3183H21.0345C19.5025 67.9278 19.81 67.8775 18.7309 65.8758C18.3004 65.0874 18.1774 64.7072 19.3963 64.3326ZM22.2702 64.3661C22.4578 64.6751 22.6204 64.9986 22.7566 65.3334C22.9356 65.6913 23.204 66.1553 23.3493 66.379C23.6121 66.1106 22.8908 65.1825 22.4603 64.2319C22.2631 63.7521 21.9851 63.3095 21.6384 62.9236C21.7583 63.4393 21.9725 63.9283 22.2702 64.3661ZM24.6018 64.2767C24.7909 64.686 25.0076 65.082 25.2504 65.462C25.5188 65.1936 24.7975 64.2711 24.367 63.315C24.1713 62.8347 23.891 62.3934 23.5394 62.0122C23.9476 63.5051 24.2831 63.3541 24.6018 64.2767ZM36.1926 68.1682C35.3595 68.7274 35.7844 69.1803 36.1423 70.0413C36.9083 71.892 37.076 72.194 38.759 71.1596C38.8545 71.1081 38.9382 71.037 39.0043 70.951C39.0705 70.865 39.1179 70.766 39.1432 70.6604C39.1685 70.5549 39.1713 70.4452 39.1513 70.3385C39.1314 70.2318 39.0892 70.1306 39.0274 70.0413C38.8425 69.5541 38.6181 69.0829 38.3564 68.6323C37.7414 67.3631 37.4618 67.542 36.1926 68.1682ZM36.9027 68.0899C37.7749 67.6091 37.8812 68.4813 38.5242 69.5549C39.1672 70.6284 39.0162 70.8576 38.2558 71.1819C36.7853 71.8138 37.2773 71.4224 36.31 69.9742C36.1311 69.6108 35.8236 69.3648 35.9018 68.7833C36.0081 68.4813 36.2429 68.3919 36.9027 68.0899ZM41.4988 66.9046C41.3534 66.5747 41.1856 66.2057 40.7551 66.0938C40.3502 66.0851 39.9548 66.2176 39.6368 66.4685C38.9659 66.9046 38.7702 67.0891 38.9603 67.5867C39.279 68.3919 39.7487 69.2977 39.7207 69.2641C39.9164 69.6835 40.1848 70.2091 40.6433 70.1476C41.0566 70.0384 41.4494 69.8628 41.8063 69.6276C41.9072 69.5922 41.9996 69.5362 42.0775 69.463C42.1555 69.3898 42.2172 69.3011 42.2588 69.2027C42.3004 69.1042 42.321 68.9981 42.3191 68.8912C42.3172 68.7843 42.293 68.679 42.248 68.582C42.0324 68.0082 41.7822 67.4481 41.4988 66.9046ZM41.879 69.4598C40.8054 70.0189 40.4085 70.3153 39.9611 69.2026C39.676 68.4813 38.513 67.173 39.5083 66.7536C39.8541 66.5045 40.2628 66.3573 40.688 66.3287C41.057 66.3846 41.1801 66.9214 41.3757 67.2736C42.0467 68.4534 42.5276 69.0405 41.8734 69.4598H41.879ZM52.3962 62.7838C51.3507 60.0664 50.7915 61.0505 50.0143 61.2853C49.7779 61.3858 49.5661 61.5365 49.3937 61.727C49.2996 61.9029 49.2591 62.1025 49.2769 62.3012C49.2948 62.4999 49.3704 62.689 49.4943 62.8453C50.4616 64.7743 50.4281 65.5403 52.195 64.5842C53.0001 64.327 52.8939 63.4491 52.3962 62.7838ZM51.6861 64.6513L51.524 64.7016C51.0264 64.8805 50.7748 64.7967 50.5567 64.3605C49.6006 62.6831 49.3602 62.247 49.5838 61.9171C49.8386 61.67 50.1554 61.4961 50.5008 61.4139L50.7077 61.3356C51.1494 61.1511 51.3786 61.3804 51.6023 61.7829C52.3683 63.4492 53.4027 64.1313 51.6861 64.6513ZM20.1735 80.0498C20.1104 79.6143 19.956 79.197 19.7206 78.8253C19.0999 77.5784 19.0216 76.8292 17.7636 77.4386C16.6845 77.9586 16.2763 78.1823 17.0703 79.4906C17.4449 80.2063 17.6294 81.1401 18.2221 81.2687C18.8148 81.3973 20.1287 80.4971 20.1735 80.0498ZM17.8027 80.4188C17.0311 78.8924 16.7739 78.7414 16.8522 78.3221C16.9305 77.9027 18.4513 76.8683 19.0105 77.9363C19.5696 79.1719 19.9778 79.6472 20.0113 80.0162C20.0672 80.5754 18.5072 81.4476 17.8195 80.402L17.8027 80.4188ZM20.0672 77.5952C20.6823 78.6296 20.9674 80.061 21.9795 79.4459C22.6169 79.0378 23.791 79.0657 22.9356 77.489C22.7229 76.951 22.4706 76.4296 22.1807 75.929C21.6216 75.1294 20.7382 75.8395 20.5033 75.929C19.687 76.3875 19.5696 76.6167 20.0672 77.5952ZM20.9842 75.9178C22.0354 75.5152 21.8844 76.1135 22.7678 77.5952C23.0306 78.0369 23.2151 78.3388 23.0698 78.6352C22.9793 78.8022 22.8266 78.9267 22.6448 78.9818C21.1799 79.5969 21.275 79.3285 20.6487 78.2046C19.9386 76.9242 19.5081 76.3092 20.9842 75.929V75.9178ZM25.6082 74.3578C25.0491 73.3681 23.8637 74.3914 23.9588 74.3243C23.8139 74.3341 23.6742 74.3818 23.5536 74.4627C23.4331 74.5435 23.3359 74.6547 23.2719 74.785C23.2079 74.9153 23.1792 75.0602 23.1889 75.205C23.1986 75.3499 23.2462 75.4896 23.327 75.6103C23.5366 76.2752 23.8198 76.9148 24.1713 77.5169C24.2176 77.6171 24.2849 77.7061 24.3687 77.778C24.4524 77.8499 24.5505 77.903 24.6565 77.9338C24.7625 77.9645 24.8739 77.9721 24.9831 77.9562C25.0923 77.9402 25.1968 77.901 25.2895 77.8412C25.5467 77.6679 26.3686 77.3436 26.4078 77.2821C26.5487 77.0945 26.622 76.8649 26.6159 76.6304C26.6098 76.396 26.5247 76.1704 26.3742 75.9905C26.0835 75.5096 25.9605 75.012 25.6082 74.3578ZM26.3519 77.0472C26.1324 77.2656 25.87 77.4359 25.5812 77.5476C25.2925 77.6592 24.9837 77.7097 24.6745 77.6958C24.3893 77.5784 24.2104 77.1032 23.5842 75.9513C23.3437 75.504 23.2207 75.2972 23.3102 74.9058C23.3102 74.7101 23.8693 74.4585 23.9588 74.4585C25.3007 73.972 24.9093 74.2124 25.9996 76.0352C26.24 76.4042 26.542 76.6894 26.3519 77.0472ZM32.6589 74.2013C33.369 73.8658 34.012 73.4688 33.6094 72.7699C33.4107 72.2723 33.1791 71.7885 32.9161 71.3217C32.5526 70.5725 32.4185 70.4607 32.0774 70.3768C31.6967 70.3845 31.3277 70.5095 31.0206 70.7346C29.9024 71.3385 30.3273 71.9256 30.3664 71.9927C31.2387 73.7428 31.3114 75.0176 32.6589 74.2013ZM30.7522 72.3953C30.6481 72.2693 30.5701 72.1238 30.5231 71.9673C30.476 71.8107 30.4608 71.6464 30.4783 71.4839C30.5621 71.1819 30.9032 71.0422 31.2163 70.9247C32.4632 70.3992 32.2563 70.7906 33.1118 72.2778C33.7716 73.3961 33.615 73.5806 32.8434 73.9105C31.4567 74.5256 31.8705 74.2739 30.7522 72.3953ZM27.5484 75.0623C27.742 75.4945 27.9682 75.9113 28.225 76.3092C28.32 76.2197 28.4039 76.2253 28.1131 75.6438C27.9695 75.3248 27.8032 75.0165 27.6155 74.7213C27.1738 73.9441 27.3024 73.754 26.4972 72.8146C27.0116 74.2684 27.2017 74.1062 27.5484 75.0623ZM28.3368 71.8361C29.8409 74.7268 29.7067 74.8387 30.2155 75.4202C30.4727 75.163 29.7514 74.2292 29.3265 73.2843C29.1083 72.734 28.7702 72.2393 28.3368 71.8361ZM33.861 69.3536C34.0623 70.2929 34.2692 70.2873 34.6438 71.154C34.85 71.7364 35.132 72.2891 35.4825 72.7978C35.5664 72.7196 35.6558 72.7196 35.3651 72.1437C35.2267 71.8231 35.0622 71.5145 34.873 71.2211C34.5376 70.5445 34.5376 70.1084 33.861 69.3536ZM41.5044 72.3338C41.621 72.7602 41.792 73.1698 42.0132 73.5527C42.371 74.2516 42.5723 74.8163 43.0196 74.8834C43.6551 74.7803 44.257 74.5273 44.7753 74.1453C44.5572 73.9273 44.0316 74.643 43.0308 74.7045C42.6618 74.5982 42.5276 74.1453 42.3431 73.698C42.1585 73.2507 41.0123 71.9256 42.0132 71.523C42.3509 71.2635 42.7616 71.1168 43.1873 71.1037C43.5564 71.1596 43.6794 71.6628 43.8807 72.0486C44.6355 73.3905 44.8256 73.6253 44.6131 74L44.7305 74.0727C44.8067 73.9584 44.8527 73.8267 44.8645 73.6899C44.8762 73.553 44.8532 73.4155 44.7976 73.2899C44.5181 72.5854 44.0093 71.5622 44.0372 71.6125C43.8863 71.2826 43.7241 70.9136 43.2936 70.8073C42.9421 70.8031 42.5994 70.9174 42.3207 71.1316C41.7224 71.4056 41.2807 71.7355 41.5044 72.3338ZM46.8161 73.1501L47.5542 72.7755C47.6526 72.7061 47.7361 72.6176 47.7995 72.5153C47.863 72.4129 47.9051 72.2988 47.9234 72.1797C47.9417 72.0607 47.9357 71.9392 47.9059 71.8225C47.8761 71.7058 47.823 71.5963 47.7499 71.5007C47.5775 71.0526 47.3739 70.6173 47.1404 70.1979C46.8608 69.5884 46.7266 69.3648 46.3073 69.3033C45.9261 69.308 45.5562 69.4333 45.2505 69.6611L44.9822 69.8065C44.78 69.9017 44.6214 70.0701 44.5384 70.2776C44.4554 70.4851 44.4541 70.7163 44.5348 70.9247C45.0101 71.6237 45.5748 74 46.8161 73.1501ZM45.5077 69.7953C46.1899 69.5101 46.5309 69.3815 46.7881 69.8344C48.0742 72.071 48.2363 72.2778 47.1907 72.7251C45.8712 73.2843 46.1843 73.1389 45.2394 71.4727C44.9405 71.1766 44.7698 70.7751 44.7641 70.3544C44.8535 70.0805 45.1834 69.9407 45.5077 69.8065V69.7953ZM20.0672 84.6402C19.5081 83.6506 19.6311 83.4046 18.9937 82.7672C19.0711 83.1805 19.2308 83.5741 19.4634 83.9246C19.9274 84.7297 20.0728 85.4845 20.6152 86.1611L20.6599 86.1108C20.5221 85.5986 20.3231 85.1048 20.0672 84.6402ZM22.3653 85.3951C22.3653 84.7968 21.7614 83.9637 21.5042 83.4325C21.2939 82.8719 21.02 82.3372 20.6879 81.839C20.9395 82.9573 21.0848 82.7728 21.4874 83.7009C21.693 84.3066 21.9889 84.8778 22.3653 85.3951ZM25.72 83.4213C25.7955 83.2378 25.8208 83.0375 25.7933 82.841C25.7658 82.6445 25.6865 82.4588 25.5635 82.3031C25.1833 81.5762 25.1721 81.3526 24.8087 80.6816C24.2495 79.6919 23.0362 80.7431 23.1313 80.6816C22.8568 80.7596 22.6116 80.9172 22.4268 81.1345C22.2031 81.4756 22.4268 81.8558 22.5833 82.1913C22.7939 82.7627 23.0347 83.3227 23.3046 83.8687C23.7295 84.7241 24.5179 84.0923 24.8478 83.9469C24.7248 84.0755 24.6857 84.0643 25.0994 83.8687C25.3481 83.7883 25.5652 83.6318 25.72 83.4213ZM25.5467 83.3654C25.4691 83.5054 25.3471 83.6155 25.2001 83.6785C24.4285 83.8519 23.9364 84.3383 23.5227 83.5555C22.2031 81.2463 22.3317 81.2687 23.2151 80.7095C24.5571 80.2063 24.1768 80.4747 25.256 82.2807C25.8039 83.1306 25.5411 83.2592 25.5579 83.3654H25.5467ZM26.5364 82.2863C26.5862 82.3833 26.6551 82.4691 26.7391 82.5387C26.8231 82.6082 26.9203 82.66 27.0248 82.6908C27.1294 82.7217 27.2391 82.731 27.3474 82.7181C27.4557 82.7053 27.5602 82.6706 27.6546 82.6162L28.169 82.3869C28.7841 82.2583 29.2482 81.7272 28.9015 81.1457C28.6237 80.4342 28.3083 79.7381 27.9566 79.0601C27.4813 78.1655 26.5364 78.8812 26.24 78.9651C26.0032 79.0675 25.7915 79.2201 25.6194 79.4124C25.5253 79.5883 25.4848 79.7879 25.5026 79.9865C25.5205 80.1852 25.5961 80.3743 25.72 80.5306C26.035 81.0949 26.3079 81.6818 26.5364 82.2863ZM25.8486 79.6081C26.1052 79.3591 26.4238 79.1834 26.7712 79.0993L26.9781 79.021C27.4142 78.8365 27.6435 79.0769 27.8671 79.4739C28.566 81.0115 28.9854 81.1513 28.7841 81.7495C28.6403 82.0106 28.4055 82.2097 28.1243 82.3087C26.8215 82.728 27.1626 82.5882 26.0779 80.7319C25.5355 79.8764 25.8486 79.664 25.8486 79.6081ZM32.0327 79.1048C31.4735 77.9866 31.2163 76.3092 29.6899 77.4274C29.4103 77.6343 29.1308 77.6791 28.9854 77.9307C28.7505 78.3053 28.9854 78.6184 29.1643 79.1999C29.8968 80.4971 29.88 81.0786 30.5733 81.1121C30.9088 81.1121 32.1836 80.6201 32.2507 79.9044C32.2732 79.7633 32.2654 79.619 32.2278 79.4811C32.1902 79.3433 32.1237 79.215 32.0327 79.1048ZM32.0886 80.1728C31.9991 80.3797 30.495 81.291 30.0477 80.3853C30.0198 80.3293 29.1643 78.7973 29.0413 78.4786C29.0006 78.3591 28.9947 78.2304 29.0244 78.1076C29.0541 77.9848 29.1181 77.873 29.209 77.7853C29.522 77.5976 29.8561 77.4474 30.2043 77.338C31.0038 77.0416 31.0654 77.9363 31.781 79.1608C32.0942 79.664 32.2507 79.8764 32.0886 80.1616V80.1728ZM38.4123 73.9385C38.3442 73.8217 38.2512 73.7213 38.1399 73.6444C38.0286 73.5676 37.9018 73.5161 37.7684 73.4937C37.6351 73.4713 37.4984 73.4785 37.3681 73.5148C37.2378 73.551 37.1171 73.6155 37.0145 73.7036C36.6644 73.8354 36.3448 74.0371 36.0752 74.2963C35.9826 74.4729 35.9433 74.6727 35.9622 74.8712C35.9811 75.0698 36.0572 75.2585 36.1814 75.4146C36.7853 76.572 36.9139 77.4945 37.7302 77.5505C37.9371 77.5505 37.993 77.4945 38.6807 77.1535C39.95 76.7006 39.4579 76.0799 38.4123 73.9385ZM38.608 77.0696C37.9315 77.3324 37.6855 77.8468 37.104 76.5999C36.7014 75.7445 35.7341 74.5703 36.6343 74.2628C36.9924 73.9954 37.4234 73.8433 37.87 73.8266C38.1943 73.8714 38.1384 74 39.2846 76.1079C39.4412 76.8124 38.8708 76.8683 38.608 77.0696ZM33.9672 79.5466C34.0232 79.4906 34.0567 79.4627 34.0511 79.4012C34.012 79.0545 33.1845 77.7797 32.9329 77.1031C32.7903 76.7262 32.5904 76.3735 32.3402 76.0576C32.4235 76.5033 32.5925 76.9287 32.8378 77.31C33.2124 77.9866 33.5814 79.1608 33.9672 79.5466ZM35.9186 78.596C36.0696 78.4451 35.9689 78.4059 35.8627 78.1375C35.6442 77.6532 35.3997 77.1809 35.1302 76.7229C34.9111 76.161 34.6278 75.6263 34.286 75.1294C34.5264 76.1974 34.7053 76.1079 35.0799 76.9634C35.2921 77.5396 35.5738 78.0879 35.9186 78.596ZM41.2248 75.9458C41.4037 75.7724 41.2248 75.5208 41.1633 75.4537C40.8725 74.7492 40.6936 74.5982 40.4308 74.0503C40.2012 73.4879 39.9185 72.9487 39.5865 72.44C39.8325 73.5583 39.9835 73.3793 40.3861 74.3019C40.5923 74.8843 40.8743 75.437 41.2248 75.9458ZM43.1762 78.3892C43.0084 78.0816 42.891 77.5225 42.3431 77.3827C41.7839 77.3827 40.6657 77.981 40.5538 78.4227C40.3973 78.9818 41.4764 81.3805 42.0803 81.4644C42.6394 81.4644 43.808 80.9053 43.8751 80.4076C43.9422 79.91 43.4054 78.8085 43.1762 78.3892ZM42.0243 81.2687C41.756 81.1792 41.6274 80.8382 41.3925 80.2846C41.3254 80.1281 40.5426 78.9762 40.6992 78.4507C40.811 78.076 41.7056 77.7238 42.2144 77.6902C42.494 77.735 42.6338 78.0593 42.7736 78.3444C43.0308 78.9874 43.78 79.8988 43.7017 80.3964C43.6123 80.9947 42.2983 81.3414 42.0243 81.2687ZM47.0174 78.3388C46.7378 77.6343 46.2346 76.6111 46.257 76.6614C46.207 76.4773 46.1133 76.3079 45.9838 76.1678C45.8543 76.0276 45.6929 75.9207 45.5133 75.8563C45.1629 75.8536 44.8218 75.9699 44.546 76.1862C44.2721 76.3539 43.8415 76.5217 43.7129 76.8739C43.6474 77.043 43.6474 77.2304 43.7129 77.3995C43.9429 77.9817 44.2042 78.5509 44.4957 79.1048C44.6523 79.4515 44.8535 79.8764 45.2505 79.938C45.7649 79.938 46.8832 79.4571 47.0621 78.898C47.0924 78.8065 47.104 78.7099 47.0963 78.6139C47.0887 78.5178 47.0618 78.4243 47.0174 78.3388ZM45.2897 79.7031C45.0045 79.6248 43.7968 77.5001 43.8807 76.969C43.9645 76.4378 44.9095 76.1359 45.4406 76.1023C45.7426 76.147 47.0453 78.4786 46.9279 78.898C46.8105 79.3173 45.7705 79.664 45.2897 79.7031ZM49.7012 75.2301C49.3657 74.4864 49.2371 74.3131 48.8681 74.2236C48.4081 74.254 47.9687 74.4259 47.6101 74.7157C47.1124 74.9673 46.9279 75.3251 47.0957 75.7724C47.3169 76.3538 47.5689 76.9231 47.8505 77.4778C48.0909 78.0089 48.2978 78.2606 48.5941 78.2997C49.0079 78.3556 50.3275 77.8188 50.4505 77.2373C50.4898 77.0687 50.4721 76.8917 50.4001 76.7341C49.7627 75.0567 49.5838 75.2301 49.7012 75.2301ZM48.6445 78.0872C48.2866 77.9866 48.1524 77.5281 47.9567 77.0808C47.8169 76.7509 47.0789 75.8619 47.2578 75.3027C47.3976 74.8722 48.2419 74.52 48.801 74.4864C49.1645 74.5423 49.2931 75.0455 49.4888 75.4313C49.9417 76.2197 50.3442 76.7956 50.3107 77.1814C50.2436 77.6902 49.0694 78.0649 48.6445 78.0872ZM50.4616 73.4129C50.6685 74.4025 51.2556 74.9449 51.3563 75.4873C51.0487 75.5991 50.5623 76.0464 50.7468 76.2029C51.0408 76.2965 51.3394 76.3748 51.6414 76.4378C51.8762 76.4713 51.893 76.4378 52.0887 76.8404C52.2173 76.7118 52.2229 76.6782 52.1502 76.5496C53.3915 76.5496 53.8723 76.0967 54.8285 75.135C54.9988 74.9807 55.1559 74.8124 55.2981 74.6318C55.7287 75.1294 58.0938 74.369 57.434 73.2787C57.894 73.0173 58.4053 72.8589 58.9325 72.8146C59.0172 72.9989 59.1304 73.1688 59.268 73.3178C59.3966 73.1892 59.3574 73.1165 59.1785 72.7587C59.9549 72.6525 60.741 72.6356 61.5213 72.7084C62.8688 73.0494 63.9815 72.0206 63.277 71.3273C61.7002 70.2091 58.2448 70.634 56.422 71.2546C56.2591 71.0562 56.0413 70.9103 55.7958 70.8353C55.445 70.8308 55.1034 70.9473 54.8285 71.1652L54.5489 71.3217C54.4525 71.3547 54.3644 71.4079 54.2904 71.4779C54.2165 71.5479 54.1584 71.633 54.1203 71.7274C54.0821 71.8218 54.0646 71.9233 54.0691 72.025C54.0736 72.1268 54.1 72.2263 54.1463 72.317C54.3923 72.6972 54.1966 72.591 54.0457 72.8761C52.6926 74.5032 53.8164 74.2683 52.3683 72.4791C52.5528 73.3514 52.7765 73.4241 53.0728 74.123C52.6917 74.6897 52.1534 75.1328 51.524 75.3978C50.9145 74.0727 51.0096 73.9608 50.4616 73.4129ZM57.1712 73.2451C57.2401 73.3443 57.2884 73.4562 57.3134 73.5743C57.3383 73.6924 57.3394 73.8143 57.3166 73.9329C56.877 74.3317 56.3197 74.577 55.7287 74.6318C55.6227 74.5804 55.5232 74.5166 55.4323 74.4417C55.9116 73.9061 56.5142 73.4954 57.188 73.2451H57.1712ZM56.053 71.0422C56.5506 71.4168 55.8461 71.0422 54.3756 72.3394C53.9059 71.4336 55.7734 70.8688 56.0641 71.0422H56.053ZM24.1433 87.7882C24.0203 87.5589 23.8749 86.9271 23.3102 86.7817C22.8501 86.8121 22.4108 86.984 22.0521 87.2738C21.2526 87.5533 21.4036 88.5039 21.89 89.1916C22.3261 90.198 22.6001 90.8075 23.0474 90.869C23.7966 90.869 25.0882 90.2372 24.7807 89.281C24.6242 88.7613 24.4105 88.2606 24.1433 87.7882ZM23.025 90.6901C22.6616 90.5894 22.5218 90.1309 22.3373 89.6836C22.2982 89.5942 21.985 89.0854 22.0186 89.1245C21.7167 88.4591 21.3197 87.7658 21.9906 87.4974C22.3362 87.2519 22.7421 87.105 23.1648 87.0725C23.4444 87.1172 23.5842 87.4415 23.7239 87.7267C24.1377 88.7499 24.9932 89.46 24.5179 90.075C24.1017 90.4248 23.5887 90.6394 23.0474 90.6901H23.025ZM27.9957 87.6037C26.9949 85.5852 26.9781 85.3671 26.4861 85.2553C26.1156 85.2449 25.7526 85.3612 25.4573 85.5852C24.9373 85.8759 24.4564 86.1835 24.7136 86.7034C25.0323 87.5086 25.502 88.42 25.474 88.3808C25.6641 88.789 25.9381 89.337 26.3966 89.2643C27.0955 89.1692 28.32 88.6101 27.9957 87.6037ZM26.1841 89.0015C25.9717 88.9232 25.8431 88.6884 25.6809 88.2914C25.3846 87.5421 24.5626 86.6475 24.9429 86.094C25.3483 85.7176 25.8678 85.4873 26.419 85.4398C26.7936 85.4957 26.9166 86.0437 27.1123 86.3847C27.308 86.7258 27.5987 87.2402 27.8448 87.7267C28.3144 88.6995 26.3742 89.0742 26.1841 89.0015ZM29.0357 83.8295C28.8009 83.9805 28.3536 84.042 28.0964 84.4222C28.0058 84.5994 27.9677 84.7987 27.9866 84.9968C28.0054 85.1949 28.0803 85.3835 28.2026 85.5405C28.8344 86.4966 29.0693 88.0901 30.126 87.5477C30.9479 87.1172 31.5015 87.0277 31.4008 86.1946C31.373 85.9442 31.2805 85.7053 31.1325 85.5013C30.7522 84.9813 30.4671 82.9237 29.0357 83.8295ZM30.1092 87.3241C29.4886 87.4527 29.2705 87.2178 28.7841 86.3121C28.225 85.2553 27.9063 84.8639 28.169 84.5452C28.552 84.1769 29.049 83.9502 29.5781 83.9022C30.1036 83.9022 30.0925 84.6179 30.8697 85.7082C31.7699 86.9774 30.1931 87.3129 30.1092 87.3241ZM37.3109 80.2902C37.2061 80.1787 37.0694 80.1025 36.9195 80.0721C36.4535 80.0834 36.004 80.2463 35.6391 80.5362C34.8395 80.8158 34.9849 81.7663 35.4713 82.4485C35.9074 83.4549 36.1814 84.0643 36.6343 84.1258C37.3041 84.0667 37.927 83.7572 38.3788 83.2592C38.4265 83.1459 38.451 83.0243 38.451 82.9013C38.451 82.7784 38.4265 82.6568 38.3788 82.5435C38.1192 81.7504 37.7604 80.9933 37.3109 80.2902ZM36.6567 83.9749C36.2876 83.8742 36.1535 83.4158 35.9689 82.9684C35.9298 82.879 35.2029 81.7551 35.2477 81.196C35.3874 80.7767 36.2206 80.4188 36.7965 80.3741C37.076 80.4188 37.2158 80.7431 37.3556 81.0283C37.4954 81.3134 37.7805 81.7719 38.2278 82.6609C38.2985 82.7967 38.3203 82.9527 38.2893 83.1026C38.144 83.6282 37.1208 83.9413 36.6567 83.9749ZM32.5023 84.6402C31.8705 83.4493 32.0215 83.3598 31.4288 82.7672C31.5053 83.1808 31.6651 83.5746 31.8985 83.9246C32.3681 84.7297 32.5079 85.4845 33.0503 86.1611C33.2236 86.0101 32.5359 84.6962 32.5023 84.6402ZM34.7053 84.2433C34.5287 83.8244 34.3289 83.4156 34.107 83.0188C33.9491 82.5444 33.6852 82.1123 33.3354 81.7551C33.5255 82.6497 33.7548 82.6889 34.1126 83.5276C35.2588 86.2338 35.0967 84.9422 34.7053 84.2433ZM39.7599 81.0171C39.128 79.8261 39.279 79.7367 38.6863 79.144C38.7679 79.5561 38.9273 79.949 39.156 80.3014C39.6145 81.1065 39.771 81.867 40.2743 82.5379C40.3973 82.4596 40.4755 82.359 39.7599 81.0171ZM46.503 85.9151C46.7622 85.8049 46.9812 85.6174 47.13 85.3783C47.2788 85.1392 47.3503 84.86 47.3348 84.5787C47.3192 84.2975 47.2174 84.0279 47.043 83.8066C46.8687 83.5854 46.6304 83.4232 46.3606 83.3423C46.0908 83.2614 45.8027 83.2656 45.5353 83.3543C45.268 83.4431 45.0346 83.6121 44.8668 83.8383C44.699 84.0646 44.605 84.337 44.5976 84.6186C44.5902 84.9002 44.6698 85.1772 44.8256 85.4119C45.0251 85.6509 45.2904 85.8261 45.5886 85.9156C45.8869 86.0051 46.2049 86.0049 46.503 85.9151ZM46.7434 85.5237C46.6125 85.6169 46.4637 85.6821 46.3063 85.7153C46.149 85.7484 45.9866 85.7487 45.8291 85.7161C45.6717 85.6836 45.5227 85.6189 45.3913 85.5262C45.26 85.4334 45.1493 85.3145 45.066 85.177C44.9404 84.9715 44.8782 84.7336 44.8871 84.4929C44.8961 84.2522 44.9758 84.0195 45.1163 83.8239C46.0389 82.5547 48.2028 84.4334 46.7434 85.5237ZM53.2964 88.2467C53.2014 88.1516 52.9666 87.9839 52.8324 88.0118C52.6379 88.0856 52.4507 88.1773 52.2732 88.2858C48.2475 90.198 47.0118 90.869 47.1348 90.8019C45.7593 91.5735 45.2394 91.5623 45.1723 91.9202C45.1723 92.1997 45.2338 92.1159 45.368 92.798C45.425 93.3406 45.5355 93.8762 45.6978 94.3971H45.8488C45.955 94.3636 54.8788 89.924 54.9403 89.8905C55.0018 89.8569 55.1248 89.8178 55.1528 89.7395C55.2087 89.555 54.4315 89.2195 53.2964 88.2467ZM45.7929 94.2517C45.6755 93.7317 45.5972 93.2006 45.5301 92.6638C45.5301 92.5967 45.4015 91.881 45.4295 91.8754C46.3353 91.5176 51.2277 88.9903 52.195 88.5206C52.3474 88.4654 52.4967 88.4019 52.6423 88.3305C52.9554 88.1628 53.1231 88.4032 53.3579 88.5877C54.2526 89.2922 54.5601 89.5271 54.9012 89.7451C45.7202 94.2573 48.3146 93.016 45.7929 94.2517ZM53.5369 22.1293C53.6655 22.1293 53.5928 22.1293 53.8332 22.079C53.524 22.0037 53.2451 21.8359 53.0336 21.5981V21.4807L52.9945 21.6149C52.9162 21.9 53.2629 22.1069 53.5369 22.1293ZM54.7949 22.6325C54.7382 22.6709 54.6948 22.7259 54.6707 22.79C54.6467 22.8541 54.6432 22.9242 54.6607 22.9904C54.7781 23.214 55.0689 22.94 54.9794 22.6549C55.0409 22.6512 55.1009 22.6349 55.1557 22.607C55.2105 22.5791 55.259 22.5402 55.2981 22.4927L55.3932 22.3418L55.2254 22.3977C55.1304 22.3977 54.5657 22.4648 54.5154 22.3977L54.5769 22.4983C54.6495 22.5878 54.7222 22.599 54.7949 22.6325Z" fill="black"/>
<path d="M53.1175 22.5486C53.2909 22.5486 53.453 22.1572 53.2629 22.0678C52.961 21.928 52.7653 22.5486 53.1175 22.5486ZM52.5864 24.2093C52.679 24.38 52.7143 24.576 52.687 24.7684C52.739 24.7322 52.7833 24.6859 52.8171 24.6324C52.851 24.5788 52.8738 24.519 52.8843 24.4565C52.8947 24.3939 52.8925 24.33 52.8778 24.2683C52.8631 24.2067 52.8363 24.1486 52.7988 24.0974C52.7107 23.9983 52.6005 23.9214 52.4772 23.8728C52.3538 23.8243 52.2207 23.8054 52.0887 23.8179C52.292 23.8921 52.4663 24.0292 52.5864 24.2093ZM16.6677 36.6108C16.9903 36.8042 17.3674 36.8867 17.7412 36.8456H18.3004C18.4006 36.8287 18.5035 36.8355 18.6006 36.8656C18.6977 36.8957 18.7864 36.9483 18.8595 37.019C18.647 37.114 18.4122 37.1867 18.4122 37.4719C18.9853 38.9732 19.6927 40.4197 20.5257 41.794C21.63 43.843 23.222 45.5886 25.1609 46.8765C26.4764 47.5967 27.8582 48.1884 29.2873 48.6433C29.0917 47.1718 28.8155 45.7121 28.4598 44.2709C28.3815 43.8795 27.0396 39.4065 26.939 39.4065C26.5087 39.5489 26.0441 39.5489 25.6138 39.4065C24.7805 39.1047 23.9995 38.6746 23.299 38.1316C22.8349 37.8073 22.3597 37.5222 21.8844 37.1923C21.7279 37.0861 21.1687 37.2314 21.275 36.8792C21.4036 35.1067 20.9507 34.8272 19.5361 35.2018C18.8931 35.3583 16.2763 35.8056 16.4608 36.4319C16.5103 36.5109 16.5823 36.5733 16.6677 36.6108ZM19.838 35.3024C20.2238 35.2577 20.6935 35.1962 20.9563 35.5708C21.1296 35.8392 21.0569 36.074 21.0569 36.376V36.9854C20.3997 36.9428 19.7404 36.9428 19.0832 36.9854C19.0093 36.8688 18.9021 36.7772 18.7755 36.7223C18.6488 36.6675 18.5086 36.652 18.3731 36.6779C17.4673 36.6779 16.9249 36.6779 16.8019 36.4319C16.6789 36.1859 17.0871 36.0181 17.2716 35.951C18.0995 35.64 18.9607 35.4261 19.838 35.3136V35.3024ZM76.0419 79.2223L75.3095 78.6128C75.0715 78.4343 74.7792 78.3435 74.482 78.3556C74.255 78.3824 74.0406 78.4742 73.8646 78.62C73.6887 78.7657 73.5586 78.9593 73.49 79.1773C73.4215 79.3953 73.4174 79.6285 73.4784 79.8488C73.5393 80.069 73.6626 80.267 73.8334 80.4188L74.5602 81.0282C74.663 81.124 74.7849 81.197 74.9179 81.2423C75.0509 81.2875 75.192 81.3042 75.3318 81.291C75.5724 81.2904 75.8068 81.2147 76.0024 81.0746C76.1981 80.9345 76.3451 80.737 76.4232 80.5094C76.5014 80.2818 76.5066 80.0356 76.4383 79.8049C76.3699 79.5742 76.2314 79.3706 76.0419 79.2223ZM75.9581 80.6369C75.823 80.7976 75.6306 80.8993 75.4217 80.9201C75.2128 80.941 75.004 80.8795 74.8398 80.7487L74.1073 80.1392C73.9413 80.0043 73.8356 79.8089 73.8136 79.596C73.7915 79.3832 73.855 79.1703 73.9899 79.0042C74.1249 78.8381 74.3203 78.7324 74.5331 78.7104C74.746 78.6884 74.9589 78.7518 75.125 78.8868L75.8518 79.4962C76.0089 79.6389 76.1064 79.8355 76.1251 80.0469C76.1437 80.2582 76.0821 80.4689 75.9525 80.6369H75.9581ZM79.0277 72.6972C78.779 72.5144 78.4691 72.4354 78.1632 72.4766C77.8574 72.5179 77.5795 72.6763 77.3881 72.9184C77.1968 73.1605 77.1069 73.4674 77.1373 73.7745C77.1678 74.0816 77.3164 74.3649 77.5516 74.5647L78.3456 75.1741C79.6092 76.1135 80.9511 74.2739 79.8217 73.3122L79.0277 72.6972ZM79.7322 74.7212C79.5936 74.8892 79.3943 74.9957 79.1776 75.0176C78.961 75.0396 78.7444 74.9753 78.5748 74.8387L77.7753 74.2292C77.6282 74.0891 77.54 73.8984 77.5285 73.6957C77.517 73.4929 77.583 73.2934 77.7132 73.1376C77.8434 72.9818 78.028 72.8813 78.2296 72.8567C78.4311 72.832 78.6345 72.8849 78.7985 73.0047L79.5924 73.6197C79.7538 73.7495 79.8586 73.9368 79.8847 74.1423C79.9108 74.3477 79.8561 74.5553 79.7322 74.7212Z" fill="black"/>
<path d="M106.906 65.5124C106.808 65.345 106.661 65.2111 106.486 65.1281C106.31 65.0451 106.114 65.0168 105.922 65.047C105.73 65.0771 105.552 65.1643 105.41 65.2972C105.269 65.4301 105.17 65.6025 105.128 65.792H104.245C100.13 65.9986 96.2628 67.8188 93.4813 70.8577C93.4317 70.839 93.3864 70.8106 93.348 70.7741C93.3096 70.7376 93.2788 70.6938 93.2576 70.6452C93.1023 70.226 92.9771 69.7963 92.883 69.3592C92.8083 69.2165 92.7537 69.0641 92.7209 68.9063C92.7478 68.4346 92.8284 67.9675 92.9613 67.5141C93.3556 65.451 93.4498 63.3418 93.2409 61.2518C93.5697 60.955 93.9482 60.7185 94.3591 60.5529C94.4656 60.6756 94.5997 60.7713 94.7503 60.8322C94.9009 60.8931 95.0638 60.9174 95.2256 60.9033C95.3875 60.8891 95.5437 60.8368 95.6814 60.7507C95.8191 60.6645 95.9345 60.547 96.0181 60.4077C96.1017 60.2684 96.1511 60.1113 96.1623 59.9492C96.1735 59.7871 96.1461 59.6247 96.0825 59.4752C96.0188 59.3258 95.9206 59.1935 95.796 59.0893C95.6714 58.985 95.5239 58.9118 95.3656 58.8755C95.2324 58.841 95.0935 58.8346 94.9577 58.8565C94.8218 58.8784 94.692 58.9282 94.5764 59.0028C94.4609 59.0774 94.362 59.1752 94.2861 59.2899C94.2102 59.4047 94.1589 59.5339 94.1355 59.6695C94.1299 59.7607 94.1299 59.8522 94.1355 59.9435C93.7623 60.1107 93.4141 60.329 93.1011 60.5921C92.2344 55.0007 88.7902 49.4094 83.8251 46.9436L81.0741 45.6856C80.943 45.6616 80.8104 45.6467 80.6772 45.6409C81.3944 46.1775 81.9667 46.8843 82.3426 47.6974C82.7184 48.5105 82.8858 49.4044 82.8298 50.2984C82.8179 50.4889 82.761 50.6739 82.6638 50.8381C82.5667 51.0024 82.4319 51.1412 82.2707 51.2434C82.5375 51.7388 82.7261 52.2726 82.8298 52.8257C83.3029 54.7382 83.9332 56.6083 84.7141 58.417C84.5575 58.0424 83.7244 57.8076 83.3945 57.6287C79.8441 55.627 75.8071 54.9225 75.276 55.0119C74.9572 54.4528 74.236 53.0214 74.2583 53.0773C74.0011 52.4846 73.6601 51.9982 73.0115 52.0653C71.9939 52.0653 70.6296 50.947 70.3947 49.3759C70.2619 48.2631 70.3764 47.1347 70.7302 46.0714C69.0966 47.1362 67.7503 48.5869 66.8102 50.2954C65.8702 52.0039 65.3653 53.9175 65.3402 55.8674C64.8537 55.6214 63.9423 56.2308 63.7858 56.1637C63.7299 56.1302 57.4956 43.5162 57.2719 42.9403C56.942 42.2302 56.4891 41.2629 55.3764 41.4418C55.0103 41.5099 54.6609 41.6485 54.3476 41.8499C54.3476 41.8499 38.5298 49.5995 37.2997 50.2369C38.7982 46.323 39.2343 41.8164 38.0434 36.4991C38.7911 39.2509 39.0783 42.1075 38.8932 44.9531C39.67 43.9473 40.3479 42.8687 40.9173 41.7325C41.3471 40.7753 41.6714 39.7742 41.8846 38.7468C43.8919 38.6126 47.6325 35.7163 49.1198 34.1395C50.5227 35.2577 52.041 36.223 53.6487 37.0191C57.6018 39.0543 61.9239 39.6693 64.7195 39.2164C65.1836 39.1382 65.7707 39.25 66.1006 38.6573C66.1251 38.7672 66.1913 38.8634 66.2851 38.9257C66.7324 39.1885 66.9281 39.0207 67.6102 39.0822C67.7668 39.5799 68.1694 39.3339 68.0464 39.0822C68.175 39.0822 68.2421 39.1493 68.3371 39.0319C68.4028 38.9004 68.4206 38.7502 68.3874 38.607C68.7341 38.4392 68.8012 38.0479 68.3148 37.8633C68.3495 37.7696 68.3584 37.6684 68.3407 37.57C68.323 37.4717 68.2793 37.3799 68.2141 37.3042C68.1272 37.234 68.0313 37.1757 67.929 37.1309C66.6989 25.5121 67.3698 30.3654 66.9057 25.7022C68.913 25.1822 69.4162 22.6717 69.5113 20.8769C69.7296 19.4632 69.7296 18.0244 69.5113 16.6107C69.358 15.4456 68.9411 14.3308 68.2924 13.351C68.0618 12.9891 67.7355 12.6982 67.3495 12.5107C66.9636 12.3231 66.5332 12.2463 66.1062 12.2886C66.0111 12.2886 66.0111 12.3446 65.9273 12.3278C64.6536 12.3443 63.4 12.0096 62.3041 11.3605C57.1601 8.52009 55.8349 5.42809 52.7206 4.09176C52.1371 3.80248 51.5014 3.63318 50.8514 3.59387C50.2013 3.55456 49.5499 3.64605 48.9358 3.86292C48.3216 4.07979 47.7573 4.41763 47.276 4.85646C46.7948 5.29529 46.4064 5.82619 46.134 6.41775C44.2609 10.2478 46.2961 14.5979 49.3993 17.0972C49.8914 17.483 49.5335 17.6563 49.6342 18.1428C49.3162 18.2224 49.0285 18.3934 48.8066 18.6348C48.7218 18.7654 48.6819 18.9202 48.693 19.0756C48.7041 19.231 48.7656 19.3786 48.8681 19.4959C48.7337 19.5506 48.6194 19.6455 48.541 19.7676C48.4625 19.8897 48.4237 20.0331 48.4298 20.1781C48.4359 20.3231 48.4867 20.4627 48.5752 20.5778C48.6636 20.6929 48.7855 20.7778 48.9241 20.821C48.7634 20.986 48.6693 21.2046 48.66 21.4348C48.6507 21.6649 48.7269 21.8904 48.8737 22.0679C48.9576 22.1853 49.1757 22.1853 49.2763 22.3027C49.377 22.4201 49.226 22.6997 49.0694 22.8059C48.8627 22.9419 48.6273 23.028 48.3817 23.0575C48.0518 23.0575 47.9064 22.7724 47.7722 22.4984C47.0118 20.7874 46.0948 16.8344 42.6338 14.5028C39.6244 12.6123 36.1219 11.6569 32.5694 11.7575C30.7467 11.7575 29.0581 11.6568 27.5373 12.803C27.0842 12.4346 26.61 12.0929 26.1171 11.7798C25.9427 11.6933 25.7523 11.6438 25.5579 11.6345C25.3511 11.6345 25.1833 11.8078 25.379 12.0091C25.2582 11.9732 25.1313 11.9627 25.0063 11.9781C24.8812 11.9935 24.7606 12.0345 24.6521 12.0985C24.5459 12.2327 24.5739 12.434 24.8814 12.5626C24.6689 12.5123 24.5124 12.7863 24.641 13.0099C24.8267 13.2313 25.0738 13.3927 25.3511 13.474C24.9876 13.446 24.9429 14.0779 25.6138 14.1505C26.0234 14.1556 26.4328 14.1294 26.8383 14.0723C27.0218 14.8087 27.4495 15.4611 28.0517 15.923C29.9204 17.1569 32.0476 17.945 34.2692 18.2266C35.1974 18.3608 36.1982 18.2266 37.104 18.4223C37.2662 20.1926 37.8741 21.8931 38.8709 23.365C37.7526 23.6838 35.544 25.3891 34.6662 26.1048C34.2077 26.4794 33.7045 27.005 33.8554 27.5809C33.4359 27.6686 33.0272 27.8017 32.6365 27.9779C32.082 28.2749 31.5495 28.6112 31.043 28.9843C29.5744 30.0522 28.448 31.524 27.8007 33.2205C27.1535 34.9171 27.0134 36.7652 27.3975 38.5399C28.9798 45.8086 31.0095 47.3574 29.0749 54.4081C25.9885 55.9065 7.26872 65.1266 6.63131 65.423C6.15682 65.6233 5.70354 65.8705 5.27821 66.161C4.36123 66.8823 4.86445 67.8775 5.27821 68.6771C5.27821 68.6771 18.7309 95.823 19.8156 98.0986C19.9492 98.4648 20.2228 98.763 20.5761 98.9276C20.9294 99.0922 21.3336 99.1098 21.6999 98.9765C21.7123 99.5363 21.6917 100.096 21.6384 100.654C21.6384 104.646 21.5154 104.132 21.5154 106.883C21.4539 107.939 21.5601 107.442 21.2862 107.85C21.2862 108.113 21.4427 108.129 21.5322 108.364L22.2926 109.857C22.3653 109.857 73.1233 84.8248 75.3151 83.7066C78.3456 86.7427 81.404 88.0343 85.2341 88.8562C83.6294 90.7181 82.1589 91.6966 82.6397 92.5409C82.9102 92.9044 83.2937 93.168 83.73 93.2901C85.5192 94.0785 89.6624 95.6664 89.9699 95.6776C89.9991 95.6652 90.025 95.6461 90.0454 95.6218C90.0658 95.5975 90.0802 95.5687 90.0873 95.5378C90.1209 95.3757 89.942 95.1073 89.5618 94.7215C89.1536 94.2071 88.7343 93.6591 88.2646 93.1335C88.5449 92.928 88.849 92.7572 89.1704 92.6247C89.545 92.5129 89.696 92.485 89.7631 92.3508C89.8301 92.2166 89.545 91.8364 89.3493 91.7245C89.1521 91.5493 88.9654 91.3626 88.7902 91.1654C88.7231 91.0983 88.7902 91.0368 88.9132 90.8802C90.16 89.639 90.5906 89.9129 91.1833 90.0471C91.6362 90.1478 93.006 90.3938 93.157 90.4106C93.4293 90.5128 93.7207 90.5538 94.0107 90.5306C94.3006 90.5074 94.5818 90.4206 94.8344 90.2764C95.4942 89.7732 95.6675 89.1581 95.9527 89.0687C96.2378 88.9792 97.6021 89.3762 97.5909 89.6278C97.5462 90.377 94.963 91.4114 99.0391 91.568C98.8937 91.9817 98.7539 92.5576 98.5862 93.0161C98.4799 93.3572 98.15 93.8157 98.3513 94.1064C98.3662 94.1277 98.3864 94.1447 98.41 94.1555C98.4336 94.1663 98.4597 94.1706 98.4855 94.1679C98.9496 94.1679 100.269 92.5409 100.275 92.5241C101.037 91.858 101.615 91.0069 101.952 90.0527C102.137 89.1246 101.494 88.5039 100.767 87.9839C99.835 87.3343 98.8448 86.7728 97.809 86.3065C101.522 81.0395 99.8722 74.4194 94.0572 71.0478C96.5807 68.3669 99.9969 66.7005 103.663 66.3623C104.154 66.312 104.648 66.312 105.139 66.3623C105.225 66.5471 105.365 66.7012 105.541 66.8038C105.717 66.9065 105.92 66.9527 106.123 66.9362C106.326 66.9197 106.519 66.8414 106.676 66.7118C106.833 66.5822 106.946 66.4075 107.001 66.2113C107.041 66.0956 107.054 65.9719 107.037 65.8505C107.021 65.729 106.976 65.6132 106.906 65.5124ZM92.1226 70.1588C91.9045 70.0638 91.6753 69.9743 91.4572 69.8904C92.5755 67.0444 92.363 63.494 92.0164 62.5378C92.0164 62.3589 92.0443 62.3086 92.1729 62.2471L92.8774 61.5929C93.0874 64.4702 92.8325 67.3625 92.1226 70.1588ZM89.2039 67.0836C89.2151 67.1633 89.2151 67.2443 89.2039 67.324C89.2806 67.9767 89.1842 68.6381 88.9244 69.2418C88.8033 69.2119 88.6798 69.1932 88.5553 69.1859C88.7232 68.4711 88.9399 67.7687 89.2039 67.0836ZM88.4435 67.4191C88.2478 68.0285 88.1248 68.638 87.9738 69.2083C87.8137 69.2083 87.6555 69.174 87.5098 69.1076C87.3476 68.8952 87.3923 68.213 87.3588 67.9502C87.0289 65.7976 86.3244 63.438 85.9554 61.9452C87.0457 62.9293 87.9525 64.0993 88.6336 65.4006C88.902 66.2001 89.0641 65.6131 88.4435 67.4191ZM89.3717 68.7386C89.5336 68.283 89.6112 67.8018 89.6009 67.3184C89.6345 66.7593 89.3717 66.558 89.6009 66.2001C89.8852 65.4953 90.2432 64.8225 90.6689 64.1929C90.9154 65.3233 90.9871 66.4849 90.8813 67.6371C90.8114 68.2969 90.6861 68.9497 90.5067 69.5885C90.5067 69.6444 90.2215 69.499 89.2375 69.3425C89.0474 69.3257 89.1312 69.4152 89.3717 68.7386ZM90.9428 64.0643C90.9181 64.0049 90.9053 63.9413 90.9053 63.877C90.9053 63.8127 90.9181 63.749 90.9428 63.6896C91.0244 63.5588 91.1242 63.4402 91.2392 63.3374C91.402 63.1239 91.5775 62.9204 91.7647 62.7279C92.2576 65.113 92.111 67.5859 91.3398 69.896L90.6521 69.6612C91.2733 67.86 91.3741 65.9201 90.9428 64.0643ZM91.0714 55.5263C91.5855 56.6086 92.0119 57.7305 92.3463 58.8811C92.5267 59.5492 92.6594 60.2294 92.7432 60.9164C92.4297 61.1469 92.1326 61.3992 91.8542 61.6712C90.6633 57.008 87.5601 52.0317 84.7365 48.8111C83.9426 47.919 83.0433 47.1267 82.0582 46.4516C86.1432 48.1674 89.3834 51.4297 91.0714 55.5263ZM83.5008 54.4081C83.4505 54.3354 82.5558 51.3552 82.5391 51.3049C83.4057 50.9191 82.9752 49.0404 82.841 48.3918C82.6807 47.6166 82.2911 46.9075 81.7227 46.3566C82.2036 46.7088 82.5111 47.0275 82.7907 47.2288C84.3043 48.5682 85.6336 50.1024 86.7437 51.7913C88.7519 54.6561 90.2937 57.8208 91.3119 61.168C91.5691 61.934 91.6138 61.9228 91.3119 62.1464C91.0549 62.4091 90.8123 62.6853 90.585 62.974C89.8609 60.6997 88.5653 58.6494 86.822 57.0192C86.0543 56.299 85.2276 55.6444 84.3507 55.0622C84.1443 54.8822 83.9277 54.7142 83.7021 54.559H83.6629C83.5962 54.5269 83.54 54.4765 83.5008 54.4136V54.4081ZM83.6853 54.7827C88.6336 58.1375 89.5897 61.688 90.2215 62.9292C90.5626 63.6114 90.1768 63.2256 89.1033 65.4901C88.4938 63.863 87.1295 62.6217 85.8491 61.6153C83.0032 52.7307 84.2221 56.4936 83.6853 54.7883V54.7827ZM85.3627 68.9846C83.4784 69.0685 82.7907 69.5438 82.444 69.2083C80.6492 67.5309 79.0165 65.9206 78.0996 63.6561C77.7473 62.7783 77.7082 61.4811 78.6587 60.8045L78.5916 60.6983C78.2165 60.9576 77.9266 61.3223 77.7584 61.7461C77.5903 62.17 77.5514 62.6342 77.6467 63.0802C77.8396 63.9895 78.2205 64.8484 78.7649 65.6019C79.6665 67.0182 80.8434 68.2389 82.226 69.1915C82.4664 69.4263 82.4217 69.3872 82.4776 69.4263C81.6948 69.6164 81.7339 69.6164 81.5941 69.5829C81.4544 69.5494 80.1907 68.5261 80.2578 68.5821C78.5499 67.2118 76.9273 65.7386 75.399 64.1705C73.3637 62.0793 71.39 59.4626 71.6919 56.4097C71.7868 55.155 72.2739 53.9618 73.0842 52.999C73.2411 52.7348 73.4725 52.5228 73.7495 52.3896C75.9469 57.8579 81.3593 64.1985 85.3347 68.9902L85.3627 68.9846ZM70.3891 46.6753C69.6455 49.1858 70.5737 51.1875 72.1225 52.0094C72.5457 52.2145 73.0109 52.3179 73.4811 52.3113C73.0282 52.3113 69.9866 55.9345 71.9156 60.0385C73.5594 63.8518 77.5069 66.6419 80.5374 69.0965C80.9064 69.3313 80.9847 69.4543 81.3761 69.6947C80.4529 69.9653 79.5637 70.3405 78.7258 70.813C74.0738 67.8496 69.3939 62.8006 67.929 57.5224C67.4526 55.6432 67.4272 53.678 67.8547 51.7872C68.2823 49.8963 69.1507 48.1332 70.3891 46.6417V46.6753ZM81.0741 71.0422C81.3045 71.0583 81.5211 71.1577 81.6836 71.3218L82.2931 72.1158C82.368 72.2135 82.4229 72.325 82.4546 72.444C82.4862 72.563 82.494 72.6871 82.4776 72.8091C82.4422 72.9548 82.3671 73.0879 82.2607 73.1935C82.1542 73.2991 82.0205 73.3731 81.8745 73.4073C81.7285 73.4415 81.5759 73.4345 81.4336 73.3871C81.2913 73.3398 81.1649 73.2539 81.0686 73.139L80.4591 72.345C80.362 72.2288 80.3003 72.0872 80.281 71.937C80.2618 71.7867 80.286 71.6342 80.3506 71.4972C80.4153 71.3603 80.5177 71.2447 80.6459 71.1641C80.7741 71.0834 80.9227 71.0412 81.0741 71.0422ZM65.9776 53.15C66.4081 50.9135 67.7109 48.7608 70.1152 46.7424C69.6305 47.2774 69.2118 47.8687 68.8683 48.5036C65.1445 55.0566 68.0296 61.6712 73.4588 66.9047C74.9931 68.4481 76.7224 69.7845 78.6028 70.8801C77.9358 71.2716 77.2917 71.701 76.6738 72.1661C75.1567 71.1957 73.7571 70.0531 72.5027 68.761C69.8294 66.1431 67.7724 62.963 66.4808 59.4514C65.7061 57.4363 65.5314 55.24 65.9776 53.1276V53.15ZM54.7949 42.0568C56.9476 40.9386 55.8685 42.5824 63.4391 56.2644C63.3553 56.1022 61.1467 57.131 60.7162 57.3547C59.7377 55.3754 54.5657 44.9364 54.4483 44.7407C54.3309 44.545 54.2582 44.4723 54.0177 44.5114C53.4153 44.7289 52.8394 45.014 52.3012 45.3613L35.9075 53.4575C36.0034 53.2409 36.1117 53.0299 36.2318 52.8257C36.4778 52.4064 37.1823 50.7905 37.2382 50.6563C37.775 50.455 34.3363 52.7418 54.7949 42.0568ZM67.8059 39.1773C67.7973 39.1164 67.7699 39.0598 67.7277 39.0152C67.6829 38.9481 67.6158 38.9536 66.9169 38.9536C66.6765 38.9536 66.3578 38.9536 66.3578 38.6629C66.3527 38.598 66.361 38.5328 66.3821 38.4712C66.4033 38.4096 66.4369 38.3531 66.4808 38.305C66.5017 38.4587 66.5805 38.5987 66.701 38.6963C66.8215 38.794 66.9747 38.842 67.1294 38.8306C67.3473 38.7979 67.5554 38.7178 67.7389 38.5958C67.6494 38.6461 67.8004 39.0207 67.8563 39.0767C67.9122 39.1326 67.8395 39.2891 67.8171 39.1773H67.8059ZM68.4937 38.2435C68.4937 38.3498 68.2868 38.4001 68.2868 38.3889L68.1526 38.0031C68.2924 38.0199 68.5216 38.1205 68.5049 38.2435H68.4937ZM68.0072 37.4328C68.0408 37.4349 68.0736 37.4437 68.1037 37.4587C68.1338 37.4737 68.1606 37.4946 68.1825 37.5202C68.2044 37.5457 68.221 37.5754 68.2312 37.6074C68.2414 37.6395 68.2451 37.6733 68.2421 37.7068C68.2421 37.7962 68.1973 37.8522 68.0072 37.7851C67.9942 37.6677 67.998 37.5491 68.0184 37.4328H68.0072ZM67.6326 37.8074C67.532 37.8074 67.3139 37.7739 67.2971 37.8074C67.2804 37.841 67.7221 38.0926 67.8563 38.1765C67.9692 38.2641 68.0599 38.3771 68.1211 38.5063C68.1823 38.6354 68.2122 38.7772 68.2085 38.9201C68.1857 38.9413 68.1558 38.9531 68.1246 38.9531C68.0935 38.9531 68.0636 38.9413 68.0408 38.9201C67.9066 38.7971 67.9122 38.6293 67.873 38.4728C67.8339 38.3162 67.75 38.2491 67.6102 38.3498C67.5161 38.4406 67.4011 38.507 67.2754 38.5431C67.1496 38.5792 67.0169 38.5838 66.889 38.5567C66.464 38.3889 66.5199 37.8466 66.738 37.4999C66.7995 37.4328 66.9449 37.4384 67.0288 37.4272H67.5879C67.628 37.5502 67.6506 37.6782 67.655 37.8074H67.6326ZM67.5823 37.17C67.3342 37.1468 67.084 37.1695 66.8442 37.2371C67.0511 37.0806 66.9113 36.8178 66.71 36.678C66.1956 36.1859 65.7483 35.6268 65.206 35.1795C62.7234 33.0324 60.4869 32.272 57.462 31.8247C56.1592 30.1473 55.0074 28.4699 52.8156 27.0274C52.6758 26.9323 52.3683 26.6863 52.167 26.5689C52.421 26.563 52.6677 26.4833 52.8771 26.3396C52.958 26.4135 53.0574 26.4639 53.1648 26.4856C53.2722 26.5073 53.3834 26.4993 53.4866 26.4626C53.5763 26.4123 53.6504 26.3381 53.7008 26.2484C53.7511 26.1586 53.7756 26.0567 53.7717 25.9538C53.9037 25.9647 54.036 25.9359 54.1515 25.8711C54.2671 25.8064 54.3607 25.7086 54.4203 25.5904C54.5433 25.691 54.6775 25.5904 54.7446 25.4562C54.8117 25.322 54.7446 25.1487 54.8061 24.9753C54.8582 24.802 54.9437 24.6406 55.0577 24.5001C55.4015 23.9473 55.6882 23.3609 55.9132 22.75C56.0298 22.5262 56.0984 22.2805 56.1145 22.0287C56.8667 22.5738 57.6884 23.0157 58.5579 23.3427C58.9884 23.5104 59.391 23.7341 59.8327 23.9018C61.7852 24.6254 63.804 25.1554 65.8602 25.4842C66.12 25.592 66.3958 25.6563 66.6765 25.6743C66.8275 29.3981 67.5432 36.4879 67.5823 37.17ZM51.6079 22.476C51.6477 22.3782 51.6533 22.2698 51.6239 22.1683C51.5945 22.0669 51.5317 21.9783 51.4457 21.9169C51.6862 21.5702 51.5632 21.5982 51.9769 20.9049C52.1055 20.6533 52.2453 20.4128 52.3963 20.178C52.5472 19.9432 52.7429 19.8201 53.0672 19.9879L55.0186 21.0446C55.1919 21.1397 55.9244 21.3969 55.9803 21.6038C55.9803 22.4648 54.9515 24.4554 54.247 24.8747C54.0571 24.9646 53.847 25.0031 53.6375 24.9865C53.7829 24.9865 53.6375 24.3771 53.6375 24.3212C53.6058 24.2206 53.5646 24.1232 53.5145 24.0304C53.5566 24.0499 53.6024 24.06 53.6487 24.06C53.6951 24.06 53.7409 24.0499 53.7829 24.0304C54.1072 23.885 54.1743 23.544 54.2246 23.2309C54.3103 22.863 54.3103 22.4804 54.2246 22.1126C53.9954 23.365 53.9674 23.79 53.7102 23.8794C53.453 23.9689 53.2741 23.7508 53.1175 23.6055C52.7908 23.349 52.4073 23.1745 51.9993 23.0967H51.6526C51.7205 22.9854 51.7572 22.8579 51.7589 22.7276C51.7868 22.6773 51.6191 22.4201 51.6079 22.476ZM51.2333 26.1998C51.2333 26.2725 51.2333 26.1998 51.1662 26.513C51.0597 26.4758 50.967 26.4073 50.9001 26.3165C50.8333 26.2257 50.7954 26.1168 50.7916 26.0041L51.2333 26.1998ZM50.7971 25.8644V25.6183C51.1159 25.9426 51.1159 25.7358 51.0935 26.0097C50.9881 25.9762 50.8882 25.9272 50.7971 25.8644ZM51.1718 16.5604C50.7043 16.1909 50.2736 15.7771 49.8858 15.3247C49.8858 15.157 50.0423 14.5979 50.1262 14.1058C50.361 13.2168 50.7916 12.4284 51.0655 11.5562C51.6647 12.1115 52.2917 12.6359 52.9442 13.1273C52.8212 13.6082 52.6479 14.0779 52.5528 14.5643C52.5137 14.7376 52.441 16.2417 52.3795 16.2417C52.2212 16.3227 52.0994 16.4605 52.0384 16.6275C51.7624 16.5203 51.461 16.497 51.1718 16.5604ZM49.8354 15.6546C49.8634 15.7497 50.6853 16.4765 50.9537 16.717C50.5399 17.1307 50.6294 16.9127 50.0032 17.1978C50.0591 17.1531 49.7907 15.923 49.8354 15.6546ZM63.4056 18.0421C63.4056 18.9032 63.1148 21.0446 63.9647 23.1358C63.2938 22.9681 62.6004 22.7947 61.9742 22.6214C61.6787 21.3646 61.536 20.0767 61.5493 18.7858C61.5587 18.43 61.5905 18.0752 61.6443 17.7234C61.6219 17.5333 61.5045 17.7178 63.4056 18.0421ZM55.6169 16.6778C55.6434 16.1466 55.7806 15.6267 56.0194 15.1514C56.6024 15.4112 57.1634 15.7179 57.6968 16.0684C57.8869 16.1802 58.3902 16.3535 58.4628 16.5772C58.5355 16.8008 58.3622 17.1028 58.3119 17.3656C58.0828 18.7119 58.1651 20.0928 58.5523 21.4025L57.3278 20.8769C57.5123 20.9552 57.5515 20.3178 57.5067 20.2283L57.6577 20.0718C57.6919 19.99 57.7083 19.9018 57.7059 19.8132C57.7035 19.7246 57.6823 19.6375 57.6437 19.5577C57.6051 19.4779 57.55 19.4072 57.4821 19.3503C57.4141 19.2933 57.3349 19.2515 57.2495 19.2275C57.3098 19.1736 57.3493 19.1005 57.3614 19.0206C57.4004 18.9185 57.4125 18.8082 57.3965 18.7001C57.3806 18.592 57.3371 18.4898 57.2703 18.4033C57.2035 18.3169 57.1156 18.2491 57.015 18.2064C56.9144 18.1637 56.8046 18.1475 56.696 18.1595C56.7316 18.0403 56.733 17.9134 56.7001 17.7934C56.6672 17.6733 56.6013 17.5649 56.5098 17.4805C56.4184 17.396 56.3051 17.3389 56.1828 17.3156C56.0606 17.2924 55.9342 17.3038 55.8182 17.3488C55.8246 17.1093 55.7541 16.8741 55.6169 16.6778ZM55.3149 16.6107C55.2255 16.5101 54.5377 16.3759 54.616 16.5716C54.5619 16.4229 54.4662 16.2929 54.3404 16.1969C54.2146 16.1009 54.0639 16.043 53.9062 16.0301C53.7485 16.0171 53.5904 16.0497 53.4506 16.1239C53.3108 16.198 53.1952 16.3107 53.1175 16.4486C53.0057 16.2585 52.7373 16.3535 52.6199 16.2082C52.5025 16.0628 52.6199 15.5092 52.6199 15.3024C52.6615 14.5869 52.83 13.8845 53.1175 13.228C53.9786 13.8766 54.862 14.3462 55.656 15.0004C55.6039 15.2338 55.5739 15.4715 55.5665 15.7105C55.5442 15.8112 55.2926 16.5828 55.3149 16.6107ZM61.6555 22.5319C61.5269 22.5319 60.4869 22.1238 60.2297 22.0287C59.9725 21.9337 58.8151 21.6373 58.7816 21.4696C58.7752 21.3989 58.7752 21.3278 58.7816 21.2571C58.4746 20.0288 58.4119 18.7522 58.597 17.4997L58.7704 16.6555C59.383 16.909 60.0082 17.1311 60.6435 17.3208C60.9304 17.366 61.2058 17.4667 61.4542 17.6172C61.058 19.2418 61.1278 20.9452 61.6555 22.5319ZM56.6233 21.8107C57.0371 21.8107 57.1824 21.4249 57.2328 21.1062C57.6618 21.3419 58.1156 21.5294 58.5859 21.6653C58.71 22.2856 58.9408 22.8796 59.268 23.421C58.7179 23.2177 58.1785 22.9862 57.6521 22.7276C56.1257 21.9616 56.1872 21.9225 56.1592 21.7156C56.3129 21.7744 56.4756 21.8065 56.6401 21.8107H56.6233ZM58.8598 21.8554C60.3751 22.5096 61.7282 22.9345 61.6555 22.9177C61.8604 23.204 62.0471 23.5027 62.2146 23.8123C62.4475 24.1531 62.7346 24.4534 63.0645 24.7014C61.9462 24.1926 61.9127 24.4833 59.6538 23.5328C59.2797 23.0352 59.0166 22.4632 58.8822 21.8554H58.8598ZM61.9966 22.8954C62.1308 22.9401 62.88 23.0911 63.9535 23.27C64.1906 24.0426 64.6542 24.7263 65.2843 25.2325C64.6498 25.1119 64.0241 24.9494 63.4112 24.7461C62.7761 24.2786 62.292 23.6352 62.0189 22.8954H61.9966ZM61.2976 17.2537C61.0457 17.2384 60.7973 17.1876 60.5596 17.1028C59.928 16.9309 59.3125 16.7045 58.7201 16.4262C59.0097 15.2378 59.5491 14.1247 60.3024 13.1609C60.4366 13.105 61.0237 13.4349 61.1467 13.4908C61.5425 13.6517 61.9272 13.8385 62.2985 14.0499C61.8972 15.0934 61.5702 16.1641 61.32 17.2537H61.2976ZM59.1953 14.5252C58.9493 14.9725 58.4573 15.7441 58.5299 16.2808C58.0169 16.0624 57.5263 15.7946 57.065 15.4813C56.7072 15.2856 56.327 15.1011 55.9803 14.8718C56.3875 13.7156 56.9867 12.6363 57.7528 11.6792C57.7528 11.6792 59.9893 12.8645 60.1291 13.0099C60.157 13.0379 59.3016 14.3798 59.2177 14.5252H59.1953ZM55.7958 14.8439C53.1343 13.0714 53.3244 13.2224 53.2406 13.0882C53.1567 12.954 53.4363 12.4787 53.5201 12.3054C53.9644 11.4389 54.5876 10.6765 55.3485 10.0689C55.3485 10.0689 57.4452 11.4667 57.585 11.6289C56.9476 12.4005 55.9635 13.7871 55.8182 14.8439H55.7958ZM53.5928 11.7798C53.5369 11.8693 52.9834 12.831 53.0784 12.8981C52.3739 12.5291 51.8595 11.8637 51.1885 11.4388C51.2948 11.2542 51.401 11.0697 51.4961 10.8796C52.0723 9.97144 52.8345 9.19581 53.7326 8.60396C54.1848 9.05639 54.6647 9.48028 55.1696 9.87319C54.5566 10.4251 54.0323 11.0682 53.6152 11.7798H53.5928ZM51.0991 11.1536C50.9258 10.8629 49.1813 9.38674 49.3378 9.11277C49.4336 8.99464 49.5109 8.86268 49.5671 8.72138C50.1477 7.85013 50.8921 7.10003 51.7589 6.5128C51.9434 6.39539 53.481 8.29084 53.6767 8.46418C52.5798 9.09093 51.6913 10.0261 51.1214 11.1536H51.0991ZM51.2221 6.61904C50.5088 7.11888 49.8962 7.74864 49.4161 8.47536C49.2724 8.65343 49.1711 8.86183 49.1198 9.08481C48.6408 8.45632 48.2037 7.79698 47.8114 7.11108C47.79 7.08507 47.7784 7.05247 47.7784 7.01882C47.7784 6.98517 47.79 6.95257 47.8114 6.92656C48.2886 6.18396 48.9104 5.54504 49.6397 5.04788C49.7516 4.9696 49.8187 4.82423 49.9696 4.83541C50.0635 4.85023 50.152 4.88871 50.2268 4.94723C50.7697 5.30584 51.2496 5.75169 51.647 6.26679C51.5017 6.30593 51.3898 6.50162 51.2445 6.61904H51.2221ZM48.5886 8.60396C48.8234 8.90589 48.8514 9.0289 49.0191 9.24137C48.4671 10.3981 48.0902 11.6305 47.9008 12.8981C47.9008 12.7583 47.6157 12.5738 47.1237 11.6792C46.8685 11.317 46.6635 10.9221 46.5142 10.505C46.6745 9.48329 47.0254 8.5008 47.5486 7.6087C47.5955 7.5057 47.6536 7.4082 47.7219 7.31795C47.9734 7.77068 48.2634 8.20094 48.5886 8.60396ZM49.2036 9.42029C50.2827 10.8852 50.881 11.0977 50.881 11.4723C50.3529 12.6654 49.9772 13.9203 49.7628 15.2073C49.7628 15.0508 49.0415 14.3854 48.9464 14.2791C48.6102 13.8926 48.2983 13.4855 48.0127 13.0602C48.258 11.8025 48.6581 10.5799 49.2036 9.42029ZM51.9266 23.5887H52.3683C52.386 23.655 52.4241 23.7139 52.4774 23.7571C52.5306 23.8003 52.5962 23.8255 52.6647 23.8291C52.7761 23.8225 52.8878 23.8357 52.9945 23.8683C52.9802 23.8993 52.9765 23.9341 52.9838 23.9674C52.9911 24.0007 53.0091 24.0308 53.035 24.0529C53.061 24.0751 53.0935 24.0882 53.1276 24.0902C53.1616 24.0921 53.1954 24.0829 53.2238 24.064C53.1735 24.1573 53.1359 24.257 53.112 24.3603C53.0838 24.4399 53.0838 24.5267 53.112 24.6063C53.1217 24.6237 53.135 24.639 53.1509 24.6511C53.1668 24.6631 53.185 24.6718 53.2044 24.6765C53.2238 24.6813 53.244 24.6819 53.2637 24.6785C53.2834 24.6751 53.3022 24.6676 53.3188 24.6566C53.2625 24.7749 53.2412 24.9068 53.2573 25.0368C53.2238 24.8915 52.8268 25.0368 52.7653 25.0368C52.7365 24.9439 52.6785 24.8628 52.5999 24.8054C52.5214 24.748 52.4265 24.7174 52.3292 24.7181H52.2285C52.2352 24.5298 52.2145 24.3414 52.167 24.159C52.0836 24.0142 51.9666 23.8915 51.826 23.8012C51.8654 23.7354 51.8937 23.6636 51.9098 23.5887H51.9266ZM67.7277 13.077C68.8459 14.1953 69.1031 16.046 69.2653 17.5501C69.5057 19.7866 69.2094 23.1414 67.7221 24.8635C67.535 25.1177 67.2666 25.3002 66.9614 25.3806C66.6562 25.4609 66.3327 25.4343 66.0447 25.3052C63.8082 23.9354 63.4783 20.9943 63.5845 18.372C63.5512 16.9625 63.8419 15.5641 64.4344 14.2847C64.6247 13.8416 64.9112 13.4462 65.2731 13.1273C65.5958 12.8086 66.0285 12.6257 66.482 12.6164C66.9355 12.607 67.3753 12.7719 67.7109 13.077H67.7277ZM65.4911 12.5179C64.0933 13.3845 63.4056 16.1634 63.3441 17.824C62.7578 17.6103 62.1583 17.4347 61.5493 17.2985C61.7635 16.1473 62.1009 15.0226 62.5557 13.9437C63.1148 14.1505 63.3832 14.1953 63.9703 14.4133C63.9703 14.2121 64.1213 14.4133 62.6284 13.7815C62.9459 13.195 63.4152 12.7045 63.9871 12.3613C64.4814 12.457 64.9824 12.515 65.4855 12.5347L65.4911 12.5179ZM61.9462 11.3996C62.5407 11.75 63.1658 12.0457 63.8137 12.283C63.6516 12.2215 62.8297 12.9596 62.4886 13.6809V13.7144C62.4886 13.8095 62.4047 13.7592 62.3432 13.7592C61.7338 13.4293 61.0628 13.2 60.4645 12.8757C60.8705 12.3754 61.3055 11.8993 61.7673 11.4499L61.689 11.3549C61.5828 11.4443 60.0564 12.7583 60.2297 12.8645L57.9261 11.5841C58.3542 11.0141 58.9069 10.5493 59.542 10.2254C59.0238 10.3812 58.5477 10.6527 58.1497 11.0194C58.0603 11.1089 57.9373 11.4164 57.8702 11.4611C57.708 11.5674 57.0091 10.9523 56.7966 10.8125C56.3885 10.5274 55.9803 10.2534 55.5777 9.9291C55.7515 9.7577 55.959 9.62439 56.1872 9.53771C56.4161 9.40321 56.6554 9.28728 56.9029 9.19105C57.1601 9.10159 58.0211 8.78847 58.2839 8.97299C59.4591 9.86137 60.6797 10.6881 61.9407 11.4499L61.9462 11.3996ZM58.2783 8.74374C58.0771 8.57041 57.1601 8.84439 56.9196 8.90589C56.3786 9.04131 55.8744 9.29532 55.4435 9.64954C54.9311 9.28456 54.4521 8.87478 54.0122 8.42504C53.5816 8.11192 55.9635 7.13344 56.8581 7.57516C57.3763 7.92182 57.8512 8.32914 58.2727 8.78847L58.2783 8.74374ZM56.7966 7.45774C56.025 7.17258 54.5154 7.66462 53.7606 8.11751C51.8763 6.28356 51.9993 6.41775 51.9993 6.3842C52.7954 5.87173 53.7405 5.64136 54.6831 5.73002C55.4234 6.27453 56.1276 6.86659 56.791 7.50247L56.7966 7.45774ZM52.3459 4.24832C53.0505 4.36015 53.8724 5.10938 54.4371 5.53992C54.0457 5.32185 53.3971 5.53991 53.0001 5.64056C52.5846 5.78445 52.1854 5.97187 51.8092 6.19969C51.3978 5.5616 50.817 5.05052 50.1318 4.72358C50.4486 4.52775 50.8028 4.40016 51.1718 4.34896C51.5555 4.25423 51.9517 4.22027 52.3459 4.24832ZM48.6445 4.26509C49.6874 3.84518 50.8439 3.80168 51.9154 4.14208C51.2307 4.18704 50.5635 4.37766 49.9585 4.70122C49.5243 4.46858 49.0418 4.34031 48.5494 4.3266L48.6445 4.26509ZM48.1748 4.48316C48.7054 4.37843 49.2559 4.47617 49.718 4.75713L49.869 4.83541C49.4664 4.83541 48.9352 5.43927 48.6501 5.69647C48.5327 5.80271 47.5318 6.76441 47.6381 6.91538C47.4927 6.69732 47.3641 6.47367 47.2131 6.2556C47.0621 6.03754 46.9727 5.89776 46.8553 5.69647C47.1904 5.19121 47.6433 4.77485 48.1748 4.48316ZM45.6867 8.09515C45.6865 8.21253 45.7035 8.32932 45.737 8.44181C45.8728 9.12215 46.0597 9.79128 46.2961 10.4435C46.1281 11.1586 46.1416 11.9044 46.3353 12.6129C45.6854 11.2018 45.46 9.63211 45.6867 8.09515ZM46.0501 9.16868C45.9191 8.61897 45.8497 8.05637 45.8432 7.49129C45.8981 7.34142 45.9674 7.19723 46.0501 7.06075C46.2514 6.61772 46.4909 6.19304 46.7658 5.79152C46.9224 6.0655 47.0454 6.35066 47.1963 6.63022C47.3473 6.90979 47.5877 7.07194 47.3976 7.44096C46.9473 8.33093 46.5984 9.26871 46.3576 10.2366C46.2865 9.87236 46.1836 9.51501 46.0501 9.16868ZM46.4471 10.9579C47.9959 13.7536 47.8897 12.3613 47.7331 14.2121C47.6757 14.5455 47.7206 14.8886 47.8617 15.1961C47.3214 14.6422 46.9134 13.9732 46.6685 13.2392C46.4235 12.5052 46.3478 11.7253 46.4471 10.9579ZM49.4105 16.9294C48.9131 16.4479 48.4585 15.9241 48.0518 15.3639C47.8006 14.9082 47.7383 14.3721 47.8785 13.871C47.8908 13.702 47.9227 13.535 47.9735 13.3734C48.0248 13.6008 48.1347 13.8109 48.2922 13.9828C48.6871 14.517 49.1227 15.0198 49.595 15.4869C49.621 15.5038 49.6406 15.529 49.6508 15.5584C49.6609 15.5877 49.6609 15.6196 49.6509 15.649C49.6739 16.1902 49.7507 16.7278 49.8802 17.2537C49.7519 17.1095 49.5908 16.9983 49.4105 16.9294ZM47.4088 22.2524C47.4824 22.5386 47.6201 22.8043 47.8114 23.0296C47.8937 23.1213 48.0019 23.1858 48.1217 23.2148C48.2415 23.2437 48.3672 23.2357 48.4823 23.1917C48.7817 23.1158 49.0605 22.9745 49.2987 22.778C49.4472 22.796 49.5974 22.796 49.746 22.778C49.907 22.6883 50.0479 22.5665 50.1597 22.4201C50.349 22.2416 50.511 22.0363 50.6406 21.8107C50.4375 21.6452 50.299 21.4136 50.2492 21.1565C50.0311 20.3401 51.3675 19.8649 51.0655 21.7156C50.9649 22.3251 50.3666 22.5879 50.3666 23.1917C50.3666 23.3315 50.3666 23.3259 50.2716 23.4433C50.2111 23.4958 50.1627 23.5607 50.1295 23.6335C50.0963 23.7063 50.0791 23.7854 50.0791 23.8655C50.0791 23.9455 50.0963 24.0246 50.1295 24.0974C50.1627 24.1703 50.2111 24.2351 50.2716 24.2876C50.1676 24.3658 50.0881 24.4721 50.0425 24.5939C49.997 24.7158 49.9872 24.8481 50.0144 24.9753C50.1094 25.3667 50.4114 25.3723 50.6909 25.5345C50.6548 25.7186 50.6379 25.906 50.6406 26.0936C50.668 26.2111 50.7229 26.3205 50.8006 26.4128C50.8783 26.5051 50.9768 26.5777 51.0879 26.6248C50.9127 27.1016 50.5628 27.4939 50.1091 27.7223C49.6554 27.9508 49.1318 27.9981 48.6445 27.8549C47.9887 27.73 47.3961 27.3824 46.9671 26.8708C46.7285 26.5324 46.5872 26.1351 46.5586 25.7221C46.53 25.309 46.6152 24.896 46.8049 24.528C46.9856 24.0648 47.1424 23.5927 47.2746 23.1134C47.3641 22.8352 47.4094 22.5446 47.4088 22.2524ZM26.9669 13.8654C26.4635 13.9226 25.9552 13.9226 25.4517 13.8654C25.3902 13.8654 25.3119 13.8151 25.3119 13.748C25.3119 13.6809 25.3846 13.6417 25.4517 13.6194C25.8431 13.5075 26.0891 13.6194 26.145 13.4908C25.7185 13.3311 25.3144 13.1169 24.9429 12.8534C24.9519 12.8335 24.9678 12.8176 24.9876 12.8086C25.2392 12.6744 25.5971 12.954 25.8039 12.8086C25.6642 12.5291 25.4629 12.5738 25.0883 12.3949C24.9932 12.3949 24.9485 12.1768 25.1665 12.1992C25.452 12.2112 25.7311 12.2877 25.9829 12.4228C25.9829 12.1377 25.5747 12.0985 25.5747 11.8637C25.6997 11.8747 25.8204 11.9149 25.927 11.9811C26.4548 12.2378 26.9567 12.5449 27.4254 12.8981C27.3807 12.859 27.1123 13.3398 27.09 13.3734C27.0004 13.5274 26.9576 13.7042 26.9669 13.8822V13.8654ZM34.7053 26.485C35.9776 25.2181 37.4514 24.1714 39.0666 23.3874C39.6437 24.1145 40.3043 24.7714 41.0347 25.3444L41.1074 25.2437C39.5199 23.9548 38.3521 22.2225 37.7526 20.2675C37.1935 18.4615 37.473 18.1092 37.1487 18.0924C35.4286 18.0994 33.7141 17.8947 32.0439 17.483C30.5684 17.0495 29.1928 16.3294 27.9957 15.3639C27.5601 15.0536 27.2615 14.5867 27.1626 14.0611C27.0844 12.6241 29.1476 12.1097 30.6293 12.0426C31.4624 12.0035 32.3067 12.0426 33.1174 11.9923C37.1141 11.8675 40.9971 13.3334 43.9142 16.0684C45.7817 17.8688 47.6884 21.1732 46.9056 23.6278C46.7046 24.1588 46.553 24.7072 46.4527 25.2661C45.8936 28.3245 50.6238 29.2136 51.3786 26.1663C51.7924 26.5745 52.0776 26.6136 52.6031 27.0609C55.5889 29.2415 56.6289 31.3215 57.367 32.054C58.7288 32.2033 60.061 32.5537 61.32 33.0939C63.3827 33.979 65.2095 35.3347 66.6541 37.0526C66.0279 38.3051 65.9217 38.6293 65.6086 38.8027C65.2165 38.9486 64.8023 39.0261 64.3841 39.0319C61.6788 39.3111 58.9456 38.9669 56.3941 38.0255C53.8371 37.0833 51.4544 35.7229 49.3434 33.9997C50.2711 32.9195 51.0878 31.7488 51.7812 30.5052H51.675C49.5767 33.9022 46.5096 36.5934 42.8687 38.2324C42.4435 38.4531 41.9586 38.5316 41.4855 38.4561C41.0124 38.3806 40.5761 38.1552 40.2407 37.813C38.3956 36.2922 36.9586 33.8488 35.9242 31.6961C35.1409 30.4636 34.5295 29.1298 34.1071 27.7319C34.1367 27.2542 34.3513 26.807 34.7053 26.485ZM35.7174 53.944L54.1687 44.8637C54.6505 45.9694 55.1918 47.0483 55.7902 48.0955C56.3829 49.2137 60.2633 57.1646 60.4645 57.556C59.5358 58.0533 58.6527 58.6314 57.8254 59.2837C57.6287 58.7762 57.3449 58.3069 56.9867 57.897C57.1137 58.4441 57.3433 58.962 57.6633 59.4235C57.0799 59.8773 56.52 60.3606 55.9859 60.8716C55.7846 60.8716 55.8405 60.1783 54.8676 59.0321C55.0688 59.7615 55.3738 60.4583 55.7734 61.1009C55.2206 61.6376 54.7068 62.2131 54.2358 62.823C53.7733 61.8751 53.2407 60.963 52.6423 60.0944C53.0416 61.1367 53.5105 62.1511 54.0457 63.1305C54.0457 63.1864 52.9889 64.847 52.9274 64.903C53.8165 65.0092 54.8117 64.8415 56.2822 65.6187C57.1098 65.9989 56.6792 67.0836 56.0474 67.475C55.4297 67.7441 54.737 67.7877 54.0904 67.598L53.9786 67.4079C54.5799 67.4553 55.185 67.412 55.7734 67.2793C56.3885 67.0333 56.8917 66.1051 55.7734 65.669C54.4445 65.2553 53.0546 65.0719 51.6638 65.1266C50.8087 65.1603 49.9728 65.3899 49.2204 65.7976C48.7476 64.6799 48.1611 63.6139 47.4703 62.6161C47.902 63.7562 48.4178 64.8626 49.0135 65.9262C48.4606 66.3036 47.8561 66.5992 47.2187 66.804C46.7453 65.6838 46.1569 64.6157 45.463 63.617C45.8876 64.7139 46.3902 65.779 46.9671 66.804H45.9495C45.7919 66.7761 45.6296 66.8102 45.4966 66.8991C45.4239 66.709 45.2729 66.3958 44.7921 65.3615C44.6411 65.0372 44.479 64.6681 44.0484 64.5563C43.5884 64.5867 43.149 64.7586 42.7904 65.0483C42.2928 65.2999 42.1082 65.6634 42.2704 66.1051C42.6115 66.9941 43.0532 67.872 43.0308 67.816C43.1874 68.1627 43.3886 68.5876 43.7856 68.6436C44.1826 68.6995 45.5022 68.1963 45.6196 67.5253C46.1272 67.9759 46.7926 68.2071 47.4703 68.1683C47.9616 68.1058 48.4463 67.9991 48.9185 67.8496C48.6221 68.0117 48.829 67.9111 48.3034 68.2018C47.9008 68.4311 47.8114 68.8504 48.035 69.3816C48.035 69.4375 48.5942 70.7179 48.7731 70.9863C48.9912 71.3721 49.198 71.7411 49.6733 71.7411C49.9808 71.7411 50.0256 71.6685 51.1103 71.1205C51.5688 70.7962 51.4402 70.3992 51.2556 69.9519C51.0505 69.4472 50.8172 68.9544 50.5567 68.4758C50.3834 68.1292 50.1989 67.6986 49.6174 67.6315C50.2131 67.4498 50.8292 67.3427 51.4513 67.3128C52.5696 69.7059 52.5696 69.7786 52.8883 70.1924L52.933 70.142C53.0281 70.047 52.933 69.801 52.8268 69.7003C52.7206 69.5997 51.6638 67.3576 51.6303 67.3016C52.1901 67.2936 52.7499 67.3142 53.3077 67.3631C53.4957 67.3575 53.6836 67.3763 53.8668 67.4191C54.1174 68.0548 54.4282 68.6652 54.7949 69.2418L54.8453 69.1971C54.9403 69.102 54.8453 68.856 54.7334 68.7498C55.2127 69.3319 55.7421 69.8708 56.3158 70.3601C56.4455 70.5304 56.6158 70.6657 56.8111 70.7536C57.0064 70.8415 57.2205 70.8792 57.434 70.8633C59.1371 70.3978 60.9307 70.3747 62.6452 70.7962C63.0301 70.9033 63.3783 71.1141 63.6516 71.4057C63.7234 71.528 63.7676 71.6646 63.781 71.8058C63.7945 71.9471 63.7769 72.0895 63.7295 72.2232C63.6821 72.3569 63.606 72.4787 63.5066 72.5799C63.4072 72.6811 63.2868 72.7593 63.154 72.8091C62.0357 73.2899 61.3256 72.8426 59.4917 72.9489C60.3931 73.3972 61.2635 73.9053 62.0972 74.4697C62.0413 74.4697 22.6449 93.8548 21.9012 94.1791C21.247 92.5241 8.94612 68.0453 8.72246 67.4694C10.959 66.3511 12.6364 65.4285 28.1243 57.5839C28.0008 57.8141 27.8907 58.0512 27.7945 58.294C27.7561 58.3633 27.732 58.4395 27.7233 58.5182C27.7147 58.5969 27.7218 58.6766 27.7441 58.7525C27.7941 58.8247 27.8588 58.8854 27.934 58.9307C28.0092 58.976 28.0931 59.0048 28.1803 59.0153C27.9846 58.965 27.5261 60.7598 27.5149 60.9219C27.2689 60.5138 27.1179 60.2678 26.5867 60.3628C26.0236 60.489 25.5332 60.8327 25.2225 61.3189C24.8982 62.2247 25.6083 63.0802 26.0556 63.7567C26.2848 64.1202 26.4749 64.4501 26.9614 64.3662C27.3066 64.2884 27.6409 64.1682 27.9566 64.0084C28.0882 63.958 28.2094 63.8841 28.3145 63.7903C28.7114 63.3709 28.5549 62.9125 28.3145 62.4596L28.225 62.2918C28.0628 61.9563 27.8392 61.6824 27.6659 61.3525C28.2479 61.8222 28.9701 62.0839 29.7179 62.0961C29.7461 62.0949 29.774 62.1023 29.798 62.1172C29.8219 62.1322 29.8408 62.1541 29.8521 62.18C29.9303 62.2974 30.1931 62.9851 30.3497 62.9851C30.4112 62.9851 30.4168 62.8957 30.3944 62.8454L30.1428 62.2303C30.1987 62.2303 30.1428 62.2303 31.194 62.2862C32.1781 62.3477 32.5862 61.811 33.3914 61.4867C33.6989 61.3525 34.1518 61.1456 34.2077 60.771C34.1991 60.4047 34.0671 60.0521 33.8331 59.7701C33.2404 58.8755 33.1789 58.3611 32.7651 57.9529C33.9643 56.7892 34.9619 55.4345 35.7174 53.944ZM49.9249 67.9223C49.9752 67.9782 51.921 70.7179 50.7412 71.0534C50.0144 71.4392 49.6677 71.5175 49.4049 71.3609C49.1207 71.0724 48.8998 70.7277 48.7563 70.3489C48.5662 69.7506 48.4041 69.6556 48.1972 69.0909C47.8785 68.4255 49.5838 67.721 49.9249 67.9223ZM43.8248 68.2801C43.4669 68.1795 43.3271 67.721 43.137 67.2793C42.9917 66.9494 42.2592 66.0548 42.4325 65.4956C42.4618 65.4068 42.5099 65.3253 42.5736 65.2568C42.6373 65.1882 42.7151 65.1343 42.8016 65.0987C43.1453 64.8504 43.5525 64.705 43.9757 64.6793C44.2553 64.7184 45.368 66.9158 45.3959 66.9606C45.8488 67.7322 44.4286 68.2745 43.8248 68.3025V68.2801ZM28.3648 63.5219C27.8448 64.0195 26.788 64.5899 26.3295 63.7959C25.4852 62.3142 25.0323 61.8389 25.379 61.3525C25.6937 61.0619 26.0794 60.8594 26.4973 60.7654C27.2577 60.4802 27.3192 61.2574 28.0852 62.5043C28.32 62.974 28.4822 63.2479 28.3648 63.5443V63.5219ZM32.4968 58.4897C32.575 58.4058 32.7707 58.1654 32.8043 58.1207C32.9161 58.2549 33.4193 59.3787 33.492 59.5409C33.7326 59.8676 33.8778 60.2548 33.9114 60.6592C33.861 60.9443 33.6486 61.0673 33.3914 61.2183C33.1453 61.3685 32.8775 61.4798 32.5974 61.5482C32.588 61.4399 32.5569 61.3346 32.506 61.2385C32.4551 61.1424 32.3854 61.0576 32.3011 60.989C32.2004 60.8996 31.932 60.8101 31.8705 60.7151L31.3617 59.7925C31.7719 59.395 32.1513 58.967 32.4968 58.5121V58.4897ZM30.6069 60.0944C30.6958 60.1255 30.7911 60.1335 30.884 60.1179C30.9768 60.1022 31.0642 60.0634 31.1381 60.005C31.2499 60.2342 31.3394 60.2286 31.4065 60.5641C30.5342 60.3964 30.6069 60.1392 30.6069 60.0944ZM30.3944 59.9435V60.0777C30.3907 60.2054 30.4308 60.3305 30.5082 60.4323C30.5855 60.534 30.6953 60.6062 30.8194 60.6368C31.342 60.7654 31.8329 60.9995 32.2619 61.3245C32.7651 61.8836 31.6525 61.8166 31.4009 61.8166C30.0422 61.8166 29.3377 61.906 28.3424 61.4363C27.9622 61.2518 28.0181 60.989 28.1132 60.6088C28.2281 60.1485 28.3738 59.6965 28.5493 59.2557C28.9463 59.4402 29.3992 59.5073 29.7962 59.7086C29.9817 59.8148 30.184 59.8886 30.3944 59.9267V59.9435ZM20.6879 98.736H20.6432C20.2038 98.3257 19.8766 97.8099 19.6926 97.2376C19.6647 97.1817 6.38529 70.0749 5.32853 68.0788C5.19663 67.8966 5.11482 67.683 5.09128 67.4593C5.06773 67.2356 5.10327 67.0097 5.19434 66.804C5.42585 66.4681 5.75902 66.2153 6.14487 66.0827C7.43646 65.5236 27.6603 55.5263 29.1084 54.833C28.8121 55.7612 28.5493 56.3874 28.2418 57.3155C26.9054 57.9585 8.42053 67.3016 8.26957 67.3016C8.26957 67.3631 21.5266 94.3189 21.5881 94.4307C21.6496 94.5426 21.9459 94.4307 22.0019 94.4307C22.0578 94.4307 62.1363 74.7101 62.4495 74.5312C62.5054 74.5312 64.1716 75.6495 64.2834 75.7054C64.5644 75.8976 64.8664 76.057 65.1836 76.1807C66.0966 75.8128 67.0598 75.5847 68.0408 75.5041C69.0864 75.4594 70.8364 75.6439 70.7358 76.6951C70.6757 76.9935 70.5037 77.2576 70.2549 77.4331C69.953 77.6847 65.5415 79.8094 65.4855 79.8374C66.0504 79.1287 66.7669 78.5555 67.5823 78.16C68.2309 77.8357 68.9633 77.7742 69.9922 77.0417C70.4283 76.7622 70.4059 76.3596 70.1263 76.1807C68.5775 75.2245 65.4464 75.6663 63.769 78.0202C20.3636 99.4126 22.3653 98.4285 22.2535 98.4788C21.8956 98.6745 21.247 99.0603 20.6879 98.736ZM69.802 78.6576C69.0025 79.0602 65.6924 80.6593 64.8314 81.0898C64.9395 80.7391 65.0977 80.4058 65.301 80.1002C67.5376 79.0546 68.3539 78.6464 69.215 78.16C69.2821 78.2159 69.6958 78.5905 69.7909 78.6576H69.802ZM21.6105 107.732C21.672 106.665 21.9403 99.4741 21.9403 99.4741C21.918 99.3427 21.918 99.2085 21.9403 99.0771C21.9795 98.915 22.1137 98.8814 22.4995 98.6913L63.5342 78.4731L63.0533 79.4348C60.3415 80.7544 24.0035 98.8031 23.7967 98.8031C22.6169 99.3231 23.0754 99.0044 22.9859 100.402V100.822C22.9859 101.168 22.9244 101.509 22.93 101.856C22.93 101.962 61.2417 83.058 61.2976 83.03C61.2784 83.0731 61.2684 83.1198 61.2684 83.167C61.2684 83.2142 61.2784 83.2609 61.2976 83.304C61.4318 83.7122 62.1923 83.7066 62.5221 83.7122C63.0203 83.728 63.5144 83.6184 63.9591 83.3935C64.7084 82.6498 64.6748 81.9174 64.8314 81.375C65.9944 80.7879 65.6533 80.9389 70.4562 78.5793C70.5177 78.5793 72.251 79.3006 72.4971 79.3733C72.469 79.6092 72.469 79.8475 72.4971 80.0834C72.5241 80.327 72.6043 80.5618 72.7319 80.7711C73.0063 81.211 73.35 81.6037 73.7495 81.9341C73.6992 81.9509 22.6393 107.123 21.5993 107.71L21.6105 107.732ZM24.7304 100.978C24.7422 100.744 24.7253 100.509 24.6801 100.279C24.6744 100.257 24.6744 100.234 24.6801 100.212C24.6298 100.139 62.3376 81.5707 62.2705 81.6098C62.1002 81.986 61.8802 82.3377 61.6164 82.6554L24.7304 100.978ZM24.6186 100.067L24.5515 99.4573C24.5179 99.3175 21.7558 100.682 62.6004 80.704C62.5277 80.965 62.4245 81.2165 62.2929 81.4533C62.2258 81.4589 24.9093 99.8655 24.6018 100.044L24.6186 100.067ZM23.1872 100.067C23.3997 99.9605 24.1992 99.5524 24.3726 99.4461V100.167C23.9197 100.363 23.1089 100.727 23.0418 100.727V100.089C23.0987 100.08 23.1548 100.067 23.2096 100.05L23.1872 100.067ZM23.2487 99.3175C23.3997 99.1945 24.0427 98.9597 24.3055 98.8143L24.3446 99.312C24.3446 99.3679 24.3838 99.312 23.1872 99.9549C23.176 99.435 23.1425 99.3735 23.2375 99.284L23.2487 99.3175ZM23.1872 100.838C23.625 100.659 24.0525 100.456 24.4676 100.229C24.5012 100.497 24.5291 100.766 24.5515 101.034C24.5124 101.034 23.0586 101.739 23.0362 101.755V100.883C23.081 100.794 23.1201 100.81 23.176 100.805L23.1872 100.838ZM24.5627 99.2001V98.6745C24.7192 98.6745 61.5884 80.4972 63.0421 79.8094C62.908 80.1617 62.8744 80.2455 62.8185 80.3686C57.2495 82.8679 30.1316 96.466 24.5515 99.1666L24.5627 99.2001ZM88.4547 90.9306C88.2702 91.4226 88.9411 91.8867 89.3437 92.1495C88.8684 92.2948 88.1248 92.5353 87.9682 93.0161C87.9123 93.2789 88.1639 93.5753 88.3652 93.7933C88.4994 93.9387 89.4835 95.1576 89.4332 95.1073C88.0968 94.6767 84.1717 93.0776 84.2277 93.1C83.8184 92.9699 83.4385 92.7609 83.1094 92.4849C82.6229 91.8084 83.8195 91.0033 84.5743 90.1198C84.9657 89.7117 84.9825 89.5607 85.3739 89.1413C85.6982 88.6437 86.425 89.3426 89.819 89.7676C89.4611 90.0639 89.0194 90.0471 88.4435 90.897L88.4547 90.9306ZM94.0963 90.2316C93.7049 90.2316 82.2483 87.7938 81.4935 87.436C81.404 87.3968 81.404 87.3968 81.404 87.313C81.432 87.1061 83.7133 80.3853 84.3283 78.8533C84.4191 78.5722 84.5646 78.3118 84.7565 78.0872C84.9485 77.8627 85.183 77.6784 85.4466 77.5449C86.1976 77.1726 87.0071 76.9324 87.8396 76.8348C89.0536 76.5965 90.2801 76.4266 91.5131 76.326C92.0443 76.326 92.3518 76.9634 92.6761 77.4443C93.7929 79.2776 94.5311 81.316 94.8471 83.4393C95.163 85.5626 95.0503 87.7277 94.5157 89.8067C94.4262 90.1422 94.2585 90.1981 94.0852 90.1981L94.0963 90.2316ZM100.247 88.1293C101.969 88.9009 102.047 90.4218 100.649 91.6351C100.102 92.3081 99.5019 92.9363 98.8545 93.5138C98.9661 93.0403 99.1157 92.5765 99.3019 92.1271C99.5758 91.4729 99.5367 91.1486 98.7427 91.1486C98.2213 91.1786 97.7001 91.0847 97.2219 90.8746L97.384 90.7013C97.6971 90.3714 98.0885 89.9577 98.0382 89.4824C97.9879 89.0071 97.4288 88.7388 96.3161 88.5822C97.6971 86.7147 97.5126 86.642 97.6971 86.7147C98.5624 87.1319 99.4059 87.5929 100.224 88.0958L100.247 88.1293ZM99.2403 78.0649C99.3483 78.4817 99.425 78.906 99.4696 79.3342C99.3987 79.0638 99.2464 78.8218 99.0335 78.6408C98.9964 78.6031 98.9491 78.5771 98.8974 78.5662C98.8457 78.5552 98.7919 78.5598 98.7427 78.5793C98.5694 78.6688 98.5023 78.9931 98.5079 79.1944C98.0039 81.6052 97.1822 83.9385 96.0645 86.1332C95.6731 86.793 95.6954 86.916 95.729 86.9999C95.8408 87.3577 96.3944 86.9495 96.7131 86.8209L97.3505 86.4631C96.5978 87.6508 95.7587 88.7814 94.84 89.8458C95.3659 87.4687 95.4323 85.0128 95.0357 82.6107C94.6026 80.3256 93.6521 78.17 92.2568 76.3093C94.419 76.185 96.5882 76.2975 98.726 76.6447C99.004 77.0665 99.1731 77.5506 99.218 78.0537L99.2403 78.0649ZM95.4886 72.4457C96.7936 73.475 97.8487 74.7863 98.575 76.2813C94.5224 75.6893 90.3951 75.8542 86.4027 76.7678C85.7294 76.9098 85.1083 77.2349 84.6079 77.7071C83.4281 79.3453 83.389 80.5027 82.9305 81.8111C82.2036 83.9135 81.6501 85.6188 81.1804 87.1788C78.7258 86.0605 73.0003 81.8614 72.7934 79.843C72.8325 78.7247 74.0235 74.9114 76.4278 72.9712C77.5179 72.0763 78.7281 71.3385 80.023 70.7794C79.8958 70.899 79.7957 71.0444 79.7296 71.206C79.6635 71.3675 79.6329 71.5414 79.6398 71.7158C79.6467 71.8902 79.6909 72.0611 79.7696 72.2169C79.8482 72.3727 79.9594 72.5099 80.0957 72.619L80.7051 73.4074C80.7956 73.5292 80.9099 73.6314 81.041 73.7077C81.1722 73.784 81.3176 73.8328 81.4682 73.8511C81.6189 73.8694 81.7717 73.8568 81.9173 73.8142C82.063 73.7716 82.1984 73.6997 82.3154 73.6031C82.4369 73.5131 82.5388 73.3994 82.6151 73.2689C82.6914 73.1384 82.7404 72.9937 82.7592 72.8438C82.778 72.6938 82.7663 72.5415 82.7246 72.3962C82.6829 72.2509 82.6122 72.1156 82.5167 71.9984L81.9576 71.1429C81.857 70.9324 81.6982 70.7553 81.5 70.6324C81.3018 70.5095 81.0725 70.446 80.8393 70.4496C83.142 69.6054 85.6077 69.3013 88.0465 69.5605C87.8194 70.6471 87.681 71.7504 87.6328 72.8594C87.5992 73.5192 88.231 73.3403 88.2422 72.7923C88.2822 71.713 88.4037 70.6383 88.6057 69.5773C89.8637 70.0078 90.4172 69.6724 93.4366 71.0534C93.0622 71.4712 92.7166 71.914 92.4022 72.3786V72.3953C92.3407 72.5072 92.2344 72.7252 92.4469 72.8706C92.6594 73.016 93.0563 72.5463 93.1905 72.3618C93.4167 72.0037 93.6651 71.6601 93.9342 71.333C94.812 71.9313 95.0525 72.0878 95.4662 72.4345L95.4886 72.4457Z" fill="black"/>
<path d="M100.224 88.0957C100.258 88.118 100.258 88.118 100.224 88.0957V88.0957ZM74.9852 76.6279L74.8902 76.9242C75.6619 77.2732 76.3885 77.7144 77.054 78.2382L77.2441 77.9474C76.53 77.4442 75.7743 77.0028 74.9852 76.6279ZM77.4007 75.901C77.0261 75.6773 76.8416 75.504 76.2153 75.0735C76.1004 75.0115 75.9918 74.9385 75.891 74.8554L75.7009 75.135C75.9581 75.3586 76.3104 75.5264 76.7186 75.8451C77.0327 76.0902 77.3613 76.3161 77.7026 76.5216C77.7697 76.5216 77.7026 76.5664 77.9319 76.2421C77.7633 76.1157 77.5858 76.0017 77.4007 75.901ZM92.2121 85.8591C90.6354 83.4213 89.2655 80.8269 87.9459 78.3053C87.8621 78.1487 87.7782 78.076 87.6831 78.076C87.4539 78.1096 87.3197 78.5792 87.2079 79.0769C87.2079 79.513 85.989 82.1521 85.2565 84.78C85.1111 85.272 85.4242 85.4677 85.7094 85.5852C87.7763 86.6139 90.0221 87.2346 92.3239 87.4135C92.5196 87.4135 92.76 87.4135 92.8383 87.2793C92.855 87.2381 92.8606 87.1932 92.8548 87.1491C92.8489 87.105 92.8317 87.0632 92.8048 87.0277C92.6698 86.6095 92.4698 86.2152 92.2121 85.8591ZM90.3222 81.2127C90.4397 81.5035 90.8814 81.5147 91.4405 81.6936C91.7681 81.8262 92.1243 81.8724 92.4749 81.8278C92.5811 81.7942 92.6315 81.7439 92.6203 81.6768C92.6203 81.4979 92.0052 81.4028 92.0052 81.4028L91.7089 81.3693C91.5389 81.383 91.3678 81.3628 91.2057 81.31C91.0435 81.2573 90.8934 81.1729 90.764 81.0618C90.5123 80.6312 90.6465 80.402 90.613 79.9435C90.613 79.0824 90.6521 78.9315 90.4732 78.6184C90.3837 78.5233 90.2272 78.4339 90.1769 78.7134C90.1581 79.5491 90.2067 80.3849 90.3222 81.2127ZM97.0374 78.4618C96.9759 78.2941 96.8082 77.9027 96.646 77.9866C96.4839 78.0704 96.646 78.445 96.8976 79.1048C97.0246 79.3806 97.1058 79.6752 97.1381 79.9771C97.1381 80.3069 96.8529 80.4747 96.5789 80.6536C96.3776 80.7207 96.0198 80.8493 95.9303 81.0562C95.9278 81.0883 95.9344 81.1205 95.9492 81.1492C95.964 81.1778 95.9865 81.2018 96.0142 81.2183C96.3144 81.1957 96.6017 81.087 96.8417 80.9052C97.0766 80.799 97.4959 80.525 97.5406 80.251C97.4495 79.6357 97.2804 79.0345 97.0374 78.4618Z" fill="black"/>
</svg>
